M48
;DRILL file {KiCad 4.0.7} date Tuesday, June 26, 2018 'PMt' 09:29:36 PM
;FORMAT={-:-/ absolute / metric / decimal}
FMAT,2
METRIC,TZ
T1C0.300
T2C0.500
T3C0.600
T4C0.700
T5C0.750
T6C0.800
T7C0.900
T8C1.000
T9C1.001
T10C1.016
T11C1.100
T12C1.700
%
G90
G05
M71
T1
X25.908Y-67.564
X27.534Y-51.054
X30.023Y-103.175
X32.512Y-110.338
X34.163Y-72.39
X34.76Y-104.432
X34.773Y-108.331
X34.823Y-105.74
X34.823Y-107.036
X34.823Y-109.626
X35.154Y-107.696
X35.179Y-108.966
X35.204Y-106.401
X36.678Y-89.129
X36.693Y-92.456
X37.262Y-48.235
X38.583Y-92.405
X38.862Y-66.294
X39.802Y-101.981
X40.589Y-102.794
X40.615Y-107.696
X40.64Y-76.708
X41.275Y-103.81
X42.139Y-81.559
X42.748Y-109.652
X43.993Y-101.727
X45.314Y-107.112
X46.533Y-101.651
X47.092Y-106.858
X52.705Y-77.597
X52.705Y-74.93
X59.055Y-81.153
X60.325Y-75.057
X60.325Y-76.708
X60.325Y-78.486
X60.35Y-84.582
X60.35Y-95.301
X70.485Y-77.597
X71.755Y-75.057
X71.755Y-81.153
X71.755Y-77.597
X72.898Y-104.927
X73.025Y-107.417
X75.565Y-118.516
X78.105Y-78.486
X78.105Y-81.153
X79.375Y-75.057
X79.375Y-76.708
X90.759Y-75.019
X90.805Y-77.597
X90.805Y-81.153
X92.469Y-77.567
X97.155Y-81.153
X97.79Y-79.121
X98.4Y-76.708
X98.425Y-75.019
X107.18Y-78.333
X109.728Y-81.153
X116.078Y-79.121
X116.078Y-81.153
T2
X30.099Y-108.407
X32.487Y-105.08
X41.021Y-110.465
X41.681Y-107.112
X45.085Y-48.26
X45.847Y-70.866
X46.177Y-81.255
X46.177Y-83.312
X49.276Y-103.403
X51.41Y-75.032
X51.816Y-47.752
X52.832Y-70.612
X53.975Y-61.849
X53.975Y-81.153
X55.245Y-81.153
X55.372Y-44.196
X56.477Y-63.5
X56.515Y-81.153
X57.785Y-46.609
X57.785Y-66.675
X57.785Y-81.153
X59.055Y-45.466
X63.043Y-82.804
X63.094Y-73.406
X65.176Y-81.305
X65.227Y-83.312
X66.7Y-70.815
X70.46Y-75.032
X71.374Y-71.247
X71.374Y-52.959
X73.025Y-66.294
X73.025Y-81.153
X74.295Y-48.895
X74.295Y-81.153
X75.565Y-66.294
X75.565Y-81.153
X75.692Y-50.927
X75.692Y-57.531
X77.089Y-50.8
X77.089Y-68.199
X78.232Y-58.674
X78.232Y-67.31
X79.375Y-54.229
X80.391Y-84.709
X80.645Y-54.991
X81.915Y-54.229
X82.144Y-82.804
X82.169Y-57.658
X82.194Y-73.406
X83.185Y-54.991
X84.277Y-83.312
X84.328Y-81.28
X84.455Y-54.229
X85.725Y-54.991
X85.725Y-70.866
X86.995Y-54.229
X88.265Y-54.991
X89.56Y-75.032
X90.427Y-71.373
X91.084Y-52.426
X92.075Y-49.149
X92.075Y-78.575
X92.075Y-81.153
X93.345Y-81.153
X94.615Y-44.704
X95.758Y-46.228
X95.885Y-81.153
X96.139Y-67.564
X96.393Y-78.486
X96.939Y-52.451
X97.155Y-61.849
X99.568Y-67.945
X99.695Y-54.991
X100.33Y-59.697
X100.482Y-88.163
X100.914Y-63.957
X100.965Y-54.229
X101.194Y-73.406
X101.194Y-82.804
X102.235Y-54.991
X103.175Y-83.312
X103.251Y-81.28
X103.505Y-54.229
X103.505Y-64.008
X103.51Y-77.508
X104.775Y-54.991
X104.775Y-70.866
X104.902Y-63.881
X106.045Y-54.229
X107.315Y-54.991
X107.493Y-100.94
X107.746Y-77.508
X108.458Y-75.032
X109.347Y-71.501
X109.83Y-77.8
X110.134Y-52.426
X110.998Y-81.153
X111.252Y-51.435
X112.268Y-81.153
X112.395Y-49.53
X113.487Y-77.8
X113.538Y-81.153
X113.792Y-46.736
X114.808Y-81.153
X115.037Y-44.602
X115.062Y-26.924
X115.087Y-66.878
X116.078Y-42.545
X116.078Y-51.562
X116.84Y-59.697
X118.363Y-67.437
X120.091Y-73.457
X120.091Y-82.753
T3
X33.909Y-40.64
X35.179Y-39.37
X35.179Y-41.91
T4
X96.52Y-92.71
X96.52Y-100.33
T5
X37.059Y-45.085
X57.963Y-121.31
X70.815Y-121.26
X70.866Y-89.662
X122.301Y-58.166
X122.301Y-61.722
T6
X29.21Y-32.385
X29.21Y-40.005
X39.116Y-32.385
X39.116Y-37.846
X39.116Y-40.386
X39.116Y-42.926
X46.736Y-32.385
X46.736Y-37.846
X46.736Y-40.386
X46.736Y-42.926
X100.965Y-92.71
X100.965Y-100.33
T7
X113.03Y-93.98
X115.57Y-93.98
X118.11Y-93.98
T8
X30.Y-65.
X30.Y-67.54
X30.Y-70.08
X30.Y-72.62
X30.Y-75.16
X30.025Y-99.671
X30.025Y-114.911
X32.54Y-65.
X32.54Y-67.54
X32.54Y-70.08
X32.54Y-72.62
X32.54Y-75.16
X32.565Y-99.671
X32.565Y-114.911
X35.105Y-95.861
X35.105Y-99.671
X35.105Y-114.911
X35.105Y-118.721
X37.645Y-95.861
X37.645Y-99.671
X37.645Y-114.911
X37.645Y-118.721
X40.185Y-95.861
X40.185Y-99.671
X40.185Y-114.911
X40.185Y-118.721
X42.725Y-95.861
X42.725Y-99.671
X42.725Y-114.911
X42.725Y-118.721
X45.265Y-95.861
X45.265Y-99.671
X45.265Y-114.911
X45.265Y-118.721
X47.805Y-95.861
X47.805Y-99.671
X47.805Y-114.911
X47.805Y-118.721
X50.345Y-95.861
X50.345Y-99.671
X50.345Y-114.911
X50.345Y-118.721
X52.885Y-95.861
X52.885Y-99.671
X52.885Y-114.911
X52.885Y-118.721
X55.425Y-99.671
X55.425Y-114.911
X57.965Y-99.671
X57.965Y-114.911
X60.505Y-99.671
X60.505Y-114.911
X62.738Y-39.878
X62.738Y-42.418
X62.77Y-30.48
X62.77Y-33.02
X63.045Y-99.671
X63.045Y-114.911
X65.278Y-39.878
X65.278Y-42.418
X65.31Y-30.48
X65.31Y-33.02
X65.585Y-99.671
X65.585Y-114.911
X67.818Y-39.878
X67.818Y-42.418
X67.85Y-30.48
X67.85Y-33.02
X70.358Y-39.878
X70.358Y-42.418
X70.39Y-30.48
X70.39Y-33.02
X72.898Y-39.878
X72.898Y-42.418
X72.93Y-30.48
X72.93Y-33.02
X75.438Y-39.878
X75.438Y-42.418
X75.47Y-30.48
X75.47Y-33.02
X77.978Y-39.878
X77.978Y-42.418
X78.01Y-30.48
X78.01Y-33.02
X80.518Y-39.878
X80.518Y-42.418
X80.55Y-30.48
X80.55Y-33.02
X83.058Y-39.878
X83.058Y-42.418
X83.09Y-30.48
X83.09Y-33.02
X85.598Y-39.878
X85.598Y-42.418
X85.63Y-30.48
X85.63Y-33.02
X88.138Y-39.878
X88.138Y-42.418
X88.17Y-30.48
X88.17Y-33.02
X90.678Y-39.878
X90.678Y-42.418
X90.71Y-30.48
X90.71Y-33.02
X93.218Y-39.878
X93.218Y-42.418
X93.25Y-30.48
X93.25Y-33.02
X95.758Y-39.878
X95.758Y-42.418
X95.79Y-30.48
X95.79Y-33.02
X98.298Y-39.878
X98.298Y-42.418
X98.33Y-30.48
X98.33Y-33.02
X99.695Y-107.95
X99.695Y-110.49
X100.838Y-39.878
X100.838Y-42.418
X100.87Y-30.48
X100.87Y-33.02
X103.355Y-105.41
X103.355Y-107.95
X103.355Y-110.49
X103.378Y-39.878
X103.378Y-42.418
X103.41Y-30.48
X103.41Y-33.02
X105.918Y-39.878
X105.918Y-42.418
X105.95Y-30.48
X105.95Y-33.02
X108.458Y-39.878
X108.458Y-42.418
X108.49Y-30.48
X108.49Y-33.02
X110.998Y-39.878
X110.998Y-42.418
X111.03Y-30.48
X111.03Y-33.02
T9
X102.87Y-118.11
X102.87Y-120.65
X106.045Y-92.71
X106.045Y-95.25
T10
X75.594Y-97.206
X75.594Y-99.746
X75.594Y-102.286
X75.594Y-104.826
X75.594Y-107.366
X78.134Y-97.206
X78.134Y-99.746
X78.134Y-102.286
X78.134Y-104.826
X78.134Y-107.366
X85.754Y-97.206
X85.754Y-99.746
X85.754Y-102.286
X85.754Y-104.826
X85.754Y-107.366
X88.294Y-97.206
X88.294Y-99.746
X88.294Y-102.286
X88.294Y-104.826
X88.294Y-107.366
T11
X95.885Y-104.14
X95.885Y-111.76
T12
X109.555Y-116.205
X113.515Y-116.205
X117.475Y-116.205
X121.435Y-116.205
T9
X91.711Y-115.413G85X93.709Y-115.413
G05
X91.711Y-121.412G85X93.709Y-121.412
G05
X97.409Y-119.412G85X97.409Y-117.413
G05
T0
M30
