%TF.GenerationSoftware,KiCad,Pcbnew,4.0.7*%
%TF.CreationDate,2018-06-26T21:29:00-04:00*%
%TF.ProjectId,row_driver,726F775F6472697665722E6B69636164,rev?*%
%TF.FileFunction,Soldermask,Top*%
%FSLAX46Y46*%
G04 Gerber Fmt 4.6, Leading zero omitted, Abs format (unit mm)*
G04 Created by KiCad (PCBNEW 4.0.7) date Tuesday, June 26, 2018 'PMt' 09:29:00 PM*
%MOMM*%
%LPD*%
G01*
G04 APERTURE LIST*
%ADD10C,0.100000*%
%ADD11C,0.150000*%
%ADD12R,1.400000X0.800000*%
%ADD13R,2.400000X2.400000*%
%ADD14C,2.400000*%
%ADD15R,3.900120X3.900120*%
%ADD16C,1.400760*%
%ADD17C,2.000000*%
%ADD18O,2.000000X2.000000*%
%ADD19C,1.924000*%
%ADD20R,3.100000X3.100000*%
%ADD21C,3.100000*%
%ADD22R,1.100000X1.700000*%
%ADD23R,1.700000X1.100000*%
%ADD24R,1.300000X1.600000*%
%ADD25R,1.650000X1.400000*%
%ADD26R,1.100000X0.850000*%
%ADD27R,1.000000X2.350000*%
%ADD28R,1.000000X2.400000*%
%ADD29C,1.800000*%
%ADD30O,1.800000X1.800000*%
%ADD31R,2.100000X2.100000*%
%ADD32O,2.100000X2.100000*%
%ADD33R,2.000000X2.000000*%
%ADD34R,2.600000X2.600000*%
%ADD35O,2.600000X2.600000*%
%ADD36O,3.900000X3.900000*%
%ADD37R,2.200000X2.200000*%
%ADD38O,2.200000X2.200000*%
%ADD39R,2.127200X2.127200*%
%ADD40O,2.127200X2.127200*%
%ADD41C,2.100000*%
%ADD42C,6.324600*%
G04 APERTURE END LIST*
D10*
D11*
X25000000Y-25000000D02*
X125000000Y-25000000D01*
X25000000Y-125000000D02*
X25000000Y-25000000D01*
X125000000Y-125000000D02*
X25000000Y-125000000D01*
X125000000Y-25000000D02*
X125000000Y-125000000D01*
D12*
X33777600Y-104440800D03*
X33777600Y-105090800D03*
X33777600Y-105740800D03*
X33777600Y-106390800D03*
X33777600Y-107040800D03*
X33777600Y-107690800D03*
X33777600Y-108340800D03*
X33777600Y-108990800D03*
X33777600Y-109640800D03*
X33777600Y-110290800D03*
X39577600Y-110290800D03*
X39577600Y-109640800D03*
X39577600Y-108990800D03*
X39577600Y-108340800D03*
X39577600Y-107690800D03*
X39577600Y-107040800D03*
X39577600Y-106390800D03*
X39577600Y-105740800D03*
X39577600Y-105090800D03*
X39577600Y-104440800D03*
D13*
X106045000Y-95250000D03*
D14*
X106045000Y-92710000D03*
D15*
X92710000Y-115412520D03*
X92710000Y-121412000D03*
X97409000Y-118412260D03*
D16*
X33909000Y-40640000D03*
X35179000Y-39370000D03*
X35179000Y-41910000D03*
D17*
X39116000Y-32385000D03*
D18*
X46736000Y-32385000D03*
D19*
X118110000Y-93980000D03*
X115570000Y-93980000D03*
X113030000Y-93980000D03*
D18*
X39116000Y-37846000D03*
X39116000Y-40386000D03*
X39116000Y-42926000D03*
X46736000Y-42926000D03*
X46736000Y-40386000D03*
X46736000Y-37846000D03*
D20*
X109555000Y-116205000D03*
D21*
X113515000Y-116205000D03*
X117475000Y-116205000D03*
X121435000Y-116205000D03*
D22*
X43495000Y-48260000D03*
X41595000Y-48260000D03*
X33975000Y-45085000D03*
X35875000Y-45085000D03*
X33975000Y-48260000D03*
X35875000Y-48260000D03*
D23*
X106553000Y-68900000D03*
X106553000Y-70800000D03*
X121158000Y-68900000D03*
X121158000Y-70800000D03*
X121158000Y-85410000D03*
X121158000Y-87310000D03*
X106553000Y-87310000D03*
X106553000Y-85410000D03*
X87630000Y-70800000D03*
X87630000Y-68900000D03*
X102235000Y-70800000D03*
X102235000Y-68900000D03*
X102235000Y-85410000D03*
X102235000Y-87310000D03*
X87630000Y-85410000D03*
X87630000Y-87310000D03*
X68580000Y-68900000D03*
X68580000Y-70800000D03*
X83185000Y-68900000D03*
X83185000Y-70800000D03*
X83185000Y-87310000D03*
X83185000Y-85410000D03*
X68580000Y-87310000D03*
X68580000Y-85410000D03*
X48895000Y-70800000D03*
X48895000Y-68900000D03*
X63500000Y-70800000D03*
X63500000Y-68900000D03*
X63500000Y-85410000D03*
X63500000Y-87310000D03*
X48895000Y-85410000D03*
X48895000Y-87310000D03*
D24*
X54990000Y-86360000D03*
X51690000Y-86360000D03*
X60705000Y-86360000D03*
X57405000Y-86360000D03*
X57405000Y-69850000D03*
X60705000Y-69850000D03*
X51690000Y-69850000D03*
X54990000Y-69850000D03*
X74675000Y-86360000D03*
X71375000Y-86360000D03*
X80390000Y-86360000D03*
X77090000Y-86360000D03*
X77090000Y-69850000D03*
X80390000Y-69850000D03*
X71375000Y-69850000D03*
X74675000Y-69850000D03*
X93725000Y-86360000D03*
X90425000Y-86360000D03*
X99440000Y-86360000D03*
X96140000Y-86360000D03*
X96140000Y-69850000D03*
X99440000Y-69850000D03*
X90425000Y-69850000D03*
X93725000Y-69850000D03*
X112648000Y-86360000D03*
X109348000Y-86360000D03*
X118363000Y-86360000D03*
X115063000Y-86360000D03*
X115063000Y-69850000D03*
X118363000Y-69850000D03*
X109348000Y-69850000D03*
X112648000Y-69850000D03*
D25*
X47625000Y-81296000D03*
X47625000Y-83296000D03*
X66675000Y-81296000D03*
X66675000Y-83296000D03*
X85725000Y-81296000D03*
X85725000Y-83296000D03*
X104648000Y-81296000D03*
X104648000Y-83296000D03*
D26*
X75835000Y-26655000D03*
X75835000Y-27955000D03*
X77835000Y-27305000D03*
X80915000Y-26655000D03*
X80915000Y-27955000D03*
X82915000Y-27305000D03*
X85995000Y-26655000D03*
X85995000Y-27955000D03*
X87995000Y-27305000D03*
X91075000Y-26655000D03*
X91075000Y-27955000D03*
X93075000Y-27305000D03*
X96155000Y-26655000D03*
X96155000Y-27955000D03*
X98155000Y-27305000D03*
X101235000Y-26655000D03*
X101235000Y-27955000D03*
X103235000Y-27305000D03*
X106315000Y-26655000D03*
X106315000Y-27955000D03*
X108315000Y-27305000D03*
X111395000Y-26655000D03*
X111395000Y-27955000D03*
X113395000Y-27305000D03*
D27*
X50162611Y-82805000D03*
X51432611Y-82805000D03*
X52702611Y-82805000D03*
X53972611Y-82805000D03*
X55242611Y-82805000D03*
X56512611Y-82805000D03*
X57782611Y-82805000D03*
X59052611Y-82805000D03*
X60322611Y-82805000D03*
X61592611Y-82805000D03*
X61592611Y-73405000D03*
X60322611Y-73405000D03*
X59052611Y-73405000D03*
X57782611Y-73405000D03*
X56512611Y-73405000D03*
X55242611Y-73405000D03*
X53972611Y-73405000D03*
X52702611Y-73405000D03*
X51432611Y-73405000D03*
X50162611Y-73405000D03*
X69215000Y-82805000D03*
X70485000Y-82805000D03*
X71755000Y-82805000D03*
X73025000Y-82805000D03*
X74295000Y-82805000D03*
X75565000Y-82805000D03*
X76835000Y-82805000D03*
X78105000Y-82805000D03*
X79375000Y-82805000D03*
X80645000Y-82805000D03*
X80645000Y-73405000D03*
X79375000Y-73405000D03*
X78105000Y-73405000D03*
X76835000Y-73405000D03*
X75565000Y-73405000D03*
X74295000Y-73405000D03*
X73025000Y-73405000D03*
X71755000Y-73405000D03*
X70485000Y-73405000D03*
X69215000Y-73405000D03*
D28*
X79375000Y-61850000D03*
X80645000Y-61850000D03*
X81915000Y-61850000D03*
X83185000Y-61850000D03*
X84455000Y-61850000D03*
X85725000Y-61850000D03*
X86995000Y-61850000D03*
X88265000Y-61850000D03*
X89535000Y-61850000D03*
X89535000Y-52450000D03*
X88265000Y-52450000D03*
X86995000Y-52450000D03*
X85725000Y-52450000D03*
X84455000Y-52450000D03*
X83185000Y-52450000D03*
X81915000Y-52450000D03*
X80645000Y-52450000D03*
X79375000Y-52450000D03*
D27*
X88265000Y-82805000D03*
X89535000Y-82805000D03*
X90805000Y-82805000D03*
X92075000Y-82805000D03*
X93345000Y-82805000D03*
X94615000Y-82805000D03*
X95885000Y-82805000D03*
X97155000Y-82805000D03*
X98425000Y-82805000D03*
X99695000Y-82805000D03*
X99695000Y-73405000D03*
X98425000Y-73405000D03*
X97155000Y-73405000D03*
X95885000Y-73405000D03*
X94615000Y-73405000D03*
X93345000Y-73405000D03*
X92075000Y-73405000D03*
X90805000Y-73405000D03*
X89535000Y-73405000D03*
X88265000Y-73405000D03*
X107188000Y-82805000D03*
X108458000Y-82805000D03*
X109728000Y-82805000D03*
X110998000Y-82805000D03*
X112268000Y-82805000D03*
X113538000Y-82805000D03*
X114808000Y-82805000D03*
X116078000Y-82805000D03*
X117348000Y-82805000D03*
X118618000Y-82805000D03*
X118618000Y-73405000D03*
X117348000Y-73405000D03*
X116078000Y-73405000D03*
X114808000Y-73405000D03*
X113538000Y-73405000D03*
X112268000Y-73405000D03*
X110998000Y-73405000D03*
X109728000Y-73405000D03*
X108458000Y-73405000D03*
X107188000Y-73405000D03*
D28*
X98425000Y-61850000D03*
X99695000Y-61850000D03*
X100965000Y-61850000D03*
X102235000Y-61850000D03*
X103505000Y-61850000D03*
X104775000Y-61850000D03*
X106045000Y-61850000D03*
X107315000Y-61850000D03*
X108585000Y-61850000D03*
X108585000Y-52450000D03*
X107315000Y-52450000D03*
X106045000Y-52450000D03*
X104775000Y-52450000D03*
X103505000Y-52450000D03*
X102235000Y-52450000D03*
X100965000Y-52450000D03*
X99695000Y-52450000D03*
X98425000Y-52450000D03*
D13*
X102870000Y-120650000D03*
D14*
X102870000Y-118110000D03*
D29*
X96520000Y-92710000D03*
D30*
X96520000Y-100330000D03*
D22*
X106360000Y-100965000D03*
X104460000Y-100965000D03*
X101920000Y-114935000D03*
X103820000Y-114935000D03*
D31*
X99695000Y-107950000D03*
D32*
X99695000Y-110490000D03*
D33*
X29210000Y-32385000D03*
D18*
X29210000Y-40005000D03*
D33*
X100965000Y-92710000D03*
D18*
X100965000Y-100330000D03*
D34*
X95885000Y-111760000D03*
D35*
X95885000Y-104140000D03*
D25*
X30073600Y-105095800D03*
X30073600Y-107095800D03*
X43154600Y-107095800D03*
X43154600Y-105095800D03*
D22*
X36692800Y-91033600D03*
X38592800Y-91033600D03*
D36*
X120015000Y-107950000D03*
D37*
X103355000Y-105410000D03*
D38*
X103355000Y-107950000D03*
X103355000Y-110490000D03*
D39*
X75594035Y-97205947D03*
D40*
X78134035Y-97205947D03*
X75594035Y-99745947D03*
X78134035Y-99745947D03*
X75594035Y-102285947D03*
X78134035Y-102285947D03*
X75594035Y-104825947D03*
X78134035Y-104825947D03*
X75594035Y-107365947D03*
X78134035Y-107365947D03*
D39*
X85754035Y-97205947D03*
D40*
X88294035Y-97205947D03*
X85754035Y-99745947D03*
X88294035Y-99745947D03*
X85754035Y-102285947D03*
X88294035Y-102285947D03*
X85754035Y-104825947D03*
X88294035Y-104825947D03*
X85754035Y-107365947D03*
X88294035Y-107365947D03*
D17*
X47805064Y-114911222D03*
X45265064Y-114911222D03*
X42725064Y-114911222D03*
X40185064Y-114911222D03*
X37645064Y-114911222D03*
X35105064Y-114911222D03*
X32565064Y-114911222D03*
X30025064Y-114911222D03*
D41*
X27475064Y-114801222D03*
X68135064Y-114801222D03*
X68135064Y-99781222D03*
X27475064Y-99781222D03*
D17*
X50345064Y-114911222D03*
X52885064Y-114911222D03*
X55425064Y-114911222D03*
X57965064Y-114911222D03*
X60505064Y-114911222D03*
X63045064Y-114911222D03*
X65585064Y-114911222D03*
X65585064Y-99671222D03*
X63045064Y-99671222D03*
X60505064Y-99671222D03*
X57965064Y-99671222D03*
X55425064Y-99671222D03*
X52885064Y-99671222D03*
X50345064Y-99671222D03*
X47805064Y-99671222D03*
X45265064Y-99671222D03*
X42725064Y-99671222D03*
X40185064Y-99671222D03*
X37645064Y-99671222D03*
X35105064Y-99671222D03*
X32565064Y-99671222D03*
X30025064Y-99671222D03*
X52885064Y-95861222D03*
X50345064Y-95861222D03*
X47805064Y-95861222D03*
X45265064Y-95861222D03*
X42725064Y-95861222D03*
X40185064Y-95861222D03*
X37645064Y-95861222D03*
X35105064Y-95861222D03*
X35105064Y-118721222D03*
X37645064Y-118721222D03*
X40185064Y-118721222D03*
X42725064Y-118721222D03*
X45265064Y-118721222D03*
X47805064Y-118721222D03*
X50345064Y-118721222D03*
X52885064Y-118721222D03*
D33*
X30000000Y-65000000D03*
D18*
X32540000Y-65000000D03*
X30000000Y-67540000D03*
X32540000Y-67540000D03*
X30000000Y-70080000D03*
X32540000Y-70080000D03*
X30000000Y-72620000D03*
X32540000Y-72620000D03*
X30000000Y-75160000D03*
X32540000Y-75160000D03*
D33*
X110998000Y-39878000D03*
D18*
X110998000Y-42418000D03*
X108458000Y-39878000D03*
X108458000Y-42418000D03*
X105918000Y-39878000D03*
X105918000Y-42418000D03*
X103378000Y-39878000D03*
X103378000Y-42418000D03*
X100838000Y-39878000D03*
X100838000Y-42418000D03*
X98298000Y-39878000D03*
X98298000Y-42418000D03*
X95758000Y-39878000D03*
X95758000Y-42418000D03*
X93218000Y-39878000D03*
X93218000Y-42418000D03*
X90678000Y-39878000D03*
X90678000Y-42418000D03*
X88138000Y-39878000D03*
X88138000Y-42418000D03*
X85598000Y-39878000D03*
X85598000Y-42418000D03*
X83058000Y-39878000D03*
X83058000Y-42418000D03*
X80518000Y-39878000D03*
X80518000Y-42418000D03*
X77978000Y-39878000D03*
X77978000Y-42418000D03*
X75438000Y-39878000D03*
X75438000Y-42418000D03*
X72898000Y-39878000D03*
X72898000Y-42418000D03*
X70358000Y-39878000D03*
X70358000Y-42418000D03*
X67818000Y-39878000D03*
X67818000Y-42418000D03*
X65278000Y-39878000D03*
X65278000Y-42418000D03*
X62738000Y-39878000D03*
X62738000Y-42418000D03*
D33*
X111029750Y-30480000D03*
D18*
X111029750Y-33020000D03*
X108489750Y-30480000D03*
X108489750Y-33020000D03*
X105949750Y-30480000D03*
X105949750Y-33020000D03*
X103409750Y-30480000D03*
X103409750Y-33020000D03*
X100869750Y-30480000D03*
X100869750Y-33020000D03*
X98329750Y-30480000D03*
X98329750Y-33020000D03*
X95789750Y-30480000D03*
X95789750Y-33020000D03*
X93249750Y-30480000D03*
X93249750Y-33020000D03*
X90709750Y-30480000D03*
X90709750Y-33020000D03*
X88169750Y-30480000D03*
X88169750Y-33020000D03*
X85629750Y-30480000D03*
X85629750Y-33020000D03*
X83089750Y-30480000D03*
X83089750Y-33020000D03*
X80549750Y-30480000D03*
X80549750Y-33020000D03*
X78009750Y-30480000D03*
X78009750Y-33020000D03*
X75469750Y-30480000D03*
X75469750Y-33020000D03*
X72929750Y-30480000D03*
X72929750Y-33020000D03*
X70389750Y-30480000D03*
X70389750Y-33020000D03*
X67849750Y-30480000D03*
X67849750Y-33020000D03*
X65309750Y-30480000D03*
X65309750Y-33020000D03*
X62769750Y-30480000D03*
X62769750Y-33020000D03*
D42*
X120173750Y-31750000D03*
X53625750Y-31750000D03*
M02*
