%TF.GenerationSoftware,KiCad,Pcbnew,4.0.7*%
%TF.CreationDate,2018-06-26T21:29:00-04:00*%
%TF.ProjectId,row_driver,726F775F6472697665722E6B69636164,rev?*%
%TF.FileFunction,Copper,L1,Top,Signal*%
%FSLAX46Y46*%
G04 Gerber Fmt 4.6, Leading zero omitted, Abs format (unit mm)*
G04 Created by KiCad (PCBNEW 4.0.7) date Tuesday, June 26, 2018 'PMt' 09:29:00 PM*
%MOMM*%
%LPD*%
G01*
G04 APERTURE LIST*
%ADD10C,0.100000*%
%ADD11C,0.150000*%
%ADD12R,1.000000X0.400000*%
%ADD13R,2.000000X2.000000*%
%ADD14C,2.000000*%
%ADD15R,3.500120X3.500120*%
%ADD16C,1.000760*%
%ADD17C,1.600000*%
%ADD18O,1.600000X1.600000*%
%ADD19C,1.524000*%
%ADD20R,2.700000X2.700000*%
%ADD21C,2.700000*%
%ADD22R,0.700000X1.300000*%
%ADD23R,1.300000X0.700000*%
%ADD24R,0.900000X1.200000*%
%ADD25R,1.250000X1.000000*%
%ADD26R,0.700000X0.450000*%
%ADD27R,0.600000X1.950000*%
%ADD28R,0.600000X2.000000*%
%ADD29C,1.400000*%
%ADD30O,1.400000X1.400000*%
%ADD31R,1.700000X1.700000*%
%ADD32O,1.700000X1.700000*%
%ADD33R,1.600000X1.600000*%
%ADD34R,2.200000X2.200000*%
%ADD35O,2.200000X2.200000*%
%ADD36R,1.800000X1.800000*%
%ADD37O,1.800000X1.800000*%
%ADD38R,1.727200X1.727200*%
%ADD39O,1.727200X1.727200*%
%ADD40C,1.700000*%
%ADD41C,0.800000*%
%ADD42C,1.000000*%
%ADD43C,0.500000*%
%ADD44C,0.650000*%
%ADD45C,0.400000*%
%ADD46C,0.350000*%
%ADD47C,1.000000*%
%ADD48C,0.250000*%
G04 APERTURE END LIST*
D10*
D11*
X25000000Y-25000000D02*
X125000000Y-25000000D01*
X25000000Y-125000000D02*
X25000000Y-25000000D01*
X125000000Y-125000000D02*
X25000000Y-125000000D01*
X125000000Y-25000000D02*
X125000000Y-125000000D01*
D12*
X33777600Y-104440800D03*
X33777600Y-105090800D03*
X33777600Y-105740800D03*
X33777600Y-106390800D03*
X33777600Y-107040800D03*
X33777600Y-107690800D03*
X33777600Y-108340800D03*
X33777600Y-108990800D03*
X33777600Y-109640800D03*
X33777600Y-110290800D03*
X39577600Y-110290800D03*
X39577600Y-109640800D03*
X39577600Y-108990800D03*
X39577600Y-108340800D03*
X39577600Y-107690800D03*
X39577600Y-107040800D03*
X39577600Y-106390800D03*
X39577600Y-105740800D03*
X39577600Y-105090800D03*
X39577600Y-104440800D03*
D13*
X106045000Y-95250000D03*
D14*
X106045000Y-92710000D03*
D15*
X92710000Y-115412520D03*
X92710000Y-121412000D03*
X97409000Y-118412260D03*
D16*
X33909000Y-40640000D03*
X35179000Y-39370000D03*
X35179000Y-41910000D03*
D17*
X39116000Y-32385000D03*
D18*
X46736000Y-32385000D03*
D19*
X118110000Y-93980000D03*
X115570000Y-93980000D03*
X113030000Y-93980000D03*
D18*
X39116000Y-37846000D03*
X39116000Y-40386000D03*
X39116000Y-42926000D03*
X46736000Y-42926000D03*
X46736000Y-40386000D03*
X46736000Y-37846000D03*
D20*
X109555000Y-116205000D03*
D21*
X113515000Y-116205000D03*
X117475000Y-116205000D03*
X121435000Y-116205000D03*
D22*
X43495000Y-48260000D03*
X41595000Y-48260000D03*
X33975000Y-45085000D03*
X35875000Y-45085000D03*
X33975000Y-48260000D03*
X35875000Y-48260000D03*
D23*
X106553000Y-68900000D03*
X106553000Y-70800000D03*
X121158000Y-68900000D03*
X121158000Y-70800000D03*
X121158000Y-85410000D03*
X121158000Y-87310000D03*
X106553000Y-87310000D03*
X106553000Y-85410000D03*
X87630000Y-70800000D03*
X87630000Y-68900000D03*
X102235000Y-70800000D03*
X102235000Y-68900000D03*
X102235000Y-85410000D03*
X102235000Y-87310000D03*
X87630000Y-85410000D03*
X87630000Y-87310000D03*
X68580000Y-68900000D03*
X68580000Y-70800000D03*
X83185000Y-68900000D03*
X83185000Y-70800000D03*
X83185000Y-87310000D03*
X83185000Y-85410000D03*
X68580000Y-87310000D03*
X68580000Y-85410000D03*
X48895000Y-70800000D03*
X48895000Y-68900000D03*
X63500000Y-70800000D03*
X63500000Y-68900000D03*
X63500000Y-85410000D03*
X63500000Y-87310000D03*
X48895000Y-85410000D03*
X48895000Y-87310000D03*
D24*
X54990000Y-86360000D03*
X51690000Y-86360000D03*
X60705000Y-86360000D03*
X57405000Y-86360000D03*
X57405000Y-69850000D03*
X60705000Y-69850000D03*
X51690000Y-69850000D03*
X54990000Y-69850000D03*
X74675000Y-86360000D03*
X71375000Y-86360000D03*
X80390000Y-86360000D03*
X77090000Y-86360000D03*
X77090000Y-69850000D03*
X80390000Y-69850000D03*
X71375000Y-69850000D03*
X74675000Y-69850000D03*
X93725000Y-86360000D03*
X90425000Y-86360000D03*
X99440000Y-86360000D03*
X96140000Y-86360000D03*
X96140000Y-69850000D03*
X99440000Y-69850000D03*
X90425000Y-69850000D03*
X93725000Y-69850000D03*
X112648000Y-86360000D03*
X109348000Y-86360000D03*
X118363000Y-86360000D03*
X115063000Y-86360000D03*
X115063000Y-69850000D03*
X118363000Y-69850000D03*
X109348000Y-69850000D03*
X112648000Y-69850000D03*
D25*
X47625000Y-81296000D03*
X47625000Y-83296000D03*
X66675000Y-81296000D03*
X66675000Y-83296000D03*
X85725000Y-81296000D03*
X85725000Y-83296000D03*
X104648000Y-81296000D03*
X104648000Y-83296000D03*
D26*
X75835000Y-26655000D03*
X75835000Y-27955000D03*
X77835000Y-27305000D03*
X80915000Y-26655000D03*
X80915000Y-27955000D03*
X82915000Y-27305000D03*
X85995000Y-26655000D03*
X85995000Y-27955000D03*
X87995000Y-27305000D03*
X91075000Y-26655000D03*
X91075000Y-27955000D03*
X93075000Y-27305000D03*
X96155000Y-26655000D03*
X96155000Y-27955000D03*
X98155000Y-27305000D03*
X101235000Y-26655000D03*
X101235000Y-27955000D03*
X103235000Y-27305000D03*
X106315000Y-26655000D03*
X106315000Y-27955000D03*
X108315000Y-27305000D03*
X111395000Y-26655000D03*
X111395000Y-27955000D03*
X113395000Y-27305000D03*
D27*
X50162611Y-82805000D03*
X51432611Y-82805000D03*
X52702611Y-82805000D03*
X53972611Y-82805000D03*
X55242611Y-82805000D03*
X56512611Y-82805000D03*
X57782611Y-82805000D03*
X59052611Y-82805000D03*
X60322611Y-82805000D03*
X61592611Y-82805000D03*
X61592611Y-73405000D03*
X60322611Y-73405000D03*
X59052611Y-73405000D03*
X57782611Y-73405000D03*
X56512611Y-73405000D03*
X55242611Y-73405000D03*
X53972611Y-73405000D03*
X52702611Y-73405000D03*
X51432611Y-73405000D03*
X50162611Y-73405000D03*
X69215000Y-82805000D03*
X70485000Y-82805000D03*
X71755000Y-82805000D03*
X73025000Y-82805000D03*
X74295000Y-82805000D03*
X75565000Y-82805000D03*
X76835000Y-82805000D03*
X78105000Y-82805000D03*
X79375000Y-82805000D03*
X80645000Y-82805000D03*
X80645000Y-73405000D03*
X79375000Y-73405000D03*
X78105000Y-73405000D03*
X76835000Y-73405000D03*
X75565000Y-73405000D03*
X74295000Y-73405000D03*
X73025000Y-73405000D03*
X71755000Y-73405000D03*
X70485000Y-73405000D03*
X69215000Y-73405000D03*
D28*
X79375000Y-61850000D03*
X80645000Y-61850000D03*
X81915000Y-61850000D03*
X83185000Y-61850000D03*
X84455000Y-61850000D03*
X85725000Y-61850000D03*
X86995000Y-61850000D03*
X88265000Y-61850000D03*
X89535000Y-61850000D03*
X89535000Y-52450000D03*
X88265000Y-52450000D03*
X86995000Y-52450000D03*
X85725000Y-52450000D03*
X84455000Y-52450000D03*
X83185000Y-52450000D03*
X81915000Y-52450000D03*
X80645000Y-52450000D03*
X79375000Y-52450000D03*
D27*
X88265000Y-82805000D03*
X89535000Y-82805000D03*
X90805000Y-82805000D03*
X92075000Y-82805000D03*
X93345000Y-82805000D03*
X94615000Y-82805000D03*
X95885000Y-82805000D03*
X97155000Y-82805000D03*
X98425000Y-82805000D03*
X99695000Y-82805000D03*
X99695000Y-73405000D03*
X98425000Y-73405000D03*
X97155000Y-73405000D03*
X95885000Y-73405000D03*
X94615000Y-73405000D03*
X93345000Y-73405000D03*
X92075000Y-73405000D03*
X90805000Y-73405000D03*
X89535000Y-73405000D03*
X88265000Y-73405000D03*
X107188000Y-82805000D03*
X108458000Y-82805000D03*
X109728000Y-82805000D03*
X110998000Y-82805000D03*
X112268000Y-82805000D03*
X113538000Y-82805000D03*
X114808000Y-82805000D03*
X116078000Y-82805000D03*
X117348000Y-82805000D03*
X118618000Y-82805000D03*
X118618000Y-73405000D03*
X117348000Y-73405000D03*
X116078000Y-73405000D03*
X114808000Y-73405000D03*
X113538000Y-73405000D03*
X112268000Y-73405000D03*
X110998000Y-73405000D03*
X109728000Y-73405000D03*
X108458000Y-73405000D03*
X107188000Y-73405000D03*
D28*
X98425000Y-61850000D03*
X99695000Y-61850000D03*
X100965000Y-61850000D03*
X102235000Y-61850000D03*
X103505000Y-61850000D03*
X104775000Y-61850000D03*
X106045000Y-61850000D03*
X107315000Y-61850000D03*
X108585000Y-61850000D03*
X108585000Y-52450000D03*
X107315000Y-52450000D03*
X106045000Y-52450000D03*
X104775000Y-52450000D03*
X103505000Y-52450000D03*
X102235000Y-52450000D03*
X100965000Y-52450000D03*
X99695000Y-52450000D03*
X98425000Y-52450000D03*
D13*
X102870000Y-120650000D03*
D14*
X102870000Y-118110000D03*
D29*
X96520000Y-92710000D03*
D30*
X96520000Y-100330000D03*
D22*
X106360000Y-100965000D03*
X104460000Y-100965000D03*
X101920000Y-114935000D03*
X103820000Y-114935000D03*
D31*
X99695000Y-107950000D03*
D32*
X99695000Y-110490000D03*
D33*
X29210000Y-32385000D03*
D18*
X29210000Y-40005000D03*
D33*
X100965000Y-92710000D03*
D18*
X100965000Y-100330000D03*
D34*
X95885000Y-111760000D03*
D35*
X95885000Y-104140000D03*
D25*
X30073600Y-105095800D03*
X30073600Y-107095800D03*
X43154600Y-107095800D03*
X43154600Y-105095800D03*
D22*
X36692800Y-91033600D03*
X38592800Y-91033600D03*
D36*
X103355000Y-105410000D03*
D37*
X103355000Y-107950000D03*
X103355000Y-110490000D03*
D38*
X75594035Y-97205947D03*
D39*
X78134035Y-97205947D03*
X75594035Y-99745947D03*
X78134035Y-99745947D03*
X75594035Y-102285947D03*
X78134035Y-102285947D03*
X75594035Y-104825947D03*
X78134035Y-104825947D03*
X75594035Y-107365947D03*
X78134035Y-107365947D03*
D38*
X85754035Y-97205947D03*
D39*
X88294035Y-97205947D03*
X85754035Y-99745947D03*
X88294035Y-99745947D03*
X85754035Y-102285947D03*
X88294035Y-102285947D03*
X85754035Y-104825947D03*
X88294035Y-104825947D03*
X85754035Y-107365947D03*
X88294035Y-107365947D03*
D17*
X47805064Y-114911222D03*
X45265064Y-114911222D03*
X42725064Y-114911222D03*
X40185064Y-114911222D03*
X37645064Y-114911222D03*
X35105064Y-114911222D03*
X32565064Y-114911222D03*
X30025064Y-114911222D03*
D40*
X27475064Y-114801222D03*
X68135064Y-114801222D03*
X68135064Y-99781222D03*
X27475064Y-99781222D03*
D17*
X50345064Y-114911222D03*
X52885064Y-114911222D03*
X55425064Y-114911222D03*
X57965064Y-114911222D03*
X60505064Y-114911222D03*
X63045064Y-114911222D03*
X65585064Y-114911222D03*
X65585064Y-99671222D03*
X63045064Y-99671222D03*
X60505064Y-99671222D03*
X57965064Y-99671222D03*
X55425064Y-99671222D03*
X52885064Y-99671222D03*
X50345064Y-99671222D03*
X47805064Y-99671222D03*
X45265064Y-99671222D03*
X42725064Y-99671222D03*
X40185064Y-99671222D03*
X37645064Y-99671222D03*
X35105064Y-99671222D03*
X32565064Y-99671222D03*
X30025064Y-99671222D03*
X52885064Y-95861222D03*
X50345064Y-95861222D03*
X47805064Y-95861222D03*
X45265064Y-95861222D03*
X42725064Y-95861222D03*
X40185064Y-95861222D03*
X37645064Y-95861222D03*
X35105064Y-95861222D03*
X35105064Y-118721222D03*
X37645064Y-118721222D03*
X40185064Y-118721222D03*
X42725064Y-118721222D03*
X45265064Y-118721222D03*
X47805064Y-118721222D03*
X50345064Y-118721222D03*
X52885064Y-118721222D03*
D33*
X30000000Y-65000000D03*
D18*
X32540000Y-65000000D03*
X30000000Y-67540000D03*
X32540000Y-67540000D03*
X30000000Y-70080000D03*
X32540000Y-70080000D03*
X30000000Y-72620000D03*
X32540000Y-72620000D03*
X30000000Y-75160000D03*
X32540000Y-75160000D03*
D33*
X110998000Y-39878000D03*
D18*
X110998000Y-42418000D03*
X108458000Y-39878000D03*
X108458000Y-42418000D03*
X105918000Y-39878000D03*
X105918000Y-42418000D03*
X103378000Y-39878000D03*
X103378000Y-42418000D03*
X100838000Y-39878000D03*
X100838000Y-42418000D03*
X98298000Y-39878000D03*
X98298000Y-42418000D03*
X95758000Y-39878000D03*
X95758000Y-42418000D03*
X93218000Y-39878000D03*
X93218000Y-42418000D03*
X90678000Y-39878000D03*
X90678000Y-42418000D03*
X88138000Y-39878000D03*
X88138000Y-42418000D03*
X85598000Y-39878000D03*
X85598000Y-42418000D03*
X83058000Y-39878000D03*
X83058000Y-42418000D03*
X80518000Y-39878000D03*
X80518000Y-42418000D03*
X77978000Y-39878000D03*
X77978000Y-42418000D03*
X75438000Y-39878000D03*
X75438000Y-42418000D03*
X72898000Y-39878000D03*
X72898000Y-42418000D03*
X70358000Y-39878000D03*
X70358000Y-42418000D03*
X67818000Y-39878000D03*
X67818000Y-42418000D03*
X65278000Y-39878000D03*
X65278000Y-42418000D03*
X62738000Y-39878000D03*
X62738000Y-42418000D03*
D33*
X111029750Y-30480000D03*
D18*
X111029750Y-33020000D03*
X108489750Y-30480000D03*
X108489750Y-33020000D03*
X105949750Y-30480000D03*
X105949750Y-33020000D03*
X103409750Y-30480000D03*
X103409750Y-33020000D03*
X100869750Y-30480000D03*
X100869750Y-33020000D03*
X98329750Y-30480000D03*
X98329750Y-33020000D03*
X95789750Y-30480000D03*
X95789750Y-33020000D03*
X93249750Y-30480000D03*
X93249750Y-33020000D03*
X90709750Y-30480000D03*
X90709750Y-33020000D03*
X88169750Y-30480000D03*
X88169750Y-33020000D03*
X85629750Y-30480000D03*
X85629750Y-33020000D03*
X83089750Y-30480000D03*
X83089750Y-33020000D03*
X80549750Y-30480000D03*
X80549750Y-33020000D03*
X78009750Y-30480000D03*
X78009750Y-33020000D03*
X75469750Y-30480000D03*
X75469750Y-33020000D03*
X72929750Y-30480000D03*
X72929750Y-33020000D03*
X70389750Y-30480000D03*
X70389750Y-33020000D03*
X67849750Y-30480000D03*
X67849750Y-33020000D03*
X65309750Y-30480000D03*
X65309750Y-33020000D03*
X62769750Y-30480000D03*
X62769750Y-33020000D03*
D41*
X46177200Y-81254600D03*
X66700400Y-70815200D03*
X65176400Y-81305400D03*
X49276000Y-103403400D03*
D42*
X70815200Y-121259600D03*
X57962800Y-121310400D03*
X70866000Y-89662000D03*
D41*
X45085000Y-48260000D03*
X45847000Y-70866004D03*
X84328000Y-81280000D03*
X103251000Y-81279994D03*
X104775000Y-70866000D03*
X85725000Y-70866000D03*
D42*
X37058600Y-45085000D03*
D41*
X30099004Y-108407200D03*
X41021000Y-110464600D03*
X41681400Y-107111800D03*
X107492800Y-100939600D03*
X46177200Y-83312000D03*
X51409600Y-75031600D03*
X63093600Y-73406000D03*
X63042800Y-82804000D03*
X65227200Y-83312000D03*
X70459600Y-75031600D03*
X82194400Y-73406000D03*
X82143600Y-82804000D03*
X84277200Y-83312000D03*
X89560400Y-75031600D03*
X108458000Y-75031600D03*
X120091200Y-73456800D03*
X120091200Y-82753200D03*
X103174800Y-83312000D03*
X101193600Y-82804000D03*
X101193600Y-73406000D03*
X110134400Y-52425600D03*
X91084400Y-52425600D03*
X55245000Y-81153000D03*
X55372000Y-44196000D03*
X57785000Y-81153000D03*
X59055000Y-45466000D03*
X57785000Y-46609000D03*
X57785000Y-66675000D03*
X52832000Y-70612000D03*
X51816000Y-47752000D03*
X74295000Y-81153002D03*
X74295000Y-48895000D03*
X80391000Y-84709000D03*
X75692000Y-57531000D03*
X82169000Y-57658000D03*
X75692000Y-50927002D03*
X77089000Y-50800000D03*
X77089000Y-68199000D03*
X71373996Y-71247000D03*
X71374000Y-52959000D03*
X93345000Y-81153000D03*
X95885002Y-81153000D03*
X94615000Y-44704000D03*
X96139000Y-67564000D03*
X95758000Y-46228000D03*
X90426662Y-71373335D03*
X92075000Y-49149000D03*
X112268000Y-81153000D03*
X112395000Y-49530000D03*
X114808000Y-81153000D03*
X113792000Y-46736000D03*
X115087400Y-66878200D03*
X115036600Y-44602400D03*
X116078000Y-42545000D03*
X116078000Y-51562000D03*
X111252000Y-51435000D03*
X109347000Y-71501000D03*
D42*
X122301000Y-58166000D03*
D41*
X115062000Y-26924000D03*
D42*
X122301000Y-61722000D03*
D41*
X107315000Y-54990998D03*
X106045000Y-54229002D03*
X104775000Y-54991002D03*
X103505000Y-54228998D03*
X102235000Y-54991004D03*
X100965000Y-54229006D03*
X99694994Y-54991000D03*
X96939010Y-52451000D03*
X88264996Y-54991000D03*
X86995000Y-54229002D03*
X85725000Y-54991000D03*
X84455000Y-54228998D03*
X83185000Y-54991002D03*
X81915000Y-54229000D03*
X80645000Y-54991000D03*
X79374998Y-54229002D03*
D43*
X38582600Y-92405200D03*
X71755000Y-81153000D03*
X52705002Y-74930000D03*
X70485000Y-77597002D03*
X52705000Y-77597000D03*
X90805000Y-77597000D03*
X90805000Y-81153000D03*
X71755002Y-77597000D03*
X71754998Y-75057000D03*
X107179961Y-78332713D03*
X109728000Y-81153000D03*
X92468924Y-77566844D03*
X90758641Y-75018990D03*
D41*
X53975000Y-81153000D03*
X53975000Y-61849000D03*
X56515000Y-81153000D03*
X56476990Y-63500000D03*
X73025000Y-81153000D03*
X73025000Y-66294000D03*
X75565000Y-81153000D03*
X75565000Y-66294000D03*
X78232000Y-67310000D03*
X78232000Y-58674000D03*
X92075000Y-78574990D03*
X96393000Y-78486000D03*
X92075000Y-81153000D03*
X97155000Y-61849000D03*
X100482400Y-88163400D03*
X100914200Y-63957200D03*
X100330004Y-59697010D03*
X99568000Y-67945000D03*
X107745548Y-77508010D03*
X110998000Y-81153000D03*
X103509519Y-77508010D03*
X103505000Y-64008000D03*
X113487198Y-77800200D03*
X109829600Y-77800200D03*
X113538000Y-81153000D03*
X104902000Y-63881000D03*
X116840000Y-59697010D03*
X118363000Y-67437000D03*
D43*
X38862001Y-66294000D03*
X45313600Y-107111800D03*
X42748200Y-109651800D03*
X60350400Y-84582000D03*
X60350400Y-95300800D03*
X30022800Y-103174800D03*
X27533600Y-51054000D03*
X25908000Y-67564000D03*
X41275000Y-103809800D03*
X42138600Y-81559400D03*
X40614600Y-107696000D03*
X34163000Y-72390000D03*
X78105000Y-81152998D03*
X59055000Y-81153000D03*
X116078000Y-81153000D03*
X116078000Y-79121000D03*
X97790000Y-79120992D03*
X60325000Y-78486000D03*
X78105000Y-78486000D03*
X97155000Y-81153000D03*
X47091600Y-106857800D03*
X98399600Y-76708000D03*
X98425000Y-75018990D03*
X40640000Y-76708000D03*
X60325000Y-75057000D03*
X60325000Y-76708000D03*
X79375000Y-75057000D03*
X79375000Y-76708000D03*
X32512000Y-110337600D03*
D41*
X32486600Y-105079800D03*
D43*
X36692800Y-92456000D03*
X37261800Y-48234600D03*
X36677600Y-89128600D03*
X40589200Y-102793800D03*
X46532800Y-101650800D03*
X34823400Y-107035600D03*
X34823400Y-105740200D03*
X34759706Y-104432294D03*
X34823400Y-109626400D03*
X34772600Y-108331000D03*
X35153600Y-107696000D03*
X35179000Y-108966000D03*
X39801800Y-101981000D03*
X43992800Y-101727000D03*
X35204400Y-106400600D03*
X72898000Y-104927400D03*
X73025002Y-107416600D03*
X75565000Y-118516400D03*
D44*
X48387000Y-89662000D02*
X65303400Y-89662000D01*
X65303400Y-89662000D02*
X65913000Y-89662000D01*
X65913000Y-88950800D02*
X65913000Y-89052400D01*
X65913000Y-89052400D02*
X65303400Y-89662000D01*
X65913000Y-88950800D02*
X65913000Y-85537000D01*
X65913000Y-89662000D02*
X65913000Y-88950800D01*
X65913000Y-89662000D02*
X66522600Y-89662000D01*
X66522600Y-89662000D02*
X70866000Y-89662000D01*
X65913000Y-89052400D02*
X66522600Y-89662000D01*
X83185000Y-85410000D02*
X84531200Y-85410000D01*
X84531200Y-85410000D02*
X85217000Y-85410000D01*
X85090000Y-85979000D02*
X85090000Y-85968800D01*
X85090000Y-85968800D02*
X84531200Y-85410000D01*
X85090000Y-85979000D02*
X85090000Y-85537000D01*
X85090000Y-88925400D02*
X85090000Y-85979000D01*
X85217000Y-85410000D02*
X85725000Y-85410000D01*
X85725000Y-85410000D02*
X87630000Y-85410000D01*
X85090000Y-85979000D02*
X85156000Y-85979000D01*
X85156000Y-85979000D02*
X85725000Y-85410000D01*
X70866000Y-89662000D02*
X84455000Y-89662000D01*
X84455000Y-89662000D02*
X85090000Y-89662000D01*
X85090000Y-88925400D02*
X85090000Y-89027000D01*
X85090000Y-89027000D02*
X84455000Y-89662000D01*
X85090000Y-89662000D02*
X85090000Y-88925400D01*
X85090000Y-89662000D02*
X85725000Y-89662000D01*
X85725000Y-89662000D02*
X103759000Y-89662000D01*
X85090000Y-89027000D02*
X85725000Y-89662000D01*
X102235000Y-85410000D02*
X103759000Y-85410000D01*
X103759000Y-85410000D02*
X104394000Y-85410000D01*
X104394000Y-86106000D02*
X104394000Y-86045000D01*
X104394000Y-86045000D02*
X103759000Y-85410000D01*
X104394000Y-86106000D02*
X104394000Y-85410000D01*
X104394000Y-86045000D02*
X105029000Y-85410000D01*
X104394000Y-89052400D02*
X104394000Y-86106000D01*
X104394000Y-85410000D02*
X105029000Y-85410000D01*
X105029000Y-85410000D02*
X106045000Y-85410000D01*
X103759000Y-89662000D02*
X104394000Y-89662000D01*
X104394000Y-89052400D02*
X104368600Y-89052400D01*
X104368600Y-89052400D02*
X103759000Y-89662000D01*
X104394000Y-89662000D02*
X104394000Y-89052400D01*
X104394000Y-89662000D02*
X105003600Y-89662000D01*
X105003600Y-89662000D02*
X112395000Y-89662000D01*
X104394000Y-89052400D02*
X105003600Y-89662000D01*
X112395000Y-89662000D02*
X113030000Y-89662000D01*
X113030000Y-90297000D02*
X112395000Y-89662000D01*
X113030000Y-90297000D02*
X113030000Y-89662000D01*
X113030000Y-92710000D02*
X113030000Y-90297000D01*
X113030000Y-89662000D02*
X113639600Y-89662000D01*
X113639600Y-89662000D02*
X122301000Y-89662000D01*
X113030000Y-90297000D02*
X113030000Y-90271600D01*
X113030000Y-90271600D02*
X113639600Y-89662000D01*
X46177200Y-81254600D02*
X47583600Y-81254600D01*
X47583600Y-81254600D02*
X47625000Y-81296000D01*
X66675000Y-81296000D02*
X65185800Y-81296000D01*
X65185800Y-81296000D02*
X65176400Y-81305400D01*
X63500000Y-70800000D02*
X66685200Y-70800000D01*
D45*
X66685200Y-70800000D02*
X66700400Y-70815200D01*
D44*
X68580000Y-70800000D02*
X66715600Y-70800000D01*
X66715600Y-70800000D02*
X66700400Y-70815200D01*
X68564800Y-70815200D02*
X68580000Y-70800000D01*
X66665600Y-81305400D02*
X66675000Y-81296000D01*
X47583600Y-105095800D02*
X49276000Y-103403400D01*
X43154600Y-105095800D02*
X47583600Y-105095800D01*
X57962800Y-121310400D02*
X35864800Y-121310400D01*
X35105064Y-120550664D02*
X35105064Y-118721222D01*
X35864800Y-121310400D02*
X35105064Y-120550664D01*
X70764400Y-121310400D02*
X70815200Y-121259600D01*
X57962800Y-121310400D02*
X70764400Y-121310400D01*
D45*
X43154600Y-105095800D02*
X43149600Y-105090800D01*
D46*
X43149600Y-105090800D02*
X39577600Y-105090800D01*
D45*
X105029000Y-114935000D02*
X106299000Y-116205000D01*
X106299000Y-116205000D02*
X109555000Y-116205000D01*
X103820000Y-114935000D02*
X105029000Y-114935000D01*
D47*
X109555000Y-116205000D02*
X109555000Y-97455000D01*
X109555000Y-97455000D02*
X113030000Y-93980000D01*
D44*
X113030000Y-93345000D02*
X113030000Y-92710000D01*
X113030000Y-92710000D02*
X113030000Y-93980000D01*
X43495000Y-48260000D02*
X45085000Y-48260000D01*
X122301000Y-89662000D02*
X123190000Y-88773000D01*
X123190000Y-88773000D02*
X123190000Y-86360000D01*
X123190000Y-86360000D02*
X122240000Y-85410000D01*
X122240000Y-85410000D02*
X121158000Y-85410000D01*
X108204000Y-81026000D02*
X106293000Y-81026000D01*
X106293000Y-81026000D02*
X106023000Y-81296000D01*
X106023000Y-81296000D02*
X104648000Y-81296000D01*
X108458000Y-81280000D02*
X108204000Y-81026000D01*
X108458000Y-82805000D02*
X108458000Y-81280000D01*
X87376000Y-81026000D02*
X87106000Y-81296000D01*
X87106000Y-81296000D02*
X85725000Y-81296000D01*
X89027000Y-81026000D02*
X87376000Y-81026000D01*
X89535000Y-82805000D02*
X89535000Y-81534000D01*
X89535000Y-81534000D02*
X89027000Y-81026000D01*
X69850000Y-80899000D02*
X68447000Y-80899000D01*
X68447000Y-80899000D02*
X68050000Y-81296000D01*
X68050000Y-81296000D02*
X66675000Y-81296000D01*
X70485000Y-81534000D02*
X69850000Y-80899000D01*
X70485000Y-82805000D02*
X70485000Y-81534000D01*
X51432611Y-82805000D02*
X51432611Y-81430000D01*
X51432611Y-81430000D02*
X51028611Y-81026000D01*
X51028611Y-81026000D02*
X48920000Y-81026000D01*
X48920000Y-81026000D02*
X48650000Y-81296000D01*
X48650000Y-81296000D02*
X47625000Y-81296000D01*
X45913004Y-70800000D02*
X45847000Y-70866004D01*
X48895000Y-70800000D02*
X45913004Y-70800000D01*
X84328000Y-81280000D02*
X85709000Y-81280000D01*
X103251000Y-81279994D02*
X104631994Y-81279994D01*
X104631994Y-81279994D02*
X104648000Y-81296000D01*
X104714000Y-70805000D02*
X104775000Y-70866000D01*
X104714000Y-70800000D02*
X104714000Y-70805000D01*
X104648000Y-70800000D02*
X104709000Y-70800000D01*
X104709000Y-70800000D02*
X104775000Y-70866000D01*
X87630000Y-70800000D02*
X85791000Y-70800000D01*
X85791000Y-70800000D02*
X85725000Y-70866000D01*
X83185000Y-70866000D02*
X85725000Y-70866000D01*
X70485000Y-82805000D02*
X70485000Y-82130000D01*
X63500000Y-85410000D02*
X66040000Y-85410000D01*
X66040000Y-85410000D02*
X68580000Y-85410000D01*
X65913000Y-85537000D02*
X66040000Y-85410000D01*
X85090000Y-85537000D02*
X85217000Y-85410000D01*
X48895000Y-85410000D02*
X47178000Y-85410000D01*
X47178000Y-85410000D02*
X46863000Y-85725000D01*
X46863000Y-85725000D02*
X46863000Y-88138000D01*
X46863000Y-88138000D02*
X48387000Y-89662000D01*
X104714000Y-70800000D02*
X106553000Y-70800000D01*
X121158000Y-70800000D02*
X121158000Y-85410000D01*
X106553000Y-85410000D02*
X107603000Y-85410000D01*
X107603000Y-85410000D02*
X108458000Y-84555000D01*
X108458000Y-84555000D02*
X108458000Y-82805000D01*
X104648000Y-70800000D02*
X104714000Y-70800000D01*
X102235000Y-70800000D02*
X104648000Y-70800000D01*
X48895000Y-85410000D02*
X50226000Y-85410000D01*
X50226000Y-85410000D02*
X51432611Y-84203389D01*
X51432611Y-84203389D02*
X51432611Y-82805000D01*
X68580000Y-85410000D02*
X69022000Y-85410000D01*
X70485000Y-83947000D02*
X70485000Y-82805000D01*
X69022000Y-85410000D02*
X70485000Y-83947000D01*
X87630000Y-85410000D02*
X88072000Y-85410000D01*
X88072000Y-85410000D02*
X89535000Y-83947000D01*
X89535000Y-83947000D02*
X89535000Y-82805000D01*
X37058600Y-45085000D02*
X35875000Y-45085000D01*
D45*
X30073600Y-108381796D02*
X30099004Y-108407200D01*
X30073600Y-107095800D02*
X30073600Y-108381796D01*
D46*
X39577600Y-110290800D02*
X40847200Y-110290800D01*
X40847200Y-110290800D02*
X41021000Y-110464600D01*
D45*
X41697400Y-107095800D02*
X41681400Y-107111800D01*
X43154600Y-107095800D02*
X41697400Y-107095800D01*
D44*
X106360000Y-100965000D02*
X107467400Y-100965000D01*
X107467400Y-100965000D02*
X107492800Y-100939600D01*
X47625000Y-83296000D02*
X46193200Y-83296000D01*
X46193200Y-83296000D02*
X46177200Y-83312000D01*
X51432611Y-73405000D02*
X51432611Y-75008589D01*
X51432611Y-75008589D02*
X51409600Y-75031600D01*
X61592611Y-73405000D02*
X63092600Y-73405000D01*
X63092600Y-73405000D02*
X63093600Y-73406000D01*
X61592611Y-82805000D02*
X63041800Y-82805000D01*
X63041800Y-82805000D02*
X63042800Y-82804000D01*
X66675000Y-83296000D02*
X65243200Y-83296000D01*
X65243200Y-83296000D02*
X65227200Y-83312000D01*
X70485000Y-73405000D02*
X70485000Y-75006200D01*
X70485000Y-75006200D02*
X70459600Y-75031600D01*
X82193400Y-73405000D02*
X82194400Y-73406000D01*
X80645000Y-73405000D02*
X82193400Y-73405000D01*
X80645000Y-82805000D02*
X82142600Y-82805000D01*
X82142600Y-82805000D02*
X82143600Y-82804000D01*
X85725000Y-83296000D02*
X84293200Y-83296000D01*
X84293200Y-83296000D02*
X84277200Y-83312000D01*
X89535000Y-73405000D02*
X89535000Y-75006200D01*
X89535000Y-75006200D02*
X89560400Y-75031600D01*
X108458000Y-73405000D02*
X108458000Y-75031600D01*
X118618000Y-73405000D02*
X120039400Y-73405000D01*
X120039400Y-73405000D02*
X120091200Y-73456800D01*
X118618000Y-82805000D02*
X120039400Y-82805000D01*
X120039400Y-82805000D02*
X120091200Y-82753200D01*
X104648000Y-83296000D02*
X103190800Y-83296000D01*
X103190800Y-83296000D02*
X103174800Y-83312000D01*
X99695000Y-82805000D02*
X101192600Y-82805000D01*
X101192600Y-82805000D02*
X101193600Y-82804000D01*
X99695000Y-73405000D02*
X101192600Y-73405000D01*
X101192600Y-73405000D02*
X101193600Y-73406000D01*
X108585000Y-52450000D02*
X110110000Y-52450000D01*
X110110000Y-52450000D02*
X110134400Y-52425600D01*
X89535000Y-52450000D02*
X91060000Y-52450000D01*
X91060000Y-52450000D02*
X91084400Y-52425600D01*
D45*
X72929750Y-33020000D02*
X74193400Y-31756350D01*
X74193400Y-31756350D02*
X74193400Y-28171600D01*
X74193400Y-28171600D02*
X75710000Y-26655000D01*
X46736000Y-32385000D02*
X55372000Y-41021000D01*
X55372000Y-41021000D02*
X55372000Y-44196000D01*
X55242611Y-81155389D02*
X55245000Y-81153000D01*
X55242611Y-82805000D02*
X55242611Y-81155389D01*
X71120000Y-44196000D02*
X55372000Y-44196000D01*
X72898000Y-42418000D02*
X71120000Y-44196000D01*
X54990000Y-84964000D02*
X55242611Y-84711389D01*
X55242611Y-84711389D02*
X55242611Y-82805000D01*
X54990000Y-86360000D02*
X54990000Y-84964000D01*
X74168000Y-34258250D02*
X74168000Y-41148000D01*
X72929750Y-33020000D02*
X74168000Y-34258250D01*
X74168000Y-41148000D02*
X72898000Y-42418000D01*
D48*
X75710000Y-26655000D02*
X75835000Y-26655000D01*
D45*
X75469750Y-33020000D02*
X76733400Y-31756350D01*
X76733400Y-31756350D02*
X76733400Y-29328400D01*
X76733400Y-29328400D02*
X75835000Y-28430000D01*
X75835000Y-28430000D02*
X75835000Y-27955000D01*
X57782611Y-81155389D02*
X57785000Y-81153000D01*
X57782611Y-82805000D02*
X57782611Y-81155389D01*
X57785000Y-82548611D02*
X57785000Y-81153000D01*
X57912000Y-82675611D02*
X57785000Y-82548611D01*
X72390000Y-45466000D02*
X59055000Y-45466000D01*
X75438000Y-42418000D02*
X72390000Y-45466000D01*
X60705000Y-86360000D02*
X59855000Y-86360000D01*
X57782611Y-84287611D02*
X57782611Y-82805000D01*
X59855000Y-86360000D02*
X57782611Y-84287611D01*
X76708000Y-34258250D02*
X76708000Y-41148000D01*
X75469750Y-33020000D02*
X76708000Y-34258250D01*
X76708000Y-41148000D02*
X75438000Y-42418000D01*
X78009750Y-33020000D02*
X79273400Y-31756350D01*
X79273400Y-31756350D02*
X79273400Y-28171600D01*
X79273400Y-28171600D02*
X80790000Y-26655000D01*
X73787000Y-46609000D02*
X57785000Y-46609000D01*
X77978000Y-42418000D02*
X73787000Y-46609000D01*
X57405000Y-67055000D02*
X57785000Y-66675000D01*
X57405000Y-69850000D02*
X57405000Y-67055000D01*
X57405000Y-69850000D02*
X56512611Y-70742389D01*
X56512611Y-70742389D02*
X56512611Y-73405000D01*
X79248000Y-34258250D02*
X79248000Y-41148000D01*
X78009750Y-33020000D02*
X79248000Y-34258250D01*
X79248000Y-41148000D02*
X77978000Y-42418000D01*
D48*
X80790000Y-26655000D02*
X80915000Y-26655000D01*
D45*
X80549750Y-33020000D02*
X81838800Y-31730950D01*
X81838800Y-31730950D02*
X81838800Y-29353800D01*
X81838800Y-29353800D02*
X80915000Y-28430000D01*
X80915000Y-28430000D02*
X80915000Y-27955000D01*
X52832000Y-70612000D02*
X52070000Y-69850000D01*
X52070000Y-69850000D02*
X51690000Y-69850000D01*
X53972611Y-71752611D02*
X52832000Y-70612000D01*
X75184000Y-47752000D02*
X51816000Y-47752000D01*
X80518000Y-42418000D02*
X75184000Y-47752000D01*
X53972611Y-71752611D02*
X53972611Y-73405000D01*
X80518000Y-33020000D02*
X81788000Y-34290000D01*
X81788000Y-41148000D02*
X80518000Y-42418000D01*
X81788000Y-34290000D02*
X81788000Y-41148000D01*
X83089750Y-33020000D02*
X84378800Y-31730950D01*
X84378800Y-31730950D02*
X84378800Y-28146200D01*
X84378800Y-28146200D02*
X85870000Y-26655000D01*
X74295000Y-82805000D02*
X74295000Y-81153002D01*
X83058000Y-42418000D02*
X81280000Y-44196000D01*
X81280000Y-44196000D02*
X80518000Y-44196000D01*
X80518000Y-44196000D02*
X75819000Y-48895000D01*
X75819000Y-48895000D02*
X74295000Y-48895000D01*
X74675000Y-84835000D02*
X74295000Y-84455000D01*
X74295000Y-84455000D02*
X74295000Y-82805000D01*
X74675000Y-86360000D02*
X74675000Y-84835000D01*
X84328000Y-34258250D02*
X84328000Y-41148000D01*
X83089750Y-33020000D02*
X84328000Y-34258250D01*
X84328000Y-41148000D02*
X83058000Y-42418000D01*
D48*
X85870000Y-26655000D02*
X85995000Y-26655000D01*
D45*
X80390000Y-86360000D02*
X79222600Y-86360000D01*
X79222600Y-86360000D02*
X76835000Y-83972400D01*
X76835000Y-83972400D02*
X76835000Y-82805000D01*
X85629750Y-33020000D02*
X86893400Y-31756350D01*
X86893400Y-31756350D02*
X86893400Y-29328400D01*
X86893400Y-29328400D02*
X85995000Y-28430000D01*
X85995000Y-28430000D02*
X85995000Y-27955000D01*
X80391000Y-84709000D02*
X80391000Y-86359000D01*
X80391000Y-86359000D02*
X80390000Y-86360000D01*
X85598000Y-42418000D02*
X82804000Y-45212000D01*
X82804000Y-45212000D02*
X81026000Y-45212000D01*
X81026000Y-45212000D02*
X75692000Y-50546000D01*
X75692000Y-50546000D02*
X75692000Y-50927002D01*
X82169000Y-57658000D02*
X75819000Y-57658000D01*
X75819000Y-57658000D02*
X75692000Y-57531000D01*
X86868000Y-34258250D02*
X86868000Y-41148000D01*
X85629750Y-33020000D02*
X86868000Y-34258250D01*
X86868000Y-41148000D02*
X85598000Y-42418000D01*
X77090000Y-69850000D02*
X77090000Y-70661800D01*
X77090000Y-70661800D02*
X75565000Y-72186800D01*
X75565000Y-72186800D02*
X75565000Y-73405000D01*
X88169750Y-33020000D02*
X89433400Y-31756350D01*
X89433400Y-31756350D02*
X89433400Y-28171600D01*
X89433400Y-28171600D02*
X90950000Y-26655000D01*
X81153000Y-46736000D02*
X77089000Y-50800000D01*
X88138000Y-42418000D02*
X83820000Y-46736000D01*
X83820000Y-46736000D02*
X81153000Y-46736000D01*
X77090000Y-69850000D02*
X77090000Y-68200000D01*
X77090000Y-68200000D02*
X77089000Y-68199000D01*
X89408000Y-34258250D02*
X89408000Y-41148000D01*
X88169750Y-33020000D02*
X89408000Y-34258250D01*
X89408000Y-41148000D02*
X88138000Y-42418000D01*
D48*
X90950000Y-26655000D02*
X91075000Y-26655000D01*
D45*
X71375000Y-70000000D02*
X72006600Y-70000000D01*
X72006600Y-70000000D02*
X73025000Y-71018400D01*
X73025000Y-71018400D02*
X73025000Y-73405000D01*
X90709750Y-33020000D02*
X91973400Y-31756350D01*
X91973400Y-31756350D02*
X91973400Y-29328400D01*
X91973400Y-29328400D02*
X91075000Y-28430000D01*
X91075000Y-28430000D02*
X91075000Y-27955000D01*
X71373996Y-70001004D02*
X71373996Y-71247000D01*
X71375000Y-70000000D02*
X71373996Y-70001004D01*
X71375000Y-69850000D02*
X71375000Y-70000000D01*
X76114002Y-52959000D02*
X77889001Y-51184001D01*
X77889001Y-51184001D02*
X77889001Y-51101995D01*
X71374000Y-52959000D02*
X76114002Y-52959000D01*
X77889001Y-51101995D02*
X80768998Y-48221998D01*
X80768998Y-48221998D02*
X84874002Y-48221998D01*
X84874002Y-48221998D02*
X90678000Y-42418000D01*
X91948000Y-34258250D02*
X91948000Y-41148000D01*
X90709750Y-33020000D02*
X91948000Y-34258250D01*
X91948000Y-41148000D02*
X90678000Y-42418000D01*
X93249750Y-33020000D02*
X94513400Y-31756350D01*
X94513400Y-31756350D02*
X94513400Y-28171600D01*
X94513400Y-28171600D02*
X96030000Y-26655000D01*
X93345000Y-82805000D02*
X93345000Y-81153000D01*
X93249750Y-33020000D02*
X94488000Y-34258250D01*
X94481601Y-41154399D02*
X93218000Y-42418000D01*
X94481601Y-34264649D02*
X94488000Y-34258250D01*
X94481601Y-41154399D02*
X94481601Y-34264649D01*
X93725000Y-85089000D02*
X93345000Y-84709000D01*
X93345000Y-84709000D02*
X93345000Y-82805000D01*
X93725000Y-86360000D02*
X93725000Y-85089000D01*
D48*
X96030000Y-26655000D02*
X96155000Y-26655000D01*
D45*
X95789750Y-33020000D02*
X97053400Y-31756350D01*
X97053400Y-31756350D02*
X97053400Y-29328400D01*
X97053400Y-29328400D02*
X96155000Y-28430000D01*
X96155000Y-28430000D02*
X96155000Y-27955000D01*
X95758000Y-33020000D02*
X97028000Y-34290000D01*
X97028000Y-34290000D02*
X97028000Y-41148000D01*
X97028000Y-41148000D02*
X95758000Y-42418000D01*
X99440000Y-86360000D02*
X98425000Y-86360000D01*
X98425000Y-86360000D02*
X95885000Y-83820000D01*
X95885000Y-83820000D02*
X95885000Y-82805000D01*
X95885000Y-81153002D02*
X95885002Y-81153000D01*
X95885000Y-82805000D02*
X95885000Y-81153002D01*
X95758000Y-42418000D02*
X95758000Y-43561000D01*
X95758000Y-43561000D02*
X94615000Y-44704000D01*
X98329750Y-33020000D02*
X99593400Y-31756350D01*
X99593400Y-31756350D02*
X99593400Y-28171600D01*
X99593400Y-28171600D02*
X101110000Y-26655000D01*
X96139000Y-67564000D02*
X96139000Y-69849000D01*
X96139000Y-69849000D02*
X96140000Y-69850000D01*
X98298000Y-42418000D02*
X98298000Y-43688000D01*
X98298000Y-43688000D02*
X95758000Y-46228000D01*
X98298000Y-33020000D02*
X99561601Y-34283601D01*
X99561601Y-41154399D02*
X98298000Y-42418000D01*
X99561601Y-34283601D02*
X99561601Y-41154399D01*
X96140000Y-69850000D02*
X96140000Y-70000000D01*
X96140000Y-70000000D02*
X94615000Y-71525000D01*
X94615000Y-71525000D02*
X94615000Y-73405000D01*
D48*
X101110000Y-26655000D02*
X101235000Y-26655000D01*
D45*
X100869750Y-33020000D02*
X102133400Y-31756350D01*
X102133400Y-31756350D02*
X102133400Y-29328400D01*
X102133400Y-29328400D02*
X101235000Y-28430000D01*
X101235000Y-28430000D02*
X101235000Y-27955000D01*
X90425000Y-69850000D02*
X90425000Y-71371673D01*
X90425000Y-71371673D02*
X90426662Y-71373335D01*
X94107000Y-49149000D02*
X92075000Y-49149000D01*
X100838000Y-42418000D02*
X94107000Y-49149000D01*
X90425000Y-69850000D02*
X91275000Y-69850000D01*
X92075000Y-70650000D02*
X92075000Y-73405000D01*
X91275000Y-69850000D02*
X92075000Y-70650000D01*
X102108000Y-34258250D02*
X102108000Y-41148000D01*
X100869750Y-33020000D02*
X102108000Y-34258250D01*
X102108000Y-41148000D02*
X100838000Y-42418000D01*
X103409750Y-33020000D02*
X104673400Y-31756350D01*
X104673400Y-31756350D02*
X104673400Y-28171600D01*
X104673400Y-28171600D02*
X106190000Y-26655000D01*
X112268000Y-82551000D02*
X112268000Y-81153000D01*
X112395000Y-82678000D02*
X112268000Y-82551000D01*
X103378000Y-42418000D02*
X110490000Y-49530000D01*
X110490000Y-49530000D02*
X112395000Y-49530000D01*
X104648000Y-34258250D02*
X104648000Y-41148000D01*
X103409750Y-33020000D02*
X104648000Y-34258250D01*
X104648000Y-41148000D02*
X103378000Y-42418000D01*
X112648000Y-84962000D02*
X112268000Y-84582000D01*
X112268000Y-84582000D02*
X112268000Y-82805000D01*
X112648000Y-86360000D02*
X112648000Y-84962000D01*
D48*
X106190000Y-26655000D02*
X106315000Y-26655000D01*
D45*
X105949750Y-33020000D02*
X107213400Y-31756350D01*
X107213400Y-31756350D02*
X107213400Y-29328400D01*
X107213400Y-29328400D02*
X106315000Y-28430000D01*
X106315000Y-28430000D02*
X106315000Y-27955000D01*
X113792000Y-46736000D02*
X110236000Y-46736000D01*
X110236000Y-46736000D02*
X105918000Y-42418000D01*
X114808000Y-82805000D02*
X114808000Y-81153000D01*
X118363000Y-86360000D02*
X117513000Y-86360000D01*
X117513000Y-86360000D02*
X114808000Y-83655000D01*
X114808000Y-83655000D02*
X114808000Y-82805000D01*
X107188000Y-34258250D02*
X107188000Y-41148000D01*
X105949750Y-33020000D02*
X107188000Y-34258250D01*
X107188000Y-41148000D02*
X105918000Y-42418000D01*
X108489750Y-33020000D02*
X109753400Y-31756350D01*
X109753400Y-31756350D02*
X109753400Y-28171600D01*
X109753400Y-28171600D02*
X111270000Y-26655000D01*
X115087400Y-66878200D02*
X115087400Y-69825600D01*
X115087400Y-69825600D02*
X115063000Y-69850000D01*
X108458000Y-42418000D02*
X110642400Y-44602400D01*
X110642400Y-44602400D02*
X115036600Y-44602400D01*
X115063000Y-69850000D02*
X115063000Y-70850000D01*
X115063000Y-70850000D02*
X113538000Y-72375000D01*
X113538000Y-72375000D02*
X113538000Y-73405000D01*
X109728000Y-34258250D02*
X109728000Y-41148000D01*
X108489750Y-33020000D02*
X109728000Y-34258250D01*
X109728000Y-41148000D02*
X108458000Y-42418000D01*
D48*
X111270000Y-26655000D02*
X111395000Y-26655000D01*
D45*
X109347000Y-71501000D02*
X110210600Y-71501000D01*
X110998000Y-72288400D02*
X110998000Y-73405000D01*
X110210600Y-71501000D02*
X110998000Y-72288400D01*
X116078000Y-42545000D02*
X111125000Y-42545000D01*
X111125000Y-42545000D02*
X110998000Y-42418000D01*
X111252000Y-51435000D02*
X115951000Y-51435000D01*
X115951000Y-51435000D02*
X116078000Y-51562000D01*
X109348000Y-69850000D02*
X109348000Y-71500000D01*
X109348000Y-71500000D02*
X109347000Y-71501000D01*
X112522000Y-34512250D02*
X112522000Y-40925750D01*
X112522000Y-40925750D02*
X111029750Y-42418000D01*
X111029750Y-33020000D02*
X112522000Y-34512250D01*
X111029750Y-33020000D02*
X112395000Y-31654750D01*
X111395000Y-28430000D02*
X111395000Y-27955000D01*
X112395000Y-29430000D02*
X111395000Y-28430000D01*
X112395000Y-31654750D02*
X112395000Y-29430000D01*
X111520000Y-27955000D02*
X111395000Y-27955000D01*
D47*
X94519000Y-58166000D02*
X122301000Y-58166000D01*
X90835000Y-61850000D02*
X94519000Y-58166000D01*
X89535000Y-61850000D02*
X90835000Y-61850000D01*
X99695000Y-110490000D02*
X97155000Y-110490000D01*
X97155000Y-110490000D02*
X95885000Y-111760000D01*
X103355000Y-110490000D02*
X99695000Y-110490000D01*
X118110000Y-93980000D02*
X118110000Y-95250000D01*
X118110000Y-95250000D02*
X113515000Y-99845000D01*
X113515000Y-99845000D02*
X113515000Y-116205000D01*
X113792000Y-25654000D02*
X115062000Y-26924000D01*
X113538000Y-25654000D02*
X113792000Y-25654000D01*
X108585000Y-61850000D02*
X122173000Y-61850000D01*
X122173000Y-61850000D02*
X122301000Y-61722000D01*
X83058000Y-26537000D02*
X83058000Y-25654000D01*
X82915000Y-26680000D02*
X83058000Y-26537000D01*
X82915000Y-27305000D02*
X82915000Y-26680000D01*
X113395000Y-27305000D02*
X113395000Y-26680000D01*
X113395000Y-26680000D02*
X113538000Y-26537000D01*
X113538000Y-26537000D02*
X113538000Y-25654000D01*
X113538000Y-25654000D02*
X108458000Y-25654000D01*
X108315000Y-27305000D02*
X108315000Y-26680000D01*
X108315000Y-26680000D02*
X108458000Y-26537000D01*
X108458000Y-26537000D02*
X108458000Y-25654000D01*
X103378000Y-25654000D02*
X108458000Y-25654000D01*
X98552000Y-25654000D02*
X103378000Y-25654000D01*
X103378000Y-25654000D02*
X103378000Y-26537000D01*
X103235000Y-26680000D02*
X103235000Y-27305000D01*
X103378000Y-26537000D02*
X103235000Y-26680000D01*
X93218000Y-25654000D02*
X98552000Y-25654000D01*
X98552000Y-25654000D02*
X98552000Y-26283000D01*
X98552000Y-26283000D02*
X98155000Y-26680000D01*
X98155000Y-26680000D02*
X98155000Y-27305000D01*
X87995000Y-27305000D02*
X87995000Y-26680000D01*
X87995000Y-26680000D02*
X88392000Y-26283000D01*
X88392000Y-26283000D02*
X88392000Y-25654000D01*
X88392000Y-25654000D02*
X93218000Y-25654000D01*
X83058000Y-25654000D02*
X88392000Y-25654000D01*
X77835000Y-27305000D02*
X77835000Y-26680000D01*
X77835000Y-26680000D02*
X78861000Y-25654000D01*
X78861000Y-25654000D02*
X83058000Y-25654000D01*
X93075000Y-27305000D02*
X93075000Y-26680000D01*
X93075000Y-26680000D02*
X93218000Y-26537000D01*
X93218000Y-26537000D02*
X93218000Y-25654000D01*
D48*
X39116000Y-32385000D02*
X39116000Y-37846000D01*
X29210000Y-32385000D02*
X39116000Y-32385000D01*
D45*
X107315000Y-52450000D02*
X107315000Y-54990998D01*
X106045000Y-52450000D02*
X106045000Y-54229002D01*
X104775000Y-52450000D02*
X104775000Y-54991002D01*
X103505000Y-52450000D02*
X103505000Y-54228998D01*
X102235000Y-52450000D02*
X102235000Y-54991004D01*
X100965000Y-52450000D02*
X100965000Y-54229006D01*
X99695000Y-52450000D02*
X99695000Y-54990994D01*
X99695000Y-54990994D02*
X99694994Y-54991000D01*
X96940010Y-52450000D02*
X96939010Y-52451000D01*
X98425000Y-52450000D02*
X96940010Y-52450000D01*
X88265000Y-52450000D02*
X88265000Y-54990996D01*
X88265000Y-54990996D02*
X88264996Y-54991000D01*
X86995000Y-52450000D02*
X86995000Y-54229002D01*
X85725000Y-52450000D02*
X85725000Y-54991000D01*
X84455000Y-52450000D02*
X84455000Y-54228998D01*
X83185000Y-52450000D02*
X83185000Y-54991002D01*
X81915000Y-52450000D02*
X81915000Y-54229000D01*
X80645000Y-52450000D02*
X80645000Y-54991000D01*
X79375000Y-54229000D02*
X79374998Y-54229002D01*
X79375000Y-52450000D02*
X79375000Y-54229000D01*
D48*
X30000000Y-72620000D02*
X31294000Y-73914000D01*
X31294000Y-73914000D02*
X33528000Y-73914000D01*
X33528000Y-73914000D02*
X39624000Y-80010000D01*
X39624000Y-80010000D02*
X51282611Y-80010000D01*
X51282611Y-80010000D02*
X52702611Y-81430000D01*
X52702611Y-81430000D02*
X52702611Y-82805000D01*
X39577600Y-104440800D02*
X39577600Y-103990800D01*
X39577600Y-103990800D02*
X38912800Y-103326000D01*
X38912800Y-103326000D02*
X38912800Y-99060000D01*
X38912800Y-99060000D02*
X38150800Y-98298000D01*
X38150800Y-98298000D02*
X33938286Y-98298000D01*
X33938286Y-98298000D02*
X32565064Y-99671222D01*
X38592800Y-92395000D02*
X38582600Y-92405200D01*
X38592800Y-91033600D02*
X38592800Y-92395000D01*
X33975000Y-45085000D02*
X33975000Y-48260000D01*
X33909000Y-40640000D02*
X33909000Y-45019000D01*
X33909000Y-45019000D02*
X33975000Y-45085000D01*
X71755000Y-82805000D02*
X71755000Y-81153000D01*
X52702611Y-73405000D02*
X52702611Y-74927609D01*
X52702611Y-74927609D02*
X52705002Y-74930000D01*
X70485000Y-77597002D02*
X70484998Y-77597000D01*
X70484998Y-77597000D02*
X52705000Y-77597000D01*
X71755002Y-77597000D02*
X90805000Y-77597000D01*
X90805000Y-82805000D02*
X90805000Y-81153000D01*
X71755000Y-73405000D02*
X71755000Y-75056998D01*
X71755000Y-75056998D02*
X71754998Y-75057000D01*
X103097713Y-78332713D02*
X107179961Y-78332713D01*
X102331844Y-77566844D02*
X103097713Y-78332713D01*
X92468924Y-77566844D02*
X102331844Y-77566844D01*
X109728000Y-82805000D02*
X109728000Y-81153000D01*
X90805000Y-73405000D02*
X90805000Y-74972631D01*
X90805000Y-74972631D02*
X90758641Y-75018990D01*
D45*
X53972611Y-81155389D02*
X53975000Y-81153000D01*
X53972611Y-82805000D02*
X53972611Y-81155389D01*
X53975000Y-61849000D02*
X79374000Y-61849000D01*
X79374000Y-61849000D02*
X79375000Y-61850000D01*
X48895000Y-87310000D02*
X50740000Y-87310000D01*
X50740000Y-87310000D02*
X51690000Y-86360000D01*
X51690000Y-86360000D02*
X51816000Y-86360000D01*
X51816000Y-86360000D02*
X53972611Y-84203389D01*
X53972611Y-84203389D02*
X53972611Y-82805000D01*
X56512611Y-81155389D02*
X56515000Y-81153000D01*
X56512611Y-82805000D02*
X56512611Y-81155389D01*
X56515000Y-82802611D02*
X56515000Y-81153000D01*
X80645000Y-61850000D02*
X80645000Y-63246000D01*
X80645000Y-63246000D02*
X80391000Y-63500000D01*
X80391000Y-63500000D02*
X56476990Y-63500000D01*
X57405000Y-86360000D02*
X57405000Y-86510000D01*
X57405000Y-86510000D02*
X58955000Y-88060000D01*
X58955000Y-88060000D02*
X62450000Y-88060000D01*
X62450000Y-88060000D02*
X63200000Y-87310000D01*
X63200000Y-87310000D02*
X63500000Y-87310000D01*
X57405000Y-86360000D02*
X56512611Y-85467611D01*
X56512611Y-85467611D02*
X56512611Y-82805000D01*
X81915000Y-61850000D02*
X81915000Y-63754000D01*
X81915000Y-63754000D02*
X81280000Y-64389000D01*
X81280000Y-64389000D02*
X66294000Y-64389000D01*
X66294000Y-64389000D02*
X63500000Y-67183000D01*
X63500000Y-67183000D02*
X63500000Y-68900000D01*
X63500000Y-68900000D02*
X61655000Y-68900000D01*
X61655000Y-68900000D02*
X60705000Y-69850000D01*
X57782611Y-73405000D02*
X57782611Y-71922389D01*
X57782611Y-71922389D02*
X59855000Y-69850000D01*
X59855000Y-69850000D02*
X60705000Y-69850000D01*
X51943000Y-68326000D02*
X52298600Y-68326000D01*
X52298600Y-68326000D02*
X52616000Y-68326000D01*
D48*
X51943000Y-67970400D02*
X52298600Y-68326000D01*
D45*
X51943000Y-67945000D02*
X51943000Y-68326000D01*
X51943000Y-61214000D02*
X51943000Y-67945000D01*
D48*
X51943000Y-67945000D02*
X51943000Y-67970400D01*
D45*
X49769000Y-68326000D02*
X51587400Y-68326000D01*
X51587400Y-68326000D02*
X51943000Y-68326000D01*
D48*
X51943000Y-67970400D02*
X51587400Y-68326000D01*
D45*
X83185000Y-61850000D02*
X83185000Y-60579000D01*
X83185000Y-60579000D02*
X82804000Y-60198000D01*
X82804000Y-60198000D02*
X52959000Y-60198000D01*
X52959000Y-60198000D02*
X51943000Y-61214000D01*
X48895000Y-68900000D02*
X49195000Y-68900000D01*
X52616000Y-68326000D02*
X54140000Y-69850000D01*
X49195000Y-68900000D02*
X49769000Y-68326000D01*
X54140000Y-69850000D02*
X54990000Y-69850000D01*
X54990000Y-69850000D02*
X54990000Y-71246000D01*
X54990000Y-71246000D02*
X55242611Y-71498611D01*
X55242611Y-71498611D02*
X55242611Y-73405000D01*
X73025000Y-82805000D02*
X73025000Y-81153000D01*
X73914000Y-65405000D02*
X73025000Y-66294000D01*
X81600000Y-65405000D02*
X73914000Y-65405000D01*
X84455000Y-62550000D02*
X81600000Y-65405000D01*
X84455000Y-61850000D02*
X84455000Y-62550000D01*
X68580000Y-87310000D02*
X70425000Y-87310000D01*
X70425000Y-87310000D02*
X71375000Y-86360000D01*
X71375000Y-86360000D02*
X71375000Y-86210000D01*
X71375000Y-86210000D02*
X73025000Y-84560000D01*
X73025000Y-84560000D02*
X73025000Y-82805000D01*
X75565000Y-82805000D02*
X75565000Y-81153000D01*
X85725000Y-61850000D02*
X85725000Y-63627000D01*
X85725000Y-63627000D02*
X83058000Y-66294000D01*
X83058000Y-66294000D02*
X75565000Y-66294000D01*
X77090000Y-86360000D02*
X77940000Y-86360000D01*
X77940000Y-86360000D02*
X79640000Y-88060000D01*
X79640000Y-88060000D02*
X82135000Y-88060000D01*
X82135000Y-88060000D02*
X82885000Y-87310000D01*
X82885000Y-87310000D02*
X83185000Y-87310000D01*
X77090000Y-86360000D02*
X77090000Y-85726000D01*
X77090000Y-85726000D02*
X75565000Y-84201000D01*
X75565000Y-84201000D02*
X75565000Y-82805000D01*
X83185000Y-68900000D02*
X81976000Y-68900000D01*
X81976000Y-68900000D02*
X81026000Y-69850000D01*
X81026000Y-69850000D02*
X80390000Y-69850000D01*
X86995000Y-61850000D02*
X86995000Y-63754000D01*
X86995000Y-63754000D02*
X83185000Y-67564000D01*
X83185000Y-67564000D02*
X83185000Y-68900000D01*
X80390000Y-69850000D02*
X79248000Y-69850000D01*
X76835000Y-72263000D02*
X76835000Y-73405000D01*
X79248000Y-69850000D02*
X76835000Y-72263000D01*
X74675000Y-69850000D02*
X74675000Y-68708000D01*
X74675000Y-68708000D02*
X76073000Y-67310000D01*
X76073000Y-67310000D02*
X78232000Y-67310000D01*
X85789000Y-58674000D02*
X78232000Y-58674000D01*
X88265000Y-61150000D02*
X85789000Y-58674000D01*
X88265000Y-61850000D02*
X88265000Y-61150000D01*
X74675000Y-71375000D02*
X74295000Y-71755000D01*
X74295000Y-71755000D02*
X74295000Y-73405000D01*
X74675000Y-69850000D02*
X74675000Y-71375000D01*
X68580000Y-68900000D02*
X69630000Y-68900000D01*
X69630000Y-68900000D02*
X70204000Y-68326000D01*
X70204000Y-68326000D02*
X72301000Y-68326000D01*
X72301000Y-68326000D02*
X73825000Y-69850000D01*
X73825000Y-69850000D02*
X74675000Y-69850000D01*
X92163990Y-78486000D02*
X92075000Y-78574990D01*
X96393000Y-78486000D02*
X92163990Y-78486000D01*
X92075000Y-81153000D02*
X92075000Y-82805000D01*
X97156000Y-61850000D02*
X97155000Y-61849000D01*
X98425000Y-61850000D02*
X97156000Y-61850000D01*
X87630000Y-87310000D02*
X89475000Y-87310000D01*
X89475000Y-87310000D02*
X90425000Y-86360000D01*
X90425000Y-86360000D02*
X90425000Y-86105000D01*
X90425000Y-86105000D02*
X92075000Y-84455000D01*
X92075000Y-84455000D02*
X92075000Y-82805000D01*
X101081600Y-88163400D02*
X100482400Y-88163400D01*
X101935000Y-87310000D02*
X101081600Y-88163400D01*
X98793400Y-88163400D02*
X100482400Y-88163400D01*
X102235000Y-87310000D02*
X101935000Y-87310000D01*
X96990000Y-86360000D02*
X98793400Y-88163400D01*
X96140000Y-86360000D02*
X96990000Y-86360000D01*
X99695000Y-61850000D02*
X99695000Y-62738000D01*
X99695000Y-62738000D02*
X100914200Y-63957200D01*
X96140000Y-86360000D02*
X96140000Y-85726000D01*
X96140000Y-85726000D02*
X94615000Y-84201000D01*
X94615000Y-84201000D02*
X94615000Y-82805000D01*
X102235000Y-68900000D02*
X101026000Y-68900000D01*
X101026000Y-68900000D02*
X100076000Y-69850000D01*
X100076000Y-69850000D02*
X99440000Y-69850000D01*
X100965000Y-61850000D02*
X100965000Y-60332006D01*
X100965000Y-60332006D02*
X100330004Y-59697010D01*
X99568000Y-67945000D02*
X99568000Y-69722000D01*
X99568000Y-69722000D02*
X99440000Y-69850000D01*
X99440000Y-69850000D02*
X98298000Y-69850000D01*
X98298000Y-69850000D02*
X95885000Y-72263000D01*
X95885000Y-72263000D02*
X95885000Y-73405000D01*
X93725000Y-69850000D02*
X93725000Y-65152000D01*
X93725000Y-65152000D02*
X93980000Y-64897000D01*
X93980000Y-64897000D02*
X101600000Y-64897000D01*
X102235000Y-64262000D02*
X102235000Y-61850000D01*
X101600000Y-64897000D02*
X102235000Y-64262000D01*
X87630000Y-68900000D02*
X88680000Y-68900000D01*
X88680000Y-68900000D02*
X89254000Y-68326000D01*
X89254000Y-68326000D02*
X91351000Y-68326000D01*
X91351000Y-68326000D02*
X92875000Y-69850000D01*
X92875000Y-69850000D02*
X93725000Y-69850000D01*
X93725000Y-71121000D02*
X93345000Y-71501000D01*
X93345000Y-71501000D02*
X93345000Y-73405000D01*
X93725000Y-69850000D02*
X93725000Y-71121000D01*
X103509519Y-77508010D02*
X107745548Y-77508010D01*
X110998000Y-82805000D02*
X110998000Y-81153000D01*
X103505000Y-64008000D02*
X103505000Y-61850000D01*
X110998000Y-82805000D02*
X110998000Y-85560000D01*
X110998000Y-85560000D02*
X110198000Y-86360000D01*
X110198000Y-86360000D02*
X109348000Y-86360000D01*
X106553000Y-87310000D02*
X108398000Y-87310000D01*
X108398000Y-87310000D02*
X109348000Y-86360000D01*
X109348000Y-86360000D02*
X109348000Y-86232000D01*
X109829600Y-77800200D02*
X113487198Y-77800200D01*
X113538000Y-82805000D02*
X113538000Y-81153000D01*
X104775000Y-63754000D02*
X104902000Y-63881000D01*
X104775000Y-61850000D02*
X104775000Y-63754000D01*
X115063000Y-86360000D02*
X115063000Y-85726000D01*
X115063000Y-85726000D02*
X113538000Y-84201000D01*
X113538000Y-84201000D02*
X113538000Y-82805000D01*
X115063000Y-86360000D02*
X115913000Y-86360000D01*
X115913000Y-86360000D02*
X117613000Y-88060000D01*
X117613000Y-88060000D02*
X120108000Y-88060000D01*
X120108000Y-88060000D02*
X120858000Y-87310000D01*
X120858000Y-87310000D02*
X121158000Y-87310000D01*
X118363000Y-69850000D02*
X117221000Y-69850000D01*
X117221000Y-69850000D02*
X114808000Y-72263000D01*
X114808000Y-72263000D02*
X114808000Y-73405000D01*
X121158000Y-68900000D02*
X120076000Y-68900000D01*
X120076000Y-68900000D02*
X119126000Y-69850000D01*
X119126000Y-69850000D02*
X118363000Y-69850000D01*
X106045000Y-61850000D02*
X106045000Y-60198000D01*
X106045000Y-60198000D02*
X106545990Y-59697010D01*
X106545990Y-59697010D02*
X116840000Y-59697010D01*
X118363000Y-67437000D02*
X118363000Y-69850000D01*
X107924600Y-68150000D02*
X107647000Y-68150000D01*
X107647000Y-68150000D02*
X107315000Y-67818000D01*
X107315000Y-67818000D02*
X107315000Y-61850000D01*
X110098000Y-68150000D02*
X107924600Y-68150000D01*
X107849200Y-68503800D02*
X107849200Y-68225400D01*
X107453000Y-68900000D02*
X107849200Y-68503800D01*
X106553000Y-68900000D02*
X107453000Y-68900000D01*
X107849200Y-68225400D02*
X107924600Y-68150000D01*
X112648000Y-69850000D02*
X112648000Y-70994000D01*
X112648000Y-70994000D02*
X112268000Y-71374000D01*
X112648000Y-69850000D02*
X111798000Y-69850000D01*
X111798000Y-69850000D02*
X110098000Y-68150000D01*
X112268000Y-71374000D02*
X112268000Y-73405000D01*
D48*
X38862001Y-66294000D02*
X30180400Y-66294000D01*
X30180400Y-66294000D02*
X30000000Y-66113600D01*
X30000000Y-66113600D02*
X30000000Y-65000000D01*
X39577600Y-108340800D02*
X44440200Y-108340800D01*
X44440200Y-108340800D02*
X45313600Y-107467400D01*
X45313600Y-107467400D02*
X45313600Y-107111800D01*
X98425000Y-80010000D02*
X98171000Y-80010000D01*
X98171000Y-80010000D02*
X79629000Y-80010000D01*
X98425000Y-80289400D02*
X98425000Y-80264000D01*
X98425000Y-80264000D02*
X98171000Y-80010000D01*
X98425000Y-80391000D02*
X98425000Y-82805000D01*
X98425000Y-80010000D02*
X98425000Y-80391000D01*
X116713000Y-80010000D02*
X98704400Y-80010000D01*
X98704400Y-80010000D02*
X98425000Y-80010000D01*
X98425000Y-80391000D02*
X98425000Y-80289400D01*
X98425000Y-80289400D02*
X98704400Y-80010000D01*
X79375000Y-80441800D02*
X79375000Y-80264000D01*
X79375000Y-80264000D02*
X79629000Y-80010000D01*
X79375000Y-80010000D02*
X79070200Y-80010000D01*
X79375000Y-80314800D02*
X79070200Y-80010000D01*
X79070200Y-80010000D02*
X61214000Y-80010000D01*
X79375000Y-80441800D02*
X79375000Y-80314800D01*
X79375000Y-80441800D02*
X79375000Y-82805000D01*
X79375000Y-80010000D02*
X79375000Y-80441800D01*
X79629000Y-80010000D02*
X79375000Y-80010000D01*
X39577600Y-109640800D02*
X42737200Y-109640800D01*
X42737200Y-109640800D02*
X42748200Y-109651800D01*
X42725064Y-99671222D02*
X44885686Y-97510600D01*
X53594000Y-97510600D02*
X55803800Y-95300800D01*
X44885686Y-97510600D02*
X53594000Y-97510600D01*
X55803800Y-95300800D02*
X60350400Y-95300800D01*
X61214000Y-80010000D02*
X60322611Y-80901389D01*
X60322611Y-80901389D02*
X60322611Y-82805000D01*
X60350400Y-84582000D02*
X60350400Y-82832789D01*
X60350400Y-82832789D02*
X60322611Y-82805000D01*
X117348000Y-82805000D02*
X117348000Y-80645000D01*
X117348000Y-80645000D02*
X116713000Y-80010000D01*
X39577600Y-106390800D02*
X38191800Y-106390800D01*
X38191800Y-106390800D02*
X35052000Y-103251000D01*
X35052000Y-103251000D02*
X30099000Y-103251000D01*
X30099000Y-103251000D02*
X30022800Y-103174800D01*
X27533600Y-51054000D02*
X39101000Y-51054000D01*
X39101000Y-51054000D02*
X41595000Y-48560000D01*
X41595000Y-48560000D02*
X41595000Y-48260000D01*
X46736000Y-40386000D02*
X41595000Y-45527000D01*
X41595000Y-45527000D02*
X41595000Y-48260000D01*
D45*
X104460000Y-100965000D02*
X103710000Y-100965000D01*
X103355000Y-101320000D02*
X103355000Y-105410000D01*
X103710000Y-100965000D02*
X103355000Y-101320000D01*
X101920000Y-114935000D02*
X101920000Y-117160000D01*
X101920000Y-117160000D02*
X102870000Y-118110000D01*
D48*
X30000000Y-67540000D02*
X31294000Y-68834000D01*
X31294000Y-68834000D02*
X36199778Y-68834000D01*
X36199778Y-68834000D02*
X43222780Y-75857002D01*
X43222780Y-75857002D02*
X59012220Y-75857002D01*
X59012220Y-75857002D02*
X59052611Y-75816611D01*
X25908000Y-67564000D02*
X29976000Y-67564000D01*
X29976000Y-67564000D02*
X30000000Y-67540000D01*
X39577600Y-107040800D02*
X38806000Y-107040800D01*
X38806000Y-107040800D02*
X38303200Y-107543600D01*
X38303200Y-107543600D02*
X38303200Y-109448600D01*
X38303200Y-109448600D02*
X34899600Y-112852200D01*
X34899600Y-112852200D02*
X32084086Y-112852200D01*
X32084086Y-112852200D02*
X30025064Y-114911222D01*
X97155000Y-75819000D02*
X115062000Y-75819000D01*
X115062000Y-75819000D02*
X116078000Y-74803000D01*
X116078000Y-74803000D02*
X116078000Y-73405000D01*
X97155000Y-73405000D02*
X97155000Y-75819000D01*
X97155000Y-75819000D02*
X80940004Y-75819000D01*
X80940004Y-75819000D02*
X80902003Y-75857001D01*
X80902003Y-75857001D02*
X78143001Y-75857001D01*
X78143001Y-75857001D02*
X59093001Y-75857001D01*
X59093001Y-75857001D02*
X59052611Y-75816611D01*
X59052611Y-75816611D02*
X59052611Y-73405000D01*
X78105000Y-75819000D02*
X78105000Y-73405000D01*
X78143001Y-75857001D02*
X78105000Y-75819000D01*
X42138600Y-81559400D02*
X30911800Y-81559400D01*
X29972000Y-80619600D02*
X29972000Y-75184000D01*
X30911800Y-81559400D02*
X29972000Y-80619600D01*
X46206486Y-103809800D02*
X41275000Y-103809800D01*
X50345064Y-99671222D02*
X46206486Y-103809800D01*
X40609400Y-107690800D02*
X40614600Y-107696000D01*
X39577600Y-107690800D02*
X40609400Y-107690800D01*
X34163000Y-72390000D02*
X35306000Y-72390000D01*
X35306000Y-72390000D02*
X41402000Y-78486000D01*
X41402000Y-78486000D02*
X60325000Y-78486000D01*
X33091601Y-71318601D02*
X34163000Y-72390000D01*
X30000000Y-70080000D02*
X31238601Y-71318601D01*
X31238601Y-71318601D02*
X33091601Y-71318601D01*
X78105000Y-78486000D02*
X78994000Y-79375000D01*
X78994000Y-79375000D02*
X96970315Y-79375000D01*
X96970315Y-79375000D02*
X96970315Y-79374992D01*
X96970315Y-79374992D02*
X97224315Y-79120992D01*
X97224315Y-79120992D02*
X97790000Y-79120992D01*
X39577600Y-105740800D02*
X38827600Y-105740800D01*
X37645064Y-104558264D02*
X37645064Y-99671222D01*
X38827600Y-105740800D02*
X37645064Y-104558264D01*
X106784236Y-79120992D02*
X106795959Y-79132715D01*
X97790000Y-79120992D02*
X106784236Y-79120992D01*
X106795959Y-79132715D02*
X107563963Y-79132715D01*
X107563963Y-79132715D02*
X107575678Y-79121000D01*
X107575678Y-79121000D02*
X116078000Y-79121000D01*
X78105000Y-82805000D02*
X78105000Y-81152998D01*
X59052611Y-81155389D02*
X59055000Y-81153000D01*
X59052611Y-82805000D02*
X59052611Y-81155389D01*
X59055000Y-82802611D02*
X59055000Y-81153000D01*
X116078000Y-82805000D02*
X116078000Y-81153000D01*
X78105000Y-78486000D02*
X60325000Y-78486000D01*
X97155000Y-81153000D02*
X97155000Y-82805000D01*
X44958600Y-108990800D02*
X46841601Y-107107799D01*
X39577600Y-108990800D02*
X44958600Y-108990800D01*
X46841601Y-107107799D02*
X47091600Y-106857800D01*
X79375000Y-76708000D02*
X98399600Y-76708000D01*
X117348000Y-73405000D02*
X117348000Y-74630000D01*
X117348000Y-74630000D02*
X115270000Y-76708000D01*
X115270000Y-76708000D02*
X98399600Y-76708000D01*
X60325000Y-76708000D02*
X40640000Y-76708000D01*
X79375000Y-76708000D02*
X60325000Y-76708000D01*
X98425000Y-73405000D02*
X98425000Y-75018990D01*
X60325000Y-75057000D02*
X60325000Y-73407389D01*
X60325000Y-73407389D02*
X60322611Y-73405000D01*
X79375000Y-75057000D02*
X79375000Y-73405000D01*
D47*
X92710000Y-115412520D02*
X92710000Y-110744000D01*
X95504000Y-107950000D02*
X99695000Y-107950000D01*
X92710000Y-110744000D02*
X95504000Y-107950000D01*
D45*
X96520000Y-100330000D02*
X99695000Y-103505000D01*
X99695000Y-103505000D02*
X99695000Y-107950000D01*
D47*
X99695000Y-107950000D02*
X103355000Y-107950000D01*
D48*
X39116000Y-40386000D02*
X36195000Y-40386000D01*
X36195000Y-40386000D02*
X35179000Y-39370000D01*
X33777600Y-110290800D02*
X32558800Y-110290800D01*
X32558800Y-110290800D02*
X32512000Y-110337600D01*
D45*
X32486600Y-105079800D02*
X30089600Y-105079800D01*
X30089600Y-105079800D02*
X30073600Y-105095800D01*
X32486600Y-105079800D02*
X32497600Y-105090800D01*
D46*
X32497600Y-105090800D02*
X33777600Y-105090800D01*
D48*
X36692800Y-92456000D02*
X36692800Y-91033600D01*
X37261800Y-48234600D02*
X35900400Y-48234600D01*
X35900400Y-48234600D02*
X35875000Y-48260000D01*
X36692800Y-91033600D02*
X36692800Y-89143800D01*
X36692800Y-89143800D02*
X36677600Y-89128600D01*
X45389800Y-102793800D02*
X40589200Y-102793800D01*
X46532800Y-101650800D02*
X45389800Y-102793800D01*
X34823400Y-107035600D02*
X33782800Y-107035600D01*
X33782800Y-107035600D02*
X33777600Y-107040800D01*
X34823400Y-105740200D02*
X33778200Y-105740200D01*
X33778200Y-105740200D02*
X33777600Y-105740800D01*
X34751200Y-104440800D02*
X34759706Y-104432294D01*
X33777600Y-104440800D02*
X34751200Y-104440800D01*
X33777600Y-109640800D02*
X34809000Y-109640800D01*
X34809000Y-109640800D02*
X34823400Y-109626400D01*
X33777600Y-108340800D02*
X34762800Y-108340800D01*
X34762800Y-108340800D02*
X34772600Y-108331000D01*
X35148400Y-107690800D02*
X35153600Y-107696000D01*
X33777600Y-107690800D02*
X35148400Y-107690800D01*
X33777600Y-108990800D02*
X35154200Y-108990800D01*
X35154200Y-108990800D02*
X35179000Y-108966000D01*
X40055800Y-101727000D02*
X39801800Y-101981000D01*
X43992800Y-101727000D02*
X40055800Y-101727000D01*
X35204400Y-106400600D02*
X33787400Y-106400600D01*
X33787400Y-106400600D02*
X33777600Y-106390800D01*
X75594035Y-97205947D02*
X74480435Y-97205947D01*
X74480435Y-97205947D02*
X73997688Y-96723200D01*
X73997688Y-96723200D02*
X55833086Y-96723200D01*
X55833086Y-96723200D02*
X52885064Y-99671222D01*
X37645064Y-114911222D02*
X40669286Y-111887000D01*
X44145200Y-111302800D02*
X53289200Y-102158800D01*
X40669286Y-111887000D02*
X41452800Y-111887000D01*
X41452800Y-111887000D02*
X42037000Y-111302800D01*
X42037000Y-111302800D02*
X44145200Y-111302800D01*
X53289200Y-102158800D02*
X73181182Y-102158800D01*
X73181182Y-102158800D02*
X75594035Y-99745947D01*
X72898000Y-104927400D02*
X69545200Y-104927400D01*
X44276086Y-113360200D02*
X42725064Y-114911222D01*
X69545200Y-104927400D02*
X67818000Y-106654600D01*
X67818000Y-106654600D02*
X52197000Y-106654600D01*
X52197000Y-106654600D02*
X45491400Y-113360200D01*
X45491400Y-113360200D02*
X44276086Y-113360200D01*
X47805064Y-114911222D02*
X51972286Y-110744000D01*
X51972286Y-110744000D02*
X69697600Y-110744000D01*
X69697600Y-110744000D02*
X73025000Y-107416600D01*
X73025000Y-107416600D02*
X73025002Y-107416600D01*
X52885064Y-114911222D02*
X56490242Y-118516400D01*
X56490242Y-118516400D02*
X75565000Y-118516400D01*
X85754035Y-97205947D02*
X84640435Y-97205947D01*
X84640435Y-97205947D02*
X83370582Y-98475800D01*
X83370582Y-98475800D02*
X73025000Y-98475800D01*
X73025000Y-98475800D02*
X72542400Y-97993200D01*
X72542400Y-97993200D02*
X57103086Y-97993200D01*
X57103086Y-97993200D02*
X55425064Y-99671222D01*
X85754035Y-99745947D02*
X83947000Y-101552982D01*
X40185064Y-114907336D02*
X40185064Y-114911222D01*
X83947000Y-101552982D02*
X83917818Y-101552982D01*
X83917818Y-101552982D02*
X81889600Y-103581200D01*
X81889600Y-103581200D02*
X67945000Y-103581200D01*
X67945000Y-103581200D02*
X66979800Y-104546400D01*
X66979800Y-104546400D02*
X52552600Y-104546400D01*
X52552600Y-104546400D02*
X44805600Y-112293400D01*
X44805600Y-112293400D02*
X42799000Y-112293400D01*
X42799000Y-112293400D02*
X40185064Y-114907336D01*
X45265064Y-114911222D02*
X45265064Y-114805736D01*
X45265064Y-114805736D02*
X46685200Y-113385600D01*
X46685200Y-113385600D02*
X47548800Y-113385600D01*
X52120800Y-108813600D02*
X68681600Y-108813600D01*
X47548800Y-113385600D02*
X52120800Y-108813600D01*
X68681600Y-108813600D02*
X71399400Y-106095800D01*
X71399400Y-106095800D02*
X81965800Y-106095800D01*
X81965800Y-106095800D02*
X85754035Y-102307565D01*
X85754035Y-102307565D02*
X85754035Y-102285947D01*
X85754035Y-102285947D02*
X85724853Y-102285947D01*
X50345064Y-114911222D02*
X50696778Y-114911222D01*
X50696778Y-114911222D02*
X52882800Y-112725200D01*
X52882800Y-112725200D02*
X77854782Y-112725200D01*
X77854782Y-112725200D02*
X85754035Y-104825947D01*
X76423183Y-116696799D02*
X85754035Y-107365947D01*
X57210641Y-116696799D02*
X76423183Y-116696799D01*
X55425064Y-114911222D02*
X57210641Y-116696799D01*
X55425064Y-114911222D02*
X55827578Y-114911222D01*
X55422800Y-114908958D02*
X55425064Y-114911222D01*
M02*
