%TF.GenerationSoftware,KiCad,Pcbnew,4.0.7*%
%TF.CreationDate,2018-06-26T23:45:36-04:00*%
%TF.ProjectId,column_driver,636F6C756D6E5F6472697665722E6B69,rev?*%
%TF.FileFunction,Copper,L2,Bot,Signal*%
%FSLAX46Y46*%
G04 Gerber Fmt 4.6, Leading zero omitted, Abs format (unit mm)*
G04 Created by KiCad (PCBNEW 4.0.7) date Tuesday, June 26, 2018 'PMt' 11:45:36 PM*
%MOMM*%
%LPD*%
G01*
G04 APERTURE LIST*
%ADD10C,0.100000*%
%ADD11C,0.150000*%
%ADD12R,2.700000X2.700000*%
%ADD13C,2.700000*%
%ADD14R,1.727200X1.727200*%
%ADD15O,1.727200X1.727200*%
%ADD16R,1.600000X1.600000*%
%ADD17O,1.600000X1.600000*%
%ADD18C,0.800000*%
%ADD19C,1.000000*%
%ADD20C,0.600000*%
%ADD21C,0.250000*%
%ADD22C,1.000000*%
%ADD23C,0.650000*%
%ADD24C,0.360000*%
%ADD25C,0.254000*%
G04 APERTURE END LIST*
D10*
D11*
X25000000Y-25000000D02*
X25000000Y-125000000D01*
X25000000Y-125000000D02*
X125000000Y-125000000D01*
X125000000Y-25000000D02*
X125000000Y-125000000D01*
X25000000Y-25000000D02*
X125000000Y-25000000D01*
D12*
X30180000Y-116713000D03*
D13*
X34140000Y-116713000D03*
X38100000Y-116713000D03*
X42060000Y-116713000D03*
D12*
X53190000Y-116713000D03*
D13*
X57150000Y-116713000D03*
X61110000Y-116713000D03*
X65070000Y-116713000D03*
D14*
X30000000Y-65000000D03*
D15*
X32540000Y-65000000D03*
X30000000Y-67540000D03*
X32540000Y-67540000D03*
X30000000Y-70080000D03*
X32540000Y-70080000D03*
X30000000Y-72620000D03*
X32540000Y-72620000D03*
X30000000Y-75160000D03*
X32540000Y-75160000D03*
D14*
X30022800Y-86969600D03*
D15*
X32562800Y-86969600D03*
X30022800Y-89509600D03*
X32562800Y-89509600D03*
X30022800Y-92049600D03*
X32562800Y-92049600D03*
X30022800Y-94589600D03*
X32562800Y-94589600D03*
X30022800Y-97129600D03*
X32562800Y-97129600D03*
D16*
X87404000Y-30480000D03*
D17*
X87404000Y-33020000D03*
X84864000Y-30480000D03*
X84864000Y-33020000D03*
X82324000Y-30480000D03*
X82324000Y-33020000D03*
X79784000Y-30480000D03*
X79784000Y-33020000D03*
X77244000Y-30480000D03*
X77244000Y-33020000D03*
X74704000Y-30480000D03*
X74704000Y-33020000D03*
X72164000Y-30480000D03*
X72164000Y-33020000D03*
X69624000Y-30480000D03*
X69624000Y-33020000D03*
X67084000Y-30480000D03*
X67084000Y-33020000D03*
X64544000Y-30480000D03*
X64544000Y-33020000D03*
X62004000Y-30480000D03*
X62004000Y-33020000D03*
X59464000Y-30480000D03*
X59464000Y-33020000D03*
X56924000Y-30480000D03*
X56924000Y-33020000D03*
X54384000Y-30480000D03*
X54384000Y-33020000D03*
X51844000Y-30480000D03*
X51844000Y-33020000D03*
X49304000Y-30480000D03*
X49304000Y-33020000D03*
X46764000Y-30480000D03*
X46764000Y-33020000D03*
X44224000Y-30480000D03*
X44224000Y-33020000D03*
X41684000Y-30480000D03*
X41684000Y-33020000D03*
X39144000Y-30480000D03*
X39144000Y-33020000D03*
D18*
X92075000Y-90424000D03*
X96012000Y-90424002D03*
X72898000Y-90170000D03*
X76454000Y-90170000D03*
X40010000Y-110993000D03*
X40010000Y-102505000D03*
X36322000Y-85852000D03*
X36322000Y-60325000D03*
X36322000Y-111125000D03*
X122072400Y-77724000D03*
X61595000Y-96012000D03*
X99695000Y-96012000D03*
X80645000Y-96012000D03*
X72263000Y-44196000D03*
X62865000Y-66675000D03*
X62865000Y-79502000D03*
X52705000Y-69977004D03*
X81915000Y-79375000D03*
X81915000Y-66675000D03*
X100965000Y-66675000D03*
X100965000Y-79375000D03*
X114046000Y-44196000D03*
X93218000Y-44196000D03*
X42867010Y-96125990D03*
X71755000Y-69977000D03*
X48895000Y-79756000D03*
X90805000Y-69977000D03*
X109855000Y-69977000D03*
X121031000Y-68326000D03*
X38735000Y-105791000D03*
X57785000Y-105664000D03*
X76835000Y-105664000D03*
X95885000Y-105664000D03*
X91948000Y-94361000D03*
X72771000Y-94361000D03*
X91948000Y-103759000D03*
X72898000Y-103759000D03*
X53848000Y-94361000D03*
X53848004Y-103759000D03*
X110998000Y-103759000D03*
X110998000Y-94361000D03*
D19*
X51435000Y-44323000D03*
D18*
X41275000Y-46609000D03*
X46355000Y-102108000D03*
X40513000Y-48895000D03*
X40513000Y-48895000D03*
X48895000Y-102108000D03*
X43815000Y-46609000D03*
X47752000Y-90043000D03*
X42544998Y-46101000D03*
X42799000Y-89535000D03*
X46355000Y-48895000D03*
X56515000Y-75438000D03*
X57785000Y-74930000D03*
X45085000Y-46101000D03*
X57658000Y-61468000D03*
X48894998Y-46609000D03*
X47625000Y-46101000D03*
X51308000Y-62484000D03*
X65405000Y-102107994D03*
X59055000Y-48260000D03*
X67945000Y-102108000D03*
X60960000Y-46990000D03*
X66903600Y-89814400D03*
X64770000Y-46609000D03*
X63500000Y-46101000D03*
X59563000Y-87503000D03*
X75565000Y-76073000D03*
X67310000Y-42418000D03*
X78105000Y-76072996D03*
X78232000Y-47498000D03*
X69850000Y-42418000D03*
X77324990Y-64135000D03*
X68580000Y-46101000D03*
X72009000Y-64135000D03*
X84455000Y-102108004D03*
X83584010Y-45846999D03*
X86995000Y-102108002D03*
X85217000Y-46355000D03*
X72898000Y-39243000D03*
X85725000Y-42418000D03*
X86196000Y-87122000D03*
X72009000Y-40005000D03*
X84455000Y-42418000D03*
X81026000Y-87376000D03*
X94538800Y-47117000D03*
X94640400Y-76047600D03*
X98552000Y-48260000D03*
X97155000Y-76073000D03*
X78105000Y-39370000D03*
X90805000Y-42418000D03*
X97409000Y-46228000D03*
X96139000Y-63627000D03*
X76682600Y-39522400D03*
X89535000Y-42418000D03*
X89535002Y-46101000D03*
X91059000Y-63881000D03*
X104140000Y-45973996D03*
X103505004Y-102108000D03*
X106045000Y-102107994D03*
X108077004Y-49022000D03*
X106680000Y-42418008D03*
X106680000Y-45974000D03*
X106426000Y-91059000D03*
X104140000Y-47498000D03*
X105410000Y-42418000D03*
X99948998Y-87376000D03*
X113665000Y-76073000D03*
X109220000Y-45974000D03*
X113436400Y-48717200D03*
X116205000Y-76073000D03*
X111760000Y-42417994D03*
X115189000Y-63627000D03*
X115189000Y-52197000D03*
X109804201Y-47853599D03*
X110490000Y-36830002D03*
X110109000Y-61722000D03*
X35814000Y-50418998D03*
X35814000Y-38227000D03*
X84792590Y-38252400D03*
X79781400Y-38252400D03*
X53721000Y-26314400D03*
X74676000Y-38252400D03*
X69621400Y-38252400D03*
X64541400Y-38252400D03*
X54330600Y-38252400D03*
X59436000Y-38252400D03*
X58775604Y-26314400D03*
X63855600Y-26314400D03*
X68935600Y-26314400D03*
X74066398Y-26314400D03*
X79095598Y-26314400D03*
X84124800Y-26314398D03*
X89865200Y-26314400D03*
D20*
X35179000Y-89154000D03*
X35179000Y-101219000D03*
X118745002Y-74168000D03*
X118745000Y-100202996D03*
X34467800Y-91490800D03*
X34467800Y-96900998D03*
X121031002Y-97053400D03*
X117475000Y-70739000D03*
X79375000Y-75946000D03*
X107315000Y-101854000D03*
X98425000Y-75996800D03*
X37592000Y-93345000D03*
X37592000Y-99568000D03*
X60325000Y-73152004D03*
X79375000Y-73152000D03*
X117475000Y-73152000D03*
X99187000Y-73152000D03*
X117475000Y-75946000D03*
X117475002Y-99060000D03*
X107315000Y-99060000D03*
X88899998Y-99060000D03*
X50165000Y-99060000D03*
X69215000Y-99060000D03*
X50165000Y-102235000D03*
X60325000Y-76200000D03*
X69215000Y-102235000D03*
X88265000Y-102235000D03*
X31292808Y-106375200D03*
X120015000Y-97917000D03*
X118745000Y-71882000D03*
X108585000Y-95885000D03*
X108585000Y-97917000D03*
X61595000Y-71882000D03*
X80645000Y-71882000D03*
X99695000Y-71882000D03*
X61595000Y-69850000D03*
X80645000Y-69850000D03*
X99695000Y-69850000D03*
X51435000Y-95885000D03*
X70485000Y-95885000D03*
X89535000Y-95885000D03*
X70485000Y-97917000D03*
X89535000Y-97917000D03*
X51435000Y-97917000D03*
X33782000Y-95885000D03*
X108839000Y-58420000D03*
X34163000Y-58801000D03*
X108839000Y-64135000D03*
X43815000Y-96012000D03*
X43815000Y-84455000D03*
X62865000Y-102108000D03*
X53975000Y-69850000D03*
X62484000Y-75438000D03*
X60071000Y-91694000D03*
X73025002Y-69850000D03*
X81915000Y-101981000D03*
X79502000Y-92456000D03*
X81915000Y-74930000D03*
X100838000Y-102108000D03*
X92075000Y-69977000D03*
X100838000Y-74930000D03*
X98298000Y-92075000D03*
X110489996Y-55245000D03*
X112522000Y-61595000D03*
X114427000Y-57785000D03*
X114934996Y-75946000D03*
X110871000Y-56769002D03*
X112395000Y-75946000D03*
X103495010Y-87503000D03*
X103505010Y-51689000D03*
X107315000Y-57785000D03*
X108204000Y-87122000D03*
X102870004Y-55245000D03*
X102235000Y-100965000D03*
X102235000Y-102108006D03*
X104140000Y-55245000D03*
X95250000Y-56007000D03*
X95168000Y-61468000D03*
X99441000Y-55118000D03*
X99441000Y-61468000D03*
X95885000Y-57785000D03*
X95885000Y-75946000D03*
X93345000Y-56642000D03*
X93345000Y-75946000D03*
X84028990Y-87249000D03*
X84455000Y-55372000D03*
X88265000Y-57785000D03*
X89154000Y-87249000D03*
X85471000Y-57785000D03*
X85725000Y-101727000D03*
X83484010Y-55499000D03*
X83185000Y-101600000D03*
X75692000Y-56769000D03*
X75610010Y-61468000D03*
X80391000Y-55879998D03*
X80365600Y-61417200D03*
X76581000Y-57785000D03*
X76835000Y-75946000D03*
X67818000Y-51943004D03*
X73914000Y-74930000D03*
X65196010Y-86995000D03*
X64134996Y-56515000D03*
X67945000Y-57785000D03*
X69342000Y-87122000D03*
X66675000Y-102108000D03*
X60960000Y-51943000D03*
X64135000Y-102108000D03*
X62229998Y-55880000D03*
X56134000Y-57150000D03*
X56133996Y-61468000D03*
X46355000Y-57150000D03*
X55208660Y-74585340D03*
X45999400Y-87122000D03*
X42545000Y-55880000D03*
X51104800Y-87172800D03*
X43815000Y-57150000D03*
X40005000Y-55880000D03*
X47625000Y-101981000D03*
X38100000Y-55880000D03*
X45085000Y-101981000D03*
X61213996Y-61468000D03*
X59690000Y-55880000D03*
X45085000Y-55880000D03*
X57785000Y-76200000D03*
D21*
X88138000Y-73914000D02*
X88011000Y-73787000D01*
D22*
X36322000Y-111125000D02*
X36322000Y-85852000D01*
D23*
X40010000Y-102505000D02*
X40010000Y-110993000D01*
D22*
X36322000Y-85852000D02*
X36322000Y-60325000D01*
D24*
X46355000Y-102108000D02*
X45085000Y-100838000D01*
X45085000Y-100838000D02*
X42672000Y-100838000D01*
X42672000Y-100838000D02*
X39116000Y-97282000D01*
X39116000Y-97282000D02*
X39116000Y-48768000D01*
X39116000Y-48768000D02*
X41275000Y-46609000D01*
X48895000Y-102108000D02*
X45847000Y-99060000D01*
X41148000Y-49530000D02*
X40513000Y-48895000D01*
X45847000Y-99060000D02*
X42926000Y-99060000D01*
X41148000Y-97282000D02*
X41148000Y-49530000D01*
X42926000Y-99060000D02*
X41148000Y-97282000D01*
X47752000Y-90043000D02*
X47752000Y-82550000D01*
X47752000Y-82550000D02*
X43134999Y-77932999D01*
X43134999Y-77932999D02*
X43134999Y-56585401D01*
X43134999Y-56585401D02*
X43815000Y-55905400D01*
X43815000Y-55905400D02*
X43815000Y-46609000D01*
X42544998Y-46920687D02*
X42544998Y-46101000D01*
X41764001Y-47701684D02*
X42544998Y-46920687D01*
X41764001Y-88500001D02*
X41764001Y-47701684D01*
X42799000Y-89535000D02*
X41764001Y-88500001D01*
X46355000Y-55753000D02*
X46355000Y-48895000D01*
X45674999Y-72090999D02*
X45674999Y-56433001D01*
X56515000Y-75438000D02*
X49022000Y-75438000D01*
X45674999Y-56433001D02*
X46355000Y-55753000D01*
X49022000Y-75438000D02*
X45674999Y-72090999D01*
X47262002Y-48278002D02*
X45085000Y-46101000D01*
X57785000Y-74930000D02*
X53789001Y-70934001D01*
X53789001Y-70934001D02*
X52179599Y-70934001D01*
X52179599Y-70934001D02*
X47262002Y-66016404D01*
X47262002Y-66016404D02*
X47262002Y-48278002D01*
X57658000Y-56515000D02*
X52070000Y-50927000D01*
X57658000Y-61468000D02*
X57658000Y-56515000D01*
X52070000Y-49784002D02*
X48894998Y-46609000D01*
X52070000Y-50927000D02*
X52070000Y-49784002D01*
X51308000Y-62484000D02*
X51308000Y-50303404D01*
X51308000Y-50303404D02*
X47625000Y-46620404D01*
X47625000Y-46620404D02*
X47625000Y-46101000D01*
X59055000Y-48260000D02*
X59055000Y-51435000D01*
X63754000Y-59896189D02*
X64516000Y-60658189D01*
X62992000Y-55372000D02*
X62992000Y-56642000D01*
X62992000Y-56642000D02*
X63754000Y-57404000D01*
X59055000Y-51435000D02*
X62992000Y-55372000D01*
X63754000Y-57404000D02*
X63754000Y-59896189D01*
X64516000Y-60658189D02*
X64516000Y-101218994D01*
X64516000Y-101218994D02*
X65405000Y-102107994D01*
X66040000Y-100203000D02*
X67945000Y-102108000D01*
X66040000Y-88900000D02*
X66040000Y-100203000D01*
X66929000Y-88011000D02*
X66040000Y-88900000D01*
X66929000Y-59182000D02*
X66929000Y-88011000D01*
X66040000Y-58293000D02*
X66929000Y-59182000D01*
X66040000Y-52070000D02*
X66040000Y-58293000D01*
X60960000Y-46990000D02*
X66040000Y-52070000D01*
X67818000Y-88900000D02*
X66903600Y-89814400D01*
X67818000Y-59055000D02*
X67818000Y-88900000D01*
X66802000Y-58039000D02*
X67818000Y-59055000D01*
X64770000Y-46609000D02*
X66802000Y-48641000D01*
X66802000Y-48641000D02*
X66802000Y-58039000D01*
X59944000Y-46101000D02*
X63500000Y-46101000D01*
X57785000Y-48260000D02*
X59944000Y-46101000D01*
X57785000Y-55372000D02*
X57785000Y-48260000D01*
X59563000Y-87503000D02*
X59563000Y-57150000D01*
X59563000Y-57150000D02*
X57785000Y-55372000D01*
X67310000Y-42418000D02*
X74676000Y-49784000D01*
X74676000Y-49784000D02*
X74676000Y-69977000D01*
X74676000Y-69977000D02*
X75565000Y-70866000D01*
X75565000Y-70866000D02*
X75565000Y-76073000D01*
X78232000Y-47498000D02*
X78105000Y-47625000D01*
X78105000Y-47625000D02*
X78105000Y-76072996D01*
X77324990Y-64135000D02*
X77324990Y-47352990D01*
X77324990Y-47352990D02*
X72390000Y-42418000D01*
X72390000Y-42418000D02*
X69850000Y-42418000D01*
X72009000Y-64135000D02*
X72009000Y-49530000D01*
X72009000Y-49530000D02*
X68580000Y-46101000D01*
X83584010Y-45846999D02*
X83584010Y-53358010D01*
X83584010Y-53358010D02*
X85217000Y-54991000D01*
X84709000Y-101854004D02*
X84455000Y-102108004D01*
X85217000Y-54991000D02*
X85217000Y-56007000D01*
X85217000Y-56007000D02*
X84709000Y-56515000D01*
X84709000Y-56515000D02*
X84709000Y-101854004D01*
X85217000Y-46355000D02*
X87249000Y-48387000D01*
X87249000Y-48387000D02*
X87249000Y-75311000D01*
X87249000Y-75311000D02*
X87757000Y-75819000D01*
X87757000Y-101346002D02*
X86995000Y-102108002D01*
X87757000Y-75819000D02*
X87757000Y-101346002D01*
X84275990Y-40968990D02*
X74623990Y-40968990D01*
X74623990Y-40968990D02*
X72898000Y-39243000D01*
X85725000Y-42418000D02*
X84275990Y-40968990D01*
X72164000Y-33020000D02*
X72390000Y-33246000D01*
X86196000Y-87122000D02*
X86405001Y-86912999D01*
X86405001Y-86912999D02*
X86405001Y-49078405D01*
X86405001Y-49078405D02*
X84364011Y-47037415D01*
X84364011Y-47037415D02*
X84364011Y-43778989D01*
X84364011Y-43778989D02*
X85725000Y-42418000D01*
X74422000Y-42418000D02*
X72009000Y-40005000D01*
X84455000Y-42418000D02*
X74422000Y-42418000D01*
X81026000Y-87376000D02*
X82804000Y-85598000D01*
X82804000Y-44069000D02*
X84455000Y-42418000D01*
X82804000Y-85598000D02*
X82804000Y-44069000D01*
X94240401Y-47415399D02*
X94538800Y-47117000D01*
X94240401Y-75647601D02*
X94240401Y-47415399D01*
X94640400Y-76047600D02*
X94240401Y-75647601D01*
X97155000Y-76073000D02*
X97155000Y-73533000D01*
X98552000Y-72136000D02*
X98552000Y-48260000D01*
X97155000Y-73533000D02*
X98552000Y-72136000D01*
X87757000Y-39370000D02*
X78105000Y-39370000D01*
X78003400Y-39370000D02*
X78105000Y-39370000D01*
X90805000Y-42418000D02*
X87757000Y-39370000D01*
X77927200Y-39446200D02*
X78003400Y-39370000D01*
X97409000Y-62357000D02*
X97409000Y-46228000D01*
X96139000Y-63627000D02*
X97409000Y-62357000D01*
X77310201Y-40150001D02*
X76682600Y-39522400D01*
X87267001Y-40150001D02*
X77310201Y-40150001D01*
X89535000Y-42418000D02*
X87267001Y-40150001D01*
X91059000Y-47624998D02*
X89535002Y-46101000D01*
X91059000Y-63881000D02*
X91059000Y-47624998D01*
X103505004Y-102108000D02*
X105283000Y-100330004D01*
X105283000Y-100330004D02*
X105283000Y-47116996D01*
X105283000Y-47116996D02*
X104140000Y-45973996D01*
X107641401Y-102788001D02*
X106725007Y-102788001D01*
X106725007Y-102788001D02*
X106045000Y-102107994D01*
X109265001Y-101164401D02*
X107641401Y-102788001D01*
X109265001Y-72562001D02*
X109265001Y-101164401D01*
X108077004Y-71374004D02*
X109265001Y-72562001D01*
X108077004Y-49022000D02*
X108077004Y-71374004D01*
X82324000Y-33020000D02*
X84737000Y-35433000D01*
X84737000Y-35433000D02*
X91313000Y-35433000D01*
X91313000Y-35433000D02*
X97155000Y-41275000D01*
X97155000Y-41275000D02*
X106426000Y-41275000D01*
X106426000Y-41275000D02*
X106680000Y-41529000D01*
X106680000Y-41529000D02*
X106680000Y-42418008D01*
X106426000Y-91059000D02*
X106172000Y-90805000D01*
X106172000Y-90805000D02*
X106172000Y-49287404D01*
X106172000Y-49287404D02*
X106680000Y-48779404D01*
X106680000Y-48779404D02*
X106680000Y-45974000D01*
X82324000Y-30480000D02*
X81051400Y-31752600D01*
X81051400Y-31752600D02*
X81051400Y-35712400D01*
X81051400Y-35712400D02*
X81788000Y-36449000D01*
X81788000Y-36449000D02*
X91059000Y-36449000D01*
X91059000Y-36449000D02*
X97028000Y-42418000D01*
X97028000Y-42418000D02*
X105410000Y-42418000D01*
X101872999Y-85451999D02*
X101872999Y-49765001D01*
X99948998Y-87376000D02*
X101872999Y-85451999D01*
X101872999Y-49765001D02*
X104140000Y-47498000D01*
X109220000Y-45974000D02*
X113665000Y-50419000D01*
X113665000Y-50419000D02*
X113665000Y-76073000D01*
X116205000Y-51485800D02*
X113436400Y-48717200D01*
X116205000Y-76073000D02*
X116205000Y-51485800D01*
X87404000Y-33020000D02*
X90170000Y-33020000D01*
X111760000Y-39624000D02*
X111760000Y-42417994D01*
X90170000Y-33020000D02*
X96393000Y-39243000D01*
X96393000Y-39243000D02*
X111379000Y-39243000D01*
X111379000Y-39243000D02*
X111760000Y-39624000D01*
X115189000Y-52197000D02*
X115189000Y-63627000D01*
X109709001Y-61322001D02*
X109709001Y-47948799D01*
X110109000Y-61722000D02*
X109709001Y-61322001D01*
X109709001Y-47948799D02*
X109804201Y-47853599D01*
X95250002Y-36830002D02*
X110490000Y-36830002D01*
X87404000Y-30480000D02*
X88900000Y-30480000D01*
X88900000Y-30480000D02*
X95250002Y-36830002D01*
D22*
X26868979Y-59364019D02*
X35814000Y-50418998D01*
X26868979Y-109441979D02*
X26868979Y-59364019D01*
X34140000Y-116713000D02*
X26868979Y-109441979D01*
X34140000Y-116713000D02*
X33528000Y-116101000D01*
D23*
X35814000Y-38227000D02*
X35814000Y-50418998D01*
X69621400Y-38252400D02*
X74676000Y-38252400D01*
X53721000Y-26314400D02*
X37642800Y-26314400D01*
X37642800Y-26314400D02*
X35814000Y-28143200D01*
X35814000Y-28143200D02*
X35814000Y-38227000D01*
X54330600Y-38252400D02*
X35839400Y-38252400D01*
X35814004Y-38227004D02*
X35814000Y-38227000D01*
X35839400Y-38252400D02*
X35814000Y-38227000D01*
X53721000Y-26314400D02*
X58775604Y-26314400D01*
X79781400Y-38252400D02*
X84792590Y-38252400D01*
X79781400Y-38252400D02*
X74676000Y-38252400D01*
X69621400Y-38252400D02*
X64541400Y-38252400D01*
X64541400Y-38252400D02*
X59436000Y-38252400D01*
X54330600Y-38252400D02*
X59436000Y-38252400D01*
X63855600Y-26314400D02*
X58775604Y-26314400D01*
X68935600Y-26314400D02*
X63855600Y-26314400D01*
X74066398Y-26314400D02*
X68935600Y-26314400D01*
X79095598Y-26314400D02*
X74066398Y-26314400D01*
D24*
X79095600Y-26314398D02*
X79095598Y-26314400D01*
D23*
X84124800Y-26314398D02*
X79095600Y-26314398D01*
D24*
X84124802Y-26314400D02*
X84124800Y-26314398D01*
D23*
X89865200Y-26314400D02*
X84124802Y-26314400D01*
D21*
X35179000Y-101219000D02*
X35179000Y-89154000D01*
X118745000Y-74168002D02*
X118745002Y-74168000D01*
X118745000Y-100202996D02*
X118745000Y-74168002D01*
X34467800Y-91490800D02*
X34467800Y-96900998D01*
X121031002Y-78134404D02*
X121031002Y-97053400D01*
X117475000Y-70739000D02*
X120269000Y-70739000D01*
X121017999Y-78121401D02*
X121031002Y-78134404D01*
X120269000Y-70739000D02*
X121017999Y-71487999D01*
X121017999Y-71487999D02*
X121017999Y-78121401D01*
X117602000Y-70739000D02*
X117475000Y-70739000D01*
X50165000Y-102235000D02*
X50165000Y-99060000D01*
X69215000Y-99060000D02*
X69215000Y-102235000D01*
X79375000Y-73152000D02*
X79375000Y-75946000D01*
X107315000Y-99060000D02*
X107315000Y-101854000D01*
X99187000Y-75234800D02*
X98425000Y-75996800D01*
X99187000Y-73152000D02*
X99187000Y-75234800D01*
X37592000Y-99568000D02*
X37592000Y-93345000D01*
X60325000Y-76200000D02*
X60325000Y-73152004D01*
X117475000Y-75946000D02*
X117475000Y-73152000D01*
X117475002Y-75946002D02*
X117475000Y-75946000D01*
X117475002Y-99060000D02*
X117475002Y-75946002D01*
X117475000Y-99059998D02*
X117475000Y-75946000D01*
X88899998Y-101600002D02*
X88899998Y-99060000D01*
X88265000Y-102235000D02*
X88899998Y-101600002D01*
X28194000Y-70664686D02*
X28194000Y-90274000D01*
X28194000Y-90274000D02*
X30000000Y-92080000D01*
X30000000Y-70080000D02*
X28778686Y-70080000D01*
X28778686Y-70080000D02*
X28194000Y-70664686D01*
X31292808Y-105950936D02*
X31292808Y-106375200D01*
X31292808Y-73912808D02*
X31292808Y-105950936D01*
X30000000Y-72620000D02*
X31292808Y-73912808D01*
X118745000Y-71882000D02*
X120015000Y-73152000D01*
X120015000Y-73152000D02*
X120015000Y-97917000D01*
X108585000Y-95885000D02*
X108585000Y-97917000D01*
X61595000Y-69850000D02*
X61595000Y-71882000D01*
X80645000Y-69850000D02*
X80645000Y-71882000D01*
X99695000Y-69850000D02*
X99695000Y-71882000D01*
X51435000Y-95885000D02*
X51435000Y-97917000D01*
X70485000Y-95885000D02*
X70485000Y-97917000D01*
X89535000Y-95885000D02*
X89535000Y-97917000D01*
X33807400Y-83464400D02*
X33807400Y-95859600D01*
X33807400Y-95859600D02*
X33782000Y-95885000D01*
X34163000Y-58801000D02*
X34163000Y-83108800D01*
X34163000Y-83108800D02*
X33807400Y-83464400D01*
X108839000Y-58420000D02*
X108839000Y-64135000D01*
X43815000Y-84455000D02*
X43815000Y-96012000D01*
X58667392Y-97910392D02*
X62865000Y-102108000D01*
X58667392Y-74542392D02*
X58667392Y-97910392D01*
X53975000Y-69850000D02*
X58667392Y-74542392D01*
X61849000Y-86995000D02*
X61849000Y-76073000D01*
X61849000Y-76073000D02*
X62484000Y-75438000D01*
X60071000Y-91694000D02*
X60071000Y-88773000D01*
X60071000Y-88773000D02*
X61849000Y-86995000D01*
X81915000Y-101981000D02*
X81915000Y-98806000D01*
X81915000Y-98806000D02*
X74676000Y-91567000D01*
X74676000Y-71500998D02*
X73025002Y-69850000D01*
X74676000Y-91567000D02*
X74676000Y-71500998D01*
X81915000Y-77343000D02*
X79502000Y-79756000D01*
X79502000Y-79756000D02*
X79502000Y-92456000D01*
X81915000Y-74930000D02*
X81915000Y-77343000D01*
X92075000Y-69977000D02*
X92075000Y-88519000D01*
X92075000Y-88519000D02*
X97409000Y-93853000D01*
X97409000Y-93853000D02*
X97409000Y-98679000D01*
X97409000Y-98679000D02*
X100838000Y-102108000D01*
X98298000Y-92075000D02*
X98298000Y-77470000D01*
X98298000Y-77470000D02*
X100838000Y-74930000D01*
X112522000Y-57277004D02*
X110489996Y-55245000D01*
X112522000Y-61595000D02*
X112522000Y-57277004D01*
X114427000Y-75438004D02*
X114427000Y-57785000D01*
X114934996Y-75946000D02*
X114427000Y-75438004D01*
X110871000Y-74422000D02*
X110871000Y-56769002D01*
X112395000Y-75946000D02*
X110871000Y-74422000D01*
X103505010Y-87493000D02*
X103495010Y-87503000D01*
X103505010Y-51689000D02*
X103505010Y-87493000D01*
X107315000Y-86233000D02*
X107315000Y-57785000D01*
X108204000Y-87122000D02*
X107315000Y-86233000D01*
X102235000Y-100965000D02*
X102870000Y-100330000D01*
X102870000Y-100330000D02*
X102870000Y-55245004D01*
X102870000Y-55245004D02*
X102870004Y-55245000D01*
X104140000Y-100203006D02*
X102235000Y-102108006D01*
X104140000Y-55245000D02*
X104140000Y-100203006D01*
X95168000Y-61468000D02*
X95168000Y-56089000D01*
X95168000Y-56089000D02*
X95250000Y-56007000D01*
X99441000Y-61468000D02*
X99441000Y-55118000D01*
X95885000Y-57785000D02*
X95885000Y-62357000D01*
X95885000Y-62357000D02*
X95250000Y-62992000D01*
X95250000Y-62992000D02*
X95250000Y-74549000D01*
X95250000Y-74549000D02*
X95885000Y-75184000D01*
X95885000Y-75184000D02*
X95885000Y-75946000D01*
X93345000Y-75946000D02*
X93345000Y-56642000D01*
X84455000Y-55372000D02*
X84074000Y-55753000D01*
X84074000Y-55753000D02*
X84074000Y-87203990D01*
X84074000Y-87203990D02*
X84028990Y-87249000D01*
X89154000Y-58674000D02*
X88265000Y-57785000D01*
X89154000Y-87249000D02*
X89154000Y-58674000D01*
X85725000Y-101727000D02*
X85725000Y-101302736D01*
X85725000Y-101302736D02*
X85369400Y-100947136D01*
X85369400Y-57886600D02*
X85471000Y-57785000D01*
X85369400Y-100947136D02*
X85369400Y-57886600D01*
X83403988Y-55579022D02*
X83484010Y-55499000D01*
X83403988Y-87549002D02*
X83403988Y-55579022D01*
X83185000Y-101600000D02*
X83185000Y-87767990D01*
X83185000Y-87767990D02*
X83403988Y-87549002D01*
X75610010Y-61468000D02*
X75610010Y-56850990D01*
X75610010Y-56850990D02*
X75692000Y-56769000D01*
X80365600Y-55905398D02*
X80391000Y-55879998D01*
X80365600Y-61417200D02*
X80365600Y-55905398D01*
X76581000Y-75692000D02*
X76835000Y-75946000D01*
X76581000Y-57785000D02*
X76581000Y-75692000D01*
X76662001Y-75773001D02*
X76835000Y-75946000D01*
X69792010Y-53917014D02*
X67818000Y-51943004D01*
X69792010Y-70808010D02*
X69792010Y-53917014D01*
X73914000Y-74930000D02*
X69792010Y-70808010D01*
X65196010Y-60039810D02*
X65196010Y-86995000D01*
X64897000Y-57277004D02*
X64897000Y-59740800D01*
X64897000Y-59740800D02*
X65196010Y-60039810D01*
X64134996Y-56515000D02*
X64897000Y-57277004D01*
X69342000Y-87122000D02*
X68707000Y-86487000D01*
X68707000Y-86487000D02*
X68707000Y-58547000D01*
X68707000Y-58547000D02*
X67945000Y-57785000D01*
X65405000Y-100838000D02*
X66675000Y-102108000D01*
X65405000Y-88011000D02*
X65405000Y-100838000D01*
X65913000Y-87503000D02*
X65405000Y-88011000D01*
X65913000Y-59436000D02*
X65913000Y-87503000D01*
X65474011Y-58997011D02*
X65913000Y-59436000D01*
X60960000Y-51943000D02*
X65474011Y-56457011D01*
X65474011Y-56457011D02*
X65474011Y-58997011D01*
X62229998Y-57276998D02*
X62839600Y-57886600D01*
X63835001Y-61290200D02*
X63835001Y-101808001D01*
X62839600Y-57886600D02*
X62839600Y-60294799D01*
X62839600Y-60294799D02*
X63835001Y-61290200D01*
X63835001Y-101808001D02*
X64135000Y-102108000D01*
X62229998Y-55880000D02*
X62229998Y-57276998D01*
X56133996Y-57150004D02*
X56134000Y-57150000D01*
X56133996Y-61468000D02*
X56133996Y-57150004D01*
X46355000Y-66155944D02*
X46355000Y-57150000D01*
X54784396Y-74585340D02*
X46355000Y-66155944D01*
X55208660Y-74585340D02*
X54784396Y-74585340D01*
X45999400Y-82702400D02*
X45999400Y-87122000D01*
X42545000Y-79248000D02*
X45999400Y-82702400D01*
X42545000Y-55880000D02*
X42545000Y-79248000D01*
X51104800Y-84124800D02*
X51104800Y-87172800D01*
X43815000Y-76835000D02*
X51104800Y-84124800D01*
X43815000Y-57150000D02*
X43815000Y-76835000D01*
X43815000Y-57023000D02*
X43815000Y-57150000D01*
X40005000Y-97155000D02*
X40005000Y-55880000D01*
X42848982Y-99998982D02*
X40005000Y-97155000D01*
X45642982Y-99998982D02*
X42848982Y-99998982D01*
X47625000Y-101981000D02*
X45642982Y-99998982D01*
X38399999Y-56179999D02*
X38100000Y-55880000D01*
X42799000Y-101981000D02*
X38399999Y-97581999D01*
X38399999Y-97581999D02*
X38399999Y-56179999D01*
X45085000Y-101981000D02*
X42799000Y-101981000D01*
X61213996Y-57403996D02*
X61213996Y-61468000D01*
X59690000Y-55880000D02*
X61213996Y-57403996D01*
X57785000Y-76200000D02*
X48260000Y-76200000D01*
X45085000Y-73025000D02*
X45085000Y-55880000D01*
X48260000Y-76200000D02*
X45085000Y-73025000D01*
D25*
G36*
X53375361Y-25562400D02*
X37642800Y-25562400D01*
X37355022Y-25619643D01*
X37154537Y-25753603D01*
X37111056Y-25782656D01*
X35282256Y-27611456D01*
X35119243Y-27855422D01*
X35062000Y-28143200D01*
X35062000Y-37881504D01*
X34987144Y-38061778D01*
X34986857Y-38390779D01*
X35062000Y-38572639D01*
X35062000Y-49860022D01*
X26213491Y-58708531D01*
X26012543Y-59009271D01*
X25941979Y-59364019D01*
X25941979Y-109441979D01*
X26012543Y-109796727D01*
X26213491Y-110097467D01*
X31043659Y-114927635D01*
X28830000Y-114927635D01*
X28671763Y-114957409D01*
X28526433Y-115050927D01*
X28428936Y-115193619D01*
X28394635Y-115363000D01*
X28394635Y-118063000D01*
X28424409Y-118221237D01*
X28517927Y-118366567D01*
X28660619Y-118464064D01*
X28830000Y-118498365D01*
X31530000Y-118498365D01*
X31688237Y-118468591D01*
X31833567Y-118375073D01*
X31931064Y-118232381D01*
X31965365Y-118063000D01*
X31965365Y-115849341D01*
X32395789Y-116279765D01*
X32363310Y-116357982D01*
X32362693Y-117064916D01*
X32632655Y-117718274D01*
X33132096Y-118218588D01*
X33784982Y-118489690D01*
X34491916Y-118490307D01*
X35145274Y-118220345D01*
X35645588Y-117720904D01*
X35916690Y-117068018D01*
X35916692Y-117064916D01*
X36322693Y-117064916D01*
X36592655Y-117718274D01*
X37092096Y-118218588D01*
X37744982Y-118489690D01*
X38451916Y-118490307D01*
X39105274Y-118220345D01*
X39207203Y-118118593D01*
X40834012Y-118118593D01*
X40975478Y-118421782D01*
X41711955Y-118706737D01*
X42501418Y-118688164D01*
X43144522Y-118421782D01*
X43285988Y-118118593D01*
X42060000Y-116892605D01*
X40834012Y-118118593D01*
X39207203Y-118118593D01*
X39605588Y-117720904D01*
X39876690Y-117068018D01*
X39877303Y-116364955D01*
X40066263Y-116364955D01*
X40084836Y-117154418D01*
X40351218Y-117797522D01*
X40654407Y-117938988D01*
X41880395Y-116713000D01*
X42239605Y-116713000D01*
X43465593Y-117938988D01*
X43768782Y-117797522D01*
X44053737Y-117061045D01*
X44035164Y-116271582D01*
X43768782Y-115628478D01*
X43465593Y-115487012D01*
X42239605Y-116713000D01*
X41880395Y-116713000D01*
X40654407Y-115487012D01*
X40351218Y-115628478D01*
X40066263Y-116364955D01*
X39877303Y-116364955D01*
X39877307Y-116361084D01*
X39607345Y-115707726D01*
X39207725Y-115307407D01*
X40834012Y-115307407D01*
X42060000Y-116533395D01*
X43230395Y-115363000D01*
X51404635Y-115363000D01*
X51404635Y-118063000D01*
X51434409Y-118221237D01*
X51527927Y-118366567D01*
X51670619Y-118464064D01*
X51840000Y-118498365D01*
X54540000Y-118498365D01*
X54698237Y-118468591D01*
X54843567Y-118375073D01*
X54941064Y-118232381D01*
X54975365Y-118063000D01*
X54975365Y-117064916D01*
X55372693Y-117064916D01*
X55642655Y-117718274D01*
X56142096Y-118218588D01*
X56794982Y-118489690D01*
X57501916Y-118490307D01*
X58155274Y-118220345D01*
X58655588Y-117720904D01*
X58926690Y-117068018D01*
X58926692Y-117064916D01*
X59332693Y-117064916D01*
X59602655Y-117718274D01*
X60102096Y-118218588D01*
X60754982Y-118489690D01*
X61461916Y-118490307D01*
X62115274Y-118220345D01*
X62217203Y-118118593D01*
X63844012Y-118118593D01*
X63985478Y-118421782D01*
X64721955Y-118706737D01*
X65511418Y-118688164D01*
X66154522Y-118421782D01*
X66295988Y-118118593D01*
X65070000Y-116892605D01*
X63844012Y-118118593D01*
X62217203Y-118118593D01*
X62615588Y-117720904D01*
X62886690Y-117068018D01*
X62887303Y-116364955D01*
X63076263Y-116364955D01*
X63094836Y-117154418D01*
X63361218Y-117797522D01*
X63664407Y-117938988D01*
X64890395Y-116713000D01*
X65249605Y-116713000D01*
X66475593Y-117938988D01*
X66778782Y-117797522D01*
X67063737Y-117061045D01*
X67045164Y-116271582D01*
X66778782Y-115628478D01*
X66475593Y-115487012D01*
X65249605Y-116713000D01*
X64890395Y-116713000D01*
X63664407Y-115487012D01*
X63361218Y-115628478D01*
X63076263Y-116364955D01*
X62887303Y-116364955D01*
X62887307Y-116361084D01*
X62617345Y-115707726D01*
X62217725Y-115307407D01*
X63844012Y-115307407D01*
X65070000Y-116533395D01*
X66295988Y-115307407D01*
X66154522Y-115004218D01*
X65418045Y-114719263D01*
X64628582Y-114737836D01*
X63985478Y-115004218D01*
X63844012Y-115307407D01*
X62217725Y-115307407D01*
X62117904Y-115207412D01*
X61465018Y-114936310D01*
X60758084Y-114935693D01*
X60104726Y-115205655D01*
X59604412Y-115705096D01*
X59333310Y-116357982D01*
X59332693Y-117064916D01*
X58926692Y-117064916D01*
X58927307Y-116361084D01*
X58657345Y-115707726D01*
X58157904Y-115207412D01*
X57505018Y-114936310D01*
X56798084Y-114935693D01*
X56144726Y-115205655D01*
X55644412Y-115705096D01*
X55373310Y-116357982D01*
X55372693Y-117064916D01*
X54975365Y-117064916D01*
X54975365Y-115363000D01*
X54945591Y-115204763D01*
X54852073Y-115059433D01*
X54709381Y-114961936D01*
X54540000Y-114927635D01*
X51840000Y-114927635D01*
X51681763Y-114957409D01*
X51536433Y-115050927D01*
X51438936Y-115193619D01*
X51404635Y-115363000D01*
X43230395Y-115363000D01*
X43285988Y-115307407D01*
X43144522Y-115004218D01*
X42408045Y-114719263D01*
X41618582Y-114737836D01*
X40975478Y-115004218D01*
X40834012Y-115307407D01*
X39207725Y-115307407D01*
X39107904Y-115207412D01*
X38455018Y-114936310D01*
X37748084Y-114935693D01*
X37094726Y-115205655D01*
X36594412Y-115705096D01*
X36323310Y-116357982D01*
X36322693Y-117064916D01*
X35916692Y-117064916D01*
X35917307Y-116361084D01*
X35647345Y-115707726D01*
X35147904Y-115207412D01*
X34495018Y-114936310D01*
X33788084Y-114935693D01*
X33707122Y-114969146D01*
X27795979Y-109058003D01*
X27795979Y-90652802D01*
X27803677Y-90664323D01*
X28803785Y-91664431D01*
X28732200Y-92024316D01*
X28732200Y-92074884D01*
X28830441Y-92568775D01*
X29110208Y-92987476D01*
X29528909Y-93267243D01*
X29792125Y-93319600D01*
X29528909Y-93371957D01*
X29110208Y-93651724D01*
X28830441Y-94070425D01*
X28732200Y-94564316D01*
X28732200Y-94614884D01*
X28830441Y-95108775D01*
X29110208Y-95527476D01*
X29528909Y-95807243D01*
X29792125Y-95859600D01*
X29528909Y-95911957D01*
X29110208Y-96191724D01*
X28830441Y-96610425D01*
X28732200Y-97104316D01*
X28732200Y-97154884D01*
X28830441Y-97648775D01*
X29110208Y-98067476D01*
X29528909Y-98347243D01*
X30022800Y-98445484D01*
X30516691Y-98347243D01*
X30740808Y-98197493D01*
X30740808Y-105899000D01*
X30676847Y-105962850D01*
X30565934Y-106229956D01*
X30565682Y-106519175D01*
X30676128Y-106786475D01*
X30880458Y-106991161D01*
X31147564Y-107102074D01*
X31436783Y-107102326D01*
X31704083Y-106991880D01*
X31908769Y-106787550D01*
X32019682Y-106520444D01*
X32019934Y-106231225D01*
X31909488Y-105963925D01*
X31844808Y-105899132D01*
X31844808Y-98435878D01*
X32203774Y-98584558D01*
X32435800Y-98463417D01*
X32435800Y-97256600D01*
X32415800Y-97256600D01*
X32415800Y-97002600D01*
X32435800Y-97002600D01*
X32435800Y-94716600D01*
X32415800Y-94716600D01*
X32415800Y-94462600D01*
X32435800Y-94462600D01*
X32435800Y-92176600D01*
X32415800Y-92176600D01*
X32415800Y-91922600D01*
X32435800Y-91922600D01*
X32435800Y-89636600D01*
X32415800Y-89636600D01*
X32415800Y-89382600D01*
X32435800Y-89382600D01*
X32435800Y-87096600D01*
X32415800Y-87096600D01*
X32415800Y-86842600D01*
X32435800Y-86842600D01*
X32435800Y-85635783D01*
X32203774Y-85514642D01*
X31844808Y-85663322D01*
X31844808Y-76475722D01*
X32180974Y-76614958D01*
X32413000Y-76493817D01*
X32413000Y-75287000D01*
X32393000Y-75287000D01*
X32393000Y-75033000D01*
X32413000Y-75033000D01*
X32413000Y-72747000D01*
X32393000Y-72747000D01*
X32393000Y-72493000D01*
X32413000Y-72493000D01*
X32413000Y-70207000D01*
X32393000Y-70207000D01*
X32393000Y-69953000D01*
X32413000Y-69953000D01*
X32413000Y-67667000D01*
X32393000Y-67667000D01*
X32393000Y-67413000D01*
X32413000Y-67413000D01*
X32413000Y-65127000D01*
X32393000Y-65127000D01*
X32393000Y-64873000D01*
X32413000Y-64873000D01*
X32413000Y-63666183D01*
X32180974Y-63545042D01*
X31765053Y-63717312D01*
X31333179Y-64111510D01*
X31298965Y-64184511D01*
X31298965Y-64136400D01*
X31269191Y-63978163D01*
X31175673Y-63832833D01*
X31032981Y-63735336D01*
X30863600Y-63701035D01*
X29136400Y-63701035D01*
X28978163Y-63730809D01*
X28832833Y-63824327D01*
X28735336Y-63967019D01*
X28701035Y-64136400D01*
X28701035Y-65863600D01*
X28730809Y-66021837D01*
X28824327Y-66167167D01*
X28967019Y-66264664D01*
X29136400Y-66298965D01*
X29623709Y-66298965D01*
X29506109Y-66322357D01*
X29087408Y-66602124D01*
X28807641Y-67020825D01*
X28709400Y-67514716D01*
X28709400Y-67565284D01*
X28807641Y-68059175D01*
X29087408Y-68477876D01*
X29506109Y-68757643D01*
X29769325Y-68810000D01*
X29506109Y-68862357D01*
X29087408Y-69142124D01*
X28829574Y-69528000D01*
X28778686Y-69528000D01*
X28567444Y-69570018D01*
X28388363Y-69689677D01*
X27803677Y-70274363D01*
X27795979Y-70285884D01*
X27795979Y-59747995D01*
X36469488Y-51074486D01*
X36670436Y-50773745D01*
X36741000Y-50418998D01*
X36670436Y-50064251D01*
X36566000Y-49907951D01*
X36566000Y-39004400D01*
X53985104Y-39004400D01*
X54165378Y-39079256D01*
X54494379Y-39079543D01*
X54676239Y-39004400D01*
X59090504Y-39004400D01*
X59270778Y-39079256D01*
X59599779Y-39079543D01*
X59781639Y-39004400D01*
X64195904Y-39004400D01*
X64376178Y-39079256D01*
X64705179Y-39079543D01*
X64887039Y-39004400D01*
X69275904Y-39004400D01*
X69456178Y-39079256D01*
X69785179Y-39079543D01*
X69967039Y-39004400D01*
X72101613Y-39004400D01*
X72071144Y-39077778D01*
X72071057Y-39178054D01*
X71845221Y-39177857D01*
X71541154Y-39303495D01*
X71308312Y-39535930D01*
X71182144Y-39839778D01*
X71181857Y-40168779D01*
X71307495Y-40472846D01*
X71539930Y-40705688D01*
X71843778Y-40831856D01*
X71977545Y-40831973D01*
X73992786Y-42847214D01*
X74189711Y-42978795D01*
X74422000Y-43025000D01*
X82989572Y-43025000D01*
X82374786Y-43639786D01*
X82243205Y-43836711D01*
X82197000Y-44069000D01*
X82197000Y-74259913D01*
X82060244Y-74203126D01*
X81771025Y-74202874D01*
X81503725Y-74313320D01*
X81299039Y-74517650D01*
X81188126Y-74784756D01*
X81187874Y-75073975D01*
X81298320Y-75341275D01*
X81363000Y-75406068D01*
X81363000Y-77114354D01*
X79111677Y-79365677D01*
X78992018Y-79544758D01*
X78992018Y-79544759D01*
X78950000Y-79756000D01*
X78950000Y-91979800D01*
X78886039Y-92043650D01*
X78775126Y-92310756D01*
X78774874Y-92599975D01*
X78885320Y-92867275D01*
X79089650Y-93071961D01*
X79356756Y-93182874D01*
X79645975Y-93183126D01*
X79913275Y-93072680D01*
X80117961Y-92868350D01*
X80228874Y-92601244D01*
X80229126Y-92312025D01*
X80118680Y-92044725D01*
X80054000Y-91979932D01*
X80054000Y-79984646D01*
X82197000Y-77841646D01*
X82197000Y-85346572D01*
X80994600Y-86548972D01*
X80862221Y-86548857D01*
X80558154Y-86674495D01*
X80325312Y-86906930D01*
X80199144Y-87210778D01*
X80198857Y-87539779D01*
X80324495Y-87843846D01*
X80556930Y-88076688D01*
X80860778Y-88202856D01*
X81189779Y-88203143D01*
X81493846Y-88077505D01*
X81726688Y-87845070D01*
X81852856Y-87541222D01*
X81852973Y-87407455D01*
X82851988Y-86408440D01*
X82851988Y-87320356D01*
X82794677Y-87377667D01*
X82675018Y-87556748D01*
X82639505Y-87735289D01*
X82633000Y-87767990D01*
X82633000Y-101123800D01*
X82569039Y-101187650D01*
X82467000Y-101433385D01*
X82467000Y-98806000D01*
X82424982Y-98594758D01*
X82305323Y-98415677D01*
X75228000Y-91338354D01*
X75228000Y-90333779D01*
X75626857Y-90333779D01*
X75752495Y-90637846D01*
X75984930Y-90870688D01*
X76288778Y-90996856D01*
X76617779Y-90997143D01*
X76921846Y-90871505D01*
X77154688Y-90639070D01*
X77280856Y-90335222D01*
X77281143Y-90006221D01*
X77155505Y-89702154D01*
X76923070Y-89469312D01*
X76619222Y-89343144D01*
X76290221Y-89342857D01*
X75986154Y-89468495D01*
X75753312Y-89700930D01*
X75627144Y-90004778D01*
X75626857Y-90333779D01*
X75228000Y-90333779D01*
X75228000Y-76828528D01*
X75399778Y-76899856D01*
X75728779Y-76900143D01*
X76032846Y-76774505D01*
X76265688Y-76542070D01*
X76305965Y-76445072D01*
X76422650Y-76561961D01*
X76689756Y-76672874D01*
X76978975Y-76673126D01*
X77246275Y-76562680D01*
X77363972Y-76445188D01*
X77403495Y-76540842D01*
X77635930Y-76773684D01*
X77939778Y-76899852D01*
X78268779Y-76900139D01*
X78572846Y-76774501D01*
X78805688Y-76542066D01*
X78845964Y-76445071D01*
X78962650Y-76561961D01*
X79229756Y-76672874D01*
X79518975Y-76673126D01*
X79786275Y-76562680D01*
X79990961Y-76358350D01*
X80101874Y-76091244D01*
X80102126Y-75802025D01*
X79991680Y-75534725D01*
X79927000Y-75469932D01*
X79927000Y-73628200D01*
X79990961Y-73564350D01*
X80101874Y-73297244D01*
X80102126Y-73008025D01*
X79991680Y-72740725D01*
X79787350Y-72536039D01*
X79520244Y-72425126D01*
X79231025Y-72424874D01*
X78963725Y-72535320D01*
X78759039Y-72739650D01*
X78712000Y-72852932D01*
X78712000Y-69993975D01*
X79917874Y-69993975D01*
X80028320Y-70261275D01*
X80093000Y-70326068D01*
X80093000Y-71405800D01*
X80029039Y-71469650D01*
X79918126Y-71736756D01*
X79917874Y-72025975D01*
X80028320Y-72293275D01*
X80232650Y-72497961D01*
X80499756Y-72608874D01*
X80788975Y-72609126D01*
X81056275Y-72498680D01*
X81260961Y-72294350D01*
X81371874Y-72027244D01*
X81372126Y-71738025D01*
X81261680Y-71470725D01*
X81197000Y-71405932D01*
X81197000Y-70326200D01*
X81260961Y-70262350D01*
X81371874Y-69995244D01*
X81372126Y-69706025D01*
X81261680Y-69438725D01*
X81057350Y-69234039D01*
X80790244Y-69123126D01*
X80501025Y-69122874D01*
X80233725Y-69233320D01*
X80029039Y-69437650D01*
X79918126Y-69704756D01*
X79917874Y-69993975D01*
X78712000Y-69993975D01*
X78712000Y-61561175D01*
X79638474Y-61561175D01*
X79748920Y-61828475D01*
X79953250Y-62033161D01*
X80220356Y-62144074D01*
X80509575Y-62144326D01*
X80776875Y-62033880D01*
X80981561Y-61829550D01*
X81092474Y-61562444D01*
X81092726Y-61273225D01*
X80982280Y-61005925D01*
X80917600Y-60941132D01*
X80917600Y-56381554D01*
X81006961Y-56292348D01*
X81117874Y-56025242D01*
X81118126Y-55736023D01*
X81007680Y-55468723D01*
X80803350Y-55264037D01*
X80536244Y-55153124D01*
X80247025Y-55152872D01*
X79979725Y-55263318D01*
X79775039Y-55467648D01*
X79664126Y-55734754D01*
X79663874Y-56023973D01*
X79774320Y-56291273D01*
X79813600Y-56330621D01*
X79813600Y-60941000D01*
X79749639Y-61004850D01*
X79638726Y-61271956D01*
X79638474Y-61561175D01*
X78712000Y-61561175D01*
X78712000Y-48187372D01*
X78932688Y-47967070D01*
X79058856Y-47663222D01*
X79059143Y-47334221D01*
X78933505Y-47030154D01*
X78701070Y-46797312D01*
X78397222Y-46671144D01*
X78068221Y-46670857D01*
X77764154Y-46796495D01*
X77695478Y-46865050D01*
X72819214Y-41988786D01*
X72622289Y-41857205D01*
X72390000Y-41811000D01*
X70412594Y-41811000D01*
X70319070Y-41717312D01*
X70015222Y-41591144D01*
X69686221Y-41590857D01*
X69382154Y-41716495D01*
X69149312Y-41948930D01*
X69023144Y-42252778D01*
X69022857Y-42581779D01*
X69148495Y-42885846D01*
X69380930Y-43118688D01*
X69684778Y-43244856D01*
X70013779Y-43245143D01*
X70317846Y-43119505D01*
X70412516Y-43025000D01*
X72138572Y-43025000D01*
X76717990Y-47604418D01*
X76717990Y-57058119D01*
X76437025Y-57057874D01*
X76343122Y-57096674D01*
X76418874Y-56914244D01*
X76419126Y-56625025D01*
X76308680Y-56357725D01*
X76104350Y-56153039D01*
X75837244Y-56042126D01*
X75548025Y-56041874D01*
X75283000Y-56151380D01*
X75283000Y-49784000D01*
X75236795Y-49551711D01*
X75105214Y-49354786D01*
X68137028Y-42386600D01*
X68137143Y-42254221D01*
X68011505Y-41950154D01*
X67779070Y-41717312D01*
X67475222Y-41591144D01*
X67146221Y-41590857D01*
X66842154Y-41716495D01*
X66609312Y-41948930D01*
X66483144Y-42252778D01*
X66482857Y-42581779D01*
X66608495Y-42885846D01*
X66840930Y-43118688D01*
X67144778Y-43244856D01*
X67278545Y-43244973D01*
X74069000Y-50035428D01*
X74069000Y-69977000D01*
X74102856Y-70147208D01*
X73752049Y-69796401D01*
X73752128Y-69706025D01*
X73641682Y-69438725D01*
X73437352Y-69234039D01*
X73170246Y-69123126D01*
X72881027Y-69122874D01*
X72613727Y-69233320D01*
X72409041Y-69437650D01*
X72298128Y-69704756D01*
X72297876Y-69993975D01*
X72408322Y-70261275D01*
X72612652Y-70465961D01*
X72879758Y-70576874D01*
X72971310Y-70576954D01*
X74124000Y-71729644D01*
X74124000Y-74230015D01*
X74059244Y-74203126D01*
X73967692Y-74203046D01*
X70344010Y-70579364D01*
X70344010Y-53917014D01*
X70301992Y-53705772D01*
X70182333Y-53526691D01*
X68545047Y-51889405D01*
X68545126Y-51799029D01*
X68434680Y-51531729D01*
X68230350Y-51327043D01*
X67963244Y-51216130D01*
X67674025Y-51215878D01*
X67409000Y-51325384D01*
X67409000Y-48641000D01*
X67362795Y-48408711D01*
X67231214Y-48211786D01*
X65597028Y-46577600D01*
X65597143Y-46445221D01*
X65522586Y-46264779D01*
X67752857Y-46264779D01*
X67878495Y-46568846D01*
X68110930Y-46801688D01*
X68414778Y-46927856D01*
X68548545Y-46927973D01*
X71402000Y-49781428D01*
X71402000Y-63572406D01*
X71308312Y-63665930D01*
X71182144Y-63969778D01*
X71181857Y-64298779D01*
X71307495Y-64602846D01*
X71539930Y-64835688D01*
X71843778Y-64961856D01*
X72172779Y-64962143D01*
X72476846Y-64836505D01*
X72709688Y-64604070D01*
X72835856Y-64300222D01*
X72836143Y-63971221D01*
X72710505Y-63667154D01*
X72616000Y-63572484D01*
X72616000Y-49530000D01*
X72569795Y-49297711D01*
X72438214Y-49100786D01*
X69407028Y-46069600D01*
X69407143Y-45937221D01*
X69281505Y-45633154D01*
X69049070Y-45400312D01*
X68745222Y-45274144D01*
X68416221Y-45273857D01*
X68112154Y-45399495D01*
X67879312Y-45631930D01*
X67753144Y-45935778D01*
X67752857Y-46264779D01*
X65522586Y-46264779D01*
X65471505Y-46141154D01*
X65239070Y-45908312D01*
X64935222Y-45782144D01*
X64606221Y-45781857D01*
X64313007Y-45903010D01*
X64201505Y-45633154D01*
X63969070Y-45400312D01*
X63665222Y-45274144D01*
X63336221Y-45273857D01*
X63032154Y-45399495D01*
X62937484Y-45494000D01*
X59944000Y-45494000D01*
X59711711Y-45540205D01*
X59514786Y-45671786D01*
X57355786Y-47830786D01*
X57224205Y-48027711D01*
X57178000Y-48260000D01*
X57178000Y-55176572D01*
X52677000Y-50675572D01*
X52677000Y-49784002D01*
X52630795Y-49551713D01*
X52499214Y-49354788D01*
X49722026Y-46577600D01*
X49722141Y-46445221D01*
X49596503Y-46141154D01*
X49364068Y-45908312D01*
X49060220Y-45782144D01*
X48731219Y-45781857D01*
X48438007Y-45903010D01*
X48326505Y-45633154D01*
X48094070Y-45400312D01*
X47790222Y-45274144D01*
X47461221Y-45273857D01*
X47157154Y-45399495D01*
X46924312Y-45631930D01*
X46798144Y-45935778D01*
X46797857Y-46264779D01*
X46923495Y-46568846D01*
X47028710Y-46674245D01*
X47064205Y-46852693D01*
X47195786Y-47049618D01*
X50701000Y-50554831D01*
X50701000Y-61921406D01*
X50607312Y-62014930D01*
X50481144Y-62318778D01*
X50480857Y-62647779D01*
X50606495Y-62951846D01*
X50838930Y-63184688D01*
X51142778Y-63310856D01*
X51471779Y-63311143D01*
X51775846Y-63185505D01*
X52008688Y-62953070D01*
X52134856Y-62649222D01*
X52135143Y-62320221D01*
X52009505Y-62016154D01*
X51915000Y-61921484D01*
X51915000Y-51630428D01*
X57051000Y-56766428D01*
X57051000Y-60905406D01*
X56957312Y-60998930D01*
X56841770Y-61277189D01*
X56750676Y-61056725D01*
X56685996Y-60991932D01*
X56685996Y-57626204D01*
X56749961Y-57562350D01*
X56860874Y-57295244D01*
X56861126Y-57006025D01*
X56750680Y-56738725D01*
X56546350Y-56534039D01*
X56279244Y-56423126D01*
X55990025Y-56422874D01*
X55722725Y-56533320D01*
X55518039Y-56737650D01*
X55407126Y-57004756D01*
X55406874Y-57293975D01*
X55517320Y-57561275D01*
X55581996Y-57626064D01*
X55581996Y-60991800D01*
X55518035Y-61055650D01*
X55407122Y-61322756D01*
X55406870Y-61611975D01*
X55517316Y-61879275D01*
X55721646Y-62083961D01*
X55988752Y-62194874D01*
X56277971Y-62195126D01*
X56545271Y-62084680D01*
X56749957Y-61880350D01*
X56841988Y-61658717D01*
X56956495Y-61935846D01*
X57188930Y-62168688D01*
X57492778Y-62294856D01*
X57821779Y-62295143D01*
X58125846Y-62169505D01*
X58358688Y-61937070D01*
X58484856Y-61633222D01*
X58485143Y-61304221D01*
X58359505Y-61000154D01*
X58265000Y-60905484D01*
X58265000Y-56710428D01*
X58956000Y-57401428D01*
X58956000Y-74050354D01*
X54702047Y-69796401D01*
X54702126Y-69706025D01*
X54591680Y-69438725D01*
X54387350Y-69234039D01*
X54120244Y-69123126D01*
X53831025Y-69122874D01*
X53563725Y-69233320D01*
X53359039Y-69437650D01*
X53248126Y-69704756D01*
X53247874Y-69993975D01*
X53358320Y-70261275D01*
X53423932Y-70327001D01*
X52431027Y-70327001D01*
X47869002Y-65764976D01*
X47869002Y-48278002D01*
X47822797Y-48045713D01*
X47691216Y-47848788D01*
X45912028Y-46069600D01*
X45912143Y-45937221D01*
X45786505Y-45633154D01*
X45554070Y-45400312D01*
X45250222Y-45274144D01*
X44921221Y-45273857D01*
X44617154Y-45399495D01*
X44384312Y-45631930D01*
X44271684Y-45903169D01*
X43980222Y-45782144D01*
X43651221Y-45781857D01*
X43358006Y-45903011D01*
X43246503Y-45633154D01*
X43014068Y-45400312D01*
X42710220Y-45274144D01*
X42381219Y-45273857D01*
X42077152Y-45399495D01*
X41844310Y-45631930D01*
X41731683Y-45903168D01*
X41440222Y-45782144D01*
X41111221Y-45781857D01*
X40807154Y-45907495D01*
X40574312Y-46139930D01*
X40448144Y-46443778D01*
X40448027Y-46577545D01*
X38686786Y-48338786D01*
X38555205Y-48535711D01*
X38509000Y-48768000D01*
X38509000Y-55262648D01*
X38245244Y-55153126D01*
X37956025Y-55152874D01*
X37688725Y-55263320D01*
X37484039Y-55467650D01*
X37373126Y-55734756D01*
X37372874Y-56023975D01*
X37483320Y-56291275D01*
X37687650Y-56495961D01*
X37847999Y-56562544D01*
X37847999Y-92664116D01*
X37737244Y-92618126D01*
X37448025Y-92617874D01*
X37249000Y-92700109D01*
X37249000Y-60325000D01*
X37178436Y-59970252D01*
X36977488Y-59669512D01*
X36676748Y-59468564D01*
X36322000Y-59398000D01*
X35967252Y-59468564D01*
X35666512Y-59669512D01*
X35465564Y-59970252D01*
X35395000Y-60325000D01*
X35395000Y-88456507D01*
X35324244Y-88427126D01*
X35035025Y-88426874D01*
X34767725Y-88537320D01*
X34563039Y-88741650D01*
X34452126Y-89008756D01*
X34451874Y-89297975D01*
X34562320Y-89565275D01*
X34627000Y-89630068D01*
X34627000Y-90769721D01*
X34613044Y-90763926D01*
X34359400Y-90763705D01*
X34359400Y-83693046D01*
X34553323Y-83499123D01*
X34672981Y-83320042D01*
X34672982Y-83320041D01*
X34715000Y-83108800D01*
X34715000Y-59277200D01*
X34778961Y-59213350D01*
X34889874Y-58946244D01*
X34890126Y-58657025D01*
X34779680Y-58389725D01*
X34575350Y-58185039D01*
X34308244Y-58074126D01*
X34019025Y-58073874D01*
X33751725Y-58184320D01*
X33547039Y-58388650D01*
X33436126Y-58655756D01*
X33435874Y-58944975D01*
X33546320Y-59212275D01*
X33611000Y-59277068D01*
X33611000Y-63987538D01*
X33314947Y-63717312D01*
X32899026Y-63545042D01*
X32667000Y-63666183D01*
X32667000Y-64873000D01*
X32687000Y-64873000D01*
X32687000Y-65127000D01*
X32667000Y-65127000D01*
X32667000Y-67413000D01*
X32687000Y-67413000D01*
X32687000Y-67667000D01*
X32667000Y-67667000D01*
X32667000Y-69953000D01*
X32687000Y-69953000D01*
X32687000Y-70207000D01*
X32667000Y-70207000D01*
X32667000Y-72493000D01*
X32687000Y-72493000D01*
X32687000Y-72747000D01*
X32667000Y-72747000D01*
X32667000Y-75033000D01*
X32687000Y-75033000D01*
X32687000Y-75287000D01*
X32667000Y-75287000D01*
X32667000Y-76493817D01*
X32899026Y-76614958D01*
X33314947Y-76442688D01*
X33611000Y-76172462D01*
X33611000Y-82880154D01*
X33417077Y-83074077D01*
X33297418Y-83253158D01*
X33297418Y-83253159D01*
X33255400Y-83464400D01*
X33255400Y-85652805D01*
X32921826Y-85514642D01*
X32689800Y-85635783D01*
X32689800Y-86842600D01*
X32709800Y-86842600D01*
X32709800Y-87096600D01*
X32689800Y-87096600D01*
X32689800Y-89382600D01*
X32709800Y-89382600D01*
X32709800Y-89636600D01*
X32689800Y-89636600D01*
X32689800Y-91922600D01*
X32709800Y-91922600D01*
X32709800Y-92176600D01*
X32689800Y-92176600D01*
X32689800Y-94462600D01*
X32709800Y-94462600D01*
X32709800Y-94716600D01*
X32689800Y-94716600D01*
X32689800Y-97002600D01*
X32709800Y-97002600D01*
X32709800Y-97256600D01*
X32689800Y-97256600D01*
X32689800Y-98463417D01*
X32921826Y-98584558D01*
X33337747Y-98412288D01*
X33769621Y-98018090D01*
X34017768Y-97488627D01*
X34007576Y-97469001D01*
X34055450Y-97516959D01*
X34322556Y-97627872D01*
X34611775Y-97628124D01*
X34627000Y-97621833D01*
X34627000Y-100742800D01*
X34563039Y-100806650D01*
X34452126Y-101073756D01*
X34451874Y-101362975D01*
X34562320Y-101630275D01*
X34766650Y-101834961D01*
X35033756Y-101945874D01*
X35322975Y-101946126D01*
X35395000Y-101916366D01*
X35395000Y-111125000D01*
X35465564Y-111479748D01*
X35666512Y-111780488D01*
X35967252Y-111981436D01*
X36322000Y-112052000D01*
X36676748Y-111981436D01*
X36977488Y-111780488D01*
X37178436Y-111479748D01*
X37249000Y-111125000D01*
X37249000Y-102668779D01*
X39182857Y-102668779D01*
X39258000Y-102850639D01*
X39258000Y-110647504D01*
X39183144Y-110827778D01*
X39182857Y-111156779D01*
X39308495Y-111460846D01*
X39540930Y-111693688D01*
X39844778Y-111819856D01*
X40173779Y-111820143D01*
X40477846Y-111694505D01*
X40710688Y-111462070D01*
X40836856Y-111158222D01*
X40837143Y-110829221D01*
X40762000Y-110647361D01*
X40762000Y-102850496D01*
X40836856Y-102670222D01*
X40837143Y-102341221D01*
X40711505Y-102037154D01*
X40479070Y-101804312D01*
X40175222Y-101678144D01*
X39846221Y-101677857D01*
X39542154Y-101803495D01*
X39309312Y-102035930D01*
X39183144Y-102339778D01*
X39182857Y-102668779D01*
X37249000Y-102668779D01*
X37249000Y-100212758D01*
X37446756Y-100294874D01*
X37735975Y-100295126D01*
X38003275Y-100184680D01*
X38207961Y-99980350D01*
X38318874Y-99713244D01*
X38319126Y-99424025D01*
X38208680Y-99156725D01*
X38144000Y-99091932D01*
X38144000Y-98106646D01*
X42408677Y-102371323D01*
X42587758Y-102490982D01*
X42799000Y-102533000D01*
X44608800Y-102533000D01*
X44672650Y-102596961D01*
X44939756Y-102707874D01*
X45228975Y-102708126D01*
X45496275Y-102597680D01*
X45613970Y-102480189D01*
X45653495Y-102575846D01*
X45885930Y-102808688D01*
X46189778Y-102934856D01*
X46518779Y-102935143D01*
X46822846Y-102809505D01*
X47055688Y-102577070D01*
X47095965Y-102480072D01*
X47212650Y-102596961D01*
X47479756Y-102707874D01*
X47768975Y-102708126D01*
X48036275Y-102597680D01*
X48153970Y-102480189D01*
X48193495Y-102575846D01*
X48425930Y-102808688D01*
X48729778Y-102934856D01*
X49058779Y-102935143D01*
X49362846Y-102809505D01*
X49541908Y-102630756D01*
X49548320Y-102646275D01*
X49752650Y-102850961D01*
X50019756Y-102961874D01*
X50308975Y-102962126D01*
X50576275Y-102851680D01*
X50780961Y-102647350D01*
X50891874Y-102380244D01*
X50892126Y-102091025D01*
X50781680Y-101823725D01*
X50717000Y-101758932D01*
X50717000Y-99536200D01*
X50780961Y-99472350D01*
X50891874Y-99205244D01*
X50892126Y-98916025D01*
X50781680Y-98648725D01*
X50577350Y-98444039D01*
X50310244Y-98333126D01*
X50021025Y-98332874D01*
X49753725Y-98443320D01*
X49549039Y-98647650D01*
X49438126Y-98914756D01*
X49437874Y-99203975D01*
X49548320Y-99471275D01*
X49613000Y-99536068D01*
X49613000Y-101680075D01*
X49596505Y-101640154D01*
X49364070Y-101407312D01*
X49060222Y-101281144D01*
X48926455Y-101281027D01*
X46276214Y-98630786D01*
X46079289Y-98499205D01*
X45847000Y-98453000D01*
X43177428Y-98453000D01*
X41755000Y-97030572D01*
X41755000Y-89349428D01*
X41971972Y-89566400D01*
X41971857Y-89698779D01*
X42097495Y-90002846D01*
X42329930Y-90235688D01*
X42633778Y-90361856D01*
X42962779Y-90362143D01*
X43263000Y-90238094D01*
X43263000Y-95535800D01*
X43199039Y-95599650D01*
X43088126Y-95866756D01*
X43087874Y-96155975D01*
X43198320Y-96423275D01*
X43402650Y-96627961D01*
X43669756Y-96738874D01*
X43958975Y-96739126D01*
X44226275Y-96628680D01*
X44430961Y-96424350D01*
X44541874Y-96157244D01*
X44541985Y-96028975D01*
X50707874Y-96028975D01*
X50818320Y-96296275D01*
X50883000Y-96361068D01*
X50883000Y-97440800D01*
X50819039Y-97504650D01*
X50708126Y-97771756D01*
X50707874Y-98060975D01*
X50818320Y-98328275D01*
X51022650Y-98532961D01*
X51289756Y-98643874D01*
X51578975Y-98644126D01*
X51846275Y-98533680D01*
X52050961Y-98329350D01*
X52161874Y-98062244D01*
X52162126Y-97773025D01*
X52051680Y-97505725D01*
X51987000Y-97440932D01*
X51987000Y-96361200D01*
X52050961Y-96297350D01*
X52161874Y-96030244D01*
X52162126Y-95741025D01*
X52051680Y-95473725D01*
X51847350Y-95269039D01*
X51580244Y-95158126D01*
X51291025Y-95157874D01*
X51023725Y-95268320D01*
X50819039Y-95472650D01*
X50708126Y-95739756D01*
X50707874Y-96028975D01*
X44541985Y-96028975D01*
X44542126Y-95868025D01*
X44431680Y-95600725D01*
X44367000Y-95535932D01*
X44367000Y-84931200D01*
X44430961Y-84867350D01*
X44541874Y-84600244D01*
X44542126Y-84311025D01*
X44431680Y-84043725D01*
X44227350Y-83839039D01*
X43960244Y-83728126D01*
X43671025Y-83727874D01*
X43403725Y-83838320D01*
X43199039Y-84042650D01*
X43088126Y-84309756D01*
X43087874Y-84598975D01*
X43198320Y-84866275D01*
X43263000Y-84931068D01*
X43263000Y-88832207D01*
X42964222Y-88708144D01*
X42830455Y-88708027D01*
X42371001Y-88248573D01*
X42371001Y-79854647D01*
X45447400Y-82931046D01*
X45447400Y-86645800D01*
X45383439Y-86709650D01*
X45272526Y-86976756D01*
X45272274Y-87265975D01*
X45382720Y-87533275D01*
X45587050Y-87737961D01*
X45854156Y-87848874D01*
X46143375Y-87849126D01*
X46410675Y-87738680D01*
X46615361Y-87534350D01*
X46726274Y-87267244D01*
X46726526Y-86978025D01*
X46616080Y-86710725D01*
X46551400Y-86645932D01*
X46551400Y-82702400D01*
X46509382Y-82491159D01*
X46389723Y-82312077D01*
X43097000Y-79019354D01*
X43097000Y-78753428D01*
X47145000Y-82801428D01*
X47145000Y-89480406D01*
X47051312Y-89573930D01*
X46925144Y-89877778D01*
X46924857Y-90206779D01*
X47050495Y-90510846D01*
X47282930Y-90743688D01*
X47586778Y-90869856D01*
X47915779Y-90870143D01*
X48219846Y-90744505D01*
X48452688Y-90512070D01*
X48578856Y-90208222D01*
X48579143Y-89879221D01*
X48453505Y-89575154D01*
X48359000Y-89480484D01*
X48359000Y-82550000D01*
X48312795Y-82317711D01*
X48181214Y-82120786D01*
X43741999Y-77681571D01*
X43741999Y-77542645D01*
X50552800Y-84353446D01*
X50552800Y-86696600D01*
X50488839Y-86760450D01*
X50377926Y-87027556D01*
X50377674Y-87316775D01*
X50488120Y-87584075D01*
X50692450Y-87788761D01*
X50959556Y-87899674D01*
X51248775Y-87899926D01*
X51516075Y-87789480D01*
X51720761Y-87585150D01*
X51831674Y-87318044D01*
X51831926Y-87028825D01*
X51721480Y-86761525D01*
X51656800Y-86696732D01*
X51656800Y-84124800D01*
X51614782Y-83913559D01*
X51614782Y-83913558D01*
X51495123Y-83734477D01*
X44367000Y-76606354D01*
X44367000Y-57626200D01*
X44430961Y-57562350D01*
X44533000Y-57316615D01*
X44533000Y-73025000D01*
X44575018Y-73236242D01*
X44694677Y-73415323D01*
X47869677Y-76590323D01*
X48048758Y-76709982D01*
X48260000Y-76752000D01*
X57308800Y-76752000D01*
X57372650Y-76815961D01*
X57639756Y-76926874D01*
X57928975Y-76927126D01*
X58115392Y-76850100D01*
X58115392Y-97910392D01*
X58157410Y-98121634D01*
X58277069Y-98300715D01*
X62137953Y-102161599D01*
X62137874Y-102251975D01*
X62248320Y-102519275D01*
X62452650Y-102723961D01*
X62719756Y-102834874D01*
X63008975Y-102835126D01*
X63276275Y-102724680D01*
X63480961Y-102520350D01*
X63499909Y-102474718D01*
X63518320Y-102519275D01*
X63722650Y-102723961D01*
X63989756Y-102834874D01*
X64278975Y-102835126D01*
X64546275Y-102724680D01*
X64701124Y-102570101D01*
X64703495Y-102575840D01*
X64935930Y-102808682D01*
X65239778Y-102934850D01*
X65568779Y-102935137D01*
X65872846Y-102809499D01*
X66105688Y-102577064D01*
X66108720Y-102569763D01*
X66262650Y-102723961D01*
X66529756Y-102834874D01*
X66818975Y-102835126D01*
X67086275Y-102724680D01*
X67241122Y-102570102D01*
X67243495Y-102575846D01*
X67475930Y-102808688D01*
X67779778Y-102934856D01*
X68108779Y-102935143D01*
X68412846Y-102809505D01*
X68591908Y-102630756D01*
X68598320Y-102646275D01*
X68802650Y-102850961D01*
X69069756Y-102961874D01*
X69358975Y-102962126D01*
X69626275Y-102851680D01*
X69830961Y-102647350D01*
X69941874Y-102380244D01*
X69942126Y-102091025D01*
X69831680Y-101823725D01*
X69767000Y-101758932D01*
X69767000Y-99536200D01*
X69830961Y-99472350D01*
X69941874Y-99205244D01*
X69942126Y-98916025D01*
X69831680Y-98648725D01*
X69627350Y-98444039D01*
X69360244Y-98333126D01*
X69071025Y-98332874D01*
X68803725Y-98443320D01*
X68599039Y-98647650D01*
X68488126Y-98914756D01*
X68487874Y-99203975D01*
X68598320Y-99471275D01*
X68663000Y-99536068D01*
X68663000Y-101680075D01*
X68646505Y-101640154D01*
X68414070Y-101407312D01*
X68110222Y-101281144D01*
X67976455Y-101281027D01*
X66647000Y-99951572D01*
X66647000Y-96028975D01*
X69757874Y-96028975D01*
X69868320Y-96296275D01*
X69933000Y-96361068D01*
X69933000Y-97440800D01*
X69869039Y-97504650D01*
X69758126Y-97771756D01*
X69757874Y-98060975D01*
X69868320Y-98328275D01*
X70072650Y-98532961D01*
X70339756Y-98643874D01*
X70628975Y-98644126D01*
X70896275Y-98533680D01*
X71100961Y-98329350D01*
X71211874Y-98062244D01*
X71212126Y-97773025D01*
X71101680Y-97505725D01*
X71037000Y-97440932D01*
X71037000Y-96361200D01*
X71100961Y-96297350D01*
X71211874Y-96030244D01*
X71212126Y-95741025D01*
X71101680Y-95473725D01*
X70897350Y-95269039D01*
X70630244Y-95158126D01*
X70341025Y-95157874D01*
X70073725Y-95268320D01*
X69869039Y-95472650D01*
X69758126Y-95739756D01*
X69757874Y-96028975D01*
X66647000Y-96028975D01*
X66647000Y-90603313D01*
X66738378Y-90641256D01*
X67067379Y-90641543D01*
X67371446Y-90515905D01*
X67553890Y-90333779D01*
X72070857Y-90333779D01*
X72196495Y-90637846D01*
X72428930Y-90870688D01*
X72732778Y-90996856D01*
X73061779Y-90997143D01*
X73365846Y-90871505D01*
X73598688Y-90639070D01*
X73724856Y-90335222D01*
X73725143Y-90006221D01*
X73599505Y-89702154D01*
X73367070Y-89469312D01*
X73063222Y-89343144D01*
X72734221Y-89342857D01*
X72430154Y-89468495D01*
X72197312Y-89700930D01*
X72071144Y-90004778D01*
X72070857Y-90333779D01*
X67553890Y-90333779D01*
X67604288Y-90283470D01*
X67730456Y-89979622D01*
X67730573Y-89845855D01*
X68247214Y-89329214D01*
X68378795Y-89132289D01*
X68425000Y-88900000D01*
X68425000Y-86985646D01*
X68614953Y-87175599D01*
X68614874Y-87265975D01*
X68725320Y-87533275D01*
X68929650Y-87737961D01*
X69196756Y-87848874D01*
X69485975Y-87849126D01*
X69753275Y-87738680D01*
X69957961Y-87534350D01*
X70068874Y-87267244D01*
X70069126Y-86978025D01*
X69958680Y-86710725D01*
X69754350Y-86506039D01*
X69487244Y-86395126D01*
X69395692Y-86395046D01*
X69259000Y-86258354D01*
X69259000Y-70903481D01*
X69282028Y-71019252D01*
X69401687Y-71198333D01*
X73186953Y-74983599D01*
X73186874Y-75073975D01*
X73297320Y-75341275D01*
X73501650Y-75545961D01*
X73768756Y-75656874D01*
X74057975Y-75657126D01*
X74124000Y-75629845D01*
X74124000Y-91567000D01*
X74166018Y-91778242D01*
X74285677Y-91957323D01*
X81363000Y-99034646D01*
X81363000Y-101504800D01*
X81299039Y-101568650D01*
X81188126Y-101835756D01*
X81187874Y-102124975D01*
X81298320Y-102392275D01*
X81502650Y-102596961D01*
X81769756Y-102707874D01*
X82058975Y-102708126D01*
X82326275Y-102597680D01*
X82530961Y-102393350D01*
X82641874Y-102126244D01*
X82641910Y-102084993D01*
X82772650Y-102215961D01*
X83039756Y-102326874D01*
X83328975Y-102327126D01*
X83596275Y-102216680D01*
X83627933Y-102185077D01*
X83627857Y-102271783D01*
X83753495Y-102575850D01*
X83985930Y-102808692D01*
X84289778Y-102934860D01*
X84618779Y-102935147D01*
X84922846Y-102809509D01*
X85155688Y-102577074D01*
X85270452Y-102300690D01*
X85312650Y-102342961D01*
X85579756Y-102453874D01*
X85868975Y-102454126D01*
X86136275Y-102343680D01*
X86179667Y-102300363D01*
X86293495Y-102575848D01*
X86525930Y-102808690D01*
X86829778Y-102934858D01*
X87158779Y-102935145D01*
X87462846Y-102809507D01*
X87641908Y-102630758D01*
X87648320Y-102646275D01*
X87852650Y-102850961D01*
X88119756Y-102961874D01*
X88408975Y-102962126D01*
X88676275Y-102851680D01*
X88880961Y-102647350D01*
X88991874Y-102380244D01*
X88991954Y-102288692D01*
X89290321Y-101990325D01*
X89409980Y-101811244D01*
X89451998Y-101600002D01*
X89451998Y-99536200D01*
X89515959Y-99472350D01*
X89626872Y-99205244D01*
X89627124Y-98916025D01*
X89516678Y-98648725D01*
X89511942Y-98643980D01*
X89678975Y-98644126D01*
X89946275Y-98533680D01*
X90150961Y-98329350D01*
X90261874Y-98062244D01*
X90262126Y-97773025D01*
X90151680Y-97505725D01*
X90087000Y-97440932D01*
X90087000Y-96361200D01*
X90150961Y-96297350D01*
X90261874Y-96030244D01*
X90262126Y-95741025D01*
X90151680Y-95473725D01*
X89947350Y-95269039D01*
X89680244Y-95158126D01*
X89391025Y-95157874D01*
X89123725Y-95268320D01*
X88919039Y-95472650D01*
X88808126Y-95739756D01*
X88807874Y-96028975D01*
X88918320Y-96296275D01*
X88983000Y-96361068D01*
X88983000Y-97440800D01*
X88919039Y-97504650D01*
X88808126Y-97771756D01*
X88807874Y-98060975D01*
X88918320Y-98328275D01*
X88923056Y-98333020D01*
X88756023Y-98332874D01*
X88488723Y-98443320D01*
X88364000Y-98567826D01*
X88364000Y-90587779D01*
X91247857Y-90587779D01*
X91373495Y-90891846D01*
X91605930Y-91124688D01*
X91909778Y-91250856D01*
X92238779Y-91251143D01*
X92542846Y-91125505D01*
X92775688Y-90893070D01*
X92901856Y-90589222D01*
X92902143Y-90260221D01*
X92808189Y-90032835D01*
X96857000Y-94081646D01*
X96857000Y-98679000D01*
X96899018Y-98890242D01*
X97018677Y-99069323D01*
X100110953Y-102161599D01*
X100110874Y-102251975D01*
X100221320Y-102519275D01*
X100425650Y-102723961D01*
X100692756Y-102834874D01*
X100981975Y-102835126D01*
X101249275Y-102724680D01*
X101453961Y-102520350D01*
X101536565Y-102321419D01*
X101618320Y-102519281D01*
X101822650Y-102723967D01*
X102089756Y-102834880D01*
X102378975Y-102835132D01*
X102646275Y-102724686D01*
X102801126Y-102570104D01*
X102803499Y-102575846D01*
X103035934Y-102808688D01*
X103339782Y-102934856D01*
X103668783Y-102935143D01*
X103972850Y-102809505D01*
X104205692Y-102577070D01*
X104331860Y-102273222D01*
X104331977Y-102139455D01*
X105712214Y-100759218D01*
X105843795Y-100562293D01*
X105890000Y-100330004D01*
X105890000Y-91692641D01*
X105956930Y-91759688D01*
X106260778Y-91885856D01*
X106589779Y-91886143D01*
X106893846Y-91760505D01*
X107126688Y-91528070D01*
X107252856Y-91224222D01*
X107253143Y-90895221D01*
X107127505Y-90591154D01*
X106895070Y-90358312D01*
X106779000Y-90310116D01*
X106779000Y-86313439D01*
X106805018Y-86444242D01*
X106924677Y-86623323D01*
X107476953Y-87175599D01*
X107476874Y-87265975D01*
X107587320Y-87533275D01*
X107791650Y-87737961D01*
X108058756Y-87848874D01*
X108347975Y-87849126D01*
X108615275Y-87738680D01*
X108658001Y-87696028D01*
X108658001Y-95158063D01*
X108441025Y-95157874D01*
X108173725Y-95268320D01*
X107969039Y-95472650D01*
X107858126Y-95739756D01*
X107857874Y-96028975D01*
X107968320Y-96296275D01*
X108033000Y-96361068D01*
X108033000Y-97440800D01*
X107969039Y-97504650D01*
X107858126Y-97771756D01*
X107857874Y-98060975D01*
X107968320Y-98328275D01*
X108172650Y-98532961D01*
X108439756Y-98643874D01*
X108658001Y-98644064D01*
X108658001Y-100912973D01*
X107989153Y-101581821D01*
X107931680Y-101442725D01*
X107867000Y-101377932D01*
X107867000Y-99536200D01*
X107930961Y-99472350D01*
X108041874Y-99205244D01*
X108042126Y-98916025D01*
X107931680Y-98648725D01*
X107727350Y-98444039D01*
X107460244Y-98333126D01*
X107171025Y-98332874D01*
X106903725Y-98443320D01*
X106699039Y-98647650D01*
X106588126Y-98914756D01*
X106587874Y-99203975D01*
X106698320Y-99471275D01*
X106763000Y-99536068D01*
X106763000Y-101377800D01*
X106699039Y-101441650D01*
X106654772Y-101548255D01*
X106514070Y-101407306D01*
X106210222Y-101281138D01*
X105881221Y-101280851D01*
X105577154Y-101406489D01*
X105344312Y-101638924D01*
X105218144Y-101942772D01*
X105217857Y-102271773D01*
X105343495Y-102575840D01*
X105575930Y-102808682D01*
X105879778Y-102934850D01*
X106013545Y-102934967D01*
X106295793Y-103217215D01*
X106492718Y-103348796D01*
X106725007Y-103395001D01*
X107641401Y-103395001D01*
X107873690Y-103348796D01*
X108070615Y-103217215D01*
X109694215Y-101593615D01*
X109825796Y-101396690D01*
X109872001Y-101164401D01*
X109872001Y-72562001D01*
X109825796Y-72329712D01*
X109694215Y-72132787D01*
X109694212Y-72132785D01*
X108684004Y-71122576D01*
X108684004Y-64857825D01*
X108693756Y-64861874D01*
X108982975Y-64862126D01*
X109250275Y-64751680D01*
X109454961Y-64547350D01*
X109565874Y-64280244D01*
X109566126Y-63991025D01*
X109455680Y-63723725D01*
X109391000Y-63658932D01*
X109391000Y-62149925D01*
X109407495Y-62189846D01*
X109639930Y-62422688D01*
X109943778Y-62548856D01*
X110272779Y-62549143D01*
X110319000Y-62530045D01*
X110319000Y-74422000D01*
X110361018Y-74633242D01*
X110480677Y-74812323D01*
X111667953Y-75999599D01*
X111667874Y-76089975D01*
X111778320Y-76357275D01*
X111982650Y-76561961D01*
X112249756Y-76672874D01*
X112538975Y-76673126D01*
X112806275Y-76562680D01*
X112923970Y-76445189D01*
X112963495Y-76540846D01*
X113195930Y-76773688D01*
X113499778Y-76899856D01*
X113828779Y-76900143D01*
X114132846Y-76774505D01*
X114365688Y-76542070D01*
X114405964Y-76445075D01*
X114522646Y-76561961D01*
X114789752Y-76672874D01*
X115078971Y-76673126D01*
X115346271Y-76562680D01*
X115463969Y-76445186D01*
X115503495Y-76540846D01*
X115735930Y-76773688D01*
X116039778Y-76899856D01*
X116368779Y-76900143D01*
X116672846Y-76774505D01*
X116905688Y-76542070D01*
X116923000Y-76500378D01*
X116923000Y-98583802D01*
X116859041Y-98647650D01*
X116748128Y-98914756D01*
X116747876Y-99203975D01*
X116858322Y-99471275D01*
X117062652Y-99675961D01*
X117329758Y-99786874D01*
X117618977Y-99787126D01*
X117886277Y-99676680D01*
X118090963Y-99472350D01*
X118193000Y-99226620D01*
X118193000Y-99726796D01*
X118129039Y-99790646D01*
X118018126Y-100057752D01*
X118017874Y-100346971D01*
X118128320Y-100614271D01*
X118332650Y-100818957D01*
X118599756Y-100929870D01*
X118888975Y-100930122D01*
X119156275Y-100819676D01*
X119360961Y-100615346D01*
X119471874Y-100348240D01*
X119472126Y-100059021D01*
X119361680Y-99791721D01*
X119297000Y-99726928D01*
X119297000Y-98083062D01*
X119398320Y-98328275D01*
X119602650Y-98532961D01*
X119869756Y-98643874D01*
X120158975Y-98644126D01*
X120426275Y-98533680D01*
X120630961Y-98329350D01*
X120741874Y-98062244D01*
X120742126Y-97773025D01*
X120715994Y-97709781D01*
X120885758Y-97780274D01*
X121174977Y-97780526D01*
X121442277Y-97670080D01*
X121646963Y-97465750D01*
X121757876Y-97198644D01*
X121758128Y-96909425D01*
X121647682Y-96642125D01*
X121583002Y-96577332D01*
X121583002Y-78134404D01*
X121569999Y-78069033D01*
X121569999Y-71487999D01*
X121527981Y-71276758D01*
X121408322Y-71097676D01*
X120659323Y-70348677D01*
X120480242Y-70229018D01*
X120269000Y-70187000D01*
X117951200Y-70187000D01*
X117887350Y-70123039D01*
X117620244Y-70012126D01*
X117331025Y-70011874D01*
X117063725Y-70122320D01*
X116859039Y-70326650D01*
X116812000Y-70439932D01*
X116812000Y-51485800D01*
X116765795Y-51253511D01*
X116634214Y-51056586D01*
X114263428Y-48685800D01*
X114263543Y-48553421D01*
X114137905Y-48249354D01*
X113905470Y-48016512D01*
X113601622Y-47890344D01*
X113272621Y-47890057D01*
X112968554Y-48015695D01*
X112735712Y-48248130D01*
X112623293Y-48518865D01*
X110047028Y-45942600D01*
X110047143Y-45810221D01*
X109921505Y-45506154D01*
X109689070Y-45273312D01*
X109385222Y-45147144D01*
X109056221Y-45146857D01*
X108752154Y-45272495D01*
X108519312Y-45504930D01*
X108393144Y-45808778D01*
X108392857Y-46137779D01*
X108518495Y-46441846D01*
X108750930Y-46674688D01*
X109054778Y-46800856D01*
X109188545Y-46800973D01*
X109480222Y-47092650D01*
X109336355Y-47152094D01*
X109103513Y-47384529D01*
X108977345Y-47688377D01*
X108977058Y-48017378D01*
X109102001Y-48319763D01*
X109102001Y-57742023D01*
X108984244Y-57693126D01*
X108695025Y-57692874D01*
X108684004Y-57697428D01*
X108684004Y-49584594D01*
X108777692Y-49491070D01*
X108903860Y-49187222D01*
X108904147Y-48858221D01*
X108778509Y-48554154D01*
X108546074Y-48321312D01*
X108242226Y-48195144D01*
X107913225Y-48194857D01*
X107609158Y-48320495D01*
X107376316Y-48552930D01*
X107287000Y-48768028D01*
X107287000Y-46536594D01*
X107380688Y-46443070D01*
X107506856Y-46139222D01*
X107507143Y-45810221D01*
X107381505Y-45506154D01*
X107149070Y-45273312D01*
X106845222Y-45147144D01*
X106516221Y-45146857D01*
X106212154Y-45272495D01*
X105979312Y-45504930D01*
X105853144Y-45808778D01*
X105852857Y-46137779D01*
X105978495Y-46441846D01*
X106073000Y-46536516D01*
X106073000Y-48527977D01*
X105890000Y-48710976D01*
X105890000Y-47116996D01*
X105843795Y-46884707D01*
X105712214Y-46687782D01*
X104967028Y-45942596D01*
X104967143Y-45810217D01*
X104841505Y-45506150D01*
X104609070Y-45273308D01*
X104305222Y-45147140D01*
X103976221Y-45146853D01*
X103672154Y-45272491D01*
X103439312Y-45504926D01*
X103313144Y-45808774D01*
X103312857Y-46137775D01*
X103438495Y-46441842D01*
X103670930Y-46674684D01*
X103818580Y-46735993D01*
X103672154Y-46796495D01*
X103439312Y-47028930D01*
X103313144Y-47332778D01*
X103313027Y-47466545D01*
X101443785Y-49335787D01*
X101312204Y-49532712D01*
X101265999Y-49765001D01*
X101265999Y-74329715D01*
X101250350Y-74314039D01*
X100983244Y-74203126D01*
X100694025Y-74202874D01*
X100426725Y-74313320D01*
X100222039Y-74517650D01*
X100111126Y-74784756D01*
X100111046Y-74876308D01*
X99735635Y-75251719D01*
X99739000Y-75234800D01*
X99739000Y-73628200D01*
X99802961Y-73564350D01*
X99913874Y-73297244D01*
X99914126Y-73008025D01*
X99803680Y-72740725D01*
X99672165Y-72608981D01*
X99838975Y-72609126D01*
X100106275Y-72498680D01*
X100310961Y-72294350D01*
X100421874Y-72027244D01*
X100422126Y-71738025D01*
X100311680Y-71470725D01*
X100247000Y-71405932D01*
X100247000Y-70326200D01*
X100310961Y-70262350D01*
X100421874Y-69995244D01*
X100422126Y-69706025D01*
X100311680Y-69438725D01*
X100107350Y-69234039D01*
X99840244Y-69123126D01*
X99551025Y-69122874D01*
X99283725Y-69233320D01*
X99159000Y-69357828D01*
X99159000Y-62138087D01*
X99295756Y-62194874D01*
X99584975Y-62195126D01*
X99852275Y-62084680D01*
X100056961Y-61880350D01*
X100167874Y-61613244D01*
X100168126Y-61324025D01*
X100057680Y-61056725D01*
X99993000Y-60991932D01*
X99993000Y-55594200D01*
X100056961Y-55530350D01*
X100167874Y-55263244D01*
X100168126Y-54974025D01*
X100057680Y-54706725D01*
X99853350Y-54502039D01*
X99586244Y-54391126D01*
X99297025Y-54390874D01*
X99159000Y-54447905D01*
X99159000Y-48822594D01*
X99252688Y-48729070D01*
X99378856Y-48425222D01*
X99379143Y-48096221D01*
X99253505Y-47792154D01*
X99021070Y-47559312D01*
X98717222Y-47433144D01*
X98388221Y-47432857D01*
X98084154Y-47558495D01*
X98016000Y-47626530D01*
X98016000Y-46790594D01*
X98109688Y-46697070D01*
X98235856Y-46393222D01*
X98236143Y-46064221D01*
X98110505Y-45760154D01*
X97878070Y-45527312D01*
X97574222Y-45401144D01*
X97245221Y-45400857D01*
X96941154Y-45526495D01*
X96708312Y-45758930D01*
X96582144Y-46062778D01*
X96581857Y-46391779D01*
X96707495Y-46695846D01*
X96802000Y-46790516D01*
X96802000Y-62105572D01*
X96408800Y-62498772D01*
X96437000Y-62357000D01*
X96437000Y-58261200D01*
X96500961Y-58197350D01*
X96611874Y-57930244D01*
X96612126Y-57641025D01*
X96501680Y-57373725D01*
X96297350Y-57169039D01*
X96030244Y-57058126D01*
X95741025Y-57057874D01*
X95720000Y-57066561D01*
X95720000Y-56565057D01*
X95865961Y-56419350D01*
X95976874Y-56152244D01*
X95977126Y-55863025D01*
X95866680Y-55595725D01*
X95662350Y-55391039D01*
X95395244Y-55280126D01*
X95106025Y-55279874D01*
X94847401Y-55386735D01*
X94847401Y-47884304D01*
X95006646Y-47818505D01*
X95239488Y-47586070D01*
X95365656Y-47282222D01*
X95365943Y-46953221D01*
X95240305Y-46649154D01*
X95007870Y-46416312D01*
X94704022Y-46290144D01*
X94375021Y-46289857D01*
X94070954Y-46415495D01*
X93838112Y-46647930D01*
X93711944Y-46951778D01*
X93711784Y-47134952D01*
X93679606Y-47183110D01*
X93633401Y-47415399D01*
X93633401Y-55974570D01*
X93490244Y-55915126D01*
X93201025Y-55914874D01*
X92933725Y-56025320D01*
X92729039Y-56229650D01*
X92618126Y-56496756D01*
X92617874Y-56785975D01*
X92728320Y-57053275D01*
X92793000Y-57118068D01*
X92793000Y-69810938D01*
X92691680Y-69565725D01*
X92487350Y-69361039D01*
X92220244Y-69250126D01*
X91931025Y-69249874D01*
X91663725Y-69360320D01*
X91459039Y-69564650D01*
X91348126Y-69831756D01*
X91347874Y-70120975D01*
X91458320Y-70388275D01*
X91523000Y-70453068D01*
X91523000Y-88519000D01*
X91565018Y-88730242D01*
X91684677Y-88909323D01*
X92466425Y-89691071D01*
X92240222Y-89597144D01*
X91911221Y-89596857D01*
X91607154Y-89722495D01*
X91374312Y-89954930D01*
X91248144Y-90258778D01*
X91247857Y-90587779D01*
X88364000Y-90587779D01*
X88364000Y-75819000D01*
X88317795Y-75586711D01*
X88186214Y-75389786D01*
X88186211Y-75389784D01*
X87856000Y-75059572D01*
X87856000Y-74376703D01*
X87926758Y-74423982D01*
X88138000Y-74466000D01*
X88349242Y-74423982D01*
X88528323Y-74304323D01*
X88602000Y-74194058D01*
X88602000Y-86772800D01*
X88538039Y-86836650D01*
X88427126Y-87103756D01*
X88426874Y-87392975D01*
X88537320Y-87660275D01*
X88741650Y-87864961D01*
X89008756Y-87975874D01*
X89297975Y-87976126D01*
X89565275Y-87865680D01*
X89769961Y-87661350D01*
X89880874Y-87394244D01*
X89881126Y-87105025D01*
X89770680Y-86837725D01*
X89706000Y-86772932D01*
X89706000Y-58674000D01*
X89663982Y-58462758D01*
X89544323Y-58283677D01*
X88992047Y-57731401D01*
X88992126Y-57641025D01*
X88881680Y-57373725D01*
X88677350Y-57169039D01*
X88410244Y-57058126D01*
X88121025Y-57057874D01*
X87856000Y-57167380D01*
X87856000Y-48387000D01*
X87809795Y-48154711D01*
X87678214Y-47957786D01*
X86044028Y-46323600D01*
X86044079Y-46264779D01*
X88707859Y-46264779D01*
X88833497Y-46568846D01*
X89065932Y-46801688D01*
X89369780Y-46927856D01*
X89503547Y-46927973D01*
X90452000Y-47876426D01*
X90452000Y-63318406D01*
X90358312Y-63411930D01*
X90232144Y-63715778D01*
X90231857Y-64044779D01*
X90357495Y-64348846D01*
X90589930Y-64581688D01*
X90893778Y-64707856D01*
X91222779Y-64708143D01*
X91526846Y-64582505D01*
X91759688Y-64350070D01*
X91885856Y-64046222D01*
X91886143Y-63717221D01*
X91760505Y-63413154D01*
X91666000Y-63318484D01*
X91666000Y-47625003D01*
X91666001Y-47624998D01*
X91619795Y-47392709D01*
X91488214Y-47195784D01*
X90362030Y-46069600D01*
X90362145Y-45937221D01*
X90236507Y-45633154D01*
X90004072Y-45400312D01*
X89700224Y-45274144D01*
X89371223Y-45273857D01*
X89067156Y-45399495D01*
X88834314Y-45631930D01*
X88708146Y-45935778D01*
X88707859Y-46264779D01*
X86044079Y-46264779D01*
X86044143Y-46191221D01*
X85918505Y-45887154D01*
X85686070Y-45654312D01*
X85382222Y-45528144D01*
X85053221Y-45527857D01*
X84971011Y-45561826D01*
X84971011Y-44030417D01*
X85756400Y-43245028D01*
X85888779Y-43245143D01*
X86192846Y-43119505D01*
X86425688Y-42887070D01*
X86551856Y-42583222D01*
X86552143Y-42254221D01*
X86426505Y-41950154D01*
X86194070Y-41717312D01*
X85890222Y-41591144D01*
X85756455Y-41591027D01*
X84922429Y-40757001D01*
X87015573Y-40757001D01*
X88707972Y-42449400D01*
X88707857Y-42581779D01*
X88833495Y-42885846D01*
X89065930Y-43118688D01*
X89369778Y-43244856D01*
X89698779Y-43245143D01*
X90002846Y-43119505D01*
X90170088Y-42952555D01*
X90335930Y-43118688D01*
X90639778Y-43244856D01*
X90968779Y-43245143D01*
X91272846Y-43119505D01*
X91505688Y-42887070D01*
X91631856Y-42583222D01*
X91632143Y-42254221D01*
X91506505Y-41950154D01*
X91274070Y-41717312D01*
X90970222Y-41591144D01*
X90836455Y-41591027D01*
X88186214Y-38940786D01*
X87989289Y-38809205D01*
X87757000Y-38763000D01*
X85451675Y-38763000D01*
X85493278Y-38721470D01*
X85619446Y-38417622D01*
X85619733Y-38088621D01*
X85494095Y-37784554D01*
X85261660Y-37551712D01*
X84957812Y-37425544D01*
X84628811Y-37425257D01*
X84446951Y-37500400D01*
X80126896Y-37500400D01*
X79946622Y-37425544D01*
X79617621Y-37425257D01*
X79435761Y-37500400D01*
X75021496Y-37500400D01*
X74841222Y-37425544D01*
X74512221Y-37425257D01*
X74330361Y-37500400D01*
X69966896Y-37500400D01*
X69786622Y-37425544D01*
X69457621Y-37425257D01*
X69275761Y-37500400D01*
X64886896Y-37500400D01*
X64706622Y-37425544D01*
X64377621Y-37425257D01*
X64195761Y-37500400D01*
X59781496Y-37500400D01*
X59601222Y-37425544D01*
X59272221Y-37425257D01*
X59090361Y-37500400D01*
X54676096Y-37500400D01*
X54495822Y-37425544D01*
X54166821Y-37425257D01*
X53984961Y-37500400D01*
X36566000Y-37500400D01*
X36566000Y-32995962D01*
X37917000Y-32995962D01*
X37917000Y-33044038D01*
X38010400Y-33513591D01*
X38276380Y-33911658D01*
X38674447Y-34177638D01*
X39144000Y-34271038D01*
X39613553Y-34177638D01*
X40011620Y-33911658D01*
X40277600Y-33513591D01*
X40371000Y-33044038D01*
X40371000Y-32995962D01*
X40457000Y-32995962D01*
X40457000Y-33044038D01*
X40550400Y-33513591D01*
X40816380Y-33911658D01*
X41214447Y-34177638D01*
X41684000Y-34271038D01*
X42153553Y-34177638D01*
X42551620Y-33911658D01*
X42817600Y-33513591D01*
X42911000Y-33044038D01*
X42911000Y-32995962D01*
X42997000Y-32995962D01*
X42997000Y-33044038D01*
X43090400Y-33513591D01*
X43356380Y-33911658D01*
X43754447Y-34177638D01*
X44224000Y-34271038D01*
X44693553Y-34177638D01*
X45091620Y-33911658D01*
X45357600Y-33513591D01*
X45451000Y-33044038D01*
X45451000Y-32995962D01*
X45537000Y-32995962D01*
X45537000Y-33044038D01*
X45630400Y-33513591D01*
X45896380Y-33911658D01*
X46294447Y-34177638D01*
X46764000Y-34271038D01*
X47233553Y-34177638D01*
X47631620Y-33911658D01*
X47897600Y-33513591D01*
X47991000Y-33044038D01*
X47991000Y-32995962D01*
X48077000Y-32995962D01*
X48077000Y-33044038D01*
X48170400Y-33513591D01*
X48436380Y-33911658D01*
X48834447Y-34177638D01*
X49304000Y-34271038D01*
X49773553Y-34177638D01*
X50171620Y-33911658D01*
X50437600Y-33513591D01*
X50531000Y-33044038D01*
X50531000Y-32995962D01*
X50617000Y-32995962D01*
X50617000Y-33044038D01*
X50710400Y-33513591D01*
X50976380Y-33911658D01*
X51374447Y-34177638D01*
X51844000Y-34271038D01*
X52313553Y-34177638D01*
X52711620Y-33911658D01*
X52977600Y-33513591D01*
X53071000Y-33044038D01*
X53071000Y-32995962D01*
X53157000Y-32995962D01*
X53157000Y-33044038D01*
X53250400Y-33513591D01*
X53516380Y-33911658D01*
X53914447Y-34177638D01*
X54384000Y-34271038D01*
X54853553Y-34177638D01*
X55251620Y-33911658D01*
X55517600Y-33513591D01*
X55611000Y-33044038D01*
X55611000Y-32995962D01*
X55697000Y-32995962D01*
X55697000Y-33044038D01*
X55790400Y-33513591D01*
X56056380Y-33911658D01*
X56454447Y-34177638D01*
X56924000Y-34271038D01*
X57393553Y-34177638D01*
X57791620Y-33911658D01*
X58057600Y-33513591D01*
X58151000Y-33044038D01*
X58151000Y-32995962D01*
X58237000Y-32995962D01*
X58237000Y-33044038D01*
X58330400Y-33513591D01*
X58596380Y-33911658D01*
X58994447Y-34177638D01*
X59464000Y-34271038D01*
X59933553Y-34177638D01*
X60331620Y-33911658D01*
X60597600Y-33513591D01*
X60691000Y-33044038D01*
X60691000Y-32995962D01*
X60777000Y-32995962D01*
X60777000Y-33044038D01*
X60870400Y-33513591D01*
X61136380Y-33911658D01*
X61534447Y-34177638D01*
X62004000Y-34271038D01*
X62473553Y-34177638D01*
X62871620Y-33911658D01*
X63137600Y-33513591D01*
X63231000Y-33044038D01*
X63231000Y-32995962D01*
X63317000Y-32995962D01*
X63317000Y-33044038D01*
X63410400Y-33513591D01*
X63676380Y-33911658D01*
X64074447Y-34177638D01*
X64544000Y-34271038D01*
X65013553Y-34177638D01*
X65411620Y-33911658D01*
X65677600Y-33513591D01*
X65771000Y-33044038D01*
X65771000Y-32995962D01*
X65857000Y-32995962D01*
X65857000Y-33044038D01*
X65950400Y-33513591D01*
X66216380Y-33911658D01*
X66614447Y-34177638D01*
X67084000Y-34271038D01*
X67553553Y-34177638D01*
X67951620Y-33911658D01*
X68217600Y-33513591D01*
X68311000Y-33044038D01*
X68311000Y-32995962D01*
X68397000Y-32995962D01*
X68397000Y-33044038D01*
X68490400Y-33513591D01*
X68756380Y-33911658D01*
X69154447Y-34177638D01*
X69624000Y-34271038D01*
X70093553Y-34177638D01*
X70491620Y-33911658D01*
X70757600Y-33513591D01*
X70851000Y-33044038D01*
X70851000Y-32995962D01*
X70937000Y-32995962D01*
X70937000Y-33044038D01*
X71030400Y-33513591D01*
X71296380Y-33911658D01*
X71694447Y-34177638D01*
X72164000Y-34271038D01*
X72633553Y-34177638D01*
X73031620Y-33911658D01*
X73297600Y-33513591D01*
X73391000Y-33044038D01*
X73391000Y-32995962D01*
X73477000Y-32995962D01*
X73477000Y-33044038D01*
X73570400Y-33513591D01*
X73836380Y-33911658D01*
X74234447Y-34177638D01*
X74704000Y-34271038D01*
X75173553Y-34177638D01*
X75571620Y-33911658D01*
X75837600Y-33513591D01*
X75931000Y-33044038D01*
X75931000Y-32995962D01*
X76017000Y-32995962D01*
X76017000Y-33044038D01*
X76110400Y-33513591D01*
X76376380Y-33911658D01*
X76774447Y-34177638D01*
X77244000Y-34271038D01*
X77713553Y-34177638D01*
X78111620Y-33911658D01*
X78377600Y-33513591D01*
X78471000Y-33044038D01*
X78471000Y-32995962D01*
X78377600Y-32526409D01*
X78111620Y-32128342D01*
X77713553Y-31862362D01*
X77244000Y-31768962D01*
X76774447Y-31862362D01*
X76376380Y-32128342D01*
X76110400Y-32526409D01*
X76017000Y-32995962D01*
X75931000Y-32995962D01*
X75837600Y-32526409D01*
X75571620Y-32128342D01*
X75173553Y-31862362D01*
X74704000Y-31768962D01*
X74234447Y-31862362D01*
X73836380Y-32128342D01*
X73570400Y-32526409D01*
X73477000Y-32995962D01*
X73391000Y-32995962D01*
X73297600Y-32526409D01*
X73031620Y-32128342D01*
X72633553Y-31862362D01*
X72164000Y-31768962D01*
X71694447Y-31862362D01*
X71296380Y-32128342D01*
X71030400Y-32526409D01*
X70937000Y-32995962D01*
X70851000Y-32995962D01*
X70757600Y-32526409D01*
X70491620Y-32128342D01*
X70093553Y-31862362D01*
X69624000Y-31768962D01*
X69154447Y-31862362D01*
X68756380Y-32128342D01*
X68490400Y-32526409D01*
X68397000Y-32995962D01*
X68311000Y-32995962D01*
X68217600Y-32526409D01*
X67951620Y-32128342D01*
X67553553Y-31862362D01*
X67084000Y-31768962D01*
X66614447Y-31862362D01*
X66216380Y-32128342D01*
X65950400Y-32526409D01*
X65857000Y-32995962D01*
X65771000Y-32995962D01*
X65677600Y-32526409D01*
X65411620Y-32128342D01*
X65013553Y-31862362D01*
X64544000Y-31768962D01*
X64074447Y-31862362D01*
X63676380Y-32128342D01*
X63410400Y-32526409D01*
X63317000Y-32995962D01*
X63231000Y-32995962D01*
X63137600Y-32526409D01*
X62871620Y-32128342D01*
X62473553Y-31862362D01*
X62004000Y-31768962D01*
X61534447Y-31862362D01*
X61136380Y-32128342D01*
X60870400Y-32526409D01*
X60777000Y-32995962D01*
X60691000Y-32995962D01*
X60597600Y-32526409D01*
X60331620Y-32128342D01*
X59933553Y-31862362D01*
X59464000Y-31768962D01*
X58994447Y-31862362D01*
X58596380Y-32128342D01*
X58330400Y-32526409D01*
X58237000Y-32995962D01*
X58151000Y-32995962D01*
X58057600Y-32526409D01*
X57791620Y-32128342D01*
X57393553Y-31862362D01*
X56924000Y-31768962D01*
X56454447Y-31862362D01*
X56056380Y-32128342D01*
X55790400Y-32526409D01*
X55697000Y-32995962D01*
X55611000Y-32995962D01*
X55517600Y-32526409D01*
X55251620Y-32128342D01*
X54853553Y-31862362D01*
X54384000Y-31768962D01*
X53914447Y-31862362D01*
X53516380Y-32128342D01*
X53250400Y-32526409D01*
X53157000Y-32995962D01*
X53071000Y-32995962D01*
X52977600Y-32526409D01*
X52711620Y-32128342D01*
X52313553Y-31862362D01*
X51844000Y-31768962D01*
X51374447Y-31862362D01*
X50976380Y-32128342D01*
X50710400Y-32526409D01*
X50617000Y-32995962D01*
X50531000Y-32995962D01*
X50437600Y-32526409D01*
X50171620Y-32128342D01*
X49773553Y-31862362D01*
X49304000Y-31768962D01*
X48834447Y-31862362D01*
X48436380Y-32128342D01*
X48170400Y-32526409D01*
X48077000Y-32995962D01*
X47991000Y-32995962D01*
X47897600Y-32526409D01*
X47631620Y-32128342D01*
X47233553Y-31862362D01*
X46764000Y-31768962D01*
X46294447Y-31862362D01*
X45896380Y-32128342D01*
X45630400Y-32526409D01*
X45537000Y-32995962D01*
X45451000Y-32995962D01*
X45357600Y-32526409D01*
X45091620Y-32128342D01*
X44693553Y-31862362D01*
X44224000Y-31768962D01*
X43754447Y-31862362D01*
X43356380Y-32128342D01*
X43090400Y-32526409D01*
X42997000Y-32995962D01*
X42911000Y-32995962D01*
X42817600Y-32526409D01*
X42551620Y-32128342D01*
X42153553Y-31862362D01*
X41684000Y-31768962D01*
X41214447Y-31862362D01*
X40816380Y-32128342D01*
X40550400Y-32526409D01*
X40457000Y-32995962D01*
X40371000Y-32995962D01*
X40277600Y-32526409D01*
X40011620Y-32128342D01*
X39613553Y-31862362D01*
X39144000Y-31768962D01*
X38674447Y-31862362D01*
X38276380Y-32128342D01*
X38010400Y-32526409D01*
X37917000Y-32995962D01*
X36566000Y-32995962D01*
X36566000Y-30455962D01*
X37917000Y-30455962D01*
X37917000Y-30504038D01*
X38010400Y-30973591D01*
X38276380Y-31371658D01*
X38674447Y-31637638D01*
X39144000Y-31731038D01*
X39613553Y-31637638D01*
X40011620Y-31371658D01*
X40277600Y-30973591D01*
X40371000Y-30504038D01*
X40371000Y-30455962D01*
X40457000Y-30455962D01*
X40457000Y-30504038D01*
X40550400Y-30973591D01*
X40816380Y-31371658D01*
X41214447Y-31637638D01*
X41684000Y-31731038D01*
X42153553Y-31637638D01*
X42551620Y-31371658D01*
X42817600Y-30973591D01*
X42911000Y-30504038D01*
X42911000Y-30455962D01*
X42997000Y-30455962D01*
X42997000Y-30504038D01*
X43090400Y-30973591D01*
X43356380Y-31371658D01*
X43754447Y-31637638D01*
X44224000Y-31731038D01*
X44693553Y-31637638D01*
X45091620Y-31371658D01*
X45357600Y-30973591D01*
X45451000Y-30504038D01*
X45451000Y-30455962D01*
X45537000Y-30455962D01*
X45537000Y-30504038D01*
X45630400Y-30973591D01*
X45896380Y-31371658D01*
X46294447Y-31637638D01*
X46764000Y-31731038D01*
X47233553Y-31637638D01*
X47631620Y-31371658D01*
X47897600Y-30973591D01*
X47991000Y-30504038D01*
X47991000Y-30455962D01*
X48077000Y-30455962D01*
X48077000Y-30504038D01*
X48170400Y-30973591D01*
X48436380Y-31371658D01*
X48834447Y-31637638D01*
X49304000Y-31731038D01*
X49773553Y-31637638D01*
X50171620Y-31371658D01*
X50437600Y-30973591D01*
X50531000Y-30504038D01*
X50531000Y-30455962D01*
X50617000Y-30455962D01*
X50617000Y-30504038D01*
X50710400Y-30973591D01*
X50976380Y-31371658D01*
X51374447Y-31637638D01*
X51844000Y-31731038D01*
X52313553Y-31637638D01*
X52711620Y-31371658D01*
X52977600Y-30973591D01*
X53071000Y-30504038D01*
X53071000Y-30455962D01*
X53157000Y-30455962D01*
X53157000Y-30504038D01*
X53250400Y-30973591D01*
X53516380Y-31371658D01*
X53914447Y-31637638D01*
X54384000Y-31731038D01*
X54853553Y-31637638D01*
X55251620Y-31371658D01*
X55517600Y-30973591D01*
X55611000Y-30504038D01*
X55611000Y-30455962D01*
X55697000Y-30455962D01*
X55697000Y-30504038D01*
X55790400Y-30973591D01*
X56056380Y-31371658D01*
X56454447Y-31637638D01*
X56924000Y-31731038D01*
X57393553Y-31637638D01*
X57791620Y-31371658D01*
X58057600Y-30973591D01*
X58151000Y-30504038D01*
X58151000Y-30455962D01*
X58237000Y-30455962D01*
X58237000Y-30504038D01*
X58330400Y-30973591D01*
X58596380Y-31371658D01*
X58994447Y-31637638D01*
X59464000Y-31731038D01*
X59933553Y-31637638D01*
X60331620Y-31371658D01*
X60597600Y-30973591D01*
X60691000Y-30504038D01*
X60691000Y-30455962D01*
X60777000Y-30455962D01*
X60777000Y-30504038D01*
X60870400Y-30973591D01*
X61136380Y-31371658D01*
X61534447Y-31637638D01*
X62004000Y-31731038D01*
X62473553Y-31637638D01*
X62871620Y-31371658D01*
X63137600Y-30973591D01*
X63231000Y-30504038D01*
X63231000Y-30455962D01*
X63317000Y-30455962D01*
X63317000Y-30504038D01*
X63410400Y-30973591D01*
X63676380Y-31371658D01*
X64074447Y-31637638D01*
X64544000Y-31731038D01*
X65013553Y-31637638D01*
X65411620Y-31371658D01*
X65677600Y-30973591D01*
X65771000Y-30504038D01*
X65771000Y-30455962D01*
X65857000Y-30455962D01*
X65857000Y-30504038D01*
X65950400Y-30973591D01*
X66216380Y-31371658D01*
X66614447Y-31637638D01*
X67084000Y-31731038D01*
X67553553Y-31637638D01*
X67951620Y-31371658D01*
X68217600Y-30973591D01*
X68311000Y-30504038D01*
X68311000Y-30455962D01*
X68397000Y-30455962D01*
X68397000Y-30504038D01*
X68490400Y-30973591D01*
X68756380Y-31371658D01*
X69154447Y-31637638D01*
X69624000Y-31731038D01*
X70093553Y-31637638D01*
X70491620Y-31371658D01*
X70757600Y-30973591D01*
X70851000Y-30504038D01*
X70851000Y-30455962D01*
X70937000Y-30455962D01*
X70937000Y-30504038D01*
X71030400Y-30973591D01*
X71296380Y-31371658D01*
X71694447Y-31637638D01*
X72164000Y-31731038D01*
X72633553Y-31637638D01*
X73031620Y-31371658D01*
X73297600Y-30973591D01*
X73391000Y-30504038D01*
X73391000Y-30455962D01*
X73477000Y-30455962D01*
X73477000Y-30504038D01*
X73570400Y-30973591D01*
X73836380Y-31371658D01*
X74234447Y-31637638D01*
X74704000Y-31731038D01*
X75173553Y-31637638D01*
X75571620Y-31371658D01*
X75837600Y-30973591D01*
X75931000Y-30504038D01*
X75931000Y-30455962D01*
X76017000Y-30455962D01*
X76017000Y-30504038D01*
X76110400Y-30973591D01*
X76376380Y-31371658D01*
X76774447Y-31637638D01*
X77244000Y-31731038D01*
X77713553Y-31637638D01*
X78111620Y-31371658D01*
X78377600Y-30973591D01*
X78471000Y-30504038D01*
X78471000Y-30455962D01*
X78557000Y-30455962D01*
X78557000Y-30504038D01*
X78650400Y-30973591D01*
X78916380Y-31371658D01*
X79314447Y-31637638D01*
X79784000Y-31731038D01*
X80253553Y-31637638D01*
X80540176Y-31446122D01*
X80490605Y-31520311D01*
X80444400Y-31752600D01*
X80444400Y-31989882D01*
X80253553Y-31862362D01*
X79784000Y-31768962D01*
X79314447Y-31862362D01*
X78916380Y-32128342D01*
X78650400Y-32526409D01*
X78557000Y-32995962D01*
X78557000Y-33044038D01*
X78650400Y-33513591D01*
X78916380Y-33911658D01*
X79314447Y-34177638D01*
X79784000Y-34271038D01*
X80253553Y-34177638D01*
X80444400Y-34050118D01*
X80444400Y-35712400D01*
X80490605Y-35944689D01*
X80622186Y-36141614D01*
X81358786Y-36878214D01*
X81555711Y-37009795D01*
X81788000Y-37056000D01*
X90807572Y-37056000D01*
X96598786Y-42847214D01*
X96795711Y-42978795D01*
X97028000Y-43025000D01*
X104847406Y-43025000D01*
X104940930Y-43118688D01*
X105244778Y-43244856D01*
X105573779Y-43245143D01*
X105877846Y-43119505D01*
X106045084Y-42952559D01*
X106210930Y-43118696D01*
X106514778Y-43244864D01*
X106843779Y-43245151D01*
X107147846Y-43119513D01*
X107380688Y-42887078D01*
X107506856Y-42583230D01*
X107507143Y-42254229D01*
X107381505Y-41950162D01*
X107287000Y-41855492D01*
X107287000Y-41529000D01*
X107240795Y-41296711D01*
X107109214Y-41099786D01*
X106855214Y-40845786D01*
X106658289Y-40714205D01*
X106426000Y-40668000D01*
X97406428Y-40668000D01*
X96588428Y-39850000D01*
X111127572Y-39850000D01*
X111153000Y-39875428D01*
X111153000Y-41855400D01*
X111059312Y-41948924D01*
X110933144Y-42252772D01*
X110932857Y-42581773D01*
X111058495Y-42885840D01*
X111290930Y-43118682D01*
X111594778Y-43244850D01*
X111923779Y-43245137D01*
X112227846Y-43119499D01*
X112460688Y-42887064D01*
X112586856Y-42583216D01*
X112587143Y-42254215D01*
X112461505Y-41950148D01*
X112367000Y-41855478D01*
X112367000Y-39624000D01*
X112320795Y-39391711D01*
X112189214Y-39194786D01*
X111808214Y-38813786D01*
X111611289Y-38682205D01*
X111379000Y-38636000D01*
X96644428Y-38636000D01*
X95445430Y-37437002D01*
X109927406Y-37437002D01*
X110020930Y-37530690D01*
X110324778Y-37656858D01*
X110653779Y-37657145D01*
X110957846Y-37531507D01*
X111190688Y-37299072D01*
X111316856Y-36995224D01*
X111317143Y-36666223D01*
X111191505Y-36362156D01*
X110959070Y-36129314D01*
X110655222Y-36003146D01*
X110326221Y-36002859D01*
X110022154Y-36128497D01*
X109927484Y-36223002D01*
X95501430Y-36223002D01*
X91679840Y-32401412D01*
X93258130Y-32401412D01*
X93757841Y-33610805D01*
X94682329Y-34536907D01*
X95890847Y-35038728D01*
X97199412Y-35039870D01*
X98408805Y-34540159D01*
X99334907Y-33615671D01*
X99836728Y-32407153D01*
X99837870Y-31098588D01*
X99338159Y-29889195D01*
X98413671Y-28963093D01*
X97205153Y-28461272D01*
X95896588Y-28460130D01*
X94687195Y-28959841D01*
X93761093Y-29884329D01*
X93259272Y-31092847D01*
X93258130Y-32401412D01*
X91679840Y-32401412D01*
X89329214Y-30050786D01*
X89132289Y-29919205D01*
X88900000Y-29873000D01*
X88639365Y-29873000D01*
X88639365Y-29680000D01*
X88609591Y-29521763D01*
X88516073Y-29376433D01*
X88373381Y-29278936D01*
X88204000Y-29244635D01*
X86604000Y-29244635D01*
X86445763Y-29274409D01*
X86300433Y-29367927D01*
X86202936Y-29510619D01*
X86168635Y-29680000D01*
X86168635Y-31280000D01*
X86198409Y-31438237D01*
X86291927Y-31583567D01*
X86434619Y-31681064D01*
X86604000Y-31715365D01*
X88204000Y-31715365D01*
X88362237Y-31685591D01*
X88507567Y-31592073D01*
X88605064Y-31449381D01*
X88639365Y-31280000D01*
X88639365Y-31087000D01*
X88648572Y-31087000D01*
X89974572Y-32413000D01*
X88461822Y-32413000D01*
X88271620Y-32128342D01*
X87873553Y-31862362D01*
X87404000Y-31768962D01*
X86934447Y-31862362D01*
X86536380Y-32128342D01*
X86270400Y-32526409D01*
X86177000Y-32995962D01*
X86177000Y-33044038D01*
X86270400Y-33513591D01*
X86536380Y-33911658D01*
X86934447Y-34177638D01*
X87404000Y-34271038D01*
X87873553Y-34177638D01*
X88271620Y-33911658D01*
X88461822Y-33627000D01*
X89918572Y-33627000D01*
X91117572Y-34826000D01*
X84988428Y-34826000D01*
X84230560Y-34068132D01*
X84394447Y-34177638D01*
X84864000Y-34271038D01*
X85333553Y-34177638D01*
X85731620Y-33911658D01*
X85997600Y-33513591D01*
X86091000Y-33044038D01*
X86091000Y-32995962D01*
X85997600Y-32526409D01*
X85731620Y-32128342D01*
X85333553Y-31862362D01*
X84864000Y-31768962D01*
X84394447Y-31862362D01*
X83996380Y-32128342D01*
X83730400Y-32526409D01*
X83637000Y-32995962D01*
X83637000Y-33044038D01*
X83730400Y-33513591D01*
X83839906Y-33677478D01*
X83493838Y-33331410D01*
X83551000Y-33044038D01*
X83551000Y-32995962D01*
X83457600Y-32526409D01*
X83191620Y-32128342D01*
X82793553Y-31862362D01*
X82324000Y-31768962D01*
X81854447Y-31862362D01*
X81690560Y-31971868D01*
X81996528Y-31665900D01*
X82324000Y-31731038D01*
X82793553Y-31637638D01*
X83191620Y-31371658D01*
X83457600Y-30973591D01*
X83551000Y-30504038D01*
X83551000Y-30455962D01*
X83637000Y-30455962D01*
X83637000Y-30504038D01*
X83730400Y-30973591D01*
X83996380Y-31371658D01*
X84394447Y-31637638D01*
X84864000Y-31731038D01*
X85333553Y-31637638D01*
X85731620Y-31371658D01*
X85997600Y-30973591D01*
X86091000Y-30504038D01*
X86091000Y-30455962D01*
X85997600Y-29986409D01*
X85731620Y-29588342D01*
X85333553Y-29322362D01*
X84864000Y-29228962D01*
X84394447Y-29322362D01*
X83996380Y-29588342D01*
X83730400Y-29986409D01*
X83637000Y-30455962D01*
X83551000Y-30455962D01*
X83457600Y-29986409D01*
X83191620Y-29588342D01*
X82793553Y-29322362D01*
X82324000Y-29228962D01*
X81854447Y-29322362D01*
X81456380Y-29588342D01*
X81190400Y-29986409D01*
X81097000Y-30455962D01*
X81097000Y-30504038D01*
X81154162Y-30791410D01*
X80808094Y-31137478D01*
X80917600Y-30973591D01*
X81011000Y-30504038D01*
X81011000Y-30455962D01*
X80917600Y-29986409D01*
X80651620Y-29588342D01*
X80253553Y-29322362D01*
X79784000Y-29228962D01*
X79314447Y-29322362D01*
X78916380Y-29588342D01*
X78650400Y-29986409D01*
X78557000Y-30455962D01*
X78471000Y-30455962D01*
X78377600Y-29986409D01*
X78111620Y-29588342D01*
X77713553Y-29322362D01*
X77244000Y-29228962D01*
X76774447Y-29322362D01*
X76376380Y-29588342D01*
X76110400Y-29986409D01*
X76017000Y-30455962D01*
X75931000Y-30455962D01*
X75837600Y-29986409D01*
X75571620Y-29588342D01*
X75173553Y-29322362D01*
X74704000Y-29228962D01*
X74234447Y-29322362D01*
X73836380Y-29588342D01*
X73570400Y-29986409D01*
X73477000Y-30455962D01*
X73391000Y-30455962D01*
X73297600Y-29986409D01*
X73031620Y-29588342D01*
X72633553Y-29322362D01*
X72164000Y-29228962D01*
X71694447Y-29322362D01*
X71296380Y-29588342D01*
X71030400Y-29986409D01*
X70937000Y-30455962D01*
X70851000Y-30455962D01*
X70757600Y-29986409D01*
X70491620Y-29588342D01*
X70093553Y-29322362D01*
X69624000Y-29228962D01*
X69154447Y-29322362D01*
X68756380Y-29588342D01*
X68490400Y-29986409D01*
X68397000Y-30455962D01*
X68311000Y-30455962D01*
X68217600Y-29986409D01*
X67951620Y-29588342D01*
X67553553Y-29322362D01*
X67084000Y-29228962D01*
X66614447Y-29322362D01*
X66216380Y-29588342D01*
X65950400Y-29986409D01*
X65857000Y-30455962D01*
X65771000Y-30455962D01*
X65677600Y-29986409D01*
X65411620Y-29588342D01*
X65013553Y-29322362D01*
X64544000Y-29228962D01*
X64074447Y-29322362D01*
X63676380Y-29588342D01*
X63410400Y-29986409D01*
X63317000Y-30455962D01*
X63231000Y-30455962D01*
X63137600Y-29986409D01*
X62871620Y-29588342D01*
X62473553Y-29322362D01*
X62004000Y-29228962D01*
X61534447Y-29322362D01*
X61136380Y-29588342D01*
X60870400Y-29986409D01*
X60777000Y-30455962D01*
X60691000Y-30455962D01*
X60597600Y-29986409D01*
X60331620Y-29588342D01*
X59933553Y-29322362D01*
X59464000Y-29228962D01*
X58994447Y-29322362D01*
X58596380Y-29588342D01*
X58330400Y-29986409D01*
X58237000Y-30455962D01*
X58151000Y-30455962D01*
X58057600Y-29986409D01*
X57791620Y-29588342D01*
X57393553Y-29322362D01*
X56924000Y-29228962D01*
X56454447Y-29322362D01*
X56056380Y-29588342D01*
X55790400Y-29986409D01*
X55697000Y-30455962D01*
X55611000Y-30455962D01*
X55517600Y-29986409D01*
X55251620Y-29588342D01*
X54853553Y-29322362D01*
X54384000Y-29228962D01*
X53914447Y-29322362D01*
X53516380Y-29588342D01*
X53250400Y-29986409D01*
X53157000Y-30455962D01*
X53071000Y-30455962D01*
X52977600Y-29986409D01*
X52711620Y-29588342D01*
X52313553Y-29322362D01*
X51844000Y-29228962D01*
X51374447Y-29322362D01*
X50976380Y-29588342D01*
X50710400Y-29986409D01*
X50617000Y-30455962D01*
X50531000Y-30455962D01*
X50437600Y-29986409D01*
X50171620Y-29588342D01*
X49773553Y-29322362D01*
X49304000Y-29228962D01*
X48834447Y-29322362D01*
X48436380Y-29588342D01*
X48170400Y-29986409D01*
X48077000Y-30455962D01*
X47991000Y-30455962D01*
X47897600Y-29986409D01*
X47631620Y-29588342D01*
X47233553Y-29322362D01*
X46764000Y-29228962D01*
X46294447Y-29322362D01*
X45896380Y-29588342D01*
X45630400Y-29986409D01*
X45537000Y-30455962D01*
X45451000Y-30455962D01*
X45357600Y-29986409D01*
X45091620Y-29588342D01*
X44693553Y-29322362D01*
X44224000Y-29228962D01*
X43754447Y-29322362D01*
X43356380Y-29588342D01*
X43090400Y-29986409D01*
X42997000Y-30455962D01*
X42911000Y-30455962D01*
X42817600Y-29986409D01*
X42551620Y-29588342D01*
X42153553Y-29322362D01*
X41684000Y-29228962D01*
X41214447Y-29322362D01*
X40816380Y-29588342D01*
X40550400Y-29986409D01*
X40457000Y-30455962D01*
X40371000Y-30455962D01*
X40277600Y-29986409D01*
X40011620Y-29588342D01*
X39613553Y-29322362D01*
X39144000Y-29228962D01*
X38674447Y-29322362D01*
X38276380Y-29588342D01*
X38010400Y-29986409D01*
X37917000Y-30455962D01*
X36566000Y-30455962D01*
X36566000Y-28454688D01*
X37954288Y-27066400D01*
X53375504Y-27066400D01*
X53555778Y-27141256D01*
X53884779Y-27141543D01*
X54066639Y-27066400D01*
X58430108Y-27066400D01*
X58610382Y-27141256D01*
X58939383Y-27141543D01*
X59121243Y-27066400D01*
X63510104Y-27066400D01*
X63690378Y-27141256D01*
X64019379Y-27141543D01*
X64201239Y-27066400D01*
X68590104Y-27066400D01*
X68770378Y-27141256D01*
X69099379Y-27141543D01*
X69281239Y-27066400D01*
X73720902Y-27066400D01*
X73901176Y-27141256D01*
X74230177Y-27141543D01*
X74412037Y-27066400D01*
X78750102Y-27066400D01*
X78930376Y-27141256D01*
X79259377Y-27141543D01*
X79441242Y-27066398D01*
X83779304Y-27066398D01*
X83959578Y-27141254D01*
X84288579Y-27141541D01*
X84470434Y-27066400D01*
X89519704Y-27066400D01*
X89699978Y-27141256D01*
X90028979Y-27141543D01*
X90333046Y-27015905D01*
X90565888Y-26783470D01*
X90692056Y-26479622D01*
X90692343Y-26150621D01*
X90566705Y-25846554D01*
X90334270Y-25613712D01*
X90125443Y-25527000D01*
X124459837Y-25527000D01*
X124333162Y-124333162D01*
X25502000Y-124459706D01*
X25502000Y-32401412D01*
X26710130Y-32401412D01*
X27209841Y-33610805D01*
X28134329Y-34536907D01*
X29342847Y-35038728D01*
X30651412Y-35039870D01*
X31860805Y-34540159D01*
X32786907Y-33615671D01*
X33288728Y-32407153D01*
X33289870Y-31098588D01*
X32790159Y-29889195D01*
X31865671Y-28963093D01*
X30657153Y-28461272D01*
X29348588Y-28460130D01*
X28139195Y-28959841D01*
X27213093Y-29884329D01*
X26711272Y-31092847D01*
X26710130Y-32401412D01*
X25502000Y-32401412D01*
X25502000Y-25527000D01*
X53461035Y-25527000D01*
X53375361Y-25562400D01*
X53375361Y-25562400D01*
G37*
X53375361Y-25562400D02*
X37642800Y-25562400D01*
X37355022Y-25619643D01*
X37154537Y-25753603D01*
X37111056Y-25782656D01*
X35282256Y-27611456D01*
X35119243Y-27855422D01*
X35062000Y-28143200D01*
X35062000Y-37881504D01*
X34987144Y-38061778D01*
X34986857Y-38390779D01*
X35062000Y-38572639D01*
X35062000Y-49860022D01*
X26213491Y-58708531D01*
X26012543Y-59009271D01*
X25941979Y-59364019D01*
X25941979Y-109441979D01*
X26012543Y-109796727D01*
X26213491Y-110097467D01*
X31043659Y-114927635D01*
X28830000Y-114927635D01*
X28671763Y-114957409D01*
X28526433Y-115050927D01*
X28428936Y-115193619D01*
X28394635Y-115363000D01*
X28394635Y-118063000D01*
X28424409Y-118221237D01*
X28517927Y-118366567D01*
X28660619Y-118464064D01*
X28830000Y-118498365D01*
X31530000Y-118498365D01*
X31688237Y-118468591D01*
X31833567Y-118375073D01*
X31931064Y-118232381D01*
X31965365Y-118063000D01*
X31965365Y-115849341D01*
X32395789Y-116279765D01*
X32363310Y-116357982D01*
X32362693Y-117064916D01*
X32632655Y-117718274D01*
X33132096Y-118218588D01*
X33784982Y-118489690D01*
X34491916Y-118490307D01*
X35145274Y-118220345D01*
X35645588Y-117720904D01*
X35916690Y-117068018D01*
X35916692Y-117064916D01*
X36322693Y-117064916D01*
X36592655Y-117718274D01*
X37092096Y-118218588D01*
X37744982Y-118489690D01*
X38451916Y-118490307D01*
X39105274Y-118220345D01*
X39207203Y-118118593D01*
X40834012Y-118118593D01*
X40975478Y-118421782D01*
X41711955Y-118706737D01*
X42501418Y-118688164D01*
X43144522Y-118421782D01*
X43285988Y-118118593D01*
X42060000Y-116892605D01*
X40834012Y-118118593D01*
X39207203Y-118118593D01*
X39605588Y-117720904D01*
X39876690Y-117068018D01*
X39877303Y-116364955D01*
X40066263Y-116364955D01*
X40084836Y-117154418D01*
X40351218Y-117797522D01*
X40654407Y-117938988D01*
X41880395Y-116713000D01*
X42239605Y-116713000D01*
X43465593Y-117938988D01*
X43768782Y-117797522D01*
X44053737Y-117061045D01*
X44035164Y-116271582D01*
X43768782Y-115628478D01*
X43465593Y-115487012D01*
X42239605Y-116713000D01*
X41880395Y-116713000D01*
X40654407Y-115487012D01*
X40351218Y-115628478D01*
X40066263Y-116364955D01*
X39877303Y-116364955D01*
X39877307Y-116361084D01*
X39607345Y-115707726D01*
X39207725Y-115307407D01*
X40834012Y-115307407D01*
X42060000Y-116533395D01*
X43230395Y-115363000D01*
X51404635Y-115363000D01*
X51404635Y-118063000D01*
X51434409Y-118221237D01*
X51527927Y-118366567D01*
X51670619Y-118464064D01*
X51840000Y-118498365D01*
X54540000Y-118498365D01*
X54698237Y-118468591D01*
X54843567Y-118375073D01*
X54941064Y-118232381D01*
X54975365Y-118063000D01*
X54975365Y-117064916D01*
X55372693Y-117064916D01*
X55642655Y-117718274D01*
X56142096Y-118218588D01*
X56794982Y-118489690D01*
X57501916Y-118490307D01*
X58155274Y-118220345D01*
X58655588Y-117720904D01*
X58926690Y-117068018D01*
X58926692Y-117064916D01*
X59332693Y-117064916D01*
X59602655Y-117718274D01*
X60102096Y-118218588D01*
X60754982Y-118489690D01*
X61461916Y-118490307D01*
X62115274Y-118220345D01*
X62217203Y-118118593D01*
X63844012Y-118118593D01*
X63985478Y-118421782D01*
X64721955Y-118706737D01*
X65511418Y-118688164D01*
X66154522Y-118421782D01*
X66295988Y-118118593D01*
X65070000Y-116892605D01*
X63844012Y-118118593D01*
X62217203Y-118118593D01*
X62615588Y-117720904D01*
X62886690Y-117068018D01*
X62887303Y-116364955D01*
X63076263Y-116364955D01*
X63094836Y-117154418D01*
X63361218Y-117797522D01*
X63664407Y-117938988D01*
X64890395Y-116713000D01*
X65249605Y-116713000D01*
X66475593Y-117938988D01*
X66778782Y-117797522D01*
X67063737Y-117061045D01*
X67045164Y-116271582D01*
X66778782Y-115628478D01*
X66475593Y-115487012D01*
X65249605Y-116713000D01*
X64890395Y-116713000D01*
X63664407Y-115487012D01*
X63361218Y-115628478D01*
X63076263Y-116364955D01*
X62887303Y-116364955D01*
X62887307Y-116361084D01*
X62617345Y-115707726D01*
X62217725Y-115307407D01*
X63844012Y-115307407D01*
X65070000Y-116533395D01*
X66295988Y-115307407D01*
X66154522Y-115004218D01*
X65418045Y-114719263D01*
X64628582Y-114737836D01*
X63985478Y-115004218D01*
X63844012Y-115307407D01*
X62217725Y-115307407D01*
X62117904Y-115207412D01*
X61465018Y-114936310D01*
X60758084Y-114935693D01*
X60104726Y-115205655D01*
X59604412Y-115705096D01*
X59333310Y-116357982D01*
X59332693Y-117064916D01*
X58926692Y-117064916D01*
X58927307Y-116361084D01*
X58657345Y-115707726D01*
X58157904Y-115207412D01*
X57505018Y-114936310D01*
X56798084Y-114935693D01*
X56144726Y-115205655D01*
X55644412Y-115705096D01*
X55373310Y-116357982D01*
X55372693Y-117064916D01*
X54975365Y-117064916D01*
X54975365Y-115363000D01*
X54945591Y-115204763D01*
X54852073Y-115059433D01*
X54709381Y-114961936D01*
X54540000Y-114927635D01*
X51840000Y-114927635D01*
X51681763Y-114957409D01*
X51536433Y-115050927D01*
X51438936Y-115193619D01*
X51404635Y-115363000D01*
X43230395Y-115363000D01*
X43285988Y-115307407D01*
X43144522Y-115004218D01*
X42408045Y-114719263D01*
X41618582Y-114737836D01*
X40975478Y-115004218D01*
X40834012Y-115307407D01*
X39207725Y-115307407D01*
X39107904Y-115207412D01*
X38455018Y-114936310D01*
X37748084Y-114935693D01*
X37094726Y-115205655D01*
X36594412Y-115705096D01*
X36323310Y-116357982D01*
X36322693Y-117064916D01*
X35916692Y-117064916D01*
X35917307Y-116361084D01*
X35647345Y-115707726D01*
X35147904Y-115207412D01*
X34495018Y-114936310D01*
X33788084Y-114935693D01*
X33707122Y-114969146D01*
X27795979Y-109058003D01*
X27795979Y-90652802D01*
X27803677Y-90664323D01*
X28803785Y-91664431D01*
X28732200Y-92024316D01*
X28732200Y-92074884D01*
X28830441Y-92568775D01*
X29110208Y-92987476D01*
X29528909Y-93267243D01*
X29792125Y-93319600D01*
X29528909Y-93371957D01*
X29110208Y-93651724D01*
X28830441Y-94070425D01*
X28732200Y-94564316D01*
X28732200Y-94614884D01*
X28830441Y-95108775D01*
X29110208Y-95527476D01*
X29528909Y-95807243D01*
X29792125Y-95859600D01*
X29528909Y-95911957D01*
X29110208Y-96191724D01*
X28830441Y-96610425D01*
X28732200Y-97104316D01*
X28732200Y-97154884D01*
X28830441Y-97648775D01*
X29110208Y-98067476D01*
X29528909Y-98347243D01*
X30022800Y-98445484D01*
X30516691Y-98347243D01*
X30740808Y-98197493D01*
X30740808Y-105899000D01*
X30676847Y-105962850D01*
X30565934Y-106229956D01*
X30565682Y-106519175D01*
X30676128Y-106786475D01*
X30880458Y-106991161D01*
X31147564Y-107102074D01*
X31436783Y-107102326D01*
X31704083Y-106991880D01*
X31908769Y-106787550D01*
X32019682Y-106520444D01*
X32019934Y-106231225D01*
X31909488Y-105963925D01*
X31844808Y-105899132D01*
X31844808Y-98435878D01*
X32203774Y-98584558D01*
X32435800Y-98463417D01*
X32435800Y-97256600D01*
X32415800Y-97256600D01*
X32415800Y-97002600D01*
X32435800Y-97002600D01*
X32435800Y-94716600D01*
X32415800Y-94716600D01*
X32415800Y-94462600D01*
X32435800Y-94462600D01*
X32435800Y-92176600D01*
X32415800Y-92176600D01*
X32415800Y-91922600D01*
X32435800Y-91922600D01*
X32435800Y-89636600D01*
X32415800Y-89636600D01*
X32415800Y-89382600D01*
X32435800Y-89382600D01*
X32435800Y-87096600D01*
X32415800Y-87096600D01*
X32415800Y-86842600D01*
X32435800Y-86842600D01*
X32435800Y-85635783D01*
X32203774Y-85514642D01*
X31844808Y-85663322D01*
X31844808Y-76475722D01*
X32180974Y-76614958D01*
X32413000Y-76493817D01*
X32413000Y-75287000D01*
X32393000Y-75287000D01*
X32393000Y-75033000D01*
X32413000Y-75033000D01*
X32413000Y-72747000D01*
X32393000Y-72747000D01*
X32393000Y-72493000D01*
X32413000Y-72493000D01*
X32413000Y-70207000D01*
X32393000Y-70207000D01*
X32393000Y-69953000D01*
X32413000Y-69953000D01*
X32413000Y-67667000D01*
X32393000Y-67667000D01*
X32393000Y-67413000D01*
X32413000Y-67413000D01*
X32413000Y-65127000D01*
X32393000Y-65127000D01*
X32393000Y-64873000D01*
X32413000Y-64873000D01*
X32413000Y-63666183D01*
X32180974Y-63545042D01*
X31765053Y-63717312D01*
X31333179Y-64111510D01*
X31298965Y-64184511D01*
X31298965Y-64136400D01*
X31269191Y-63978163D01*
X31175673Y-63832833D01*
X31032981Y-63735336D01*
X30863600Y-63701035D01*
X29136400Y-63701035D01*
X28978163Y-63730809D01*
X28832833Y-63824327D01*
X28735336Y-63967019D01*
X28701035Y-64136400D01*
X28701035Y-65863600D01*
X28730809Y-66021837D01*
X28824327Y-66167167D01*
X28967019Y-66264664D01*
X29136400Y-66298965D01*
X29623709Y-66298965D01*
X29506109Y-66322357D01*
X29087408Y-66602124D01*
X28807641Y-67020825D01*
X28709400Y-67514716D01*
X28709400Y-67565284D01*
X28807641Y-68059175D01*
X29087408Y-68477876D01*
X29506109Y-68757643D01*
X29769325Y-68810000D01*
X29506109Y-68862357D01*
X29087408Y-69142124D01*
X28829574Y-69528000D01*
X28778686Y-69528000D01*
X28567444Y-69570018D01*
X28388363Y-69689677D01*
X27803677Y-70274363D01*
X27795979Y-70285884D01*
X27795979Y-59747995D01*
X36469488Y-51074486D01*
X36670436Y-50773745D01*
X36741000Y-50418998D01*
X36670436Y-50064251D01*
X36566000Y-49907951D01*
X36566000Y-39004400D01*
X53985104Y-39004400D01*
X54165378Y-39079256D01*
X54494379Y-39079543D01*
X54676239Y-39004400D01*
X59090504Y-39004400D01*
X59270778Y-39079256D01*
X59599779Y-39079543D01*
X59781639Y-39004400D01*
X64195904Y-39004400D01*
X64376178Y-39079256D01*
X64705179Y-39079543D01*
X64887039Y-39004400D01*
X69275904Y-39004400D01*
X69456178Y-39079256D01*
X69785179Y-39079543D01*
X69967039Y-39004400D01*
X72101613Y-39004400D01*
X72071144Y-39077778D01*
X72071057Y-39178054D01*
X71845221Y-39177857D01*
X71541154Y-39303495D01*
X71308312Y-39535930D01*
X71182144Y-39839778D01*
X71181857Y-40168779D01*
X71307495Y-40472846D01*
X71539930Y-40705688D01*
X71843778Y-40831856D01*
X71977545Y-40831973D01*
X73992786Y-42847214D01*
X74189711Y-42978795D01*
X74422000Y-43025000D01*
X82989572Y-43025000D01*
X82374786Y-43639786D01*
X82243205Y-43836711D01*
X82197000Y-44069000D01*
X82197000Y-74259913D01*
X82060244Y-74203126D01*
X81771025Y-74202874D01*
X81503725Y-74313320D01*
X81299039Y-74517650D01*
X81188126Y-74784756D01*
X81187874Y-75073975D01*
X81298320Y-75341275D01*
X81363000Y-75406068D01*
X81363000Y-77114354D01*
X79111677Y-79365677D01*
X78992018Y-79544758D01*
X78992018Y-79544759D01*
X78950000Y-79756000D01*
X78950000Y-91979800D01*
X78886039Y-92043650D01*
X78775126Y-92310756D01*
X78774874Y-92599975D01*
X78885320Y-92867275D01*
X79089650Y-93071961D01*
X79356756Y-93182874D01*
X79645975Y-93183126D01*
X79913275Y-93072680D01*
X80117961Y-92868350D01*
X80228874Y-92601244D01*
X80229126Y-92312025D01*
X80118680Y-92044725D01*
X80054000Y-91979932D01*
X80054000Y-79984646D01*
X82197000Y-77841646D01*
X82197000Y-85346572D01*
X80994600Y-86548972D01*
X80862221Y-86548857D01*
X80558154Y-86674495D01*
X80325312Y-86906930D01*
X80199144Y-87210778D01*
X80198857Y-87539779D01*
X80324495Y-87843846D01*
X80556930Y-88076688D01*
X80860778Y-88202856D01*
X81189779Y-88203143D01*
X81493846Y-88077505D01*
X81726688Y-87845070D01*
X81852856Y-87541222D01*
X81852973Y-87407455D01*
X82851988Y-86408440D01*
X82851988Y-87320356D01*
X82794677Y-87377667D01*
X82675018Y-87556748D01*
X82639505Y-87735289D01*
X82633000Y-87767990D01*
X82633000Y-101123800D01*
X82569039Y-101187650D01*
X82467000Y-101433385D01*
X82467000Y-98806000D01*
X82424982Y-98594758D01*
X82305323Y-98415677D01*
X75228000Y-91338354D01*
X75228000Y-90333779D01*
X75626857Y-90333779D01*
X75752495Y-90637846D01*
X75984930Y-90870688D01*
X76288778Y-90996856D01*
X76617779Y-90997143D01*
X76921846Y-90871505D01*
X77154688Y-90639070D01*
X77280856Y-90335222D01*
X77281143Y-90006221D01*
X77155505Y-89702154D01*
X76923070Y-89469312D01*
X76619222Y-89343144D01*
X76290221Y-89342857D01*
X75986154Y-89468495D01*
X75753312Y-89700930D01*
X75627144Y-90004778D01*
X75626857Y-90333779D01*
X75228000Y-90333779D01*
X75228000Y-76828528D01*
X75399778Y-76899856D01*
X75728779Y-76900143D01*
X76032846Y-76774505D01*
X76265688Y-76542070D01*
X76305965Y-76445072D01*
X76422650Y-76561961D01*
X76689756Y-76672874D01*
X76978975Y-76673126D01*
X77246275Y-76562680D01*
X77363972Y-76445188D01*
X77403495Y-76540842D01*
X77635930Y-76773684D01*
X77939778Y-76899852D01*
X78268779Y-76900139D01*
X78572846Y-76774501D01*
X78805688Y-76542066D01*
X78845964Y-76445071D01*
X78962650Y-76561961D01*
X79229756Y-76672874D01*
X79518975Y-76673126D01*
X79786275Y-76562680D01*
X79990961Y-76358350D01*
X80101874Y-76091244D01*
X80102126Y-75802025D01*
X79991680Y-75534725D01*
X79927000Y-75469932D01*
X79927000Y-73628200D01*
X79990961Y-73564350D01*
X80101874Y-73297244D01*
X80102126Y-73008025D01*
X79991680Y-72740725D01*
X79787350Y-72536039D01*
X79520244Y-72425126D01*
X79231025Y-72424874D01*
X78963725Y-72535320D01*
X78759039Y-72739650D01*
X78712000Y-72852932D01*
X78712000Y-69993975D01*
X79917874Y-69993975D01*
X80028320Y-70261275D01*
X80093000Y-70326068D01*
X80093000Y-71405800D01*
X80029039Y-71469650D01*
X79918126Y-71736756D01*
X79917874Y-72025975D01*
X80028320Y-72293275D01*
X80232650Y-72497961D01*
X80499756Y-72608874D01*
X80788975Y-72609126D01*
X81056275Y-72498680D01*
X81260961Y-72294350D01*
X81371874Y-72027244D01*
X81372126Y-71738025D01*
X81261680Y-71470725D01*
X81197000Y-71405932D01*
X81197000Y-70326200D01*
X81260961Y-70262350D01*
X81371874Y-69995244D01*
X81372126Y-69706025D01*
X81261680Y-69438725D01*
X81057350Y-69234039D01*
X80790244Y-69123126D01*
X80501025Y-69122874D01*
X80233725Y-69233320D01*
X80029039Y-69437650D01*
X79918126Y-69704756D01*
X79917874Y-69993975D01*
X78712000Y-69993975D01*
X78712000Y-61561175D01*
X79638474Y-61561175D01*
X79748920Y-61828475D01*
X79953250Y-62033161D01*
X80220356Y-62144074D01*
X80509575Y-62144326D01*
X80776875Y-62033880D01*
X80981561Y-61829550D01*
X81092474Y-61562444D01*
X81092726Y-61273225D01*
X80982280Y-61005925D01*
X80917600Y-60941132D01*
X80917600Y-56381554D01*
X81006961Y-56292348D01*
X81117874Y-56025242D01*
X81118126Y-55736023D01*
X81007680Y-55468723D01*
X80803350Y-55264037D01*
X80536244Y-55153124D01*
X80247025Y-55152872D01*
X79979725Y-55263318D01*
X79775039Y-55467648D01*
X79664126Y-55734754D01*
X79663874Y-56023973D01*
X79774320Y-56291273D01*
X79813600Y-56330621D01*
X79813600Y-60941000D01*
X79749639Y-61004850D01*
X79638726Y-61271956D01*
X79638474Y-61561175D01*
X78712000Y-61561175D01*
X78712000Y-48187372D01*
X78932688Y-47967070D01*
X79058856Y-47663222D01*
X79059143Y-47334221D01*
X78933505Y-47030154D01*
X78701070Y-46797312D01*
X78397222Y-46671144D01*
X78068221Y-46670857D01*
X77764154Y-46796495D01*
X77695478Y-46865050D01*
X72819214Y-41988786D01*
X72622289Y-41857205D01*
X72390000Y-41811000D01*
X70412594Y-41811000D01*
X70319070Y-41717312D01*
X70015222Y-41591144D01*
X69686221Y-41590857D01*
X69382154Y-41716495D01*
X69149312Y-41948930D01*
X69023144Y-42252778D01*
X69022857Y-42581779D01*
X69148495Y-42885846D01*
X69380930Y-43118688D01*
X69684778Y-43244856D01*
X70013779Y-43245143D01*
X70317846Y-43119505D01*
X70412516Y-43025000D01*
X72138572Y-43025000D01*
X76717990Y-47604418D01*
X76717990Y-57058119D01*
X76437025Y-57057874D01*
X76343122Y-57096674D01*
X76418874Y-56914244D01*
X76419126Y-56625025D01*
X76308680Y-56357725D01*
X76104350Y-56153039D01*
X75837244Y-56042126D01*
X75548025Y-56041874D01*
X75283000Y-56151380D01*
X75283000Y-49784000D01*
X75236795Y-49551711D01*
X75105214Y-49354786D01*
X68137028Y-42386600D01*
X68137143Y-42254221D01*
X68011505Y-41950154D01*
X67779070Y-41717312D01*
X67475222Y-41591144D01*
X67146221Y-41590857D01*
X66842154Y-41716495D01*
X66609312Y-41948930D01*
X66483144Y-42252778D01*
X66482857Y-42581779D01*
X66608495Y-42885846D01*
X66840930Y-43118688D01*
X67144778Y-43244856D01*
X67278545Y-43244973D01*
X74069000Y-50035428D01*
X74069000Y-69977000D01*
X74102856Y-70147208D01*
X73752049Y-69796401D01*
X73752128Y-69706025D01*
X73641682Y-69438725D01*
X73437352Y-69234039D01*
X73170246Y-69123126D01*
X72881027Y-69122874D01*
X72613727Y-69233320D01*
X72409041Y-69437650D01*
X72298128Y-69704756D01*
X72297876Y-69993975D01*
X72408322Y-70261275D01*
X72612652Y-70465961D01*
X72879758Y-70576874D01*
X72971310Y-70576954D01*
X74124000Y-71729644D01*
X74124000Y-74230015D01*
X74059244Y-74203126D01*
X73967692Y-74203046D01*
X70344010Y-70579364D01*
X70344010Y-53917014D01*
X70301992Y-53705772D01*
X70182333Y-53526691D01*
X68545047Y-51889405D01*
X68545126Y-51799029D01*
X68434680Y-51531729D01*
X68230350Y-51327043D01*
X67963244Y-51216130D01*
X67674025Y-51215878D01*
X67409000Y-51325384D01*
X67409000Y-48641000D01*
X67362795Y-48408711D01*
X67231214Y-48211786D01*
X65597028Y-46577600D01*
X65597143Y-46445221D01*
X65522586Y-46264779D01*
X67752857Y-46264779D01*
X67878495Y-46568846D01*
X68110930Y-46801688D01*
X68414778Y-46927856D01*
X68548545Y-46927973D01*
X71402000Y-49781428D01*
X71402000Y-63572406D01*
X71308312Y-63665930D01*
X71182144Y-63969778D01*
X71181857Y-64298779D01*
X71307495Y-64602846D01*
X71539930Y-64835688D01*
X71843778Y-64961856D01*
X72172779Y-64962143D01*
X72476846Y-64836505D01*
X72709688Y-64604070D01*
X72835856Y-64300222D01*
X72836143Y-63971221D01*
X72710505Y-63667154D01*
X72616000Y-63572484D01*
X72616000Y-49530000D01*
X72569795Y-49297711D01*
X72438214Y-49100786D01*
X69407028Y-46069600D01*
X69407143Y-45937221D01*
X69281505Y-45633154D01*
X69049070Y-45400312D01*
X68745222Y-45274144D01*
X68416221Y-45273857D01*
X68112154Y-45399495D01*
X67879312Y-45631930D01*
X67753144Y-45935778D01*
X67752857Y-46264779D01*
X65522586Y-46264779D01*
X65471505Y-46141154D01*
X65239070Y-45908312D01*
X64935222Y-45782144D01*
X64606221Y-45781857D01*
X64313007Y-45903010D01*
X64201505Y-45633154D01*
X63969070Y-45400312D01*
X63665222Y-45274144D01*
X63336221Y-45273857D01*
X63032154Y-45399495D01*
X62937484Y-45494000D01*
X59944000Y-45494000D01*
X59711711Y-45540205D01*
X59514786Y-45671786D01*
X57355786Y-47830786D01*
X57224205Y-48027711D01*
X57178000Y-48260000D01*
X57178000Y-55176572D01*
X52677000Y-50675572D01*
X52677000Y-49784002D01*
X52630795Y-49551713D01*
X52499214Y-49354788D01*
X49722026Y-46577600D01*
X49722141Y-46445221D01*
X49596503Y-46141154D01*
X49364068Y-45908312D01*
X49060220Y-45782144D01*
X48731219Y-45781857D01*
X48438007Y-45903010D01*
X48326505Y-45633154D01*
X48094070Y-45400312D01*
X47790222Y-45274144D01*
X47461221Y-45273857D01*
X47157154Y-45399495D01*
X46924312Y-45631930D01*
X46798144Y-45935778D01*
X46797857Y-46264779D01*
X46923495Y-46568846D01*
X47028710Y-46674245D01*
X47064205Y-46852693D01*
X47195786Y-47049618D01*
X50701000Y-50554831D01*
X50701000Y-61921406D01*
X50607312Y-62014930D01*
X50481144Y-62318778D01*
X50480857Y-62647779D01*
X50606495Y-62951846D01*
X50838930Y-63184688D01*
X51142778Y-63310856D01*
X51471779Y-63311143D01*
X51775846Y-63185505D01*
X52008688Y-62953070D01*
X52134856Y-62649222D01*
X52135143Y-62320221D01*
X52009505Y-62016154D01*
X51915000Y-61921484D01*
X51915000Y-51630428D01*
X57051000Y-56766428D01*
X57051000Y-60905406D01*
X56957312Y-60998930D01*
X56841770Y-61277189D01*
X56750676Y-61056725D01*
X56685996Y-60991932D01*
X56685996Y-57626204D01*
X56749961Y-57562350D01*
X56860874Y-57295244D01*
X56861126Y-57006025D01*
X56750680Y-56738725D01*
X56546350Y-56534039D01*
X56279244Y-56423126D01*
X55990025Y-56422874D01*
X55722725Y-56533320D01*
X55518039Y-56737650D01*
X55407126Y-57004756D01*
X55406874Y-57293975D01*
X55517320Y-57561275D01*
X55581996Y-57626064D01*
X55581996Y-60991800D01*
X55518035Y-61055650D01*
X55407122Y-61322756D01*
X55406870Y-61611975D01*
X55517316Y-61879275D01*
X55721646Y-62083961D01*
X55988752Y-62194874D01*
X56277971Y-62195126D01*
X56545271Y-62084680D01*
X56749957Y-61880350D01*
X56841988Y-61658717D01*
X56956495Y-61935846D01*
X57188930Y-62168688D01*
X57492778Y-62294856D01*
X57821779Y-62295143D01*
X58125846Y-62169505D01*
X58358688Y-61937070D01*
X58484856Y-61633222D01*
X58485143Y-61304221D01*
X58359505Y-61000154D01*
X58265000Y-60905484D01*
X58265000Y-56710428D01*
X58956000Y-57401428D01*
X58956000Y-74050354D01*
X54702047Y-69796401D01*
X54702126Y-69706025D01*
X54591680Y-69438725D01*
X54387350Y-69234039D01*
X54120244Y-69123126D01*
X53831025Y-69122874D01*
X53563725Y-69233320D01*
X53359039Y-69437650D01*
X53248126Y-69704756D01*
X53247874Y-69993975D01*
X53358320Y-70261275D01*
X53423932Y-70327001D01*
X52431027Y-70327001D01*
X47869002Y-65764976D01*
X47869002Y-48278002D01*
X47822797Y-48045713D01*
X47691216Y-47848788D01*
X45912028Y-46069600D01*
X45912143Y-45937221D01*
X45786505Y-45633154D01*
X45554070Y-45400312D01*
X45250222Y-45274144D01*
X44921221Y-45273857D01*
X44617154Y-45399495D01*
X44384312Y-45631930D01*
X44271684Y-45903169D01*
X43980222Y-45782144D01*
X43651221Y-45781857D01*
X43358006Y-45903011D01*
X43246503Y-45633154D01*
X43014068Y-45400312D01*
X42710220Y-45274144D01*
X42381219Y-45273857D01*
X42077152Y-45399495D01*
X41844310Y-45631930D01*
X41731683Y-45903168D01*
X41440222Y-45782144D01*
X41111221Y-45781857D01*
X40807154Y-45907495D01*
X40574312Y-46139930D01*
X40448144Y-46443778D01*
X40448027Y-46577545D01*
X38686786Y-48338786D01*
X38555205Y-48535711D01*
X38509000Y-48768000D01*
X38509000Y-55262648D01*
X38245244Y-55153126D01*
X37956025Y-55152874D01*
X37688725Y-55263320D01*
X37484039Y-55467650D01*
X37373126Y-55734756D01*
X37372874Y-56023975D01*
X37483320Y-56291275D01*
X37687650Y-56495961D01*
X37847999Y-56562544D01*
X37847999Y-92664116D01*
X37737244Y-92618126D01*
X37448025Y-92617874D01*
X37249000Y-92700109D01*
X37249000Y-60325000D01*
X37178436Y-59970252D01*
X36977488Y-59669512D01*
X36676748Y-59468564D01*
X36322000Y-59398000D01*
X35967252Y-59468564D01*
X35666512Y-59669512D01*
X35465564Y-59970252D01*
X35395000Y-60325000D01*
X35395000Y-88456507D01*
X35324244Y-88427126D01*
X35035025Y-88426874D01*
X34767725Y-88537320D01*
X34563039Y-88741650D01*
X34452126Y-89008756D01*
X34451874Y-89297975D01*
X34562320Y-89565275D01*
X34627000Y-89630068D01*
X34627000Y-90769721D01*
X34613044Y-90763926D01*
X34359400Y-90763705D01*
X34359400Y-83693046D01*
X34553323Y-83499123D01*
X34672981Y-83320042D01*
X34672982Y-83320041D01*
X34715000Y-83108800D01*
X34715000Y-59277200D01*
X34778961Y-59213350D01*
X34889874Y-58946244D01*
X34890126Y-58657025D01*
X34779680Y-58389725D01*
X34575350Y-58185039D01*
X34308244Y-58074126D01*
X34019025Y-58073874D01*
X33751725Y-58184320D01*
X33547039Y-58388650D01*
X33436126Y-58655756D01*
X33435874Y-58944975D01*
X33546320Y-59212275D01*
X33611000Y-59277068D01*
X33611000Y-63987538D01*
X33314947Y-63717312D01*
X32899026Y-63545042D01*
X32667000Y-63666183D01*
X32667000Y-64873000D01*
X32687000Y-64873000D01*
X32687000Y-65127000D01*
X32667000Y-65127000D01*
X32667000Y-67413000D01*
X32687000Y-67413000D01*
X32687000Y-67667000D01*
X32667000Y-67667000D01*
X32667000Y-69953000D01*
X32687000Y-69953000D01*
X32687000Y-70207000D01*
X32667000Y-70207000D01*
X32667000Y-72493000D01*
X32687000Y-72493000D01*
X32687000Y-72747000D01*
X32667000Y-72747000D01*
X32667000Y-75033000D01*
X32687000Y-75033000D01*
X32687000Y-75287000D01*
X32667000Y-75287000D01*
X32667000Y-76493817D01*
X32899026Y-76614958D01*
X33314947Y-76442688D01*
X33611000Y-76172462D01*
X33611000Y-82880154D01*
X33417077Y-83074077D01*
X33297418Y-83253158D01*
X33297418Y-83253159D01*
X33255400Y-83464400D01*
X33255400Y-85652805D01*
X32921826Y-85514642D01*
X32689800Y-85635783D01*
X32689800Y-86842600D01*
X32709800Y-86842600D01*
X32709800Y-87096600D01*
X32689800Y-87096600D01*
X32689800Y-89382600D01*
X32709800Y-89382600D01*
X32709800Y-89636600D01*
X32689800Y-89636600D01*
X32689800Y-91922600D01*
X32709800Y-91922600D01*
X32709800Y-92176600D01*
X32689800Y-92176600D01*
X32689800Y-94462600D01*
X32709800Y-94462600D01*
X32709800Y-94716600D01*
X32689800Y-94716600D01*
X32689800Y-97002600D01*
X32709800Y-97002600D01*
X32709800Y-97256600D01*
X32689800Y-97256600D01*
X32689800Y-98463417D01*
X32921826Y-98584558D01*
X33337747Y-98412288D01*
X33769621Y-98018090D01*
X34017768Y-97488627D01*
X34007576Y-97469001D01*
X34055450Y-97516959D01*
X34322556Y-97627872D01*
X34611775Y-97628124D01*
X34627000Y-97621833D01*
X34627000Y-100742800D01*
X34563039Y-100806650D01*
X34452126Y-101073756D01*
X34451874Y-101362975D01*
X34562320Y-101630275D01*
X34766650Y-101834961D01*
X35033756Y-101945874D01*
X35322975Y-101946126D01*
X35395000Y-101916366D01*
X35395000Y-111125000D01*
X35465564Y-111479748D01*
X35666512Y-111780488D01*
X35967252Y-111981436D01*
X36322000Y-112052000D01*
X36676748Y-111981436D01*
X36977488Y-111780488D01*
X37178436Y-111479748D01*
X37249000Y-111125000D01*
X37249000Y-102668779D01*
X39182857Y-102668779D01*
X39258000Y-102850639D01*
X39258000Y-110647504D01*
X39183144Y-110827778D01*
X39182857Y-111156779D01*
X39308495Y-111460846D01*
X39540930Y-111693688D01*
X39844778Y-111819856D01*
X40173779Y-111820143D01*
X40477846Y-111694505D01*
X40710688Y-111462070D01*
X40836856Y-111158222D01*
X40837143Y-110829221D01*
X40762000Y-110647361D01*
X40762000Y-102850496D01*
X40836856Y-102670222D01*
X40837143Y-102341221D01*
X40711505Y-102037154D01*
X40479070Y-101804312D01*
X40175222Y-101678144D01*
X39846221Y-101677857D01*
X39542154Y-101803495D01*
X39309312Y-102035930D01*
X39183144Y-102339778D01*
X39182857Y-102668779D01*
X37249000Y-102668779D01*
X37249000Y-100212758D01*
X37446756Y-100294874D01*
X37735975Y-100295126D01*
X38003275Y-100184680D01*
X38207961Y-99980350D01*
X38318874Y-99713244D01*
X38319126Y-99424025D01*
X38208680Y-99156725D01*
X38144000Y-99091932D01*
X38144000Y-98106646D01*
X42408677Y-102371323D01*
X42587758Y-102490982D01*
X42799000Y-102533000D01*
X44608800Y-102533000D01*
X44672650Y-102596961D01*
X44939756Y-102707874D01*
X45228975Y-102708126D01*
X45496275Y-102597680D01*
X45613970Y-102480189D01*
X45653495Y-102575846D01*
X45885930Y-102808688D01*
X46189778Y-102934856D01*
X46518779Y-102935143D01*
X46822846Y-102809505D01*
X47055688Y-102577070D01*
X47095965Y-102480072D01*
X47212650Y-102596961D01*
X47479756Y-102707874D01*
X47768975Y-102708126D01*
X48036275Y-102597680D01*
X48153970Y-102480189D01*
X48193495Y-102575846D01*
X48425930Y-102808688D01*
X48729778Y-102934856D01*
X49058779Y-102935143D01*
X49362846Y-102809505D01*
X49541908Y-102630756D01*
X49548320Y-102646275D01*
X49752650Y-102850961D01*
X50019756Y-102961874D01*
X50308975Y-102962126D01*
X50576275Y-102851680D01*
X50780961Y-102647350D01*
X50891874Y-102380244D01*
X50892126Y-102091025D01*
X50781680Y-101823725D01*
X50717000Y-101758932D01*
X50717000Y-99536200D01*
X50780961Y-99472350D01*
X50891874Y-99205244D01*
X50892126Y-98916025D01*
X50781680Y-98648725D01*
X50577350Y-98444039D01*
X50310244Y-98333126D01*
X50021025Y-98332874D01*
X49753725Y-98443320D01*
X49549039Y-98647650D01*
X49438126Y-98914756D01*
X49437874Y-99203975D01*
X49548320Y-99471275D01*
X49613000Y-99536068D01*
X49613000Y-101680075D01*
X49596505Y-101640154D01*
X49364070Y-101407312D01*
X49060222Y-101281144D01*
X48926455Y-101281027D01*
X46276214Y-98630786D01*
X46079289Y-98499205D01*
X45847000Y-98453000D01*
X43177428Y-98453000D01*
X41755000Y-97030572D01*
X41755000Y-89349428D01*
X41971972Y-89566400D01*
X41971857Y-89698779D01*
X42097495Y-90002846D01*
X42329930Y-90235688D01*
X42633778Y-90361856D01*
X42962779Y-90362143D01*
X43263000Y-90238094D01*
X43263000Y-95535800D01*
X43199039Y-95599650D01*
X43088126Y-95866756D01*
X43087874Y-96155975D01*
X43198320Y-96423275D01*
X43402650Y-96627961D01*
X43669756Y-96738874D01*
X43958975Y-96739126D01*
X44226275Y-96628680D01*
X44430961Y-96424350D01*
X44541874Y-96157244D01*
X44541985Y-96028975D01*
X50707874Y-96028975D01*
X50818320Y-96296275D01*
X50883000Y-96361068D01*
X50883000Y-97440800D01*
X50819039Y-97504650D01*
X50708126Y-97771756D01*
X50707874Y-98060975D01*
X50818320Y-98328275D01*
X51022650Y-98532961D01*
X51289756Y-98643874D01*
X51578975Y-98644126D01*
X51846275Y-98533680D01*
X52050961Y-98329350D01*
X52161874Y-98062244D01*
X52162126Y-97773025D01*
X52051680Y-97505725D01*
X51987000Y-97440932D01*
X51987000Y-96361200D01*
X52050961Y-96297350D01*
X52161874Y-96030244D01*
X52162126Y-95741025D01*
X52051680Y-95473725D01*
X51847350Y-95269039D01*
X51580244Y-95158126D01*
X51291025Y-95157874D01*
X51023725Y-95268320D01*
X50819039Y-95472650D01*
X50708126Y-95739756D01*
X50707874Y-96028975D01*
X44541985Y-96028975D01*
X44542126Y-95868025D01*
X44431680Y-95600725D01*
X44367000Y-95535932D01*
X44367000Y-84931200D01*
X44430961Y-84867350D01*
X44541874Y-84600244D01*
X44542126Y-84311025D01*
X44431680Y-84043725D01*
X44227350Y-83839039D01*
X43960244Y-83728126D01*
X43671025Y-83727874D01*
X43403725Y-83838320D01*
X43199039Y-84042650D01*
X43088126Y-84309756D01*
X43087874Y-84598975D01*
X43198320Y-84866275D01*
X43263000Y-84931068D01*
X43263000Y-88832207D01*
X42964222Y-88708144D01*
X42830455Y-88708027D01*
X42371001Y-88248573D01*
X42371001Y-79854647D01*
X45447400Y-82931046D01*
X45447400Y-86645800D01*
X45383439Y-86709650D01*
X45272526Y-86976756D01*
X45272274Y-87265975D01*
X45382720Y-87533275D01*
X45587050Y-87737961D01*
X45854156Y-87848874D01*
X46143375Y-87849126D01*
X46410675Y-87738680D01*
X46615361Y-87534350D01*
X46726274Y-87267244D01*
X46726526Y-86978025D01*
X46616080Y-86710725D01*
X46551400Y-86645932D01*
X46551400Y-82702400D01*
X46509382Y-82491159D01*
X46389723Y-82312077D01*
X43097000Y-79019354D01*
X43097000Y-78753428D01*
X47145000Y-82801428D01*
X47145000Y-89480406D01*
X47051312Y-89573930D01*
X46925144Y-89877778D01*
X46924857Y-90206779D01*
X47050495Y-90510846D01*
X47282930Y-90743688D01*
X47586778Y-90869856D01*
X47915779Y-90870143D01*
X48219846Y-90744505D01*
X48452688Y-90512070D01*
X48578856Y-90208222D01*
X48579143Y-89879221D01*
X48453505Y-89575154D01*
X48359000Y-89480484D01*
X48359000Y-82550000D01*
X48312795Y-82317711D01*
X48181214Y-82120786D01*
X43741999Y-77681571D01*
X43741999Y-77542645D01*
X50552800Y-84353446D01*
X50552800Y-86696600D01*
X50488839Y-86760450D01*
X50377926Y-87027556D01*
X50377674Y-87316775D01*
X50488120Y-87584075D01*
X50692450Y-87788761D01*
X50959556Y-87899674D01*
X51248775Y-87899926D01*
X51516075Y-87789480D01*
X51720761Y-87585150D01*
X51831674Y-87318044D01*
X51831926Y-87028825D01*
X51721480Y-86761525D01*
X51656800Y-86696732D01*
X51656800Y-84124800D01*
X51614782Y-83913559D01*
X51614782Y-83913558D01*
X51495123Y-83734477D01*
X44367000Y-76606354D01*
X44367000Y-57626200D01*
X44430961Y-57562350D01*
X44533000Y-57316615D01*
X44533000Y-73025000D01*
X44575018Y-73236242D01*
X44694677Y-73415323D01*
X47869677Y-76590323D01*
X48048758Y-76709982D01*
X48260000Y-76752000D01*
X57308800Y-76752000D01*
X57372650Y-76815961D01*
X57639756Y-76926874D01*
X57928975Y-76927126D01*
X58115392Y-76850100D01*
X58115392Y-97910392D01*
X58157410Y-98121634D01*
X58277069Y-98300715D01*
X62137953Y-102161599D01*
X62137874Y-102251975D01*
X62248320Y-102519275D01*
X62452650Y-102723961D01*
X62719756Y-102834874D01*
X63008975Y-102835126D01*
X63276275Y-102724680D01*
X63480961Y-102520350D01*
X63499909Y-102474718D01*
X63518320Y-102519275D01*
X63722650Y-102723961D01*
X63989756Y-102834874D01*
X64278975Y-102835126D01*
X64546275Y-102724680D01*
X64701124Y-102570101D01*
X64703495Y-102575840D01*
X64935930Y-102808682D01*
X65239778Y-102934850D01*
X65568779Y-102935137D01*
X65872846Y-102809499D01*
X66105688Y-102577064D01*
X66108720Y-102569763D01*
X66262650Y-102723961D01*
X66529756Y-102834874D01*
X66818975Y-102835126D01*
X67086275Y-102724680D01*
X67241122Y-102570102D01*
X67243495Y-102575846D01*
X67475930Y-102808688D01*
X67779778Y-102934856D01*
X68108779Y-102935143D01*
X68412846Y-102809505D01*
X68591908Y-102630756D01*
X68598320Y-102646275D01*
X68802650Y-102850961D01*
X69069756Y-102961874D01*
X69358975Y-102962126D01*
X69626275Y-102851680D01*
X69830961Y-102647350D01*
X69941874Y-102380244D01*
X69942126Y-102091025D01*
X69831680Y-101823725D01*
X69767000Y-101758932D01*
X69767000Y-99536200D01*
X69830961Y-99472350D01*
X69941874Y-99205244D01*
X69942126Y-98916025D01*
X69831680Y-98648725D01*
X69627350Y-98444039D01*
X69360244Y-98333126D01*
X69071025Y-98332874D01*
X68803725Y-98443320D01*
X68599039Y-98647650D01*
X68488126Y-98914756D01*
X68487874Y-99203975D01*
X68598320Y-99471275D01*
X68663000Y-99536068D01*
X68663000Y-101680075D01*
X68646505Y-101640154D01*
X68414070Y-101407312D01*
X68110222Y-101281144D01*
X67976455Y-101281027D01*
X66647000Y-99951572D01*
X66647000Y-96028975D01*
X69757874Y-96028975D01*
X69868320Y-96296275D01*
X69933000Y-96361068D01*
X69933000Y-97440800D01*
X69869039Y-97504650D01*
X69758126Y-97771756D01*
X69757874Y-98060975D01*
X69868320Y-98328275D01*
X70072650Y-98532961D01*
X70339756Y-98643874D01*
X70628975Y-98644126D01*
X70896275Y-98533680D01*
X71100961Y-98329350D01*
X71211874Y-98062244D01*
X71212126Y-97773025D01*
X71101680Y-97505725D01*
X71037000Y-97440932D01*
X71037000Y-96361200D01*
X71100961Y-96297350D01*
X71211874Y-96030244D01*
X71212126Y-95741025D01*
X71101680Y-95473725D01*
X70897350Y-95269039D01*
X70630244Y-95158126D01*
X70341025Y-95157874D01*
X70073725Y-95268320D01*
X69869039Y-95472650D01*
X69758126Y-95739756D01*
X69757874Y-96028975D01*
X66647000Y-96028975D01*
X66647000Y-90603313D01*
X66738378Y-90641256D01*
X67067379Y-90641543D01*
X67371446Y-90515905D01*
X67553890Y-90333779D01*
X72070857Y-90333779D01*
X72196495Y-90637846D01*
X72428930Y-90870688D01*
X72732778Y-90996856D01*
X73061779Y-90997143D01*
X73365846Y-90871505D01*
X73598688Y-90639070D01*
X73724856Y-90335222D01*
X73725143Y-90006221D01*
X73599505Y-89702154D01*
X73367070Y-89469312D01*
X73063222Y-89343144D01*
X72734221Y-89342857D01*
X72430154Y-89468495D01*
X72197312Y-89700930D01*
X72071144Y-90004778D01*
X72070857Y-90333779D01*
X67553890Y-90333779D01*
X67604288Y-90283470D01*
X67730456Y-89979622D01*
X67730573Y-89845855D01*
X68247214Y-89329214D01*
X68378795Y-89132289D01*
X68425000Y-88900000D01*
X68425000Y-86985646D01*
X68614953Y-87175599D01*
X68614874Y-87265975D01*
X68725320Y-87533275D01*
X68929650Y-87737961D01*
X69196756Y-87848874D01*
X69485975Y-87849126D01*
X69753275Y-87738680D01*
X69957961Y-87534350D01*
X70068874Y-87267244D01*
X70069126Y-86978025D01*
X69958680Y-86710725D01*
X69754350Y-86506039D01*
X69487244Y-86395126D01*
X69395692Y-86395046D01*
X69259000Y-86258354D01*
X69259000Y-70903481D01*
X69282028Y-71019252D01*
X69401687Y-71198333D01*
X73186953Y-74983599D01*
X73186874Y-75073975D01*
X73297320Y-75341275D01*
X73501650Y-75545961D01*
X73768756Y-75656874D01*
X74057975Y-75657126D01*
X74124000Y-75629845D01*
X74124000Y-91567000D01*
X74166018Y-91778242D01*
X74285677Y-91957323D01*
X81363000Y-99034646D01*
X81363000Y-101504800D01*
X81299039Y-101568650D01*
X81188126Y-101835756D01*
X81187874Y-102124975D01*
X81298320Y-102392275D01*
X81502650Y-102596961D01*
X81769756Y-102707874D01*
X82058975Y-102708126D01*
X82326275Y-102597680D01*
X82530961Y-102393350D01*
X82641874Y-102126244D01*
X82641910Y-102084993D01*
X82772650Y-102215961D01*
X83039756Y-102326874D01*
X83328975Y-102327126D01*
X83596275Y-102216680D01*
X83627933Y-102185077D01*
X83627857Y-102271783D01*
X83753495Y-102575850D01*
X83985930Y-102808692D01*
X84289778Y-102934860D01*
X84618779Y-102935147D01*
X84922846Y-102809509D01*
X85155688Y-102577074D01*
X85270452Y-102300690D01*
X85312650Y-102342961D01*
X85579756Y-102453874D01*
X85868975Y-102454126D01*
X86136275Y-102343680D01*
X86179667Y-102300363D01*
X86293495Y-102575848D01*
X86525930Y-102808690D01*
X86829778Y-102934858D01*
X87158779Y-102935145D01*
X87462846Y-102809507D01*
X87641908Y-102630758D01*
X87648320Y-102646275D01*
X87852650Y-102850961D01*
X88119756Y-102961874D01*
X88408975Y-102962126D01*
X88676275Y-102851680D01*
X88880961Y-102647350D01*
X88991874Y-102380244D01*
X88991954Y-102288692D01*
X89290321Y-101990325D01*
X89409980Y-101811244D01*
X89451998Y-101600002D01*
X89451998Y-99536200D01*
X89515959Y-99472350D01*
X89626872Y-99205244D01*
X89627124Y-98916025D01*
X89516678Y-98648725D01*
X89511942Y-98643980D01*
X89678975Y-98644126D01*
X89946275Y-98533680D01*
X90150961Y-98329350D01*
X90261874Y-98062244D01*
X90262126Y-97773025D01*
X90151680Y-97505725D01*
X90087000Y-97440932D01*
X90087000Y-96361200D01*
X90150961Y-96297350D01*
X90261874Y-96030244D01*
X90262126Y-95741025D01*
X90151680Y-95473725D01*
X89947350Y-95269039D01*
X89680244Y-95158126D01*
X89391025Y-95157874D01*
X89123725Y-95268320D01*
X88919039Y-95472650D01*
X88808126Y-95739756D01*
X88807874Y-96028975D01*
X88918320Y-96296275D01*
X88983000Y-96361068D01*
X88983000Y-97440800D01*
X88919039Y-97504650D01*
X88808126Y-97771756D01*
X88807874Y-98060975D01*
X88918320Y-98328275D01*
X88923056Y-98333020D01*
X88756023Y-98332874D01*
X88488723Y-98443320D01*
X88364000Y-98567826D01*
X88364000Y-90587779D01*
X91247857Y-90587779D01*
X91373495Y-90891846D01*
X91605930Y-91124688D01*
X91909778Y-91250856D01*
X92238779Y-91251143D01*
X92542846Y-91125505D01*
X92775688Y-90893070D01*
X92901856Y-90589222D01*
X92902143Y-90260221D01*
X92808189Y-90032835D01*
X96857000Y-94081646D01*
X96857000Y-98679000D01*
X96899018Y-98890242D01*
X97018677Y-99069323D01*
X100110953Y-102161599D01*
X100110874Y-102251975D01*
X100221320Y-102519275D01*
X100425650Y-102723961D01*
X100692756Y-102834874D01*
X100981975Y-102835126D01*
X101249275Y-102724680D01*
X101453961Y-102520350D01*
X101536565Y-102321419D01*
X101618320Y-102519281D01*
X101822650Y-102723967D01*
X102089756Y-102834880D01*
X102378975Y-102835132D01*
X102646275Y-102724686D01*
X102801126Y-102570104D01*
X102803499Y-102575846D01*
X103035934Y-102808688D01*
X103339782Y-102934856D01*
X103668783Y-102935143D01*
X103972850Y-102809505D01*
X104205692Y-102577070D01*
X104331860Y-102273222D01*
X104331977Y-102139455D01*
X105712214Y-100759218D01*
X105843795Y-100562293D01*
X105890000Y-100330004D01*
X105890000Y-91692641D01*
X105956930Y-91759688D01*
X106260778Y-91885856D01*
X106589779Y-91886143D01*
X106893846Y-91760505D01*
X107126688Y-91528070D01*
X107252856Y-91224222D01*
X107253143Y-90895221D01*
X107127505Y-90591154D01*
X106895070Y-90358312D01*
X106779000Y-90310116D01*
X106779000Y-86313439D01*
X106805018Y-86444242D01*
X106924677Y-86623323D01*
X107476953Y-87175599D01*
X107476874Y-87265975D01*
X107587320Y-87533275D01*
X107791650Y-87737961D01*
X108058756Y-87848874D01*
X108347975Y-87849126D01*
X108615275Y-87738680D01*
X108658001Y-87696028D01*
X108658001Y-95158063D01*
X108441025Y-95157874D01*
X108173725Y-95268320D01*
X107969039Y-95472650D01*
X107858126Y-95739756D01*
X107857874Y-96028975D01*
X107968320Y-96296275D01*
X108033000Y-96361068D01*
X108033000Y-97440800D01*
X107969039Y-97504650D01*
X107858126Y-97771756D01*
X107857874Y-98060975D01*
X107968320Y-98328275D01*
X108172650Y-98532961D01*
X108439756Y-98643874D01*
X108658001Y-98644064D01*
X108658001Y-100912973D01*
X107989153Y-101581821D01*
X107931680Y-101442725D01*
X107867000Y-101377932D01*
X107867000Y-99536200D01*
X107930961Y-99472350D01*
X108041874Y-99205244D01*
X108042126Y-98916025D01*
X107931680Y-98648725D01*
X107727350Y-98444039D01*
X107460244Y-98333126D01*
X107171025Y-98332874D01*
X106903725Y-98443320D01*
X106699039Y-98647650D01*
X106588126Y-98914756D01*
X106587874Y-99203975D01*
X106698320Y-99471275D01*
X106763000Y-99536068D01*
X106763000Y-101377800D01*
X106699039Y-101441650D01*
X106654772Y-101548255D01*
X106514070Y-101407306D01*
X106210222Y-101281138D01*
X105881221Y-101280851D01*
X105577154Y-101406489D01*
X105344312Y-101638924D01*
X105218144Y-101942772D01*
X105217857Y-102271773D01*
X105343495Y-102575840D01*
X105575930Y-102808682D01*
X105879778Y-102934850D01*
X106013545Y-102934967D01*
X106295793Y-103217215D01*
X106492718Y-103348796D01*
X106725007Y-103395001D01*
X107641401Y-103395001D01*
X107873690Y-103348796D01*
X108070615Y-103217215D01*
X109694215Y-101593615D01*
X109825796Y-101396690D01*
X109872001Y-101164401D01*
X109872001Y-72562001D01*
X109825796Y-72329712D01*
X109694215Y-72132787D01*
X109694212Y-72132785D01*
X108684004Y-71122576D01*
X108684004Y-64857825D01*
X108693756Y-64861874D01*
X108982975Y-64862126D01*
X109250275Y-64751680D01*
X109454961Y-64547350D01*
X109565874Y-64280244D01*
X109566126Y-63991025D01*
X109455680Y-63723725D01*
X109391000Y-63658932D01*
X109391000Y-62149925D01*
X109407495Y-62189846D01*
X109639930Y-62422688D01*
X109943778Y-62548856D01*
X110272779Y-62549143D01*
X110319000Y-62530045D01*
X110319000Y-74422000D01*
X110361018Y-74633242D01*
X110480677Y-74812323D01*
X111667953Y-75999599D01*
X111667874Y-76089975D01*
X111778320Y-76357275D01*
X111982650Y-76561961D01*
X112249756Y-76672874D01*
X112538975Y-76673126D01*
X112806275Y-76562680D01*
X112923970Y-76445189D01*
X112963495Y-76540846D01*
X113195930Y-76773688D01*
X113499778Y-76899856D01*
X113828779Y-76900143D01*
X114132846Y-76774505D01*
X114365688Y-76542070D01*
X114405964Y-76445075D01*
X114522646Y-76561961D01*
X114789752Y-76672874D01*
X115078971Y-76673126D01*
X115346271Y-76562680D01*
X115463969Y-76445186D01*
X115503495Y-76540846D01*
X115735930Y-76773688D01*
X116039778Y-76899856D01*
X116368779Y-76900143D01*
X116672846Y-76774505D01*
X116905688Y-76542070D01*
X116923000Y-76500378D01*
X116923000Y-98583802D01*
X116859041Y-98647650D01*
X116748128Y-98914756D01*
X116747876Y-99203975D01*
X116858322Y-99471275D01*
X117062652Y-99675961D01*
X117329758Y-99786874D01*
X117618977Y-99787126D01*
X117886277Y-99676680D01*
X118090963Y-99472350D01*
X118193000Y-99226620D01*
X118193000Y-99726796D01*
X118129039Y-99790646D01*
X118018126Y-100057752D01*
X118017874Y-100346971D01*
X118128320Y-100614271D01*
X118332650Y-100818957D01*
X118599756Y-100929870D01*
X118888975Y-100930122D01*
X119156275Y-100819676D01*
X119360961Y-100615346D01*
X119471874Y-100348240D01*
X119472126Y-100059021D01*
X119361680Y-99791721D01*
X119297000Y-99726928D01*
X119297000Y-98083062D01*
X119398320Y-98328275D01*
X119602650Y-98532961D01*
X119869756Y-98643874D01*
X120158975Y-98644126D01*
X120426275Y-98533680D01*
X120630961Y-98329350D01*
X120741874Y-98062244D01*
X120742126Y-97773025D01*
X120715994Y-97709781D01*
X120885758Y-97780274D01*
X121174977Y-97780526D01*
X121442277Y-97670080D01*
X121646963Y-97465750D01*
X121757876Y-97198644D01*
X121758128Y-96909425D01*
X121647682Y-96642125D01*
X121583002Y-96577332D01*
X121583002Y-78134404D01*
X121569999Y-78069033D01*
X121569999Y-71487999D01*
X121527981Y-71276758D01*
X121408322Y-71097676D01*
X120659323Y-70348677D01*
X120480242Y-70229018D01*
X120269000Y-70187000D01*
X117951200Y-70187000D01*
X117887350Y-70123039D01*
X117620244Y-70012126D01*
X117331025Y-70011874D01*
X117063725Y-70122320D01*
X116859039Y-70326650D01*
X116812000Y-70439932D01*
X116812000Y-51485800D01*
X116765795Y-51253511D01*
X116634214Y-51056586D01*
X114263428Y-48685800D01*
X114263543Y-48553421D01*
X114137905Y-48249354D01*
X113905470Y-48016512D01*
X113601622Y-47890344D01*
X113272621Y-47890057D01*
X112968554Y-48015695D01*
X112735712Y-48248130D01*
X112623293Y-48518865D01*
X110047028Y-45942600D01*
X110047143Y-45810221D01*
X109921505Y-45506154D01*
X109689070Y-45273312D01*
X109385222Y-45147144D01*
X109056221Y-45146857D01*
X108752154Y-45272495D01*
X108519312Y-45504930D01*
X108393144Y-45808778D01*
X108392857Y-46137779D01*
X108518495Y-46441846D01*
X108750930Y-46674688D01*
X109054778Y-46800856D01*
X109188545Y-46800973D01*
X109480222Y-47092650D01*
X109336355Y-47152094D01*
X109103513Y-47384529D01*
X108977345Y-47688377D01*
X108977058Y-48017378D01*
X109102001Y-48319763D01*
X109102001Y-57742023D01*
X108984244Y-57693126D01*
X108695025Y-57692874D01*
X108684004Y-57697428D01*
X108684004Y-49584594D01*
X108777692Y-49491070D01*
X108903860Y-49187222D01*
X108904147Y-48858221D01*
X108778509Y-48554154D01*
X108546074Y-48321312D01*
X108242226Y-48195144D01*
X107913225Y-48194857D01*
X107609158Y-48320495D01*
X107376316Y-48552930D01*
X107287000Y-48768028D01*
X107287000Y-46536594D01*
X107380688Y-46443070D01*
X107506856Y-46139222D01*
X107507143Y-45810221D01*
X107381505Y-45506154D01*
X107149070Y-45273312D01*
X106845222Y-45147144D01*
X106516221Y-45146857D01*
X106212154Y-45272495D01*
X105979312Y-45504930D01*
X105853144Y-45808778D01*
X105852857Y-46137779D01*
X105978495Y-46441846D01*
X106073000Y-46536516D01*
X106073000Y-48527977D01*
X105890000Y-48710976D01*
X105890000Y-47116996D01*
X105843795Y-46884707D01*
X105712214Y-46687782D01*
X104967028Y-45942596D01*
X104967143Y-45810217D01*
X104841505Y-45506150D01*
X104609070Y-45273308D01*
X104305222Y-45147140D01*
X103976221Y-45146853D01*
X103672154Y-45272491D01*
X103439312Y-45504926D01*
X103313144Y-45808774D01*
X103312857Y-46137775D01*
X103438495Y-46441842D01*
X103670930Y-46674684D01*
X103818580Y-46735993D01*
X103672154Y-46796495D01*
X103439312Y-47028930D01*
X103313144Y-47332778D01*
X103313027Y-47466545D01*
X101443785Y-49335787D01*
X101312204Y-49532712D01*
X101265999Y-49765001D01*
X101265999Y-74329715D01*
X101250350Y-74314039D01*
X100983244Y-74203126D01*
X100694025Y-74202874D01*
X100426725Y-74313320D01*
X100222039Y-74517650D01*
X100111126Y-74784756D01*
X100111046Y-74876308D01*
X99735635Y-75251719D01*
X99739000Y-75234800D01*
X99739000Y-73628200D01*
X99802961Y-73564350D01*
X99913874Y-73297244D01*
X99914126Y-73008025D01*
X99803680Y-72740725D01*
X99672165Y-72608981D01*
X99838975Y-72609126D01*
X100106275Y-72498680D01*
X100310961Y-72294350D01*
X100421874Y-72027244D01*
X100422126Y-71738025D01*
X100311680Y-71470725D01*
X100247000Y-71405932D01*
X100247000Y-70326200D01*
X100310961Y-70262350D01*
X100421874Y-69995244D01*
X100422126Y-69706025D01*
X100311680Y-69438725D01*
X100107350Y-69234039D01*
X99840244Y-69123126D01*
X99551025Y-69122874D01*
X99283725Y-69233320D01*
X99159000Y-69357828D01*
X99159000Y-62138087D01*
X99295756Y-62194874D01*
X99584975Y-62195126D01*
X99852275Y-62084680D01*
X100056961Y-61880350D01*
X100167874Y-61613244D01*
X100168126Y-61324025D01*
X100057680Y-61056725D01*
X99993000Y-60991932D01*
X99993000Y-55594200D01*
X100056961Y-55530350D01*
X100167874Y-55263244D01*
X100168126Y-54974025D01*
X100057680Y-54706725D01*
X99853350Y-54502039D01*
X99586244Y-54391126D01*
X99297025Y-54390874D01*
X99159000Y-54447905D01*
X99159000Y-48822594D01*
X99252688Y-48729070D01*
X99378856Y-48425222D01*
X99379143Y-48096221D01*
X99253505Y-47792154D01*
X99021070Y-47559312D01*
X98717222Y-47433144D01*
X98388221Y-47432857D01*
X98084154Y-47558495D01*
X98016000Y-47626530D01*
X98016000Y-46790594D01*
X98109688Y-46697070D01*
X98235856Y-46393222D01*
X98236143Y-46064221D01*
X98110505Y-45760154D01*
X97878070Y-45527312D01*
X97574222Y-45401144D01*
X97245221Y-45400857D01*
X96941154Y-45526495D01*
X96708312Y-45758930D01*
X96582144Y-46062778D01*
X96581857Y-46391779D01*
X96707495Y-46695846D01*
X96802000Y-46790516D01*
X96802000Y-62105572D01*
X96408800Y-62498772D01*
X96437000Y-62357000D01*
X96437000Y-58261200D01*
X96500961Y-58197350D01*
X96611874Y-57930244D01*
X96612126Y-57641025D01*
X96501680Y-57373725D01*
X96297350Y-57169039D01*
X96030244Y-57058126D01*
X95741025Y-57057874D01*
X95720000Y-57066561D01*
X95720000Y-56565057D01*
X95865961Y-56419350D01*
X95976874Y-56152244D01*
X95977126Y-55863025D01*
X95866680Y-55595725D01*
X95662350Y-55391039D01*
X95395244Y-55280126D01*
X95106025Y-55279874D01*
X94847401Y-55386735D01*
X94847401Y-47884304D01*
X95006646Y-47818505D01*
X95239488Y-47586070D01*
X95365656Y-47282222D01*
X95365943Y-46953221D01*
X95240305Y-46649154D01*
X95007870Y-46416312D01*
X94704022Y-46290144D01*
X94375021Y-46289857D01*
X94070954Y-46415495D01*
X93838112Y-46647930D01*
X93711944Y-46951778D01*
X93711784Y-47134952D01*
X93679606Y-47183110D01*
X93633401Y-47415399D01*
X93633401Y-55974570D01*
X93490244Y-55915126D01*
X93201025Y-55914874D01*
X92933725Y-56025320D01*
X92729039Y-56229650D01*
X92618126Y-56496756D01*
X92617874Y-56785975D01*
X92728320Y-57053275D01*
X92793000Y-57118068D01*
X92793000Y-69810938D01*
X92691680Y-69565725D01*
X92487350Y-69361039D01*
X92220244Y-69250126D01*
X91931025Y-69249874D01*
X91663725Y-69360320D01*
X91459039Y-69564650D01*
X91348126Y-69831756D01*
X91347874Y-70120975D01*
X91458320Y-70388275D01*
X91523000Y-70453068D01*
X91523000Y-88519000D01*
X91565018Y-88730242D01*
X91684677Y-88909323D01*
X92466425Y-89691071D01*
X92240222Y-89597144D01*
X91911221Y-89596857D01*
X91607154Y-89722495D01*
X91374312Y-89954930D01*
X91248144Y-90258778D01*
X91247857Y-90587779D01*
X88364000Y-90587779D01*
X88364000Y-75819000D01*
X88317795Y-75586711D01*
X88186214Y-75389786D01*
X88186211Y-75389784D01*
X87856000Y-75059572D01*
X87856000Y-74376703D01*
X87926758Y-74423982D01*
X88138000Y-74466000D01*
X88349242Y-74423982D01*
X88528323Y-74304323D01*
X88602000Y-74194058D01*
X88602000Y-86772800D01*
X88538039Y-86836650D01*
X88427126Y-87103756D01*
X88426874Y-87392975D01*
X88537320Y-87660275D01*
X88741650Y-87864961D01*
X89008756Y-87975874D01*
X89297975Y-87976126D01*
X89565275Y-87865680D01*
X89769961Y-87661350D01*
X89880874Y-87394244D01*
X89881126Y-87105025D01*
X89770680Y-86837725D01*
X89706000Y-86772932D01*
X89706000Y-58674000D01*
X89663982Y-58462758D01*
X89544323Y-58283677D01*
X88992047Y-57731401D01*
X88992126Y-57641025D01*
X88881680Y-57373725D01*
X88677350Y-57169039D01*
X88410244Y-57058126D01*
X88121025Y-57057874D01*
X87856000Y-57167380D01*
X87856000Y-48387000D01*
X87809795Y-48154711D01*
X87678214Y-47957786D01*
X86044028Y-46323600D01*
X86044079Y-46264779D01*
X88707859Y-46264779D01*
X88833497Y-46568846D01*
X89065932Y-46801688D01*
X89369780Y-46927856D01*
X89503547Y-46927973D01*
X90452000Y-47876426D01*
X90452000Y-63318406D01*
X90358312Y-63411930D01*
X90232144Y-63715778D01*
X90231857Y-64044779D01*
X90357495Y-64348846D01*
X90589930Y-64581688D01*
X90893778Y-64707856D01*
X91222779Y-64708143D01*
X91526846Y-64582505D01*
X91759688Y-64350070D01*
X91885856Y-64046222D01*
X91886143Y-63717221D01*
X91760505Y-63413154D01*
X91666000Y-63318484D01*
X91666000Y-47625003D01*
X91666001Y-47624998D01*
X91619795Y-47392709D01*
X91488214Y-47195784D01*
X90362030Y-46069600D01*
X90362145Y-45937221D01*
X90236507Y-45633154D01*
X90004072Y-45400312D01*
X89700224Y-45274144D01*
X89371223Y-45273857D01*
X89067156Y-45399495D01*
X88834314Y-45631930D01*
X88708146Y-45935778D01*
X88707859Y-46264779D01*
X86044079Y-46264779D01*
X86044143Y-46191221D01*
X85918505Y-45887154D01*
X85686070Y-45654312D01*
X85382222Y-45528144D01*
X85053221Y-45527857D01*
X84971011Y-45561826D01*
X84971011Y-44030417D01*
X85756400Y-43245028D01*
X85888779Y-43245143D01*
X86192846Y-43119505D01*
X86425688Y-42887070D01*
X86551856Y-42583222D01*
X86552143Y-42254221D01*
X86426505Y-41950154D01*
X86194070Y-41717312D01*
X85890222Y-41591144D01*
X85756455Y-41591027D01*
X84922429Y-40757001D01*
X87015573Y-40757001D01*
X88707972Y-42449400D01*
X88707857Y-42581779D01*
X88833495Y-42885846D01*
X89065930Y-43118688D01*
X89369778Y-43244856D01*
X89698779Y-43245143D01*
X90002846Y-43119505D01*
X90170088Y-42952555D01*
X90335930Y-43118688D01*
X90639778Y-43244856D01*
X90968779Y-43245143D01*
X91272846Y-43119505D01*
X91505688Y-42887070D01*
X91631856Y-42583222D01*
X91632143Y-42254221D01*
X91506505Y-41950154D01*
X91274070Y-41717312D01*
X90970222Y-41591144D01*
X90836455Y-41591027D01*
X88186214Y-38940786D01*
X87989289Y-38809205D01*
X87757000Y-38763000D01*
X85451675Y-38763000D01*
X85493278Y-38721470D01*
X85619446Y-38417622D01*
X85619733Y-38088621D01*
X85494095Y-37784554D01*
X85261660Y-37551712D01*
X84957812Y-37425544D01*
X84628811Y-37425257D01*
X84446951Y-37500400D01*
X80126896Y-37500400D01*
X79946622Y-37425544D01*
X79617621Y-37425257D01*
X79435761Y-37500400D01*
X75021496Y-37500400D01*
X74841222Y-37425544D01*
X74512221Y-37425257D01*
X74330361Y-37500400D01*
X69966896Y-37500400D01*
X69786622Y-37425544D01*
X69457621Y-37425257D01*
X69275761Y-37500400D01*
X64886896Y-37500400D01*
X64706622Y-37425544D01*
X64377621Y-37425257D01*
X64195761Y-37500400D01*
X59781496Y-37500400D01*
X59601222Y-37425544D01*
X59272221Y-37425257D01*
X59090361Y-37500400D01*
X54676096Y-37500400D01*
X54495822Y-37425544D01*
X54166821Y-37425257D01*
X53984961Y-37500400D01*
X36566000Y-37500400D01*
X36566000Y-32995962D01*
X37917000Y-32995962D01*
X37917000Y-33044038D01*
X38010400Y-33513591D01*
X38276380Y-33911658D01*
X38674447Y-34177638D01*
X39144000Y-34271038D01*
X39613553Y-34177638D01*
X40011620Y-33911658D01*
X40277600Y-33513591D01*
X40371000Y-33044038D01*
X40371000Y-32995962D01*
X40457000Y-32995962D01*
X40457000Y-33044038D01*
X40550400Y-33513591D01*
X40816380Y-33911658D01*
X41214447Y-34177638D01*
X41684000Y-34271038D01*
X42153553Y-34177638D01*
X42551620Y-33911658D01*
X42817600Y-33513591D01*
X42911000Y-33044038D01*
X42911000Y-32995962D01*
X42997000Y-32995962D01*
X42997000Y-33044038D01*
X43090400Y-33513591D01*
X43356380Y-33911658D01*
X43754447Y-34177638D01*
X44224000Y-34271038D01*
X44693553Y-34177638D01*
X45091620Y-33911658D01*
X45357600Y-33513591D01*
X45451000Y-33044038D01*
X45451000Y-32995962D01*
X45537000Y-32995962D01*
X45537000Y-33044038D01*
X45630400Y-33513591D01*
X45896380Y-33911658D01*
X46294447Y-34177638D01*
X46764000Y-34271038D01*
X47233553Y-34177638D01*
X47631620Y-33911658D01*
X47897600Y-33513591D01*
X47991000Y-33044038D01*
X47991000Y-32995962D01*
X48077000Y-32995962D01*
X48077000Y-33044038D01*
X48170400Y-33513591D01*
X48436380Y-33911658D01*
X48834447Y-34177638D01*
X49304000Y-34271038D01*
X49773553Y-34177638D01*
X50171620Y-33911658D01*
X50437600Y-33513591D01*
X50531000Y-33044038D01*
X50531000Y-32995962D01*
X50617000Y-32995962D01*
X50617000Y-33044038D01*
X50710400Y-33513591D01*
X50976380Y-33911658D01*
X51374447Y-34177638D01*
X51844000Y-34271038D01*
X52313553Y-34177638D01*
X52711620Y-33911658D01*
X52977600Y-33513591D01*
X53071000Y-33044038D01*
X53071000Y-32995962D01*
X53157000Y-32995962D01*
X53157000Y-33044038D01*
X53250400Y-33513591D01*
X53516380Y-33911658D01*
X53914447Y-34177638D01*
X54384000Y-34271038D01*
X54853553Y-34177638D01*
X55251620Y-33911658D01*
X55517600Y-33513591D01*
X55611000Y-33044038D01*
X55611000Y-32995962D01*
X55697000Y-32995962D01*
X55697000Y-33044038D01*
X55790400Y-33513591D01*
X56056380Y-33911658D01*
X56454447Y-34177638D01*
X56924000Y-34271038D01*
X57393553Y-34177638D01*
X57791620Y-33911658D01*
X58057600Y-33513591D01*
X58151000Y-33044038D01*
X58151000Y-32995962D01*
X58237000Y-32995962D01*
X58237000Y-33044038D01*
X58330400Y-33513591D01*
X58596380Y-33911658D01*
X58994447Y-34177638D01*
X59464000Y-34271038D01*
X59933553Y-34177638D01*
X60331620Y-33911658D01*
X60597600Y-33513591D01*
X60691000Y-33044038D01*
X60691000Y-32995962D01*
X60777000Y-32995962D01*
X60777000Y-33044038D01*
X60870400Y-33513591D01*
X61136380Y-33911658D01*
X61534447Y-34177638D01*
X62004000Y-34271038D01*
X62473553Y-34177638D01*
X62871620Y-33911658D01*
X63137600Y-33513591D01*
X63231000Y-33044038D01*
X63231000Y-32995962D01*
X63317000Y-32995962D01*
X63317000Y-33044038D01*
X63410400Y-33513591D01*
X63676380Y-33911658D01*
X64074447Y-34177638D01*
X64544000Y-34271038D01*
X65013553Y-34177638D01*
X65411620Y-33911658D01*
X65677600Y-33513591D01*
X65771000Y-33044038D01*
X65771000Y-32995962D01*
X65857000Y-32995962D01*
X65857000Y-33044038D01*
X65950400Y-33513591D01*
X66216380Y-33911658D01*
X66614447Y-34177638D01*
X67084000Y-34271038D01*
X67553553Y-34177638D01*
X67951620Y-33911658D01*
X68217600Y-33513591D01*
X68311000Y-33044038D01*
X68311000Y-32995962D01*
X68397000Y-32995962D01*
X68397000Y-33044038D01*
X68490400Y-33513591D01*
X68756380Y-33911658D01*
X69154447Y-34177638D01*
X69624000Y-34271038D01*
X70093553Y-34177638D01*
X70491620Y-33911658D01*
X70757600Y-33513591D01*
X70851000Y-33044038D01*
X70851000Y-32995962D01*
X70937000Y-32995962D01*
X70937000Y-33044038D01*
X71030400Y-33513591D01*
X71296380Y-33911658D01*
X71694447Y-34177638D01*
X72164000Y-34271038D01*
X72633553Y-34177638D01*
X73031620Y-33911658D01*
X73297600Y-33513591D01*
X73391000Y-33044038D01*
X73391000Y-32995962D01*
X73477000Y-32995962D01*
X73477000Y-33044038D01*
X73570400Y-33513591D01*
X73836380Y-33911658D01*
X74234447Y-34177638D01*
X74704000Y-34271038D01*
X75173553Y-34177638D01*
X75571620Y-33911658D01*
X75837600Y-33513591D01*
X75931000Y-33044038D01*
X75931000Y-32995962D01*
X76017000Y-32995962D01*
X76017000Y-33044038D01*
X76110400Y-33513591D01*
X76376380Y-33911658D01*
X76774447Y-34177638D01*
X77244000Y-34271038D01*
X77713553Y-34177638D01*
X78111620Y-33911658D01*
X78377600Y-33513591D01*
X78471000Y-33044038D01*
X78471000Y-32995962D01*
X78377600Y-32526409D01*
X78111620Y-32128342D01*
X77713553Y-31862362D01*
X77244000Y-31768962D01*
X76774447Y-31862362D01*
X76376380Y-32128342D01*
X76110400Y-32526409D01*
X76017000Y-32995962D01*
X75931000Y-32995962D01*
X75837600Y-32526409D01*
X75571620Y-32128342D01*
X75173553Y-31862362D01*
X74704000Y-31768962D01*
X74234447Y-31862362D01*
X73836380Y-32128342D01*
X73570400Y-32526409D01*
X73477000Y-32995962D01*
X73391000Y-32995962D01*
X73297600Y-32526409D01*
X73031620Y-32128342D01*
X72633553Y-31862362D01*
X72164000Y-31768962D01*
X71694447Y-31862362D01*
X71296380Y-32128342D01*
X71030400Y-32526409D01*
X70937000Y-32995962D01*
X70851000Y-32995962D01*
X70757600Y-32526409D01*
X70491620Y-32128342D01*
X70093553Y-31862362D01*
X69624000Y-31768962D01*
X69154447Y-31862362D01*
X68756380Y-32128342D01*
X68490400Y-32526409D01*
X68397000Y-32995962D01*
X68311000Y-32995962D01*
X68217600Y-32526409D01*
X67951620Y-32128342D01*
X67553553Y-31862362D01*
X67084000Y-31768962D01*
X66614447Y-31862362D01*
X66216380Y-32128342D01*
X65950400Y-32526409D01*
X65857000Y-32995962D01*
X65771000Y-32995962D01*
X65677600Y-32526409D01*
X65411620Y-32128342D01*
X65013553Y-31862362D01*
X64544000Y-31768962D01*
X64074447Y-31862362D01*
X63676380Y-32128342D01*
X63410400Y-32526409D01*
X63317000Y-32995962D01*
X63231000Y-32995962D01*
X63137600Y-32526409D01*
X62871620Y-32128342D01*
X62473553Y-31862362D01*
X62004000Y-31768962D01*
X61534447Y-31862362D01*
X61136380Y-32128342D01*
X60870400Y-32526409D01*
X60777000Y-32995962D01*
X60691000Y-32995962D01*
X60597600Y-32526409D01*
X60331620Y-32128342D01*
X59933553Y-31862362D01*
X59464000Y-31768962D01*
X58994447Y-31862362D01*
X58596380Y-32128342D01*
X58330400Y-32526409D01*
X58237000Y-32995962D01*
X58151000Y-32995962D01*
X58057600Y-32526409D01*
X57791620Y-32128342D01*
X57393553Y-31862362D01*
X56924000Y-31768962D01*
X56454447Y-31862362D01*
X56056380Y-32128342D01*
X55790400Y-32526409D01*
X55697000Y-32995962D01*
X55611000Y-32995962D01*
X55517600Y-32526409D01*
X55251620Y-32128342D01*
X54853553Y-31862362D01*
X54384000Y-31768962D01*
X53914447Y-31862362D01*
X53516380Y-32128342D01*
X53250400Y-32526409D01*
X53157000Y-32995962D01*
X53071000Y-32995962D01*
X52977600Y-32526409D01*
X52711620Y-32128342D01*
X52313553Y-31862362D01*
X51844000Y-31768962D01*
X51374447Y-31862362D01*
X50976380Y-32128342D01*
X50710400Y-32526409D01*
X50617000Y-32995962D01*
X50531000Y-32995962D01*
X50437600Y-32526409D01*
X50171620Y-32128342D01*
X49773553Y-31862362D01*
X49304000Y-31768962D01*
X48834447Y-31862362D01*
X48436380Y-32128342D01*
X48170400Y-32526409D01*
X48077000Y-32995962D01*
X47991000Y-32995962D01*
X47897600Y-32526409D01*
X47631620Y-32128342D01*
X47233553Y-31862362D01*
X46764000Y-31768962D01*
X46294447Y-31862362D01*
X45896380Y-32128342D01*
X45630400Y-32526409D01*
X45537000Y-32995962D01*
X45451000Y-32995962D01*
X45357600Y-32526409D01*
X45091620Y-32128342D01*
X44693553Y-31862362D01*
X44224000Y-31768962D01*
X43754447Y-31862362D01*
X43356380Y-32128342D01*
X43090400Y-32526409D01*
X42997000Y-32995962D01*
X42911000Y-32995962D01*
X42817600Y-32526409D01*
X42551620Y-32128342D01*
X42153553Y-31862362D01*
X41684000Y-31768962D01*
X41214447Y-31862362D01*
X40816380Y-32128342D01*
X40550400Y-32526409D01*
X40457000Y-32995962D01*
X40371000Y-32995962D01*
X40277600Y-32526409D01*
X40011620Y-32128342D01*
X39613553Y-31862362D01*
X39144000Y-31768962D01*
X38674447Y-31862362D01*
X38276380Y-32128342D01*
X38010400Y-32526409D01*
X37917000Y-32995962D01*
X36566000Y-32995962D01*
X36566000Y-30455962D01*
X37917000Y-30455962D01*
X37917000Y-30504038D01*
X38010400Y-30973591D01*
X38276380Y-31371658D01*
X38674447Y-31637638D01*
X39144000Y-31731038D01*
X39613553Y-31637638D01*
X40011620Y-31371658D01*
X40277600Y-30973591D01*
X40371000Y-30504038D01*
X40371000Y-30455962D01*
X40457000Y-30455962D01*
X40457000Y-30504038D01*
X40550400Y-30973591D01*
X40816380Y-31371658D01*
X41214447Y-31637638D01*
X41684000Y-31731038D01*
X42153553Y-31637638D01*
X42551620Y-31371658D01*
X42817600Y-30973591D01*
X42911000Y-30504038D01*
X42911000Y-30455962D01*
X42997000Y-30455962D01*
X42997000Y-30504038D01*
X43090400Y-30973591D01*
X43356380Y-31371658D01*
X43754447Y-31637638D01*
X44224000Y-31731038D01*
X44693553Y-31637638D01*
X45091620Y-31371658D01*
X45357600Y-30973591D01*
X45451000Y-30504038D01*
X45451000Y-30455962D01*
X45537000Y-30455962D01*
X45537000Y-30504038D01*
X45630400Y-30973591D01*
X45896380Y-31371658D01*
X46294447Y-31637638D01*
X46764000Y-31731038D01*
X47233553Y-31637638D01*
X47631620Y-31371658D01*
X47897600Y-30973591D01*
X47991000Y-30504038D01*
X47991000Y-30455962D01*
X48077000Y-30455962D01*
X48077000Y-30504038D01*
X48170400Y-30973591D01*
X48436380Y-31371658D01*
X48834447Y-31637638D01*
X49304000Y-31731038D01*
X49773553Y-31637638D01*
X50171620Y-31371658D01*
X50437600Y-30973591D01*
X50531000Y-30504038D01*
X50531000Y-30455962D01*
X50617000Y-30455962D01*
X50617000Y-30504038D01*
X50710400Y-30973591D01*
X50976380Y-31371658D01*
X51374447Y-31637638D01*
X51844000Y-31731038D01*
X52313553Y-31637638D01*
X52711620Y-31371658D01*
X52977600Y-30973591D01*
X53071000Y-30504038D01*
X53071000Y-30455962D01*
X53157000Y-30455962D01*
X53157000Y-30504038D01*
X53250400Y-30973591D01*
X53516380Y-31371658D01*
X53914447Y-31637638D01*
X54384000Y-31731038D01*
X54853553Y-31637638D01*
X55251620Y-31371658D01*
X55517600Y-30973591D01*
X55611000Y-30504038D01*
X55611000Y-30455962D01*
X55697000Y-30455962D01*
X55697000Y-30504038D01*
X55790400Y-30973591D01*
X56056380Y-31371658D01*
X56454447Y-31637638D01*
X56924000Y-31731038D01*
X57393553Y-31637638D01*
X57791620Y-31371658D01*
X58057600Y-30973591D01*
X58151000Y-30504038D01*
X58151000Y-30455962D01*
X58237000Y-30455962D01*
X58237000Y-30504038D01*
X58330400Y-30973591D01*
X58596380Y-31371658D01*
X58994447Y-31637638D01*
X59464000Y-31731038D01*
X59933553Y-31637638D01*
X60331620Y-31371658D01*
X60597600Y-30973591D01*
X60691000Y-30504038D01*
X60691000Y-30455962D01*
X60777000Y-30455962D01*
X60777000Y-30504038D01*
X60870400Y-30973591D01*
X61136380Y-31371658D01*
X61534447Y-31637638D01*
X62004000Y-31731038D01*
X62473553Y-31637638D01*
X62871620Y-31371658D01*
X63137600Y-30973591D01*
X63231000Y-30504038D01*
X63231000Y-30455962D01*
X63317000Y-30455962D01*
X63317000Y-30504038D01*
X63410400Y-30973591D01*
X63676380Y-31371658D01*
X64074447Y-31637638D01*
X64544000Y-31731038D01*
X65013553Y-31637638D01*
X65411620Y-31371658D01*
X65677600Y-30973591D01*
X65771000Y-30504038D01*
X65771000Y-30455962D01*
X65857000Y-30455962D01*
X65857000Y-30504038D01*
X65950400Y-30973591D01*
X66216380Y-31371658D01*
X66614447Y-31637638D01*
X67084000Y-31731038D01*
X67553553Y-31637638D01*
X67951620Y-31371658D01*
X68217600Y-30973591D01*
X68311000Y-30504038D01*
X68311000Y-30455962D01*
X68397000Y-30455962D01*
X68397000Y-30504038D01*
X68490400Y-30973591D01*
X68756380Y-31371658D01*
X69154447Y-31637638D01*
X69624000Y-31731038D01*
X70093553Y-31637638D01*
X70491620Y-31371658D01*
X70757600Y-30973591D01*
X70851000Y-30504038D01*
X70851000Y-30455962D01*
X70937000Y-30455962D01*
X70937000Y-30504038D01*
X71030400Y-30973591D01*
X71296380Y-31371658D01*
X71694447Y-31637638D01*
X72164000Y-31731038D01*
X72633553Y-31637638D01*
X73031620Y-31371658D01*
X73297600Y-30973591D01*
X73391000Y-30504038D01*
X73391000Y-30455962D01*
X73477000Y-30455962D01*
X73477000Y-30504038D01*
X73570400Y-30973591D01*
X73836380Y-31371658D01*
X74234447Y-31637638D01*
X74704000Y-31731038D01*
X75173553Y-31637638D01*
X75571620Y-31371658D01*
X75837600Y-30973591D01*
X75931000Y-30504038D01*
X75931000Y-30455962D01*
X76017000Y-30455962D01*
X76017000Y-30504038D01*
X76110400Y-30973591D01*
X76376380Y-31371658D01*
X76774447Y-31637638D01*
X77244000Y-31731038D01*
X77713553Y-31637638D01*
X78111620Y-31371658D01*
X78377600Y-30973591D01*
X78471000Y-30504038D01*
X78471000Y-30455962D01*
X78557000Y-30455962D01*
X78557000Y-30504038D01*
X78650400Y-30973591D01*
X78916380Y-31371658D01*
X79314447Y-31637638D01*
X79784000Y-31731038D01*
X80253553Y-31637638D01*
X80540176Y-31446122D01*
X80490605Y-31520311D01*
X80444400Y-31752600D01*
X80444400Y-31989882D01*
X80253553Y-31862362D01*
X79784000Y-31768962D01*
X79314447Y-31862362D01*
X78916380Y-32128342D01*
X78650400Y-32526409D01*
X78557000Y-32995962D01*
X78557000Y-33044038D01*
X78650400Y-33513591D01*
X78916380Y-33911658D01*
X79314447Y-34177638D01*
X79784000Y-34271038D01*
X80253553Y-34177638D01*
X80444400Y-34050118D01*
X80444400Y-35712400D01*
X80490605Y-35944689D01*
X80622186Y-36141614D01*
X81358786Y-36878214D01*
X81555711Y-37009795D01*
X81788000Y-37056000D01*
X90807572Y-37056000D01*
X96598786Y-42847214D01*
X96795711Y-42978795D01*
X97028000Y-43025000D01*
X104847406Y-43025000D01*
X104940930Y-43118688D01*
X105244778Y-43244856D01*
X105573779Y-43245143D01*
X105877846Y-43119505D01*
X106045084Y-42952559D01*
X106210930Y-43118696D01*
X106514778Y-43244864D01*
X106843779Y-43245151D01*
X107147846Y-43119513D01*
X107380688Y-42887078D01*
X107506856Y-42583230D01*
X107507143Y-42254229D01*
X107381505Y-41950162D01*
X107287000Y-41855492D01*
X107287000Y-41529000D01*
X107240795Y-41296711D01*
X107109214Y-41099786D01*
X106855214Y-40845786D01*
X106658289Y-40714205D01*
X106426000Y-40668000D01*
X97406428Y-40668000D01*
X96588428Y-39850000D01*
X111127572Y-39850000D01*
X111153000Y-39875428D01*
X111153000Y-41855400D01*
X111059312Y-41948924D01*
X110933144Y-42252772D01*
X110932857Y-42581773D01*
X111058495Y-42885840D01*
X111290930Y-43118682D01*
X111594778Y-43244850D01*
X111923779Y-43245137D01*
X112227846Y-43119499D01*
X112460688Y-42887064D01*
X112586856Y-42583216D01*
X112587143Y-42254215D01*
X112461505Y-41950148D01*
X112367000Y-41855478D01*
X112367000Y-39624000D01*
X112320795Y-39391711D01*
X112189214Y-39194786D01*
X111808214Y-38813786D01*
X111611289Y-38682205D01*
X111379000Y-38636000D01*
X96644428Y-38636000D01*
X95445430Y-37437002D01*
X109927406Y-37437002D01*
X110020930Y-37530690D01*
X110324778Y-37656858D01*
X110653779Y-37657145D01*
X110957846Y-37531507D01*
X111190688Y-37299072D01*
X111316856Y-36995224D01*
X111317143Y-36666223D01*
X111191505Y-36362156D01*
X110959070Y-36129314D01*
X110655222Y-36003146D01*
X110326221Y-36002859D01*
X110022154Y-36128497D01*
X109927484Y-36223002D01*
X95501430Y-36223002D01*
X91679840Y-32401412D01*
X93258130Y-32401412D01*
X93757841Y-33610805D01*
X94682329Y-34536907D01*
X95890847Y-35038728D01*
X97199412Y-35039870D01*
X98408805Y-34540159D01*
X99334907Y-33615671D01*
X99836728Y-32407153D01*
X99837870Y-31098588D01*
X99338159Y-29889195D01*
X98413671Y-28963093D01*
X97205153Y-28461272D01*
X95896588Y-28460130D01*
X94687195Y-28959841D01*
X93761093Y-29884329D01*
X93259272Y-31092847D01*
X93258130Y-32401412D01*
X91679840Y-32401412D01*
X89329214Y-30050786D01*
X89132289Y-29919205D01*
X88900000Y-29873000D01*
X88639365Y-29873000D01*
X88639365Y-29680000D01*
X88609591Y-29521763D01*
X88516073Y-29376433D01*
X88373381Y-29278936D01*
X88204000Y-29244635D01*
X86604000Y-29244635D01*
X86445763Y-29274409D01*
X86300433Y-29367927D01*
X86202936Y-29510619D01*
X86168635Y-29680000D01*
X86168635Y-31280000D01*
X86198409Y-31438237D01*
X86291927Y-31583567D01*
X86434619Y-31681064D01*
X86604000Y-31715365D01*
X88204000Y-31715365D01*
X88362237Y-31685591D01*
X88507567Y-31592073D01*
X88605064Y-31449381D01*
X88639365Y-31280000D01*
X88639365Y-31087000D01*
X88648572Y-31087000D01*
X89974572Y-32413000D01*
X88461822Y-32413000D01*
X88271620Y-32128342D01*
X87873553Y-31862362D01*
X87404000Y-31768962D01*
X86934447Y-31862362D01*
X86536380Y-32128342D01*
X86270400Y-32526409D01*
X86177000Y-32995962D01*
X86177000Y-33044038D01*
X86270400Y-33513591D01*
X86536380Y-33911658D01*
X86934447Y-34177638D01*
X87404000Y-34271038D01*
X87873553Y-34177638D01*
X88271620Y-33911658D01*
X88461822Y-33627000D01*
X89918572Y-33627000D01*
X91117572Y-34826000D01*
X84988428Y-34826000D01*
X84230560Y-34068132D01*
X84394447Y-34177638D01*
X84864000Y-34271038D01*
X85333553Y-34177638D01*
X85731620Y-33911658D01*
X85997600Y-33513591D01*
X86091000Y-33044038D01*
X86091000Y-32995962D01*
X85997600Y-32526409D01*
X85731620Y-32128342D01*
X85333553Y-31862362D01*
X84864000Y-31768962D01*
X84394447Y-31862362D01*
X83996380Y-32128342D01*
X83730400Y-32526409D01*
X83637000Y-32995962D01*
X83637000Y-33044038D01*
X83730400Y-33513591D01*
X83839906Y-33677478D01*
X83493838Y-33331410D01*
X83551000Y-33044038D01*
X83551000Y-32995962D01*
X83457600Y-32526409D01*
X83191620Y-32128342D01*
X82793553Y-31862362D01*
X82324000Y-31768962D01*
X81854447Y-31862362D01*
X81690560Y-31971868D01*
X81996528Y-31665900D01*
X82324000Y-31731038D01*
X82793553Y-31637638D01*
X83191620Y-31371658D01*
X83457600Y-30973591D01*
X83551000Y-30504038D01*
X83551000Y-30455962D01*
X83637000Y-30455962D01*
X83637000Y-30504038D01*
X83730400Y-30973591D01*
X83996380Y-31371658D01*
X84394447Y-31637638D01*
X84864000Y-31731038D01*
X85333553Y-31637638D01*
X85731620Y-31371658D01*
X85997600Y-30973591D01*
X86091000Y-30504038D01*
X86091000Y-30455962D01*
X85997600Y-29986409D01*
X85731620Y-29588342D01*
X85333553Y-29322362D01*
X84864000Y-29228962D01*
X84394447Y-29322362D01*
X83996380Y-29588342D01*
X83730400Y-29986409D01*
X83637000Y-30455962D01*
X83551000Y-30455962D01*
X83457600Y-29986409D01*
X83191620Y-29588342D01*
X82793553Y-29322362D01*
X82324000Y-29228962D01*
X81854447Y-29322362D01*
X81456380Y-29588342D01*
X81190400Y-29986409D01*
X81097000Y-30455962D01*
X81097000Y-30504038D01*
X81154162Y-30791410D01*
X80808094Y-31137478D01*
X80917600Y-30973591D01*
X81011000Y-30504038D01*
X81011000Y-30455962D01*
X80917600Y-29986409D01*
X80651620Y-29588342D01*
X80253553Y-29322362D01*
X79784000Y-29228962D01*
X79314447Y-29322362D01*
X78916380Y-29588342D01*
X78650400Y-29986409D01*
X78557000Y-30455962D01*
X78471000Y-30455962D01*
X78377600Y-29986409D01*
X78111620Y-29588342D01*
X77713553Y-29322362D01*
X77244000Y-29228962D01*
X76774447Y-29322362D01*
X76376380Y-29588342D01*
X76110400Y-29986409D01*
X76017000Y-30455962D01*
X75931000Y-30455962D01*
X75837600Y-29986409D01*
X75571620Y-29588342D01*
X75173553Y-29322362D01*
X74704000Y-29228962D01*
X74234447Y-29322362D01*
X73836380Y-29588342D01*
X73570400Y-29986409D01*
X73477000Y-30455962D01*
X73391000Y-30455962D01*
X73297600Y-29986409D01*
X73031620Y-29588342D01*
X72633553Y-29322362D01*
X72164000Y-29228962D01*
X71694447Y-29322362D01*
X71296380Y-29588342D01*
X71030400Y-29986409D01*
X70937000Y-30455962D01*
X70851000Y-30455962D01*
X70757600Y-29986409D01*
X70491620Y-29588342D01*
X70093553Y-29322362D01*
X69624000Y-29228962D01*
X69154447Y-29322362D01*
X68756380Y-29588342D01*
X68490400Y-29986409D01*
X68397000Y-30455962D01*
X68311000Y-30455962D01*
X68217600Y-29986409D01*
X67951620Y-29588342D01*
X67553553Y-29322362D01*
X67084000Y-29228962D01*
X66614447Y-29322362D01*
X66216380Y-29588342D01*
X65950400Y-29986409D01*
X65857000Y-30455962D01*
X65771000Y-30455962D01*
X65677600Y-29986409D01*
X65411620Y-29588342D01*
X65013553Y-29322362D01*
X64544000Y-29228962D01*
X64074447Y-29322362D01*
X63676380Y-29588342D01*
X63410400Y-29986409D01*
X63317000Y-30455962D01*
X63231000Y-30455962D01*
X63137600Y-29986409D01*
X62871620Y-29588342D01*
X62473553Y-29322362D01*
X62004000Y-29228962D01*
X61534447Y-29322362D01*
X61136380Y-29588342D01*
X60870400Y-29986409D01*
X60777000Y-30455962D01*
X60691000Y-30455962D01*
X60597600Y-29986409D01*
X60331620Y-29588342D01*
X59933553Y-29322362D01*
X59464000Y-29228962D01*
X58994447Y-29322362D01*
X58596380Y-29588342D01*
X58330400Y-29986409D01*
X58237000Y-30455962D01*
X58151000Y-30455962D01*
X58057600Y-29986409D01*
X57791620Y-29588342D01*
X57393553Y-29322362D01*
X56924000Y-29228962D01*
X56454447Y-29322362D01*
X56056380Y-29588342D01*
X55790400Y-29986409D01*
X55697000Y-30455962D01*
X55611000Y-30455962D01*
X55517600Y-29986409D01*
X55251620Y-29588342D01*
X54853553Y-29322362D01*
X54384000Y-29228962D01*
X53914447Y-29322362D01*
X53516380Y-29588342D01*
X53250400Y-29986409D01*
X53157000Y-30455962D01*
X53071000Y-30455962D01*
X52977600Y-29986409D01*
X52711620Y-29588342D01*
X52313553Y-29322362D01*
X51844000Y-29228962D01*
X51374447Y-29322362D01*
X50976380Y-29588342D01*
X50710400Y-29986409D01*
X50617000Y-30455962D01*
X50531000Y-30455962D01*
X50437600Y-29986409D01*
X50171620Y-29588342D01*
X49773553Y-29322362D01*
X49304000Y-29228962D01*
X48834447Y-29322362D01*
X48436380Y-29588342D01*
X48170400Y-29986409D01*
X48077000Y-30455962D01*
X47991000Y-30455962D01*
X47897600Y-29986409D01*
X47631620Y-29588342D01*
X47233553Y-29322362D01*
X46764000Y-29228962D01*
X46294447Y-29322362D01*
X45896380Y-29588342D01*
X45630400Y-29986409D01*
X45537000Y-30455962D01*
X45451000Y-30455962D01*
X45357600Y-29986409D01*
X45091620Y-29588342D01*
X44693553Y-29322362D01*
X44224000Y-29228962D01*
X43754447Y-29322362D01*
X43356380Y-29588342D01*
X43090400Y-29986409D01*
X42997000Y-30455962D01*
X42911000Y-30455962D01*
X42817600Y-29986409D01*
X42551620Y-29588342D01*
X42153553Y-29322362D01*
X41684000Y-29228962D01*
X41214447Y-29322362D01*
X40816380Y-29588342D01*
X40550400Y-29986409D01*
X40457000Y-30455962D01*
X40371000Y-30455962D01*
X40277600Y-29986409D01*
X40011620Y-29588342D01*
X39613553Y-29322362D01*
X39144000Y-29228962D01*
X38674447Y-29322362D01*
X38276380Y-29588342D01*
X38010400Y-29986409D01*
X37917000Y-30455962D01*
X36566000Y-30455962D01*
X36566000Y-28454688D01*
X37954288Y-27066400D01*
X53375504Y-27066400D01*
X53555778Y-27141256D01*
X53884779Y-27141543D01*
X54066639Y-27066400D01*
X58430108Y-27066400D01*
X58610382Y-27141256D01*
X58939383Y-27141543D01*
X59121243Y-27066400D01*
X63510104Y-27066400D01*
X63690378Y-27141256D01*
X64019379Y-27141543D01*
X64201239Y-27066400D01*
X68590104Y-27066400D01*
X68770378Y-27141256D01*
X69099379Y-27141543D01*
X69281239Y-27066400D01*
X73720902Y-27066400D01*
X73901176Y-27141256D01*
X74230177Y-27141543D01*
X74412037Y-27066400D01*
X78750102Y-27066400D01*
X78930376Y-27141256D01*
X79259377Y-27141543D01*
X79441242Y-27066398D01*
X83779304Y-27066398D01*
X83959578Y-27141254D01*
X84288579Y-27141541D01*
X84470434Y-27066400D01*
X89519704Y-27066400D01*
X89699978Y-27141256D01*
X90028979Y-27141543D01*
X90333046Y-27015905D01*
X90565888Y-26783470D01*
X90692056Y-26479622D01*
X90692343Y-26150621D01*
X90566705Y-25846554D01*
X90334270Y-25613712D01*
X90125443Y-25527000D01*
X124459837Y-25527000D01*
X124333162Y-124333162D01*
X25502000Y-124459706D01*
X25502000Y-32401412D01*
X26710130Y-32401412D01*
X27209841Y-33610805D01*
X28134329Y-34536907D01*
X29342847Y-35038728D01*
X30651412Y-35039870D01*
X31860805Y-34540159D01*
X32786907Y-33615671D01*
X33288728Y-32407153D01*
X33289870Y-31098588D01*
X32790159Y-29889195D01*
X31865671Y-28963093D01*
X30657153Y-28461272D01*
X29348588Y-28460130D01*
X28139195Y-28959841D01*
X27213093Y-29884329D01*
X26711272Y-31092847D01*
X26710130Y-32401412D01*
X25502000Y-32401412D01*
X25502000Y-25527000D01*
X53461035Y-25527000D01*
X53375361Y-25562400D01*
G36*
X101265999Y-85200571D02*
X99917598Y-86548972D01*
X99785219Y-86548857D01*
X99481152Y-86674495D01*
X99248310Y-86906930D01*
X99122142Y-87210778D01*
X99121855Y-87539779D01*
X99247493Y-87843846D01*
X99479928Y-88076688D01*
X99783776Y-88202856D01*
X100112777Y-88203143D01*
X100416844Y-88077505D01*
X100649686Y-87845070D01*
X100775854Y-87541222D01*
X100775971Y-87407455D01*
X102302213Y-85881213D01*
X102318000Y-85857586D01*
X102318000Y-100101354D01*
X102181401Y-100237953D01*
X102091025Y-100237874D01*
X101823725Y-100348320D01*
X101619039Y-100552650D01*
X101508126Y-100819756D01*
X101507874Y-101108975D01*
X101618320Y-101376275D01*
X101778369Y-101536603D01*
X101619039Y-101695656D01*
X101536435Y-101894587D01*
X101454680Y-101696725D01*
X101250350Y-101492039D01*
X100983244Y-101381126D01*
X100891692Y-101381046D01*
X97961000Y-98450354D01*
X97961000Y-93853000D01*
X97918982Y-93641759D01*
X97918982Y-93641758D01*
X97799323Y-93462677D01*
X94924427Y-90587781D01*
X95184857Y-90587781D01*
X95310495Y-90891848D01*
X95542930Y-91124690D01*
X95846778Y-91250858D01*
X96175779Y-91251145D01*
X96479846Y-91125507D01*
X96712688Y-90893072D01*
X96838856Y-90589224D01*
X96839143Y-90260223D01*
X96713505Y-89956156D01*
X96481070Y-89723314D01*
X96177222Y-89597146D01*
X95848221Y-89596859D01*
X95544154Y-89722497D01*
X95311312Y-89954932D01*
X95185144Y-90258780D01*
X95184857Y-90587781D01*
X94924427Y-90587781D01*
X92627000Y-88290354D01*
X92627000Y-76112062D01*
X92728320Y-76357275D01*
X92932650Y-76561961D01*
X93199756Y-76672874D01*
X93488975Y-76673126D01*
X93756275Y-76562680D01*
X93899383Y-76419821D01*
X93938895Y-76515446D01*
X94171330Y-76748288D01*
X94475178Y-76874456D01*
X94804179Y-76874743D01*
X95108246Y-76749105D01*
X95341088Y-76516670D01*
X95366454Y-76455580D01*
X95472650Y-76561961D01*
X95739756Y-76672874D01*
X96028975Y-76673126D01*
X96296275Y-76562680D01*
X96413970Y-76445189D01*
X96453495Y-76540846D01*
X96685930Y-76773688D01*
X96989778Y-76899856D01*
X97318779Y-76900143D01*
X97622846Y-76774505D01*
X97855688Y-76542070D01*
X97881067Y-76480949D01*
X98012650Y-76612761D01*
X98268397Y-76718957D01*
X97907677Y-77079677D01*
X97788018Y-77258758D01*
X97746000Y-77470000D01*
X97746000Y-91598800D01*
X97682039Y-91662650D01*
X97571126Y-91929756D01*
X97570874Y-92218975D01*
X97681320Y-92486275D01*
X97885650Y-92690961D01*
X98152756Y-92801874D01*
X98441975Y-92802126D01*
X98709275Y-92691680D01*
X98913961Y-92487350D01*
X99024874Y-92220244D01*
X99025126Y-91931025D01*
X98914680Y-91663725D01*
X98850000Y-91598932D01*
X98850000Y-77698646D01*
X100891599Y-75657047D01*
X100981975Y-75657126D01*
X101249275Y-75546680D01*
X101265999Y-75529985D01*
X101265999Y-85200571D01*
X101265999Y-85200571D01*
G37*
X101265999Y-85200571D02*
X99917598Y-86548972D01*
X99785219Y-86548857D01*
X99481152Y-86674495D01*
X99248310Y-86906930D01*
X99122142Y-87210778D01*
X99121855Y-87539779D01*
X99247493Y-87843846D01*
X99479928Y-88076688D01*
X99783776Y-88202856D01*
X100112777Y-88203143D01*
X100416844Y-88077505D01*
X100649686Y-87845070D01*
X100775854Y-87541222D01*
X100775971Y-87407455D01*
X102302213Y-85881213D01*
X102318000Y-85857586D01*
X102318000Y-100101354D01*
X102181401Y-100237953D01*
X102091025Y-100237874D01*
X101823725Y-100348320D01*
X101619039Y-100552650D01*
X101508126Y-100819756D01*
X101507874Y-101108975D01*
X101618320Y-101376275D01*
X101778369Y-101536603D01*
X101619039Y-101695656D01*
X101536435Y-101894587D01*
X101454680Y-101696725D01*
X101250350Y-101492039D01*
X100983244Y-101381126D01*
X100891692Y-101381046D01*
X97961000Y-98450354D01*
X97961000Y-93853000D01*
X97918982Y-93641759D01*
X97918982Y-93641758D01*
X97799323Y-93462677D01*
X94924427Y-90587781D01*
X95184857Y-90587781D01*
X95310495Y-90891848D01*
X95542930Y-91124690D01*
X95846778Y-91250858D01*
X96175779Y-91251145D01*
X96479846Y-91125507D01*
X96712688Y-90893072D01*
X96838856Y-90589224D01*
X96839143Y-90260223D01*
X96713505Y-89956156D01*
X96481070Y-89723314D01*
X96177222Y-89597146D01*
X95848221Y-89596859D01*
X95544154Y-89722497D01*
X95311312Y-89954932D01*
X95185144Y-90258780D01*
X95184857Y-90587781D01*
X94924427Y-90587781D01*
X92627000Y-88290354D01*
X92627000Y-76112062D01*
X92728320Y-76357275D01*
X92932650Y-76561961D01*
X93199756Y-76672874D01*
X93488975Y-76673126D01*
X93756275Y-76562680D01*
X93899383Y-76419821D01*
X93938895Y-76515446D01*
X94171330Y-76748288D01*
X94475178Y-76874456D01*
X94804179Y-76874743D01*
X95108246Y-76749105D01*
X95341088Y-76516670D01*
X95366454Y-76455580D01*
X95472650Y-76561961D01*
X95739756Y-76672874D01*
X96028975Y-76673126D01*
X96296275Y-76562680D01*
X96413970Y-76445189D01*
X96453495Y-76540846D01*
X96685930Y-76773688D01*
X96989778Y-76899856D01*
X97318779Y-76900143D01*
X97622846Y-76774505D01*
X97855688Y-76542070D01*
X97881067Y-76480949D01*
X98012650Y-76612761D01*
X98268397Y-76718957D01*
X97907677Y-77079677D01*
X97788018Y-77258758D01*
X97746000Y-77470000D01*
X97746000Y-91598800D01*
X97682039Y-91662650D01*
X97571126Y-91929756D01*
X97570874Y-92218975D01*
X97681320Y-92486275D01*
X97885650Y-92690961D01*
X98152756Y-92801874D01*
X98441975Y-92802126D01*
X98709275Y-92691680D01*
X98913961Y-92487350D01*
X99024874Y-92220244D01*
X99025126Y-91931025D01*
X98914680Y-91663725D01*
X98850000Y-91598932D01*
X98850000Y-77698646D01*
X100891599Y-75657047D01*
X100981975Y-75657126D01*
X101249275Y-75546680D01*
X101265999Y-75529985D01*
X101265999Y-85200571D01*
G36*
X60661996Y-57632642D02*
X60661996Y-60991800D01*
X60598035Y-61055650D01*
X60487122Y-61322756D01*
X60486870Y-61611975D01*
X60597316Y-61879275D01*
X60801646Y-62083961D01*
X61068752Y-62194874D01*
X61357971Y-62195126D01*
X61625271Y-62084680D01*
X61829957Y-61880350D01*
X61940870Y-61613244D01*
X61941122Y-61324025D01*
X61830676Y-61056725D01*
X61765996Y-60991932D01*
X61765996Y-57557053D01*
X61839675Y-57667321D01*
X62287600Y-58115246D01*
X62287600Y-60294799D01*
X62329618Y-60506041D01*
X62449277Y-60685122D01*
X63283001Y-61518846D01*
X63283001Y-101497700D01*
X63277350Y-101492039D01*
X63010244Y-101381126D01*
X62918692Y-101381046D01*
X59219392Y-97681746D01*
X59219392Y-88255784D01*
X59397778Y-88329856D01*
X59726779Y-88330143D01*
X59737740Y-88325614D01*
X59680677Y-88382677D01*
X59561018Y-88561758D01*
X59527505Y-88730241D01*
X59519000Y-88773000D01*
X59519000Y-91217800D01*
X59455039Y-91281650D01*
X59344126Y-91548756D01*
X59343874Y-91837975D01*
X59454320Y-92105275D01*
X59658650Y-92309961D01*
X59925756Y-92420874D01*
X60214975Y-92421126D01*
X60482275Y-92310680D01*
X60686961Y-92106350D01*
X60797874Y-91839244D01*
X60798126Y-91550025D01*
X60687680Y-91282725D01*
X60623000Y-91217932D01*
X60623000Y-89001646D01*
X62239323Y-87385323D01*
X62358982Y-87206242D01*
X62401000Y-86995000D01*
X62401000Y-76301646D01*
X62537599Y-76165047D01*
X62627975Y-76165126D01*
X62895275Y-76054680D01*
X63099961Y-75850350D01*
X63210874Y-75583244D01*
X63211126Y-75294025D01*
X63100680Y-75026725D01*
X62896350Y-74822039D01*
X62629244Y-74711126D01*
X62340025Y-74710874D01*
X62072725Y-74821320D01*
X61868039Y-75025650D01*
X61757126Y-75292756D01*
X61757046Y-75384308D01*
X61458677Y-75682677D01*
X61339018Y-75861758D01*
X61297001Y-76072996D01*
X61297000Y-76073000D01*
X61297000Y-86766354D01*
X60386110Y-87677244D01*
X60389856Y-87668222D01*
X60390143Y-87339221D01*
X60264505Y-87035154D01*
X60170000Y-86940484D01*
X60170000Y-76922823D01*
X60179756Y-76926874D01*
X60468975Y-76927126D01*
X60736275Y-76816680D01*
X60940961Y-76612350D01*
X61051874Y-76345244D01*
X61052126Y-76056025D01*
X60941680Y-75788725D01*
X60877000Y-75723932D01*
X60877000Y-73628204D01*
X60940961Y-73564354D01*
X61051874Y-73297248D01*
X61052126Y-73008029D01*
X60941680Y-72740729D01*
X60737350Y-72536043D01*
X60470244Y-72425130D01*
X60181025Y-72424878D01*
X60170000Y-72429433D01*
X60170000Y-69993975D01*
X60867874Y-69993975D01*
X60978320Y-70261275D01*
X61043000Y-70326068D01*
X61043000Y-71405800D01*
X60979039Y-71469650D01*
X60868126Y-71736756D01*
X60867874Y-72025975D01*
X60978320Y-72293275D01*
X61182650Y-72497961D01*
X61449756Y-72608874D01*
X61738975Y-72609126D01*
X62006275Y-72498680D01*
X62210961Y-72294350D01*
X62321874Y-72027244D01*
X62322126Y-71738025D01*
X62211680Y-71470725D01*
X62147000Y-71405932D01*
X62147000Y-70326200D01*
X62210961Y-70262350D01*
X62321874Y-69995244D01*
X62322126Y-69706025D01*
X62211680Y-69438725D01*
X62007350Y-69234039D01*
X61740244Y-69123126D01*
X61451025Y-69122874D01*
X61183725Y-69233320D01*
X60979039Y-69437650D01*
X60868126Y-69704756D01*
X60867874Y-69993975D01*
X60170000Y-69993975D01*
X60170000Y-57150000D01*
X60167677Y-57138323D01*
X60661996Y-57632642D01*
X60661996Y-57632642D01*
G37*
X60661996Y-57632642D02*
X60661996Y-60991800D01*
X60598035Y-61055650D01*
X60487122Y-61322756D01*
X60486870Y-61611975D01*
X60597316Y-61879275D01*
X60801646Y-62083961D01*
X61068752Y-62194874D01*
X61357971Y-62195126D01*
X61625271Y-62084680D01*
X61829957Y-61880350D01*
X61940870Y-61613244D01*
X61941122Y-61324025D01*
X61830676Y-61056725D01*
X61765996Y-60991932D01*
X61765996Y-57557053D01*
X61839675Y-57667321D01*
X62287600Y-58115246D01*
X62287600Y-60294799D01*
X62329618Y-60506041D01*
X62449277Y-60685122D01*
X63283001Y-61518846D01*
X63283001Y-101497700D01*
X63277350Y-101492039D01*
X63010244Y-101381126D01*
X62918692Y-101381046D01*
X59219392Y-97681746D01*
X59219392Y-88255784D01*
X59397778Y-88329856D01*
X59726779Y-88330143D01*
X59737740Y-88325614D01*
X59680677Y-88382677D01*
X59561018Y-88561758D01*
X59527505Y-88730241D01*
X59519000Y-88773000D01*
X59519000Y-91217800D01*
X59455039Y-91281650D01*
X59344126Y-91548756D01*
X59343874Y-91837975D01*
X59454320Y-92105275D01*
X59658650Y-92309961D01*
X59925756Y-92420874D01*
X60214975Y-92421126D01*
X60482275Y-92310680D01*
X60686961Y-92106350D01*
X60797874Y-91839244D01*
X60798126Y-91550025D01*
X60687680Y-91282725D01*
X60623000Y-91217932D01*
X60623000Y-89001646D01*
X62239323Y-87385323D01*
X62358982Y-87206242D01*
X62401000Y-86995000D01*
X62401000Y-76301646D01*
X62537599Y-76165047D01*
X62627975Y-76165126D01*
X62895275Y-76054680D01*
X63099961Y-75850350D01*
X63210874Y-75583244D01*
X63211126Y-75294025D01*
X63100680Y-75026725D01*
X62896350Y-74822039D01*
X62629244Y-74711126D01*
X62340025Y-74710874D01*
X62072725Y-74821320D01*
X61868039Y-75025650D01*
X61757126Y-75292756D01*
X61757046Y-75384308D01*
X61458677Y-75682677D01*
X61339018Y-75861758D01*
X61297001Y-76072996D01*
X61297000Y-76073000D01*
X61297000Y-86766354D01*
X60386110Y-87677244D01*
X60389856Y-87668222D01*
X60390143Y-87339221D01*
X60264505Y-87035154D01*
X60170000Y-86940484D01*
X60170000Y-76922823D01*
X60179756Y-76926874D01*
X60468975Y-76927126D01*
X60736275Y-76816680D01*
X60940961Y-76612350D01*
X61051874Y-76345244D01*
X61052126Y-76056025D01*
X60941680Y-75788725D01*
X60877000Y-75723932D01*
X60877000Y-73628204D01*
X60940961Y-73564354D01*
X61051874Y-73297248D01*
X61052126Y-73008029D01*
X60941680Y-72740729D01*
X60737350Y-72536043D01*
X60470244Y-72425130D01*
X60181025Y-72424878D01*
X60170000Y-72429433D01*
X60170000Y-69993975D01*
X60867874Y-69993975D01*
X60978320Y-70261275D01*
X61043000Y-70326068D01*
X61043000Y-71405800D01*
X60979039Y-71469650D01*
X60868126Y-71736756D01*
X60867874Y-72025975D01*
X60978320Y-72293275D01*
X61182650Y-72497961D01*
X61449756Y-72608874D01*
X61738975Y-72609126D01*
X62006275Y-72498680D01*
X62210961Y-72294350D01*
X62321874Y-72027244D01*
X62322126Y-71738025D01*
X62211680Y-71470725D01*
X62147000Y-71405932D01*
X62147000Y-70326200D01*
X62210961Y-70262350D01*
X62321874Y-69995244D01*
X62322126Y-69706025D01*
X62211680Y-69438725D01*
X62007350Y-69234039D01*
X61740244Y-69123126D01*
X61451025Y-69122874D01*
X61183725Y-69233320D01*
X60979039Y-69437650D01*
X60868126Y-69704756D01*
X60867874Y-69993975D01*
X60170000Y-69993975D01*
X60170000Y-57150000D01*
X60167677Y-57138323D01*
X60661996Y-57632642D01*
M02*
