M48
;DRILL file {KiCad 4.0.7} date Tuesday, June 26, 2018 'PMt' 11:45:41 PM
;FORMAT={-:-/ absolute / metric / decimal}
FMAT,2
METRIC,TZ
T1C0.400
T2C0.500
T3C0.750
T4C1.000
T5C1.016
T6C1.700
%
G90
G05
M71
T1
X31.293Y-106.375
X33.782Y-95.885
X34.163Y-58.801
X34.468Y-91.491
X34.468Y-96.901
X35.179Y-89.154
X35.179Y-101.219
X37.592Y-93.345
X37.592Y-99.568
X38.1Y-55.88
X40.005Y-55.88
X42.545Y-55.88
X43.815Y-57.15
X43.815Y-84.455
X43.815Y-96.012
X45.085Y-55.88
X45.085Y-101.981
X45.999Y-87.122
X46.355Y-57.15
X47.625Y-101.981
X50.165Y-99.06
X50.165Y-102.235
X51.105Y-87.173
X51.435Y-95.885
X51.435Y-97.917
X53.975Y-69.85
X55.209Y-74.585
X56.134Y-61.468
X56.134Y-57.15
X57.785Y-76.2
X59.69Y-55.88
X60.071Y-91.694
X60.325Y-73.152
X60.325Y-76.2
X60.96Y-51.943
X61.214Y-61.468
X61.595Y-69.85
X61.595Y-71.882
X62.23Y-55.88
X62.484Y-75.438
X62.865Y-102.108
X64.135Y-56.515
X64.135Y-102.108
X65.196Y-86.995
X66.675Y-102.108
X67.818Y-51.943
X67.945Y-57.785
X69.215Y-99.06
X69.215Y-102.235
X69.342Y-87.122
X70.485Y-95.885
X70.485Y-97.917
X73.025Y-69.85
X73.914Y-74.93
X75.61Y-61.468
X75.692Y-56.769
X76.581Y-57.785
X76.835Y-75.946
X79.375Y-73.152
X79.375Y-75.946
X79.502Y-92.456
X80.366Y-61.417
X80.391Y-55.88
X80.645Y-69.85
X80.645Y-71.882
X81.915Y-74.93
X81.915Y-101.981
X83.185Y-101.6
X83.484Y-55.499
X84.029Y-87.249
X84.455Y-55.372
X85.471Y-57.785
X85.725Y-101.727
X88.265Y-57.785
X88.265Y-102.235
X88.9Y-99.06
X89.154Y-87.249
X89.535Y-95.885
X89.535Y-97.917
X92.075Y-69.977
X93.345Y-56.642
X93.345Y-75.946
X95.168Y-61.468
X95.25Y-56.007
X95.885Y-57.785
X95.885Y-75.946
X98.298Y-92.075
X98.425Y-75.997
X99.187Y-73.152
X99.441Y-55.118
X99.441Y-61.468
X99.695Y-69.85
X99.695Y-71.882
X100.838Y-74.93
X100.838Y-102.108
X102.235Y-100.965
X102.235Y-102.108
X102.87Y-55.245
X103.495Y-87.503
X103.505Y-51.689
X104.14Y-55.245
X107.315Y-57.785
X107.315Y-99.06
X107.315Y-101.854
X108.204Y-87.122
X108.585Y-95.885
X108.585Y-97.917
X108.839Y-58.42
X108.839Y-64.135
X110.49Y-55.245
X110.871Y-56.769
X112.395Y-75.946
X112.522Y-61.595
X114.427Y-57.785
X114.935Y-75.946
X117.475Y-70.739
X117.475Y-73.152
X117.475Y-75.946
X117.475Y-99.06
X118.745Y-71.882
X118.745Y-100.203
X118.745Y-74.168
X120.015Y-97.917
X121.031Y-97.053
T2
X35.814Y-38.227
X35.814Y-50.419
X36.322Y-60.325
X36.322Y-85.852
X36.322Y-111.125
X38.735Y-105.791
X40.01Y-102.505
X40.01Y-110.993
X40.513Y-48.895
X40.513Y-48.895
X41.275Y-46.609
X42.545Y-46.101
X42.799Y-89.535
X42.867Y-96.126
X43.815Y-46.609
X45.085Y-46.101
X46.355Y-48.895
X46.355Y-102.108
X47.625Y-46.101
X47.752Y-90.043
X48.895Y-46.609
X48.895Y-79.756
X48.895Y-102.108
X51.308Y-62.484
X52.705Y-69.977
X53.721Y-26.314
X53.848Y-94.361
X53.848Y-103.759
X54.331Y-38.252
X56.515Y-75.438
X57.658Y-61.468
X57.785Y-74.93
X57.785Y-105.664
X58.776Y-26.314
X59.055Y-48.26
X59.436Y-38.252
X59.563Y-87.503
X60.96Y-46.99
X61.595Y-96.012
X62.865Y-66.675
X62.865Y-79.502
X63.5Y-46.101
X63.856Y-26.314
X64.541Y-38.252
X64.77Y-46.609
X65.405Y-102.108
X66.904Y-89.814
X67.31Y-42.418
X67.945Y-102.108
X68.58Y-46.101
X68.936Y-26.314
X69.621Y-38.252
X69.85Y-42.418
X71.755Y-69.977
X72.009Y-40.005
X72.009Y-64.135
X72.263Y-44.196
X72.771Y-94.361
X72.898Y-39.243
X72.898Y-90.17
X72.898Y-103.759
X74.066Y-26.314
X74.676Y-38.252
X75.565Y-76.073
X76.454Y-90.17
X76.683Y-39.522
X76.835Y-105.664
X77.325Y-64.135
X78.105Y-39.37
X78.105Y-76.073
X78.232Y-47.498
X79.096Y-26.314
X79.781Y-38.252
X80.645Y-96.012
X81.026Y-87.376
X81.915Y-66.675
X81.915Y-79.375
X83.584Y-45.847
X84.125Y-26.314
X84.455Y-42.418
X84.455Y-102.108
X84.793Y-38.252
X85.217Y-46.355
X85.725Y-42.418
X86.196Y-87.122
X86.995Y-102.108
X89.535Y-42.418
X89.535Y-46.101
X89.865Y-26.314
X90.805Y-42.418
X90.805Y-69.977
X91.059Y-63.881
X91.948Y-94.361
X91.948Y-103.759
X92.075Y-90.424
X93.218Y-44.196
X94.539Y-47.117
X94.64Y-76.048
X95.885Y-105.664
X96.012Y-90.424
X96.139Y-63.627
X97.155Y-76.073
X97.409Y-46.228
X98.552Y-48.26
X99.695Y-96.012
X99.949Y-87.376
X100.965Y-66.675
X100.965Y-79.375
X103.505Y-102.108
X104.14Y-45.974
X104.14Y-47.498
X105.41Y-42.418
X106.045Y-102.108
X106.426Y-91.059
X106.68Y-42.418
X106.68Y-45.974
X108.077Y-49.022
X109.22Y-45.974
X109.804Y-47.854
X109.855Y-69.977
X110.109Y-61.722
X110.49Y-36.83
X110.998Y-94.361
X110.998Y-103.759
X111.76Y-42.418
X113.436Y-48.717
X113.665Y-76.073
X114.046Y-44.196
X115.189Y-52.197
X115.189Y-63.627
X116.205Y-76.073
X121.031Y-68.326
X122.072Y-77.724
T3
X51.435Y-44.323
T4
X39.144Y-30.48
X39.144Y-33.02
X41.684Y-30.48
X41.684Y-33.02
X44.224Y-30.48
X44.224Y-33.02
X46.764Y-30.48
X46.764Y-33.02
X49.304Y-30.48
X49.304Y-33.02
X51.844Y-30.48
X51.844Y-33.02
X54.384Y-30.48
X54.384Y-33.02
X56.924Y-30.48
X56.924Y-33.02
X59.464Y-30.48
X59.464Y-33.02
X62.004Y-30.48
X62.004Y-33.02
X64.544Y-30.48
X64.544Y-33.02
X67.084Y-30.48
X67.084Y-33.02
X69.624Y-30.48
X69.624Y-33.02
X72.164Y-30.48
X72.164Y-33.02
X74.704Y-30.48
X74.704Y-33.02
X77.244Y-30.48
X77.244Y-33.02
X79.784Y-30.48
X79.784Y-33.02
X82.324Y-30.48
X82.324Y-33.02
X84.864Y-30.48
X84.864Y-33.02
X87.404Y-30.48
X87.404Y-33.02
T5
X30.Y-65.
X30.Y-67.54
X30.Y-70.08
X30.Y-72.62
X30.Y-75.16
X30.023Y-86.97
X30.023Y-89.51
X30.023Y-92.05
X30.023Y-94.59
X30.023Y-97.13
X32.54Y-65.
X32.54Y-67.54
X32.54Y-70.08
X32.54Y-72.62
X32.54Y-75.16
X32.563Y-86.97
X32.563Y-89.51
X32.563Y-92.05
X32.563Y-94.59
X32.563Y-97.13
T6
X30.18Y-116.713
X34.14Y-116.713
X38.1Y-116.713
X42.06Y-116.713
X53.19Y-116.713
X57.15Y-116.713
X61.11Y-116.713
X65.07Y-116.713
T0
M30
