%TF.GenerationSoftware,KiCad,Pcbnew,4.0.7*%
%TF.CreationDate,2018-06-26T23:45:36-04:00*%
%TF.ProjectId,column_driver,636F6C756D6E5F6472697665722E6B69,rev?*%
%TF.FileFunction,Legend,Top*%
%FSLAX46Y46*%
G04 Gerber Fmt 4.6, Leading zero omitted, Abs format (unit mm)*
G04 Created by KiCad (PCBNEW 4.0.7) date Tuesday, June 26, 2018 'PMt' 11:45:36 PM*
%MOMM*%
%LPD*%
G01*
G04 APERTURE LIST*
%ADD10C,0.100000*%
%ADD11C,0.250000*%
%ADD12C,0.300000*%
%ADD13C,0.500000*%
%ADD14C,0.150000*%
%ADD15C,0.120000*%
G04 APERTURE END LIST*
D10*
D11*
X27307381Y-108505001D02*
X27307381Y-108314524D01*
X27355000Y-108219286D01*
X27450238Y-108124048D01*
X27640714Y-108076429D01*
X27974048Y-108076429D01*
X28164524Y-108124048D01*
X28259762Y-108219286D01*
X28307381Y-108314524D01*
X28307381Y-108505001D01*
X28259762Y-108600239D01*
X28164524Y-108695477D01*
X27974048Y-108743096D01*
X27640714Y-108743096D01*
X27450238Y-108695477D01*
X27355000Y-108600239D01*
X27307381Y-108505001D01*
X27307381Y-107647858D02*
X28116905Y-107647858D01*
X28212143Y-107600239D01*
X28259762Y-107552620D01*
X28307381Y-107457382D01*
X28307381Y-107266905D01*
X28259762Y-107171667D01*
X28212143Y-107124048D01*
X28116905Y-107076429D01*
X27307381Y-107076429D01*
X27307381Y-106743096D02*
X27307381Y-106171667D01*
X28307381Y-106457382D02*
X27307381Y-106457382D01*
X27307381Y-105219286D02*
X27307381Y-104647857D01*
X28307381Y-104933572D02*
X27307381Y-104933572D01*
X27307381Y-104124048D02*
X27307381Y-103933571D01*
X27355000Y-103838333D01*
X27450238Y-103743095D01*
X27640714Y-103695476D01*
X27974048Y-103695476D01*
X28164524Y-103743095D01*
X28259762Y-103838333D01*
X28307381Y-103933571D01*
X28307381Y-104124048D01*
X28259762Y-104219286D01*
X28164524Y-104314524D01*
X27974048Y-104362143D01*
X27640714Y-104362143D01*
X27450238Y-104314524D01*
X27355000Y-104219286D01*
X27307381Y-104124048D01*
X30057381Y-113124048D02*
X29057381Y-113124048D01*
X29057381Y-112885953D01*
X29105000Y-112743095D01*
X29200238Y-112647857D01*
X29295476Y-112600238D01*
X29485952Y-112552619D01*
X29628810Y-112552619D01*
X29819286Y-112600238D01*
X29914524Y-112647857D01*
X30009762Y-112743095D01*
X30057381Y-112885953D01*
X30057381Y-113124048D01*
X29057381Y-111933572D02*
X29057381Y-111743095D01*
X29105000Y-111647857D01*
X29200238Y-111552619D01*
X29390714Y-111505000D01*
X29724048Y-111505000D01*
X29914524Y-111552619D01*
X30009762Y-111647857D01*
X30057381Y-111743095D01*
X30057381Y-111933572D01*
X30009762Y-112028810D01*
X29914524Y-112124048D01*
X29724048Y-112171667D01*
X29390714Y-112171667D01*
X29200238Y-112124048D01*
X29105000Y-112028810D01*
X29057381Y-111933572D01*
X29057381Y-111171667D02*
X30057381Y-110933572D01*
X29343095Y-110743095D01*
X30057381Y-110552619D01*
X29057381Y-110314524D01*
X30057381Y-109933572D02*
X29057381Y-109933572D01*
X30057381Y-109362143D01*
X29057381Y-109362143D01*
X30009762Y-108933572D02*
X30057381Y-108790715D01*
X30057381Y-108552619D01*
X30009762Y-108457381D01*
X29962143Y-108409762D01*
X29866905Y-108362143D01*
X29771667Y-108362143D01*
X29676429Y-108409762D01*
X29628810Y-108457381D01*
X29581190Y-108552619D01*
X29533571Y-108743096D01*
X29485952Y-108838334D01*
X29438333Y-108885953D01*
X29343095Y-108933572D01*
X29247857Y-108933572D01*
X29152619Y-108885953D01*
X29105000Y-108838334D01*
X29057381Y-108743096D01*
X29057381Y-108505000D01*
X29105000Y-108362143D01*
X29057381Y-108076429D02*
X29057381Y-107505000D01*
X30057381Y-107790715D02*
X29057381Y-107790715D01*
X30057381Y-106600238D02*
X29581190Y-106933572D01*
X30057381Y-107171667D02*
X29057381Y-107171667D01*
X29057381Y-106790714D01*
X29105000Y-106695476D01*
X29152619Y-106647857D01*
X29247857Y-106600238D01*
X29390714Y-106600238D01*
X29485952Y-106647857D01*
X29533571Y-106695476D01*
X29581190Y-106790714D01*
X29581190Y-107171667D01*
X29533571Y-106171667D02*
X29533571Y-105838333D01*
X30057381Y-105695476D02*
X30057381Y-106171667D01*
X29057381Y-106171667D01*
X29057381Y-105695476D01*
X29771667Y-105314524D02*
X29771667Y-104838333D01*
X30057381Y-105409762D02*
X29057381Y-105076429D01*
X30057381Y-104743095D01*
X30057381Y-104409762D02*
X29057381Y-104409762D01*
X29771667Y-104076428D01*
X29057381Y-103743095D01*
X30057381Y-103743095D01*
X31712143Y-108790714D02*
X31759762Y-108838333D01*
X31807381Y-108981190D01*
X31807381Y-109076428D01*
X31759762Y-109219286D01*
X31664524Y-109314524D01*
X31569286Y-109362143D01*
X31378810Y-109409762D01*
X31235952Y-109409762D01*
X31045476Y-109362143D01*
X30950238Y-109314524D01*
X30855000Y-109219286D01*
X30807381Y-109076428D01*
X30807381Y-108981190D01*
X30855000Y-108838333D01*
X30902619Y-108790714D01*
X30807381Y-108171667D02*
X30807381Y-107981190D01*
X30855000Y-107885952D01*
X30950238Y-107790714D01*
X31140714Y-107743095D01*
X31474048Y-107743095D01*
X31664524Y-107790714D01*
X31759762Y-107885952D01*
X31807381Y-107981190D01*
X31807381Y-108171667D01*
X31759762Y-108266905D01*
X31664524Y-108362143D01*
X31474048Y-108409762D01*
X31140714Y-108409762D01*
X30950238Y-108362143D01*
X30855000Y-108266905D01*
X30807381Y-108171667D01*
X31807381Y-106838333D02*
X31807381Y-107314524D01*
X30807381Y-107314524D01*
X30807381Y-106505000D02*
X31616905Y-106505000D01*
X31712143Y-106457381D01*
X31759762Y-106409762D01*
X31807381Y-106314524D01*
X31807381Y-106124047D01*
X31759762Y-106028809D01*
X31712143Y-105981190D01*
X31616905Y-105933571D01*
X30807381Y-105933571D01*
X31807381Y-105457381D02*
X30807381Y-105457381D01*
X31521667Y-105124047D01*
X30807381Y-104790714D01*
X31807381Y-104790714D01*
X31807381Y-104314524D02*
X30807381Y-104314524D01*
X31807381Y-103743095D01*
X30807381Y-103743095D01*
X33033571Y-107838333D02*
X33081190Y-107695476D01*
X33128810Y-107647857D01*
X33224048Y-107600238D01*
X33366905Y-107600238D01*
X33462143Y-107647857D01*
X33509762Y-107695476D01*
X33557381Y-107790714D01*
X33557381Y-108171667D01*
X32557381Y-108171667D01*
X32557381Y-107838333D01*
X32605000Y-107743095D01*
X32652619Y-107695476D01*
X32747857Y-107647857D01*
X32843095Y-107647857D01*
X32938333Y-107695476D01*
X32985952Y-107743095D01*
X33033571Y-107838333D01*
X33033571Y-108171667D01*
X32557381Y-106981191D02*
X32557381Y-106790714D01*
X32605000Y-106695476D01*
X32700238Y-106600238D01*
X32890714Y-106552619D01*
X33224048Y-106552619D01*
X33414524Y-106600238D01*
X33509762Y-106695476D01*
X33557381Y-106790714D01*
X33557381Y-106981191D01*
X33509762Y-107076429D01*
X33414524Y-107171667D01*
X33224048Y-107219286D01*
X32890714Y-107219286D01*
X32700238Y-107171667D01*
X32605000Y-107076429D01*
X32557381Y-106981191D01*
X33271667Y-106171667D02*
X33271667Y-105695476D01*
X33557381Y-106266905D02*
X32557381Y-105933572D01*
X33557381Y-105600238D01*
X33557381Y-104695476D02*
X33081190Y-105028810D01*
X33557381Y-105266905D02*
X32557381Y-105266905D01*
X32557381Y-104885952D01*
X32605000Y-104790714D01*
X32652619Y-104743095D01*
X32747857Y-104695476D01*
X32890714Y-104695476D01*
X32985952Y-104743095D01*
X33033571Y-104790714D01*
X33081190Y-104885952D01*
X33081190Y-105266905D01*
X33557381Y-104266905D02*
X32557381Y-104266905D01*
X32557381Y-104028810D01*
X32605000Y-103885952D01*
X32700238Y-103790714D01*
X32795476Y-103743095D01*
X32985952Y-103695476D01*
X33128810Y-103695476D01*
X33319286Y-103743095D01*
X33414524Y-103790714D01*
X33509762Y-103885952D01*
X33557381Y-104028810D01*
X33557381Y-104266905D01*
X27787981Y-58791505D02*
X26787981Y-58791505D01*
X27787981Y-58315315D02*
X26787981Y-58315315D01*
X27787981Y-57743886D01*
X26787981Y-57743886D01*
X27264171Y-56172457D02*
X27264171Y-56505791D01*
X27787981Y-56505791D02*
X26787981Y-56505791D01*
X26787981Y-56029600D01*
X27787981Y-55077219D02*
X27311790Y-55410553D01*
X27787981Y-55648648D02*
X26787981Y-55648648D01*
X26787981Y-55267695D01*
X26835600Y-55172457D01*
X26883219Y-55124838D01*
X26978457Y-55077219D01*
X27121314Y-55077219D01*
X27216552Y-55124838D01*
X27264171Y-55172457D01*
X27311790Y-55267695D01*
X27311790Y-55648648D01*
X26787981Y-54458172D02*
X26787981Y-54267695D01*
X26835600Y-54172457D01*
X26930838Y-54077219D01*
X27121314Y-54029600D01*
X27454648Y-54029600D01*
X27645124Y-54077219D01*
X27740362Y-54172457D01*
X27787981Y-54267695D01*
X27787981Y-54458172D01*
X27740362Y-54553410D01*
X27645124Y-54648648D01*
X27454648Y-54696267D01*
X27121314Y-54696267D01*
X26930838Y-54648648D01*
X26835600Y-54553410D01*
X26787981Y-54458172D01*
X27787981Y-53601029D02*
X26787981Y-53601029D01*
X27502267Y-53267695D01*
X26787981Y-52934362D01*
X27787981Y-52934362D01*
X27787981Y-51124838D02*
X27311790Y-51458172D01*
X27787981Y-51696267D02*
X26787981Y-51696267D01*
X26787981Y-51315314D01*
X26835600Y-51220076D01*
X26883219Y-51172457D01*
X26978457Y-51124838D01*
X27121314Y-51124838D01*
X27216552Y-51172457D01*
X27264171Y-51220076D01*
X27311790Y-51315314D01*
X27311790Y-51696267D01*
X26787981Y-50505791D02*
X26787981Y-50315314D01*
X26835600Y-50220076D01*
X26930838Y-50124838D01*
X27121314Y-50077219D01*
X27454648Y-50077219D01*
X27645124Y-50124838D01*
X27740362Y-50220076D01*
X27787981Y-50315314D01*
X27787981Y-50505791D01*
X27740362Y-50601029D01*
X27645124Y-50696267D01*
X27454648Y-50743886D01*
X27121314Y-50743886D01*
X26930838Y-50696267D01*
X26835600Y-50601029D01*
X26787981Y-50505791D01*
X26787981Y-49743886D02*
X27787981Y-49505791D01*
X27073695Y-49315314D01*
X27787981Y-49124838D01*
X26787981Y-48886743D01*
X29014171Y-58458171D02*
X29061790Y-58315314D01*
X29109410Y-58267695D01*
X29204648Y-58220076D01*
X29347505Y-58220076D01*
X29442743Y-58267695D01*
X29490362Y-58315314D01*
X29537981Y-58410552D01*
X29537981Y-58791505D01*
X28537981Y-58791505D01*
X28537981Y-58458171D01*
X28585600Y-58362933D01*
X28633219Y-58315314D01*
X28728457Y-58267695D01*
X28823695Y-58267695D01*
X28918933Y-58315314D01*
X28966552Y-58362933D01*
X29014171Y-58458171D01*
X29014171Y-58791505D01*
X28537981Y-57601029D02*
X28537981Y-57410552D01*
X28585600Y-57315314D01*
X28680838Y-57220076D01*
X28871314Y-57172457D01*
X29204648Y-57172457D01*
X29395124Y-57220076D01*
X29490362Y-57315314D01*
X29537981Y-57410552D01*
X29537981Y-57601029D01*
X29490362Y-57696267D01*
X29395124Y-57791505D01*
X29204648Y-57839124D01*
X28871314Y-57839124D01*
X28680838Y-57791505D01*
X28585600Y-57696267D01*
X28537981Y-57601029D01*
X29252267Y-56791505D02*
X29252267Y-56315314D01*
X29537981Y-56886743D02*
X28537981Y-56553410D01*
X29537981Y-56220076D01*
X29537981Y-55315314D02*
X29061790Y-55648648D01*
X29537981Y-55886743D02*
X28537981Y-55886743D01*
X28537981Y-55505790D01*
X28585600Y-55410552D01*
X28633219Y-55362933D01*
X28728457Y-55315314D01*
X28871314Y-55315314D01*
X28966552Y-55362933D01*
X29014171Y-55410552D01*
X29061790Y-55505790D01*
X29061790Y-55886743D01*
X29537981Y-54886743D02*
X28537981Y-54886743D01*
X28537981Y-54648648D01*
X28585600Y-54505790D01*
X28680838Y-54410552D01*
X28776076Y-54362933D01*
X28966552Y-54315314D01*
X29109410Y-54315314D01*
X29299886Y-54362933D01*
X29395124Y-54410552D01*
X29490362Y-54505790D01*
X29537981Y-54648648D01*
X29537981Y-54886743D01*
X28537981Y-52934362D02*
X28537981Y-52743885D01*
X28585600Y-52648647D01*
X28680838Y-52553409D01*
X28871314Y-52505790D01*
X29204648Y-52505790D01*
X29395124Y-52553409D01*
X29490362Y-52648647D01*
X29537981Y-52743885D01*
X29537981Y-52934362D01*
X29490362Y-53029600D01*
X29395124Y-53124838D01*
X29204648Y-53172457D01*
X28871314Y-53172457D01*
X28680838Y-53124838D01*
X28585600Y-53029600D01*
X28537981Y-52934362D01*
X29537981Y-51505790D02*
X29061790Y-51839124D01*
X29537981Y-52077219D02*
X28537981Y-52077219D01*
X28537981Y-51696266D01*
X28585600Y-51601028D01*
X28633219Y-51553409D01*
X28728457Y-51505790D01*
X28871314Y-51505790D01*
X28966552Y-51553409D01*
X29014171Y-51601028D01*
X29061790Y-51696266D01*
X29061790Y-52077219D01*
X30287981Y-58791505D02*
X31097505Y-58791505D01*
X31192743Y-58743886D01*
X31240362Y-58696267D01*
X31287981Y-58601029D01*
X31287981Y-58410552D01*
X31240362Y-58315314D01*
X31192743Y-58267695D01*
X31097505Y-58220076D01*
X30287981Y-58220076D01*
X31287981Y-57743886D02*
X30287981Y-57743886D01*
X30287981Y-57362933D01*
X30335600Y-57267695D01*
X30383219Y-57220076D01*
X30478457Y-57172457D01*
X30621314Y-57172457D01*
X30716552Y-57220076D01*
X30764171Y-57267695D01*
X30811790Y-57362933D01*
X30811790Y-57743886D01*
X31240362Y-56791505D02*
X31287981Y-56648648D01*
X31287981Y-56410552D01*
X31240362Y-56315314D01*
X31192743Y-56267695D01*
X31097505Y-56220076D01*
X31002267Y-56220076D01*
X30907029Y-56267695D01*
X30859410Y-56315314D01*
X30811790Y-56410552D01*
X30764171Y-56601029D01*
X30716552Y-56696267D01*
X30668933Y-56743886D01*
X30573695Y-56791505D01*
X30478457Y-56791505D01*
X30383219Y-56743886D01*
X30335600Y-56696267D01*
X30287981Y-56601029D01*
X30287981Y-56362933D01*
X30335600Y-56220076D01*
X30287981Y-55934362D02*
X30287981Y-55362933D01*
X31287981Y-55648648D02*
X30287981Y-55648648D01*
X31287981Y-54458171D02*
X30811790Y-54791505D01*
X31287981Y-55029600D02*
X30287981Y-55029600D01*
X30287981Y-54648647D01*
X30335600Y-54553409D01*
X30383219Y-54505790D01*
X30478457Y-54458171D01*
X30621314Y-54458171D01*
X30716552Y-54505790D01*
X30764171Y-54553409D01*
X30811790Y-54648647D01*
X30811790Y-55029600D01*
X30764171Y-54029600D02*
X30764171Y-53696266D01*
X31287981Y-53553409D02*
X31287981Y-54029600D01*
X30287981Y-54029600D01*
X30287981Y-53553409D01*
X31002267Y-53172457D02*
X31002267Y-52696266D01*
X31287981Y-53267695D02*
X30287981Y-52934362D01*
X31287981Y-52601028D01*
X31287981Y-52267695D02*
X30287981Y-52267695D01*
X31002267Y-51934361D01*
X30287981Y-51601028D01*
X31287981Y-51601028D01*
X32942743Y-58220076D02*
X32990362Y-58267695D01*
X33037981Y-58410552D01*
X33037981Y-58505790D01*
X32990362Y-58648648D01*
X32895124Y-58743886D01*
X32799886Y-58791505D01*
X32609410Y-58839124D01*
X32466552Y-58839124D01*
X32276076Y-58791505D01*
X32180838Y-58743886D01*
X32085600Y-58648648D01*
X32037981Y-58505790D01*
X32037981Y-58410552D01*
X32085600Y-58267695D01*
X32133219Y-58220076D01*
X32037981Y-57601029D02*
X32037981Y-57410552D01*
X32085600Y-57315314D01*
X32180838Y-57220076D01*
X32371314Y-57172457D01*
X32704648Y-57172457D01*
X32895124Y-57220076D01*
X32990362Y-57315314D01*
X33037981Y-57410552D01*
X33037981Y-57601029D01*
X32990362Y-57696267D01*
X32895124Y-57791505D01*
X32704648Y-57839124D01*
X32371314Y-57839124D01*
X32180838Y-57791505D01*
X32085600Y-57696267D01*
X32037981Y-57601029D01*
X33037981Y-56267695D02*
X33037981Y-56743886D01*
X32037981Y-56743886D01*
X32037981Y-55934362D02*
X32847505Y-55934362D01*
X32942743Y-55886743D01*
X32990362Y-55839124D01*
X33037981Y-55743886D01*
X33037981Y-55553409D01*
X32990362Y-55458171D01*
X32942743Y-55410552D01*
X32847505Y-55362933D01*
X32037981Y-55362933D01*
X33037981Y-54886743D02*
X32037981Y-54886743D01*
X32752267Y-54553409D01*
X32037981Y-54220076D01*
X33037981Y-54220076D01*
X33037981Y-53743886D02*
X32037981Y-53743886D01*
X33037981Y-53172457D01*
X32037981Y-53172457D01*
X34264171Y-58458171D02*
X34311790Y-58315314D01*
X34359410Y-58267695D01*
X34454648Y-58220076D01*
X34597505Y-58220076D01*
X34692743Y-58267695D01*
X34740362Y-58315314D01*
X34787981Y-58410552D01*
X34787981Y-58791505D01*
X33787981Y-58791505D01*
X33787981Y-58458171D01*
X33835600Y-58362933D01*
X33883219Y-58315314D01*
X33978457Y-58267695D01*
X34073695Y-58267695D01*
X34168933Y-58315314D01*
X34216552Y-58362933D01*
X34264171Y-58458171D01*
X34264171Y-58791505D01*
X33787981Y-57601029D02*
X33787981Y-57410552D01*
X33835600Y-57315314D01*
X33930838Y-57220076D01*
X34121314Y-57172457D01*
X34454648Y-57172457D01*
X34645124Y-57220076D01*
X34740362Y-57315314D01*
X34787981Y-57410552D01*
X34787981Y-57601029D01*
X34740362Y-57696267D01*
X34645124Y-57791505D01*
X34454648Y-57839124D01*
X34121314Y-57839124D01*
X33930838Y-57791505D01*
X33835600Y-57696267D01*
X33787981Y-57601029D01*
X34502267Y-56791505D02*
X34502267Y-56315314D01*
X34787981Y-56886743D02*
X33787981Y-56553410D01*
X34787981Y-56220076D01*
X34787981Y-55315314D02*
X34311790Y-55648648D01*
X34787981Y-55886743D02*
X33787981Y-55886743D01*
X33787981Y-55505790D01*
X33835600Y-55410552D01*
X33883219Y-55362933D01*
X33978457Y-55315314D01*
X34121314Y-55315314D01*
X34216552Y-55362933D01*
X34264171Y-55410552D01*
X34311790Y-55505790D01*
X34311790Y-55886743D01*
X34787981Y-54886743D02*
X33787981Y-54886743D01*
X33787981Y-54648648D01*
X33835600Y-54505790D01*
X33930838Y-54410552D01*
X34026076Y-54362933D01*
X34216552Y-54315314D01*
X34359410Y-54315314D01*
X34549886Y-54362933D01*
X34645124Y-54410552D01*
X34740362Y-54505790D01*
X34787981Y-54648648D01*
X34787981Y-54886743D01*
D12*
X100436116Y-28059771D02*
X99936116Y-27345486D01*
X99578973Y-28059771D02*
X99578973Y-26559771D01*
X100150401Y-26559771D01*
X100293259Y-26631200D01*
X100364687Y-26702629D01*
X100436116Y-26845486D01*
X100436116Y-27059771D01*
X100364687Y-27202629D01*
X100293259Y-27274057D01*
X100150401Y-27345486D01*
X99578973Y-27345486D01*
X101650401Y-27988343D02*
X101507544Y-28059771D01*
X101221830Y-28059771D01*
X101078973Y-27988343D01*
X101007544Y-27845486D01*
X101007544Y-27274057D01*
X101078973Y-27131200D01*
X101221830Y-27059771D01*
X101507544Y-27059771D01*
X101650401Y-27131200D01*
X101721830Y-27274057D01*
X101721830Y-27416914D01*
X101007544Y-27559771D01*
X102221830Y-27059771D02*
X102578973Y-28059771D01*
X102936115Y-27059771D01*
X103507544Y-27916914D02*
X103578972Y-27988343D01*
X103507544Y-28059771D01*
X103436115Y-27988343D01*
X103507544Y-27916914D01*
X103507544Y-28059771D01*
X106150401Y-28059771D02*
X105293258Y-28059771D01*
X105721830Y-28059771D02*
X105721830Y-26559771D01*
X105578973Y-26774057D01*
X105436115Y-26916914D01*
X105293258Y-26988343D01*
X106793258Y-27916914D02*
X106864686Y-27988343D01*
X106793258Y-28059771D01*
X106721829Y-27988343D01*
X106793258Y-27916914D01*
X106793258Y-28059771D01*
X107793258Y-26559771D02*
X107936115Y-26559771D01*
X108078972Y-26631200D01*
X108150401Y-26702629D01*
X108221830Y-26845486D01*
X108293258Y-27131200D01*
X108293258Y-27488343D01*
X108221830Y-27774057D01*
X108150401Y-27916914D01*
X108078972Y-27988343D01*
X107936115Y-28059771D01*
X107793258Y-28059771D01*
X107650401Y-27988343D01*
X107578972Y-27916914D01*
X107507544Y-27774057D01*
X107436115Y-27488343D01*
X107436115Y-27131200D01*
X107507544Y-26845486D01*
X107578972Y-26702629D01*
X107650401Y-26631200D01*
X107793258Y-26559771D01*
X108936115Y-28059771D02*
X108936115Y-26559771D01*
X108936115Y-27131200D02*
X109078972Y-27059771D01*
X109364686Y-27059771D01*
X109507543Y-27131200D01*
X109578972Y-27202629D01*
X109650401Y-27345486D01*
X109650401Y-27774057D01*
X109578972Y-27916914D01*
X109507543Y-27988343D01*
X109364686Y-28059771D01*
X109078972Y-28059771D01*
X108936115Y-27988343D01*
X111864686Y-26559771D02*
X111864686Y-27631200D01*
X111793258Y-27845486D01*
X111650401Y-27988343D01*
X111436115Y-28059771D01*
X111293258Y-28059771D01*
X113221829Y-27059771D02*
X113221829Y-28059771D01*
X112578972Y-27059771D02*
X112578972Y-27845486D01*
X112650400Y-27988343D01*
X112793258Y-28059771D01*
X113007543Y-28059771D01*
X113150400Y-27988343D01*
X113221829Y-27916914D01*
X113936115Y-27059771D02*
X113936115Y-28059771D01*
X113936115Y-27202629D02*
X114007543Y-27131200D01*
X114150401Y-27059771D01*
X114364686Y-27059771D01*
X114507543Y-27131200D01*
X114578972Y-27274057D01*
X114578972Y-28059771D01*
X115864686Y-27988343D02*
X115721829Y-28059771D01*
X115436115Y-28059771D01*
X115293258Y-27988343D01*
X115221829Y-27845486D01*
X115221829Y-27274057D01*
X115293258Y-27131200D01*
X115436115Y-27059771D01*
X115721829Y-27059771D01*
X115864686Y-27131200D01*
X115936115Y-27274057D01*
X115936115Y-27416914D01*
X115221829Y-27559771D01*
X117650400Y-26702629D02*
X117721829Y-26631200D01*
X117864686Y-26559771D01*
X118221829Y-26559771D01*
X118364686Y-26631200D01*
X118436115Y-26702629D01*
X118507543Y-26845486D01*
X118507543Y-26988343D01*
X118436115Y-27202629D01*
X117578972Y-28059771D01*
X118507543Y-28059771D01*
X119436114Y-26559771D02*
X119578971Y-26559771D01*
X119721828Y-26631200D01*
X119793257Y-26702629D01*
X119864686Y-26845486D01*
X119936114Y-27131200D01*
X119936114Y-27488343D01*
X119864686Y-27774057D01*
X119793257Y-27916914D01*
X119721828Y-27988343D01*
X119578971Y-28059771D01*
X119436114Y-28059771D01*
X119293257Y-27988343D01*
X119221828Y-27916914D01*
X119150400Y-27774057D01*
X119078971Y-27488343D01*
X119078971Y-27131200D01*
X119150400Y-26845486D01*
X119221828Y-26702629D01*
X119293257Y-26631200D01*
X119436114Y-26559771D01*
X121364685Y-28059771D02*
X120507542Y-28059771D01*
X120936114Y-28059771D02*
X120936114Y-26559771D01*
X120793257Y-26774057D01*
X120650399Y-26916914D01*
X120507542Y-26988343D01*
X122221828Y-27202629D02*
X122078970Y-27131200D01*
X122007542Y-27059771D01*
X121936113Y-26916914D01*
X121936113Y-26845486D01*
X122007542Y-26702629D01*
X122078970Y-26631200D01*
X122221828Y-26559771D01*
X122507542Y-26559771D01*
X122650399Y-26631200D01*
X122721828Y-26702629D01*
X122793256Y-26845486D01*
X122793256Y-26916914D01*
X122721828Y-27059771D01*
X122650399Y-27131200D01*
X122507542Y-27202629D01*
X122221828Y-27202629D01*
X122078970Y-27274057D01*
X122007542Y-27345486D01*
X121936113Y-27488343D01*
X121936113Y-27774057D01*
X122007542Y-27916914D01*
X122078970Y-27988343D01*
X122221828Y-28059771D01*
X122507542Y-28059771D01*
X122650399Y-27988343D01*
X122721828Y-27916914D01*
X122793256Y-27774057D01*
X122793256Y-27488343D01*
X122721828Y-27345486D01*
X122650399Y-27274057D01*
X122507542Y-27202629D01*
D13*
X88429886Y-115446514D02*
X87429886Y-115446514D01*
X87429886Y-117017943D02*
X87429886Y-114017943D01*
X88858457Y-114017943D01*
X90429886Y-117017943D02*
X90144172Y-116875086D01*
X90001315Y-116589371D01*
X90001315Y-114017943D01*
X91572744Y-117017943D02*
X91572744Y-115017943D01*
X91572744Y-114017943D02*
X91429887Y-114160800D01*
X91572744Y-114303657D01*
X91715601Y-114160800D01*
X91572744Y-114017943D01*
X91572744Y-114303657D01*
X93001315Y-115017943D02*
X93001315Y-118017943D01*
X93001315Y-115160800D02*
X93287029Y-115017943D01*
X93858458Y-115017943D01*
X94144172Y-115160800D01*
X94287029Y-115303657D01*
X94429886Y-115589371D01*
X94429886Y-116446514D01*
X94287029Y-116732229D01*
X94144172Y-116875086D01*
X93858458Y-117017943D01*
X93287029Y-117017943D01*
X93001315Y-116875086D01*
X95715601Y-117017943D02*
X95715601Y-114017943D01*
X96715601Y-116160800D01*
X97715601Y-114017943D01*
X97715601Y-117017943D01*
X100429886Y-117017943D02*
X100429886Y-115446514D01*
X100287029Y-115160800D01*
X100001315Y-115017943D01*
X99429886Y-115017943D01*
X99144172Y-115160800D01*
X100429886Y-116875086D02*
X100144172Y-117017943D01*
X99429886Y-117017943D01*
X99144172Y-116875086D01*
X99001315Y-116589371D01*
X99001315Y-116303657D01*
X99144172Y-116017943D01*
X99429886Y-115875086D01*
X100144172Y-115875086D01*
X100429886Y-115732229D01*
X101715601Y-116875086D02*
X102001315Y-117017943D01*
X102572743Y-117017943D01*
X102858458Y-116875086D01*
X103001315Y-116589371D01*
X103001315Y-116446514D01*
X102858458Y-116160800D01*
X102572743Y-116017943D01*
X102144172Y-116017943D01*
X101858458Y-115875086D01*
X101715601Y-115589371D01*
X101715601Y-115446514D01*
X101858458Y-115160800D01*
X102144172Y-115017943D01*
X102572743Y-115017943D01*
X102858458Y-115160800D01*
X103858457Y-115017943D02*
X105001314Y-115017943D01*
X104287029Y-114017943D02*
X104287029Y-116589371D01*
X104429886Y-116875086D01*
X104715600Y-117017943D01*
X105001314Y-117017943D01*
X107144172Y-116875086D02*
X106858458Y-117017943D01*
X106287029Y-117017943D01*
X106001315Y-116875086D01*
X105858458Y-116589371D01*
X105858458Y-115446514D01*
X106001315Y-115160800D01*
X106287029Y-115017943D01*
X106858458Y-115017943D01*
X107144172Y-115160800D01*
X107287029Y-115446514D01*
X107287029Y-115732229D01*
X105858458Y-116017943D01*
X108572744Y-117017943D02*
X108572744Y-115017943D01*
X108572744Y-115589371D02*
X108715601Y-115303657D01*
X108858458Y-115160800D01*
X109144172Y-115017943D01*
X109429887Y-115017943D01*
X112858458Y-117017943D02*
X113429886Y-117017943D01*
X113715601Y-116875086D01*
X113858458Y-116732229D01*
X114144172Y-116303657D01*
X114287029Y-115732229D01*
X114287029Y-114589371D01*
X114144172Y-114303657D01*
X114001315Y-114160800D01*
X113715601Y-114017943D01*
X113144172Y-114017943D01*
X112858458Y-114160800D01*
X112715601Y-114303657D01*
X112572744Y-114589371D01*
X112572744Y-115303657D01*
X112715601Y-115589371D01*
X112858458Y-115732229D01*
X113144172Y-115875086D01*
X113715601Y-115875086D01*
X114001315Y-115732229D01*
X114144172Y-115589371D01*
X114287029Y-115303657D01*
X116144172Y-114017943D02*
X116429887Y-114017943D01*
X116715601Y-114160800D01*
X116858458Y-114303657D01*
X117001315Y-114589371D01*
X117144172Y-115160800D01*
X117144172Y-115875086D01*
X117001315Y-116446514D01*
X116858458Y-116732229D01*
X116715601Y-116875086D01*
X116429887Y-117017943D01*
X116144172Y-117017943D01*
X115858458Y-116875086D01*
X115715601Y-116732229D01*
X115572744Y-116446514D01*
X115429887Y-115875086D01*
X115429887Y-115160800D01*
X115572744Y-114589371D01*
X115715601Y-114303657D01*
X115858458Y-114160800D01*
X116144172Y-114017943D01*
X119001315Y-114017943D02*
X119287030Y-114017943D01*
X119572744Y-114160800D01*
X119715601Y-114303657D01*
X119858458Y-114589371D01*
X120001315Y-115160800D01*
X120001315Y-115875086D01*
X119858458Y-116446514D01*
X119715601Y-116732229D01*
X119572744Y-116875086D01*
X119287030Y-117017943D01*
X119001315Y-117017943D01*
X118715601Y-116875086D01*
X118572744Y-116732229D01*
X118429887Y-116446514D01*
X118287030Y-115875086D01*
X118287030Y-115160800D01*
X118429887Y-114589371D01*
X118572744Y-114303657D01*
X118715601Y-114160800D01*
X119001315Y-114017943D01*
X121858458Y-114017943D02*
X122144173Y-114017943D01*
X122429887Y-114160800D01*
X122572744Y-114303657D01*
X122715601Y-114589371D01*
X122858458Y-115160800D01*
X122858458Y-115875086D01*
X122715601Y-116446514D01*
X122572744Y-116732229D01*
X122429887Y-116875086D01*
X122144173Y-117017943D01*
X121858458Y-117017943D01*
X121572744Y-116875086D01*
X121429887Y-116732229D01*
X121287030Y-116446514D01*
X121144173Y-115875086D01*
X121144173Y-115160800D01*
X121287030Y-114589371D01*
X121429887Y-114303657D01*
X121572744Y-114160800D01*
X121858458Y-114017943D01*
X89144171Y-121732229D02*
X89001314Y-121875086D01*
X88572743Y-122017943D01*
X88287029Y-122017943D01*
X87858457Y-121875086D01*
X87572743Y-121589371D01*
X87429886Y-121303657D01*
X87287029Y-120732229D01*
X87287029Y-120303657D01*
X87429886Y-119732229D01*
X87572743Y-119446514D01*
X87858457Y-119160800D01*
X88287029Y-119017943D01*
X88572743Y-119017943D01*
X89001314Y-119160800D01*
X89144171Y-119303657D01*
X90858457Y-122017943D02*
X90572743Y-121875086D01*
X90429886Y-121732229D01*
X90287029Y-121446514D01*
X90287029Y-120589371D01*
X90429886Y-120303657D01*
X90572743Y-120160800D01*
X90858457Y-120017943D01*
X91287029Y-120017943D01*
X91572743Y-120160800D01*
X91715600Y-120303657D01*
X91858457Y-120589371D01*
X91858457Y-121446514D01*
X91715600Y-121732229D01*
X91572743Y-121875086D01*
X91287029Y-122017943D01*
X90858457Y-122017943D01*
X93572743Y-122017943D02*
X93287029Y-121875086D01*
X93144172Y-121589371D01*
X93144172Y-119017943D01*
X96001315Y-120017943D02*
X96001315Y-122017943D01*
X94715601Y-120017943D02*
X94715601Y-121589371D01*
X94858458Y-121875086D01*
X95144172Y-122017943D01*
X95572744Y-122017943D01*
X95858458Y-121875086D01*
X96001315Y-121732229D01*
X97429887Y-122017943D02*
X97429887Y-120017943D01*
X97429887Y-120303657D02*
X97572744Y-120160800D01*
X97858458Y-120017943D01*
X98287030Y-120017943D01*
X98572744Y-120160800D01*
X98715601Y-120446514D01*
X98715601Y-122017943D01*
X98715601Y-120446514D02*
X98858458Y-120160800D01*
X99144172Y-120017943D01*
X99572744Y-120017943D01*
X99858458Y-120160800D01*
X100001315Y-120446514D01*
X100001315Y-122017943D01*
X101429887Y-120017943D02*
X101429887Y-122017943D01*
X101429887Y-120303657D02*
X101572744Y-120160800D01*
X101858458Y-120017943D01*
X102287030Y-120017943D01*
X102572744Y-120160800D01*
X102715601Y-120446514D01*
X102715601Y-122017943D01*
X106429887Y-122017943D02*
X106429887Y-119017943D01*
X107144172Y-119017943D01*
X107572744Y-119160800D01*
X107858458Y-119446514D01*
X108001315Y-119732229D01*
X108144172Y-120303657D01*
X108144172Y-120732229D01*
X108001315Y-121303657D01*
X107858458Y-121589371D01*
X107572744Y-121875086D01*
X107144172Y-122017943D01*
X106429887Y-122017943D01*
X109429887Y-122017943D02*
X109429887Y-120017943D01*
X109429887Y-120589371D02*
X109572744Y-120303657D01*
X109715601Y-120160800D01*
X110001315Y-120017943D01*
X110287030Y-120017943D01*
X111287030Y-122017943D02*
X111287030Y-120017943D01*
X111287030Y-119017943D02*
X111144173Y-119160800D01*
X111287030Y-119303657D01*
X111429887Y-119160800D01*
X111287030Y-119017943D01*
X111287030Y-119303657D01*
X112429886Y-120017943D02*
X113144172Y-122017943D01*
X113858458Y-120017943D01*
X116144172Y-121875086D02*
X115858458Y-122017943D01*
X115287029Y-122017943D01*
X115001315Y-121875086D01*
X114858458Y-121589371D01*
X114858458Y-120446514D01*
X115001315Y-120160800D01*
X115287029Y-120017943D01*
X115858458Y-120017943D01*
X116144172Y-120160800D01*
X116287029Y-120446514D01*
X116287029Y-120732229D01*
X114858458Y-121017943D01*
X117572744Y-122017943D02*
X117572744Y-120017943D01*
X117572744Y-120589371D02*
X117715601Y-120303657D01*
X117858458Y-120160800D01*
X118144172Y-120017943D01*
X118429887Y-120017943D01*
D14*
X25000000Y-25000000D02*
X25000000Y-125000000D01*
X25000000Y-125000000D02*
X125000000Y-125000000D01*
X125000000Y-25000000D02*
X125000000Y-125000000D01*
X25000000Y-25000000D02*
X125000000Y-25000000D01*
X49745000Y-77970000D02*
X49745000Y-76970000D01*
X48045000Y-76970000D02*
X48045000Y-77970000D01*
X96735000Y-104005000D02*
X96735000Y-103005000D01*
X95035000Y-103005000D02*
X95035000Y-104005000D01*
X77685000Y-104005000D02*
X77685000Y-103005000D01*
X75985000Y-103005000D02*
X75985000Y-104005000D01*
D15*
X28120000Y-120603000D02*
X44120000Y-120603000D01*
X44120000Y-120603000D02*
X44120000Y-124023000D01*
X44120000Y-124023000D02*
X43070000Y-124023000D01*
X43070000Y-124023000D02*
X43070000Y-130223000D01*
X43070000Y-130223000D02*
X29170000Y-130223000D01*
X29170000Y-130223000D02*
X29170000Y-124023000D01*
X29170000Y-124023000D02*
X28120000Y-124023000D01*
X28120000Y-124023000D02*
X28120000Y-120603000D01*
X29360000Y-130223000D02*
X29360000Y-131723000D01*
X29360000Y-131723000D02*
X31000000Y-131723000D01*
X31000000Y-131723000D02*
X31000000Y-130223000D01*
X33320000Y-130223000D02*
X33320000Y-131723000D01*
X33320000Y-131723000D02*
X34960000Y-131723000D01*
X34960000Y-131723000D02*
X34960000Y-130223000D01*
X37280000Y-130223000D02*
X37280000Y-131723000D01*
X37280000Y-131723000D02*
X38920000Y-131723000D01*
X38920000Y-131723000D02*
X38920000Y-130223000D01*
X41240000Y-130223000D02*
X41240000Y-131723000D01*
X41240000Y-131723000D02*
X42880000Y-131723000D01*
X42880000Y-131723000D02*
X42880000Y-130223000D01*
X30180000Y-115103000D02*
X28570000Y-115103000D01*
X28570000Y-115103000D02*
X28570000Y-116713000D01*
X51130000Y-120603000D02*
X67130000Y-120603000D01*
X67130000Y-120603000D02*
X67130000Y-124023000D01*
X67130000Y-124023000D02*
X66080000Y-124023000D01*
X66080000Y-124023000D02*
X66080000Y-130223000D01*
X66080000Y-130223000D02*
X52180000Y-130223000D01*
X52180000Y-130223000D02*
X52180000Y-124023000D01*
X52180000Y-124023000D02*
X51130000Y-124023000D01*
X51130000Y-124023000D02*
X51130000Y-120603000D01*
X52370000Y-130223000D02*
X52370000Y-131723000D01*
X52370000Y-131723000D02*
X54010000Y-131723000D01*
X54010000Y-131723000D02*
X54010000Y-130223000D01*
X56330000Y-130223000D02*
X56330000Y-131723000D01*
X56330000Y-131723000D02*
X57970000Y-131723000D01*
X57970000Y-131723000D02*
X57970000Y-130223000D01*
X60290000Y-130223000D02*
X60290000Y-131723000D01*
X60290000Y-131723000D02*
X61930000Y-131723000D01*
X61930000Y-131723000D02*
X61930000Y-130223000D01*
X64250000Y-130223000D02*
X64250000Y-131723000D01*
X64250000Y-131723000D02*
X65890000Y-131723000D01*
X65890000Y-131723000D02*
X65890000Y-130223000D01*
X53190000Y-115103000D02*
X51580000Y-115103000D01*
X51580000Y-115103000D02*
X51580000Y-116713000D01*
D14*
X35820000Y-59920000D02*
X35820000Y-80240000D01*
X35270000Y-60460000D02*
X35270000Y-79680000D01*
X26720000Y-59920000D02*
X26720000Y-80240000D01*
X27270000Y-60460000D02*
X27270000Y-67830000D01*
X27270000Y-72330000D02*
X27270000Y-79680000D01*
X27270000Y-67830000D02*
X26720000Y-67830000D01*
X27270000Y-72330000D02*
X26720000Y-72330000D01*
X35820000Y-59920000D02*
X26720000Y-59920000D01*
X35270000Y-60460000D02*
X27270000Y-60460000D01*
X35820000Y-80240000D02*
X26720000Y-80240000D01*
X35270000Y-79680000D02*
X27270000Y-79680000D01*
X35820000Y-59920000D02*
X35270000Y-60460000D01*
X35820000Y-80240000D02*
X35270000Y-79680000D01*
X26720000Y-59920000D02*
X27270000Y-60460000D01*
X26720000Y-80240000D02*
X27270000Y-79680000D01*
X35842800Y-81889600D02*
X35842800Y-102209600D01*
X35292800Y-82429600D02*
X35292800Y-101649600D01*
X26742800Y-81889600D02*
X26742800Y-102209600D01*
X27292800Y-82429600D02*
X27292800Y-89799600D01*
X27292800Y-94299600D02*
X27292800Y-101649600D01*
X27292800Y-89799600D02*
X26742800Y-89799600D01*
X27292800Y-94299600D02*
X26742800Y-94299600D01*
X35842800Y-81889600D02*
X26742800Y-81889600D01*
X35292800Y-82429600D02*
X27292800Y-82429600D01*
X35842800Y-102209600D02*
X26742800Y-102209600D01*
X35292800Y-101649600D02*
X27292800Y-101649600D01*
X35842800Y-81889600D02*
X35292800Y-82429600D01*
X35842800Y-102209600D02*
X35292800Y-101649600D01*
X26742800Y-81889600D02*
X27292800Y-82429600D01*
X26742800Y-102209600D02*
X27292800Y-101649600D01*
X40415000Y-102935000D02*
X40665000Y-102935000D01*
X40415000Y-95185000D02*
X40750000Y-95185000D01*
X53565000Y-95185000D02*
X53230000Y-95185000D01*
X53565000Y-102935000D02*
X53230000Y-102935000D01*
X40415000Y-102935000D02*
X40415000Y-95185000D01*
X53565000Y-102935000D02*
X53565000Y-95185000D01*
X40665000Y-102935000D02*
X40665000Y-104735000D01*
X50575000Y-76900000D02*
X50825000Y-76900000D01*
X50575000Y-69150000D02*
X50910000Y-69150000D01*
X63725000Y-69150000D02*
X63390000Y-69150000D01*
X63725000Y-76900000D02*
X63390000Y-76900000D01*
X50575000Y-76900000D02*
X50575000Y-69150000D01*
X63725000Y-76900000D02*
X63725000Y-69150000D01*
X50825000Y-76900000D02*
X50825000Y-78700000D01*
X39135000Y-52770000D02*
X39385000Y-52770000D01*
X39135000Y-45020000D02*
X39480000Y-45020000D01*
X51035000Y-45020000D02*
X50690000Y-45020000D01*
X51035000Y-52770000D02*
X50690000Y-52770000D01*
X39135000Y-52770000D02*
X39135000Y-45020000D01*
X51035000Y-52770000D02*
X51035000Y-45020000D01*
X39385000Y-52770000D02*
X39385000Y-54595000D01*
X59465000Y-102935000D02*
X59715000Y-102935000D01*
X59465000Y-95185000D02*
X59800000Y-95185000D01*
X72615000Y-95185000D02*
X72280000Y-95185000D01*
X72615000Y-102935000D02*
X72280000Y-102935000D01*
X59465000Y-102935000D02*
X59465000Y-95185000D01*
X72615000Y-102935000D02*
X72615000Y-95185000D01*
X59715000Y-102935000D02*
X59715000Y-104735000D01*
X69625000Y-76900000D02*
X69875000Y-76900000D01*
X69625000Y-69150000D02*
X69960000Y-69150000D01*
X82775000Y-69150000D02*
X82440000Y-69150000D01*
X82775000Y-76900000D02*
X82440000Y-76900000D01*
X69625000Y-76900000D02*
X69625000Y-69150000D01*
X82775000Y-76900000D02*
X82775000Y-69150000D01*
X69875000Y-76900000D02*
X69875000Y-78700000D01*
X60090000Y-52770000D02*
X60340000Y-52770000D01*
X60090000Y-45020000D02*
X60435000Y-45020000D01*
X71990000Y-45020000D02*
X71645000Y-45020000D01*
X71990000Y-52770000D02*
X71645000Y-52770000D01*
X60090000Y-52770000D02*
X60090000Y-45020000D01*
X71990000Y-52770000D02*
X71990000Y-45020000D01*
X60340000Y-52770000D02*
X60340000Y-54595000D01*
X78515000Y-102935000D02*
X78765000Y-102935000D01*
X78515000Y-95185000D02*
X78850000Y-95185000D01*
X91665000Y-95185000D02*
X91330000Y-95185000D01*
X91665000Y-102935000D02*
X91330000Y-102935000D01*
X78515000Y-102935000D02*
X78515000Y-95185000D01*
X91665000Y-102935000D02*
X91665000Y-95185000D01*
X78765000Y-102935000D02*
X78765000Y-104735000D01*
X88675000Y-76900000D02*
X88925000Y-76900000D01*
X88675000Y-69150000D02*
X89010000Y-69150000D01*
X101825000Y-69150000D02*
X101490000Y-69150000D01*
X101825000Y-76900000D02*
X101490000Y-76900000D01*
X88675000Y-76900000D02*
X88675000Y-69150000D01*
X101825000Y-76900000D02*
X101825000Y-69150000D01*
X88925000Y-76900000D02*
X88925000Y-78700000D01*
X81045000Y-52770000D02*
X81295000Y-52770000D01*
X81045000Y-45020000D02*
X81390000Y-45020000D01*
X92945000Y-45020000D02*
X92600000Y-45020000D01*
X92945000Y-52770000D02*
X92600000Y-52770000D01*
X81045000Y-52770000D02*
X81045000Y-45020000D01*
X92945000Y-52770000D02*
X92945000Y-45020000D01*
X81295000Y-52770000D02*
X81295000Y-54595000D01*
X97565000Y-102935000D02*
X97815000Y-102935000D01*
X97565000Y-95185000D02*
X97900000Y-95185000D01*
X110715000Y-95185000D02*
X110380000Y-95185000D01*
X110715000Y-102935000D02*
X110380000Y-102935000D01*
X97565000Y-102935000D02*
X97565000Y-95185000D01*
X110715000Y-102935000D02*
X110715000Y-95185000D01*
X97815000Y-102935000D02*
X97815000Y-104735000D01*
X107725000Y-76900000D02*
X107975000Y-76900000D01*
X107725000Y-69150000D02*
X108060000Y-69150000D01*
X120875000Y-69150000D02*
X120540000Y-69150000D01*
X120875000Y-76900000D02*
X120540000Y-76900000D01*
X107725000Y-76900000D02*
X107725000Y-69150000D01*
X120875000Y-76900000D02*
X120875000Y-69150000D01*
X107975000Y-76900000D02*
X107975000Y-78700000D01*
X102000000Y-52770000D02*
X102250000Y-52770000D01*
X102000000Y-45020000D02*
X102345000Y-45020000D01*
X113900000Y-45020000D02*
X113555000Y-45020000D01*
X113900000Y-52770000D02*
X113555000Y-52770000D01*
X102000000Y-52770000D02*
X102000000Y-45020000D01*
X113900000Y-52770000D02*
X113900000Y-45020000D01*
X102250000Y-52770000D02*
X102250000Y-54595000D01*
D15*
X109510000Y-64405000D02*
X109510000Y-66405000D01*
X109510000Y-66405000D02*
X113410000Y-66405000D01*
X109510000Y-64405000D02*
X113410000Y-64405000D01*
X114590000Y-64405000D02*
X114590000Y-66405000D01*
X114590000Y-66405000D02*
X118490000Y-66405000D01*
X114590000Y-64405000D02*
X118490000Y-64405000D01*
X119090000Y-81645000D02*
X119090000Y-79645000D01*
X119090000Y-79645000D02*
X115190000Y-79645000D01*
X119090000Y-81645000D02*
X115190000Y-81645000D01*
X114010000Y-81645000D02*
X114010000Y-79645000D01*
X114010000Y-79645000D02*
X110110000Y-79645000D01*
X114010000Y-81645000D02*
X110110000Y-81645000D01*
X99350000Y-90440000D02*
X99350000Y-92440000D01*
X99350000Y-92440000D02*
X103250000Y-92440000D01*
X99350000Y-90440000D02*
X103250000Y-90440000D01*
X104430000Y-90440000D02*
X104430000Y-92440000D01*
X104430000Y-92440000D02*
X108330000Y-92440000D01*
X104430000Y-90440000D02*
X108330000Y-90440000D01*
X108930000Y-107680000D02*
X108930000Y-105680000D01*
X108930000Y-105680000D02*
X105030000Y-105680000D01*
X108930000Y-107680000D02*
X105030000Y-107680000D01*
X103850000Y-107680000D02*
X103850000Y-105680000D01*
X103850000Y-105680000D02*
X99950000Y-105680000D01*
X103850000Y-107680000D02*
X99950000Y-107680000D01*
X90460000Y-64405000D02*
X90460000Y-66405000D01*
X90460000Y-66405000D02*
X94360000Y-66405000D01*
X90460000Y-64405000D02*
X94360000Y-64405000D01*
X95540000Y-64405000D02*
X95540000Y-66405000D01*
X95540000Y-66405000D02*
X99440000Y-66405000D01*
X95540000Y-64405000D02*
X99440000Y-64405000D01*
X100040000Y-81645000D02*
X100040000Y-79645000D01*
X100040000Y-79645000D02*
X96140000Y-79645000D01*
X100040000Y-81645000D02*
X96140000Y-81645000D01*
X94960000Y-81645000D02*
X94960000Y-79645000D01*
X94960000Y-79645000D02*
X91060000Y-79645000D01*
X94960000Y-81645000D02*
X91060000Y-81645000D01*
X80300000Y-90440000D02*
X80300000Y-92440000D01*
X80300000Y-92440000D02*
X84200000Y-92440000D01*
X80300000Y-90440000D02*
X84200000Y-90440000D01*
X85380000Y-90440000D02*
X85380000Y-92440000D01*
X85380000Y-92440000D02*
X89280000Y-92440000D01*
X85380000Y-90440000D02*
X89280000Y-90440000D01*
X89880000Y-107680000D02*
X89880000Y-105680000D01*
X89880000Y-105680000D02*
X85980000Y-105680000D01*
X89880000Y-107680000D02*
X85980000Y-107680000D01*
X84800000Y-107680000D02*
X84800000Y-105680000D01*
X84800000Y-105680000D02*
X80900000Y-105680000D01*
X84800000Y-107680000D02*
X80900000Y-107680000D01*
X71410000Y-64405000D02*
X71410000Y-66405000D01*
X71410000Y-66405000D02*
X75310000Y-66405000D01*
X71410000Y-64405000D02*
X75310000Y-64405000D01*
X76490000Y-64405000D02*
X76490000Y-66405000D01*
X76490000Y-66405000D02*
X80390000Y-66405000D01*
X76490000Y-64405000D02*
X80390000Y-64405000D01*
X80990000Y-81645000D02*
X80990000Y-79645000D01*
X80990000Y-79645000D02*
X77090000Y-79645000D01*
X80990000Y-81645000D02*
X77090000Y-81645000D01*
X75910000Y-81645000D02*
X75910000Y-79645000D01*
X75910000Y-79645000D02*
X72010000Y-79645000D01*
X75910000Y-81645000D02*
X72010000Y-81645000D01*
X61250000Y-90440000D02*
X61250000Y-92440000D01*
X61250000Y-92440000D02*
X65150000Y-92440000D01*
X61250000Y-90440000D02*
X65150000Y-90440000D01*
X66330000Y-90440000D02*
X66330000Y-92440000D01*
X66330000Y-92440000D02*
X70230000Y-92440000D01*
X66330000Y-90440000D02*
X70230000Y-90440000D01*
X70830000Y-107680000D02*
X70830000Y-105680000D01*
X70830000Y-105680000D02*
X66930000Y-105680000D01*
X70830000Y-107680000D02*
X66930000Y-107680000D01*
X65750000Y-107680000D02*
X65750000Y-105680000D01*
X65750000Y-105680000D02*
X61850000Y-105680000D01*
X65750000Y-107680000D02*
X61850000Y-107680000D01*
X52360000Y-64405000D02*
X52360000Y-66405000D01*
X52360000Y-66405000D02*
X56260000Y-66405000D01*
X52360000Y-64405000D02*
X56260000Y-64405000D01*
X56860000Y-81645000D02*
X56860000Y-79645000D01*
X56860000Y-79645000D02*
X52960000Y-79645000D01*
X56860000Y-81645000D02*
X52960000Y-81645000D01*
X42200000Y-90440000D02*
X42200000Y-92440000D01*
X42200000Y-92440000D02*
X46100000Y-92440000D01*
X42200000Y-90440000D02*
X46100000Y-90440000D01*
X47280000Y-90440000D02*
X47280000Y-92440000D01*
X47280000Y-92440000D02*
X51180000Y-92440000D01*
X47280000Y-90440000D02*
X51180000Y-90440000D01*
X51780000Y-107680000D02*
X51780000Y-105680000D01*
X51780000Y-105680000D02*
X47880000Y-105680000D01*
X51780000Y-107680000D02*
X47880000Y-107680000D01*
X46700000Y-107680000D02*
X46700000Y-105680000D01*
X46700000Y-105680000D02*
X42800000Y-105680000D01*
X46700000Y-107680000D02*
X42800000Y-107680000D01*
D14*
X39585000Y-104005000D02*
X39585000Y-103005000D01*
X37885000Y-103005000D02*
X37885000Y-104005000D01*
X58635000Y-104005000D02*
X58635000Y-103005000D01*
X56935000Y-103005000D02*
X56935000Y-104005000D01*
X68795000Y-77970000D02*
X68795000Y-76970000D01*
X67095000Y-76970000D02*
X67095000Y-77970000D01*
X87845000Y-77970000D02*
X87845000Y-76970000D01*
X86145000Y-76970000D02*
X86145000Y-77970000D01*
X106895000Y-77970000D02*
X106895000Y-76970000D01*
X105195000Y-76970000D02*
X105195000Y-77970000D01*
D15*
X53435000Y-27805000D02*
X53435000Y-28465000D01*
X53435000Y-26145000D02*
X53435000Y-26805000D01*
X53435000Y-26145000D02*
X51405000Y-26145000D01*
X52025000Y-28465000D02*
X53435000Y-28465000D01*
X53856000Y-36798000D02*
X53196000Y-36798000D01*
X55516000Y-36798000D02*
X54856000Y-36798000D01*
X55516000Y-36798000D02*
X55516000Y-34768000D01*
X53196000Y-35388000D02*
X53196000Y-36798000D01*
X58515000Y-27805000D02*
X58515000Y-28465000D01*
X58515000Y-26145000D02*
X58515000Y-26805000D01*
X58515000Y-26145000D02*
X56485000Y-26145000D01*
X57105000Y-28465000D02*
X58515000Y-28465000D01*
X58936000Y-36798000D02*
X58276000Y-36798000D01*
X60596000Y-36798000D02*
X59936000Y-36798000D01*
X60596000Y-36798000D02*
X60596000Y-34768000D01*
X58276000Y-35388000D02*
X58276000Y-36798000D01*
X63595000Y-27805000D02*
X63595000Y-28465000D01*
X63595000Y-26145000D02*
X63595000Y-26805000D01*
X63595000Y-26145000D02*
X61565000Y-26145000D01*
X62185000Y-28465000D02*
X63595000Y-28465000D01*
X64016000Y-36798000D02*
X63356000Y-36798000D01*
X65676000Y-36798000D02*
X65016000Y-36798000D01*
X65676000Y-36798000D02*
X65676000Y-34768000D01*
X63356000Y-35388000D02*
X63356000Y-36798000D01*
X68675000Y-27805000D02*
X68675000Y-28465000D01*
X68675000Y-26145000D02*
X68675000Y-26805000D01*
X68675000Y-26145000D02*
X66645000Y-26145000D01*
X67265000Y-28465000D02*
X68675000Y-28465000D01*
X69096000Y-36798000D02*
X68436000Y-36798000D01*
X70756000Y-36798000D02*
X70096000Y-36798000D01*
X70756000Y-36798000D02*
X70756000Y-34768000D01*
X68436000Y-35388000D02*
X68436000Y-36798000D01*
X73755000Y-27805000D02*
X73755000Y-28465000D01*
X73755000Y-26145000D02*
X73755000Y-26805000D01*
X73755000Y-26145000D02*
X71725000Y-26145000D01*
X72345000Y-28465000D02*
X73755000Y-28465000D01*
X74176000Y-36798000D02*
X73516000Y-36798000D01*
X75836000Y-36798000D02*
X75176000Y-36798000D01*
X75836000Y-36798000D02*
X75836000Y-34768000D01*
X73516000Y-35388000D02*
X73516000Y-36798000D01*
X78835000Y-27805000D02*
X78835000Y-28465000D01*
X78835000Y-26145000D02*
X78835000Y-26805000D01*
X78835000Y-26145000D02*
X76805000Y-26145000D01*
X77425000Y-28465000D02*
X78835000Y-28465000D01*
X79256000Y-36798000D02*
X78596000Y-36798000D01*
X80916000Y-36798000D02*
X80256000Y-36798000D01*
X80916000Y-36798000D02*
X80916000Y-34768000D01*
X78596000Y-35388000D02*
X78596000Y-36798000D01*
X83855000Y-27805000D02*
X83855000Y-28465000D01*
X83855000Y-26145000D02*
X83855000Y-26805000D01*
X83855000Y-26145000D02*
X81825000Y-26145000D01*
X82445000Y-28465000D02*
X83855000Y-28465000D01*
X84336000Y-36798000D02*
X83676000Y-36798000D01*
X85996000Y-36798000D02*
X85336000Y-36798000D01*
X85996000Y-36798000D02*
X85996000Y-34768000D01*
X83676000Y-35388000D02*
X83676000Y-36798000D01*
X89570000Y-27805000D02*
X89570000Y-28465000D01*
X89570000Y-26145000D02*
X89570000Y-26805000D01*
X89570000Y-26145000D02*
X87540000Y-26145000D01*
X88160000Y-28465000D02*
X89570000Y-28465000D01*
D14*
X45685000Y-89775000D02*
X44485000Y-89775000D01*
X44485000Y-88025000D02*
X45685000Y-88025000D01*
X50765000Y-89775000D02*
X49565000Y-89775000D01*
X49565000Y-88025000D02*
X50765000Y-88025000D01*
X48295000Y-108345000D02*
X49495000Y-108345000D01*
X49495000Y-110095000D02*
X48295000Y-110095000D01*
X43215000Y-108345000D02*
X44415000Y-108345000D01*
X44415000Y-110095000D02*
X43215000Y-110095000D01*
X54575000Y-84060000D02*
X53375000Y-84060000D01*
X53375000Y-82310000D02*
X54575000Y-82310000D01*
X59655000Y-84060000D02*
X58455000Y-84060000D01*
X58455000Y-82310000D02*
X59655000Y-82310000D01*
X59725000Y-61990000D02*
X60925000Y-61990000D01*
X60925000Y-63740000D02*
X59725000Y-63740000D01*
X54645000Y-61990000D02*
X55845000Y-61990000D01*
X55845000Y-63740000D02*
X54645000Y-63740000D01*
X64735000Y-89775000D02*
X63535000Y-89775000D01*
X63535000Y-88025000D02*
X64735000Y-88025000D01*
X69815000Y-89775000D02*
X68615000Y-89775000D01*
X68615000Y-88025000D02*
X69815000Y-88025000D01*
X67345000Y-108345000D02*
X68545000Y-108345000D01*
X68545000Y-110095000D02*
X67345000Y-110095000D01*
X62265000Y-108345000D02*
X63465000Y-108345000D01*
X63465000Y-110095000D02*
X62265000Y-110095000D01*
X73625000Y-84060000D02*
X72425000Y-84060000D01*
X72425000Y-82310000D02*
X73625000Y-82310000D01*
X77505000Y-82310000D02*
X78705000Y-82310000D01*
X78705000Y-84060000D02*
X77505000Y-84060000D01*
X78775000Y-61990000D02*
X79975000Y-61990000D01*
X79975000Y-63740000D02*
X78775000Y-63740000D01*
X74010000Y-61990000D02*
X75210000Y-61990000D01*
X75210000Y-63740000D02*
X74010000Y-63740000D01*
X83785000Y-89775000D02*
X82585000Y-89775000D01*
X82585000Y-88025000D02*
X83785000Y-88025000D01*
X88865000Y-89775000D02*
X87665000Y-89775000D01*
X87665000Y-88025000D02*
X88865000Y-88025000D01*
X86395000Y-108345000D02*
X87595000Y-108345000D01*
X87595000Y-110095000D02*
X86395000Y-110095000D01*
X81315000Y-108345000D02*
X82515000Y-108345000D01*
X82515000Y-110095000D02*
X81315000Y-110095000D01*
X92675000Y-84060000D02*
X91475000Y-84060000D01*
X91475000Y-82310000D02*
X92675000Y-82310000D01*
X97755000Y-84060000D02*
X96555000Y-84060000D01*
X96555000Y-82310000D02*
X97755000Y-82310000D01*
X97825000Y-61990000D02*
X99025000Y-61990000D01*
X99025000Y-63740000D02*
X97825000Y-63740000D01*
X92745000Y-61990000D02*
X93945000Y-61990000D01*
X93945000Y-63740000D02*
X92745000Y-63740000D01*
X102835000Y-89775000D02*
X101635000Y-89775000D01*
X101635000Y-88025000D02*
X102835000Y-88025000D01*
X107915000Y-89775000D02*
X106715000Y-89775000D01*
X106715000Y-88025000D02*
X107915000Y-88025000D01*
X105445000Y-108345000D02*
X106645000Y-108345000D01*
X106645000Y-110095000D02*
X105445000Y-110095000D01*
X100365000Y-108345000D02*
X101565000Y-108345000D01*
X101565000Y-110095000D02*
X100365000Y-110095000D01*
X111725000Y-84060000D02*
X110525000Y-84060000D01*
X110525000Y-82310000D02*
X111725000Y-82310000D01*
X115605000Y-82310000D02*
X116805000Y-82310000D01*
X116805000Y-84060000D02*
X115605000Y-84060000D01*
X116875000Y-61990000D02*
X118075000Y-61990000D01*
X118075000Y-63740000D02*
X116875000Y-63740000D01*
X111795000Y-61990000D02*
X112995000Y-61990000D01*
X112995000Y-63740000D02*
X111795000Y-63740000D01*
D15*
X57440000Y-64405000D02*
X57440000Y-66405000D01*
X57440000Y-66405000D02*
X61340000Y-66405000D01*
X57440000Y-64405000D02*
X61340000Y-64405000D01*
X61940000Y-81645000D02*
X61940000Y-79645000D01*
X61940000Y-79645000D02*
X58040000Y-79645000D01*
X61940000Y-81645000D02*
X58040000Y-81645000D01*
D14*
X46823334Y-77827143D02*
X46775715Y-77874762D01*
X46632858Y-77922381D01*
X46537620Y-77922381D01*
X46394762Y-77874762D01*
X46299524Y-77779524D01*
X46251905Y-77684286D01*
X46204286Y-77493810D01*
X46204286Y-77350952D01*
X46251905Y-77160476D01*
X46299524Y-77065238D01*
X46394762Y-76970000D01*
X46537620Y-76922381D01*
X46632858Y-76922381D01*
X46775715Y-76970000D01*
X46823334Y-77017619D01*
X47204286Y-77017619D02*
X47251905Y-76970000D01*
X47347143Y-76922381D01*
X47585239Y-76922381D01*
X47680477Y-76970000D01*
X47728096Y-77017619D01*
X47775715Y-77112857D01*
X47775715Y-77208095D01*
X47728096Y-77350952D01*
X47156667Y-77922381D01*
X47775715Y-77922381D01*
X93813334Y-103862143D02*
X93765715Y-103909762D01*
X93622858Y-103957381D01*
X93527620Y-103957381D01*
X93384762Y-103909762D01*
X93289524Y-103814524D01*
X93241905Y-103719286D01*
X93194286Y-103528810D01*
X93194286Y-103385952D01*
X93241905Y-103195476D01*
X93289524Y-103100238D01*
X93384762Y-103005000D01*
X93527620Y-102957381D01*
X93622858Y-102957381D01*
X93765715Y-103005000D01*
X93813334Y-103052619D01*
X94146667Y-102957381D02*
X94813334Y-102957381D01*
X94384762Y-103957381D01*
X74778032Y-104114813D02*
X74730413Y-104162432D01*
X74587556Y-104210051D01*
X74492318Y-104210051D01*
X74349460Y-104162432D01*
X74254222Y-104067194D01*
X74206603Y-103971956D01*
X74158984Y-103781480D01*
X74158984Y-103638622D01*
X74206603Y-103448146D01*
X74254222Y-103352908D01*
X74349460Y-103257670D01*
X74492318Y-103210051D01*
X74587556Y-103210051D01*
X74730413Y-103257670D01*
X74778032Y-103305289D01*
X75682794Y-103210051D02*
X75206603Y-103210051D01*
X75158984Y-103686241D01*
X75206603Y-103638622D01*
X75301841Y-103591003D01*
X75539937Y-103591003D01*
X75635175Y-103638622D01*
X75682794Y-103686241D01*
X75730413Y-103781480D01*
X75730413Y-104019575D01*
X75682794Y-104114813D01*
X75635175Y-104162432D01*
X75539937Y-104210051D01*
X75301841Y-104210051D01*
X75206603Y-104162432D01*
X75158984Y-104114813D01*
X26082667Y-121372381D02*
X26082667Y-122086667D01*
X26035047Y-122229524D01*
X25939809Y-122324762D01*
X25796952Y-122372381D01*
X25701714Y-122372381D01*
X26511238Y-121467619D02*
X26558857Y-121420000D01*
X26654095Y-121372381D01*
X26892191Y-121372381D01*
X26987429Y-121420000D01*
X27035048Y-121467619D01*
X27082667Y-121562857D01*
X27082667Y-121658095D01*
X27035048Y-121800952D01*
X26463619Y-122372381D01*
X27082667Y-122372381D01*
X49196667Y-121372381D02*
X49196667Y-122086667D01*
X49149047Y-122229524D01*
X49053809Y-122324762D01*
X48910952Y-122372381D01*
X48815714Y-122372381D01*
X49577619Y-121372381D02*
X50196667Y-121372381D01*
X49863333Y-121753333D01*
X50006191Y-121753333D01*
X50101429Y-121800952D01*
X50149048Y-121848571D01*
X50196667Y-121943810D01*
X50196667Y-122181905D01*
X50149048Y-122277143D01*
X50101429Y-122324762D01*
X50006191Y-122372381D01*
X49720476Y-122372381D01*
X49625238Y-122324762D01*
X49577619Y-122277143D01*
X36665981Y-70718133D02*
X37380267Y-70718133D01*
X37523124Y-70765753D01*
X37618362Y-70860991D01*
X37665981Y-71003848D01*
X37665981Y-71099086D01*
X36999314Y-69813371D02*
X37665981Y-69813371D01*
X36618362Y-70051467D02*
X37332648Y-70289562D01*
X37332648Y-69670514D01*
X37095181Y-92382933D02*
X37809467Y-92382933D01*
X37952324Y-92430553D01*
X38047562Y-92525791D01*
X38095181Y-92668648D01*
X38095181Y-92763886D01*
X37095181Y-91430552D02*
X37095181Y-91906743D01*
X37571371Y-91954362D01*
X37523752Y-91906743D01*
X37476133Y-91811505D01*
X37476133Y-91573409D01*
X37523752Y-91478171D01*
X37571371Y-91430552D01*
X37666610Y-91382933D01*
X37904705Y-91382933D01*
X37999943Y-91430552D01*
X38047562Y-91478171D01*
X38095181Y-91573409D01*
X38095181Y-91811505D01*
X38047562Y-91906743D01*
X37999943Y-91954362D01*
X38481095Y-98512381D02*
X38481095Y-99321905D01*
X38528714Y-99417143D01*
X38576333Y-99464762D01*
X38671571Y-99512381D01*
X38862048Y-99512381D01*
X38957286Y-99464762D01*
X39004905Y-99417143D01*
X39052524Y-99321905D01*
X39052524Y-98512381D01*
X40052524Y-99512381D02*
X39481095Y-99512381D01*
X39766809Y-99512381D02*
X39766809Y-98512381D01*
X39671571Y-98655238D01*
X39576333Y-98750476D01*
X39481095Y-98798095D01*
X48133095Y-72477381D02*
X48133095Y-73286905D01*
X48180714Y-73382143D01*
X48228333Y-73429762D01*
X48323571Y-73477381D01*
X48514048Y-73477381D01*
X48609286Y-73429762D01*
X48656905Y-73382143D01*
X48704524Y-73286905D01*
X48704524Y-72477381D01*
X49133095Y-72572619D02*
X49180714Y-72525000D01*
X49275952Y-72477381D01*
X49514048Y-72477381D01*
X49609286Y-72525000D01*
X49656905Y-72572619D01*
X49704524Y-72667857D01*
X49704524Y-72763095D01*
X49656905Y-72905952D01*
X49085476Y-73477381D01*
X49704524Y-73477381D01*
X37261895Y-48372781D02*
X37261895Y-49182305D01*
X37309514Y-49277543D01*
X37357133Y-49325162D01*
X37452371Y-49372781D01*
X37642848Y-49372781D01*
X37738086Y-49325162D01*
X37785705Y-49277543D01*
X37833324Y-49182305D01*
X37833324Y-48372781D01*
X38214276Y-48372781D02*
X38833324Y-48372781D01*
X38499990Y-48753733D01*
X38642848Y-48753733D01*
X38738086Y-48801352D01*
X38785705Y-48848971D01*
X38833324Y-48944210D01*
X38833324Y-49182305D01*
X38785705Y-49277543D01*
X38738086Y-49325162D01*
X38642848Y-49372781D01*
X38357133Y-49372781D01*
X38261895Y-49325162D01*
X38214276Y-49277543D01*
X57531095Y-98512381D02*
X57531095Y-99321905D01*
X57578714Y-99417143D01*
X57626333Y-99464762D01*
X57721571Y-99512381D01*
X57912048Y-99512381D01*
X58007286Y-99464762D01*
X58054905Y-99417143D01*
X58102524Y-99321905D01*
X58102524Y-98512381D01*
X59007286Y-98845714D02*
X59007286Y-99512381D01*
X58769190Y-98464762D02*
X58531095Y-99179048D01*
X59150143Y-99179048D01*
X67183095Y-72477381D02*
X67183095Y-73286905D01*
X67230714Y-73382143D01*
X67278333Y-73429762D01*
X67373571Y-73477381D01*
X67564048Y-73477381D01*
X67659286Y-73429762D01*
X67706905Y-73382143D01*
X67754524Y-73286905D01*
X67754524Y-72477381D01*
X68706905Y-72477381D02*
X68230714Y-72477381D01*
X68183095Y-72953571D01*
X68230714Y-72905952D01*
X68325952Y-72858333D01*
X68564048Y-72858333D01*
X68659286Y-72905952D01*
X68706905Y-72953571D01*
X68754524Y-73048810D01*
X68754524Y-73286905D01*
X68706905Y-73382143D01*
X68659286Y-73429762D01*
X68564048Y-73477381D01*
X68325952Y-73477381D01*
X68230714Y-73429762D01*
X68183095Y-73382143D01*
X58191495Y-48296581D02*
X58191495Y-49106105D01*
X58239114Y-49201343D01*
X58286733Y-49248962D01*
X58381971Y-49296581D01*
X58572448Y-49296581D01*
X58667686Y-49248962D01*
X58715305Y-49201343D01*
X58762924Y-49106105D01*
X58762924Y-48296581D01*
X59667686Y-48296581D02*
X59477209Y-48296581D01*
X59381971Y-48344200D01*
X59334352Y-48391819D01*
X59239114Y-48534676D01*
X59191495Y-48725152D01*
X59191495Y-49106105D01*
X59239114Y-49201343D01*
X59286733Y-49248962D01*
X59381971Y-49296581D01*
X59572448Y-49296581D01*
X59667686Y-49248962D01*
X59715305Y-49201343D01*
X59762924Y-49106105D01*
X59762924Y-48868010D01*
X59715305Y-48772771D01*
X59667686Y-48725152D01*
X59572448Y-48677533D01*
X59381971Y-48677533D01*
X59286733Y-48725152D01*
X59239114Y-48772771D01*
X59191495Y-48868010D01*
X76828095Y-98512381D02*
X76828095Y-99321905D01*
X76875714Y-99417143D01*
X76923333Y-99464762D01*
X77018571Y-99512381D01*
X77209048Y-99512381D01*
X77304286Y-99464762D01*
X77351905Y-99417143D01*
X77399524Y-99321905D01*
X77399524Y-98512381D01*
X77780476Y-98512381D02*
X78447143Y-98512381D01*
X78018571Y-99512381D01*
X86791895Y-72426581D02*
X86791895Y-73236105D01*
X86839514Y-73331343D01*
X86887133Y-73378962D01*
X86982371Y-73426581D01*
X87172848Y-73426581D01*
X87268086Y-73378962D01*
X87315705Y-73331343D01*
X87363324Y-73236105D01*
X87363324Y-72426581D01*
X87982371Y-72855152D02*
X87887133Y-72807533D01*
X87839514Y-72759914D01*
X87791895Y-72664676D01*
X87791895Y-72617057D01*
X87839514Y-72521819D01*
X87887133Y-72474200D01*
X87982371Y-72426581D01*
X88172848Y-72426581D01*
X88268086Y-72474200D01*
X88315705Y-72521819D01*
X88363324Y-72617057D01*
X88363324Y-72664676D01*
X88315705Y-72759914D01*
X88268086Y-72807533D01*
X88172848Y-72855152D01*
X87982371Y-72855152D01*
X87887133Y-72902771D01*
X87839514Y-72950390D01*
X87791895Y-73045629D01*
X87791895Y-73236105D01*
X87839514Y-73331343D01*
X87887133Y-73378962D01*
X87982371Y-73426581D01*
X88172848Y-73426581D01*
X88268086Y-73378962D01*
X88315705Y-73331343D01*
X88363324Y-73236105D01*
X88363324Y-73045629D01*
X88315705Y-72950390D01*
X88268086Y-72902771D01*
X88172848Y-72855152D01*
X79222695Y-48423581D02*
X79222695Y-49233105D01*
X79270314Y-49328343D01*
X79317933Y-49375962D01*
X79413171Y-49423581D01*
X79603648Y-49423581D01*
X79698886Y-49375962D01*
X79746505Y-49328343D01*
X79794124Y-49233105D01*
X79794124Y-48423581D01*
X80317933Y-49423581D02*
X80508409Y-49423581D01*
X80603648Y-49375962D01*
X80651267Y-49328343D01*
X80746505Y-49185486D01*
X80794124Y-48995010D01*
X80794124Y-48614057D01*
X80746505Y-48518819D01*
X80698886Y-48471200D01*
X80603648Y-48423581D01*
X80413171Y-48423581D01*
X80317933Y-48471200D01*
X80270314Y-48518819D01*
X80222695Y-48614057D01*
X80222695Y-48852152D01*
X80270314Y-48947390D01*
X80317933Y-48995010D01*
X80413171Y-49042629D01*
X80603648Y-49042629D01*
X80698886Y-48995010D01*
X80746505Y-48947390D01*
X80794124Y-48852152D01*
X94519905Y-98512381D02*
X94519905Y-99321905D01*
X94567524Y-99417143D01*
X94615143Y-99464762D01*
X94710381Y-99512381D01*
X94900858Y-99512381D01*
X94996096Y-99464762D01*
X95043715Y-99417143D01*
X95091334Y-99321905D01*
X95091334Y-98512381D01*
X96091334Y-99512381D02*
X95519905Y-99512381D01*
X95805619Y-99512381D02*
X95805619Y-98512381D01*
X95710381Y-98655238D01*
X95615143Y-98750476D01*
X95519905Y-98798095D01*
X96710381Y-98512381D02*
X96805620Y-98512381D01*
X96900858Y-98560000D01*
X96948477Y-98607619D01*
X96996096Y-98702857D01*
X97043715Y-98893333D01*
X97043715Y-99131429D01*
X96996096Y-99321905D01*
X96948477Y-99417143D01*
X96900858Y-99464762D01*
X96805620Y-99512381D01*
X96710381Y-99512381D01*
X96615143Y-99464762D01*
X96567524Y-99417143D01*
X96519905Y-99321905D01*
X96472286Y-99131429D01*
X96472286Y-98893333D01*
X96519905Y-98702857D01*
X96567524Y-98607619D01*
X96615143Y-98560000D01*
X96710381Y-98512381D01*
X104806905Y-72477381D02*
X104806905Y-73286905D01*
X104854524Y-73382143D01*
X104902143Y-73429762D01*
X104997381Y-73477381D01*
X105187858Y-73477381D01*
X105283096Y-73429762D01*
X105330715Y-73382143D01*
X105378334Y-73286905D01*
X105378334Y-72477381D01*
X106378334Y-73477381D02*
X105806905Y-73477381D01*
X106092619Y-73477381D02*
X106092619Y-72477381D01*
X105997381Y-72620238D01*
X105902143Y-72715476D01*
X105806905Y-72763095D01*
X107330715Y-73477381D02*
X106759286Y-73477381D01*
X107045000Y-73477381D02*
X107045000Y-72477381D01*
X106949762Y-72620238D01*
X106854524Y-72715476D01*
X106759286Y-72763095D01*
X99193505Y-48423581D02*
X99193505Y-49233105D01*
X99241124Y-49328343D01*
X99288743Y-49375962D01*
X99383981Y-49423581D01*
X99574458Y-49423581D01*
X99669696Y-49375962D01*
X99717315Y-49328343D01*
X99764934Y-49233105D01*
X99764934Y-48423581D01*
X100764934Y-49423581D02*
X100193505Y-49423581D01*
X100479219Y-49423581D02*
X100479219Y-48423581D01*
X100383981Y-48566438D01*
X100288743Y-48661676D01*
X100193505Y-48709295D01*
X101145886Y-48518819D02*
X101193505Y-48471200D01*
X101288743Y-48423581D01*
X101526839Y-48423581D01*
X101622077Y-48471200D01*
X101669696Y-48518819D01*
X101717315Y-48614057D01*
X101717315Y-48709295D01*
X101669696Y-48852152D01*
X101098267Y-49423581D01*
X101717315Y-49423581D01*
X106259095Y-65789524D02*
X106259095Y-64939524D01*
X106461476Y-64939524D01*
X106582904Y-64980000D01*
X106663857Y-65060952D01*
X106704333Y-65141905D01*
X106744809Y-65303810D01*
X106744809Y-65425238D01*
X106704333Y-65587143D01*
X106663857Y-65668095D01*
X106582904Y-65749048D01*
X106461476Y-65789524D01*
X106259095Y-65789524D01*
X107554333Y-65789524D02*
X107068619Y-65789524D01*
X107311476Y-65789524D02*
X107311476Y-64939524D01*
X107230524Y-65060952D01*
X107149571Y-65141905D01*
X107068619Y-65182381D01*
X108080524Y-64939524D02*
X108161476Y-64939524D01*
X108242428Y-64980000D01*
X108282905Y-65020476D01*
X108323381Y-65101429D01*
X108363857Y-65263333D01*
X108363857Y-65465714D01*
X108323381Y-65627619D01*
X108282905Y-65708571D01*
X108242428Y-65749048D01*
X108161476Y-65789524D01*
X108080524Y-65789524D01*
X107999571Y-65749048D01*
X107959095Y-65708571D01*
X107918619Y-65627619D01*
X107878143Y-65465714D01*
X107878143Y-65263333D01*
X107918619Y-65101429D01*
X107959095Y-65020476D01*
X107999571Y-64980000D01*
X108080524Y-64939524D01*
X109173381Y-65789524D02*
X108687667Y-65789524D01*
X108930524Y-65789524D02*
X108930524Y-64939524D01*
X108849572Y-65060952D01*
X108768619Y-65141905D01*
X108687667Y-65182381D01*
X119467095Y-65789524D02*
X119467095Y-64939524D01*
X119669476Y-64939524D01*
X119790904Y-64980000D01*
X119871857Y-65060952D01*
X119912333Y-65141905D01*
X119952809Y-65303810D01*
X119952809Y-65425238D01*
X119912333Y-65587143D01*
X119871857Y-65668095D01*
X119790904Y-65749048D01*
X119669476Y-65789524D01*
X119467095Y-65789524D01*
X120762333Y-65789524D02*
X120276619Y-65789524D01*
X120519476Y-65789524D02*
X120519476Y-64939524D01*
X120438524Y-65060952D01*
X120357571Y-65141905D01*
X120276619Y-65182381D01*
X121288524Y-64939524D02*
X121369476Y-64939524D01*
X121450428Y-64980000D01*
X121490905Y-65020476D01*
X121531381Y-65101429D01*
X121571857Y-65263333D01*
X121571857Y-65465714D01*
X121531381Y-65627619D01*
X121490905Y-65708571D01*
X121450428Y-65749048D01*
X121369476Y-65789524D01*
X121288524Y-65789524D01*
X121207571Y-65749048D01*
X121167095Y-65708571D01*
X121126619Y-65627619D01*
X121086143Y-65465714D01*
X121086143Y-65263333D01*
X121126619Y-65101429D01*
X121167095Y-65020476D01*
X121207571Y-64980000D01*
X121288524Y-64939524D01*
X121895667Y-65020476D02*
X121936143Y-64980000D01*
X122017095Y-64939524D01*
X122219476Y-64939524D01*
X122300429Y-64980000D01*
X122340905Y-65020476D01*
X122381381Y-65101429D01*
X122381381Y-65182381D01*
X122340905Y-65303810D01*
X121855191Y-65789524D01*
X122381381Y-65789524D01*
X119467095Y-81029524D02*
X119467095Y-80179524D01*
X119669476Y-80179524D01*
X119790904Y-80220000D01*
X119871857Y-80300952D01*
X119912333Y-80381905D01*
X119952809Y-80543810D01*
X119952809Y-80665238D01*
X119912333Y-80827143D01*
X119871857Y-80908095D01*
X119790904Y-80989048D01*
X119669476Y-81029524D01*
X119467095Y-81029524D01*
X120762333Y-81029524D02*
X120276619Y-81029524D01*
X120519476Y-81029524D02*
X120519476Y-80179524D01*
X120438524Y-80300952D01*
X120357571Y-80381905D01*
X120276619Y-80422381D01*
X121288524Y-80179524D02*
X121369476Y-80179524D01*
X121450428Y-80220000D01*
X121490905Y-80260476D01*
X121531381Y-80341429D01*
X121571857Y-80503333D01*
X121571857Y-80705714D01*
X121531381Y-80867619D01*
X121490905Y-80948571D01*
X121450428Y-80989048D01*
X121369476Y-81029524D01*
X121288524Y-81029524D01*
X121207571Y-80989048D01*
X121167095Y-80948571D01*
X121126619Y-80867619D01*
X121086143Y-80705714D01*
X121086143Y-80503333D01*
X121126619Y-80341429D01*
X121167095Y-80260476D01*
X121207571Y-80220000D01*
X121288524Y-80179524D01*
X121855191Y-80179524D02*
X122381381Y-80179524D01*
X122098048Y-80503333D01*
X122219476Y-80503333D01*
X122300429Y-80543810D01*
X122340905Y-80584286D01*
X122381381Y-80665238D01*
X122381381Y-80867619D01*
X122340905Y-80948571D01*
X122300429Y-80989048D01*
X122219476Y-81029524D01*
X121976619Y-81029524D01*
X121895667Y-80989048D01*
X121855191Y-80948571D01*
X106132095Y-81029524D02*
X106132095Y-80179524D01*
X106334476Y-80179524D01*
X106455904Y-80220000D01*
X106536857Y-80300952D01*
X106577333Y-80381905D01*
X106617809Y-80543810D01*
X106617809Y-80665238D01*
X106577333Y-80827143D01*
X106536857Y-80908095D01*
X106455904Y-80989048D01*
X106334476Y-81029524D01*
X106132095Y-81029524D01*
X107427333Y-81029524D02*
X106941619Y-81029524D01*
X107184476Y-81029524D02*
X107184476Y-80179524D01*
X107103524Y-80300952D01*
X107022571Y-80381905D01*
X106941619Y-80422381D01*
X107953524Y-80179524D02*
X108034476Y-80179524D01*
X108115428Y-80220000D01*
X108155905Y-80260476D01*
X108196381Y-80341429D01*
X108236857Y-80503333D01*
X108236857Y-80705714D01*
X108196381Y-80867619D01*
X108155905Y-80948571D01*
X108115428Y-80989048D01*
X108034476Y-81029524D01*
X107953524Y-81029524D01*
X107872571Y-80989048D01*
X107832095Y-80948571D01*
X107791619Y-80867619D01*
X107751143Y-80705714D01*
X107751143Y-80503333D01*
X107791619Y-80341429D01*
X107832095Y-80260476D01*
X107872571Y-80220000D01*
X107953524Y-80179524D01*
X108965429Y-80462857D02*
X108965429Y-81029524D01*
X108763048Y-80139048D02*
X108560667Y-80746190D01*
X109086857Y-80746190D01*
X96149895Y-91799124D02*
X96149895Y-90949124D01*
X96352276Y-90949124D01*
X96473704Y-90989600D01*
X96554657Y-91070552D01*
X96595133Y-91151505D01*
X96635609Y-91313410D01*
X96635609Y-91434838D01*
X96595133Y-91596743D01*
X96554657Y-91677695D01*
X96473704Y-91758648D01*
X96352276Y-91799124D01*
X96149895Y-91799124D01*
X97445133Y-91799124D02*
X96959419Y-91799124D01*
X97202276Y-91799124D02*
X97202276Y-90949124D01*
X97121324Y-91070552D01*
X97040371Y-91151505D01*
X96959419Y-91191981D01*
X97971324Y-90949124D02*
X98052276Y-90949124D01*
X98133228Y-90989600D01*
X98173705Y-91030076D01*
X98214181Y-91111029D01*
X98254657Y-91272933D01*
X98254657Y-91475314D01*
X98214181Y-91637219D01*
X98173705Y-91718171D01*
X98133228Y-91758648D01*
X98052276Y-91799124D01*
X97971324Y-91799124D01*
X97890371Y-91758648D01*
X97849895Y-91718171D01*
X97809419Y-91637219D01*
X97768943Y-91475314D01*
X97768943Y-91272933D01*
X97809419Y-91111029D01*
X97849895Y-91030076D01*
X97890371Y-90989600D01*
X97971324Y-90949124D01*
X99023705Y-90949124D02*
X98618943Y-90949124D01*
X98578467Y-91353886D01*
X98618943Y-91313410D01*
X98699895Y-91272933D01*
X98902276Y-91272933D01*
X98983229Y-91313410D01*
X99023705Y-91353886D01*
X99064181Y-91434838D01*
X99064181Y-91637219D01*
X99023705Y-91718171D01*
X98983229Y-91758648D01*
X98902276Y-91799124D01*
X98699895Y-91799124D01*
X98618943Y-91758648D01*
X98578467Y-91718171D01*
X109281695Y-91799124D02*
X109281695Y-90949124D01*
X109484076Y-90949124D01*
X109605504Y-90989600D01*
X109686457Y-91070552D01*
X109726933Y-91151505D01*
X109767409Y-91313410D01*
X109767409Y-91434838D01*
X109726933Y-91596743D01*
X109686457Y-91677695D01*
X109605504Y-91758648D01*
X109484076Y-91799124D01*
X109281695Y-91799124D01*
X110576933Y-91799124D02*
X110091219Y-91799124D01*
X110334076Y-91799124D02*
X110334076Y-90949124D01*
X110253124Y-91070552D01*
X110172171Y-91151505D01*
X110091219Y-91191981D01*
X111103124Y-90949124D02*
X111184076Y-90949124D01*
X111265028Y-90989600D01*
X111305505Y-91030076D01*
X111345981Y-91111029D01*
X111386457Y-91272933D01*
X111386457Y-91475314D01*
X111345981Y-91637219D01*
X111305505Y-91718171D01*
X111265028Y-91758648D01*
X111184076Y-91799124D01*
X111103124Y-91799124D01*
X111022171Y-91758648D01*
X110981695Y-91718171D01*
X110941219Y-91637219D01*
X110900743Y-91475314D01*
X110900743Y-91272933D01*
X110941219Y-91111029D01*
X110981695Y-91030076D01*
X111022171Y-90989600D01*
X111103124Y-90949124D01*
X112115029Y-90949124D02*
X111953124Y-90949124D01*
X111872172Y-90989600D01*
X111831695Y-91030076D01*
X111750743Y-91151505D01*
X111710267Y-91313410D01*
X111710267Y-91637219D01*
X111750743Y-91718171D01*
X111791219Y-91758648D01*
X111872172Y-91799124D01*
X112034076Y-91799124D01*
X112115029Y-91758648D01*
X112155505Y-91718171D01*
X112195981Y-91637219D01*
X112195981Y-91434838D01*
X112155505Y-91353886D01*
X112115029Y-91313410D01*
X112034076Y-91272933D01*
X111872172Y-91272933D01*
X111791219Y-91313410D01*
X111750743Y-91353886D01*
X111710267Y-91434838D01*
X109281695Y-107064524D02*
X109281695Y-106214524D01*
X109484076Y-106214524D01*
X109605504Y-106255000D01*
X109686457Y-106335952D01*
X109726933Y-106416905D01*
X109767409Y-106578810D01*
X109767409Y-106700238D01*
X109726933Y-106862143D01*
X109686457Y-106943095D01*
X109605504Y-107024048D01*
X109484076Y-107064524D01*
X109281695Y-107064524D01*
X110576933Y-107064524D02*
X110091219Y-107064524D01*
X110334076Y-107064524D02*
X110334076Y-106214524D01*
X110253124Y-106335952D01*
X110172171Y-106416905D01*
X110091219Y-106457381D01*
X111103124Y-106214524D02*
X111184076Y-106214524D01*
X111265028Y-106255000D01*
X111305505Y-106295476D01*
X111345981Y-106376429D01*
X111386457Y-106538333D01*
X111386457Y-106740714D01*
X111345981Y-106902619D01*
X111305505Y-106983571D01*
X111265028Y-107024048D01*
X111184076Y-107064524D01*
X111103124Y-107064524D01*
X111022171Y-107024048D01*
X110981695Y-106983571D01*
X110941219Y-106902619D01*
X110900743Y-106740714D01*
X110900743Y-106538333D01*
X110941219Y-106376429D01*
X110981695Y-106295476D01*
X111022171Y-106255000D01*
X111103124Y-106214524D01*
X111669791Y-106214524D02*
X112236457Y-106214524D01*
X111872172Y-107064524D01*
X96226095Y-107064524D02*
X96226095Y-106214524D01*
X96428476Y-106214524D01*
X96549904Y-106255000D01*
X96630857Y-106335952D01*
X96671333Y-106416905D01*
X96711809Y-106578810D01*
X96711809Y-106700238D01*
X96671333Y-106862143D01*
X96630857Y-106943095D01*
X96549904Y-107024048D01*
X96428476Y-107064524D01*
X96226095Y-107064524D01*
X97521333Y-107064524D02*
X97035619Y-107064524D01*
X97278476Y-107064524D02*
X97278476Y-106214524D01*
X97197524Y-106335952D01*
X97116571Y-106416905D01*
X97035619Y-106457381D01*
X98047524Y-106214524D02*
X98128476Y-106214524D01*
X98209428Y-106255000D01*
X98249905Y-106295476D01*
X98290381Y-106376429D01*
X98330857Y-106538333D01*
X98330857Y-106740714D01*
X98290381Y-106902619D01*
X98249905Y-106983571D01*
X98209428Y-107024048D01*
X98128476Y-107064524D01*
X98047524Y-107064524D01*
X97966571Y-107024048D01*
X97926095Y-106983571D01*
X97885619Y-106902619D01*
X97845143Y-106740714D01*
X97845143Y-106538333D01*
X97885619Y-106376429D01*
X97926095Y-106295476D01*
X97966571Y-106255000D01*
X98047524Y-106214524D01*
X98816572Y-106578810D02*
X98735619Y-106538333D01*
X98695143Y-106497857D01*
X98654667Y-106416905D01*
X98654667Y-106376429D01*
X98695143Y-106295476D01*
X98735619Y-106255000D01*
X98816572Y-106214524D01*
X98978476Y-106214524D01*
X99059429Y-106255000D01*
X99099905Y-106295476D01*
X99140381Y-106376429D01*
X99140381Y-106416905D01*
X99099905Y-106497857D01*
X99059429Y-106538333D01*
X98978476Y-106578810D01*
X98816572Y-106578810D01*
X98735619Y-106619286D01*
X98695143Y-106659762D01*
X98654667Y-106740714D01*
X98654667Y-106902619D01*
X98695143Y-106983571D01*
X98735619Y-107024048D01*
X98816572Y-107064524D01*
X98978476Y-107064524D01*
X99059429Y-107024048D01*
X99099905Y-106983571D01*
X99140381Y-106902619D01*
X99140381Y-106740714D01*
X99099905Y-106659762D01*
X99059429Y-106619286D01*
X98978476Y-106578810D01*
X87209095Y-65789524D02*
X87209095Y-64939524D01*
X87411476Y-64939524D01*
X87532904Y-64980000D01*
X87613857Y-65060952D01*
X87654333Y-65141905D01*
X87694809Y-65303810D01*
X87694809Y-65425238D01*
X87654333Y-65587143D01*
X87613857Y-65668095D01*
X87532904Y-65749048D01*
X87411476Y-65789524D01*
X87209095Y-65789524D01*
X88504333Y-65789524D02*
X88018619Y-65789524D01*
X88261476Y-65789524D02*
X88261476Y-64939524D01*
X88180524Y-65060952D01*
X88099571Y-65141905D01*
X88018619Y-65182381D01*
X89030524Y-64939524D02*
X89111476Y-64939524D01*
X89192428Y-64980000D01*
X89232905Y-65020476D01*
X89273381Y-65101429D01*
X89313857Y-65263333D01*
X89313857Y-65465714D01*
X89273381Y-65627619D01*
X89232905Y-65708571D01*
X89192428Y-65749048D01*
X89111476Y-65789524D01*
X89030524Y-65789524D01*
X88949571Y-65749048D01*
X88909095Y-65708571D01*
X88868619Y-65627619D01*
X88828143Y-65465714D01*
X88828143Y-65263333D01*
X88868619Y-65101429D01*
X88909095Y-65020476D01*
X88949571Y-64980000D01*
X89030524Y-64939524D01*
X89718619Y-65789524D02*
X89880524Y-65789524D01*
X89961476Y-65749048D01*
X90001952Y-65708571D01*
X90082905Y-65587143D01*
X90123381Y-65425238D01*
X90123381Y-65101429D01*
X90082905Y-65020476D01*
X90042429Y-64980000D01*
X89961476Y-64939524D01*
X89799572Y-64939524D01*
X89718619Y-64980000D01*
X89678143Y-65020476D01*
X89637667Y-65101429D01*
X89637667Y-65303810D01*
X89678143Y-65384762D01*
X89718619Y-65425238D01*
X89799572Y-65465714D01*
X89961476Y-65465714D01*
X90042429Y-65425238D01*
X90082905Y-65384762D01*
X90123381Y-65303810D01*
X100417095Y-65789524D02*
X100417095Y-64939524D01*
X100619476Y-64939524D01*
X100740904Y-64980000D01*
X100821857Y-65060952D01*
X100862333Y-65141905D01*
X100902809Y-65303810D01*
X100902809Y-65425238D01*
X100862333Y-65587143D01*
X100821857Y-65668095D01*
X100740904Y-65749048D01*
X100619476Y-65789524D01*
X100417095Y-65789524D01*
X101712333Y-65789524D02*
X101226619Y-65789524D01*
X101469476Y-65789524D02*
X101469476Y-64939524D01*
X101388524Y-65060952D01*
X101307571Y-65141905D01*
X101226619Y-65182381D01*
X102521857Y-65789524D02*
X102036143Y-65789524D01*
X102279000Y-65789524D02*
X102279000Y-64939524D01*
X102198048Y-65060952D01*
X102117095Y-65141905D01*
X102036143Y-65182381D01*
X103048048Y-64939524D02*
X103129000Y-64939524D01*
X103209952Y-64980000D01*
X103250429Y-65020476D01*
X103290905Y-65101429D01*
X103331381Y-65263333D01*
X103331381Y-65465714D01*
X103290905Y-65627619D01*
X103250429Y-65708571D01*
X103209952Y-65749048D01*
X103129000Y-65789524D01*
X103048048Y-65789524D01*
X102967095Y-65749048D01*
X102926619Y-65708571D01*
X102886143Y-65627619D01*
X102845667Y-65465714D01*
X102845667Y-65263333D01*
X102886143Y-65101429D01*
X102926619Y-65020476D01*
X102967095Y-64980000D01*
X103048048Y-64939524D01*
X100417095Y-81029524D02*
X100417095Y-80179524D01*
X100619476Y-80179524D01*
X100740904Y-80220000D01*
X100821857Y-80300952D01*
X100862333Y-80381905D01*
X100902809Y-80543810D01*
X100902809Y-80665238D01*
X100862333Y-80827143D01*
X100821857Y-80908095D01*
X100740904Y-80989048D01*
X100619476Y-81029524D01*
X100417095Y-81029524D01*
X101712333Y-81029524D02*
X101226619Y-81029524D01*
X101469476Y-81029524D02*
X101469476Y-80179524D01*
X101388524Y-80300952D01*
X101307571Y-80381905D01*
X101226619Y-80422381D01*
X102521857Y-81029524D02*
X102036143Y-81029524D01*
X102279000Y-81029524D02*
X102279000Y-80179524D01*
X102198048Y-80300952D01*
X102117095Y-80381905D01*
X102036143Y-80422381D01*
X103331381Y-81029524D02*
X102845667Y-81029524D01*
X103088524Y-81029524D02*
X103088524Y-80179524D01*
X103007572Y-80300952D01*
X102926619Y-80381905D01*
X102845667Y-80422381D01*
X87082095Y-81029524D02*
X87082095Y-80179524D01*
X87284476Y-80179524D01*
X87405904Y-80220000D01*
X87486857Y-80300952D01*
X87527333Y-80381905D01*
X87567809Y-80543810D01*
X87567809Y-80665238D01*
X87527333Y-80827143D01*
X87486857Y-80908095D01*
X87405904Y-80989048D01*
X87284476Y-81029524D01*
X87082095Y-81029524D01*
X88377333Y-81029524D02*
X87891619Y-81029524D01*
X88134476Y-81029524D02*
X88134476Y-80179524D01*
X88053524Y-80300952D01*
X87972571Y-80381905D01*
X87891619Y-80422381D01*
X89186857Y-81029524D02*
X88701143Y-81029524D01*
X88944000Y-81029524D02*
X88944000Y-80179524D01*
X88863048Y-80300952D01*
X88782095Y-80381905D01*
X88701143Y-80422381D01*
X89510667Y-80260476D02*
X89551143Y-80220000D01*
X89632095Y-80179524D01*
X89834476Y-80179524D01*
X89915429Y-80220000D01*
X89955905Y-80260476D01*
X89996381Y-80341429D01*
X89996381Y-80422381D01*
X89955905Y-80543810D01*
X89470191Y-81029524D01*
X89996381Y-81029524D01*
X77099895Y-91799124D02*
X77099895Y-90949124D01*
X77302276Y-90949124D01*
X77423704Y-90989600D01*
X77504657Y-91070552D01*
X77545133Y-91151505D01*
X77585609Y-91313410D01*
X77585609Y-91434838D01*
X77545133Y-91596743D01*
X77504657Y-91677695D01*
X77423704Y-91758648D01*
X77302276Y-91799124D01*
X77099895Y-91799124D01*
X78395133Y-91799124D02*
X77909419Y-91799124D01*
X78152276Y-91799124D02*
X78152276Y-90949124D01*
X78071324Y-91070552D01*
X77990371Y-91151505D01*
X77909419Y-91191981D01*
X79204657Y-91799124D02*
X78718943Y-91799124D01*
X78961800Y-91799124D02*
X78961800Y-90949124D01*
X78880848Y-91070552D01*
X78799895Y-91151505D01*
X78718943Y-91191981D01*
X79487991Y-90949124D02*
X80014181Y-90949124D01*
X79730848Y-91272933D01*
X79852276Y-91272933D01*
X79933229Y-91313410D01*
X79973705Y-91353886D01*
X80014181Y-91434838D01*
X80014181Y-91637219D01*
X79973705Y-91718171D01*
X79933229Y-91758648D01*
X79852276Y-91799124D01*
X79609419Y-91799124D01*
X79528467Y-91758648D01*
X79487991Y-91718171D01*
X90180895Y-91799124D02*
X90180895Y-90949124D01*
X90383276Y-90949124D01*
X90504704Y-90989600D01*
X90585657Y-91070552D01*
X90626133Y-91151505D01*
X90666609Y-91313410D01*
X90666609Y-91434838D01*
X90626133Y-91596743D01*
X90585657Y-91677695D01*
X90504704Y-91758648D01*
X90383276Y-91799124D01*
X90180895Y-91799124D01*
X91476133Y-91799124D02*
X90990419Y-91799124D01*
X91233276Y-91799124D02*
X91233276Y-90949124D01*
X91152324Y-91070552D01*
X91071371Y-91151505D01*
X90990419Y-91191981D01*
X92285657Y-91799124D02*
X91799943Y-91799124D01*
X92042800Y-91799124D02*
X92042800Y-90949124D01*
X91961848Y-91070552D01*
X91880895Y-91151505D01*
X91799943Y-91191981D01*
X93014229Y-91232457D02*
X93014229Y-91799124D01*
X92811848Y-90908648D02*
X92609467Y-91515790D01*
X93135657Y-91515790D01*
X90231695Y-107115324D02*
X90231695Y-106265324D01*
X90434076Y-106265324D01*
X90555504Y-106305800D01*
X90636457Y-106386752D01*
X90676933Y-106467705D01*
X90717409Y-106629610D01*
X90717409Y-106751038D01*
X90676933Y-106912943D01*
X90636457Y-106993895D01*
X90555504Y-107074848D01*
X90434076Y-107115324D01*
X90231695Y-107115324D01*
X91526933Y-107115324D02*
X91041219Y-107115324D01*
X91284076Y-107115324D02*
X91284076Y-106265324D01*
X91203124Y-106386752D01*
X91122171Y-106467705D01*
X91041219Y-106508181D01*
X92336457Y-107115324D02*
X91850743Y-107115324D01*
X92093600Y-107115324D02*
X92093600Y-106265324D01*
X92012648Y-106386752D01*
X91931695Y-106467705D01*
X91850743Y-106508181D01*
X93105505Y-106265324D02*
X92700743Y-106265324D01*
X92660267Y-106670086D01*
X92700743Y-106629610D01*
X92781695Y-106589133D01*
X92984076Y-106589133D01*
X93065029Y-106629610D01*
X93105505Y-106670086D01*
X93145981Y-106751038D01*
X93145981Y-106953419D01*
X93105505Y-107034371D01*
X93065029Y-107074848D01*
X92984076Y-107115324D01*
X92781695Y-107115324D01*
X92700743Y-107074848D01*
X92660267Y-107034371D01*
X77049095Y-107064524D02*
X77049095Y-106214524D01*
X77251476Y-106214524D01*
X77372904Y-106255000D01*
X77453857Y-106335952D01*
X77494333Y-106416905D01*
X77534809Y-106578810D01*
X77534809Y-106700238D01*
X77494333Y-106862143D01*
X77453857Y-106943095D01*
X77372904Y-107024048D01*
X77251476Y-107064524D01*
X77049095Y-107064524D01*
X78344333Y-107064524D02*
X77858619Y-107064524D01*
X78101476Y-107064524D02*
X78101476Y-106214524D01*
X78020524Y-106335952D01*
X77939571Y-106416905D01*
X77858619Y-106457381D01*
X79153857Y-107064524D02*
X78668143Y-107064524D01*
X78911000Y-107064524D02*
X78911000Y-106214524D01*
X78830048Y-106335952D01*
X78749095Y-106416905D01*
X78668143Y-106457381D01*
X79882429Y-106214524D02*
X79720524Y-106214524D01*
X79639572Y-106255000D01*
X79599095Y-106295476D01*
X79518143Y-106416905D01*
X79477667Y-106578810D01*
X79477667Y-106902619D01*
X79518143Y-106983571D01*
X79558619Y-107024048D01*
X79639572Y-107064524D01*
X79801476Y-107064524D01*
X79882429Y-107024048D01*
X79922905Y-106983571D01*
X79963381Y-106902619D01*
X79963381Y-106700238D01*
X79922905Y-106619286D01*
X79882429Y-106578810D01*
X79801476Y-106538333D01*
X79639572Y-106538333D01*
X79558619Y-106578810D01*
X79518143Y-106619286D01*
X79477667Y-106700238D01*
X68032095Y-65789524D02*
X68032095Y-64939524D01*
X68234476Y-64939524D01*
X68355904Y-64980000D01*
X68436857Y-65060952D01*
X68477333Y-65141905D01*
X68517809Y-65303810D01*
X68517809Y-65425238D01*
X68477333Y-65587143D01*
X68436857Y-65668095D01*
X68355904Y-65749048D01*
X68234476Y-65789524D01*
X68032095Y-65789524D01*
X69327333Y-65789524D02*
X68841619Y-65789524D01*
X69084476Y-65789524D02*
X69084476Y-64939524D01*
X69003524Y-65060952D01*
X68922571Y-65141905D01*
X68841619Y-65182381D01*
X70136857Y-65789524D02*
X69651143Y-65789524D01*
X69894000Y-65789524D02*
X69894000Y-64939524D01*
X69813048Y-65060952D01*
X69732095Y-65141905D01*
X69651143Y-65182381D01*
X70420191Y-64939524D02*
X70986857Y-64939524D01*
X70622572Y-65789524D01*
X81494095Y-65789524D02*
X81494095Y-64939524D01*
X81696476Y-64939524D01*
X81817904Y-64980000D01*
X81898857Y-65060952D01*
X81939333Y-65141905D01*
X81979809Y-65303810D01*
X81979809Y-65425238D01*
X81939333Y-65587143D01*
X81898857Y-65668095D01*
X81817904Y-65749048D01*
X81696476Y-65789524D01*
X81494095Y-65789524D01*
X82789333Y-65789524D02*
X82303619Y-65789524D01*
X82546476Y-65789524D02*
X82546476Y-64939524D01*
X82465524Y-65060952D01*
X82384571Y-65141905D01*
X82303619Y-65182381D01*
X83598857Y-65789524D02*
X83113143Y-65789524D01*
X83356000Y-65789524D02*
X83356000Y-64939524D01*
X83275048Y-65060952D01*
X83194095Y-65141905D01*
X83113143Y-65182381D01*
X84084572Y-65303810D02*
X84003619Y-65263333D01*
X83963143Y-65222857D01*
X83922667Y-65141905D01*
X83922667Y-65101429D01*
X83963143Y-65020476D01*
X84003619Y-64980000D01*
X84084572Y-64939524D01*
X84246476Y-64939524D01*
X84327429Y-64980000D01*
X84367905Y-65020476D01*
X84408381Y-65101429D01*
X84408381Y-65141905D01*
X84367905Y-65222857D01*
X84327429Y-65263333D01*
X84246476Y-65303810D01*
X84084572Y-65303810D01*
X84003619Y-65344286D01*
X83963143Y-65384762D01*
X83922667Y-65465714D01*
X83922667Y-65627619D01*
X83963143Y-65708571D01*
X84003619Y-65749048D01*
X84084572Y-65789524D01*
X84246476Y-65789524D01*
X84327429Y-65749048D01*
X84367905Y-65708571D01*
X84408381Y-65627619D01*
X84408381Y-65465714D01*
X84367905Y-65384762D01*
X84327429Y-65344286D01*
X84246476Y-65303810D01*
X81494095Y-81029524D02*
X81494095Y-80179524D01*
X81696476Y-80179524D01*
X81817904Y-80220000D01*
X81898857Y-80300952D01*
X81939333Y-80381905D01*
X81979809Y-80543810D01*
X81979809Y-80665238D01*
X81939333Y-80827143D01*
X81898857Y-80908095D01*
X81817904Y-80989048D01*
X81696476Y-81029524D01*
X81494095Y-81029524D01*
X82789333Y-81029524D02*
X82303619Y-81029524D01*
X82546476Y-81029524D02*
X82546476Y-80179524D01*
X82465524Y-80300952D01*
X82384571Y-80381905D01*
X82303619Y-80422381D01*
X83598857Y-81029524D02*
X83113143Y-81029524D01*
X83356000Y-81029524D02*
X83356000Y-80179524D01*
X83275048Y-80300952D01*
X83194095Y-80381905D01*
X83113143Y-80422381D01*
X84003619Y-81029524D02*
X84165524Y-81029524D01*
X84246476Y-80989048D01*
X84286952Y-80948571D01*
X84367905Y-80827143D01*
X84408381Y-80665238D01*
X84408381Y-80341429D01*
X84367905Y-80260476D01*
X84327429Y-80220000D01*
X84246476Y-80179524D01*
X84084572Y-80179524D01*
X84003619Y-80220000D01*
X83963143Y-80260476D01*
X83922667Y-80341429D01*
X83922667Y-80543810D01*
X83963143Y-80624762D01*
X84003619Y-80665238D01*
X84084572Y-80705714D01*
X84246476Y-80705714D01*
X84327429Y-80665238D01*
X84367905Y-80624762D01*
X84408381Y-80543810D01*
X68032095Y-81029524D02*
X68032095Y-80179524D01*
X68234476Y-80179524D01*
X68355904Y-80220000D01*
X68436857Y-80300952D01*
X68477333Y-80381905D01*
X68517809Y-80543810D01*
X68517809Y-80665238D01*
X68477333Y-80827143D01*
X68436857Y-80908095D01*
X68355904Y-80989048D01*
X68234476Y-81029524D01*
X68032095Y-81029524D01*
X69327333Y-81029524D02*
X68841619Y-81029524D01*
X69084476Y-81029524D02*
X69084476Y-80179524D01*
X69003524Y-80300952D01*
X68922571Y-80381905D01*
X68841619Y-80422381D01*
X69651143Y-80260476D02*
X69691619Y-80220000D01*
X69772571Y-80179524D01*
X69974952Y-80179524D01*
X70055905Y-80220000D01*
X70096381Y-80260476D01*
X70136857Y-80341429D01*
X70136857Y-80422381D01*
X70096381Y-80543810D01*
X69610667Y-81029524D01*
X70136857Y-81029524D01*
X70663048Y-80179524D02*
X70744000Y-80179524D01*
X70824952Y-80220000D01*
X70865429Y-80260476D01*
X70905905Y-80341429D01*
X70946381Y-80503333D01*
X70946381Y-80705714D01*
X70905905Y-80867619D01*
X70865429Y-80948571D01*
X70824952Y-80989048D01*
X70744000Y-81029524D01*
X70663048Y-81029524D01*
X70582095Y-80989048D01*
X70541619Y-80948571D01*
X70501143Y-80867619D01*
X70460667Y-80705714D01*
X70460667Y-80503333D01*
X70501143Y-80341429D01*
X70541619Y-80260476D01*
X70582095Y-80220000D01*
X70663048Y-80179524D01*
X58100695Y-91799124D02*
X58100695Y-90949124D01*
X58303076Y-90949124D01*
X58424504Y-90989600D01*
X58505457Y-91070552D01*
X58545933Y-91151505D01*
X58586409Y-91313410D01*
X58586409Y-91434838D01*
X58545933Y-91596743D01*
X58505457Y-91677695D01*
X58424504Y-91758648D01*
X58303076Y-91799124D01*
X58100695Y-91799124D01*
X59395933Y-91799124D02*
X58910219Y-91799124D01*
X59153076Y-91799124D02*
X59153076Y-90949124D01*
X59072124Y-91070552D01*
X58991171Y-91151505D01*
X58910219Y-91191981D01*
X59719743Y-91030076D02*
X59760219Y-90989600D01*
X59841171Y-90949124D01*
X60043552Y-90949124D01*
X60124505Y-90989600D01*
X60164981Y-91030076D01*
X60205457Y-91111029D01*
X60205457Y-91191981D01*
X60164981Y-91313410D01*
X59679267Y-91799124D01*
X60205457Y-91799124D01*
X61014981Y-91799124D02*
X60529267Y-91799124D01*
X60772124Y-91799124D02*
X60772124Y-90949124D01*
X60691172Y-91070552D01*
X60610219Y-91151505D01*
X60529267Y-91191981D01*
X71080095Y-91799124D02*
X71080095Y-90949124D01*
X71282476Y-90949124D01*
X71403904Y-90989600D01*
X71484857Y-91070552D01*
X71525333Y-91151505D01*
X71565809Y-91313410D01*
X71565809Y-91434838D01*
X71525333Y-91596743D01*
X71484857Y-91677695D01*
X71403904Y-91758648D01*
X71282476Y-91799124D01*
X71080095Y-91799124D01*
X72375333Y-91799124D02*
X71889619Y-91799124D01*
X72132476Y-91799124D02*
X72132476Y-90949124D01*
X72051524Y-91070552D01*
X71970571Y-91151505D01*
X71889619Y-91191981D01*
X72699143Y-91030076D02*
X72739619Y-90989600D01*
X72820571Y-90949124D01*
X73022952Y-90949124D01*
X73103905Y-90989600D01*
X73144381Y-91030076D01*
X73184857Y-91111029D01*
X73184857Y-91191981D01*
X73144381Y-91313410D01*
X72658667Y-91799124D01*
X73184857Y-91799124D01*
X73508667Y-91030076D02*
X73549143Y-90989600D01*
X73630095Y-90949124D01*
X73832476Y-90949124D01*
X73913429Y-90989600D01*
X73953905Y-91030076D01*
X73994381Y-91111029D01*
X73994381Y-91191981D01*
X73953905Y-91313410D01*
X73468191Y-91799124D01*
X73994381Y-91799124D01*
X71283295Y-107115324D02*
X71283295Y-106265324D01*
X71485676Y-106265324D01*
X71607104Y-106305800D01*
X71688057Y-106386752D01*
X71728533Y-106467705D01*
X71769009Y-106629610D01*
X71769009Y-106751038D01*
X71728533Y-106912943D01*
X71688057Y-106993895D01*
X71607104Y-107074848D01*
X71485676Y-107115324D01*
X71283295Y-107115324D01*
X72578533Y-107115324D02*
X72092819Y-107115324D01*
X72335676Y-107115324D02*
X72335676Y-106265324D01*
X72254724Y-106386752D01*
X72173771Y-106467705D01*
X72092819Y-106508181D01*
X72902343Y-106346276D02*
X72942819Y-106305800D01*
X73023771Y-106265324D01*
X73226152Y-106265324D01*
X73307105Y-106305800D01*
X73347581Y-106346276D01*
X73388057Y-106427229D01*
X73388057Y-106508181D01*
X73347581Y-106629610D01*
X72861867Y-107115324D01*
X73388057Y-107115324D01*
X73671391Y-106265324D02*
X74197581Y-106265324D01*
X73914248Y-106589133D01*
X74035676Y-106589133D01*
X74116629Y-106629610D01*
X74157105Y-106670086D01*
X74197581Y-106751038D01*
X74197581Y-106953419D01*
X74157105Y-107034371D01*
X74116629Y-107074848D01*
X74035676Y-107115324D01*
X73792819Y-107115324D01*
X73711867Y-107074848D01*
X73671391Y-107034371D01*
X58049895Y-107064524D02*
X58049895Y-106214524D01*
X58252276Y-106214524D01*
X58373704Y-106255000D01*
X58454657Y-106335952D01*
X58495133Y-106416905D01*
X58535609Y-106578810D01*
X58535609Y-106700238D01*
X58495133Y-106862143D01*
X58454657Y-106943095D01*
X58373704Y-107024048D01*
X58252276Y-107064524D01*
X58049895Y-107064524D01*
X59345133Y-107064524D02*
X58859419Y-107064524D01*
X59102276Y-107064524D02*
X59102276Y-106214524D01*
X59021324Y-106335952D01*
X58940371Y-106416905D01*
X58859419Y-106457381D01*
X59668943Y-106295476D02*
X59709419Y-106255000D01*
X59790371Y-106214524D01*
X59992752Y-106214524D01*
X60073705Y-106255000D01*
X60114181Y-106295476D01*
X60154657Y-106376429D01*
X60154657Y-106457381D01*
X60114181Y-106578810D01*
X59628467Y-107064524D01*
X60154657Y-107064524D01*
X60883229Y-106497857D02*
X60883229Y-107064524D01*
X60680848Y-106174048D02*
X60478467Y-106781190D01*
X61004657Y-106781190D01*
X48982095Y-65789524D02*
X48982095Y-64939524D01*
X49184476Y-64939524D01*
X49305904Y-64980000D01*
X49386857Y-65060952D01*
X49427333Y-65141905D01*
X49467809Y-65303810D01*
X49467809Y-65425238D01*
X49427333Y-65587143D01*
X49386857Y-65668095D01*
X49305904Y-65749048D01*
X49184476Y-65789524D01*
X48982095Y-65789524D01*
X50277333Y-65789524D02*
X49791619Y-65789524D01*
X50034476Y-65789524D02*
X50034476Y-64939524D01*
X49953524Y-65060952D01*
X49872571Y-65141905D01*
X49791619Y-65182381D01*
X50601143Y-65020476D02*
X50641619Y-64980000D01*
X50722571Y-64939524D01*
X50924952Y-64939524D01*
X51005905Y-64980000D01*
X51046381Y-65020476D01*
X51086857Y-65101429D01*
X51086857Y-65182381D01*
X51046381Y-65303810D01*
X50560667Y-65789524D01*
X51086857Y-65789524D01*
X51855905Y-64939524D02*
X51451143Y-64939524D01*
X51410667Y-65344286D01*
X51451143Y-65303810D01*
X51532095Y-65263333D01*
X51734476Y-65263333D01*
X51815429Y-65303810D01*
X51855905Y-65344286D01*
X51896381Y-65425238D01*
X51896381Y-65627619D01*
X51855905Y-65708571D01*
X51815429Y-65749048D01*
X51734476Y-65789524D01*
X51532095Y-65789524D01*
X51451143Y-65749048D01*
X51410667Y-65708571D01*
X48982095Y-81029524D02*
X48982095Y-80179524D01*
X49184476Y-80179524D01*
X49305904Y-80220000D01*
X49386857Y-80300952D01*
X49427333Y-80381905D01*
X49467809Y-80543810D01*
X49467809Y-80665238D01*
X49427333Y-80827143D01*
X49386857Y-80908095D01*
X49305904Y-80989048D01*
X49184476Y-81029524D01*
X48982095Y-81029524D01*
X50277333Y-81029524D02*
X49791619Y-81029524D01*
X50034476Y-81029524D02*
X50034476Y-80179524D01*
X49953524Y-80300952D01*
X49872571Y-80381905D01*
X49791619Y-80422381D01*
X50601143Y-80260476D02*
X50641619Y-80220000D01*
X50722571Y-80179524D01*
X50924952Y-80179524D01*
X51005905Y-80220000D01*
X51046381Y-80260476D01*
X51086857Y-80341429D01*
X51086857Y-80422381D01*
X51046381Y-80543810D01*
X50560667Y-81029524D01*
X51086857Y-81029524D01*
X51572572Y-80543810D02*
X51491619Y-80503333D01*
X51451143Y-80462857D01*
X51410667Y-80381905D01*
X51410667Y-80341429D01*
X51451143Y-80260476D01*
X51491619Y-80220000D01*
X51572572Y-80179524D01*
X51734476Y-80179524D01*
X51815429Y-80220000D01*
X51855905Y-80260476D01*
X51896381Y-80341429D01*
X51896381Y-80381905D01*
X51855905Y-80462857D01*
X51815429Y-80503333D01*
X51734476Y-80543810D01*
X51572572Y-80543810D01*
X51491619Y-80584286D01*
X51451143Y-80624762D01*
X51410667Y-80705714D01*
X51410667Y-80867619D01*
X51451143Y-80948571D01*
X51491619Y-80989048D01*
X51572572Y-81029524D01*
X51734476Y-81029524D01*
X51815429Y-80989048D01*
X51855905Y-80948571D01*
X51896381Y-80867619D01*
X51896381Y-80705714D01*
X51855905Y-80624762D01*
X51815429Y-80584286D01*
X51734476Y-80543810D01*
X38999895Y-91799124D02*
X38999895Y-90949124D01*
X39202276Y-90949124D01*
X39323704Y-90989600D01*
X39404657Y-91070552D01*
X39445133Y-91151505D01*
X39485609Y-91313410D01*
X39485609Y-91434838D01*
X39445133Y-91596743D01*
X39404657Y-91677695D01*
X39323704Y-91758648D01*
X39202276Y-91799124D01*
X38999895Y-91799124D01*
X40295133Y-91799124D02*
X39809419Y-91799124D01*
X40052276Y-91799124D02*
X40052276Y-90949124D01*
X39971324Y-91070552D01*
X39890371Y-91151505D01*
X39809419Y-91191981D01*
X40618943Y-91030076D02*
X40659419Y-90989600D01*
X40740371Y-90949124D01*
X40942752Y-90949124D01*
X41023705Y-90989600D01*
X41064181Y-91030076D01*
X41104657Y-91111029D01*
X41104657Y-91191981D01*
X41064181Y-91313410D01*
X40578467Y-91799124D01*
X41104657Y-91799124D01*
X41509419Y-91799124D02*
X41671324Y-91799124D01*
X41752276Y-91758648D01*
X41792752Y-91718171D01*
X41873705Y-91596743D01*
X41914181Y-91434838D01*
X41914181Y-91111029D01*
X41873705Y-91030076D01*
X41833229Y-90989600D01*
X41752276Y-90949124D01*
X41590372Y-90949124D01*
X41509419Y-90989600D01*
X41468943Y-91030076D01*
X41428467Y-91111029D01*
X41428467Y-91313410D01*
X41468943Y-91394362D01*
X41509419Y-91434838D01*
X41590372Y-91475314D01*
X41752276Y-91475314D01*
X41833229Y-91434838D01*
X41873705Y-91394362D01*
X41914181Y-91313410D01*
X52131695Y-91799124D02*
X52131695Y-90949124D01*
X52334076Y-90949124D01*
X52455504Y-90989600D01*
X52536457Y-91070552D01*
X52576933Y-91151505D01*
X52617409Y-91313410D01*
X52617409Y-91434838D01*
X52576933Y-91596743D01*
X52536457Y-91677695D01*
X52455504Y-91758648D01*
X52334076Y-91799124D01*
X52131695Y-91799124D01*
X53426933Y-91799124D02*
X52941219Y-91799124D01*
X53184076Y-91799124D02*
X53184076Y-90949124D01*
X53103124Y-91070552D01*
X53022171Y-91151505D01*
X52941219Y-91191981D01*
X53710267Y-90949124D02*
X54236457Y-90949124D01*
X53953124Y-91272933D01*
X54074552Y-91272933D01*
X54155505Y-91313410D01*
X54195981Y-91353886D01*
X54236457Y-91434838D01*
X54236457Y-91637219D01*
X54195981Y-91718171D01*
X54155505Y-91758648D01*
X54074552Y-91799124D01*
X53831695Y-91799124D01*
X53750743Y-91758648D01*
X53710267Y-91718171D01*
X54762648Y-90949124D02*
X54843600Y-90949124D01*
X54924552Y-90989600D01*
X54965029Y-91030076D01*
X55005505Y-91111029D01*
X55045981Y-91272933D01*
X55045981Y-91475314D01*
X55005505Y-91637219D01*
X54965029Y-91718171D01*
X54924552Y-91758648D01*
X54843600Y-91799124D01*
X54762648Y-91799124D01*
X54681695Y-91758648D01*
X54641219Y-91718171D01*
X54600743Y-91637219D01*
X54560267Y-91475314D01*
X54560267Y-91272933D01*
X54600743Y-91111029D01*
X54641219Y-91030076D01*
X54681695Y-90989600D01*
X54762648Y-90949124D01*
X52131695Y-107064524D02*
X52131695Y-106214524D01*
X52334076Y-106214524D01*
X52455504Y-106255000D01*
X52536457Y-106335952D01*
X52576933Y-106416905D01*
X52617409Y-106578810D01*
X52617409Y-106700238D01*
X52576933Y-106862143D01*
X52536457Y-106943095D01*
X52455504Y-107024048D01*
X52334076Y-107064524D01*
X52131695Y-107064524D01*
X53426933Y-107064524D02*
X52941219Y-107064524D01*
X53184076Y-107064524D02*
X53184076Y-106214524D01*
X53103124Y-106335952D01*
X53022171Y-106416905D01*
X52941219Y-106457381D01*
X53710267Y-106214524D02*
X54236457Y-106214524D01*
X53953124Y-106538333D01*
X54074552Y-106538333D01*
X54155505Y-106578810D01*
X54195981Y-106619286D01*
X54236457Y-106700238D01*
X54236457Y-106902619D01*
X54195981Y-106983571D01*
X54155505Y-107024048D01*
X54074552Y-107064524D01*
X53831695Y-107064524D01*
X53750743Y-107024048D01*
X53710267Y-106983571D01*
X55045981Y-107064524D02*
X54560267Y-107064524D01*
X54803124Y-107064524D02*
X54803124Y-106214524D01*
X54722172Y-106335952D01*
X54641219Y-106416905D01*
X54560267Y-106457381D01*
X38923695Y-107115324D02*
X38923695Y-106265324D01*
X39126076Y-106265324D01*
X39247504Y-106305800D01*
X39328457Y-106386752D01*
X39368933Y-106467705D01*
X39409409Y-106629610D01*
X39409409Y-106751038D01*
X39368933Y-106912943D01*
X39328457Y-106993895D01*
X39247504Y-107074848D01*
X39126076Y-107115324D01*
X38923695Y-107115324D01*
X40218933Y-107115324D02*
X39733219Y-107115324D01*
X39976076Y-107115324D02*
X39976076Y-106265324D01*
X39895124Y-106386752D01*
X39814171Y-106467705D01*
X39733219Y-106508181D01*
X40502267Y-106265324D02*
X41028457Y-106265324D01*
X40745124Y-106589133D01*
X40866552Y-106589133D01*
X40947505Y-106629610D01*
X40987981Y-106670086D01*
X41028457Y-106751038D01*
X41028457Y-106953419D01*
X40987981Y-107034371D01*
X40947505Y-107074848D01*
X40866552Y-107115324D01*
X40623695Y-107115324D01*
X40542743Y-107074848D01*
X40502267Y-107034371D01*
X41352267Y-106346276D02*
X41392743Y-106305800D01*
X41473695Y-106265324D01*
X41676076Y-106265324D01*
X41757029Y-106305800D01*
X41797505Y-106346276D01*
X41837981Y-106427229D01*
X41837981Y-106508181D01*
X41797505Y-106629610D01*
X41311791Y-107115324D01*
X41837981Y-107115324D01*
X36663334Y-103862143D02*
X36615715Y-103909762D01*
X36472858Y-103957381D01*
X36377620Y-103957381D01*
X36234762Y-103909762D01*
X36139524Y-103814524D01*
X36091905Y-103719286D01*
X36044286Y-103528810D01*
X36044286Y-103385952D01*
X36091905Y-103195476D01*
X36139524Y-103100238D01*
X36234762Y-103005000D01*
X36377620Y-102957381D01*
X36472858Y-102957381D01*
X36615715Y-103005000D01*
X36663334Y-103052619D01*
X37615715Y-103957381D02*
X37044286Y-103957381D01*
X37330000Y-103957381D02*
X37330000Y-102957381D01*
X37234762Y-103100238D01*
X37139524Y-103195476D01*
X37044286Y-103243095D01*
X55713334Y-103862143D02*
X55665715Y-103909762D01*
X55522858Y-103957381D01*
X55427620Y-103957381D01*
X55284762Y-103909762D01*
X55189524Y-103814524D01*
X55141905Y-103719286D01*
X55094286Y-103528810D01*
X55094286Y-103385952D01*
X55141905Y-103195476D01*
X55189524Y-103100238D01*
X55284762Y-103005000D01*
X55427620Y-102957381D01*
X55522858Y-102957381D01*
X55665715Y-103005000D01*
X55713334Y-103052619D01*
X56046667Y-102957381D02*
X56665715Y-102957381D01*
X56332381Y-103338333D01*
X56475239Y-103338333D01*
X56570477Y-103385952D01*
X56618096Y-103433571D01*
X56665715Y-103528810D01*
X56665715Y-103766905D01*
X56618096Y-103862143D01*
X56570477Y-103909762D01*
X56475239Y-103957381D01*
X56189524Y-103957381D01*
X56094286Y-103909762D01*
X56046667Y-103862143D01*
X65873334Y-77827143D02*
X65825715Y-77874762D01*
X65682858Y-77922381D01*
X65587620Y-77922381D01*
X65444762Y-77874762D01*
X65349524Y-77779524D01*
X65301905Y-77684286D01*
X65254286Y-77493810D01*
X65254286Y-77350952D01*
X65301905Y-77160476D01*
X65349524Y-77065238D01*
X65444762Y-76970000D01*
X65587620Y-76922381D01*
X65682858Y-76922381D01*
X65825715Y-76970000D01*
X65873334Y-77017619D01*
X66730477Y-77255714D02*
X66730477Y-77922381D01*
X66492381Y-76874762D02*
X66254286Y-77589048D01*
X66873334Y-77589048D01*
X84923334Y-77827143D02*
X84875715Y-77874762D01*
X84732858Y-77922381D01*
X84637620Y-77922381D01*
X84494762Y-77874762D01*
X84399524Y-77779524D01*
X84351905Y-77684286D01*
X84304286Y-77493810D01*
X84304286Y-77350952D01*
X84351905Y-77160476D01*
X84399524Y-77065238D01*
X84494762Y-76970000D01*
X84637620Y-76922381D01*
X84732858Y-76922381D01*
X84875715Y-76970000D01*
X84923334Y-77017619D01*
X85780477Y-76922381D02*
X85590000Y-76922381D01*
X85494762Y-76970000D01*
X85447143Y-77017619D01*
X85351905Y-77160476D01*
X85304286Y-77350952D01*
X85304286Y-77731905D01*
X85351905Y-77827143D01*
X85399524Y-77874762D01*
X85494762Y-77922381D01*
X85685239Y-77922381D01*
X85780477Y-77874762D01*
X85828096Y-77827143D01*
X85875715Y-77731905D01*
X85875715Y-77493810D01*
X85828096Y-77398571D01*
X85780477Y-77350952D01*
X85685239Y-77303333D01*
X85494762Y-77303333D01*
X85399524Y-77350952D01*
X85351905Y-77398571D01*
X85304286Y-77493810D01*
X103973334Y-77827143D02*
X103925715Y-77874762D01*
X103782858Y-77922381D01*
X103687620Y-77922381D01*
X103544762Y-77874762D01*
X103449524Y-77779524D01*
X103401905Y-77684286D01*
X103354286Y-77493810D01*
X103354286Y-77350952D01*
X103401905Y-77160476D01*
X103449524Y-77065238D01*
X103544762Y-76970000D01*
X103687620Y-76922381D01*
X103782858Y-76922381D01*
X103925715Y-76970000D01*
X103973334Y-77017619D01*
X104544762Y-77350952D02*
X104449524Y-77303333D01*
X104401905Y-77255714D01*
X104354286Y-77160476D01*
X104354286Y-77112857D01*
X104401905Y-77017619D01*
X104449524Y-76970000D01*
X104544762Y-76922381D01*
X104735239Y-76922381D01*
X104830477Y-76970000D01*
X104878096Y-77017619D01*
X104925715Y-77112857D01*
X104925715Y-77160476D01*
X104878096Y-77255714D01*
X104830477Y-77303333D01*
X104735239Y-77350952D01*
X104544762Y-77350952D01*
X104449524Y-77398571D01*
X104401905Y-77446190D01*
X104354286Y-77541429D01*
X104354286Y-77731905D01*
X104401905Y-77827143D01*
X104449524Y-77874762D01*
X104544762Y-77922381D01*
X104735239Y-77922381D01*
X104830477Y-77874762D01*
X104878096Y-77827143D01*
X104925715Y-77731905D01*
X104925715Y-77541429D01*
X104878096Y-77446190D01*
X104830477Y-77398571D01*
X104735239Y-77350952D01*
X50871381Y-28519286D02*
X49871381Y-28519286D01*
X49871381Y-28281191D01*
X49919000Y-28138333D01*
X50014238Y-28043095D01*
X50109476Y-27995476D01*
X50299952Y-27947857D01*
X50442810Y-27947857D01*
X50633286Y-27995476D01*
X50728524Y-28043095D01*
X50823762Y-28138333D01*
X50871381Y-28281191D01*
X50871381Y-28519286D01*
X50871381Y-26995476D02*
X50871381Y-27566905D01*
X50871381Y-27281191D02*
X49871381Y-27281191D01*
X50014238Y-27376429D01*
X50109476Y-27471667D01*
X50157095Y-27566905D01*
X50299952Y-26424048D02*
X50252333Y-26519286D01*
X50204714Y-26566905D01*
X50109476Y-26614524D01*
X50061857Y-26614524D01*
X49966619Y-26566905D01*
X49919000Y-26519286D01*
X49871381Y-26424048D01*
X49871381Y-26233571D01*
X49919000Y-26138333D01*
X49966619Y-26090714D01*
X50061857Y-26043095D01*
X50109476Y-26043095D01*
X50204714Y-26090714D01*
X50252333Y-26138333D01*
X50299952Y-26233571D01*
X50299952Y-26424048D01*
X50347571Y-26519286D01*
X50395190Y-26566905D01*
X50490429Y-26614524D01*
X50680905Y-26614524D01*
X50776143Y-26566905D01*
X50823762Y-26519286D01*
X50871381Y-26424048D01*
X50871381Y-26233571D01*
X50823762Y-26138333D01*
X50776143Y-26090714D01*
X50680905Y-26043095D01*
X50490429Y-26043095D01*
X50395190Y-26090714D01*
X50347571Y-26138333D01*
X50299952Y-26233571D01*
X52903381Y-37282286D02*
X51903381Y-37282286D01*
X51903381Y-37044191D01*
X51951000Y-36901333D01*
X52046238Y-36806095D01*
X52141476Y-36758476D01*
X52331952Y-36710857D01*
X52474810Y-36710857D01*
X52665286Y-36758476D01*
X52760524Y-36806095D01*
X52855762Y-36901333D01*
X52903381Y-37044191D01*
X52903381Y-37282286D01*
X52903381Y-35758476D02*
X52903381Y-36329905D01*
X52903381Y-36044191D02*
X51903381Y-36044191D01*
X52046238Y-36139429D01*
X52141476Y-36234667D01*
X52189095Y-36329905D01*
X52903381Y-35282286D02*
X52903381Y-35091810D01*
X52855762Y-34996571D01*
X52808143Y-34948952D01*
X52665286Y-34853714D01*
X52474810Y-34806095D01*
X52093857Y-34806095D01*
X51998619Y-34853714D01*
X51951000Y-34901333D01*
X51903381Y-34996571D01*
X51903381Y-35187048D01*
X51951000Y-35282286D01*
X51998619Y-35329905D01*
X52093857Y-35377524D01*
X52331952Y-35377524D01*
X52427190Y-35329905D01*
X52474810Y-35282286D01*
X52522429Y-35187048D01*
X52522429Y-34996571D01*
X52474810Y-34901333D01*
X52427190Y-34853714D01*
X52331952Y-34806095D01*
X55951381Y-28493886D02*
X54951381Y-28493886D01*
X54951381Y-28255791D01*
X54999000Y-28112933D01*
X55094238Y-28017695D01*
X55189476Y-27970076D01*
X55379952Y-27922457D01*
X55522810Y-27922457D01*
X55713286Y-27970076D01*
X55808524Y-28017695D01*
X55903762Y-28112933D01*
X55951381Y-28255791D01*
X55951381Y-28493886D01*
X55046619Y-27541505D02*
X54999000Y-27493886D01*
X54951381Y-27398648D01*
X54951381Y-27160552D01*
X54999000Y-27065314D01*
X55046619Y-27017695D01*
X55141857Y-26970076D01*
X55237095Y-26970076D01*
X55379952Y-27017695D01*
X55951381Y-27589124D01*
X55951381Y-26970076D01*
X54951381Y-26351029D02*
X54951381Y-26255790D01*
X54999000Y-26160552D01*
X55046619Y-26112933D01*
X55141857Y-26065314D01*
X55332333Y-26017695D01*
X55570429Y-26017695D01*
X55760905Y-26065314D01*
X55856143Y-26112933D01*
X55903762Y-26160552D01*
X55951381Y-26255790D01*
X55951381Y-26351029D01*
X55903762Y-26446267D01*
X55856143Y-26493886D01*
X55760905Y-26541505D01*
X55570429Y-26589124D01*
X55332333Y-26589124D01*
X55141857Y-26541505D01*
X55046619Y-26493886D01*
X54999000Y-26446267D01*
X54951381Y-26351029D01*
X57983381Y-37282286D02*
X56983381Y-37282286D01*
X56983381Y-37044191D01*
X57031000Y-36901333D01*
X57126238Y-36806095D01*
X57221476Y-36758476D01*
X57411952Y-36710857D01*
X57554810Y-36710857D01*
X57745286Y-36758476D01*
X57840524Y-36806095D01*
X57935762Y-36901333D01*
X57983381Y-37044191D01*
X57983381Y-37282286D01*
X57078619Y-36329905D02*
X57031000Y-36282286D01*
X56983381Y-36187048D01*
X56983381Y-35948952D01*
X57031000Y-35853714D01*
X57078619Y-35806095D01*
X57173857Y-35758476D01*
X57269095Y-35758476D01*
X57411952Y-35806095D01*
X57983381Y-36377524D01*
X57983381Y-35758476D01*
X57983381Y-34806095D02*
X57983381Y-35377524D01*
X57983381Y-35091810D02*
X56983381Y-35091810D01*
X57126238Y-35187048D01*
X57221476Y-35282286D01*
X57269095Y-35377524D01*
X61031381Y-28519286D02*
X60031381Y-28519286D01*
X60031381Y-28281191D01*
X60079000Y-28138333D01*
X60174238Y-28043095D01*
X60269476Y-27995476D01*
X60459952Y-27947857D01*
X60602810Y-27947857D01*
X60793286Y-27995476D01*
X60888524Y-28043095D01*
X60983762Y-28138333D01*
X61031381Y-28281191D01*
X61031381Y-28519286D01*
X60126619Y-27566905D02*
X60079000Y-27519286D01*
X60031381Y-27424048D01*
X60031381Y-27185952D01*
X60079000Y-27090714D01*
X60126619Y-27043095D01*
X60221857Y-26995476D01*
X60317095Y-26995476D01*
X60459952Y-27043095D01*
X61031381Y-27614524D01*
X61031381Y-26995476D01*
X60126619Y-26614524D02*
X60079000Y-26566905D01*
X60031381Y-26471667D01*
X60031381Y-26233571D01*
X60079000Y-26138333D01*
X60126619Y-26090714D01*
X60221857Y-26043095D01*
X60317095Y-26043095D01*
X60459952Y-26090714D01*
X61031381Y-26662143D01*
X61031381Y-26043095D01*
X63063381Y-37282286D02*
X62063381Y-37282286D01*
X62063381Y-37044191D01*
X62111000Y-36901333D01*
X62206238Y-36806095D01*
X62301476Y-36758476D01*
X62491952Y-36710857D01*
X62634810Y-36710857D01*
X62825286Y-36758476D01*
X62920524Y-36806095D01*
X63015762Y-36901333D01*
X63063381Y-37044191D01*
X63063381Y-37282286D01*
X62158619Y-36329905D02*
X62111000Y-36282286D01*
X62063381Y-36187048D01*
X62063381Y-35948952D01*
X62111000Y-35853714D01*
X62158619Y-35806095D01*
X62253857Y-35758476D01*
X62349095Y-35758476D01*
X62491952Y-35806095D01*
X63063381Y-36377524D01*
X63063381Y-35758476D01*
X62063381Y-35425143D02*
X62063381Y-34806095D01*
X62444333Y-35139429D01*
X62444333Y-34996571D01*
X62491952Y-34901333D01*
X62539571Y-34853714D01*
X62634810Y-34806095D01*
X62872905Y-34806095D01*
X62968143Y-34853714D01*
X63015762Y-34901333D01*
X63063381Y-34996571D01*
X63063381Y-35282286D01*
X63015762Y-35377524D01*
X62968143Y-35425143D01*
X66111381Y-28519286D02*
X65111381Y-28519286D01*
X65111381Y-28281191D01*
X65159000Y-28138333D01*
X65254238Y-28043095D01*
X65349476Y-27995476D01*
X65539952Y-27947857D01*
X65682810Y-27947857D01*
X65873286Y-27995476D01*
X65968524Y-28043095D01*
X66063762Y-28138333D01*
X66111381Y-28281191D01*
X66111381Y-28519286D01*
X65206619Y-27566905D02*
X65159000Y-27519286D01*
X65111381Y-27424048D01*
X65111381Y-27185952D01*
X65159000Y-27090714D01*
X65206619Y-27043095D01*
X65301857Y-26995476D01*
X65397095Y-26995476D01*
X65539952Y-27043095D01*
X66111381Y-27614524D01*
X66111381Y-26995476D01*
X65444714Y-26138333D02*
X66111381Y-26138333D01*
X65063762Y-26376429D02*
X65778048Y-26614524D01*
X65778048Y-25995476D01*
X68143381Y-37282286D02*
X67143381Y-37282286D01*
X67143381Y-37044191D01*
X67191000Y-36901333D01*
X67286238Y-36806095D01*
X67381476Y-36758476D01*
X67571952Y-36710857D01*
X67714810Y-36710857D01*
X67905286Y-36758476D01*
X68000524Y-36806095D01*
X68095762Y-36901333D01*
X68143381Y-37044191D01*
X68143381Y-37282286D01*
X67238619Y-36329905D02*
X67191000Y-36282286D01*
X67143381Y-36187048D01*
X67143381Y-35948952D01*
X67191000Y-35853714D01*
X67238619Y-35806095D01*
X67333857Y-35758476D01*
X67429095Y-35758476D01*
X67571952Y-35806095D01*
X68143381Y-36377524D01*
X68143381Y-35758476D01*
X67143381Y-34853714D02*
X67143381Y-35329905D01*
X67619571Y-35377524D01*
X67571952Y-35329905D01*
X67524333Y-35234667D01*
X67524333Y-34996571D01*
X67571952Y-34901333D01*
X67619571Y-34853714D01*
X67714810Y-34806095D01*
X67952905Y-34806095D01*
X68048143Y-34853714D01*
X68095762Y-34901333D01*
X68143381Y-34996571D01*
X68143381Y-35234667D01*
X68095762Y-35329905D01*
X68048143Y-35377524D01*
X71191381Y-28519286D02*
X70191381Y-28519286D01*
X70191381Y-28281191D01*
X70239000Y-28138333D01*
X70334238Y-28043095D01*
X70429476Y-27995476D01*
X70619952Y-27947857D01*
X70762810Y-27947857D01*
X70953286Y-27995476D01*
X71048524Y-28043095D01*
X71143762Y-28138333D01*
X71191381Y-28281191D01*
X71191381Y-28519286D01*
X70286619Y-27566905D02*
X70239000Y-27519286D01*
X70191381Y-27424048D01*
X70191381Y-27185952D01*
X70239000Y-27090714D01*
X70286619Y-27043095D01*
X70381857Y-26995476D01*
X70477095Y-26995476D01*
X70619952Y-27043095D01*
X71191381Y-27614524D01*
X71191381Y-26995476D01*
X70191381Y-26138333D02*
X70191381Y-26328810D01*
X70239000Y-26424048D01*
X70286619Y-26471667D01*
X70429476Y-26566905D01*
X70619952Y-26614524D01*
X71000905Y-26614524D01*
X71096143Y-26566905D01*
X71143762Y-26519286D01*
X71191381Y-26424048D01*
X71191381Y-26233571D01*
X71143762Y-26138333D01*
X71096143Y-26090714D01*
X71000905Y-26043095D01*
X70762810Y-26043095D01*
X70667571Y-26090714D01*
X70619952Y-26138333D01*
X70572333Y-26233571D01*
X70572333Y-26424048D01*
X70619952Y-26519286D01*
X70667571Y-26566905D01*
X70762810Y-26614524D01*
X73223381Y-37282286D02*
X72223381Y-37282286D01*
X72223381Y-37044191D01*
X72271000Y-36901333D01*
X72366238Y-36806095D01*
X72461476Y-36758476D01*
X72651952Y-36710857D01*
X72794810Y-36710857D01*
X72985286Y-36758476D01*
X73080524Y-36806095D01*
X73175762Y-36901333D01*
X73223381Y-37044191D01*
X73223381Y-37282286D01*
X72318619Y-36329905D02*
X72271000Y-36282286D01*
X72223381Y-36187048D01*
X72223381Y-35948952D01*
X72271000Y-35853714D01*
X72318619Y-35806095D01*
X72413857Y-35758476D01*
X72509095Y-35758476D01*
X72651952Y-35806095D01*
X73223381Y-36377524D01*
X73223381Y-35758476D01*
X72223381Y-35425143D02*
X72223381Y-34758476D01*
X73223381Y-35187048D01*
X76271381Y-28519286D02*
X75271381Y-28519286D01*
X75271381Y-28281191D01*
X75319000Y-28138333D01*
X75414238Y-28043095D01*
X75509476Y-27995476D01*
X75699952Y-27947857D01*
X75842810Y-27947857D01*
X76033286Y-27995476D01*
X76128524Y-28043095D01*
X76223762Y-28138333D01*
X76271381Y-28281191D01*
X76271381Y-28519286D01*
X75366619Y-27566905D02*
X75319000Y-27519286D01*
X75271381Y-27424048D01*
X75271381Y-27185952D01*
X75319000Y-27090714D01*
X75366619Y-27043095D01*
X75461857Y-26995476D01*
X75557095Y-26995476D01*
X75699952Y-27043095D01*
X76271381Y-27614524D01*
X76271381Y-26995476D01*
X75699952Y-26424048D02*
X75652333Y-26519286D01*
X75604714Y-26566905D01*
X75509476Y-26614524D01*
X75461857Y-26614524D01*
X75366619Y-26566905D01*
X75319000Y-26519286D01*
X75271381Y-26424048D01*
X75271381Y-26233571D01*
X75319000Y-26138333D01*
X75366619Y-26090714D01*
X75461857Y-26043095D01*
X75509476Y-26043095D01*
X75604714Y-26090714D01*
X75652333Y-26138333D01*
X75699952Y-26233571D01*
X75699952Y-26424048D01*
X75747571Y-26519286D01*
X75795190Y-26566905D01*
X75890429Y-26614524D01*
X76080905Y-26614524D01*
X76176143Y-26566905D01*
X76223762Y-26519286D01*
X76271381Y-26424048D01*
X76271381Y-26233571D01*
X76223762Y-26138333D01*
X76176143Y-26090714D01*
X76080905Y-26043095D01*
X75890429Y-26043095D01*
X75795190Y-26090714D01*
X75747571Y-26138333D01*
X75699952Y-26233571D01*
X78303381Y-37282286D02*
X77303381Y-37282286D01*
X77303381Y-37044191D01*
X77351000Y-36901333D01*
X77446238Y-36806095D01*
X77541476Y-36758476D01*
X77731952Y-36710857D01*
X77874810Y-36710857D01*
X78065286Y-36758476D01*
X78160524Y-36806095D01*
X78255762Y-36901333D01*
X78303381Y-37044191D01*
X78303381Y-37282286D01*
X77398619Y-36329905D02*
X77351000Y-36282286D01*
X77303381Y-36187048D01*
X77303381Y-35948952D01*
X77351000Y-35853714D01*
X77398619Y-35806095D01*
X77493857Y-35758476D01*
X77589095Y-35758476D01*
X77731952Y-35806095D01*
X78303381Y-36377524D01*
X78303381Y-35758476D01*
X78303381Y-35282286D02*
X78303381Y-35091810D01*
X78255762Y-34996571D01*
X78208143Y-34948952D01*
X78065286Y-34853714D01*
X77874810Y-34806095D01*
X77493857Y-34806095D01*
X77398619Y-34853714D01*
X77351000Y-34901333D01*
X77303381Y-34996571D01*
X77303381Y-35187048D01*
X77351000Y-35282286D01*
X77398619Y-35329905D01*
X77493857Y-35377524D01*
X77731952Y-35377524D01*
X77827190Y-35329905D01*
X77874810Y-35282286D01*
X77922429Y-35187048D01*
X77922429Y-34996571D01*
X77874810Y-34901333D01*
X77827190Y-34853714D01*
X77731952Y-34806095D01*
X81351381Y-28519286D02*
X80351381Y-28519286D01*
X80351381Y-28281191D01*
X80399000Y-28138333D01*
X80494238Y-28043095D01*
X80589476Y-27995476D01*
X80779952Y-27947857D01*
X80922810Y-27947857D01*
X81113286Y-27995476D01*
X81208524Y-28043095D01*
X81303762Y-28138333D01*
X81351381Y-28281191D01*
X81351381Y-28519286D01*
X80351381Y-27614524D02*
X80351381Y-26995476D01*
X80732333Y-27328810D01*
X80732333Y-27185952D01*
X80779952Y-27090714D01*
X80827571Y-27043095D01*
X80922810Y-26995476D01*
X81160905Y-26995476D01*
X81256143Y-27043095D01*
X81303762Y-27090714D01*
X81351381Y-27185952D01*
X81351381Y-27471667D01*
X81303762Y-27566905D01*
X81256143Y-27614524D01*
X80351381Y-26376429D02*
X80351381Y-26281190D01*
X80399000Y-26185952D01*
X80446619Y-26138333D01*
X80541857Y-26090714D01*
X80732333Y-26043095D01*
X80970429Y-26043095D01*
X81160905Y-26090714D01*
X81256143Y-26138333D01*
X81303762Y-26185952D01*
X81351381Y-26281190D01*
X81351381Y-26376429D01*
X81303762Y-26471667D01*
X81256143Y-26519286D01*
X81160905Y-26566905D01*
X80970429Y-26614524D01*
X80732333Y-26614524D01*
X80541857Y-26566905D01*
X80446619Y-26519286D01*
X80399000Y-26471667D01*
X80351381Y-26376429D01*
X83383381Y-37282286D02*
X82383381Y-37282286D01*
X82383381Y-37044191D01*
X82431000Y-36901333D01*
X82526238Y-36806095D01*
X82621476Y-36758476D01*
X82811952Y-36710857D01*
X82954810Y-36710857D01*
X83145286Y-36758476D01*
X83240524Y-36806095D01*
X83335762Y-36901333D01*
X83383381Y-37044191D01*
X83383381Y-37282286D01*
X82383381Y-36377524D02*
X82383381Y-35758476D01*
X82764333Y-36091810D01*
X82764333Y-35948952D01*
X82811952Y-35853714D01*
X82859571Y-35806095D01*
X82954810Y-35758476D01*
X83192905Y-35758476D01*
X83288143Y-35806095D01*
X83335762Y-35853714D01*
X83383381Y-35948952D01*
X83383381Y-36234667D01*
X83335762Y-36329905D01*
X83288143Y-36377524D01*
X83383381Y-34806095D02*
X83383381Y-35377524D01*
X83383381Y-35091810D02*
X82383381Y-35091810D01*
X82526238Y-35187048D01*
X82621476Y-35282286D01*
X82669095Y-35377524D01*
X86939381Y-28519286D02*
X85939381Y-28519286D01*
X85939381Y-28281191D01*
X85987000Y-28138333D01*
X86082238Y-28043095D01*
X86177476Y-27995476D01*
X86367952Y-27947857D01*
X86510810Y-27947857D01*
X86701286Y-27995476D01*
X86796524Y-28043095D01*
X86891762Y-28138333D01*
X86939381Y-28281191D01*
X86939381Y-28519286D01*
X85939381Y-27614524D02*
X85939381Y-26995476D01*
X86320333Y-27328810D01*
X86320333Y-27185952D01*
X86367952Y-27090714D01*
X86415571Y-27043095D01*
X86510810Y-26995476D01*
X86748905Y-26995476D01*
X86844143Y-27043095D01*
X86891762Y-27090714D01*
X86939381Y-27185952D01*
X86939381Y-27471667D01*
X86891762Y-27566905D01*
X86844143Y-27614524D01*
X86034619Y-26614524D02*
X85987000Y-26566905D01*
X85939381Y-26471667D01*
X85939381Y-26233571D01*
X85987000Y-26138333D01*
X86034619Y-26090714D01*
X86129857Y-26043095D01*
X86225095Y-26043095D01*
X86367952Y-26090714D01*
X86939381Y-26662143D01*
X86939381Y-26043095D01*
X40806409Y-89335324D02*
X40523076Y-88930562D01*
X40320695Y-89335324D02*
X40320695Y-88485324D01*
X40644504Y-88485324D01*
X40725457Y-88525800D01*
X40765933Y-88566276D01*
X40806409Y-88647229D01*
X40806409Y-88768657D01*
X40765933Y-88849610D01*
X40725457Y-88890086D01*
X40644504Y-88930562D01*
X40320695Y-88930562D01*
X41615933Y-89335324D02*
X41130219Y-89335324D01*
X41373076Y-89335324D02*
X41373076Y-88485324D01*
X41292124Y-88606752D01*
X41211171Y-88687705D01*
X41130219Y-88728181D01*
X41939743Y-88566276D02*
X41980219Y-88525800D01*
X42061171Y-88485324D01*
X42263552Y-88485324D01*
X42344505Y-88525800D01*
X42384981Y-88566276D01*
X42425457Y-88647229D01*
X42425457Y-88728181D01*
X42384981Y-88849610D01*
X41899267Y-89335324D01*
X42425457Y-89335324D01*
X42830219Y-89335324D02*
X42992124Y-89335324D01*
X43073076Y-89294848D01*
X43113552Y-89254371D01*
X43194505Y-89132943D01*
X43234981Y-88971038D01*
X43234981Y-88647229D01*
X43194505Y-88566276D01*
X43154029Y-88525800D01*
X43073076Y-88485324D01*
X42911172Y-88485324D01*
X42830219Y-88525800D01*
X42789743Y-88566276D01*
X42749267Y-88647229D01*
X42749267Y-88849610D01*
X42789743Y-88930562D01*
X42830219Y-88971038D01*
X42911172Y-89011514D01*
X43073076Y-89011514D01*
X43154029Y-88971038D01*
X43194505Y-88930562D01*
X43234981Y-88849610D01*
X52388809Y-89284524D02*
X52105476Y-88879762D01*
X51903095Y-89284524D02*
X51903095Y-88434524D01*
X52226904Y-88434524D01*
X52307857Y-88475000D01*
X52348333Y-88515476D01*
X52388809Y-88596429D01*
X52388809Y-88717857D01*
X52348333Y-88798810D01*
X52307857Y-88839286D01*
X52226904Y-88879762D01*
X51903095Y-88879762D01*
X53198333Y-89284524D02*
X52712619Y-89284524D01*
X52955476Y-89284524D02*
X52955476Y-88434524D01*
X52874524Y-88555952D01*
X52793571Y-88636905D01*
X52712619Y-88677381D01*
X53481667Y-88434524D02*
X54007857Y-88434524D01*
X53724524Y-88758333D01*
X53845952Y-88758333D01*
X53926905Y-88798810D01*
X53967381Y-88839286D01*
X54007857Y-88920238D01*
X54007857Y-89122619D01*
X53967381Y-89203571D01*
X53926905Y-89244048D01*
X53845952Y-89284524D01*
X53603095Y-89284524D01*
X53522143Y-89244048D01*
X53481667Y-89203571D01*
X54534048Y-88434524D02*
X54615000Y-88434524D01*
X54695952Y-88475000D01*
X54736429Y-88515476D01*
X54776905Y-88596429D01*
X54817381Y-88758333D01*
X54817381Y-88960714D01*
X54776905Y-89122619D01*
X54736429Y-89203571D01*
X54695952Y-89244048D01*
X54615000Y-89284524D01*
X54534048Y-89284524D01*
X54453095Y-89244048D01*
X54412619Y-89203571D01*
X54372143Y-89122619D01*
X54331667Y-88960714D01*
X54331667Y-88758333D01*
X54372143Y-88596429D01*
X54412619Y-88515476D01*
X54453095Y-88475000D01*
X54534048Y-88434524D01*
X51169609Y-109629924D02*
X50886276Y-109225162D01*
X50683895Y-109629924D02*
X50683895Y-108779924D01*
X51007704Y-108779924D01*
X51088657Y-108820400D01*
X51129133Y-108860876D01*
X51169609Y-108941829D01*
X51169609Y-109063257D01*
X51129133Y-109144210D01*
X51088657Y-109184686D01*
X51007704Y-109225162D01*
X50683895Y-109225162D01*
X51979133Y-109629924D02*
X51493419Y-109629924D01*
X51736276Y-109629924D02*
X51736276Y-108779924D01*
X51655324Y-108901352D01*
X51574371Y-108982305D01*
X51493419Y-109022781D01*
X52262467Y-108779924D02*
X52788657Y-108779924D01*
X52505324Y-109103733D01*
X52626752Y-109103733D01*
X52707705Y-109144210D01*
X52748181Y-109184686D01*
X52788657Y-109265638D01*
X52788657Y-109468019D01*
X52748181Y-109548971D01*
X52707705Y-109589448D01*
X52626752Y-109629924D01*
X52383895Y-109629924D01*
X52302943Y-109589448D01*
X52262467Y-109548971D01*
X53598181Y-109629924D02*
X53112467Y-109629924D01*
X53355324Y-109629924D02*
X53355324Y-108779924D01*
X53274372Y-108901352D01*
X53193419Y-108982305D01*
X53112467Y-109022781D01*
X39536409Y-109629924D02*
X39253076Y-109225162D01*
X39050695Y-109629924D02*
X39050695Y-108779924D01*
X39374504Y-108779924D01*
X39455457Y-108820400D01*
X39495933Y-108860876D01*
X39536409Y-108941829D01*
X39536409Y-109063257D01*
X39495933Y-109144210D01*
X39455457Y-109184686D01*
X39374504Y-109225162D01*
X39050695Y-109225162D01*
X40345933Y-109629924D02*
X39860219Y-109629924D01*
X40103076Y-109629924D02*
X40103076Y-108779924D01*
X40022124Y-108901352D01*
X39941171Y-108982305D01*
X39860219Y-109022781D01*
X40629267Y-108779924D02*
X41155457Y-108779924D01*
X40872124Y-109103733D01*
X40993552Y-109103733D01*
X41074505Y-109144210D01*
X41114981Y-109184686D01*
X41155457Y-109265638D01*
X41155457Y-109468019D01*
X41114981Y-109548971D01*
X41074505Y-109589448D01*
X40993552Y-109629924D01*
X40750695Y-109629924D01*
X40669743Y-109589448D01*
X40629267Y-109548971D01*
X41479267Y-108860876D02*
X41519743Y-108820400D01*
X41600695Y-108779924D01*
X41803076Y-108779924D01*
X41884029Y-108820400D01*
X41924505Y-108860876D01*
X41964981Y-108941829D01*
X41964981Y-109022781D01*
X41924505Y-109144210D01*
X41438791Y-109629924D01*
X41964981Y-109629924D01*
X49467809Y-83569524D02*
X49184476Y-83164762D01*
X48982095Y-83569524D02*
X48982095Y-82719524D01*
X49305904Y-82719524D01*
X49386857Y-82760000D01*
X49427333Y-82800476D01*
X49467809Y-82881429D01*
X49467809Y-83002857D01*
X49427333Y-83083810D01*
X49386857Y-83124286D01*
X49305904Y-83164762D01*
X48982095Y-83164762D01*
X50277333Y-83569524D02*
X49791619Y-83569524D01*
X50034476Y-83569524D02*
X50034476Y-82719524D01*
X49953524Y-82840952D01*
X49872571Y-82921905D01*
X49791619Y-82962381D01*
X50601143Y-82800476D02*
X50641619Y-82760000D01*
X50722571Y-82719524D01*
X50924952Y-82719524D01*
X51005905Y-82760000D01*
X51046381Y-82800476D01*
X51086857Y-82881429D01*
X51086857Y-82962381D01*
X51046381Y-83083810D01*
X50560667Y-83569524D01*
X51086857Y-83569524D01*
X51572572Y-83083810D02*
X51491619Y-83043333D01*
X51451143Y-83002857D01*
X51410667Y-82921905D01*
X51410667Y-82881429D01*
X51451143Y-82800476D01*
X51491619Y-82760000D01*
X51572572Y-82719524D01*
X51734476Y-82719524D01*
X51815429Y-82760000D01*
X51855905Y-82800476D01*
X51896381Y-82881429D01*
X51896381Y-82921905D01*
X51855905Y-83002857D01*
X51815429Y-83043333D01*
X51734476Y-83083810D01*
X51572572Y-83083810D01*
X51491619Y-83124286D01*
X51451143Y-83164762D01*
X51410667Y-83245714D01*
X51410667Y-83407619D01*
X51451143Y-83488571D01*
X51491619Y-83529048D01*
X51572572Y-83569524D01*
X51734476Y-83569524D01*
X51815429Y-83529048D01*
X51855905Y-83488571D01*
X51896381Y-83407619D01*
X51896381Y-83245714D01*
X51855905Y-83164762D01*
X51815429Y-83124286D01*
X51734476Y-83083810D01*
X61405809Y-83569524D02*
X61122476Y-83164762D01*
X60920095Y-83569524D02*
X60920095Y-82719524D01*
X61243904Y-82719524D01*
X61324857Y-82760000D01*
X61365333Y-82800476D01*
X61405809Y-82881429D01*
X61405809Y-83002857D01*
X61365333Y-83083810D01*
X61324857Y-83124286D01*
X61243904Y-83164762D01*
X60920095Y-83164762D01*
X62215333Y-83569524D02*
X61729619Y-83569524D01*
X61972476Y-83569524D02*
X61972476Y-82719524D01*
X61891524Y-82840952D01*
X61810571Y-82921905D01*
X61729619Y-82962381D01*
X62539143Y-82800476D02*
X62579619Y-82760000D01*
X62660571Y-82719524D01*
X62862952Y-82719524D01*
X62943905Y-82760000D01*
X62984381Y-82800476D01*
X63024857Y-82881429D01*
X63024857Y-82962381D01*
X62984381Y-83083810D01*
X62498667Y-83569524D01*
X63024857Y-83569524D01*
X63308191Y-82719524D02*
X63874857Y-82719524D01*
X63510572Y-83569524D01*
X62675809Y-63249524D02*
X62392476Y-62844762D01*
X62190095Y-63249524D02*
X62190095Y-62399524D01*
X62513904Y-62399524D01*
X62594857Y-62440000D01*
X62635333Y-62480476D01*
X62675809Y-62561429D01*
X62675809Y-62682857D01*
X62635333Y-62763810D01*
X62594857Y-62804286D01*
X62513904Y-62844762D01*
X62190095Y-62844762D01*
X63485333Y-63249524D02*
X62999619Y-63249524D01*
X63242476Y-63249524D02*
X63242476Y-62399524D01*
X63161524Y-62520952D01*
X63080571Y-62601905D01*
X62999619Y-62642381D01*
X63809143Y-62480476D02*
X63849619Y-62440000D01*
X63930571Y-62399524D01*
X64132952Y-62399524D01*
X64213905Y-62440000D01*
X64254381Y-62480476D01*
X64294857Y-62561429D01*
X64294857Y-62642381D01*
X64254381Y-62763810D01*
X63768667Y-63249524D01*
X64294857Y-63249524D01*
X65023429Y-62399524D02*
X64861524Y-62399524D01*
X64780572Y-62440000D01*
X64740095Y-62480476D01*
X64659143Y-62601905D01*
X64618667Y-62763810D01*
X64618667Y-63087619D01*
X64659143Y-63168571D01*
X64699619Y-63209048D01*
X64780572Y-63249524D01*
X64942476Y-63249524D01*
X65023429Y-63209048D01*
X65063905Y-63168571D01*
X65104381Y-63087619D01*
X65104381Y-62885238D01*
X65063905Y-62804286D01*
X65023429Y-62763810D01*
X64942476Y-62723333D01*
X64780572Y-62723333D01*
X64699619Y-62763810D01*
X64659143Y-62804286D01*
X64618667Y-62885238D01*
X50864809Y-63249524D02*
X50581476Y-62844762D01*
X50379095Y-63249524D02*
X50379095Y-62399524D01*
X50702904Y-62399524D01*
X50783857Y-62440000D01*
X50824333Y-62480476D01*
X50864809Y-62561429D01*
X50864809Y-62682857D01*
X50824333Y-62763810D01*
X50783857Y-62804286D01*
X50702904Y-62844762D01*
X50379095Y-62844762D01*
X51674333Y-63249524D02*
X51188619Y-63249524D01*
X51431476Y-63249524D02*
X51431476Y-62399524D01*
X51350524Y-62520952D01*
X51269571Y-62601905D01*
X51188619Y-62642381D01*
X51998143Y-62480476D02*
X52038619Y-62440000D01*
X52119571Y-62399524D01*
X52321952Y-62399524D01*
X52402905Y-62440000D01*
X52443381Y-62480476D01*
X52483857Y-62561429D01*
X52483857Y-62642381D01*
X52443381Y-62763810D01*
X51957667Y-63249524D01*
X52483857Y-63249524D01*
X53252905Y-62399524D02*
X52848143Y-62399524D01*
X52807667Y-62804286D01*
X52848143Y-62763810D01*
X52929095Y-62723333D01*
X53131476Y-62723333D01*
X53212429Y-62763810D01*
X53252905Y-62804286D01*
X53293381Y-62885238D01*
X53293381Y-63087619D01*
X53252905Y-63168571D01*
X53212429Y-63209048D01*
X53131476Y-63249524D01*
X52929095Y-63249524D01*
X52848143Y-63209048D01*
X52807667Y-63168571D01*
X59932609Y-89284524D02*
X59649276Y-88879762D01*
X59446895Y-89284524D02*
X59446895Y-88434524D01*
X59770704Y-88434524D01*
X59851657Y-88475000D01*
X59892133Y-88515476D01*
X59932609Y-88596429D01*
X59932609Y-88717857D01*
X59892133Y-88798810D01*
X59851657Y-88839286D01*
X59770704Y-88879762D01*
X59446895Y-88879762D01*
X60742133Y-89284524D02*
X60256419Y-89284524D01*
X60499276Y-89284524D02*
X60499276Y-88434524D01*
X60418324Y-88555952D01*
X60337371Y-88636905D01*
X60256419Y-88677381D01*
X61065943Y-88515476D02*
X61106419Y-88475000D01*
X61187371Y-88434524D01*
X61389752Y-88434524D01*
X61470705Y-88475000D01*
X61511181Y-88515476D01*
X61551657Y-88596429D01*
X61551657Y-88677381D01*
X61511181Y-88798810D01*
X61025467Y-89284524D01*
X61551657Y-89284524D01*
X62361181Y-89284524D02*
X61875467Y-89284524D01*
X62118324Y-89284524D02*
X62118324Y-88434524D01*
X62037372Y-88555952D01*
X61956419Y-88636905D01*
X61875467Y-88677381D01*
X71438809Y-89284524D02*
X71155476Y-88879762D01*
X70953095Y-89284524D02*
X70953095Y-88434524D01*
X71276904Y-88434524D01*
X71357857Y-88475000D01*
X71398333Y-88515476D01*
X71438809Y-88596429D01*
X71438809Y-88717857D01*
X71398333Y-88798810D01*
X71357857Y-88839286D01*
X71276904Y-88879762D01*
X70953095Y-88879762D01*
X72248333Y-89284524D02*
X71762619Y-89284524D01*
X72005476Y-89284524D02*
X72005476Y-88434524D01*
X71924524Y-88555952D01*
X71843571Y-88636905D01*
X71762619Y-88677381D01*
X72572143Y-88515476D02*
X72612619Y-88475000D01*
X72693571Y-88434524D01*
X72895952Y-88434524D01*
X72976905Y-88475000D01*
X73017381Y-88515476D01*
X73057857Y-88596429D01*
X73057857Y-88677381D01*
X73017381Y-88798810D01*
X72531667Y-89284524D01*
X73057857Y-89284524D01*
X73381667Y-88515476D02*
X73422143Y-88475000D01*
X73503095Y-88434524D01*
X73705476Y-88434524D01*
X73786429Y-88475000D01*
X73826905Y-88515476D01*
X73867381Y-88596429D01*
X73867381Y-88677381D01*
X73826905Y-88798810D01*
X73341191Y-89284524D01*
X73867381Y-89284524D01*
X70219609Y-109629924D02*
X69936276Y-109225162D01*
X69733895Y-109629924D02*
X69733895Y-108779924D01*
X70057704Y-108779924D01*
X70138657Y-108820400D01*
X70179133Y-108860876D01*
X70219609Y-108941829D01*
X70219609Y-109063257D01*
X70179133Y-109144210D01*
X70138657Y-109184686D01*
X70057704Y-109225162D01*
X69733895Y-109225162D01*
X71029133Y-109629924D02*
X70543419Y-109629924D01*
X70786276Y-109629924D02*
X70786276Y-108779924D01*
X70705324Y-108901352D01*
X70624371Y-108982305D01*
X70543419Y-109022781D01*
X71352943Y-108860876D02*
X71393419Y-108820400D01*
X71474371Y-108779924D01*
X71676752Y-108779924D01*
X71757705Y-108820400D01*
X71798181Y-108860876D01*
X71838657Y-108941829D01*
X71838657Y-109022781D01*
X71798181Y-109144210D01*
X71312467Y-109629924D01*
X71838657Y-109629924D01*
X72121991Y-108779924D02*
X72648181Y-108779924D01*
X72364848Y-109103733D01*
X72486276Y-109103733D01*
X72567229Y-109144210D01*
X72607705Y-109184686D01*
X72648181Y-109265638D01*
X72648181Y-109468019D01*
X72607705Y-109548971D01*
X72567229Y-109589448D01*
X72486276Y-109629924D01*
X72243419Y-109629924D01*
X72162467Y-109589448D01*
X72121991Y-109548971D01*
X58637209Y-109553724D02*
X58353876Y-109148962D01*
X58151495Y-109553724D02*
X58151495Y-108703724D01*
X58475304Y-108703724D01*
X58556257Y-108744200D01*
X58596733Y-108784676D01*
X58637209Y-108865629D01*
X58637209Y-108987057D01*
X58596733Y-109068010D01*
X58556257Y-109108486D01*
X58475304Y-109148962D01*
X58151495Y-109148962D01*
X59446733Y-109553724D02*
X58961019Y-109553724D01*
X59203876Y-109553724D02*
X59203876Y-108703724D01*
X59122924Y-108825152D01*
X59041971Y-108906105D01*
X58961019Y-108946581D01*
X59770543Y-108784676D02*
X59811019Y-108744200D01*
X59891971Y-108703724D01*
X60094352Y-108703724D01*
X60175305Y-108744200D01*
X60215781Y-108784676D01*
X60256257Y-108865629D01*
X60256257Y-108946581D01*
X60215781Y-109068010D01*
X59730067Y-109553724D01*
X60256257Y-109553724D01*
X60984829Y-108987057D02*
X60984829Y-109553724D01*
X60782448Y-108663248D02*
X60580067Y-109270390D01*
X61106257Y-109270390D01*
X68517809Y-83569524D02*
X68234476Y-83164762D01*
X68032095Y-83569524D02*
X68032095Y-82719524D01*
X68355904Y-82719524D01*
X68436857Y-82760000D01*
X68477333Y-82800476D01*
X68517809Y-82881429D01*
X68517809Y-83002857D01*
X68477333Y-83083810D01*
X68436857Y-83124286D01*
X68355904Y-83164762D01*
X68032095Y-83164762D01*
X69327333Y-83569524D02*
X68841619Y-83569524D01*
X69084476Y-83569524D02*
X69084476Y-82719524D01*
X69003524Y-82840952D01*
X68922571Y-82921905D01*
X68841619Y-82962381D01*
X69651143Y-82800476D02*
X69691619Y-82760000D01*
X69772571Y-82719524D01*
X69974952Y-82719524D01*
X70055905Y-82760000D01*
X70096381Y-82800476D01*
X70136857Y-82881429D01*
X70136857Y-82962381D01*
X70096381Y-83083810D01*
X69610667Y-83569524D01*
X70136857Y-83569524D01*
X70663048Y-82719524D02*
X70744000Y-82719524D01*
X70824952Y-82760000D01*
X70865429Y-82800476D01*
X70905905Y-82881429D01*
X70946381Y-83043333D01*
X70946381Y-83245714D01*
X70905905Y-83407619D01*
X70865429Y-83488571D01*
X70824952Y-83529048D01*
X70744000Y-83569524D01*
X70663048Y-83569524D01*
X70582095Y-83529048D01*
X70541619Y-83488571D01*
X70501143Y-83407619D01*
X70460667Y-83245714D01*
X70460667Y-83043333D01*
X70501143Y-82881429D01*
X70541619Y-82800476D01*
X70582095Y-82760000D01*
X70663048Y-82719524D01*
X80455809Y-83569524D02*
X80172476Y-83164762D01*
X79970095Y-83569524D02*
X79970095Y-82719524D01*
X80293904Y-82719524D01*
X80374857Y-82760000D01*
X80415333Y-82800476D01*
X80455809Y-82881429D01*
X80455809Y-83002857D01*
X80415333Y-83083810D01*
X80374857Y-83124286D01*
X80293904Y-83164762D01*
X79970095Y-83164762D01*
X81265333Y-83569524D02*
X80779619Y-83569524D01*
X81022476Y-83569524D02*
X81022476Y-82719524D01*
X80941524Y-82840952D01*
X80860571Y-82921905D01*
X80779619Y-82962381D01*
X82074857Y-83569524D02*
X81589143Y-83569524D01*
X81832000Y-83569524D02*
X81832000Y-82719524D01*
X81751048Y-82840952D01*
X81670095Y-82921905D01*
X81589143Y-82962381D01*
X82479619Y-83569524D02*
X82641524Y-83569524D01*
X82722476Y-83529048D01*
X82762952Y-83488571D01*
X82843905Y-83367143D01*
X82884381Y-83205238D01*
X82884381Y-82881429D01*
X82843905Y-82800476D01*
X82803429Y-82760000D01*
X82722476Y-82719524D01*
X82560572Y-82719524D01*
X82479619Y-82760000D01*
X82439143Y-82800476D01*
X82398667Y-82881429D01*
X82398667Y-83083810D01*
X82439143Y-83164762D01*
X82479619Y-83205238D01*
X82560572Y-83245714D01*
X82722476Y-83245714D01*
X82803429Y-83205238D01*
X82843905Y-83164762D01*
X82884381Y-83083810D01*
X81725809Y-63249524D02*
X81442476Y-62844762D01*
X81240095Y-63249524D02*
X81240095Y-62399524D01*
X81563904Y-62399524D01*
X81644857Y-62440000D01*
X81685333Y-62480476D01*
X81725809Y-62561429D01*
X81725809Y-62682857D01*
X81685333Y-62763810D01*
X81644857Y-62804286D01*
X81563904Y-62844762D01*
X81240095Y-62844762D01*
X82535333Y-63249524D02*
X82049619Y-63249524D01*
X82292476Y-63249524D02*
X82292476Y-62399524D01*
X82211524Y-62520952D01*
X82130571Y-62601905D01*
X82049619Y-62642381D01*
X83344857Y-63249524D02*
X82859143Y-63249524D01*
X83102000Y-63249524D02*
X83102000Y-62399524D01*
X83021048Y-62520952D01*
X82940095Y-62601905D01*
X82859143Y-62642381D01*
X83830572Y-62763810D02*
X83749619Y-62723333D01*
X83709143Y-62682857D01*
X83668667Y-62601905D01*
X83668667Y-62561429D01*
X83709143Y-62480476D01*
X83749619Y-62440000D01*
X83830572Y-62399524D01*
X83992476Y-62399524D01*
X84073429Y-62440000D01*
X84113905Y-62480476D01*
X84154381Y-62561429D01*
X84154381Y-62601905D01*
X84113905Y-62682857D01*
X84073429Y-62723333D01*
X83992476Y-62763810D01*
X83830572Y-62763810D01*
X83749619Y-62804286D01*
X83709143Y-62844762D01*
X83668667Y-62925714D01*
X83668667Y-63087619D01*
X83709143Y-63168571D01*
X83749619Y-63209048D01*
X83830572Y-63249524D01*
X83992476Y-63249524D01*
X84073429Y-63209048D01*
X84113905Y-63168571D01*
X84154381Y-63087619D01*
X84154381Y-62925714D01*
X84113905Y-62844762D01*
X84073429Y-62804286D01*
X83992476Y-62763810D01*
X70295809Y-63249524D02*
X70012476Y-62844762D01*
X69810095Y-63249524D02*
X69810095Y-62399524D01*
X70133904Y-62399524D01*
X70214857Y-62440000D01*
X70255333Y-62480476D01*
X70295809Y-62561429D01*
X70295809Y-62682857D01*
X70255333Y-62763810D01*
X70214857Y-62804286D01*
X70133904Y-62844762D01*
X69810095Y-62844762D01*
X71105333Y-63249524D02*
X70619619Y-63249524D01*
X70862476Y-63249524D02*
X70862476Y-62399524D01*
X70781524Y-62520952D01*
X70700571Y-62601905D01*
X70619619Y-62642381D01*
X71914857Y-63249524D02*
X71429143Y-63249524D01*
X71672000Y-63249524D02*
X71672000Y-62399524D01*
X71591048Y-62520952D01*
X71510095Y-62601905D01*
X71429143Y-62642381D01*
X72198191Y-62399524D02*
X72764857Y-62399524D01*
X72400572Y-63249524D01*
X78982609Y-89335324D02*
X78699276Y-88930562D01*
X78496895Y-89335324D02*
X78496895Y-88485324D01*
X78820704Y-88485324D01*
X78901657Y-88525800D01*
X78942133Y-88566276D01*
X78982609Y-88647229D01*
X78982609Y-88768657D01*
X78942133Y-88849610D01*
X78901657Y-88890086D01*
X78820704Y-88930562D01*
X78496895Y-88930562D01*
X79792133Y-89335324D02*
X79306419Y-89335324D01*
X79549276Y-89335324D02*
X79549276Y-88485324D01*
X79468324Y-88606752D01*
X79387371Y-88687705D01*
X79306419Y-88728181D01*
X80601657Y-89335324D02*
X80115943Y-89335324D01*
X80358800Y-89335324D02*
X80358800Y-88485324D01*
X80277848Y-88606752D01*
X80196895Y-88687705D01*
X80115943Y-88728181D01*
X80884991Y-88485324D02*
X81411181Y-88485324D01*
X81127848Y-88809133D01*
X81249276Y-88809133D01*
X81330229Y-88849610D01*
X81370705Y-88890086D01*
X81411181Y-88971038D01*
X81411181Y-89173419D01*
X81370705Y-89254371D01*
X81330229Y-89294848D01*
X81249276Y-89335324D01*
X81006419Y-89335324D01*
X80925467Y-89294848D01*
X80884991Y-89254371D01*
X90514209Y-89284524D02*
X90230876Y-88879762D01*
X90028495Y-89284524D02*
X90028495Y-88434524D01*
X90352304Y-88434524D01*
X90433257Y-88475000D01*
X90473733Y-88515476D01*
X90514209Y-88596429D01*
X90514209Y-88717857D01*
X90473733Y-88798810D01*
X90433257Y-88839286D01*
X90352304Y-88879762D01*
X90028495Y-88879762D01*
X91323733Y-89284524D02*
X90838019Y-89284524D01*
X91080876Y-89284524D02*
X91080876Y-88434524D01*
X90999924Y-88555952D01*
X90918971Y-88636905D01*
X90838019Y-88677381D01*
X92133257Y-89284524D02*
X91647543Y-89284524D01*
X91890400Y-89284524D02*
X91890400Y-88434524D01*
X91809448Y-88555952D01*
X91728495Y-88636905D01*
X91647543Y-88677381D01*
X92861829Y-88717857D02*
X92861829Y-89284524D01*
X92659448Y-88394048D02*
X92457067Y-89001190D01*
X92983257Y-89001190D01*
X89269609Y-109629924D02*
X88986276Y-109225162D01*
X88783895Y-109629924D02*
X88783895Y-108779924D01*
X89107704Y-108779924D01*
X89188657Y-108820400D01*
X89229133Y-108860876D01*
X89269609Y-108941829D01*
X89269609Y-109063257D01*
X89229133Y-109144210D01*
X89188657Y-109184686D01*
X89107704Y-109225162D01*
X88783895Y-109225162D01*
X90079133Y-109629924D02*
X89593419Y-109629924D01*
X89836276Y-109629924D02*
X89836276Y-108779924D01*
X89755324Y-108901352D01*
X89674371Y-108982305D01*
X89593419Y-109022781D01*
X90888657Y-109629924D02*
X90402943Y-109629924D01*
X90645800Y-109629924D02*
X90645800Y-108779924D01*
X90564848Y-108901352D01*
X90483895Y-108982305D01*
X90402943Y-109022781D01*
X91657705Y-108779924D02*
X91252943Y-108779924D01*
X91212467Y-109184686D01*
X91252943Y-109144210D01*
X91333895Y-109103733D01*
X91536276Y-109103733D01*
X91617229Y-109144210D01*
X91657705Y-109184686D01*
X91698181Y-109265638D01*
X91698181Y-109468019D01*
X91657705Y-109548971D01*
X91617229Y-109589448D01*
X91536276Y-109629924D01*
X91333895Y-109629924D01*
X91252943Y-109589448D01*
X91212467Y-109548971D01*
X77738009Y-109553724D02*
X77454676Y-109148962D01*
X77252295Y-109553724D02*
X77252295Y-108703724D01*
X77576104Y-108703724D01*
X77657057Y-108744200D01*
X77697533Y-108784676D01*
X77738009Y-108865629D01*
X77738009Y-108987057D01*
X77697533Y-109068010D01*
X77657057Y-109108486D01*
X77576104Y-109148962D01*
X77252295Y-109148962D01*
X78547533Y-109553724D02*
X78061819Y-109553724D01*
X78304676Y-109553724D02*
X78304676Y-108703724D01*
X78223724Y-108825152D01*
X78142771Y-108906105D01*
X78061819Y-108946581D01*
X79357057Y-109553724D02*
X78871343Y-109553724D01*
X79114200Y-109553724D02*
X79114200Y-108703724D01*
X79033248Y-108825152D01*
X78952295Y-108906105D01*
X78871343Y-108946581D01*
X80085629Y-108703724D02*
X79923724Y-108703724D01*
X79842772Y-108744200D01*
X79802295Y-108784676D01*
X79721343Y-108906105D01*
X79680867Y-109068010D01*
X79680867Y-109391819D01*
X79721343Y-109472771D01*
X79761819Y-109513248D01*
X79842772Y-109553724D01*
X80004676Y-109553724D01*
X80085629Y-109513248D01*
X80126105Y-109472771D01*
X80166581Y-109391819D01*
X80166581Y-109189438D01*
X80126105Y-109108486D01*
X80085629Y-109068010D01*
X80004676Y-109027533D01*
X79842772Y-109027533D01*
X79761819Y-109068010D01*
X79721343Y-109108486D01*
X79680867Y-109189438D01*
X87567809Y-83569524D02*
X87284476Y-83164762D01*
X87082095Y-83569524D02*
X87082095Y-82719524D01*
X87405904Y-82719524D01*
X87486857Y-82760000D01*
X87527333Y-82800476D01*
X87567809Y-82881429D01*
X87567809Y-83002857D01*
X87527333Y-83083810D01*
X87486857Y-83124286D01*
X87405904Y-83164762D01*
X87082095Y-83164762D01*
X88377333Y-83569524D02*
X87891619Y-83569524D01*
X88134476Y-83569524D02*
X88134476Y-82719524D01*
X88053524Y-82840952D01*
X87972571Y-82921905D01*
X87891619Y-82962381D01*
X89186857Y-83569524D02*
X88701143Y-83569524D01*
X88944000Y-83569524D02*
X88944000Y-82719524D01*
X88863048Y-82840952D01*
X88782095Y-82921905D01*
X88701143Y-82962381D01*
X89510667Y-82800476D02*
X89551143Y-82760000D01*
X89632095Y-82719524D01*
X89834476Y-82719524D01*
X89915429Y-82760000D01*
X89955905Y-82800476D01*
X89996381Y-82881429D01*
X89996381Y-82962381D01*
X89955905Y-83083810D01*
X89470191Y-83569524D01*
X89996381Y-83569524D01*
X99505809Y-83569524D02*
X99222476Y-83164762D01*
X99020095Y-83569524D02*
X99020095Y-82719524D01*
X99343904Y-82719524D01*
X99424857Y-82760000D01*
X99465333Y-82800476D01*
X99505809Y-82881429D01*
X99505809Y-83002857D01*
X99465333Y-83083810D01*
X99424857Y-83124286D01*
X99343904Y-83164762D01*
X99020095Y-83164762D01*
X100315333Y-83569524D02*
X99829619Y-83569524D01*
X100072476Y-83569524D02*
X100072476Y-82719524D01*
X99991524Y-82840952D01*
X99910571Y-82921905D01*
X99829619Y-82962381D01*
X101124857Y-83569524D02*
X100639143Y-83569524D01*
X100882000Y-83569524D02*
X100882000Y-82719524D01*
X100801048Y-82840952D01*
X100720095Y-82921905D01*
X100639143Y-82962381D01*
X101934381Y-83569524D02*
X101448667Y-83569524D01*
X101691524Y-83569524D02*
X101691524Y-82719524D01*
X101610572Y-82840952D01*
X101529619Y-82921905D01*
X101448667Y-82962381D01*
X100902809Y-63249524D02*
X100619476Y-62844762D01*
X100417095Y-63249524D02*
X100417095Y-62399524D01*
X100740904Y-62399524D01*
X100821857Y-62440000D01*
X100862333Y-62480476D01*
X100902809Y-62561429D01*
X100902809Y-62682857D01*
X100862333Y-62763810D01*
X100821857Y-62804286D01*
X100740904Y-62844762D01*
X100417095Y-62844762D01*
X101712333Y-63249524D02*
X101226619Y-63249524D01*
X101469476Y-63249524D02*
X101469476Y-62399524D01*
X101388524Y-62520952D01*
X101307571Y-62601905D01*
X101226619Y-62642381D01*
X102521857Y-63249524D02*
X102036143Y-63249524D01*
X102279000Y-63249524D02*
X102279000Y-62399524D01*
X102198048Y-62520952D01*
X102117095Y-62601905D01*
X102036143Y-62642381D01*
X103048048Y-62399524D02*
X103129000Y-62399524D01*
X103209952Y-62440000D01*
X103250429Y-62480476D01*
X103290905Y-62561429D01*
X103331381Y-62723333D01*
X103331381Y-62925714D01*
X103290905Y-63087619D01*
X103250429Y-63168571D01*
X103209952Y-63209048D01*
X103129000Y-63249524D01*
X103048048Y-63249524D01*
X102967095Y-63209048D01*
X102926619Y-63168571D01*
X102886143Y-63087619D01*
X102845667Y-62925714D01*
X102845667Y-62723333D01*
X102886143Y-62561429D01*
X102926619Y-62480476D01*
X102967095Y-62440000D01*
X103048048Y-62399524D01*
X88964809Y-63249524D02*
X88681476Y-62844762D01*
X88479095Y-63249524D02*
X88479095Y-62399524D01*
X88802904Y-62399524D01*
X88883857Y-62440000D01*
X88924333Y-62480476D01*
X88964809Y-62561429D01*
X88964809Y-62682857D01*
X88924333Y-62763810D01*
X88883857Y-62804286D01*
X88802904Y-62844762D01*
X88479095Y-62844762D01*
X89774333Y-63249524D02*
X89288619Y-63249524D01*
X89531476Y-63249524D02*
X89531476Y-62399524D01*
X89450524Y-62520952D01*
X89369571Y-62601905D01*
X89288619Y-62642381D01*
X90300524Y-62399524D02*
X90381476Y-62399524D01*
X90462428Y-62440000D01*
X90502905Y-62480476D01*
X90543381Y-62561429D01*
X90583857Y-62723333D01*
X90583857Y-62925714D01*
X90543381Y-63087619D01*
X90502905Y-63168571D01*
X90462428Y-63209048D01*
X90381476Y-63249524D01*
X90300524Y-63249524D01*
X90219571Y-63209048D01*
X90179095Y-63168571D01*
X90138619Y-63087619D01*
X90098143Y-62925714D01*
X90098143Y-62723333D01*
X90138619Y-62561429D01*
X90179095Y-62480476D01*
X90219571Y-62440000D01*
X90300524Y-62399524D01*
X90988619Y-63249524D02*
X91150524Y-63249524D01*
X91231476Y-63209048D01*
X91271952Y-63168571D01*
X91352905Y-63047143D01*
X91393381Y-62885238D01*
X91393381Y-62561429D01*
X91352905Y-62480476D01*
X91312429Y-62440000D01*
X91231476Y-62399524D01*
X91069572Y-62399524D01*
X90988619Y-62440000D01*
X90948143Y-62480476D01*
X90907667Y-62561429D01*
X90907667Y-62763810D01*
X90948143Y-62844762D01*
X90988619Y-62885238D01*
X91069572Y-62925714D01*
X91231476Y-62925714D01*
X91312429Y-62885238D01*
X91352905Y-62844762D01*
X91393381Y-62763810D01*
X98083409Y-89284524D02*
X97800076Y-88879762D01*
X97597695Y-89284524D02*
X97597695Y-88434524D01*
X97921504Y-88434524D01*
X98002457Y-88475000D01*
X98042933Y-88515476D01*
X98083409Y-88596429D01*
X98083409Y-88717857D01*
X98042933Y-88798810D01*
X98002457Y-88839286D01*
X97921504Y-88879762D01*
X97597695Y-88879762D01*
X98892933Y-89284524D02*
X98407219Y-89284524D01*
X98650076Y-89284524D02*
X98650076Y-88434524D01*
X98569124Y-88555952D01*
X98488171Y-88636905D01*
X98407219Y-88677381D01*
X99419124Y-88434524D02*
X99500076Y-88434524D01*
X99581028Y-88475000D01*
X99621505Y-88515476D01*
X99661981Y-88596429D01*
X99702457Y-88758333D01*
X99702457Y-88960714D01*
X99661981Y-89122619D01*
X99621505Y-89203571D01*
X99581028Y-89244048D01*
X99500076Y-89284524D01*
X99419124Y-89284524D01*
X99338171Y-89244048D01*
X99297695Y-89203571D01*
X99257219Y-89122619D01*
X99216743Y-88960714D01*
X99216743Y-88758333D01*
X99257219Y-88596429D01*
X99297695Y-88515476D01*
X99338171Y-88475000D01*
X99419124Y-88434524D01*
X100471505Y-88434524D02*
X100066743Y-88434524D01*
X100026267Y-88839286D01*
X100066743Y-88798810D01*
X100147695Y-88758333D01*
X100350076Y-88758333D01*
X100431029Y-88798810D01*
X100471505Y-88839286D01*
X100511981Y-88920238D01*
X100511981Y-89122619D01*
X100471505Y-89203571D01*
X100431029Y-89244048D01*
X100350076Y-89284524D01*
X100147695Y-89284524D01*
X100066743Y-89244048D01*
X100026267Y-89203571D01*
X109564209Y-89335324D02*
X109280876Y-88930562D01*
X109078495Y-89335324D02*
X109078495Y-88485324D01*
X109402304Y-88485324D01*
X109483257Y-88525800D01*
X109523733Y-88566276D01*
X109564209Y-88647229D01*
X109564209Y-88768657D01*
X109523733Y-88849610D01*
X109483257Y-88890086D01*
X109402304Y-88930562D01*
X109078495Y-88930562D01*
X110373733Y-89335324D02*
X109888019Y-89335324D01*
X110130876Y-89335324D02*
X110130876Y-88485324D01*
X110049924Y-88606752D01*
X109968971Y-88687705D01*
X109888019Y-88728181D01*
X110899924Y-88485324D02*
X110980876Y-88485324D01*
X111061828Y-88525800D01*
X111102305Y-88566276D01*
X111142781Y-88647229D01*
X111183257Y-88809133D01*
X111183257Y-89011514D01*
X111142781Y-89173419D01*
X111102305Y-89254371D01*
X111061828Y-89294848D01*
X110980876Y-89335324D01*
X110899924Y-89335324D01*
X110818971Y-89294848D01*
X110778495Y-89254371D01*
X110738019Y-89173419D01*
X110697543Y-89011514D01*
X110697543Y-88809133D01*
X110738019Y-88647229D01*
X110778495Y-88566276D01*
X110818971Y-88525800D01*
X110899924Y-88485324D01*
X111911829Y-88485324D02*
X111749924Y-88485324D01*
X111668972Y-88525800D01*
X111628495Y-88566276D01*
X111547543Y-88687705D01*
X111507067Y-88849610D01*
X111507067Y-89173419D01*
X111547543Y-89254371D01*
X111588019Y-89294848D01*
X111668972Y-89335324D01*
X111830876Y-89335324D01*
X111911829Y-89294848D01*
X111952305Y-89254371D01*
X111992781Y-89173419D01*
X111992781Y-88971038D01*
X111952305Y-88890086D01*
X111911829Y-88849610D01*
X111830876Y-88809133D01*
X111668972Y-88809133D01*
X111588019Y-88849610D01*
X111547543Y-88890086D01*
X111507067Y-88971038D01*
X108294209Y-109629924D02*
X108010876Y-109225162D01*
X107808495Y-109629924D02*
X107808495Y-108779924D01*
X108132304Y-108779924D01*
X108213257Y-108820400D01*
X108253733Y-108860876D01*
X108294209Y-108941829D01*
X108294209Y-109063257D01*
X108253733Y-109144210D01*
X108213257Y-109184686D01*
X108132304Y-109225162D01*
X107808495Y-109225162D01*
X109103733Y-109629924D02*
X108618019Y-109629924D01*
X108860876Y-109629924D02*
X108860876Y-108779924D01*
X108779924Y-108901352D01*
X108698971Y-108982305D01*
X108618019Y-109022781D01*
X109629924Y-108779924D02*
X109710876Y-108779924D01*
X109791828Y-108820400D01*
X109832305Y-108860876D01*
X109872781Y-108941829D01*
X109913257Y-109103733D01*
X109913257Y-109306114D01*
X109872781Y-109468019D01*
X109832305Y-109548971D01*
X109791828Y-109589448D01*
X109710876Y-109629924D01*
X109629924Y-109629924D01*
X109548971Y-109589448D01*
X109508495Y-109548971D01*
X109468019Y-109468019D01*
X109427543Y-109306114D01*
X109427543Y-109103733D01*
X109468019Y-108941829D01*
X109508495Y-108860876D01*
X109548971Y-108820400D01*
X109629924Y-108779924D01*
X110196591Y-108779924D02*
X110763257Y-108779924D01*
X110398972Y-109629924D01*
X96813409Y-109629924D02*
X96530076Y-109225162D01*
X96327695Y-109629924D02*
X96327695Y-108779924D01*
X96651504Y-108779924D01*
X96732457Y-108820400D01*
X96772933Y-108860876D01*
X96813409Y-108941829D01*
X96813409Y-109063257D01*
X96772933Y-109144210D01*
X96732457Y-109184686D01*
X96651504Y-109225162D01*
X96327695Y-109225162D01*
X97622933Y-109629924D02*
X97137219Y-109629924D01*
X97380076Y-109629924D02*
X97380076Y-108779924D01*
X97299124Y-108901352D01*
X97218171Y-108982305D01*
X97137219Y-109022781D01*
X98149124Y-108779924D02*
X98230076Y-108779924D01*
X98311028Y-108820400D01*
X98351505Y-108860876D01*
X98391981Y-108941829D01*
X98432457Y-109103733D01*
X98432457Y-109306114D01*
X98391981Y-109468019D01*
X98351505Y-109548971D01*
X98311028Y-109589448D01*
X98230076Y-109629924D01*
X98149124Y-109629924D01*
X98068171Y-109589448D01*
X98027695Y-109548971D01*
X97987219Y-109468019D01*
X97946743Y-109306114D01*
X97946743Y-109103733D01*
X97987219Y-108941829D01*
X98027695Y-108860876D01*
X98068171Y-108820400D01*
X98149124Y-108779924D01*
X98918172Y-109144210D02*
X98837219Y-109103733D01*
X98796743Y-109063257D01*
X98756267Y-108982305D01*
X98756267Y-108941829D01*
X98796743Y-108860876D01*
X98837219Y-108820400D01*
X98918172Y-108779924D01*
X99080076Y-108779924D01*
X99161029Y-108820400D01*
X99201505Y-108860876D01*
X99241981Y-108941829D01*
X99241981Y-108982305D01*
X99201505Y-109063257D01*
X99161029Y-109103733D01*
X99080076Y-109144210D01*
X98918172Y-109144210D01*
X98837219Y-109184686D01*
X98796743Y-109225162D01*
X98756267Y-109306114D01*
X98756267Y-109468019D01*
X98796743Y-109548971D01*
X98837219Y-109589448D01*
X98918172Y-109629924D01*
X99080076Y-109629924D01*
X99161029Y-109589448D01*
X99201505Y-109548971D01*
X99241981Y-109468019D01*
X99241981Y-109306114D01*
X99201505Y-109225162D01*
X99161029Y-109184686D01*
X99080076Y-109144210D01*
X106744809Y-83569524D02*
X106461476Y-83164762D01*
X106259095Y-83569524D02*
X106259095Y-82719524D01*
X106582904Y-82719524D01*
X106663857Y-82760000D01*
X106704333Y-82800476D01*
X106744809Y-82881429D01*
X106744809Y-83002857D01*
X106704333Y-83083810D01*
X106663857Y-83124286D01*
X106582904Y-83164762D01*
X106259095Y-83164762D01*
X107554333Y-83569524D02*
X107068619Y-83569524D01*
X107311476Y-83569524D02*
X107311476Y-82719524D01*
X107230524Y-82840952D01*
X107149571Y-82921905D01*
X107068619Y-82962381D01*
X108080524Y-82719524D02*
X108161476Y-82719524D01*
X108242428Y-82760000D01*
X108282905Y-82800476D01*
X108323381Y-82881429D01*
X108363857Y-83043333D01*
X108363857Y-83245714D01*
X108323381Y-83407619D01*
X108282905Y-83488571D01*
X108242428Y-83529048D01*
X108161476Y-83569524D01*
X108080524Y-83569524D01*
X107999571Y-83529048D01*
X107959095Y-83488571D01*
X107918619Y-83407619D01*
X107878143Y-83245714D01*
X107878143Y-83043333D01*
X107918619Y-82881429D01*
X107959095Y-82800476D01*
X107999571Y-82760000D01*
X108080524Y-82719524D01*
X109092429Y-83002857D02*
X109092429Y-83569524D01*
X108890048Y-82679048D02*
X108687667Y-83286190D01*
X109213857Y-83286190D01*
X118555809Y-83569524D02*
X118272476Y-83164762D01*
X118070095Y-83569524D02*
X118070095Y-82719524D01*
X118393904Y-82719524D01*
X118474857Y-82760000D01*
X118515333Y-82800476D01*
X118555809Y-82881429D01*
X118555809Y-83002857D01*
X118515333Y-83083810D01*
X118474857Y-83124286D01*
X118393904Y-83164762D01*
X118070095Y-83164762D01*
X119365333Y-83569524D02*
X118879619Y-83569524D01*
X119122476Y-83569524D02*
X119122476Y-82719524D01*
X119041524Y-82840952D01*
X118960571Y-82921905D01*
X118879619Y-82962381D01*
X119891524Y-82719524D02*
X119972476Y-82719524D01*
X120053428Y-82760000D01*
X120093905Y-82800476D01*
X120134381Y-82881429D01*
X120174857Y-83043333D01*
X120174857Y-83245714D01*
X120134381Y-83407619D01*
X120093905Y-83488571D01*
X120053428Y-83529048D01*
X119972476Y-83569524D01*
X119891524Y-83569524D01*
X119810571Y-83529048D01*
X119770095Y-83488571D01*
X119729619Y-83407619D01*
X119689143Y-83245714D01*
X119689143Y-83043333D01*
X119729619Y-82881429D01*
X119770095Y-82800476D01*
X119810571Y-82760000D01*
X119891524Y-82719524D01*
X120458191Y-82719524D02*
X120984381Y-82719524D01*
X120701048Y-83043333D01*
X120822476Y-83043333D01*
X120903429Y-83083810D01*
X120943905Y-83124286D01*
X120984381Y-83205238D01*
X120984381Y-83407619D01*
X120943905Y-83488571D01*
X120903429Y-83529048D01*
X120822476Y-83569524D01*
X120579619Y-83569524D01*
X120498667Y-83529048D01*
X120458191Y-83488571D01*
X119825809Y-63249524D02*
X119542476Y-62844762D01*
X119340095Y-63249524D02*
X119340095Y-62399524D01*
X119663904Y-62399524D01*
X119744857Y-62440000D01*
X119785333Y-62480476D01*
X119825809Y-62561429D01*
X119825809Y-62682857D01*
X119785333Y-62763810D01*
X119744857Y-62804286D01*
X119663904Y-62844762D01*
X119340095Y-62844762D01*
X120635333Y-63249524D02*
X120149619Y-63249524D01*
X120392476Y-63249524D02*
X120392476Y-62399524D01*
X120311524Y-62520952D01*
X120230571Y-62601905D01*
X120149619Y-62642381D01*
X121161524Y-62399524D02*
X121242476Y-62399524D01*
X121323428Y-62440000D01*
X121363905Y-62480476D01*
X121404381Y-62561429D01*
X121444857Y-62723333D01*
X121444857Y-62925714D01*
X121404381Y-63087619D01*
X121363905Y-63168571D01*
X121323428Y-63209048D01*
X121242476Y-63249524D01*
X121161524Y-63249524D01*
X121080571Y-63209048D01*
X121040095Y-63168571D01*
X120999619Y-63087619D01*
X120959143Y-62925714D01*
X120959143Y-62723333D01*
X120999619Y-62561429D01*
X121040095Y-62480476D01*
X121080571Y-62440000D01*
X121161524Y-62399524D01*
X121768667Y-62480476D02*
X121809143Y-62440000D01*
X121890095Y-62399524D01*
X122092476Y-62399524D01*
X122173429Y-62440000D01*
X122213905Y-62480476D01*
X122254381Y-62561429D01*
X122254381Y-62642381D01*
X122213905Y-62763810D01*
X121728191Y-63249524D01*
X122254381Y-63249524D01*
X108141809Y-63249524D02*
X107858476Y-62844762D01*
X107656095Y-63249524D02*
X107656095Y-62399524D01*
X107979904Y-62399524D01*
X108060857Y-62440000D01*
X108101333Y-62480476D01*
X108141809Y-62561429D01*
X108141809Y-62682857D01*
X108101333Y-62763810D01*
X108060857Y-62804286D01*
X107979904Y-62844762D01*
X107656095Y-62844762D01*
X108951333Y-63249524D02*
X108465619Y-63249524D01*
X108708476Y-63249524D02*
X108708476Y-62399524D01*
X108627524Y-62520952D01*
X108546571Y-62601905D01*
X108465619Y-62642381D01*
X109477524Y-62399524D02*
X109558476Y-62399524D01*
X109639428Y-62440000D01*
X109679905Y-62480476D01*
X109720381Y-62561429D01*
X109760857Y-62723333D01*
X109760857Y-62925714D01*
X109720381Y-63087619D01*
X109679905Y-63168571D01*
X109639428Y-63209048D01*
X109558476Y-63249524D01*
X109477524Y-63249524D01*
X109396571Y-63209048D01*
X109356095Y-63168571D01*
X109315619Y-63087619D01*
X109275143Y-62925714D01*
X109275143Y-62723333D01*
X109315619Y-62561429D01*
X109356095Y-62480476D01*
X109396571Y-62440000D01*
X109477524Y-62399524D01*
X110570381Y-63249524D02*
X110084667Y-63249524D01*
X110327524Y-63249524D02*
X110327524Y-62399524D01*
X110246572Y-62520952D01*
X110165619Y-62601905D01*
X110084667Y-62642381D01*
X62317095Y-65789524D02*
X62317095Y-64939524D01*
X62519476Y-64939524D01*
X62640904Y-64980000D01*
X62721857Y-65060952D01*
X62762333Y-65141905D01*
X62802809Y-65303810D01*
X62802809Y-65425238D01*
X62762333Y-65587143D01*
X62721857Y-65668095D01*
X62640904Y-65749048D01*
X62519476Y-65789524D01*
X62317095Y-65789524D01*
X63612333Y-65789524D02*
X63126619Y-65789524D01*
X63369476Y-65789524D02*
X63369476Y-64939524D01*
X63288524Y-65060952D01*
X63207571Y-65141905D01*
X63126619Y-65182381D01*
X63936143Y-65020476D02*
X63976619Y-64980000D01*
X64057571Y-64939524D01*
X64259952Y-64939524D01*
X64340905Y-64980000D01*
X64381381Y-65020476D01*
X64421857Y-65101429D01*
X64421857Y-65182381D01*
X64381381Y-65303810D01*
X63895667Y-65789524D01*
X64421857Y-65789524D01*
X65150429Y-64939524D02*
X64988524Y-64939524D01*
X64907572Y-64980000D01*
X64867095Y-65020476D01*
X64786143Y-65141905D01*
X64745667Y-65303810D01*
X64745667Y-65627619D01*
X64786143Y-65708571D01*
X64826619Y-65749048D01*
X64907572Y-65789524D01*
X65069476Y-65789524D01*
X65150429Y-65749048D01*
X65190905Y-65708571D01*
X65231381Y-65627619D01*
X65231381Y-65425238D01*
X65190905Y-65344286D01*
X65150429Y-65303810D01*
X65069476Y-65263333D01*
X64907572Y-65263333D01*
X64826619Y-65303810D01*
X64786143Y-65344286D01*
X64745667Y-65425238D01*
X62317095Y-81029524D02*
X62317095Y-80179524D01*
X62519476Y-80179524D01*
X62640904Y-80220000D01*
X62721857Y-80300952D01*
X62762333Y-80381905D01*
X62802809Y-80543810D01*
X62802809Y-80665238D01*
X62762333Y-80827143D01*
X62721857Y-80908095D01*
X62640904Y-80989048D01*
X62519476Y-81029524D01*
X62317095Y-81029524D01*
X63612333Y-81029524D02*
X63126619Y-81029524D01*
X63369476Y-81029524D02*
X63369476Y-80179524D01*
X63288524Y-80300952D01*
X63207571Y-80381905D01*
X63126619Y-80422381D01*
X63936143Y-80260476D02*
X63976619Y-80220000D01*
X64057571Y-80179524D01*
X64259952Y-80179524D01*
X64340905Y-80220000D01*
X64381381Y-80260476D01*
X64421857Y-80341429D01*
X64421857Y-80422381D01*
X64381381Y-80543810D01*
X63895667Y-81029524D01*
X64421857Y-81029524D01*
X64705191Y-80179524D02*
X65271857Y-80179524D01*
X64907572Y-81029524D01*
M02*
