%TF.GenerationSoftware,KiCad,Pcbnew,4.0.7*%
%TF.CreationDate,2018-06-26T23:45:36-04:00*%
%TF.ProjectId,column_driver,636F6C756D6E5F6472697665722E6B69,rev?*%
%TF.FileFunction,Copper,L1,Top,Signal*%
%FSLAX46Y46*%
G04 Gerber Fmt 4.6, Leading zero omitted, Abs format (unit mm)*
G04 Created by KiCad (PCBNEW 4.0.7) date Tuesday, June 26, 2018 'PMt' 11:45:36 PM*
%MOMM*%
%LPD*%
G01*
G04 APERTURE LIST*
%ADD10C,0.100000*%
%ADD11C,0.150000*%
%ADD12R,1.250000X1.000000*%
%ADD13R,2.700000X2.700000*%
%ADD14C,2.700000*%
%ADD15R,1.727200X1.727200*%
%ADD16O,1.727200X1.727200*%
%ADD17R,0.600000X1.950000*%
%ADD18R,0.600000X2.000000*%
%ADD19R,0.900000X1.200000*%
%ADD20R,0.700000X0.450000*%
%ADD21R,0.450000X0.700000*%
%ADD22R,0.700000X1.300000*%
%ADD23R,1.600000X1.600000*%
%ADD24O,1.600000X1.600000*%
%ADD25C,0.800000*%
%ADD26C,1.000000*%
%ADD27C,0.600000*%
%ADD28C,0.650000*%
%ADD29C,1.000000*%
%ADD30C,0.360000*%
%ADD31C,0.400000*%
%ADD32C,0.250000*%
G04 APERTURE END LIST*
D10*
D11*
X25000000Y-25000000D02*
X25000000Y-125000000D01*
X25000000Y-125000000D02*
X125000000Y-125000000D01*
X125000000Y-25000000D02*
X125000000Y-125000000D01*
X25000000Y-25000000D02*
X125000000Y-25000000D01*
D12*
X48895000Y-76470000D03*
X48895000Y-78470000D03*
X95885000Y-102505000D03*
X95885000Y-104505000D03*
X76835000Y-102505000D03*
X76835000Y-104505000D03*
D13*
X30180000Y-116713000D03*
D14*
X34140000Y-116713000D03*
X38100000Y-116713000D03*
X42060000Y-116713000D03*
D13*
X53190000Y-116713000D03*
D14*
X57150000Y-116713000D03*
X61110000Y-116713000D03*
X65070000Y-116713000D03*
D15*
X30000000Y-65000000D03*
D16*
X32540000Y-65000000D03*
X30000000Y-67540000D03*
X32540000Y-67540000D03*
X30000000Y-70080000D03*
X32540000Y-70080000D03*
X30000000Y-72620000D03*
X32540000Y-72620000D03*
X30000000Y-75160000D03*
X32540000Y-75160000D03*
D15*
X30022800Y-86969600D03*
D16*
X32562800Y-86969600D03*
X30022800Y-89509600D03*
X32562800Y-89509600D03*
X30022800Y-92049600D03*
X32562800Y-92049600D03*
X30022800Y-94589600D03*
X32562800Y-94589600D03*
X30022800Y-97129600D03*
X32562800Y-97129600D03*
D17*
X41275000Y-103760000D03*
X42545000Y-103760000D03*
X43815000Y-103760000D03*
X45085000Y-103760000D03*
X46355000Y-103760000D03*
X47625000Y-103760000D03*
X48895000Y-103760000D03*
X50165000Y-103760000D03*
X51435000Y-103760000D03*
X52705000Y-103760000D03*
X52705000Y-94360000D03*
X51435000Y-94360000D03*
X50165000Y-94360000D03*
X48895000Y-94360000D03*
X47625000Y-94360000D03*
X46355000Y-94360000D03*
X45085000Y-94360000D03*
X43815000Y-94360000D03*
X42545000Y-94360000D03*
X41275000Y-94360000D03*
X51435000Y-77725000D03*
X52705000Y-77725000D03*
X53975000Y-77725000D03*
X55245000Y-77725000D03*
X56515000Y-77725000D03*
X57785000Y-77725000D03*
X59055000Y-77725000D03*
X60325000Y-77725000D03*
X61595000Y-77725000D03*
X62865000Y-77725000D03*
X62865000Y-68325000D03*
X61595000Y-68325000D03*
X60325000Y-68325000D03*
X59055000Y-68325000D03*
X57785000Y-68325000D03*
X56515000Y-68325000D03*
X55245000Y-68325000D03*
X53975000Y-68325000D03*
X52705000Y-68325000D03*
X51435000Y-68325000D03*
D18*
X40005000Y-53595000D03*
X41275000Y-53595000D03*
X42545000Y-53595000D03*
X43815000Y-53595000D03*
X45085000Y-53595000D03*
X46355000Y-53595000D03*
X47625000Y-53595000D03*
X48895000Y-53595000D03*
X50165000Y-53595000D03*
X50165000Y-44195000D03*
X48895000Y-44195000D03*
X47625000Y-44195000D03*
X46355000Y-44195000D03*
X45085000Y-44195000D03*
X43815000Y-44195000D03*
X42545000Y-44195000D03*
X41275000Y-44195000D03*
X40005000Y-44195000D03*
D17*
X60325000Y-103760000D03*
X61595000Y-103760000D03*
X62865000Y-103760000D03*
X64135000Y-103760000D03*
X65405000Y-103760000D03*
X66675000Y-103760000D03*
X67945000Y-103760000D03*
X69215000Y-103760000D03*
X70485000Y-103760000D03*
X71755000Y-103760000D03*
X71755000Y-94360000D03*
X70485000Y-94360000D03*
X69215000Y-94360000D03*
X67945000Y-94360000D03*
X66675000Y-94360000D03*
X65405000Y-94360000D03*
X64135000Y-94360000D03*
X62865000Y-94360000D03*
X61595000Y-94360000D03*
X60325000Y-94360000D03*
X70485000Y-77725000D03*
X71755000Y-77725000D03*
X73025000Y-77725000D03*
X74295000Y-77725000D03*
X75565000Y-77725000D03*
X76835000Y-77725000D03*
X78105000Y-77725000D03*
X79375000Y-77725000D03*
X80645000Y-77725000D03*
X81915000Y-77725000D03*
X81915000Y-68325000D03*
X80645000Y-68325000D03*
X79375000Y-68325000D03*
X78105000Y-68325000D03*
X76835000Y-68325000D03*
X75565000Y-68325000D03*
X74295000Y-68325000D03*
X73025000Y-68325000D03*
X71755000Y-68325000D03*
X70485000Y-68325000D03*
D18*
X60960000Y-53595000D03*
X62230000Y-53595000D03*
X63500000Y-53595000D03*
X64770000Y-53595000D03*
X66040000Y-53595000D03*
X67310000Y-53595000D03*
X68580000Y-53595000D03*
X69850000Y-53595000D03*
X71120000Y-53595000D03*
X71120000Y-44195000D03*
X69850000Y-44195000D03*
X68580000Y-44195000D03*
X67310000Y-44195000D03*
X66040000Y-44195000D03*
X64770000Y-44195000D03*
X63500000Y-44195000D03*
X62230000Y-44195000D03*
X60960000Y-44195000D03*
D17*
X79375000Y-103760000D03*
X80645000Y-103760000D03*
X81915000Y-103760000D03*
X83185000Y-103760000D03*
X84455000Y-103760000D03*
X85725000Y-103760000D03*
X86995000Y-103760000D03*
X88265000Y-103760000D03*
X89535000Y-103760000D03*
X90805000Y-103760000D03*
X90805000Y-94360000D03*
X89535000Y-94360000D03*
X88265000Y-94360000D03*
X86995000Y-94360000D03*
X85725000Y-94360000D03*
X84455000Y-94360000D03*
X83185000Y-94360000D03*
X81915000Y-94360000D03*
X80645000Y-94360000D03*
X79375000Y-94360000D03*
X89535000Y-77725000D03*
X90805000Y-77725000D03*
X92075000Y-77725000D03*
X93345000Y-77725000D03*
X94615000Y-77725000D03*
X95885000Y-77725000D03*
X97155000Y-77725000D03*
X98425000Y-77725000D03*
X99695000Y-77725000D03*
X100965000Y-77725000D03*
X100965000Y-68325000D03*
X99695000Y-68325000D03*
X98425000Y-68325000D03*
X97155000Y-68325000D03*
X95885000Y-68325000D03*
X94615000Y-68325000D03*
X93345000Y-68325000D03*
X92075000Y-68325000D03*
X90805000Y-68325000D03*
X89535000Y-68325000D03*
D18*
X81915000Y-53595000D03*
X83185000Y-53595000D03*
X84455000Y-53595000D03*
X85725000Y-53595000D03*
X86995000Y-53595000D03*
X88265000Y-53595000D03*
X89535000Y-53595000D03*
X90805000Y-53595000D03*
X92075000Y-53595000D03*
X92075000Y-44195000D03*
X90805000Y-44195000D03*
X89535000Y-44195000D03*
X88265000Y-44195000D03*
X86995000Y-44195000D03*
X85725000Y-44195000D03*
X84455000Y-44195000D03*
X83185000Y-44195000D03*
X81915000Y-44195000D03*
D17*
X98425000Y-103760000D03*
X99695000Y-103760000D03*
X100965000Y-103760000D03*
X102235000Y-103760000D03*
X103505000Y-103760000D03*
X104775000Y-103760000D03*
X106045000Y-103760000D03*
X107315000Y-103760000D03*
X108585000Y-103760000D03*
X109855000Y-103760000D03*
X109855000Y-94360000D03*
X108585000Y-94360000D03*
X107315000Y-94360000D03*
X106045000Y-94360000D03*
X104775000Y-94360000D03*
X103505000Y-94360000D03*
X102235000Y-94360000D03*
X100965000Y-94360000D03*
X99695000Y-94360000D03*
X98425000Y-94360000D03*
X108585000Y-77725000D03*
X109855000Y-77725000D03*
X111125000Y-77725000D03*
X112395000Y-77725000D03*
X113665000Y-77725000D03*
X114935000Y-77725000D03*
X116205000Y-77725000D03*
X117475000Y-77725000D03*
X118745000Y-77725000D03*
X120015000Y-77725000D03*
X120015000Y-68325000D03*
X118745000Y-68325000D03*
X117475000Y-68325000D03*
X116205000Y-68325000D03*
X114935000Y-68325000D03*
X113665000Y-68325000D03*
X112395000Y-68325000D03*
X111125000Y-68325000D03*
X109855000Y-68325000D03*
X108585000Y-68325000D03*
D18*
X102870000Y-53595000D03*
X104140000Y-53595000D03*
X105410000Y-53595000D03*
X106680000Y-53595000D03*
X107950000Y-53595000D03*
X109220000Y-53595000D03*
X110490000Y-53595000D03*
X111760000Y-53595000D03*
X113030000Y-53595000D03*
X113030000Y-44195000D03*
X111760000Y-44195000D03*
X110490000Y-44195000D03*
X109220000Y-44195000D03*
X107950000Y-44195000D03*
X106680000Y-44195000D03*
X105410000Y-44195000D03*
X104140000Y-44195000D03*
X102870000Y-44195000D03*
D19*
X110110000Y-65405000D03*
X113410000Y-65405000D03*
X115190000Y-65405000D03*
X118490000Y-65405000D03*
X118490000Y-80645000D03*
X115190000Y-80645000D03*
X113410000Y-80645000D03*
X110110000Y-80645000D03*
X99950000Y-91440000D03*
X103250000Y-91440000D03*
X105030000Y-91440000D03*
X108330000Y-91440000D03*
X108330000Y-106680000D03*
X105030000Y-106680000D03*
X103250000Y-106680000D03*
X99950000Y-106680000D03*
X91060000Y-65405000D03*
X94360000Y-65405000D03*
X96140000Y-65405000D03*
X99440000Y-65405000D03*
X99440000Y-80645000D03*
X96140000Y-80645000D03*
X94360000Y-80645000D03*
X91060000Y-80645000D03*
X80900000Y-91440000D03*
X84200000Y-91440000D03*
X85980000Y-91440000D03*
X89280000Y-91440000D03*
X89280000Y-106680000D03*
X85980000Y-106680000D03*
X84200000Y-106680000D03*
X80900000Y-106680000D03*
X72010000Y-65405000D03*
X75310000Y-65405000D03*
X77090000Y-65405000D03*
X80390000Y-65405000D03*
X80390000Y-80645000D03*
X77090000Y-80645000D03*
X75310000Y-80645000D03*
X72010000Y-80645000D03*
X61850000Y-91440000D03*
X65150000Y-91440000D03*
X66930000Y-91440000D03*
X70230000Y-91440000D03*
X70230000Y-106680000D03*
X66930000Y-106680000D03*
X65150000Y-106680000D03*
X61850000Y-106680000D03*
X52960000Y-65405000D03*
X56260000Y-65405000D03*
X56260000Y-80645000D03*
X52960000Y-80645000D03*
X42800000Y-91440000D03*
X46100000Y-91440000D03*
X47880000Y-91440000D03*
X51180000Y-91440000D03*
X51180000Y-106680000D03*
X47880000Y-106680000D03*
X46100000Y-106680000D03*
X42800000Y-106680000D03*
D12*
X38735000Y-102505000D03*
X38735000Y-104505000D03*
X57785000Y-102505000D03*
X57785000Y-104505000D03*
X67945000Y-76470000D03*
X67945000Y-78470000D03*
X86995000Y-76470000D03*
X86995000Y-78470000D03*
X106045000Y-76470000D03*
X106045000Y-78470000D03*
D20*
X51705000Y-26655000D03*
X51705000Y-27955000D03*
X53705000Y-27305000D03*
D21*
X55006000Y-35068000D03*
X53706000Y-35068000D03*
X54356000Y-37068000D03*
D20*
X56785000Y-26655000D03*
X56785000Y-27955000D03*
X58785000Y-27305000D03*
D21*
X60086000Y-35068000D03*
X58786000Y-35068000D03*
X59436000Y-37068000D03*
D20*
X61865000Y-26655000D03*
X61865000Y-27955000D03*
X63865000Y-27305000D03*
D21*
X65166000Y-35068000D03*
X63866000Y-35068000D03*
X64516000Y-37068000D03*
D20*
X66945000Y-26655000D03*
X66945000Y-27955000D03*
X68945000Y-27305000D03*
D21*
X70246000Y-35068000D03*
X68946000Y-35068000D03*
X69596000Y-37068000D03*
D20*
X72025000Y-26655000D03*
X72025000Y-27955000D03*
X74025000Y-27305000D03*
D21*
X75326000Y-35068000D03*
X74026000Y-35068000D03*
X74676000Y-37068000D03*
D20*
X77105000Y-26655000D03*
X77105000Y-27955000D03*
X79105000Y-27305000D03*
D21*
X80406000Y-35068000D03*
X79106000Y-35068000D03*
X79756000Y-37068000D03*
D20*
X82125000Y-26655000D03*
X82125000Y-27955000D03*
X84125000Y-27305000D03*
D21*
X85486000Y-35068000D03*
X84186000Y-35068000D03*
X84836000Y-37068000D03*
D20*
X87840000Y-26655000D03*
X87840000Y-27955000D03*
X89840000Y-27305000D03*
D22*
X44135000Y-88900000D03*
X46035000Y-88900000D03*
X49215000Y-88900000D03*
X51115000Y-88900000D03*
X49845000Y-109220000D03*
X47945000Y-109220000D03*
X44765000Y-109220000D03*
X42865000Y-109220000D03*
X53025000Y-83185000D03*
X54925000Y-83185000D03*
X58105000Y-83185000D03*
X60005000Y-83185000D03*
X61275000Y-62865000D03*
X59375000Y-62865000D03*
X56195000Y-62865000D03*
X54295000Y-62865000D03*
X63185000Y-88900000D03*
X65085000Y-88900000D03*
X68265000Y-88900000D03*
X70165000Y-88900000D03*
X68895000Y-109220000D03*
X66995000Y-109220000D03*
X63815000Y-109220000D03*
X61915000Y-109220000D03*
X72075000Y-83185000D03*
X73975000Y-83185000D03*
X79055000Y-83185000D03*
X77155000Y-83185000D03*
X80325000Y-62865000D03*
X78425000Y-62865000D03*
X75560000Y-62865000D03*
X73660000Y-62865000D03*
X82235000Y-88900000D03*
X84135000Y-88900000D03*
X87315000Y-88900000D03*
X89215000Y-88900000D03*
X87945000Y-109220000D03*
X86045000Y-109220000D03*
X82865000Y-109220000D03*
X80965000Y-109220000D03*
X91125000Y-83185000D03*
X93025000Y-83185000D03*
X96205000Y-83185000D03*
X98105000Y-83185000D03*
X99375000Y-62865000D03*
X97475000Y-62865000D03*
X94295000Y-62865000D03*
X92395000Y-62865000D03*
X101285000Y-88900000D03*
X103185000Y-88900000D03*
X106365000Y-88900000D03*
X108265000Y-88900000D03*
X106995000Y-109220000D03*
X105095000Y-109220000D03*
X101915000Y-109220000D03*
X100015000Y-109220000D03*
X110175000Y-83185000D03*
X112075000Y-83185000D03*
X117155000Y-83185000D03*
X115255000Y-83185000D03*
X118425000Y-62865000D03*
X116525000Y-62865000D03*
X113345000Y-62865000D03*
X111445000Y-62865000D03*
D19*
X58040000Y-65405000D03*
X61340000Y-65405000D03*
X61340000Y-80645000D03*
X58040000Y-80645000D03*
D23*
X87404000Y-30480000D03*
D24*
X87404000Y-33020000D03*
X84864000Y-30480000D03*
X84864000Y-33020000D03*
X82324000Y-30480000D03*
X82324000Y-33020000D03*
X79784000Y-30480000D03*
X79784000Y-33020000D03*
X77244000Y-30480000D03*
X77244000Y-33020000D03*
X74704000Y-30480000D03*
X74704000Y-33020000D03*
X72164000Y-30480000D03*
X72164000Y-33020000D03*
X69624000Y-30480000D03*
X69624000Y-33020000D03*
X67084000Y-30480000D03*
X67084000Y-33020000D03*
X64544000Y-30480000D03*
X64544000Y-33020000D03*
X62004000Y-30480000D03*
X62004000Y-33020000D03*
X59464000Y-30480000D03*
X59464000Y-33020000D03*
X56924000Y-30480000D03*
X56924000Y-33020000D03*
X54384000Y-30480000D03*
X54384000Y-33020000D03*
X51844000Y-30480000D03*
X51844000Y-33020000D03*
X49304000Y-30480000D03*
X49304000Y-33020000D03*
X46764000Y-30480000D03*
X46764000Y-33020000D03*
X44224000Y-30480000D03*
X44224000Y-33020000D03*
X41684000Y-30480000D03*
X41684000Y-33020000D03*
X39144000Y-30480000D03*
X39144000Y-33020000D03*
D25*
X92075000Y-90424000D03*
X96012000Y-90424002D03*
X72898000Y-90170000D03*
X76454000Y-90170000D03*
X40010000Y-110993000D03*
X40010000Y-102505000D03*
X36322000Y-85852000D03*
X36322000Y-60325000D03*
X36322000Y-111125000D03*
X122072400Y-77724000D03*
X61595000Y-96012000D03*
X99695000Y-96012000D03*
X80645000Y-96012000D03*
X72263000Y-44196000D03*
X62865000Y-66675000D03*
X62865000Y-79502000D03*
X52705000Y-69977004D03*
X81915000Y-79375000D03*
X81915000Y-66675000D03*
X100965000Y-66675000D03*
X100965000Y-79375000D03*
X114046000Y-44196000D03*
X93218000Y-44196000D03*
X42867010Y-96125990D03*
X71755000Y-69977000D03*
X48895000Y-79756000D03*
X90805000Y-69977000D03*
X109855000Y-69977000D03*
X121031000Y-68326000D03*
X38735000Y-105791000D03*
X57785000Y-105664000D03*
X76835000Y-105664000D03*
X95885000Y-105664000D03*
X91948000Y-94361000D03*
X72771000Y-94361000D03*
X91948000Y-103759000D03*
X72898000Y-103759000D03*
X53848000Y-94361000D03*
X53848004Y-103759000D03*
X110998000Y-103759000D03*
X110998000Y-94361000D03*
D26*
X51435000Y-44323000D03*
D25*
X41275000Y-46609000D03*
X46355000Y-102108000D03*
X40513000Y-48895000D03*
X40513000Y-48895000D03*
X48895000Y-102108000D03*
X43815000Y-46609000D03*
X47752000Y-90043000D03*
X42544998Y-46101000D03*
X42799000Y-89535000D03*
X46355000Y-48895000D03*
X56515000Y-75438000D03*
X57785000Y-74930000D03*
X45085000Y-46101000D03*
X57658000Y-61468000D03*
X48894998Y-46609000D03*
X47625000Y-46101000D03*
X51308000Y-62484000D03*
X65405000Y-102107994D03*
X59055000Y-48260000D03*
X67945000Y-102108000D03*
X60960000Y-46990000D03*
X66903600Y-89814400D03*
X64770000Y-46609000D03*
X63500000Y-46101000D03*
X59563000Y-87503000D03*
X75565000Y-76073000D03*
X67310000Y-42418000D03*
X78105000Y-76072996D03*
X78232000Y-47498000D03*
X69850000Y-42418000D03*
X77324990Y-64135000D03*
X68580000Y-46101000D03*
X72009000Y-64135000D03*
X84455000Y-102108004D03*
X83584010Y-45846999D03*
X86995000Y-102108002D03*
X85217000Y-46355000D03*
X72898000Y-39243000D03*
X85725000Y-42418000D03*
X86196000Y-87122000D03*
X72009000Y-40005000D03*
X84455000Y-42418000D03*
X81026000Y-87376000D03*
X94538800Y-47117000D03*
X94640400Y-76047600D03*
X98552000Y-48260000D03*
X97155000Y-76073000D03*
X78105000Y-39370000D03*
X90805000Y-42418000D03*
X97409000Y-46228000D03*
X96139000Y-63627000D03*
X76682600Y-39522400D03*
X89535000Y-42418000D03*
X89535002Y-46101000D03*
X91059000Y-63881000D03*
X104140000Y-45973996D03*
X103505004Y-102108000D03*
X106045000Y-102107994D03*
X108077004Y-49022000D03*
X106680000Y-42418008D03*
X106680000Y-45974000D03*
X106426000Y-91059000D03*
X104140000Y-47498000D03*
X105410000Y-42418000D03*
X99948998Y-87376000D03*
X113665000Y-76073000D03*
X109220000Y-45974000D03*
X113436400Y-48717200D03*
X116205000Y-76073000D03*
X111760000Y-42417994D03*
X115189000Y-63627000D03*
X115189000Y-52197000D03*
X109804201Y-47853599D03*
X110490000Y-36830002D03*
X110109000Y-61722000D03*
X35814000Y-50418998D03*
X35814000Y-38227000D03*
X84792590Y-38252400D03*
X79781400Y-38252400D03*
X53721000Y-26314400D03*
X74676000Y-38252400D03*
X69621400Y-38252400D03*
X64541400Y-38252400D03*
X54330600Y-38252400D03*
X59436000Y-38252400D03*
X58775604Y-26314400D03*
X63855600Y-26314400D03*
X68935600Y-26314400D03*
X74066398Y-26314400D03*
X79095598Y-26314400D03*
X84124800Y-26314398D03*
X89865200Y-26314400D03*
D27*
X35179000Y-89154000D03*
X35179000Y-101219000D03*
X118745002Y-74168000D03*
X118745000Y-100202996D03*
X34467800Y-91490800D03*
X34467800Y-96900998D03*
X121031002Y-97053400D03*
X117475000Y-70739000D03*
X79375000Y-75946000D03*
X107315000Y-101854000D03*
X98425000Y-75996800D03*
X37592000Y-93345000D03*
X37592000Y-99568000D03*
X60325000Y-73152004D03*
X79375000Y-73152000D03*
X117475000Y-73152000D03*
X99187000Y-73152000D03*
X117475000Y-75946000D03*
X117475002Y-99060000D03*
X107315000Y-99060000D03*
X88899998Y-99060000D03*
X50165000Y-99060000D03*
X69215000Y-99060000D03*
X50165000Y-102235000D03*
X60325000Y-76200000D03*
X69215000Y-102235000D03*
X88265000Y-102235000D03*
X31292808Y-106375200D03*
X120015000Y-97917000D03*
X118745000Y-71882000D03*
X108585000Y-95885000D03*
X108585000Y-97917000D03*
X61595000Y-71882000D03*
X80645000Y-71882000D03*
X99695000Y-71882000D03*
X61595000Y-69850000D03*
X80645000Y-69850000D03*
X99695000Y-69850000D03*
X51435000Y-95885000D03*
X70485000Y-95885000D03*
X89535000Y-95885000D03*
X70485000Y-97917000D03*
X89535000Y-97917000D03*
X51435000Y-97917000D03*
X33782000Y-95885000D03*
X108839000Y-58420000D03*
X34163000Y-58801000D03*
X108839000Y-64135000D03*
X43815000Y-96012000D03*
X43815000Y-84455000D03*
X62865000Y-102108000D03*
X53975000Y-69850000D03*
X62484000Y-75438000D03*
X60071000Y-91694000D03*
X73025002Y-69850000D03*
X81915000Y-101981000D03*
X79502000Y-92456000D03*
X81915000Y-74930000D03*
X100838000Y-102108000D03*
X92075000Y-69977000D03*
X100838000Y-74930000D03*
X98298000Y-92075000D03*
X110489996Y-55245000D03*
X112522000Y-61595000D03*
X114427000Y-57785000D03*
X114934996Y-75946000D03*
X110871000Y-56769002D03*
X112395000Y-75946000D03*
X103495010Y-87503000D03*
X103505010Y-51689000D03*
X107315000Y-57785000D03*
X108204000Y-87122000D03*
X102870004Y-55245000D03*
X102235000Y-100965000D03*
X102235000Y-102108006D03*
X104140000Y-55245000D03*
X95250000Y-56007000D03*
X95168000Y-61468000D03*
X99441000Y-55118000D03*
X99441000Y-61468000D03*
X95885000Y-57785000D03*
X95885000Y-75946000D03*
X93345000Y-56642000D03*
X93345000Y-75946000D03*
X84028990Y-87249000D03*
X84455000Y-55372000D03*
X88265000Y-57785000D03*
X89154000Y-87249000D03*
X85471000Y-57785000D03*
X85725000Y-101727000D03*
X83484010Y-55499000D03*
X83185000Y-101600000D03*
X75692000Y-56769000D03*
X75610010Y-61468000D03*
X80391000Y-55879998D03*
X80365600Y-61417200D03*
X76581000Y-57785000D03*
X76835000Y-75946000D03*
X67818000Y-51943004D03*
X73914000Y-74930000D03*
X65196010Y-86995000D03*
X64134996Y-56515000D03*
X67945000Y-57785000D03*
X69342000Y-87122000D03*
X66675000Y-102108000D03*
X60960000Y-51943000D03*
X64135000Y-102108000D03*
X62229998Y-55880000D03*
X56134000Y-57150000D03*
X56133996Y-61468000D03*
X46355000Y-57150000D03*
X55208660Y-74585340D03*
X45999400Y-87122000D03*
X42545000Y-55880000D03*
X51104800Y-87172800D03*
X43815000Y-57150000D03*
X40005000Y-55880000D03*
X47625000Y-101981000D03*
X38100000Y-55880000D03*
X45085000Y-101981000D03*
X61213996Y-61468000D03*
X59690000Y-55880000D03*
X45085000Y-55880000D03*
X57785000Y-76200000D03*
D28*
X92075002Y-90424002D02*
X92075000Y-90424000D01*
X96012000Y-90424002D02*
X92075002Y-90424002D01*
X72898000Y-90170000D02*
X76454000Y-90170000D01*
D29*
X59343001Y-60290999D02*
X61718001Y-60290999D01*
X59309000Y-60325000D02*
X59343001Y-60290999D01*
X61718001Y-60290999D02*
X61752002Y-60325000D01*
X61752002Y-60325000D02*
X73660000Y-60325000D01*
X44831000Y-111125000D02*
X39878000Y-111125000D01*
X39878000Y-111125000D02*
X36322000Y-111125000D01*
D28*
X40010000Y-110993000D02*
X39878000Y-111125000D01*
D29*
X49911000Y-111125000D02*
X53213000Y-111125000D01*
X53213000Y-111125000D02*
X59055000Y-111125000D01*
X53190000Y-116713000D02*
X53190000Y-111148000D01*
D28*
X53190000Y-111148000D02*
X53213000Y-111125000D01*
D29*
X59301999Y-60317999D02*
X59309000Y-60325000D01*
X54363001Y-60317999D02*
X59301999Y-60317999D01*
X54356000Y-60325000D02*
X54363001Y-60317999D01*
X59055000Y-111125000D02*
X63881000Y-111125000D01*
D28*
X59060000Y-102505000D02*
X59060000Y-111120000D01*
X59060000Y-111120000D02*
X59055000Y-111125000D01*
D29*
X82677000Y-111125000D02*
X78359000Y-111125000D01*
X78359000Y-111125000D02*
X68961000Y-111125000D01*
D28*
X78319998Y-102505000D02*
X78319998Y-111085998D01*
X78319998Y-111085998D02*
X78359000Y-111125000D01*
X97155000Y-111125000D02*
X97155000Y-102510000D01*
X97155000Y-102510000D02*
X97160000Y-102505000D01*
X99695000Y-103760000D02*
X99695000Y-102362000D01*
X99695000Y-102362000D02*
X99314000Y-101981000D01*
X99314000Y-101981000D02*
X97684000Y-101981000D01*
X97684000Y-101981000D02*
X97160000Y-102505000D01*
X97160000Y-102505000D02*
X95885000Y-102505000D01*
D29*
X101981000Y-111125000D02*
X97155000Y-111125000D01*
X97155000Y-111125000D02*
X87884000Y-111125000D01*
D28*
X106995000Y-109220000D02*
X106995000Y-111059000D01*
X106995000Y-111059000D02*
X107061000Y-111125000D01*
D29*
X107061000Y-111125000D02*
X101981000Y-111125000D01*
D28*
X101915000Y-109220000D02*
X101915000Y-111059000D01*
X101915000Y-111059000D02*
X101981000Y-111125000D01*
D29*
X78359000Y-60325000D02*
X92329000Y-60325000D01*
X92329000Y-60325000D02*
X97409000Y-60325000D01*
D28*
X92395000Y-62865000D02*
X92395000Y-60391000D01*
X92395000Y-60391000D02*
X92329000Y-60325000D01*
D29*
X93091000Y-85852000D02*
X98171000Y-85852000D01*
X98171000Y-85852000D02*
X101346000Y-85852000D01*
D28*
X98105000Y-83185000D02*
X98105000Y-85786000D01*
X98105000Y-85786000D02*
X98171000Y-85852000D01*
D29*
X88265000Y-85852000D02*
X93091000Y-85852000D01*
D28*
X93025000Y-83185000D02*
X93025000Y-85786000D01*
X93025000Y-85786000D02*
X93091000Y-85852000D01*
X50170000Y-76470000D02*
X50165000Y-76475000D01*
X50165000Y-76475000D02*
X50165000Y-85725000D01*
X50165000Y-85725000D02*
X50038000Y-85852000D01*
D29*
X49403000Y-85852000D02*
X50038000Y-85852000D01*
X50038000Y-85852000D02*
X54864000Y-85852000D01*
X68199000Y-85852000D02*
X69215000Y-85852000D01*
X69215000Y-85852000D02*
X74041000Y-85852000D01*
D28*
X69220000Y-76470000D02*
X69220000Y-85847000D01*
X69220000Y-85847000D02*
X69215000Y-85852000D01*
D29*
X87249000Y-85852000D02*
X88265000Y-85852000D01*
D28*
X88270000Y-76470000D02*
X88270000Y-85847000D01*
X88270000Y-85847000D02*
X88265000Y-85852000D01*
D29*
X106299000Y-85852000D02*
X107315000Y-85852000D01*
X107315000Y-85852000D02*
X111887000Y-85852000D01*
D28*
X107320000Y-76470000D02*
X107320000Y-77592000D01*
X107320000Y-77592000D02*
X107315000Y-77597000D01*
X107315000Y-77597000D02*
X107315000Y-85852000D01*
X106045000Y-76470000D02*
X107320000Y-76470000D01*
X107320000Y-76470000D02*
X107971000Y-75819000D01*
X107971000Y-75819000D02*
X109474000Y-75819000D01*
X109474000Y-75819000D02*
X109855000Y-76200000D01*
X109855000Y-76200000D02*
X109855000Y-77725000D01*
X86995000Y-76470000D02*
X88270000Y-76470000D01*
X88270000Y-76470000D02*
X88921000Y-75819000D01*
X88921000Y-75819000D02*
X90424000Y-75819000D01*
X90424000Y-75819000D02*
X90805000Y-76200000D01*
X90805000Y-76200000D02*
X90805000Y-77725000D01*
X67945000Y-76470000D02*
X69220000Y-76470000D01*
X71755000Y-76200000D02*
X71755000Y-77725000D01*
X69220000Y-76470000D02*
X69871000Y-75819000D01*
X69871000Y-75819000D02*
X71374000Y-75819000D01*
X71374000Y-75819000D02*
X71755000Y-76200000D01*
X48895000Y-76470000D02*
X50170000Y-76470000D01*
X50821000Y-75819000D02*
X52324000Y-75819000D01*
X50170000Y-76470000D02*
X50821000Y-75819000D01*
X52324000Y-75819000D02*
X52705000Y-76200000D01*
X52705000Y-76200000D02*
X52705000Y-77725000D01*
D29*
X36322000Y-60325000D02*
X54356000Y-60325000D01*
D28*
X54295000Y-62865000D02*
X54295000Y-60386000D01*
X54295000Y-60386000D02*
X54356000Y-60325000D01*
X59375000Y-62865000D02*
X59375000Y-60391000D01*
X59375000Y-60391000D02*
X59309000Y-60325000D01*
D29*
X73660000Y-60325000D02*
X78359000Y-60325000D01*
D28*
X73660000Y-62865000D02*
X73660000Y-60325000D01*
X78425000Y-62865000D02*
X78425000Y-60391000D01*
X78425000Y-60391000D02*
X78359000Y-60325000D01*
X116525000Y-62865000D02*
X116525000Y-60391000D01*
X116525000Y-60391000D02*
X116459000Y-60325000D01*
D29*
X111252000Y-60325000D02*
X116459000Y-60325000D01*
D28*
X111445000Y-62865000D02*
X111445000Y-60518000D01*
X111445000Y-60518000D02*
X111252000Y-60325000D01*
D29*
X97409000Y-60325000D02*
X111252000Y-60325000D01*
D28*
X97475000Y-62865000D02*
X97475000Y-60391000D01*
X97475000Y-60391000D02*
X97409000Y-60325000D01*
D29*
X36322000Y-85852000D02*
X44323000Y-85852000D01*
X44323000Y-85852000D02*
X49403000Y-85852000D01*
D28*
X44135000Y-88900000D02*
X44135000Y-86040000D01*
X44135000Y-86040000D02*
X44323000Y-85852000D01*
X49215000Y-88900000D02*
X49215000Y-86040000D01*
X49215000Y-86040000D02*
X49403000Y-85852000D01*
D29*
X54864000Y-85852000D02*
X60071000Y-85852000D01*
D28*
X54925000Y-83185000D02*
X54925000Y-85791000D01*
X54925000Y-85791000D02*
X54864000Y-85852000D01*
D29*
X60071000Y-85852000D02*
X63246000Y-85852000D01*
D28*
X60005000Y-83185000D02*
X60005000Y-85786000D01*
X60005000Y-85786000D02*
X60071000Y-85852000D01*
D29*
X74041000Y-85852000D02*
X79121000Y-85852000D01*
X79121000Y-85852000D02*
X82296000Y-85852000D01*
D28*
X79055000Y-83185000D02*
X79055000Y-85786000D01*
X79055000Y-85786000D02*
X79121000Y-85852000D01*
X73975000Y-83185000D02*
X73975000Y-85786000D01*
X73975000Y-85786000D02*
X74041000Y-85852000D01*
D29*
X63246000Y-85852000D02*
X68199000Y-85852000D01*
D28*
X63185000Y-88900000D02*
X63185000Y-85913000D01*
X63185000Y-85913000D02*
X63246000Y-85852000D01*
X68265000Y-88900000D02*
X68265000Y-87600000D01*
X68265000Y-87600000D02*
X68199000Y-87534000D01*
X68199000Y-87534000D02*
X68199000Y-85852000D01*
X82235000Y-85913000D02*
X82296000Y-85852000D01*
D29*
X82296000Y-85852000D02*
X87249000Y-85852000D01*
D28*
X82235000Y-88900000D02*
X82235000Y-85913000D01*
X87315000Y-88900000D02*
X87315000Y-85918000D01*
X87315000Y-85918000D02*
X87249000Y-85852000D01*
D29*
X101346000Y-85852000D02*
X106299000Y-85852000D01*
D28*
X101285000Y-88900000D02*
X101285000Y-85913000D01*
X101285000Y-85913000D02*
X101346000Y-85852000D01*
X106365000Y-88900000D02*
X106365000Y-87600000D01*
X106365000Y-87600000D02*
X106299000Y-87534000D01*
X106299000Y-87534000D02*
X106299000Y-85852000D01*
D29*
X111887000Y-85852000D02*
X117221000Y-85852000D01*
D28*
X112075000Y-83185000D02*
X112075000Y-85664000D01*
X112075000Y-85664000D02*
X111887000Y-85852000D01*
X117155000Y-83185000D02*
X117155000Y-85786000D01*
X117155000Y-85786000D02*
X117221000Y-85852000D01*
D29*
X36322000Y-111125000D02*
X33274000Y-111125000D01*
X33274000Y-111125000D02*
X30180000Y-114219000D01*
X30180000Y-114219000D02*
X30180000Y-116713000D01*
X87884000Y-111125000D02*
X82677000Y-111125000D01*
D28*
X87945000Y-109220000D02*
X87945000Y-111064000D01*
X87945000Y-111064000D02*
X87884000Y-111125000D01*
X82865000Y-109220000D02*
X82865000Y-110937000D01*
X82865000Y-110937000D02*
X82677000Y-111125000D01*
D29*
X63881000Y-111125000D02*
X68961000Y-111125000D01*
D28*
X68895000Y-111059000D02*
X68961000Y-111125000D01*
X68895000Y-109220000D02*
X68895000Y-111059000D01*
X63815000Y-109220000D02*
X63815000Y-111059000D01*
X63815000Y-111059000D02*
X63881000Y-111125000D01*
D29*
X44831000Y-111125000D02*
X49911000Y-111125000D01*
D28*
X49845000Y-109220000D02*
X49845000Y-111059000D01*
X49845000Y-111059000D02*
X49911000Y-111125000D01*
X44765000Y-109220000D02*
X44765000Y-111059000D01*
X44765000Y-111059000D02*
X44831000Y-111125000D01*
X38735000Y-102505000D02*
X40010000Y-102505000D01*
X40010000Y-102505000D02*
X40534000Y-101981000D01*
X41910000Y-101981000D02*
X42545000Y-102616000D01*
X40534000Y-101981000D02*
X41910000Y-101981000D01*
X42545000Y-102616000D02*
X42545000Y-103760000D01*
X57785000Y-102505000D02*
X59060000Y-102505000D01*
X59060000Y-102505000D02*
X59584000Y-101981000D01*
X59584000Y-101981000D02*
X61087000Y-101981000D01*
X61087000Y-101981000D02*
X61595000Y-102489000D01*
X61595000Y-102489000D02*
X61595000Y-103760000D01*
X76835000Y-102505000D02*
X78319998Y-102505000D01*
X78319998Y-102505000D02*
X78843998Y-101981000D01*
X78843998Y-101981000D02*
X80137000Y-101981000D01*
X80137000Y-101981000D02*
X80645000Y-102489000D01*
X80645000Y-102489000D02*
X80645000Y-103760000D01*
X120015000Y-77725000D02*
X122071400Y-77725000D01*
X122071400Y-77725000D02*
X122072400Y-77724000D01*
X65151000Y-79502000D02*
X62865000Y-79502000D01*
X65151000Y-79502000D02*
X66183000Y-78470000D01*
X66183000Y-78470000D02*
X67945000Y-78470000D01*
X103505000Y-79375000D02*
X100965000Y-79375000D01*
X103505000Y-79375000D02*
X104410000Y-78470000D01*
X104410000Y-78470000D02*
X106045000Y-78470000D01*
X81915000Y-79375000D02*
X84582000Y-79375000D01*
X84582000Y-79375000D02*
X85487000Y-78470000D01*
X85487000Y-78470000D02*
X86995000Y-78470000D01*
X99695000Y-96012000D02*
X93599000Y-96012000D01*
X93599000Y-96012000D02*
X91948000Y-94361000D01*
X80645000Y-96012000D02*
X74422000Y-96012000D01*
X74422000Y-96012000D02*
X72771000Y-94361000D01*
X61595000Y-96012000D02*
X55499000Y-96012000D01*
X55499000Y-96012000D02*
X53848000Y-94361000D01*
X61595000Y-94360000D02*
X61595000Y-96012000D01*
X99695000Y-94360000D02*
X99695000Y-96012000D01*
X80645000Y-94360000D02*
X80645000Y-96012000D01*
X109855000Y-69977000D02*
X106934000Y-69977000D01*
X106934000Y-69977000D02*
X103632000Y-66675000D01*
X103632000Y-66675000D02*
X100965000Y-66675000D01*
X88138000Y-69977000D02*
X84836000Y-66675000D01*
X84836000Y-66675000D02*
X81915000Y-66675000D01*
X90805000Y-69977000D02*
X88138000Y-69977000D01*
X68961000Y-69977000D02*
X65659000Y-66675000D01*
X65659000Y-66675000D02*
X62865000Y-66675000D01*
X71755000Y-69977000D02*
X68961000Y-69977000D01*
X72262000Y-44195000D02*
X72263000Y-44196000D01*
X71120000Y-44195000D02*
X72262000Y-44195000D01*
X62865000Y-68325000D02*
X62865000Y-66675000D01*
X62865000Y-77725000D02*
X62865000Y-79502000D01*
X52705000Y-68325000D02*
X52705000Y-69977004D01*
X81915000Y-77725000D02*
X81915000Y-79375000D01*
X81915000Y-68325000D02*
X81915000Y-66675000D01*
X100965000Y-68325000D02*
X100965000Y-66675000D01*
X100965000Y-77725000D02*
X100965000Y-79375000D01*
X113030000Y-44195000D02*
X114045000Y-44195000D01*
X114045000Y-44195000D02*
X114046000Y-44196000D01*
X92075000Y-44195000D02*
X93217000Y-44195000D01*
X93217000Y-44195000D02*
X93218000Y-44196000D01*
X62865000Y-68325000D02*
X62866000Y-68326000D01*
X62865000Y-77725000D02*
X62866000Y-77724000D01*
X42672000Y-94360000D02*
X42867010Y-94555010D01*
X42867010Y-94555010D02*
X42867010Y-96125990D01*
X71755000Y-68325000D02*
X71755000Y-69977000D01*
X48895000Y-78470000D02*
X48895000Y-79756000D01*
X90805000Y-68325000D02*
X90805000Y-69977000D01*
X109855000Y-68325000D02*
X109855000Y-69977000D01*
X120015000Y-68325000D02*
X121030000Y-68325000D01*
X121030000Y-68325000D02*
X121031000Y-68326000D01*
X38735000Y-104505000D02*
X38735000Y-105791000D01*
X57785000Y-104505000D02*
X57785000Y-105664000D01*
X76835000Y-104505000D02*
X76835000Y-105664000D01*
X95885000Y-104505000D02*
X95885000Y-105664000D01*
X90805000Y-94360000D02*
X91947000Y-94360000D01*
X91947000Y-94360000D02*
X91948000Y-94361000D01*
X71755000Y-94360000D02*
X72770000Y-94360000D01*
X72770000Y-94360000D02*
X72771000Y-94361000D01*
X90805000Y-103760000D02*
X91947000Y-103760000D01*
X91947000Y-103760000D02*
X91948000Y-103759000D01*
X71882000Y-103760000D02*
X72897000Y-103760000D01*
X72897000Y-103760000D02*
X72898000Y-103759000D01*
X53847000Y-94360000D02*
X53848000Y-94361000D01*
X52832000Y-94360000D02*
X53847000Y-94360000D01*
X53847004Y-103760000D02*
X53848004Y-103759000D01*
X52832000Y-103760000D02*
X53847004Y-103760000D01*
X109982000Y-103760000D02*
X110997000Y-103760000D01*
X110997000Y-103760000D02*
X110998000Y-103759000D01*
X109982000Y-94360000D02*
X110997000Y-94360000D01*
X110997000Y-94360000D02*
X110998000Y-94361000D01*
X50165000Y-44322000D02*
X51434000Y-44322000D01*
X51434000Y-44322000D02*
X51435000Y-44323000D01*
D30*
X41275000Y-46609000D02*
X41275000Y-44322000D01*
X46355000Y-103760000D02*
X46355000Y-102108000D01*
X46355000Y-103760000D02*
X46355000Y-106425000D01*
X46355000Y-106425000D02*
X46100000Y-106680000D01*
X46482000Y-106425000D02*
X46227000Y-106680000D01*
X40005000Y-44322000D02*
X40005000Y-48387000D01*
X40005000Y-48387000D02*
X40513000Y-48895000D01*
X48895000Y-103760000D02*
X48895000Y-102108000D01*
X48895000Y-103760000D02*
X48895000Y-105205000D01*
X48895000Y-105205000D02*
X50370000Y-106680000D01*
X50370000Y-106680000D02*
X51180000Y-106680000D01*
X51844000Y-33020000D02*
X51844000Y-32433200D01*
X53111400Y-31165800D02*
X53111400Y-27936400D01*
X51844000Y-32433200D02*
X53111400Y-31165800D01*
X53111400Y-27936400D02*
X51830000Y-26655000D01*
X51830000Y-26655000D02*
X51705000Y-26655000D01*
X43815000Y-46609000D02*
X43815000Y-44195000D01*
X43815000Y-42291000D02*
X43815000Y-44195000D01*
X51844000Y-33020000D02*
X51844000Y-34262000D01*
X51844000Y-34262000D02*
X43815000Y-42291000D01*
X47752000Y-90043000D02*
X47752000Y-91312000D01*
X47752000Y-91312000D02*
X47880000Y-91440000D01*
X47625000Y-94360000D02*
X47625000Y-91695000D01*
X47625000Y-91695000D02*
X47880000Y-91440000D01*
X51866800Y-32461200D02*
X51866800Y-32997200D01*
X42545000Y-46100998D02*
X42544998Y-46101000D01*
X42545000Y-44195000D02*
X42545000Y-46100998D01*
X42545000Y-42418000D02*
X42545000Y-44195000D01*
X50574000Y-31750000D02*
X50574000Y-34389000D01*
X50574000Y-34389000D02*
X42545000Y-42418000D01*
X51844000Y-30480000D02*
X50574000Y-31750000D01*
X42799000Y-89535000D02*
X42799000Y-91439000D01*
X42799000Y-91439000D02*
X42800000Y-91440000D01*
X45085000Y-94360000D02*
X45085000Y-92915000D01*
X45085000Y-92915000D02*
X43610000Y-91440000D01*
X43610000Y-91440000D02*
X42800000Y-91440000D01*
X51844000Y-30480000D02*
X51844000Y-28094000D01*
X51844000Y-28094000D02*
X51705000Y-27955000D01*
X51705000Y-30341000D02*
X51844000Y-30480000D01*
X46355000Y-42672000D02*
X46355000Y-44195000D01*
X46355000Y-48895000D02*
X46355000Y-44195000D01*
X55006000Y-35672000D02*
X55006000Y-35068000D01*
X46355000Y-42672000D02*
X53086000Y-35941000D01*
X53086000Y-35941000D02*
X54737000Y-35941000D01*
X54737000Y-35941000D02*
X55006000Y-35672000D01*
X56515000Y-77725000D02*
X56515000Y-75438000D01*
X56515000Y-77725000D02*
X56515000Y-80390000D01*
X56515000Y-80390000D02*
X56260000Y-80645000D01*
X55006000Y-35068000D02*
X55006000Y-33642000D01*
X55006000Y-33642000D02*
X54384000Y-33020000D01*
X45085000Y-42418000D02*
X45085000Y-44195000D01*
X45085000Y-46101000D02*
X45085000Y-44195000D01*
X59055000Y-77725000D02*
X59055000Y-76200000D01*
X59055000Y-76200000D02*
X57785000Y-74930000D01*
X53706000Y-35068000D02*
X53706000Y-34943000D01*
X53706000Y-34943000D02*
X53111400Y-34348400D01*
X53111400Y-34348400D02*
X53111400Y-32334200D01*
X53111400Y-32334200D02*
X54406800Y-31038800D01*
X54406800Y-30502800D02*
X54384000Y-30480000D01*
X54406800Y-31038800D02*
X54406800Y-30502800D01*
X53706000Y-35068000D02*
X52435000Y-35068000D01*
X52435000Y-35068000D02*
X45085000Y-42418000D01*
X59055000Y-77725000D02*
X59055000Y-79170000D01*
X59055000Y-79170000D02*
X60530000Y-80645000D01*
X60530000Y-80645000D02*
X61340000Y-80645000D01*
X56785000Y-26655000D02*
X56910000Y-26655000D01*
X56910000Y-26655000D02*
X58191400Y-27936400D01*
X58191400Y-27936400D02*
X58191400Y-31216600D01*
X58191400Y-31216600D02*
X56946800Y-32461200D01*
X56946800Y-32461200D02*
X56946800Y-32997200D01*
X56946800Y-32997200D02*
X56924000Y-33020000D01*
X48894998Y-46609000D02*
X48894998Y-44195002D01*
X58039000Y-61849000D02*
X57658000Y-61468000D01*
X58039000Y-65404000D02*
X58039000Y-61849000D01*
X48894998Y-44195002D02*
X48895000Y-44195000D01*
X56924000Y-33020000D02*
X56924000Y-41374000D01*
X56924000Y-41374000D02*
X56007000Y-42291000D01*
X56007000Y-42291000D02*
X49439000Y-42291000D01*
X49439000Y-42291000D02*
X48895000Y-42835000D01*
X48895000Y-42835000D02*
X48895000Y-44195000D01*
X58040000Y-65405000D02*
X58039000Y-65404000D01*
X57785000Y-68325000D02*
X57785000Y-65660000D01*
X57785000Y-65660000D02*
X58040000Y-65405000D01*
X56924000Y-30480000D02*
X55651400Y-31752600D01*
X55651400Y-31752600D02*
X55651400Y-38455600D01*
X55651400Y-38455600D02*
X54864000Y-39243000D01*
X54864000Y-39243000D02*
X51181000Y-39243000D01*
X51181000Y-39243000D02*
X47625000Y-42799000D01*
X47625000Y-42799000D02*
X47625000Y-44195000D01*
X47625000Y-43209972D02*
X47625000Y-46101000D01*
X52960000Y-65405000D02*
X52960000Y-64136000D01*
X52960000Y-64136000D02*
X51308000Y-62484000D01*
X55245000Y-68325000D02*
X55245000Y-66802000D01*
X55245000Y-66802000D02*
X53848000Y-65405000D01*
X53848000Y-65405000D02*
X52960000Y-65405000D01*
X56785000Y-27955000D02*
X56785000Y-30341000D01*
X56785000Y-30341000D02*
X56924000Y-30480000D01*
X65405000Y-103760000D02*
X65405000Y-106425000D01*
X65405000Y-106425000D02*
X65150000Y-106680000D01*
X65405000Y-103760000D02*
X65405000Y-102107994D01*
X60086000Y-35068000D02*
X60086000Y-35778000D01*
X60086000Y-35778000D02*
X60366001Y-36058001D01*
X60366001Y-36058001D02*
X60366001Y-40173001D01*
X60366001Y-40173001D02*
X62230000Y-42037000D01*
X62230000Y-42037000D02*
X62230000Y-44196000D01*
X62080020Y-47024384D02*
X60844404Y-48260000D01*
X62080020Y-44882010D02*
X62080020Y-47024384D01*
X60844404Y-48260000D02*
X59055000Y-48260000D01*
X60086000Y-35068000D02*
X60086000Y-33642000D01*
X60086000Y-33642000D02*
X59464000Y-33020000D01*
X62230000Y-44322000D02*
X62230000Y-42962000D01*
X67945000Y-103760000D02*
X67945000Y-102108000D01*
X60833000Y-44069000D02*
X57759600Y-40995600D01*
X57759600Y-36804400D02*
X58786000Y-35778000D01*
X58786000Y-35778000D02*
X58786000Y-35068000D01*
X57759600Y-40995600D02*
X57759600Y-36804400D01*
X60960000Y-44195000D02*
X60960000Y-46990000D01*
X67945000Y-103760000D02*
X67945000Y-105410000D01*
X67945000Y-105410000D02*
X69215000Y-106680000D01*
X69215000Y-106680000D02*
X70230000Y-106680000D01*
X59464000Y-30480000D02*
X59464000Y-31061600D01*
X59464000Y-31061600D02*
X58191400Y-32334200D01*
X58191400Y-32334200D02*
X58191400Y-34348400D01*
X58191400Y-34348400D02*
X58786000Y-34943000D01*
X58786000Y-34943000D02*
X58786000Y-35068000D01*
X66930000Y-89840800D02*
X66903600Y-89814400D01*
X66930000Y-91440000D02*
X66930000Y-89840800D01*
X62004000Y-33020000D02*
X62004000Y-32280800D01*
X62004000Y-32280800D02*
X63271400Y-31013400D01*
X61990000Y-26655000D02*
X61865000Y-26655000D01*
X63271400Y-31013400D02*
X63271400Y-27936400D01*
X63271400Y-27936400D02*
X61990000Y-26655000D01*
X62004000Y-33020000D02*
X62004000Y-38890000D01*
X62004000Y-38890000D02*
X64770000Y-41656000D01*
X64770000Y-41656000D02*
X64770000Y-44069000D01*
X64770000Y-44195000D02*
X64770000Y-46609000D01*
X66675000Y-94360000D02*
X66675000Y-91695000D01*
X66675000Y-91695000D02*
X66930000Y-91440000D01*
X62004000Y-30480000D02*
X60731400Y-31752600D01*
X60731400Y-31752600D02*
X60731400Y-33756600D01*
X60731400Y-33756600D02*
X61061600Y-34086800D01*
X61061600Y-39344600D02*
X63500000Y-41783000D01*
X63500000Y-41783000D02*
X63500000Y-44323000D01*
X61061600Y-34086800D02*
X61061600Y-39344600D01*
X63500000Y-44195000D02*
X63500000Y-46101000D01*
X61850000Y-89790000D02*
X59563000Y-87503000D01*
X61850000Y-91440000D02*
X61850000Y-89790000D01*
X64135000Y-94360000D02*
X64135000Y-92915000D01*
X64135000Y-92915000D02*
X62660000Y-91440000D01*
X62660000Y-91440000D02*
X61850000Y-91440000D01*
X61865000Y-27955000D02*
X61865000Y-30341000D01*
X61865000Y-30341000D02*
X62004000Y-30480000D01*
X65166000Y-35068000D02*
X65166000Y-35778000D01*
X67310000Y-41852315D02*
X67310000Y-42418000D01*
X65166000Y-35778000D02*
X65606989Y-36218989D01*
X65606989Y-36218989D02*
X65606989Y-40149304D01*
X65606989Y-40149304D02*
X67310000Y-41852315D01*
X75565000Y-77725000D02*
X75565000Y-76073000D01*
X67310000Y-42418000D02*
X67310000Y-44195000D01*
X75565000Y-77725000D02*
X75565000Y-80390000D01*
X75565000Y-80390000D02*
X75310000Y-80645000D01*
X65166000Y-35068000D02*
X65166000Y-33642000D01*
X65166000Y-33642000D02*
X64544000Y-33020000D01*
X63866000Y-35068000D02*
X63866000Y-34943000D01*
X63866000Y-34943000D02*
X63271400Y-34348400D01*
X63271400Y-34348400D02*
X63271400Y-32283400D01*
X63271400Y-32283400D02*
X64544000Y-31010800D01*
X64544000Y-31010800D02*
X64544000Y-30480000D01*
X63281000Y-35778000D02*
X63281000Y-39055273D01*
X66040000Y-41814273D02*
X66040000Y-44069000D01*
X63281000Y-39055273D02*
X66040000Y-41814273D01*
X63866000Y-35068000D02*
X63866000Y-35193000D01*
X63866000Y-35193000D02*
X63281000Y-35778000D01*
X78105000Y-77725000D02*
X78105000Y-76072996D01*
X67056000Y-47498000D02*
X66040000Y-46482000D01*
X66040000Y-46482000D02*
X66040000Y-44195000D01*
X78232000Y-47498000D02*
X67056000Y-47498000D01*
X78105000Y-77725000D02*
X78105000Y-79170000D01*
X78105000Y-79170000D02*
X79580000Y-80645000D01*
X79580000Y-80645000D02*
X80390000Y-80645000D01*
X66945000Y-26655000D02*
X67070000Y-26655000D01*
X67070000Y-26655000D02*
X68351400Y-27936400D01*
X68351400Y-27936400D02*
X68351400Y-31064200D01*
X68351400Y-31064200D02*
X67106800Y-32308800D01*
X67106800Y-32308800D02*
X67106800Y-32997200D01*
X67106800Y-32997200D02*
X67084000Y-33020000D01*
X67084000Y-33020000D02*
X67084000Y-39017000D01*
X67084000Y-39017000D02*
X69850000Y-41783000D01*
X69850000Y-41783000D02*
X69850000Y-42418000D01*
X69850000Y-44195000D02*
X69850000Y-42418000D01*
X77090000Y-64369990D02*
X77324990Y-64135000D01*
X77090000Y-65405000D02*
X77090000Y-64369990D01*
X67084000Y-33020000D02*
X67084000Y-32226402D01*
X76835000Y-68325000D02*
X76835000Y-65660000D01*
X76835000Y-65660000D02*
X77090000Y-65405000D01*
X68580000Y-44195000D02*
X68580000Y-41910000D01*
X68580000Y-41910000D02*
X66421000Y-39751000D01*
X66421000Y-39751000D02*
X66421000Y-34264600D01*
X66421000Y-34264600D02*
X65811400Y-33655000D01*
X65811400Y-33655000D02*
X65811400Y-31752600D01*
X65811400Y-31752600D02*
X67084000Y-30480000D01*
X68580000Y-44195000D02*
X68580000Y-46101000D01*
X72010000Y-65405000D02*
X72010000Y-64136000D01*
X72010000Y-64136000D02*
X72009000Y-64135000D01*
X74295000Y-68325000D02*
X74295000Y-66802000D01*
X74295000Y-66802000D02*
X72898000Y-65405000D01*
X72898000Y-65405000D02*
X72010000Y-65405000D01*
X66945000Y-27955000D02*
X66945000Y-30341000D01*
D31*
X66945000Y-30341000D02*
X67084000Y-30480000D01*
D30*
X70246000Y-35068000D02*
X70246000Y-35778000D01*
X70246000Y-35778000D02*
X70485000Y-36017000D01*
X70485000Y-36017000D02*
X70485000Y-39751000D01*
X70485000Y-39751000D02*
X73025000Y-42291000D01*
X73025000Y-42291000D02*
X82753200Y-42291000D01*
X82753200Y-42291000D02*
X83185000Y-42722800D01*
X83185000Y-42722800D02*
X83185000Y-44195000D01*
X84455000Y-103760000D02*
X84455000Y-102108004D01*
X83476999Y-45846999D02*
X83584010Y-45846999D01*
X83185000Y-45555000D02*
X83476999Y-45846999D01*
X83185000Y-44195000D02*
X83185000Y-45555000D01*
X83312000Y-44322000D02*
X83185000Y-44449000D01*
X84455000Y-103760000D02*
X84455000Y-106425000D01*
X84455000Y-106425000D02*
X84200000Y-106680000D01*
X70246000Y-35193000D02*
X70246000Y-35068000D01*
X70246000Y-35068000D02*
X70246000Y-34358000D01*
X70246000Y-34358000D02*
X69624000Y-33736000D01*
X69624000Y-33736000D02*
X69624000Y-33020000D01*
X68946000Y-35068000D02*
X68946000Y-34358000D01*
X68946000Y-34358000D02*
X68351400Y-33763400D01*
X68351400Y-33763400D02*
X68351400Y-32385000D01*
X68351400Y-32385000D02*
X69646800Y-31089600D01*
X69646800Y-31089600D02*
X69646800Y-30502800D01*
X69646800Y-30502800D02*
X69624000Y-30480000D01*
X68946000Y-35068000D02*
X68946000Y-35193000D01*
X73744621Y-44195000D02*
X81915000Y-44195000D01*
X68946000Y-35193000D02*
X68361000Y-35778000D01*
X68361000Y-35778000D02*
X68361000Y-38811379D01*
X68361000Y-38811379D02*
X73744621Y-44195000D01*
X86995000Y-103760000D02*
X86995000Y-102108002D01*
X84817001Y-46754999D02*
X85217000Y-46355000D01*
X82187999Y-46754999D02*
X84817001Y-46754999D01*
X81915000Y-46482000D02*
X82187999Y-46754999D01*
X81915000Y-44195000D02*
X81915000Y-46482000D01*
X86995000Y-103760000D02*
X86995000Y-105205000D01*
X86995000Y-105205000D02*
X88470000Y-106680000D01*
X88470000Y-106680000D02*
X89280000Y-106680000D01*
X72164000Y-38509000D02*
X72898000Y-39243000D01*
X72164000Y-33020000D02*
X72164000Y-38509000D01*
X85725000Y-44195000D02*
X85725000Y-42418000D01*
X85980000Y-91440000D02*
X85980000Y-87338000D01*
X85980000Y-87338000D02*
X86196000Y-87122000D01*
X85725000Y-94360000D02*
X85725000Y-91695000D01*
X85725000Y-91695000D02*
X85980000Y-91440000D01*
X85852000Y-91695000D02*
X86107000Y-91440000D01*
X72150000Y-26655000D02*
X73431400Y-27936400D01*
X73431400Y-31191200D02*
X72186800Y-32435800D01*
X72186800Y-32997200D02*
X72164000Y-33020000D01*
X72025000Y-26655000D02*
X72150000Y-26655000D01*
X73431400Y-27936400D02*
X73431400Y-31191200D01*
X72186800Y-32435800D02*
X72186800Y-32997200D01*
X72164000Y-30480000D02*
X70891400Y-31752600D01*
X70891400Y-31752600D02*
X70891400Y-34061400D01*
X70891400Y-34061400D02*
X71355001Y-34525001D01*
X71355001Y-34525001D02*
X71355001Y-39351001D01*
X71355001Y-39351001D02*
X72009000Y-40005000D01*
X84455000Y-42418000D02*
X84455000Y-44195000D01*
X80900000Y-91440000D02*
X80900000Y-87502000D01*
X80900000Y-87502000D02*
X81026000Y-87376000D01*
X83185000Y-94360000D02*
X83185000Y-92915000D01*
X83185000Y-92915000D02*
X81710000Y-91440000D01*
X81710000Y-91440000D02*
X80900000Y-91440000D01*
D31*
X72025000Y-27955000D02*
X72025000Y-30341000D01*
X72025000Y-30341000D02*
X72164000Y-30480000D01*
D30*
X75326000Y-35068000D02*
X75326000Y-35778000D01*
X87198200Y-40843200D02*
X88265000Y-41910000D01*
X75326000Y-35778000D02*
X75641200Y-36093200D01*
X75641200Y-36093200D02*
X75641200Y-39725600D01*
X75641200Y-39725600D02*
X76758800Y-40843200D01*
X76758800Y-40843200D02*
X87198200Y-40843200D01*
X88265000Y-41910000D02*
X88265000Y-44195000D01*
X88900000Y-47117000D02*
X94538800Y-47117000D01*
X88265000Y-46482000D02*
X88900000Y-47117000D01*
X88265000Y-44195000D02*
X88265000Y-46482000D01*
X94615000Y-76073000D02*
X94640400Y-76047600D01*
X94615000Y-77725000D02*
X94615000Y-76073000D01*
X94615000Y-77725000D02*
X94615000Y-80390000D01*
X94615000Y-80390000D02*
X94360000Y-80645000D01*
X75326000Y-35068000D02*
X75326000Y-33642000D01*
X75326000Y-33642000D02*
X74704000Y-33020000D01*
X74026000Y-35068000D02*
X74026000Y-35829000D01*
X74026000Y-35829000D02*
X73787000Y-36068000D01*
X73787000Y-36068000D02*
X73787000Y-40005000D01*
X73787000Y-40005000D02*
X75311000Y-41529000D01*
X85990402Y-41529000D02*
X86995000Y-42533598D01*
X86995000Y-42533598D02*
X86995000Y-44195000D01*
X75311000Y-41529000D02*
X85990402Y-41529000D01*
X88138000Y-48260000D02*
X98552000Y-48260000D01*
X86995000Y-47117000D02*
X88138000Y-48260000D01*
X86995000Y-44195000D02*
X86995000Y-47117000D01*
X97155000Y-76073000D02*
X97155000Y-77725000D01*
X97155000Y-77725000D02*
X97155000Y-79170000D01*
X97155000Y-79170000D02*
X98630000Y-80645000D01*
X98630000Y-80645000D02*
X99440000Y-80645000D01*
X74026000Y-35068000D02*
X74026000Y-34943000D01*
X74026000Y-34943000D02*
X73441000Y-34358000D01*
X73441000Y-34358000D02*
X73441000Y-32375400D01*
X73441000Y-32375400D02*
X74704000Y-31112400D01*
X74704000Y-31112400D02*
X74704000Y-30480000D01*
X77244000Y-38509000D02*
X78105000Y-39370000D01*
X77244000Y-33020000D02*
X77244000Y-38509000D01*
X90805000Y-44195000D02*
X90805000Y-45618400D01*
X90805000Y-45618400D02*
X91414600Y-46228000D01*
X91414600Y-46228000D02*
X97409000Y-46228000D01*
X77105000Y-26655000D02*
X77230000Y-26655000D01*
X77230000Y-26655000D02*
X78511400Y-27936400D01*
X78511400Y-27936400D02*
X78511400Y-31089600D01*
X78511400Y-31089600D02*
X77343000Y-32258000D01*
X77343000Y-32258000D02*
X77343000Y-32921000D01*
X77343000Y-32921000D02*
X77244000Y-33020000D01*
X90805000Y-42418000D02*
X90805000Y-44195000D01*
X96140000Y-65405000D02*
X96140000Y-63628000D01*
X96140000Y-63628000D02*
X96139000Y-63627000D01*
X95885000Y-68325000D02*
X95885000Y-65660000D01*
X95885000Y-65660000D02*
X96140000Y-65405000D01*
X76682600Y-39522400D02*
X76682600Y-38956715D01*
X76682600Y-38956715D02*
X76403200Y-38677315D01*
X76403200Y-34137600D02*
X75971400Y-33705800D01*
X76403200Y-38677315D02*
X76403200Y-34137600D01*
X75971400Y-33705800D02*
X75971400Y-31752600D01*
X75971400Y-31752600D02*
X77244000Y-30480000D01*
X89535000Y-42418000D02*
X89535000Y-44195000D01*
X89535000Y-46100998D02*
X89535002Y-46101000D01*
X89535000Y-44195000D02*
X89535000Y-46100998D01*
X91060000Y-65405000D02*
X91060000Y-63882000D01*
X91060000Y-63882000D02*
X91059000Y-63881000D01*
X93345000Y-68325000D02*
X93345000Y-66880000D01*
X93345000Y-66880000D02*
X91870000Y-65405000D01*
X91870000Y-65405000D02*
X91060000Y-65405000D01*
X77105000Y-27955000D02*
X77105000Y-30341000D01*
X77105000Y-30341000D02*
X77244000Y-30480000D01*
X104140000Y-44195000D02*
X104140000Y-41529000D01*
X104140000Y-41529000D02*
X101727000Y-39116000D01*
X101727000Y-39116000D02*
X82804000Y-39116000D01*
X82804000Y-39116000D02*
X81534000Y-37846000D01*
X81534000Y-37846000D02*
X81534000Y-37338000D01*
X81534000Y-37338000D02*
X81534000Y-36906000D01*
X81534000Y-37338000D02*
X81534000Y-37277400D01*
X80406000Y-35778000D02*
X80406000Y-35068000D01*
X81534000Y-36906000D02*
X80406000Y-35778000D01*
X104140000Y-44195000D02*
X104140000Y-45973996D01*
X103505000Y-103760000D02*
X103505000Y-102108004D01*
X103505000Y-102108004D02*
X103505004Y-102108000D01*
D28*
X104012000Y-44322000D02*
X104013000Y-44323000D01*
D30*
X103505000Y-103760000D02*
X103505000Y-106425000D01*
X103505000Y-106425000D02*
X103250000Y-106680000D01*
X80406000Y-35068000D02*
X80406000Y-33642000D01*
X80406000Y-33642000D02*
X79784000Y-33020000D01*
X79106000Y-35068000D02*
X79106000Y-35193000D01*
X79106000Y-35193000D02*
X78521000Y-35778000D01*
X78521000Y-35778000D02*
X78521000Y-38287400D01*
X78521000Y-38287400D02*
X80086200Y-39852600D01*
X80086200Y-39852600D02*
X100304600Y-39852600D01*
X100304600Y-39852600D02*
X102870000Y-42418000D01*
X102870000Y-42418000D02*
X102870000Y-44195000D01*
X106045000Y-103760000D02*
X106045000Y-102107994D01*
X102870000Y-44195000D02*
X102870000Y-47879000D01*
X104013000Y-49022000D02*
X108077004Y-49022000D01*
X102870000Y-47879000D02*
X104013000Y-49022000D01*
X106045000Y-103760000D02*
X106045000Y-105410000D01*
X106045000Y-105410000D02*
X107315000Y-106680000D01*
X107315000Y-106680000D02*
X108330000Y-106680000D01*
X79106000Y-35068000D02*
X79106000Y-34943000D01*
X79106000Y-34943000D02*
X78521000Y-34358000D01*
X78521000Y-34358000D02*
X78521000Y-32273800D01*
X78521000Y-32273800D02*
X79756000Y-31038800D01*
X79756000Y-31038800D02*
X79756000Y-30508000D01*
X79756000Y-30508000D02*
X79784000Y-30480000D01*
X82125000Y-26655000D02*
X82154000Y-26655000D01*
X82154000Y-26655000D02*
X83591400Y-28092400D01*
X83591400Y-28092400D02*
X83591400Y-31089600D01*
X83591400Y-31089600D02*
X82296000Y-32385000D01*
X82296000Y-32385000D02*
X82296000Y-32992000D01*
X82296000Y-32992000D02*
X82324000Y-33020000D01*
X106680000Y-44195000D02*
X106680000Y-42418008D01*
X106680000Y-45974000D02*
X106680000Y-44195000D01*
X105030000Y-91440000D02*
X106045000Y-91440000D01*
X106045000Y-91440000D02*
X106426000Y-91059000D01*
X104775000Y-94360000D02*
X104775000Y-91695000D01*
X104775000Y-91695000D02*
X105030000Y-91440000D01*
X105410000Y-46228000D02*
X104140000Y-47498000D01*
X105410000Y-44195000D02*
X105410000Y-46228000D01*
X105410000Y-44195000D02*
X105410000Y-42418000D01*
X99950000Y-87377002D02*
X99948998Y-87376000D01*
X99950000Y-91440000D02*
X99950000Y-87377002D01*
X102235000Y-94360000D02*
X102235000Y-92710000D01*
X102235000Y-92710000D02*
X100965000Y-91440000D01*
X100965000Y-91440000D02*
X99950000Y-91440000D01*
X82125000Y-27955000D02*
X82125000Y-30281000D01*
X82125000Y-30281000D02*
X82324000Y-30480000D01*
X85486000Y-35068000D02*
X90440000Y-35068000D01*
X109220000Y-37846000D02*
X109220000Y-44195000D01*
X90440000Y-35068000D02*
X91150000Y-35778000D01*
X91150000Y-35778000D02*
X107152000Y-35778000D01*
X107152000Y-35778000D02*
X109220000Y-37846000D01*
X113665000Y-77725000D02*
X113665000Y-76073000D01*
X109220000Y-44195000D02*
X109220000Y-45974000D01*
X113665000Y-77725000D02*
X113665000Y-80390000D01*
X113665000Y-80390000D02*
X113410000Y-80645000D01*
X84864000Y-33020000D02*
X85496400Y-33652400D01*
X85496400Y-35057600D02*
X85486000Y-35068000D01*
X85496400Y-33652400D02*
X85496400Y-35057600D01*
X109307602Y-48717200D02*
X113436400Y-48717200D01*
X107950000Y-47359598D02*
X109307602Y-48717200D01*
X107950000Y-44195000D02*
X107950000Y-47359598D01*
X84186000Y-35068000D02*
X84186000Y-34943000D01*
X84186000Y-34943000D02*
X83591400Y-34348400D01*
X83591400Y-32544574D02*
X84836000Y-31299974D01*
X83591400Y-34348400D02*
X83591400Y-32544574D01*
X84836000Y-31299974D02*
X84836000Y-30508000D01*
X84836000Y-30508000D02*
X84864000Y-30480000D01*
X84186000Y-35068000D02*
X84186000Y-35778000D01*
X89414027Y-36068000D02*
X90049027Y-36703000D01*
X84186000Y-35778000D02*
X84476000Y-36068000D01*
X107950000Y-39243000D02*
X107950000Y-44195000D01*
X84476000Y-36068000D02*
X89414027Y-36068000D01*
X105410000Y-36703000D02*
X107950000Y-39243000D01*
X90049027Y-36703000D02*
X105410000Y-36703000D01*
X116205000Y-77725000D02*
X116205000Y-76073000D01*
X116205000Y-77725000D02*
X116205000Y-79170000D01*
X116205000Y-79170000D02*
X117680000Y-80645000D01*
X117680000Y-80645000D02*
X118490000Y-80645000D01*
X84186000Y-35068000D02*
X84186000Y-35193000D01*
X111760000Y-44195000D02*
X111760000Y-42417994D01*
X111760000Y-44195000D02*
X111760000Y-45593000D01*
X111760000Y-45593000D02*
X115189000Y-49022000D01*
X115189000Y-49022000D02*
X115189000Y-52197000D01*
X115189000Y-63627000D02*
X115189000Y-65404000D01*
X115189000Y-65404000D02*
X115190000Y-65405000D01*
X114935000Y-68325000D02*
X114935000Y-65660000D01*
X114935000Y-65660000D02*
X115190000Y-65405000D01*
X87840000Y-26655000D02*
X87965000Y-26655000D01*
X87965000Y-26655000D02*
X88900000Y-27590000D01*
X88900000Y-27590000D02*
X88900000Y-31524000D01*
X88900000Y-31524000D02*
X87404000Y-33020000D01*
X110490000Y-47167800D02*
X109804201Y-47853599D01*
X110490000Y-44195000D02*
X110490000Y-47167800D01*
X110490000Y-44195000D02*
X110490000Y-36830002D01*
X110110000Y-65405000D02*
X110110000Y-61723000D01*
X110110000Y-61723000D02*
X110109000Y-61722000D01*
X112395000Y-68325000D02*
X112395000Y-66802000D01*
X112395000Y-66802000D02*
X110998000Y-65405000D01*
X110998000Y-65405000D02*
X110110000Y-65405000D01*
X87840000Y-27955000D02*
X87840000Y-30044000D01*
X87840000Y-30044000D02*
X87404000Y-30480000D01*
D28*
X92075000Y-50419000D02*
X112014000Y-50419000D01*
X113030000Y-51435000D02*
X113030000Y-53595000D01*
X112014000Y-50419000D02*
X113030000Y-51435000D01*
X92075000Y-50419000D02*
X92075000Y-53595000D01*
X71120000Y-50419000D02*
X92075000Y-50419000D01*
X71120000Y-50419000D02*
X71120000Y-53595000D01*
X50165000Y-50419000D02*
X71120000Y-50419000D01*
X50165000Y-53595000D02*
X50165000Y-50419000D01*
X50165000Y-50419000D02*
X50164998Y-50418998D01*
X50164998Y-50418998D02*
X35814000Y-50418998D01*
D29*
X38100000Y-116713000D02*
X38100000Y-118622188D01*
X55118000Y-120650000D02*
X57150000Y-118618000D01*
X57150000Y-118618000D02*
X57150000Y-116713000D01*
X40127812Y-120650000D02*
X55118000Y-120650000D01*
X38100000Y-118622188D02*
X40127812Y-120650000D01*
X57150000Y-116713000D02*
X57150000Y-117602000D01*
X38100000Y-117094000D02*
X38100000Y-116713000D01*
X57150000Y-116713000D02*
X61110000Y-116713000D01*
X34140000Y-116713000D02*
X38100000Y-116713000D01*
D28*
X84836000Y-38208990D02*
X84792590Y-38252400D01*
D30*
X84836000Y-37068000D02*
X84836000Y-38208990D01*
X79756000Y-37068000D02*
X79756000Y-38227000D01*
D28*
X79756000Y-38227000D02*
X79781400Y-38252400D01*
D30*
X53705000Y-27305000D02*
X53705000Y-26330400D01*
X53705000Y-26330400D02*
X53721000Y-26314400D01*
X74676000Y-37068000D02*
X74676000Y-38252400D01*
X69596000Y-37068000D02*
X69596000Y-38227000D01*
X69596000Y-38227000D02*
X69621400Y-38252400D01*
X64516000Y-37068000D02*
X64516000Y-38227000D01*
X64516000Y-38227000D02*
X64541400Y-38252400D01*
X59436000Y-38252400D02*
X59436000Y-37068000D01*
X54356000Y-38227000D02*
X54330600Y-38252400D01*
X54356000Y-37068000D02*
X54356000Y-38227000D01*
X58785000Y-26323796D02*
X58775604Y-26314400D01*
X58785000Y-27305000D02*
X58785000Y-26323796D01*
X63865000Y-26323800D02*
X63855600Y-26314400D01*
X63865000Y-27305000D02*
X63865000Y-26323800D01*
X68945000Y-26323800D02*
X68935600Y-26314400D01*
X68945000Y-27305000D02*
X68945000Y-26323800D01*
X74025000Y-26355798D02*
X74066398Y-26314400D01*
X74025000Y-27305000D02*
X74025000Y-26355798D01*
X79105000Y-27305000D02*
X79105000Y-26323802D01*
X79105000Y-26323802D02*
X79095598Y-26314400D01*
X84125000Y-26314598D02*
X84124800Y-26314398D01*
X84125000Y-27305000D02*
X84125000Y-26314598D01*
X89840000Y-26339600D02*
X89865200Y-26314400D01*
X89840000Y-27305000D02*
X89840000Y-26339600D01*
D32*
X30000000Y-65000000D02*
X30000000Y-66113600D01*
X30000000Y-66113600D02*
X30155000Y-66268600D01*
X30155000Y-66268600D02*
X34798000Y-66268600D01*
X34798000Y-66268600D02*
X35052000Y-66522600D01*
X35026600Y-68656200D02*
X35026600Y-82194400D01*
X35052000Y-66522600D02*
X35052000Y-68630800D01*
X35052000Y-68630800D02*
X35026600Y-68656200D01*
X35026600Y-82194400D02*
X35052000Y-82219800D01*
X31165800Y-84455000D02*
X30022800Y-85598000D01*
X35052000Y-82219800D02*
X35052000Y-84201000D01*
X35052000Y-84201000D02*
X34798000Y-84455000D01*
X34798000Y-84455000D02*
X31165800Y-84455000D01*
X30022800Y-85598000D02*
X30022800Y-86969600D01*
X30128400Y-88265000D02*
X30022800Y-88159400D01*
X30022800Y-88159400D02*
X30022800Y-86969600D01*
X35179000Y-89154000D02*
X34290000Y-88265000D01*
X34290000Y-88265000D02*
X30128400Y-88265000D01*
X70485000Y-103760000D02*
X70485000Y-100457000D01*
X51435000Y-101473000D02*
X51435000Y-101219000D01*
X51435000Y-103633000D02*
X51435000Y-101473000D01*
X51435000Y-101219000D02*
X51181000Y-101219000D01*
X51181000Y-101219000D02*
X35179000Y-101219000D01*
X51435000Y-101473000D02*
X51181000Y-101219000D01*
X70485000Y-100203000D02*
X70231000Y-100203000D01*
X70231000Y-100203000D02*
X52451000Y-100203000D01*
X70485000Y-100457000D02*
X70231000Y-100203000D01*
X70485000Y-100457000D02*
X70485000Y-100203000D01*
X89408000Y-100203000D02*
X70739000Y-100203000D01*
X70739000Y-100203000D02*
X70485000Y-100203000D01*
X70485000Y-100457000D02*
X70739000Y-100203000D01*
X70612000Y-103760000D02*
X70485000Y-103633000D01*
X89662000Y-100203000D02*
X89408000Y-100203000D01*
X89662000Y-100457000D02*
X89408000Y-100203000D01*
X89662000Y-100457000D02*
X89662000Y-100203000D01*
X89662000Y-103760000D02*
X89662000Y-100457000D01*
X89662000Y-100203000D02*
X89916000Y-100203000D01*
X89916000Y-100203000D02*
X108331000Y-100203000D01*
X89662000Y-100457000D02*
X89916000Y-100203000D01*
X108331000Y-100203000D02*
X108585000Y-100203000D01*
X108585000Y-100457000D02*
X108331000Y-100203000D01*
X108585000Y-100457000D02*
X108585000Y-103632000D01*
X108585000Y-100203000D02*
X108585000Y-100457000D01*
X108585004Y-100202996D02*
X108839000Y-100202996D01*
X108839000Y-100202996D02*
X118745000Y-100202996D01*
X108585000Y-100456996D02*
X108839000Y-100202996D01*
X108585000Y-100457000D02*
X108585000Y-100456996D01*
X80391000Y-74168000D02*
X62230000Y-74168000D01*
X62230000Y-74168000D02*
X61595000Y-74803000D01*
X61595000Y-74803000D02*
X61595000Y-77725000D01*
X118745000Y-77725000D02*
X118745000Y-74168002D01*
X118745000Y-74168002D02*
X118745002Y-74168000D01*
X99949000Y-74168000D02*
X118745002Y-74168000D01*
X99695000Y-74168000D02*
X99441000Y-74168000D01*
X99441000Y-74168000D02*
X80899000Y-74168000D01*
X99695000Y-74422000D02*
X99441000Y-74168000D01*
X99695000Y-74422000D02*
X99695000Y-77725000D01*
X99695000Y-74168000D02*
X99695000Y-74422000D01*
X99695000Y-74168000D02*
X99949000Y-74168000D01*
X99695000Y-74422000D02*
X99949000Y-74168000D01*
X80645000Y-74168000D02*
X80391000Y-74168000D01*
X80645000Y-74422000D02*
X80391000Y-74168000D01*
X80645000Y-74422000D02*
X80645000Y-74168000D01*
X80645000Y-77725000D02*
X80645000Y-74422000D01*
X80899000Y-74168000D02*
X80645000Y-74168000D01*
X80645000Y-74422000D02*
X80899000Y-74168000D01*
X108585000Y-100203000D02*
X108585004Y-100202996D01*
X108585000Y-103632000D02*
X108712000Y-103759000D01*
X52451000Y-100203000D02*
X51435000Y-101219000D01*
X51562000Y-103760000D02*
X51435000Y-103633000D01*
X30022800Y-89509600D02*
X28244800Y-87731600D01*
X28168600Y-87731600D02*
X28168600Y-78968600D01*
X28244800Y-87731600D02*
X28168600Y-87731600D01*
X28168600Y-78968600D02*
X30200600Y-76936600D01*
X30200600Y-76936600D02*
X32918400Y-76936600D01*
X32918400Y-76936600D02*
X33959800Y-75895200D01*
X33959800Y-75895200D02*
X33959800Y-69494400D01*
X33959800Y-69494400D02*
X33274000Y-68808600D01*
X33274000Y-68808600D02*
X31343600Y-68808600D01*
X31343600Y-68808600D02*
X29972000Y-67437000D01*
X31242000Y-90805000D02*
X31242000Y-90728800D01*
X31242000Y-90728800D02*
X30022800Y-89509600D01*
X34467800Y-91490800D02*
X33782000Y-90805000D01*
X33782000Y-90805000D02*
X31242000Y-90805000D01*
X49911000Y-96901000D02*
X49910998Y-96900998D01*
X49910998Y-96900998D02*
X34467800Y-96900998D01*
X107721400Y-97053400D02*
X121031002Y-97053400D01*
X107569000Y-96901000D02*
X107721400Y-97053400D01*
X107315000Y-96901000D02*
X107569000Y-96901000D01*
X107315000Y-96520000D02*
X107315000Y-96647000D01*
X107315000Y-96647000D02*
X107569000Y-96901000D01*
X107315000Y-96520000D02*
X107315000Y-96901000D01*
X107315000Y-94487000D02*
X107315000Y-96520000D01*
X88519000Y-96901000D02*
X107061000Y-96901000D01*
X107061000Y-96901000D02*
X107315000Y-96901000D01*
X107315000Y-96647000D02*
X107061000Y-96901000D01*
X88265000Y-96901000D02*
X88519000Y-96901000D01*
X88265000Y-96520000D02*
X88265000Y-96647000D01*
X88265000Y-96647000D02*
X88519000Y-96901000D01*
X88265000Y-96520000D02*
X88265000Y-96901000D01*
X88265000Y-94487000D02*
X88265000Y-96520000D01*
X88265000Y-96901000D02*
X88011000Y-96901000D01*
X88011000Y-96901000D02*
X69469000Y-96901000D01*
X88265000Y-96647000D02*
X88011000Y-96901000D01*
X69469000Y-96901000D02*
X69215000Y-96901000D01*
X69215000Y-96520000D02*
X69215000Y-96647000D01*
X69215000Y-96647000D02*
X69469000Y-96901000D01*
X69215000Y-96520000D02*
X69215000Y-96901000D01*
X69215000Y-94487000D02*
X69215000Y-96520000D01*
X61853004Y-96901000D02*
X68961000Y-96901000D01*
X68961000Y-96901000D02*
X69215000Y-96901000D01*
X69215000Y-96647000D02*
X68961000Y-96901000D01*
X50165000Y-96901000D02*
X50419000Y-96901000D01*
X50419000Y-96901000D02*
X60828996Y-96901000D01*
X50165000Y-96647000D02*
X50419000Y-96901000D01*
X50165000Y-96647000D02*
X50165000Y-96901000D01*
X50165000Y-94487000D02*
X50165000Y-96647000D01*
X50165000Y-96901000D02*
X49911000Y-96901000D01*
X50165000Y-96647000D02*
X49911000Y-96901000D01*
X79121000Y-70752001D02*
X60846001Y-70752001D01*
X60846001Y-70752001D02*
X60325000Y-70231000D01*
X60325000Y-70231000D02*
X60325000Y-68325000D01*
X98438001Y-70752001D02*
X98679000Y-70752001D01*
X98425000Y-70498001D02*
X98679000Y-70752001D01*
X98679000Y-70752001D02*
X117037735Y-70752001D01*
X98425000Y-70485000D02*
X98425000Y-70498001D01*
X98425000Y-70485000D02*
X98425000Y-68325000D01*
X98425000Y-70498001D02*
X98171000Y-70752001D01*
X98425000Y-70739000D02*
X98425000Y-70485000D01*
X98438001Y-70752001D02*
X98171000Y-70752001D01*
X98171000Y-70752001D02*
X79629000Y-70752001D01*
X79629000Y-70752001D02*
X79388001Y-70752001D01*
X79375000Y-70485000D02*
X79375000Y-70498001D01*
X79375000Y-70498001D02*
X79629000Y-70752001D01*
X79375000Y-70485000D02*
X79375000Y-68325000D01*
X79375000Y-70739000D02*
X79375000Y-70485000D01*
X79388001Y-70752001D02*
X79121000Y-70752001D01*
X79375000Y-70498001D02*
X79121000Y-70752001D01*
X60828996Y-96901000D02*
X60841998Y-96914002D01*
X60841998Y-96914002D02*
X61840002Y-96914002D01*
X61840002Y-96914002D02*
X61853004Y-96901000D01*
X117050736Y-70739000D02*
X117475000Y-70739000D01*
X117037735Y-70752001D02*
X117050736Y-70739000D01*
X117475000Y-68325000D02*
X117475000Y-70739000D01*
X117475000Y-70752001D02*
X117475000Y-70739000D01*
X79388001Y-70752001D02*
X79375000Y-70739000D01*
X98438001Y-70752001D02*
X98425000Y-70739000D01*
X107442000Y-94360000D02*
X107315000Y-94487000D01*
X69342000Y-94360000D02*
X69215000Y-94487000D01*
X88392000Y-94360000D02*
X88265000Y-94487000D01*
X50292000Y-94360000D02*
X50165000Y-94487000D01*
X79375000Y-77725000D02*
X79375000Y-75946000D01*
X107315000Y-103633000D02*
X107315000Y-101854000D01*
X107442000Y-103760000D02*
X107315000Y-103633000D01*
X98425000Y-77725000D02*
X98425000Y-75996800D01*
X31242000Y-93345000D02*
X37592000Y-93345000D01*
X29972000Y-92075000D02*
X31242000Y-93345000D01*
X37592000Y-99568000D02*
X38227000Y-100203000D01*
X38227000Y-100203000D02*
X49022000Y-100203000D01*
X49022000Y-100203000D02*
X50165000Y-99060000D01*
X79375000Y-73152000D02*
X60325004Y-73152000D01*
X60325004Y-73152000D02*
X60325000Y-73152004D01*
X99187000Y-73152000D02*
X79375000Y-73152000D01*
X99187000Y-73152000D02*
X117475000Y-73152000D01*
X117475000Y-77725000D02*
X117475000Y-75946000D01*
X107315000Y-99060000D02*
X117475002Y-99060000D01*
X88899998Y-99060000D02*
X107315000Y-99060000D01*
X69215000Y-99060000D02*
X88899998Y-99060000D01*
X69215000Y-99060000D02*
X50165000Y-99060000D01*
X50165000Y-103633000D02*
X50165000Y-102235000D01*
X60325000Y-76200000D02*
X60325000Y-77725000D01*
X69215000Y-103633000D02*
X69215000Y-102235000D01*
X88265000Y-103633000D02*
X88265000Y-102235000D01*
X69342000Y-103760000D02*
X69215000Y-103633000D01*
X88392000Y-103760000D02*
X88265000Y-103633000D01*
X50292000Y-103760000D02*
X50165000Y-103633000D01*
X31592807Y-106675199D02*
X31292808Y-106375200D01*
X41275000Y-105537000D02*
X40136801Y-106675199D01*
X43815000Y-104435000D02*
X42713000Y-105537000D01*
X43815000Y-103760000D02*
X43815000Y-104435000D01*
X40136801Y-106675199D02*
X31592807Y-106675199D01*
X42713000Y-105537000D02*
X41275000Y-105537000D01*
X51435000Y-97917000D02*
X34417000Y-97917000D01*
X34417000Y-97917000D02*
X33147000Y-99187000D01*
X33147000Y-99187000D02*
X32027000Y-99187000D01*
X32027000Y-99187000D02*
X30000000Y-97160000D01*
X120015000Y-97917000D02*
X108585000Y-97917000D01*
X108585000Y-94487000D02*
X108585000Y-95885000D01*
X118745000Y-68325000D02*
X118745000Y-71882000D01*
X118745000Y-71882000D02*
X99695000Y-71882000D01*
X80645000Y-71882000D02*
X61595000Y-71882000D01*
X99695000Y-71882000D02*
X80645000Y-71882000D01*
X61595000Y-69850000D02*
X61595000Y-68325000D01*
X80645000Y-69850000D02*
X80645000Y-68325000D01*
X99695000Y-69850000D02*
X99695000Y-68325000D01*
X51435000Y-94487000D02*
X51435000Y-95885000D01*
X70485000Y-94487000D02*
X70485000Y-95885000D01*
X89535000Y-94487000D02*
X89535000Y-95885000D01*
X108712000Y-94360000D02*
X108585000Y-94487000D01*
X89535000Y-97917000D02*
X108585000Y-97917000D01*
X70612000Y-94360000D02*
X70485000Y-94487000D01*
X51435000Y-97917000D02*
X70485000Y-97917000D01*
X89535000Y-97917000D02*
X70485000Y-97917000D01*
X89662000Y-94360000D02*
X89535000Y-94487000D01*
X51562000Y-94360000D02*
X51435000Y-94487000D01*
X26670000Y-77216000D02*
X26670000Y-93830000D01*
X26670000Y-93830000D02*
X30000000Y-97160000D01*
X28726000Y-75160000D02*
X26670000Y-77216000D01*
X30000000Y-75160000D02*
X28726000Y-75160000D01*
X33782000Y-95885000D02*
X31318200Y-95885000D01*
X31318200Y-95885000D02*
X30022800Y-94589600D01*
X34544000Y-58420000D02*
X34163000Y-58801000D01*
X108839000Y-58420000D02*
X34544000Y-58420000D01*
X110023000Y-66548000D02*
X109684736Y-66548000D01*
X111125000Y-67650000D02*
X110023000Y-66548000D01*
X109684736Y-66548000D02*
X108839000Y-65702264D01*
X108839000Y-65702264D02*
X108839000Y-64135000D01*
X111125000Y-68325000D02*
X111125000Y-67650000D01*
X43815000Y-96012000D02*
X43815000Y-94360000D01*
X44958000Y-74803000D02*
X43815000Y-75946000D01*
X43815000Y-75946000D02*
X43815000Y-84455000D01*
X52832000Y-74803000D02*
X44958000Y-74803000D01*
X53975000Y-75946000D02*
X52832000Y-74803000D01*
X53975000Y-77725000D02*
X53975000Y-75946000D01*
X62865000Y-103760000D02*
X62865000Y-102108000D01*
X53975000Y-69850000D02*
X53975000Y-68325000D01*
X62484000Y-75438000D02*
X62992000Y-74930000D01*
X62992000Y-74930000D02*
X72263000Y-74930000D01*
X72263000Y-74930000D02*
X73025000Y-75692000D01*
X73025000Y-75692000D02*
X73025000Y-77725000D01*
X60960000Y-92710000D02*
X60071000Y-91821000D01*
X60071000Y-91821000D02*
X60071000Y-91694000D01*
X62440000Y-92710000D02*
X60960000Y-92710000D01*
X62865000Y-94360000D02*
X62865000Y-93135000D01*
X62865000Y-93135000D02*
X62440000Y-92710000D01*
X73025000Y-68325000D02*
X73025000Y-69849998D01*
X73025000Y-69849998D02*
X73025002Y-69850000D01*
X81915000Y-103760000D02*
X81915000Y-101981000D01*
X80686000Y-92456000D02*
X79502000Y-92456000D01*
X81915000Y-74930000D02*
X91313000Y-74930000D01*
X91313000Y-74930000D02*
X92075000Y-75692000D01*
X92075000Y-75692000D02*
X92075000Y-77725000D01*
X81915000Y-94360000D02*
X81915000Y-93685000D01*
X81915000Y-93685000D02*
X80686000Y-92456000D01*
X100838000Y-102108000D02*
X100838000Y-103633000D01*
X100838000Y-103633000D02*
X100965000Y-103760000D01*
X92075000Y-68325000D02*
X92075000Y-69977000D01*
X110525002Y-74930000D02*
X100838000Y-74930000D01*
X111125000Y-77725000D02*
X111125000Y-75529998D01*
X100965000Y-74930000D02*
X100838000Y-74930000D01*
X111125000Y-75529998D02*
X110525002Y-74930000D01*
X100413000Y-92583000D02*
X98806000Y-92583000D01*
X98806000Y-92583000D02*
X98298000Y-92075000D01*
X100965000Y-94360000D02*
X100965000Y-93135000D01*
X100965000Y-93135000D02*
X100413000Y-92583000D01*
X110490000Y-55244996D02*
X110489996Y-55245000D01*
X110490000Y-53595000D02*
X110490000Y-55244996D01*
X113345000Y-62865000D02*
X113345000Y-62418000D01*
X113345000Y-62418000D02*
X112522000Y-61595000D01*
X113345000Y-62865000D02*
X113345000Y-65340000D01*
X113345000Y-65340000D02*
X113410000Y-65405000D01*
X113665000Y-68325000D02*
X113665000Y-65660000D01*
X113665000Y-65660000D02*
X113410000Y-65405000D01*
X118425000Y-62865000D02*
X118425000Y-56576000D01*
X118425000Y-56576000D02*
X117348000Y-55499000D01*
X117348000Y-55499000D02*
X112268000Y-55499000D01*
X112268000Y-55499000D02*
X111760000Y-54991000D01*
X111760000Y-54991000D02*
X111760000Y-53595000D01*
X116205000Y-68325000D02*
X116205000Y-66802000D01*
X116205000Y-66802000D02*
X117602000Y-65405000D01*
X117602000Y-65405000D02*
X118490000Y-65405000D01*
X118425000Y-62865000D02*
X118425000Y-65340000D01*
X118425000Y-65340000D02*
X118490000Y-65405000D01*
X107950000Y-53595000D02*
X107950000Y-56261000D01*
X107950000Y-56261000D02*
X109474000Y-57785000D01*
X109474000Y-57785000D02*
X114427000Y-57785000D01*
X114935000Y-75946004D02*
X114934996Y-75946000D01*
X114935000Y-77725000D02*
X114935000Y-75946004D01*
X115255000Y-83185000D02*
X115255000Y-80710000D01*
X115255000Y-80710000D02*
X115190000Y-80645000D01*
X114935000Y-77725000D02*
X114935000Y-80390000D01*
X114935000Y-80390000D02*
X115190000Y-80645000D01*
X109220000Y-55118002D02*
X110871000Y-56769002D01*
X109220000Y-53595000D02*
X109220000Y-55118002D01*
X112395000Y-77725000D02*
X112395000Y-75946000D01*
X110175000Y-83185000D02*
X110175000Y-80710000D01*
X110175000Y-80710000D02*
X110110000Y-80645000D01*
X112395000Y-77725000D02*
X112395000Y-79375000D01*
X112395000Y-79375000D02*
X111125000Y-80645000D01*
X111125000Y-80645000D02*
X110110000Y-80645000D01*
X103185000Y-87813010D02*
X103495010Y-87503000D01*
X103185000Y-88900000D02*
X103185000Y-87813010D01*
X105410000Y-53595000D02*
X105410000Y-52197000D01*
X105410000Y-52197000D02*
X104902000Y-51689000D01*
X104902000Y-51689000D02*
X103505010Y-51689000D01*
X103185000Y-88900000D02*
X103185000Y-91375000D01*
X103185000Y-91375000D02*
X103250000Y-91440000D01*
X103505000Y-94360000D02*
X103505000Y-91695000D01*
X103505000Y-91695000D02*
X103250000Y-91440000D01*
X106680000Y-57150000D02*
X107315000Y-57785000D01*
X106680000Y-53595000D02*
X106680000Y-57150000D01*
X108265000Y-88900000D02*
X108265000Y-87183000D01*
X108265000Y-87183000D02*
X108204000Y-87122000D01*
X108265000Y-88900000D02*
X108265000Y-91375000D01*
X108265000Y-91375000D02*
X108330000Y-91440000D01*
X106045000Y-94360000D02*
X106045000Y-92837000D01*
X106045000Y-92837000D02*
X107442000Y-91440000D01*
X107442000Y-91440000D02*
X108330000Y-91440000D01*
X104775000Y-103760000D02*
X104775000Y-101473000D01*
X104775000Y-101473000D02*
X104267000Y-100965000D01*
X104267000Y-100965000D02*
X102235000Y-100965000D01*
X102870000Y-55244996D02*
X102870004Y-55245000D01*
X102870000Y-53595000D02*
X102870000Y-55244996D01*
X105095000Y-109220000D02*
X105095000Y-106745000D01*
X105095000Y-106745000D02*
X105030000Y-106680000D01*
X104775000Y-103760000D02*
X104775000Y-106425000D01*
X104775000Y-106425000D02*
X105030000Y-106680000D01*
X102235000Y-103760000D02*
X102235000Y-102108006D01*
X104140000Y-53595000D02*
X104140000Y-55245000D01*
X99950000Y-106680000D02*
X99950000Y-109155000D01*
X99950000Y-109155000D02*
X100015000Y-109220000D01*
X102235000Y-103760000D02*
X102235000Y-105283000D01*
X102235000Y-105283000D02*
X100838000Y-106680000D01*
X100838000Y-106680000D02*
X99950000Y-106680000D01*
X100015000Y-106745000D02*
X99950000Y-106680000D01*
X95250000Y-56007000D02*
X90170000Y-56007000D01*
X90170000Y-56007000D02*
X89535000Y-55372000D01*
X89535000Y-55372000D02*
X89535000Y-53595000D01*
X94295000Y-62865000D02*
X94295000Y-62341000D01*
X94295000Y-62341000D02*
X95168000Y-61468000D01*
X94295000Y-62865000D02*
X94295000Y-65340000D01*
X94295000Y-65340000D02*
X94360000Y-65405000D01*
X94615000Y-68325000D02*
X94615000Y-65660000D01*
X94615000Y-65660000D02*
X94360000Y-65405000D01*
X90805000Y-53595000D02*
X90805000Y-54737000D01*
X90805000Y-54737000D02*
X91186000Y-55118000D01*
X91186000Y-55118000D02*
X99441000Y-55118000D01*
X99375000Y-62865000D02*
X99375000Y-61534000D01*
X99375000Y-61534000D02*
X99441000Y-61468000D01*
X99375000Y-62865000D02*
X99375000Y-65340000D01*
X99375000Y-65340000D02*
X99440000Y-65405000D01*
X97155000Y-68325000D02*
X97155000Y-66675000D01*
X97155000Y-66675000D02*
X98425000Y-65405000D01*
X98425000Y-65405000D02*
X99440000Y-65405000D01*
X86995000Y-55500410D02*
X86995000Y-53595000D01*
X95885000Y-57785000D02*
X89279590Y-57785000D01*
X89279590Y-57785000D02*
X86995000Y-55500410D01*
X95885000Y-77725000D02*
X95885000Y-75946000D01*
X95885000Y-77725000D02*
X95885000Y-80390000D01*
X95885000Y-80390000D02*
X96140000Y-80645000D01*
X96205000Y-83185000D02*
X96205000Y-80710000D01*
X96205000Y-80710000D02*
X96140000Y-80645000D01*
X93345000Y-56642000D02*
X89408000Y-56642000D01*
X89408000Y-56642000D02*
X88265000Y-55499000D01*
X88265000Y-55499000D02*
X88265000Y-53595000D01*
X93345000Y-77725000D02*
X93345000Y-75946000D01*
X93345000Y-77725000D02*
X93345000Y-79248000D01*
X93345000Y-79248000D02*
X91948000Y-80645000D01*
X91948000Y-80645000D02*
X91060000Y-80645000D01*
X91125000Y-83185000D02*
X91125000Y-80710000D01*
X91125000Y-80710000D02*
X91060000Y-80645000D01*
X84135000Y-88900000D02*
X84135000Y-87355010D01*
X84135000Y-87355010D02*
X84028990Y-87249000D01*
X84455000Y-53595000D02*
X84455000Y-55372000D01*
X84135000Y-88900000D02*
X84135000Y-91375000D01*
X84135000Y-91375000D02*
X84200000Y-91440000D01*
X84455000Y-94360000D02*
X84455000Y-91695000D01*
X84455000Y-91695000D02*
X84200000Y-91440000D01*
X84262000Y-91375000D02*
X84327000Y-91440000D01*
X84582000Y-91695000D02*
X84327000Y-91440000D01*
X85725000Y-55245000D02*
X88265000Y-57785000D01*
X85725000Y-53595000D02*
X85725000Y-55245000D01*
X89215000Y-88900000D02*
X89215000Y-87310000D01*
X89215000Y-87310000D02*
X89154000Y-87249000D01*
X89215000Y-88900000D02*
X89215000Y-91375000D01*
X89215000Y-91375000D02*
X89280000Y-91440000D01*
X86995000Y-94360000D02*
X86995000Y-92710000D01*
X86995000Y-92710000D02*
X88265000Y-91440000D01*
X88265000Y-91440000D02*
X89280000Y-91440000D01*
X89342000Y-91375000D02*
X89407000Y-91440000D01*
X81915000Y-54845000D02*
X84855000Y-57785000D01*
X84855000Y-57785000D02*
X85471000Y-57785000D01*
X81915000Y-53595000D02*
X81915000Y-54845000D01*
X85725000Y-103760000D02*
X85725000Y-101727000D01*
X86045000Y-109220000D02*
X86045000Y-106745000D01*
X86045000Y-106745000D02*
X85980000Y-106680000D01*
X85725000Y-103760000D02*
X85725000Y-106425000D01*
X85725000Y-106425000D02*
X85980000Y-106680000D01*
X83185000Y-55199990D02*
X83484010Y-55499000D01*
X83185000Y-53595000D02*
X83185000Y-55199990D01*
X83185000Y-103760000D02*
X83185000Y-101600000D01*
X80965000Y-109220000D02*
X80965000Y-106745000D01*
X80965000Y-106745000D02*
X80900000Y-106680000D01*
X83185000Y-103760000D02*
X83185000Y-105537000D01*
X83185000Y-105537000D02*
X82042000Y-106680000D01*
X82042000Y-106680000D02*
X80900000Y-106680000D01*
X68580000Y-53595000D02*
X68580000Y-55118000D01*
X68580000Y-55118000D02*
X70231000Y-56769000D01*
X70231000Y-56769000D02*
X75692000Y-56769000D01*
X75560000Y-61518010D02*
X75610010Y-61468000D01*
X75560000Y-62865000D02*
X75560000Y-61518010D01*
X75560000Y-62865000D02*
X75560000Y-65155000D01*
X75560000Y-65155000D02*
X75310000Y-65405000D01*
X75565000Y-68325000D02*
X75565000Y-65660000D01*
X75565000Y-65660000D02*
X75310000Y-65405000D01*
X69850000Y-53595000D02*
X69850000Y-54991000D01*
X69850000Y-54991000D02*
X70738998Y-55879998D01*
X70738998Y-55879998D02*
X80391000Y-55879998D01*
X80325000Y-62865000D02*
X80325000Y-61457800D01*
X80325000Y-61457800D02*
X80365600Y-61417200D01*
X80325000Y-62865000D02*
X80325000Y-65340000D01*
X80325000Y-65340000D02*
X80390000Y-65405000D01*
X78105000Y-68325000D02*
X78105000Y-66802000D01*
X78105000Y-66802000D02*
X79502000Y-65405000D01*
X79502000Y-65405000D02*
X80390000Y-65405000D01*
X68961000Y-57785000D02*
X76581000Y-57785000D01*
X66040000Y-54864000D02*
X68961000Y-57785000D01*
X66040000Y-53595000D02*
X66040000Y-54864000D01*
X76835000Y-77725000D02*
X76835000Y-75946000D01*
X77155000Y-83185000D02*
X77155000Y-80710000D01*
X77155000Y-80710000D02*
X77090000Y-80645000D01*
X76835000Y-77725000D02*
X76835000Y-80390000D01*
X76835000Y-80390000D02*
X77090000Y-80645000D01*
X67310000Y-52345000D02*
X67711996Y-51943004D01*
X67310000Y-53595000D02*
X67310000Y-52345000D01*
X67711996Y-51943004D02*
X67818000Y-51943004D01*
X74295000Y-75311000D02*
X73914000Y-74930000D01*
X74295000Y-77725000D02*
X74295000Y-75311000D01*
X74295000Y-77725000D02*
X74295000Y-79375000D01*
X74295000Y-79375000D02*
X73025000Y-80645000D01*
X73025000Y-80645000D02*
X72010000Y-80645000D01*
X72075000Y-83185000D02*
X72075000Y-80710000D01*
X72075000Y-80710000D02*
X72010000Y-80645000D01*
X65085000Y-87106010D02*
X65196010Y-86995000D01*
X65085000Y-88900000D02*
X65085000Y-87106010D01*
X63500000Y-55880004D02*
X64134996Y-56515000D01*
X63500000Y-53595000D02*
X63500000Y-55880004D01*
X63550800Y-53772800D02*
X63500000Y-53722000D01*
X65150000Y-91440000D02*
X65150000Y-88965000D01*
X65150000Y-88965000D02*
X65085000Y-88900000D01*
X65405000Y-94360000D02*
X65405000Y-91695000D01*
X65405000Y-91695000D02*
X65150000Y-91440000D01*
X64770000Y-53595000D02*
X64770000Y-55245000D01*
X64770000Y-55245000D02*
X67310000Y-57785000D01*
X67310000Y-57785000D02*
X67945000Y-57785000D01*
X70165000Y-88900000D02*
X70165000Y-87945000D01*
X70165000Y-87945000D02*
X69342000Y-87122000D01*
X64820800Y-53772800D02*
X64770000Y-53722000D01*
X70230000Y-91440000D02*
X70230000Y-88965000D01*
X70230000Y-88965000D02*
X70165000Y-88900000D01*
X67945000Y-94360000D02*
X67945000Y-92837000D01*
X67945000Y-92837000D02*
X69342000Y-91440000D01*
X69342000Y-91440000D02*
X70230000Y-91440000D01*
X66675000Y-103760000D02*
X66675000Y-102108000D01*
X60960000Y-53595000D02*
X60960000Y-51943000D01*
X66930000Y-106680000D02*
X66930000Y-109155000D01*
X66930000Y-109155000D02*
X66995000Y-109220000D01*
X66995000Y-106745000D02*
X66930000Y-106680000D01*
X66675000Y-103760000D02*
X66675000Y-106425000D01*
X66675000Y-106425000D02*
X66930000Y-106680000D01*
X66802000Y-106425000D02*
X67057000Y-106680000D01*
X64135000Y-103760000D02*
X64135000Y-105410000D01*
X64135000Y-105410000D02*
X62865000Y-106680000D01*
X62865000Y-106680000D02*
X61850000Y-106680000D01*
X64135000Y-103760000D02*
X64135000Y-102108000D01*
X62230000Y-55879998D02*
X62229998Y-55880000D01*
X62230000Y-53595000D02*
X62230000Y-55879998D01*
X61850000Y-106680000D02*
X61850000Y-109155000D01*
X61850000Y-109155000D02*
X61915000Y-109220000D01*
X61915000Y-106745000D02*
X61850000Y-106680000D01*
X50353000Y-57150000D02*
X56134000Y-57150000D01*
X47625000Y-54422000D02*
X50353000Y-57150000D01*
X47625000Y-53722000D02*
X47625000Y-54422000D01*
X56195000Y-61529004D02*
X56133996Y-61468000D01*
X56195000Y-62865000D02*
X56195000Y-61529004D01*
X56515000Y-68325000D02*
X56515000Y-65660000D01*
X56515000Y-65660000D02*
X56260000Y-65405000D01*
X56195000Y-62865000D02*
X56195000Y-65340000D01*
X56195000Y-65340000D02*
X56260000Y-65405000D01*
X46355000Y-53722000D02*
X46355000Y-57150000D01*
X55245000Y-74621680D02*
X55208660Y-74585340D01*
X55245000Y-77725000D02*
X55245000Y-74621680D01*
X53025000Y-83185000D02*
X53025000Y-80710000D01*
X53025000Y-80710000D02*
X52960000Y-80645000D01*
X55245000Y-77725000D02*
X55245000Y-79248000D01*
X55245000Y-79248000D02*
X53848000Y-80645000D01*
X53848000Y-80645000D02*
X52960000Y-80645000D01*
X46035000Y-87157600D02*
X45999400Y-87122000D01*
X46035000Y-88900000D02*
X46035000Y-87157600D01*
X42545000Y-53722000D02*
X42545000Y-55880000D01*
X46355000Y-94360000D02*
X46355000Y-91695000D01*
X46355000Y-91695000D02*
X46100000Y-91440000D01*
X46035000Y-88900000D02*
X46035000Y-91375000D01*
X46035000Y-91375000D02*
X46100000Y-91440000D01*
X46482000Y-91695000D02*
X46227000Y-91440000D01*
X51115000Y-88900000D02*
X51115000Y-87183000D01*
X51115000Y-87183000D02*
X51104800Y-87172800D01*
X43815000Y-53722000D02*
X43815000Y-57150000D01*
X51115000Y-88900000D02*
X51115000Y-91375000D01*
X51115000Y-91375000D02*
X51180000Y-91440000D01*
X48895000Y-94360000D02*
X48895000Y-92710000D01*
X48895000Y-92710000D02*
X50165000Y-91440000D01*
X50165000Y-91440000D02*
X51180000Y-91440000D01*
X40005000Y-53722000D02*
X40005000Y-55880000D01*
X47625000Y-103760000D02*
X47625000Y-104902000D01*
X47625000Y-104902000D02*
X47625000Y-106425000D01*
X47625000Y-101981000D02*
X47625000Y-104902000D01*
X47880000Y-106680000D02*
X47880000Y-109155000D01*
X47880000Y-109155000D02*
X47945000Y-109220000D01*
X47625000Y-106425000D02*
X47880000Y-106680000D01*
X38100000Y-52578000D02*
X38100000Y-55880000D01*
X38968000Y-51710000D02*
X38100000Y-52578000D01*
X40513000Y-51710000D02*
X38968000Y-51710000D01*
X41275000Y-52472000D02*
X40513000Y-51710000D01*
X41275000Y-53722000D02*
X41275000Y-52472000D01*
X45085000Y-103760000D02*
X45085000Y-101981000D01*
X42800000Y-106680000D02*
X42800000Y-109155000D01*
X42800000Y-109155000D02*
X42865000Y-109220000D01*
X45085000Y-103760000D02*
X45085000Y-105283000D01*
X43688000Y-106680000D02*
X42800000Y-106680000D01*
X45085000Y-105283000D02*
X43688000Y-106680000D01*
X42927000Y-106680000D02*
X42927000Y-106830000D01*
X61275000Y-61529004D02*
X61213996Y-61468000D01*
X61275000Y-62865000D02*
X61275000Y-61529004D01*
X50353000Y-55880000D02*
X59690000Y-55880000D01*
X48895000Y-53722000D02*
X48895000Y-54422000D01*
X48895000Y-54422000D02*
X50353000Y-55880000D01*
X59055000Y-68325000D02*
X59055000Y-66802000D01*
X59055000Y-66802000D02*
X60452000Y-65405000D01*
X60452000Y-65405000D02*
X61340000Y-65405000D01*
X61275000Y-62865000D02*
X61275000Y-65340000D01*
X61275000Y-65340000D02*
X61340000Y-65405000D01*
X45085000Y-53722000D02*
X45085000Y-55880000D01*
X57785000Y-77725000D02*
X57785000Y-76200000D01*
X58105000Y-83185000D02*
X58105000Y-80710000D01*
X58105000Y-80710000D02*
X58040000Y-80645000D01*
X57785000Y-77725000D02*
X57785000Y-80390000D01*
X57785000Y-80390000D02*
X58040000Y-80645000D01*
M02*
