M48
;DRILL file {KiCad 4.0.7} date Tuesday, June 05, 2018 'PMt' 10:12:05 PM
;FORMAT={-:-/ absolute / inch / decimal}
FMAT,2
INCH,TZ
T1C0.024
T2C0.028
T3C0.031
T4C0.035
T5C0.039
T6C0.039
T7C0.039
T8C0.040
T9C0.043
T10C0.067
T11C0.125
%
G90
G05
M72
T1
X1.31Y-1.41
X1.36Y-1.36
X1.36Y-1.46
T2
X3.6544Y-4.0819
X3.6544Y-4.3819
T3
X1.12Y-1.1
X1.12Y-1.4
X1.515Y-1.3
X1.515Y-1.4
X1.515Y-1.5
X1.525Y-1.1
X1.815Y-1.3
X1.815Y-1.4
X1.815Y-1.5
X1.825Y-1.1
X3.4845Y-4.0817
X3.4845Y-4.3817
T4
X4.475Y-4.1114
X4.575Y-4.1114
X4.675Y-4.1114
T5
X1.2Y-3.85
X1.2Y-4.45
X1.3Y-3.85
X1.3Y-4.45
X1.4Y-3.85
X1.4Y-4.45
X1.5Y-3.85
X1.5Y-4.45
X1.6Y-3.85
X1.6Y-4.45
X1.7Y-3.85
X1.7Y-4.45
X1.8Y-3.85
X1.8Y-4.35
X1.8Y-4.45
X1.9Y-3.85
X1.9Y-4.35
X1.9Y-4.45
X2.Y-3.85
X2.Y-4.45
X2.1Y-3.85
X2.1Y-4.45
X2.2Y-3.85
X2.2Y-4.45
X2.3Y-3.85
X2.3Y-4.45
T6
X1.275Y-4.7
X1.375Y-4.7
X1.475Y-4.7
X1.575Y-4.7
X1.675Y-4.7
X1.775Y-4.7
X2.125Y-4.7
X2.225Y-4.7
X2.325Y-4.7
X2.425Y-4.7
X2.4712Y-1.2
X2.4712Y-1.3
X2.525Y-4.7
X2.5713Y-1.2
X2.5713Y-1.3
X2.625Y-4.7
X2.6713Y-1.2
X2.6713Y-1.3
X2.725Y-4.7
X2.7712Y-1.2
X2.7712Y-1.3
X2.825Y-4.7
X2.8712Y-1.2
X2.8712Y-1.3
X2.925Y-4.7
X2.9712Y-1.2
X2.9712Y-1.3
X3.025Y-4.7
X3.0713Y-1.2
X3.0713Y-1.3
X3.1713Y-1.2
X3.1713Y-1.3
X3.2712Y-1.2
X3.2712Y-1.3
X3.3712Y-1.2
X3.3712Y-1.3
X3.4712Y-1.2
X3.4712Y-1.3
X3.5713Y-1.2
X3.5713Y-1.3
X3.65Y-3.925
X3.6713Y-1.2
X3.6713Y-1.3
X3.75Y-3.925
X3.7712Y-1.2
X3.7712Y-1.3
X3.8595Y-4.1317
X3.8595Y-4.2317
X3.8595Y-4.3317
X3.8712Y-1.2
X3.8712Y-1.3
X3.9712Y-1.2
X3.9712Y-1.3
X4.0713Y-1.2
X4.0713Y-1.3
X4.1712Y-1.2
X4.1712Y-1.3
X4.2713Y-1.2
X4.2713Y-1.3
X4.3712Y-1.2
X4.3712Y-1.3
T7
X3.3Y-4.625
X3.3Y-4.725
X4.05Y-4.625
X4.05Y-4.725
T8
X1.27Y-2.84
X1.27Y-2.94
X1.27Y-3.04
X1.27Y-3.14
X1.27Y-3.24
X1.37Y-2.84
X1.37Y-2.94
X1.37Y-3.04
X1.37Y-3.14
X1.37Y-3.24
X2.4712Y-1.65
X2.4712Y-1.75
X2.5713Y-1.65
X2.5713Y-1.75
X2.6713Y-1.65
X2.6713Y-1.75
X2.7712Y-1.65
X2.7712Y-1.75
X2.8712Y-1.65
X2.8712Y-1.75
X2.9712Y-1.65
X2.9712Y-1.75
X3.0713Y-1.65
X3.0713Y-1.75
X3.1713Y-1.65
X3.1713Y-1.75
X3.2712Y-1.65
X3.2712Y-1.75
X3.3712Y-1.65
X3.3712Y-1.75
X3.4712Y-1.65
X3.4712Y-1.75
X3.5713Y-1.65
X3.5713Y-1.75
X3.6713Y-1.65
X3.6713Y-1.75
X3.7712Y-1.65
X3.7712Y-1.75
X3.8712Y-1.65
X3.8712Y-1.75
X3.9712Y-1.65
X3.9712Y-1.75
X4.0713Y-1.65
X4.0713Y-1.75
X4.1712Y-1.65
X4.1712Y-1.75
X4.2713Y-1.65
X4.2713Y-1.75
X4.3712Y-1.65
X4.3712Y-1.75
T9
X4.0845Y-4.0817
X4.0845Y-4.3817
T10
X4.3132Y-4.525
X4.4691Y-4.525
X4.625Y-4.525
X4.7809Y-4.525
T11
X2.1113Y-1.25
X4.7313Y-1.25
T7
X3.6107Y-4.5438G85X3.6894Y-4.5438
G05
X3.6107Y-4.78G85X3.6894Y-4.78
G05
X3.835Y-4.7012G85X3.835Y-4.6225
G05
T0
M30
