  0
SECTION
  2
HEADER
  9
$ANGBASE
  50
0.0
  9
$ANGDIR
  70
  1
  9
$MEASUREMENT
  70
0
  0
ENDSEC
  0
SECTION
  2
TABLES
  0
TABLE
  2
LTYPE
  70
1
  0
LTYPE
  2
CONTINUOUS
  70
0
  3
Solid line
  72
65
  73
0
  40
0.0
  0
ENDTAB
  0
TABLE
  2
STYLE
  70
4
  0
STYLE
  2
KICAD
  70
0
  40
0
  41
1
  42
1
  50
0
  71
0
  3
isocp.shx
  0
STYLE
  2
KICADB
  70
0
  40
0
  41
1
  42
1
  50
0
  71
0
  3
isocp.shx
  0
STYLE
  2
KICADI
  70
0
  40
0
  41
1
  42
1
  50
15
  71
0
  3
isocp.shx
  0
STYLE
  2
KICADBI
  70
0
  40
0
  41
1
  42
1
  50
15
  71
0
  3
isocp.shx
  0
ENDTAB
  0
TABLE
  2
LAYER
  70
30
  0
LAYER
  2
BLACK
  70
0
  62
7
  6
CONTINUOUS
  0
LAYER
  2
GRAY1
  70
0
  62
251
  6
CONTINUOUS
  0
LAYER
  2
GRAY2
  70
0
  62
8
  6
CONTINUOUS
  0
LAYER
  2
GRAY3
  70
0
  62
9
  6
CONTINUOUS
  0
LAYER
  2
WHITE
  70
0
  62
7
  6
CONTINUOUS
  0
LAYER
  2
LYELLOW
  70
0
  62
51
  6
CONTINUOUS
  0
LAYER
  2
BLUE1
  70
0
  62
178
  6
CONTINUOUS
  0
LAYER
  2
GREEN1
  70
0
  62
98
  6
CONTINUOUS
  0
LAYER
  2
CYAN1
  70
0
  62
138
  6
CONTINUOUS
  0
LAYER
  2
RED1
  70
0
  62
18
  6
CONTINUOUS
  0
LAYER
  2
MAGENTA1
  70
0
  62
228
  6
CONTINUOUS
  0
LAYER
  2
BROWN1
  70
0
  62
58
  6
CONTINUOUS
  0
LAYER
  2
BLUE2
  70
0
  62
5
  6
CONTINUOUS
  0
LAYER
  2
GREEN2
  70
0
  62
3
  6
CONTINUOUS
  0
LAYER
  2
CYAN2
  70
0
  62
4
  6
CONTINUOUS
  0
LAYER
  2
RED2
  70
0
  62
1
  6
CONTINUOUS
  0
LAYER
  2
MAGENTA2
  70
0
  62
6
  6
CONTINUOUS
  0
LAYER
  2
BROWN2
  70
0
  62
54
  6
CONTINUOUS
  0
LAYER
  2
BLUE3
  70
0
  62
171
  6
CONTINUOUS
  0
LAYER
  2
GREEN3
  70
0
  62
91
  6
CONTINUOUS
  0
LAYER
  2
CYAN3
  70
0
  62
131
  6
CONTINUOUS
  0
LAYER
  2
RED3
  70
0
  62
11
  6
CONTINUOUS
  0
LAYER
  2
MAGENTA3
  70
0
  62
221
  6
CONTINUOUS
  0
LAYER
  2
YELLOW3
  70
0
  62
2
  6
CONTINUOUS
  0
LAYER
  2
BLUE4
  70
0
  62
5
  6
CONTINUOUS
  0
LAYER
  2
GREEN4
  70
0
  62
3
  6
CONTINUOUS
  0
LAYER
  2
CYAN4
  70
0
  62
4
  6
CONTINUOUS
  0
LAYER
  2
RED4
  70
0
  62
1
  6
CONTINUOUS
  0
LAYER
  2
MAGENTA4
  70
0
  62
6
  6
CONTINUOUS
  0
LAYER
  2
YELLOW4
  70
0
  62
2
  6
CONTINUOUS
  0
ENDTAB
  0
ENDSEC
  0
SECTION
  2
ENTITIES
0
LINE
8
Black
10
109.765
20
-29.0909
11
109.77
21
-29.0909
0
LINE
8
Black
10
109.77
20
-29.0909
11
109.775
21
-29.0927
0
LINE
8
Black
10
109.775
20
-29.0927
11
109.78
21
-29.0936
0
LINE
8
Black
10
109.78
20
-29.0936
11
109.785
21
-29.0962
0
LINE
8
Black
10
109.785
20
-29.0962
11
109.79
21
-29.098
0
LINE
8
Black
10
109.79
20
-29.098
11
109.794
21
-29.1014
0
LINE
8
Black
10
109.794
20
-29.1014
11
109.798
21
-29.104
0
LINE
8
Black
10
109.798
20
-29.104
11
109.802
21
-29.1081
0
LINE
8
Black
10
109.802
20
-29.1081
11
109.806
21
-29.1114
0
LINE
8
Black
10
109.806
20
-29.1114
11
109.808
21
-29.116
0
LINE
8
Black
10
109.808
20
-29.116
11
109.812
21
-29.12
0
LINE
8
Black
10
109.812
20
-29.12
11
109.814
21
-29.1249
0
LINE
8
Black
10
109.814
20
-29.1249
11
109.816
21
-29.1295
0
LINE
8
Black
10
109.816
20
-29.1295
11
109.817
21
-29.1347
0
LINE
8
Black
10
109.817
20
-29.1347
11
109.819
21
-29.1396
0
LINE
8
Black
10
109.819
20
-29.1396
11
109.819
21
-29.1448
0
LINE
8
Black
10
109.819
20
-29.1448
11
109.82
21
-29.15
0
LINE
8
Black
10
109.82
20
-29.15
11
109.82
21
-31.69
0
LINE
8
Black
10
109.82
20
-31.69
11
112.36
21
-31.69
0
LINE
8
Black
10
112.36
20
-31.69
11
112.365
21
-31.6909
0
LINE
8
Black
10
112.365
20
-31.6909
11
112.37
21
-31.6909
0
LINE
8
Black
10
112.37
20
-31.6909
11
112.375
21
-31.6927
0
LINE
8
Black
10
112.375
20
-31.6927
11
112.38
21
-31.6936
0
LINE
8
Black
10
112.38
20
-31.6936
11
112.385
21
-31.6962
0
LINE
8
Black
10
112.385
20
-31.6962
11
112.39
21
-31.698
0
LINE
8
Black
10
112.39
20
-31.698
11
112.394
21
-31.7014
0
LINE
8
Black
10
112.394
20
-31.7014
11
112.398
21
-31.704
0
LINE
8
Black
10
112.398
20
-31.704
11
112.402
21
-31.7081
0
LINE
8
Black
10
112.402
20
-31.7081
11
112.406
21
-31.7114
0
LINE
8
Black
10
112.406
20
-31.7114
11
112.408
21
-31.716
0
LINE
8
Black
10
112.408
20
-31.716
11
112.412
21
-31.72
0
LINE
8
Black
10
112.412
20
-31.72
11
112.414
21
-31.7249
0
LINE
8
Black
10
112.414
20
-31.7249
11
112.416
21
-31.7295
0
LINE
8
Black
10
112.416
20
-31.7295
11
112.417
21
-31.7347
0
LINE
8
Black
10
112.417
20
-31.7347
11
112.419
21
-31.7396
0
LINE
8
Black
10
112.419
20
-31.7396
11
112.419
21
-31.7448
0
LINE
8
Black
10
112.419
20
-31.7448
11
112.42
21
-31.75
0
LINE
8
Black
10
112.42
20
-31.75
11
112.42
21
-34.35
0
LINE
8
Black
10
112.42
20
-34.35
11
112.419
21
-34.3552
0
LINE
8
Black
10
112.419
20
-34.3552
11
112.419
21
-34.3604
0
LINE
8
Black
10
112.419
20
-34.3604
11
112.417
21
-34.3653
0
LINE
8
Black
10
112.417
20
-34.3653
11
112.416
21
-34.3705
0
LINE
8
Black
10
112.416
20
-34.3705
11
112.414
21
-34.3751
0
LINE
8
Black
10
112.414
20
-34.3751
11
112.412
21
-34.38
0
LINE
8
Black
10
112.412
20
-34.38
11
112.408
21
-34.384
0
LINE
8
Black
10
112.408
20
-34.384
11
112.406
21
-34.3886
0
LINE
8
Black
10
112.406
20
-34.3886
11
112.402
21
-34.3919
0
LINE
8
Black
10
112.402
20
-34.3919
11
112.398
21
-34.396
0
LINE
8
Black
10
112.398
20
-34.396
11
112.394
21
-34.3986
0
LINE
8
Black
10
112.394
20
-34.3986
11
112.39
21
-34.402
0
LINE
8
Black
10
112.39
20
-34.402
11
112.385
21
-34.4038
0
LINE
8
Black
10
112.385
20
-34.4038
11
112.38
21
-34.4064
0
LINE
8
Black
10
112.38
20
-34.4064
11
112.375
21
-34.4073
0
LINE
8
Black
10
112.375
20
-34.4073
11
112.37
21
-34.4091
0
LINE
8
Black
10
112.37
20
-34.4091
11
112.365
21
-34.4091
0
LINE
8
Black
10
112.365
20
-34.4091
11
112.36
21
-34.41
0
LINE
8
Black
10
112.36
20
-34.41
11
61.4397
21
-34.41
0
LINE
8
Black
10
61.4397
20
-34.41
11
61.4346
21
-34.4091
0
LINE
8
Black
10
61.4346
20
-34.4091
11
61.4293
21
-34.4091
0
LINE
8
Black
10
61.4293
20
-34.4091
11
61.4244
21
-34.4073
0
LINE
8
Black
10
61.4244
20
-34.4073
11
61.4192
21
-34.4064
0
LINE
8
Black
10
61.4192
20
-34.4064
11
61.4147
21
-34.4038
0
LINE
8
Black
10
61.4147
20
-34.4038
11
61.4097
21
-34.402
0
LINE
8
Black
10
61.4097
20
-34.402
11
61.4057
21
-34.3986
0
LINE
8
Black
10
61.4057
20
-34.3986
11
61.4012
21
-34.396
0
LINE
8
Black
10
61.4012
20
-34.396
11
61.3978
21
-34.3919
0
LINE
8
Black
10
61.3978
20
-34.3919
11
61.3938
21
-34.3886
0
LINE
8
Black
10
61.3938
20
-34.3886
11
61.3912
21
-34.384
0
LINE
8
Black
10
61.3912
20
-34.384
11
61.3878
21
-34.38
0
LINE
8
Black
10
61.3878
20
-34.38
11
61.386
21
-34.3751
0
LINE
8
Black
10
61.386
20
-34.3751
11
61.3834
21
-34.3705
0
LINE
8
Black
10
61.3834
20
-34.3705
11
61.3825
21
-34.3653
0
LINE
8
Black
10
61.3825
20
-34.3653
11
61.3807
21
-34.3604
0
LINE
8
Black
10
61.3807
20
-34.3604
11
61.3807
21
-34.3552
0
LINE
8
Black
10
61.3807
20
-34.3552
11
61.3797
21
-34.35
0
LINE
8
Black
10
61.3797
20
-34.35
11
61.3797
21
-29.15
0
LINE
8
Black
10
61.3797
20
-29.15
11
61.3807
21
-29.1448
0
LINE
8
Black
10
61.3807
20
-29.1448
11
61.3807
21
-29.1396
0
LINE
8
Black
10
61.3807
20
-29.1396
11
61.3825
21
-29.1347
0
LINE
8
Black
10
61.3825
20
-29.1347
11
61.3834
21
-29.1295
0
LINE
8
Black
10
61.3834
20
-29.1295
11
61.386
21
-29.1249
0
LINE
8
Black
10
61.386
20
-29.1249
11
61.3878
21
-29.12
0
LINE
8
Black
10
61.3878
20
-29.12
11
61.3912
21
-29.116
0
LINE
8
Black
10
61.3912
20
-29.116
11
61.3938
21
-29.1114
0
LINE
8
Black
10
61.3938
20
-29.1114
11
61.3978
21
-29.1081
0
LINE
8
Black
10
61.3978
20
-29.1081
11
61.4012
21
-29.104
0
LINE
8
Black
10
61.4012
20
-29.104
11
61.4057
21
-29.1014
0
LINE
8
Black
10
61.4057
20
-29.1014
11
61.4097
21
-29.098
0
LINE
8
Black
10
61.4097
20
-29.098
11
61.4147
21
-29.0962
0
LINE
8
Black
10
61.4147
20
-29.0962
11
61.4192
21
-29.0936
0
LINE
8
Black
10
61.4192
20
-29.0936
11
61.4244
21
-29.0927
0
LINE
8
Black
10
61.4244
20
-29.0927
11
61.4293
21
-29.0909
0
LINE
8
Black
10
61.4293
20
-29.0909
11
61.4346
21
-29.0909
0
LINE
8
Black
10
61.4346
20
-29.0909
11
61.4397
21
-29.09
0
LINE
8
Black
10
61.4397
20
-29.09
11
109.76
21
-29.09
0
LINE
8
Black
10
109.76
20
-29.09
11
109.765
21
-29.0909
0
LINE
8
Black
10
61.4997
20
-29.21
11
61.4997
21
-34.29
0
LINE
8
Black
10
61.4997
20
-34.29
11
112.3
21
-34.29
0
LINE
8
Black
10
112.3
20
-34.29
11
112.3
21
-31.81
0
LINE
8
Black
10
112.3
20
-31.81
11
109.76
21
-31.81
0
LINE
8
Black
10
109.76
20
-31.81
11
109.755
21
-31.8091
0
LINE
8
Black
10
109.755
20
-31.8091
11
109.749
21
-31.8091
0
LINE
8
Black
10
109.749
20
-31.8091
11
109.744
21
-31.8073
0
LINE
8
Black
10
109.744
20
-31.8073
11
109.739
21
-31.8064
0
LINE
8
Black
10
109.739
20
-31.8064
11
109.735
21
-31.8038
0
LINE
8
Black
10
109.735
20
-31.8038
11
109.73
21
-31.802
0
LINE
8
Black
10
109.73
20
-31.802
11
109.726
21
-31.7986
0
LINE
8
Black
10
109.726
20
-31.7986
11
109.721
21
-31.796
0
LINE
8
Black
10
109.721
20
-31.796
11
109.718
21
-31.7919
0
LINE
8
Black
10
109.718
20
-31.7919
11
109.714
21
-31.7886
0
LINE
8
Black
10
109.714
20
-31.7886
11
109.711
21
-31.784
0
LINE
8
Black
10
109.711
20
-31.784
11
109.708
21
-31.78
0
LINE
8
Black
10
109.708
20
-31.78
11
109.706
21
-31.7751
0
LINE
8
Black
10
109.706
20
-31.7751
11
109.703
21
-31.7705
0
LINE
8
Black
10
109.703
20
-31.7705
11
109.702
21
-31.7653
0
LINE
8
Black
10
109.702
20
-31.7653
11
109.701
21
-31.7604
0
LINE
8
Black
10
109.701
20
-31.7604
11
109.701
21
-31.7552
0
LINE
8
Black
10
109.701
20
-31.7552
11
109.7
21
-31.75
0
LINE
8
Black
10
109.7
20
-31.75
11
109.7
21
-29.21
0
LINE
8
Black
10
109.7
20
-29.21
11
61.4997
21
-29.21
0
LINE
8
Black
10
113.119
20
-31.7733
11
113.143
21
-31.785
0
LINE
8
Black
10
113.143
20
-31.785
11
113.16
21
-31.8039
0
LINE
8
Black
10
113.16
20
-31.8039
11
113.171
21
-31.8278
0
LINE
8
Black
10
113.171
20
-31.8278
11
113.172
21
-31.8538
0
LINE
8
Black
10
113.172
20
-31.8538
11
113.165
21
-31.8788
0
LINE
8
Black
10
113.165
20
-31.8788
11
113.117
21
-31.974
0
LINE
8
Black
10
113.117
20
-31.974
11
113.11
21
-31.9837
0
LINE
8
Black
10
113.11
20
-31.9837
11
113.103
21
-31.9935
0
LINE
8
Black
10
113.103
20
-31.9935
11
113.041
21
-32.056
0
LINE
8
Black
10
113.041
20
-32.056
11
113.737
21
-32.056
0
LINE
8
Black
10
113.737
20
-32.056
11
113.737
21
-31.8452
0
LINE
8
Black
10
113.737
20
-31.8452
11
113.742
21
-31.8196
0
LINE
8
Black
10
113.742
20
-31.8196
11
113.755
21
-31.797
0
LINE
8
Black
10
113.755
20
-31.797
11
113.775
21
-31.7803
0
LINE
8
Black
10
113.775
20
-31.7803
11
113.799
21
-31.7714
0
LINE
8
Black
10
113.799
20
-31.7714
11
113.825
21
-31.7714
0
LINE
8
Black
10
113.825
20
-31.7714
11
113.85
21
-31.7803
0
LINE
8
Black
10
113.85
20
-31.7803
11
113.87
21
-31.797
0
LINE
8
Black
10
113.87
20
-31.797
11
113.883
21
-31.8196
0
LINE
8
Black
10
113.883
20
-31.8196
11
113.887
21
-31.8452
0
LINE
8
Black
10
113.887
20
-31.8452
11
113.887
21
-32.4167
0
LINE
8
Black
10
113.887
20
-32.4167
11
113.883
21
-32.4423
0
LINE
8
Black
10
113.883
20
-32.4423
11
113.87
21
-32.4649
0
LINE
8
Black
10
113.87
20
-32.4649
11
113.85
21
-32.4816
0
LINE
8
Black
10
113.85
20
-32.4816
11
113.825
21
-32.4905
0
LINE
8
Black
10
113.825
20
-32.4905
11
113.799
21
-32.4905
0
LINE
8
Black
10
113.799
20
-32.4905
11
113.775
21
-32.4816
0
LINE
8
Black
10
113.775
20
-32.4816
11
113.755
21
-32.4649
0
LINE
8
Black
10
113.755
20
-32.4649
11
113.742
21
-32.4423
0
LINE
8
Black
10
113.742
20
-32.4423
11
113.737
21
-32.4167
0
LINE
8
Black
10
113.737
20
-32.4167
11
113.737
21
-32.206
0
LINE
8
Black
10
113.737
20
-32.206
11
112.812
21
-32.206
0
LINE
8
Black
10
112.812
20
-32.206
11
112.808
21
-32.2052
0
LINE
8
Black
10
112.808
20
-32.2052
11
112.804
21
-32.2055
0
LINE
8
Black
10
112.804
20
-32.2055
11
112.795
21
-32.203
0
LINE
8
Black
10
112.795
20
-32.203
11
112.786
21
-32.2014
0
LINE
8
Black
10
112.786
20
-32.2014
11
112.783
21
-32.1993
0
LINE
8
Black
10
112.783
20
-32.1993
11
112.779
21
-32.1982
0
LINE
8
Black
10
112.779
20
-32.1982
11
112.772
21
-32.1929
0
LINE
8
Black
10
112.772
20
-32.1929
11
112.764
21
-32.1884
0
LINE
8
Black
10
112.764
20
-32.1884
11
112.761
21
-32.1852
0
LINE
8
Black
10
112.761
20
-32.1852
11
112.758
21
-32.1828
0
LINE
8
Black
10
112.758
20
-32.1828
11
112.753
21
-32.1753
0
LINE
8
Black
10
112.753
20
-32.1753
11
112.747
21
-32.1685
0
LINE
8
Black
10
112.747
20
-32.1685
11
112.746
21
-32.1645
0
LINE
8
Black
10
112.746
20
-32.1645
11
112.743
21
-32.1611
0
LINE
8
Black
10
112.743
20
-32.1611
11
112.741
21
-32.1524
0
LINE
8
Black
10
112.741
20
-32.1524
11
112.738
21
-32.144
0
LINE
8
Black
10
112.738
20
-32.144
11
112.738
21
-32.1398
0
LINE
8
Black
10
112.738
20
-32.1398
11
112.737
21
-32.1358
0
LINE
8
Black
10
112.737
20
-32.1358
11
112.738
21
-32.1269
0
LINE
8
Black
10
112.738
20
-32.1269
11
112.738
21
-32.1179
0
LINE
8
Black
10
112.738
20
-32.1179
11
112.74
21
-32.114
0
LINE
8
Black
10
112.74
20
-32.114
11
112.74
21
-32.1099
0
LINE
8
Black
10
112.74
20
-32.1099
11
112.744
21
-32.1019
0
LINE
8
Black
10
112.744
20
-32.1019
11
112.747
21
-32.0935
0
LINE
8
Black
10
112.747
20
-32.0935
11
112.75
21
-32.0903
0
LINE
8
Black
10
112.75
20
-32.0903
11
112.752
21
-32.0865
0
LINE
8
Black
10
112.752
20
-32.0865
11
112.758
21
-32.0804
0
LINE
8
Black
10
112.758
20
-32.0804
11
112.764
21
-32.0735
0
LINE
8
Black
10
112.764
20
-32.0735
11
112.768
21
-32.0714
0
LINE
8
Black
10
112.768
20
-32.0714
11
112.771
21
-32.0685
0
LINE
8
Black
10
112.771
20
-32.0685
11
112.907
21
-31.9774
0
LINE
8
Black
10
112.907
20
-31.9774
11
112.989
21
-31.896
0
LINE
8
Black
10
112.989
20
-31.896
11
113.031
21
-31.8117
0
LINE
8
Black
10
113.031
20
-31.8117
11
113.046
21
-31.7908
0
LINE
8
Black
10
113.046
20
-31.7908
11
113.068
21
-31.7764
0
LINE
8
Black
10
113.068
20
-31.7764
11
113.093
21
-31.7704
0
LINE
8
Black
10
113.093
20
-31.7704
11
113.119
21
-31.7733
0
LINE
8
Black
10
113.85
20
-30.9708
11
113.87
21
-30.9875
0
LINE
8
Black
10
113.87
20
-30.9875
11
113.883
21
-31.0101
0
LINE
8
Black
10
113.883
20
-31.0101
11
113.887
21
-31.0357
0
LINE
8
Black
10
113.887
20
-31.0357
11
113.887
21
-31.131
0
LINE
8
Black
10
113.887
20
-31.131
11
113.885
21
-31.1428
0
LINE
8
Black
10
113.885
20
-31.1428
11
113.883
21
-31.1547
0
LINE
8
Black
10
113.883
20
-31.1547
11
113.836
21
-31.2975
0
LINE
8
Black
10
113.836
20
-31.2975
11
113.834
21
-31.3013
0
LINE
8
Black
10
113.834
20
-31.3013
11
113.832
21
-31.3055
0
LINE
8
Black
10
113.832
20
-31.3055
11
113.827
21
-31.3127
0
LINE
8
Black
10
113.827
20
-31.3127
11
113.823
21
-31.3204
0
LINE
8
Black
10
113.823
20
-31.3204
11
113.82
21
-31.3233
0
LINE
8
Black
10
113.82
20
-31.3233
11
113.818
21
-31.3268
0
LINE
8
Black
10
113.818
20
-31.3268
11
113.722
21
-31.4221
0
LINE
8
Black
10
113.722
20
-31.4221
11
113.719
21
-31.4246
0
LINE
8
Black
10
113.719
20
-31.4246
11
113.716
21
-31.4278
0
LINE
8
Black
10
113.716
20
-31.4278
11
113.708
21
-31.432
0
LINE
8
Black
10
113.708
20
-31.432
11
113.701
21
-31.437
0
LINE
8
Black
10
113.701
20
-31.437
11
113.697
21
-31.4381
0
LINE
8
Black
10
113.697
20
-31.4381
11
113.693
21
-31.4402
0
LINE
8
Black
10
113.693
20
-31.4402
11
113.55
21
-31.4878
0
LINE
8
Black
10
113.55
20
-31.4878
11
113.538
21
-31.4896
0
LINE
8
Black
10
113.538
20
-31.4896
11
113.526
21
-31.4917
0
LINE
8
Black
10
113.526
20
-31.4917
11
112.812
21
-31.4917
0
LINE
8
Black
10
112.812
20
-31.4917
11
112.786
21
-31.4871
0
LINE
8
Black
10
112.786
20
-31.4871
11
112.764
21
-31.4741
0
LINE
8
Black
10
112.764
20
-31.4741
11
112.747
21
-31.4542
0
LINE
8
Black
10
112.747
20
-31.4542
11
112.738
21
-31.4297
0
LINE
8
Black
10
112.738
20
-31.4297
11
112.738
21
-31.4036
0
LINE
8
Black
10
112.738
20
-31.4036
11
112.747
21
-31.3792
0
LINE
8
Black
10
112.747
20
-31.3792
11
112.764
21
-31.3592
0
LINE
8
Black
10
112.764
20
-31.3592
11
112.786
21
-31.3462
0
LINE
8
Black
10
112.786
20
-31.3462
11
112.812
21
-31.3417
0
LINE
8
Black
10
112.812
20
-31.3417
11
113.514
21
-31.3417
0
LINE
8
Black
10
113.514
20
-31.3417
11
113.629
21
-31.3035
0
LINE
8
Black
10
113.629
20
-31.3035
11
113.699
21
-31.2333
0
LINE
8
Black
10
113.699
20
-31.2333
11
113.737
21
-31.1188
0
LINE
8
Black
10
113.737
20
-31.1188
11
113.737
21
-31.0357
0
LINE
8
Black
10
113.737
20
-31.0357
11
113.742
21
-31.0101
0
LINE
8
Black
10
113.742
20
-31.0101
11
113.755
21
-30.9875
0
LINE
8
Black
10
113.755
20
-30.9875
11
113.775
21
-30.9708
0
LINE
8
Black
10
113.775
20
-30.9708
11
113.799
21
-30.9619
0
LINE
8
Black
10
113.799
20
-30.9619
11
113.825
21
-30.9619
0
LINE
8
Black
10
113.825
20
-30.9619
11
113.85
21
-30.9708
0
LINE
8
Black
10
112.365
20
-29.0909
11
112.37
21
-29.0909
0
LINE
8
Black
10
112.37
20
-29.0909
11
112.375
21
-29.0927
0
LINE
8
Black
10
112.375
20
-29.0927
11
112.38
21
-29.0936
0
LINE
8
Black
10
112.38
20
-29.0936
11
112.385
21
-29.0962
0
LINE
8
Black
10
112.385
20
-29.0962
11
112.39
21
-29.098
0
LINE
8
Black
10
112.39
20
-29.098
11
112.394
21
-29.1014
0
LINE
8
Black
10
112.394
20
-29.1014
11
112.398
21
-29.104
0
LINE
8
Black
10
112.398
20
-29.104
11
112.402
21
-29.1081
0
LINE
8
Black
10
112.402
20
-29.1081
11
112.406
21
-29.1114
0
LINE
8
Black
10
112.406
20
-29.1114
11
112.408
21
-29.116
0
LINE
8
Black
10
112.408
20
-29.116
11
112.412
21
-29.12
0
LINE
8
Black
10
112.412
20
-29.12
11
112.414
21
-29.1249
0
LINE
8
Black
10
112.414
20
-29.1249
11
112.416
21
-29.1295
0
LINE
8
Black
10
112.416
20
-29.1295
11
112.417
21
-29.1347
0
LINE
8
Black
10
112.417
20
-29.1347
11
112.419
21
-29.1396
0
LINE
8
Black
10
112.419
20
-29.1396
11
112.419
21
-29.1448
0
LINE
8
Black
10
112.419
20
-29.1448
11
112.42
21
-29.15
0
LINE
8
Black
10
112.42
20
-29.15
11
112.42
21
-30.42
0
LINE
8
Black
10
112.42
20
-30.42
11
112.416
21
-30.4405
0
LINE
8
Black
10
112.416
20
-30.4405
11
112.406
21
-30.4586
0
LINE
8
Black
10
112.406
20
-30.4586
11
112.39
21
-30.472
0
LINE
8
Black
10
112.39
20
-30.472
11
112.37
21
-30.4791
0
LINE
8
Black
10
112.37
20
-30.4791
11
112.349
21
-30.4791
0
LINE
8
Black
10
112.349
20
-30.4791
11
112.33
21
-30.472
0
LINE
8
Black
10
112.33
20
-30.472
11
112.314
21
-30.4586
0
LINE
8
Black
10
112.314
20
-30.4586
11
112.303
21
-30.4405
0
LINE
8
Black
10
112.303
20
-30.4405
11
112.3
21
-30.42
0
LINE
8
Black
10
112.3
20
-30.42
11
112.3
21
-29.21
0
LINE
8
Black
10
112.3
20
-29.21
11
111.03
21
-29.21
0
LINE
8
Black
10
111.03
20
-29.21
11
111.009
21
-29.2064
0
LINE
8
Black
10
111.009
20
-29.2064
11
110.991
21
-29.196
0
LINE
8
Black
10
110.991
20
-29.196
11
110.978
21
-29.18
0
LINE
8
Black
10
110.978
20
-29.18
11
110.971
21
-29.1604
0
LINE
8
Black
10
110.971
20
-29.1604
11
110.971
21
-29.1396
0
LINE
8
Black
10
110.971
20
-29.1396
11
110.978
21
-29.12
0
LINE
8
Black
10
110.978
20
-29.12
11
110.991
21
-29.104
0
LINE
8
Black
10
110.991
20
-29.104
11
111.009
21
-29.0936
0
LINE
8
Black
10
111.009
20
-29.0936
11
111.03
21
-29.09
0
LINE
8
Black
10
111.03
20
-29.09
11
112.36
21
-29.09
0
LINE
8
Black
10
112.36
20
-29.09
11
112.365
21
-29.0909
0
CIRCLE
8
Black
10
106.045
20
-95.25
40
0.50038
0
CIRCLE
8
Black
10
106.045
20
-92.71
40
0.50038
0
LINE
8
Black
10
93.7095
20
-115.413
11
91.7105
21
-115.413
0
LINE
8
Black
10
93.7095
20
-121.412
11
91.7105
21
-121.412
0
LINE
8
Black
10
97.409
20
-117.413
11
97.409
21
-119.412
0
CIRCLE
8
Black
10
33.909
20
-40.64
40
0.3
0
CIRCLE
8
Black
10
35.179
20
-39.37
40
0.3
0
CIRCLE
8
Black
10
35.179
20
-41.91
40
0.3
0
CIRCLE
8
Black
10
39.116
20
-32.385
40
0.4
0
CIRCLE
8
Black
10
46.736
20
-32.385
40
0.4
0
CIRCLE
8
Black
10
118.11
20
-93.98
40
0.45
0
CIRCLE
8
Black
10
115.57
20
-93.98
40
0.45
0
CIRCLE
8
Black
10
113.03
20
-93.98
40
0.45
0
CIRCLE
8
Black
10
39.116
20
-37.846
40
0.4
0
CIRCLE
8
Black
10
39.116
20
-40.386
40
0.4
0
CIRCLE
8
Black
10
39.116
20
-42.926
40
0.4
0
CIRCLE
8
Black
10
46.736
20
-42.926
40
0.4
0
CIRCLE
8
Black
10
46.736
20
-40.386
40
0.4
0
CIRCLE
8
Black
10
46.736
20
-37.846
40
0.4
0
CIRCLE
8
Black
10
110.998
20
-39.878
40
0.508
0
CIRCLE
8
Black
10
110.998
20
-42.418
40
0.508
0
CIRCLE
8
Black
10
108.458
20
-39.878
40
0.508
0
CIRCLE
8
Black
10
108.458
20
-42.418
40
0.508
0
CIRCLE
8
Black
10
105.918
20
-39.878
40
0.508
0
CIRCLE
8
Black
10
105.918
20
-42.418
40
0.508
0
CIRCLE
8
Black
10
103.378
20
-39.878
40
0.508
0
CIRCLE
8
Black
10
103.378
20
-42.418
40
0.508
0
CIRCLE
8
Black
10
100.838
20
-39.878
40
0.508
0
CIRCLE
8
Black
10
100.838
20
-42.418
40
0.508
0
CIRCLE
8
Black
10
98.298
20
-39.878
40
0.508
0
CIRCLE
8
Black
10
98.298
20
-42.418
40
0.508
0
CIRCLE
8
Black
10
95.758
20
-39.878
40
0.508
0
CIRCLE
8
Black
10
95.758
20
-42.418
40
0.508
0
CIRCLE
8
Black
10
93.218
20
-39.878
40
0.508
0
CIRCLE
8
Black
10
93.218
20
-42.418
40
0.508
0
CIRCLE
8
Black
10
90.678
20
-39.878
40
0.508
0
CIRCLE
8
Black
10
90.678
20
-42.418
40
0.508
0
CIRCLE
8
Black
10
88.138
20
-39.878
40
0.508
0
CIRCLE
8
Black
10
88.138
20
-42.418
40
0.508
0
CIRCLE
8
Black
10
85.598
20
-39.878
40
0.508
0
CIRCLE
8
Black
10
85.598
20
-42.418
40
0.508
0
CIRCLE
8
Black
10
83.058
20
-39.878
40
0.508
0
CIRCLE
8
Black
10
83.058
20
-42.418
40
0.508
0
CIRCLE
8
Black
10
80.518
20
-39.878
40
0.508
0
CIRCLE
8
Black
10
80.518
20
-42.418
40
0.508
0
CIRCLE
8
Black
10
77.978
20
-39.878
40
0.508
0
CIRCLE
8
Black
10
77.978
20
-42.418
40
0.508
0
CIRCLE
8
Black
10
75.438
20
-39.878
40
0.508
0
CIRCLE
8
Black
10
75.438
20
-42.418
40
0.508
0
CIRCLE
8
Black
10
72.898
20
-39.878
40
0.508
0
CIRCLE
8
Black
10
72.898
20
-42.418
40
0.508
0
CIRCLE
8
Black
10
70.358
20
-39.878
40
0.508
0
CIRCLE
8
Black
10
70.358
20
-42.418
40
0.508
0
CIRCLE
8
Black
10
67.818
20
-39.878
40
0.508
0
CIRCLE
8
Black
10
67.818
20
-42.418
40
0.508
0
CIRCLE
8
Black
10
65.278
20
-39.878
40
0.508
0
CIRCLE
8
Black
10
65.278
20
-42.418
40
0.508
0
CIRCLE
8
Black
10
62.738
20
-39.878
40
0.508
0
CIRCLE
8
Black
10
62.738
20
-42.418
40
0.508
0
CIRCLE
8
Black
10
29.845
20
-67.945
40
0.508
0
CIRCLE
8
Black
10
32.385
20
-67.945
40
0.508
0
CIRCLE
8
Black
10
29.845
20
-70.485
40
0.508
0
CIRCLE
8
Black
10
32.385
20
-70.485
40
0.508
0
CIRCLE
8
Black
10
29.845
20
-73.025
40
0.508
0
CIRCLE
8
Black
10
32.385
20
-73.025
40
0.508
0
CIRCLE
8
Black
10
29.845
20
-75.565
40
0.508
0
CIRCLE
8
Black
10
32.385
20
-75.565
40
0.508
0
CIRCLE
8
Black
10
29.845
20
-78.105
40
0.508
0
CIRCLE
8
Black
10
32.385
20
-78.105
40
0.508
0
CIRCLE
8
Black
10
109.555
20
-116.205
40
0.85
0
CIRCLE
8
Black
10
113.515
20
-116.205
40
0.85
0
CIRCLE
8
Black
10
117.475
20
-116.205
40
0.85
0
CIRCLE
8
Black
10
121.435
20
-116.205
40
0.85
0
CIRCLE
8
Black
10
102.87
20
-120.65
40
0.50038
0
CIRCLE
8
Black
10
102.87
20
-118.11
40
0.50038
0
CIRCLE
8
Black
10
96.52
20
-92.71
40
0.35
0
CIRCLE
8
Black
10
96.52
20
-100.33
40
0.35
0
CIRCLE
8
Black
10
99.695
20
-107.95
40
0.5
0
CIRCLE
8
Black
10
99.695
20
-110.49
40
0.5
0
CIRCLE
8
Black
10
29.21
20
-32.385
40
0.4
0
CIRCLE
8
Black
10
29.21
20
-40.005
40
0.4
0
CIRCLE
8
Black
10
100.965
20
-92.71
40
0.4
0
CIRCLE
8
Black
10
100.965
20
-100.33
40
0.4
0
CIRCLE
8
Black
10
95.885
20
-111.76
40
0.55
0
CIRCLE
8
Black
10
95.885
20
-104.14
40
0.55
0
CIRCLE
8
Black
10
111.03
20
-30.48
40
0.5
0
CIRCLE
8
Black
10
111.03
20
-33.02
40
0.5
0
CIRCLE
8
Black
10
108.49
20
-30.48
40
0.5
0
CIRCLE
8
Black
10
108.49
20
-33.02
40
0.5
0
CIRCLE
8
Black
10
105.95
20
-30.48
40
0.5
0
CIRCLE
8
Black
10
105.95
20
-33.02
40
0.5
0
CIRCLE
8
Black
10
103.41
20
-30.48
40
0.5
0
CIRCLE
8
Black
10
103.41
20
-33.02
40
0.5
0
CIRCLE
8
Black
10
100.87
20
-30.48
40
0.5
0
CIRCLE
8
Black
10
100.87
20
-33.02
40
0.5
0
CIRCLE
8
Black
10
98.3297
20
-30.48
40
0.5
0
CIRCLE
8
Black
10
98.3297
20
-33.02
40
0.5
0
CIRCLE
8
Black
10
95.7897
20
-30.48
40
0.5
0
CIRCLE
8
Black
10
95.7897
20
-33.02
40
0.5
0
CIRCLE
8
Black
10
93.2497
20
-30.48
40
0.5
0
CIRCLE
8
Black
10
93.2497
20
-33.02
40
0.5
0
CIRCLE
8
Black
10
90.7097
20
-30.48
40
0.5
0
CIRCLE
8
Black
10
90.7097
20
-33.02
40
0.5
0
CIRCLE
8
Black
10
88.1697
20
-30.48
40
0.5
0
CIRCLE
8
Black
10
88.1697
20
-33.02
40
0.5
0
CIRCLE
8
Black
10
85.6298
20
-30.48
40
0.5
0
CIRCLE
8
Black
10
85.6298
20
-33.02
40
0.5
0
CIRCLE
8
Black
10
83.0897
20
-30.48
40
0.5
0
CIRCLE
8
Black
10
83.0897
20
-33.02
40
0.5
0
CIRCLE
8
Black
10
80.5498
20
-30.48
40
0.5
0
CIRCLE
8
Black
10
80.5498
20
-33.02
40
0.5
0
CIRCLE
8
Black
10
78.0097
20
-30.48
40
0.5
0
CIRCLE
8
Black
10
78.0097
20
-33.02
40
0.5
0
CIRCLE
8
Black
10
75.4697
20
-30.48
40
0.5
0
CIRCLE
8
Black
10
75.4697
20
-33.02
40
0.5
0
CIRCLE
8
Black
10
72.9297
20
-30.48
40
0.5
0
CIRCLE
8
Black
10
72.9297
20
-33.02
40
0.5
0
CIRCLE
8
Black
10
70.3897
20
-30.48
40
0.5
0
CIRCLE
8
Black
10
70.3897
20
-33.02
40
0.5
0
CIRCLE
8
Black
10
67.8498
20
-30.48
40
0.5
0
CIRCLE
8
Black
10
67.8498
20
-33.02
40
0.5
0
CIRCLE
8
Black
10
65.3097
20
-30.48
40
0.5
0
CIRCLE
8
Black
10
65.3097
20
-33.02
40
0.5
0
CIRCLE
8
Black
10
62.7697
20
-30.48
40
0.5
0
CIRCLE
8
Black
10
62.7697
20
-33.02
40
0.5
0
CIRCLE
8
Black
10
120.174
20
-31.75
40
1.5875
0
CIRCLE
8
Black
10
53.6257
20
-31.75
40
1.5875
0
CIRCLE
8
Black
10
120.015
20
-107.95
40
1.75
0
CIRCLE
8
Black
10
103.355
20
-105.41
40
0.5
0
CIRCLE
8
Black
10
103.355
20
-107.95
40
0.5
0
CIRCLE
8
Black
10
103.355
20
-110.49
40
0.5
0
CIRCLE
8
Black
10
75.594
20
-97.2059
40
0.508
0
CIRCLE
8
Black
10
78.134
20
-97.2059
40
0.508
0
CIRCLE
8
Black
10
75.594
20
-99.7459
40
0.508
0
CIRCLE
8
Black
10
78.134
20
-99.7459
40
0.508
0
CIRCLE
8
Black
10
75.594
20
-102.286
40
0.508
0
CIRCLE
8
Black
10
78.134
20
-102.286
40
0.508
0
CIRCLE
8
Black
10
75.594
20
-104.826
40
0.508
0
CIRCLE
8
Black
10
78.134
20
-104.826
40
0.508
0
CIRCLE
8
Black
10
75.594
20
-107.366
40
0.508
0
CIRCLE
8
Black
10
78.134
20
-107.366
40
0.508
0
CIRCLE
8
Black
10
85.754
20
-97.2059
40
0.508
0
CIRCLE
8
Black
10
88.294
20
-97.2059
40
0.508
0
CIRCLE
8
Black
10
85.754
20
-99.7459
40
0.508
0
CIRCLE
8
Black
10
88.294
20
-99.7459
40
0.508
0
CIRCLE
8
Black
10
85.754
20
-102.286
40
0.508
0
CIRCLE
8
Black
10
88.294
20
-102.286
40
0.508
0
CIRCLE
8
Black
10
85.754
20
-104.826
40
0.508
0
CIRCLE
8
Black
10
88.294
20
-104.826
40
0.508
0
CIRCLE
8
Black
10
85.754
20
-107.366
40
0.508
0
CIRCLE
8
Black
10
88.294
20
-107.366
40
0.508
0
CIRCLE
8
Black
10
47.8051
20
-114.911
40
0.5
0
CIRCLE
8
Black
10
45.2651
20
-114.911
40
0.5
0
CIRCLE
8
Black
10
42.7251
20
-114.911
40
0.5
0
CIRCLE
8
Black
10
40.1851
20
-114.911
40
0.5
0
CIRCLE
8
Black
10
37.6451
20
-114.911
40
0.5
0
CIRCLE
8
Black
10
35.1051
20
-114.911
40
0.5
0
CIRCLE
8
Black
10
32.5651
20
-114.911
40
0.5
0
CIRCLE
8
Black
10
30.0251
20
-114.911
40
0.5
0
CIRCLE
8
Black
10
27.4751
20
-114.801
40
0.8
0
CIRCLE
8
Black
10
68.1351
20
-114.801
40
0.8
0
CIRCLE
8
Black
10
68.1351
20
-99.7812
40
0.8
0
CIRCLE
8
Black
10
27.4751
20
-99.7812
40
0.8
0
CIRCLE
8
Black
10
50.3451
20
-114.911
40
0.5
0
CIRCLE
8
Black
10
52.8851
20
-114.911
40
0.5
0
CIRCLE
8
Black
10
55.4251
20
-114.911
40
0.5
0
CIRCLE
8
Black
10
57.9651
20
-114.911
40
0.5
0
CIRCLE
8
Black
10
60.5051
20
-114.911
40
0.5
0
CIRCLE
8
Black
10
63.0451
20
-114.911
40
0.5
0
CIRCLE
8
Black
10
65.5851
20
-114.911
40
0.5
0
CIRCLE
8
Black
10
65.5851
20
-99.6712
40
0.5
0
CIRCLE
8
Black
10
63.0451
20
-99.6712
40
0.5
0
CIRCLE
8
Black
10
60.5051
20
-99.6712
40
0.5
0
CIRCLE
8
Black
10
57.9651
20
-99.6712
40
0.5
0
CIRCLE
8
Black
10
55.4251
20
-99.6712
40
0.5
0
CIRCLE
8
Black
10
52.8851
20
-99.6712
40
0.5
0
CIRCLE
8
Black
10
50.3451
20
-99.6712
40
0.5
0
CIRCLE
8
Black
10
47.8051
20
-99.6712
40
0.5
0
CIRCLE
8
Black
10
45.2651
20
-99.6712
40
0.5
0
CIRCLE
8
Black
10
42.7251
20
-99.6712
40
0.5
0
CIRCLE
8
Black
10
40.1851
20
-99.6712
40
0.5
0
CIRCLE
8
Black
10
37.6451
20
-99.6712
40
0.5
0
CIRCLE
8
Black
10
35.1051
20
-99.6712
40
0.5
0
CIRCLE
8
Black
10
32.5651
20
-99.6712
40
0.5
0
CIRCLE
8
Black
10
30.0251
20
-99.6712
40
0.5
0
CIRCLE
8
Black
10
52.8851
20
-95.8612
40
0.5
0
CIRCLE
8
Black
10
50.3451
20
-95.8612
40
0.5
0
CIRCLE
8
Black
10
47.8051
20
-95.8612
40
0.5
0
CIRCLE
8
Black
10
45.2651
20
-95.8612
40
0.5
0
CIRCLE
8
Black
10
42.7251
20
-95.8612
40
0.5
0
CIRCLE
8
Black
10
40.1851
20
-95.8612
40
0.5
0
CIRCLE
8
Black
10
37.6451
20
-95.8612
40
0.5
0
CIRCLE
8
Black
10
35.1051
20
-95.8612
40
0.5
0
CIRCLE
8
Black
10
35.1051
20
-118.721
40
0.5
0
CIRCLE
8
Black
10
37.6451
20
-118.721
40
0.5
0
CIRCLE
8
Black
10
40.1851
20
-118.721
40
0.5
0
CIRCLE
8
Black
10
42.7251
20
-118.721
40
0.5
0
CIRCLE
8
Black
10
45.2651
20
-118.721
40
0.5
0
CIRCLE
8
Black
10
47.8051
20
-118.721
40
0.5
0
CIRCLE
8
Black
10
50.3451
20
-118.721
40
0.5
0
CIRCLE
8
Black
10
52.8851
20
-118.721
40
0.5
0
LINE
8
Black
10
125.006
20
-24.9261
11
125.013
21
-24.9261
0
LINE
8
Black
10
125.013
20
-24.9261
11
125.019
21
-24.9284
0
LINE
8
Black
10
125.019
20
-24.9284
11
125.026
21
-24.9295
0
LINE
8
Black
10
125.026
20
-24.9295
11
125.031
21
-24.9328
0
LINE
8
Black
10
125.031
20
-24.9328
11
125.037
21
-24.935
0
LINE
8
Black
10
125.037
20
-24.935
11
125.043
21
-24.9393
0
LINE
8
Black
10
125.043
20
-24.9393
11
125.048
21
-24.9425
0
LINE
8
Black
10
125.048
20
-24.9425
11
125.052
21
-24.9476
0
LINE
8
Black
10
125.052
20
-24.9476
11
125.057
21
-24.9518
0
LINE
8
Black
10
125.057
20
-24.9518
11
125.061
21
-24.9575
0
LINE
8
Black
10
125.061
20
-24.9575
11
125.065
21
-24.9625
0
LINE
8
Black
10
125.065
20
-24.9625
11
125.067
21
-24.9687
0
LINE
8
Black
10
125.067
20
-24.9687
11
125.07
21
-24.9743
0
LINE
8
Black
10
125.07
20
-24.9743
11
125.072
21
-24.9808
0
LINE
8
Black
10
125.072
20
-24.9808
11
125.074
21
-24.987
0
LINE
8
Black
10
125.074
20
-24.987
11
125.074
21
-24.9935
0
LINE
8
Black
10
125.074
20
-24.9935
11
125.075
21
-25
0
LINE
8
Black
10
125.075
20
-25
11
125.075
21
-125
0
LINE
8
Black
10
125.075
20
-125
11
125.074
21
-125.006
0
LINE
8
Black
10
125.074
20
-125.006
11
125.074
21
-125.013
0
LINE
8
Black
10
125.074
20
-125.013
11
125.072
21
-125.019
0
LINE
8
Black
10
125.072
20
-125.019
11
125.07
21
-125.026
0
LINE
8
Black
10
125.07
20
-125.026
11
125.067
21
-125.031
0
LINE
8
Black
10
125.067
20
-125.031
11
125.065
21
-125.037
0
LINE
8
Black
10
125.065
20
-125.037
11
125.061
21
-125.043
0
LINE
8
Black
10
125.061
20
-125.043
11
125.057
21
-125.048
0
LINE
8
Black
10
125.057
20
-125.048
11
125.052
21
-125.052
0
LINE
8
Black
10
125.052
20
-125.052
11
125.048
21
-125.057
0
LINE
8
Black
10
125.048
20
-125.057
11
125.043
21
-125.061
0
LINE
8
Black
10
125.043
20
-125.061
11
125.037
21
-125.065
0
LINE
8
Black
10
125.037
20
-125.065
11
125.031
21
-125.067
0
LINE
8
Black
10
125.031
20
-125.067
11
125.026
21
-125.07
0
LINE
8
Black
10
125.026
20
-125.07
11
125.019
21
-125.072
0
LINE
8
Black
10
125.019
20
-125.072
11
125.013
21
-125.074
0
LINE
8
Black
10
125.013
20
-125.074
11
125.006
21
-125.074
0
LINE
8
Black
10
125.006
20
-125.074
11
125
21
-125.075
0
LINE
8
Black
10
125
20
-125.075
11
25
21
-125.075
0
LINE
8
Black
10
25
20
-125.075
11
24.9935
21
-125.074
0
LINE
8
Black
10
24.9935
20
-125.074
11
24.987
21
-125.074
0
LINE
8
Black
10
24.987
20
-125.074
11
24.9808
21
-125.072
0
LINE
8
Black
10
24.9808
20
-125.072
11
24.9743
21
-125.07
0
LINE
8
Black
10
24.9743
20
-125.07
11
24.9687
21
-125.067
0
LINE
8
Black
10
24.9687
20
-125.067
11
24.9625
21
-125.065
0
LINE
8
Black
10
24.9625
20
-125.065
11
24.9575
21
-125.061
0
LINE
8
Black
10
24.9575
20
-125.061
11
24.9518
21
-125.057
0
LINE
8
Black
10
24.9518
20
-125.057
11
24.9476
21
-125.052
0
LINE
8
Black
10
24.9476
20
-125.052
11
24.9425
21
-125.048
0
LINE
8
Black
10
24.9425
20
-125.048
11
24.9393
21
-125.043
0
LINE
8
Black
10
24.9393
20
-125.043
11
24.935
21
-125.037
0
LINE
8
Black
10
24.935
20
-125.037
11
24.9328
21
-125.031
0
LINE
8
Black
10
24.9328
20
-125.031
11
24.9295
21
-125.026
0
LINE
8
Black
10
24.9295
20
-125.026
11
24.9284
21
-125.019
0
LINE
8
Black
10
24.9284
20
-125.019
11
24.9261
21
-125.013
0
LINE
8
Black
10
24.9261
20
-125.013
11
24.9261
21
-125.006
0
LINE
8
Black
10
24.9261
20
-125.006
11
24.925
21
-125
0
LINE
8
Black
10
24.925
20
-125
11
24.925
21
-25
0
LINE
8
Black
10
24.925
20
-25
11
24.9261
21
-24.9935
0
LINE
8
Black
10
24.9261
20
-24.9935
11
24.9261
21
-24.987
0
LINE
8
Black
10
24.9261
20
-24.987
11
24.9284
21
-24.9808
0
LINE
8
Black
10
24.9284
20
-24.9808
11
24.9295
21
-24.9743
0
LINE
8
Black
10
24.9295
20
-24.9743
11
24.9328
21
-24.9687
0
LINE
8
Black
10
24.9328
20
-24.9687
11
24.935
21
-24.9625
0
LINE
8
Black
10
24.935
20
-24.9625
11
24.9393
21
-24.9575
0
LINE
8
Black
10
24.9393
20
-24.9575
11
24.9425
21
-24.9518
0
LINE
8
Black
10
24.9425
20
-24.9518
11
24.9476
21
-24.9476
0
LINE
8
Black
10
24.9476
20
-24.9476
11
24.9518
21
-24.9425
0
LINE
8
Black
10
24.9518
20
-24.9425
11
24.9575
21
-24.9393
0
LINE
8
Black
10
24.9575
20
-24.9393
11
24.9625
21
-24.935
0
LINE
8
Black
10
24.9625
20
-24.935
11
24.9687
21
-24.9328
0
LINE
8
Black
10
24.9687
20
-24.9328
11
24.9743
21
-24.9295
0
LINE
8
Black
10
24.9743
20
-24.9295
11
24.9808
21
-24.9284
0
LINE
8
Black
10
24.9808
20
-24.9284
11
24.987
21
-24.9261
0
LINE
8
Black
10
24.987
20
-24.9261
11
24.9935
21
-24.9261
0
LINE
8
Black
10
24.9935
20
-24.9261
11
25
21
-24.925
0
LINE
8
Black
10
25
20
-24.925
11
125
21
-24.925
0
LINE
8
Black
10
125
20
-24.925
11
125.006
21
-24.9261
0
LINE
8
Black
10
25.075
20
-25.075
11
25.075
21
-124.925
0
LINE
8
Black
10
25.075
20
-124.925
11
124.925
21
-124.925
0
LINE
8
Black
10
124.925
20
-124.925
11
124.925
21
-25.075
0
LINE
8
Black
10
124.925
20
-25.075
11
25.075
21
-25.075
0
CIRCLE
8
Black
10
106.045
20
-95.25
40
0.50038
0
CIRCLE
8
Black
10
106.045
20
-92.71
40
0.50038
0
LINE
8
Black
10
93.7095
20
-115.413
11
91.7105
21
-115.413
0
LINE
8
Black
10
93.7095
20
-121.412
11
91.7105
21
-121.412
0
LINE
8
Black
10
97.409
20
-117.413
11
97.409
21
-119.412
0
CIRCLE
8
Black
10
33.909
20
-40.64
40
0.3
0
CIRCLE
8
Black
10
35.179
20
-39.37
40
0.3
0
CIRCLE
8
Black
10
35.179
20
-41.91
40
0.3
0
CIRCLE
8
Black
10
39.116
20
-32.385
40
0.4
0
CIRCLE
8
Black
10
46.736
20
-32.385
40
0.4
0
CIRCLE
8
Black
10
118.11
20
-93.98
40
0.45
0
CIRCLE
8
Black
10
115.57
20
-93.98
40
0.45
0
CIRCLE
8
Black
10
113.03
20
-93.98
40
0.45
0
CIRCLE
8
Black
10
39.116
20
-37.846
40
0.4
0
CIRCLE
8
Black
10
39.116
20
-40.386
40
0.4
0
CIRCLE
8
Black
10
39.116
20
-42.926
40
0.4
0
CIRCLE
8
Black
10
46.736
20
-42.926
40
0.4
0
CIRCLE
8
Black
10
46.736
20
-40.386
40
0.4
0
CIRCLE
8
Black
10
46.736
20
-37.846
40
0.4
0
CIRCLE
8
Black
10
110.998
20
-39.878
40
0.508
0
CIRCLE
8
Black
10
110.998
20
-42.418
40
0.508
0
CIRCLE
8
Black
10
108.458
20
-39.878
40
0.508
0
CIRCLE
8
Black
10
108.458
20
-42.418
40
0.508
0
CIRCLE
8
Black
10
105.918
20
-39.878
40
0.508
0
CIRCLE
8
Black
10
105.918
20
-42.418
40
0.508
0
CIRCLE
8
Black
10
103.378
20
-39.878
40
0.508
0
CIRCLE
8
Black
10
103.378
20
-42.418
40
0.508
0
CIRCLE
8
Black
10
100.838
20
-39.878
40
0.508
0
CIRCLE
8
Black
10
100.838
20
-42.418
40
0.508
0
CIRCLE
8
Black
10
98.298
20
-39.878
40
0.508
0
CIRCLE
8
Black
10
98.298
20
-42.418
40
0.508
0
CIRCLE
8
Black
10
95.758
20
-39.878
40
0.508
0
CIRCLE
8
Black
10
95.758
20
-42.418
40
0.508
0
CIRCLE
8
Black
10
93.218
20
-39.878
40
0.508
0
CIRCLE
8
Black
10
93.218
20
-42.418
40
0.508
0
CIRCLE
8
Black
10
90.678
20
-39.878
40
0.508
0
CIRCLE
8
Black
10
90.678
20
-42.418
40
0.508
0
CIRCLE
8
Black
10
88.138
20
-39.878
40
0.508
0
CIRCLE
8
Black
10
88.138
20
-42.418
40
0.508
0
CIRCLE
8
Black
10
85.598
20
-39.878
40
0.508
0
CIRCLE
8
Black
10
85.598
20
-42.418
40
0.508
0
CIRCLE
8
Black
10
83.058
20
-39.878
40
0.508
0
CIRCLE
8
Black
10
83.058
20
-42.418
40
0.508
0
CIRCLE
8
Black
10
80.518
20
-39.878
40
0.508
0
CIRCLE
8
Black
10
80.518
20
-42.418
40
0.508
0
CIRCLE
8
Black
10
77.978
20
-39.878
40
0.508
0
CIRCLE
8
Black
10
77.978
20
-42.418
40
0.508
0
CIRCLE
8
Black
10
75.438
20
-39.878
40
0.508
0
CIRCLE
8
Black
10
75.438
20
-42.418
40
0.508
0
CIRCLE
8
Black
10
72.898
20
-39.878
40
0.508
0
CIRCLE
8
Black
10
72.898
20
-42.418
40
0.508
0
CIRCLE
8
Black
10
70.358
20
-39.878
40
0.508
0
CIRCLE
8
Black
10
70.358
20
-42.418
40
0.508
0
CIRCLE
8
Black
10
67.818
20
-39.878
40
0.508
0
CIRCLE
8
Black
10
67.818
20
-42.418
40
0.508
0
CIRCLE
8
Black
10
65.278
20
-39.878
40
0.508
0
CIRCLE
8
Black
10
65.278
20
-42.418
40
0.508
0
CIRCLE
8
Black
10
62.738
20
-39.878
40
0.508
0
CIRCLE
8
Black
10
62.738
20
-42.418
40
0.508
0
CIRCLE
8
Black
10
29.845
20
-67.945
40
0.508
0
CIRCLE
8
Black
10
32.385
20
-67.945
40
0.508
0
CIRCLE
8
Black
10
29.845
20
-70.485
40
0.508
0
CIRCLE
8
Black
10
32.385
20
-70.485
40
0.508
0
CIRCLE
8
Black
10
29.845
20
-73.025
40
0.508
0
CIRCLE
8
Black
10
32.385
20
-73.025
40
0.508
0
CIRCLE
8
Black
10
29.845
20
-75.565
40
0.508
0
CIRCLE
8
Black
10
32.385
20
-75.565
40
0.508
0
CIRCLE
8
Black
10
29.845
20
-78.105
40
0.508
0
CIRCLE
8
Black
10
32.385
20
-78.105
40
0.508
0
CIRCLE
8
Black
10
109.555
20
-116.205
40
0.85
0
CIRCLE
8
Black
10
113.515
20
-116.205
40
0.85
0
CIRCLE
8
Black
10
117.475
20
-116.205
40
0.85
0
CIRCLE
8
Black
10
121.435
20
-116.205
40
0.85
0
CIRCLE
8
Black
10
102.87
20
-120.65
40
0.50038
0
CIRCLE
8
Black
10
102.87
20
-118.11
40
0.50038
0
CIRCLE
8
Black
10
96.52
20
-92.71
40
0.35
0
CIRCLE
8
Black
10
96.52
20
-100.33
40
0.35
0
CIRCLE
8
Black
10
99.695
20
-107.95
40
0.5
0
CIRCLE
8
Black
10
99.695
20
-110.49
40
0.5
0
CIRCLE
8
Black
10
29.21
20
-32.385
40
0.4
0
CIRCLE
8
Black
10
29.21
20
-40.005
40
0.4
0
CIRCLE
8
Black
10
100.965
20
-92.71
40
0.4
0
CIRCLE
8
Black
10
100.965
20
-100.33
40
0.4
0
CIRCLE
8
Black
10
95.885
20
-111.76
40
0.55
0
CIRCLE
8
Black
10
95.885
20
-104.14
40
0.55
0
CIRCLE
8
Black
10
111.03
20
-30.48
40
0.5
0
CIRCLE
8
Black
10
111.03
20
-33.02
40
0.5
0
CIRCLE
8
Black
10
108.49
20
-30.48
40
0.5
0
CIRCLE
8
Black
10
108.49
20
-33.02
40
0.5
0
CIRCLE
8
Black
10
105.95
20
-30.48
40
0.5
0
CIRCLE
8
Black
10
105.95
20
-33.02
40
0.5
0
CIRCLE
8
Black
10
103.41
20
-30.48
40
0.5
0
CIRCLE
8
Black
10
103.41
20
-33.02
40
0.5
0
CIRCLE
8
Black
10
100.87
20
-30.48
40
0.5
0
CIRCLE
8
Black
10
100.87
20
-33.02
40
0.5
0
CIRCLE
8
Black
10
98.3297
20
-30.48
40
0.5
0
CIRCLE
8
Black
10
98.3297
20
-33.02
40
0.5
0
CIRCLE
8
Black
10
95.7897
20
-30.48
40
0.5
0
CIRCLE
8
Black
10
95.7897
20
-33.02
40
0.5
0
CIRCLE
8
Black
10
93.2497
20
-30.48
40
0.5
0
CIRCLE
8
Black
10
93.2497
20
-33.02
40
0.5
0
CIRCLE
8
Black
10
90.7097
20
-30.48
40
0.5
0
CIRCLE
8
Black
10
90.7097
20
-33.02
40
0.5
0
CIRCLE
8
Black
10
88.1697
20
-30.48
40
0.5
0
CIRCLE
8
Black
10
88.1697
20
-33.02
40
0.5
0
CIRCLE
8
Black
10
85.6298
20
-30.48
40
0.5
0
CIRCLE
8
Black
10
85.6298
20
-33.02
40
0.5
0
CIRCLE
8
Black
10
83.0897
20
-30.48
40
0.5
0
CIRCLE
8
Black
10
83.0897
20
-33.02
40
0.5
0
CIRCLE
8
Black
10
80.5498
20
-30.48
40
0.5
0
CIRCLE
8
Black
10
80.5498
20
-33.02
40
0.5
0
CIRCLE
8
Black
10
78.0097
20
-30.48
40
0.5
0
CIRCLE
8
Black
10
78.0097
20
-33.02
40
0.5
0
CIRCLE
8
Black
10
75.4697
20
-30.48
40
0.5
0
CIRCLE
8
Black
10
75.4697
20
-33.02
40
0.5
0
CIRCLE
8
Black
10
72.9297
20
-30.48
40
0.5
0
CIRCLE
8
Black
10
72.9297
20
-33.02
40
0.5
0
CIRCLE
8
Black
10
70.3897
20
-30.48
40
0.5
0
CIRCLE
8
Black
10
70.3897
20
-33.02
40
0.5
0
CIRCLE
8
Black
10
67.8498
20
-30.48
40
0.5
0
CIRCLE
8
Black
10
67.8498
20
-33.02
40
0.5
0
CIRCLE
8
Black
10
65.3097
20
-30.48
40
0.5
0
CIRCLE
8
Black
10
65.3097
20
-33.02
40
0.5
0
CIRCLE
8
Black
10
62.7697
20
-30.48
40
0.5
0
CIRCLE
8
Black
10
62.7697
20
-33.02
40
0.5
0
CIRCLE
8
Black
10
120.174
20
-31.75
40
1.5875
0
CIRCLE
8
Black
10
53.6257
20
-31.75
40
1.5875
0
CIRCLE
8
Black
10
120.015
20
-107.95
40
1.75
0
CIRCLE
8
Black
10
103.355
20
-105.41
40
0.5
0
CIRCLE
8
Black
10
103.355
20
-107.95
40
0.5
0
CIRCLE
8
Black
10
103.355
20
-110.49
40
0.5
0
CIRCLE
8
Black
10
75.594
20
-97.2059
40
0.508
0
CIRCLE
8
Black
10
78.134
20
-97.2059
40
0.508
0
CIRCLE
8
Black
10
75.594
20
-99.7459
40
0.508
0
CIRCLE
8
Black
10
78.134
20
-99.7459
40
0.508
0
CIRCLE
8
Black
10
75.594
20
-102.286
40
0.508
0
CIRCLE
8
Black
10
78.134
20
-102.286
40
0.508
0
CIRCLE
8
Black
10
75.594
20
-104.826
40
0.508
0
CIRCLE
8
Black
10
78.134
20
-104.826
40
0.508
0
CIRCLE
8
Black
10
75.594
20
-107.366
40
0.508
0
CIRCLE
8
Black
10
78.134
20
-107.366
40
0.508
0
CIRCLE
8
Black
10
85.754
20
-97.2059
40
0.508
0
CIRCLE
8
Black
10
88.294
20
-97.2059
40
0.508
0
CIRCLE
8
Black
10
85.754
20
-99.7459
40
0.508
0
CIRCLE
8
Black
10
88.294
20
-99.7459
40
0.508
0
CIRCLE
8
Black
10
85.754
20
-102.286
40
0.508
0
CIRCLE
8
Black
10
88.294
20
-102.286
40
0.508
0
CIRCLE
8
Black
10
85.754
20
-104.826
40
0.508
0
CIRCLE
8
Black
10
88.294
20
-104.826
40
0.508
0
CIRCLE
8
Black
10
85.754
20
-107.366
40
0.508
0
CIRCLE
8
Black
10
88.294
20
-107.366
40
0.508
0
CIRCLE
8
Black
10
47.8051
20
-114.911
40
0.5
0
CIRCLE
8
Black
10
45.2651
20
-114.911
40
0.5
0
CIRCLE
8
Black
10
42.7251
20
-114.911
40
0.5
0
CIRCLE
8
Black
10
40.1851
20
-114.911
40
0.5
0
CIRCLE
8
Black
10
37.6451
20
-114.911
40
0.5
0
CIRCLE
8
Black
10
35.1051
20
-114.911
40
0.5
0
CIRCLE
8
Black
10
32.5651
20
-114.911
40
0.5
0
CIRCLE
8
Black
10
30.0251
20
-114.911
40
0.5
0
CIRCLE
8
Black
10
27.4751
20
-114.801
40
0.8
0
CIRCLE
8
Black
10
68.1351
20
-114.801
40
0.8
0
CIRCLE
8
Black
10
68.1351
20
-99.7812
40
0.8
0
CIRCLE
8
Black
10
27.4751
20
-99.7812
40
0.8
0
CIRCLE
8
Black
10
50.3451
20
-114.911
40
0.5
0
CIRCLE
8
Black
10
52.8851
20
-114.911
40
0.5
0
CIRCLE
8
Black
10
55.4251
20
-114.911
40
0.5
0
CIRCLE
8
Black
10
57.9651
20
-114.911
40
0.5
0
CIRCLE
8
Black
10
60.5051
20
-114.911
40
0.5
0
CIRCLE
8
Black
10
63.0451
20
-114.911
40
0.5
0
CIRCLE
8
Black
10
65.5851
20
-114.911
40
0.5
0
CIRCLE
8
Black
10
65.5851
20
-99.6712
40
0.5
0
CIRCLE
8
Black
10
63.0451
20
-99.6712
40
0.5
0
CIRCLE
8
Black
10
60.5051
20
-99.6712
40
0.5
0
CIRCLE
8
Black
10
57.9651
20
-99.6712
40
0.5
0
CIRCLE
8
Black
10
55.4251
20
-99.6712
40
0.5
0
CIRCLE
8
Black
10
52.8851
20
-99.6712
40
0.5
0
CIRCLE
8
Black
10
50.3451
20
-99.6712
40
0.5
0
CIRCLE
8
Black
10
47.8051
20
-99.6712
40
0.5
0
CIRCLE
8
Black
10
45.2651
20
-99.6712
40
0.5
0
CIRCLE
8
Black
10
42.7251
20
-99.6712
40
0.5
0
CIRCLE
8
Black
10
40.1851
20
-99.6712
40
0.5
0
CIRCLE
8
Black
10
37.6451
20
-99.6712
40
0.5
0
CIRCLE
8
Black
10
35.1051
20
-99.6712
40
0.5
0
CIRCLE
8
Black
10
32.5651
20
-99.6712
40
0.5
0
CIRCLE
8
Black
10
30.0251
20
-99.6712
40
0.5
0
CIRCLE
8
Black
10
52.8851
20
-95.8612
40
0.5
0
CIRCLE
8
Black
10
50.3451
20
-95.8612
40
0.5
0
CIRCLE
8
Black
10
47.8051
20
-95.8612
40
0.5
0
CIRCLE
8
Black
10
45.2651
20
-95.8612
40
0.5
0
CIRCLE
8
Black
10
42.7251
20
-95.8612
40
0.5
0
CIRCLE
8
Black
10
40.1851
20
-95.8612
40
0.5
0
CIRCLE
8
Black
10
37.6451
20
-95.8612
40
0.5
0
CIRCLE
8
Black
10
35.1051
20
-95.8612
40
0.5
0
CIRCLE
8
Black
10
35.1051
20
-118.721
40
0.5
0
CIRCLE
8
Black
10
37.6451
20
-118.721
40
0.5
0
CIRCLE
8
Black
10
40.1851
20
-118.721
40
0.5
0
CIRCLE
8
Black
10
42.7251
20
-118.721
40
0.5
0
CIRCLE
8
Black
10
45.2651
20
-118.721
40
0.5
0
CIRCLE
8
Black
10
47.8051
20
-118.721
40
0.5
0
CIRCLE
8
Black
10
50.3451
20
-118.721
40
0.5
0
CIRCLE
8
Black
10
52.8851
20
-118.721
40
0.5
  0
ENDSEC
  0
EOF
