  0
SECTION
  2
HEADER
  9
$ANGBASE
  50
0.0
  9
$ANGDIR
  70
  1
  9
$MEASUREMENT
  70
0
  0
ENDSEC
  0
SECTION
  2
TABLES
  0
TABLE
  2
LTYPE
  70
1
  0
LTYPE
  2
CONTINUOUS
  70
0
  3
Solid line
  72
65
  73
0
  40
0.0
  0
ENDTAB
  0
TABLE
  2
STYLE
  70
4
  0
STYLE
  2
KICAD
  70
0
  40
0
  41
1
  42
1
  50
0
  71
0
  3
isocp.shx
  0
STYLE
  2
KICADB
  70
0
  40
0
  41
1
  42
1
  50
0
  71
0
  3
isocp.shx
  0
STYLE
  2
KICADI
  70
0
  40
0
  41
1
  42
1
  50
15
  71
0
  3
isocp.shx
  0
STYLE
  2
KICADBI
  70
0
  40
0
  41
1
  42
1
  50
15
  71
0
  3
isocp.shx
  0
ENDTAB
  0
TABLE
  2
LAYER
  70
30
  0
LAYER
  2
BLACK
  70
0
  62
7
  6
CONTINUOUS
  0
LAYER
  2
GRAY1
  70
0
  62
251
  6
CONTINUOUS
  0
LAYER
  2
GRAY2
  70
0
  62
8
  6
CONTINUOUS
  0
LAYER
  2
GRAY3
  70
0
  62
9
  6
CONTINUOUS
  0
LAYER
  2
WHITE
  70
0
  62
7
  6
CONTINUOUS
  0
LAYER
  2
LYELLOW
  70
0
  62
51
  6
CONTINUOUS
  0
LAYER
  2
BLUE1
  70
0
  62
178
  6
CONTINUOUS
  0
LAYER
  2
GREEN1
  70
0
  62
98
  6
CONTINUOUS
  0
LAYER
  2
CYAN1
  70
0
  62
138
  6
CONTINUOUS
  0
LAYER
  2
RED1
  70
0
  62
18
  6
CONTINUOUS
  0
LAYER
  2
MAGENTA1
  70
0
  62
228
  6
CONTINUOUS
  0
LAYER
  2
BROWN1
  70
0
  62
58
  6
CONTINUOUS
  0
LAYER
  2
BLUE2
  70
0
  62
5
  6
CONTINUOUS
  0
LAYER
  2
GREEN2
  70
0
  62
3
  6
CONTINUOUS
  0
LAYER
  2
CYAN2
  70
0
  62
4
  6
CONTINUOUS
  0
LAYER
  2
RED2
  70
0
  62
1
  6
CONTINUOUS
  0
LAYER
  2
MAGENTA2
  70
0
  62
6
  6
CONTINUOUS
  0
LAYER
  2
BROWN2
  70
0
  62
54
  6
CONTINUOUS
  0
LAYER
  2
BLUE3
  70
0
  62
171
  6
CONTINUOUS
  0
LAYER
  2
GREEN3
  70
0
  62
91
  6
CONTINUOUS
  0
LAYER
  2
CYAN3
  70
0
  62
131
  6
CONTINUOUS
  0
LAYER
  2
RED3
  70
0
  62
11
  6
CONTINUOUS
  0
LAYER
  2
MAGENTA3
  70
0
  62
221
  6
CONTINUOUS
  0
LAYER
  2
YELLOW3
  70
0
  62
2
  6
CONTINUOUS
  0
LAYER
  2
BLUE4
  70
0
  62
5
  6
CONTINUOUS
  0
LAYER
  2
GREEN4
  70
0
  62
3
  6
CONTINUOUS
  0
LAYER
  2
CYAN4
  70
0
  62
4
  6
CONTINUOUS
  0
LAYER
  2
RED4
  70
0
  62
1
  6
CONTINUOUS
  0
LAYER
  2
MAGENTA4
  70
0
  62
6
  6
CONTINUOUS
  0
LAYER
  2
YELLOW4
  70
0
  62
2
  6
CONTINUOUS
  0
ENDTAB
  0
ENDSEC
  0
SECTION
  2
ENTITIES
  0
TEXT
  7
KICADB
  8
Black
  10
83.82
  11
83.82
  20
-123.19
  21
-123.19
  40
1
  41
1
  50
0
  51
0
  71
0
  72
1
  73
2
  1
REV POL
  0
TEXT
  7
KICADB
  8
Black
  10
46.99
  11
46.99
  20
-52.745
  21
-52.745
  40
3
  41
1
  50
0
  51
0
  71
0
  72
1
  73
2
  1
FlipMaster 9000
  0
TEXT
  7
KICADB
  8
Black
  10
46.99
  11
46.99
  20
-57.745
  21
-57.745
  40
3
  41
1
  50
0
  51
0
  71
0
  72
1
  73
2
  1
Row Driver
  0
TEXT
  7
KICADB
  8
Black
  10
103.505
  11
103.505
  20
-123.19
  21
-123.19
  40
1
  41
1
  50
0
  51
0
  71
0
  72
1
  73
2
  1
PWR OK
0
LINE
8
Black
10
25
20
-25
11
125
21
-25
0
LINE
8
Black
10
25
20
-125
11
25
21
-25
0
LINE
8
Black
10
125
20
-125
11
25
21
-125
0
LINE
8
Black
10
125
20
-25
11
125
21
-125
0
LINE
8
Black
10
85.134
20
-120.214
11
84.934
21
-120.214
0
LINE
8
Black
10
82.54
20
-120.214
11
82.72
21
-120.214
0
ARC
8
Black
10
83.854
20
-118.714
40
1.9981
50
-239.848
51
-131.348
0
ARC
8
Black
10
83.854
20
-118.714
40
1.54614
50
-222.875
51
-137.175
0
ARC
8
Black
10
83.854
20
-118.704
40
1.98726
50
-48.8866
51
61.1134
0
ARC
8
Black
10
83.854
20
-118.714
40
1.4808
50
-43.2114
51
44.2886
0
LINE
8
Black
10
78.165
20
-120.82
11
52.645
21
-120.82
0
LINE
8
Black
10
52.645
20
-120.82
11
52.645
21
-123.48
0
LINE
8
Black
10
52.645
20
-123.48
11
78.165
21
-123.48
0
LINE
8
Black
10
78.165
20
-123.48
11
78.165
21
-120.82
0
LINE
8
Black
10
77.215
20
-123.48
11
77.215
21
-129.48
0
LINE
8
Black
10
77.215
20
-129.48
11
76.455
21
-129.48
0
LINE
8
Black
10
76.455
20
-129.48
11
76.455
21
-123.48
0
LINE
8
Black
10
77.155
20
-123.48
11
77.155
21
-129.48
0
LINE
8
Black
10
77.035
20
-123.48
11
77.035
21
-129.48
0
LINE
8
Black
10
76.915
20
-123.48
11
76.915
21
-129.48
0
LINE
8
Black
10
76.795
20
-123.48
11
76.795
21
-129.48
0
LINE
8
Black
10
76.675
20
-123.48
11
76.675
21
-129.48
0
LINE
8
Black
10
76.555
20
-123.48
11
76.555
21
-129.48
0
LINE
8
Black
10
77.215
20
-120.49
11
77.215
21
-120.82
0
LINE
8
Black
10
76.455
20
-120.49
11
76.455
21
-120.82
0
LINE
8
Black
10
75.565
20
-120.82
11
75.565
21
-123.48
0
LINE
8
Black
10
74.675
20
-123.48
11
74.675
21
-129.48
0
LINE
8
Black
10
74.675
20
-129.48
11
73.915
21
-129.48
0
LINE
8
Black
10
73.915
20
-129.48
11
73.915
21
-123.48
0
LINE
8
Black
10
74.675
20
-120.423
11
74.675
21
-120.82
0
LINE
8
Black
10
73.915
20
-120.423
11
73.915
21
-120.82
0
LINE
8
Black
10
73.025
20
-120.82
11
73.025
21
-123.48
0
LINE
8
Black
10
72.135
20
-123.48
11
72.135
21
-129.48
0
LINE
8
Black
10
72.135
20
-129.48
11
71.375
21
-129.48
0
LINE
8
Black
10
71.375
20
-129.48
11
71.375
21
-123.48
0
LINE
8
Black
10
72.135
20
-120.423
11
72.135
21
-120.82
0
LINE
8
Black
10
71.375
20
-120.423
11
71.375
21
-120.82
0
LINE
8
Black
10
70.485
20
-120.82
11
70.485
21
-123.48
0
LINE
8
Black
10
69.595
20
-123.48
11
69.595
21
-129.48
0
LINE
8
Black
10
69.595
20
-129.48
11
68.835
21
-129.48
0
LINE
8
Black
10
68.835
20
-129.48
11
68.835
21
-123.48
0
LINE
8
Black
10
69.595
20
-120.423
11
69.595
21
-120.82
0
LINE
8
Black
10
68.835
20
-120.423
11
68.835
21
-120.82
0
LINE
8
Black
10
67.945
20
-120.82
11
67.945
21
-123.48
0
LINE
8
Black
10
67.055
20
-123.48
11
67.055
21
-129.48
0
LINE
8
Black
10
67.055
20
-129.48
11
66.295
21
-129.48
0
LINE
8
Black
10
66.295
20
-129.48
11
66.295
21
-123.48
0
LINE
8
Black
10
67.055
20
-120.423
11
67.055
21
-120.82
0
LINE
8
Black
10
66.295
20
-120.423
11
66.295
21
-120.82
0
LINE
8
Black
10
65.405
20
-120.82
11
65.405
21
-123.48
0
LINE
8
Black
10
64.515
20
-123.48
11
64.515
21
-129.48
0
LINE
8
Black
10
64.515
20
-129.48
11
63.755
21
-129.48
0
LINE
8
Black
10
63.755
20
-129.48
11
63.755
21
-123.48
0
LINE
8
Black
10
64.515
20
-120.423
11
64.515
21
-120.82
0
LINE
8
Black
10
63.755
20
-120.423
11
63.755
21
-120.82
0
LINE
8
Black
10
62.865
20
-120.82
11
62.865
21
-123.48
0
LINE
8
Black
10
61.975
20
-123.48
11
61.975
21
-129.48
0
LINE
8
Black
10
61.975
20
-129.48
11
61.215
21
-129.48
0
LINE
8
Black
10
61.215
20
-129.48
11
61.215
21
-123.48
0
LINE
8
Black
10
61.975
20
-120.423
11
61.975
21
-120.82
0
LINE
8
Black
10
61.215
20
-120.423
11
61.215
21
-120.82
0
LINE
8
Black
10
60.325
20
-120.82
11
60.325
21
-123.48
0
LINE
8
Black
10
59.435
20
-123.48
11
59.435
21
-129.48
0
LINE
8
Black
10
59.435
20
-129.48
11
58.675
21
-129.48
0
LINE
8
Black
10
58.675
20
-129.48
11
58.675
21
-123.48
0
LINE
8
Black
10
59.435
20
-120.423
11
59.435
21
-120.82
0
LINE
8
Black
10
58.675
20
-120.423
11
58.675
21
-120.82
0
LINE
8
Black
10
57.785
20
-120.82
11
57.785
21
-123.48
0
LINE
8
Black
10
56.895
20
-123.48
11
56.895
21
-129.48
0
LINE
8
Black
10
56.895
20
-129.48
11
56.135
21
-129.48
0
LINE
8
Black
10
56.135
20
-129.48
11
56.135
21
-123.48
0
LINE
8
Black
10
56.895
20
-120.423
11
56.895
21
-120.82
0
LINE
8
Black
10
56.135
20
-120.423
11
56.135
21
-120.82
0
LINE
8
Black
10
55.245
20
-120.82
11
55.245
21
-123.48
0
LINE
8
Black
10
54.355
20
-123.48
11
54.355
21
-129.48
0
LINE
8
Black
10
54.355
20
-129.48
11
53.595
21
-129.48
0
LINE
8
Black
10
53.595
20
-129.48
11
53.595
21
-123.48
0
LINE
8
Black
10
54.355
20
-120.423
11
54.355
21
-120.82
0
LINE
8
Black
10
53.595
20
-120.423
11
53.595
21
-120.82
0
LINE
8
Black
10
76.835
20
-118.11
11
78.105
21
-118.11
0
LINE
8
Black
10
78.105
20
-118.11
11
78.105
21
-119.38
0
LINE
8
Black
10
88.2091
20
-125.613
11
97.2109
21
-125.613
0
LINE
8
Black
10
88.2091
20
-129.113
11
97.2109
21
-129.113
0
LINE
8
Black
10
97.2109
20
-129.113
11
97.2109
21
-114.612
0
LINE
8
Black
10
97.2109
20
-114.612
11
88.2091
21
-114.612
0
LINE
8
Black
10
88.2091
20
-114.612
11
88.2091
21
-129.113
0
LINE
8
Black
10
36.244
20
-37.514
11
36.244
21
-34.114
0
ARC
8
Black
10
34.544
20
-35.814
40
2.4
50
180
51
315
0
ARC
8
Black
10
34.544
20
-35.814
40
2.4
50
45
51
180
0
LINE
8
Black
10
39.335
20
-26.96
11
39.335
21
-26.63
0
LINE
8
Black
10
39.335
20
-26.63
11
45.755
21
-26.63
0
LINE
8
Black
10
45.755
20
-26.63
11
45.755
21
-26.96
0
LINE
8
Black
10
39.335
20
-28.92
11
39.335
21
-29.25
0
LINE
8
Black
10
39.335
20
-29.25
11
45.755
21
-29.25
0
LINE
8
Black
10
45.755
20
-29.25
11
45.755
21
-28.92
0
LINE
8
Black
10
122.005
20
-102.48
11
110.405
21
-102.48
0
LINE
8
Black
10
122.005
20
-110.88
11
122.005
21
-102.48
0
LINE
8
Black
10
110.405
20
-110.88
11
122.005
21
-110.88
0
LINE
8
Black
10
110.405
20
-102.48
11
110.405
21
-110.88
0
LINE
8
Black
10
38.616
20
-30.725
11
38.616
21
-31.995
0
LINE
8
Black
10
45.966
20
-30.725
11
45.966
21
-31.995
0
LINE
8
Black
10
45.966
20
-40.395
11
45.966
21
-39.125
0
LINE
8
Black
10
38.616
20
-40.395
11
38.616
21
-39.125
0
LINE
8
Black
10
38.616
20
-30.725
11
45.966
21
-30.725
0
LINE
8
Black
10
38.616
20
-40.395
11
45.966
21
-40.395
0
LINE
8
Black
10
38.616
20
-31.995
11
37.681
21
-31.995
0
LINE
8
Black
10
116.11
20
-47.73
11
57.6897
21
-47.73
0
LINE
8
Black
10
115.57
20
-47.18
11
58.2497
21
-47.18
0
LINE
8
Black
10
116.11
20
-38.63
11
57.6897
21
-38.63
0
LINE
8
Black
10
115.57
20
-39.18
11
89.1497
21
-39.18
0
LINE
8
Black
10
84.6497
20
-39.18
11
58.2497
21
-39.18
0
LINE
8
Black
10
89.1497
20
-39.18
11
89.1497
21
-38.63
0
LINE
8
Black
10
84.6497
20
-39.18
11
84.6497
21
-38.63
0
LINE
8
Black
10
116.11
20
-47.73
11
116.11
21
-38.63
0
LINE
8
Black
10
115.57
20
-47.18
11
115.57
21
-39.18
0
LINE
8
Black
10
57.6897
20
-47.73
11
57.6897
21
-38.63
0
LINE
8
Black
10
58.2497
20
-47.18
11
58.2497
21
-39.18
0
LINE
8
Black
10
116.11
20
-47.73
11
115.57
21
-47.18
0
LINE
8
Black
10
57.6897
20
-47.73
11
58.2497
21
-47.18
0
LINE
8
Black
10
116.11
20
-38.63
11
115.57
21
-39.18
0
LINE
8
Black
10
57.6897
20
-38.63
11
58.2497
21
-39.18
0
LINE
8
Black
10
38.078
20
-67.056
11
38.078
21
-87.376
0
LINE
8
Black
10
37.528
20
-67.596
11
37.528
21
-86.816
0
LINE
8
Black
10
28.978
20
-67.056
11
28.978
21
-87.376
0
LINE
8
Black
10
29.528
20
-67.596
11
29.528
21
-74.966
0
LINE
8
Black
10
29.528
20
-79.466
11
29.528
21
-86.816
0
LINE
8
Black
10
29.528
20
-74.966
11
28.978
21
-74.966
0
LINE
8
Black
10
29.528
20
-79.466
11
28.978
21
-79.466
0
LINE
8
Black
10
38.078
20
-67.056
11
28.978
21
-67.056
0
LINE
8
Black
10
37.528
20
-67.596
11
29.528
21
-67.596
0
LINE
8
Black
10
38.078
20
-87.376
11
28.978
21
-87.376
0
LINE
8
Black
10
37.528
20
-86.816
11
29.528
21
-86.816
0
LINE
8
Black
10
38.078
20
-67.056
11
37.528
21
-67.596
0
LINE
8
Black
10
38.078
20
-87.376
11
37.528
21
-86.816
0
LINE
8
Black
10
28.978
20
-67.056
11
29.528
21
-67.596
0
LINE
8
Black
10
28.978
20
-87.376
11
29.528
21
-86.816
0
LINE
8
Black
10
107.495
20
-118.825
11
123.495
21
-118.825
0
LINE
8
Black
10
123.495
20
-118.825
11
123.495
21
-122.245
0
LINE
8
Black
10
123.495
20
-122.245
11
122.445
21
-122.245
0
LINE
8
Black
10
122.445
20
-122.245
11
122.445
21
-128.445
0
LINE
8
Black
10
122.445
20
-128.445
11
108.545
21
-128.445
0
LINE
8
Black
10
108.545
20
-128.445
11
108.545
21
-122.245
0
LINE
8
Black
10
108.545
20
-122.245
11
107.495
21
-122.245
0
LINE
8
Black
10
107.495
20
-122.245
11
107.495
21
-118.825
0
LINE
8
Black
10
108.735
20
-128.445
11
108.735
21
-129.945
0
LINE
8
Black
10
108.735
20
-129.945
11
110.375
21
-129.945
0
LINE
8
Black
10
110.375
20
-129.945
11
110.375
21
-128.445
0
LINE
8
Black
10
112.695
20
-128.445
11
112.695
21
-129.945
0
LINE
8
Black
10
112.695
20
-129.945
11
114.335
21
-129.945
0
LINE
8
Black
10
114.335
20
-129.945
11
114.335
21
-128.445
0
LINE
8
Black
10
116.655
20
-128.445
11
116.655
21
-129.945
0
LINE
8
Black
10
116.655
20
-129.945
11
118.295
21
-129.945
0
LINE
8
Black
10
118.295
20
-129.945
11
118.295
21
-128.445
0
LINE
8
Black
10
120.615
20
-128.445
11
120.615
21
-129.945
0
LINE
8
Black
10
120.615
20
-129.945
11
122.255
21
-129.945
0
LINE
8
Black
10
122.255
20
-129.945
11
122.255
21
-128.445
0
LINE
8
Black
10
109.555
20
-113.325
11
107.945
21
-113.325
0
LINE
8
Black
10
107.945
20
-113.325
11
107.945
21
-114.935
0
LINE
8
Black
10
41.31
20
-41.67
11
42.51
21
-41.67
0
LINE
8
Black
10
42.51
20
-43.42
11
41.31
21
-43.42
0
LINE
8
Black
10
34.89
20
-42.785
11
33.69
21
-42.785
0
LINE
8
Black
10
33.69
20
-41.035
11
34.89
21
-41.035
0
LINE
8
Black
10
29.239
20
-41.035
11
30.439
21
-41.035
0
LINE
8
Black
10
30.439
20
-42.785
11
29.239
21
-42.785
0
LINE
8
Black
10
106.44
20
-74.895
11
106.44
21
-73.695
0
LINE
8
Black
10
108.19
20
-73.695
11
108.19
21
-74.895
0
LINE
8
Black
10
121.045
20
-74.895
11
121.045
21
-73.695
0
LINE
8
Black
10
122.795
20
-73.695
11
122.795
21
-74.895
0
LINE
8
Black
10
121.045
20
-91.405
11
121.045
21
-90.205
0
LINE
8
Black
10
122.795
20
-90.205
11
122.795
21
-91.405
0
LINE
8
Black
10
108.19
20
-90.205
11
108.19
21
-91.405
0
LINE
8
Black
10
106.44
20
-91.405
11
106.44
21
-90.205
0
LINE
8
Black
10
89.775
20
-73.695
11
89.775
21
-74.895
0
LINE
8
Black
10
88.025
20
-74.895
11
88.025
21
-73.695
0
LINE
8
Black
10
104.38
20
-73.695
11
104.38
21
-74.895
0
LINE
8
Black
10
102.63
20
-74.895
11
102.63
21
-73.695
0
LINE
8
Black
10
102.63
20
-91.405
11
102.63
21
-90.205
0
LINE
8
Black
10
104.38
20
-90.205
11
104.38
21
-91.405
0
LINE
8
Black
10
88.025
20
-91.405
11
88.025
21
-90.205
0
LINE
8
Black
10
89.775
20
-90.205
11
89.775
21
-91.405
0
LINE
8
Black
10
68.975
20
-74.895
11
68.975
21
-73.695
0
LINE
8
Black
10
70.725
20
-73.695
11
70.725
21
-74.895
0
LINE
8
Black
10
83.58
20
-74.895
11
83.58
21
-73.695
0
LINE
8
Black
10
85.33
20
-73.695
11
85.33
21
-74.895
0
LINE
8
Black
10
85.33
20
-90.205
11
85.33
21
-91.405
0
LINE
8
Black
10
83.58
20
-91.405
11
83.58
21
-90.205
0
LINE
8
Black
10
70.725
20
-90.205
11
70.725
21
-91.405
0
LINE
8
Black
10
68.975
20
-91.405
11
68.975
21
-90.205
0
LINE
8
Black
10
49.29
20
-74.895
11
49.29
21
-73.695
0
LINE
8
Black
10
51.04
20
-73.695
11
51.04
21
-74.895
0
LINE
8
Black
10
63.895
20
-74.895
11
63.895
21
-73.695
0
LINE
8
Black
10
65.645
20
-73.695
11
65.645
21
-74.895
0
LINE
8
Black
10
63.895
20
-91.405
11
63.895
21
-90.205
0
LINE
8
Black
10
65.645
20
-90.205
11
65.645
21
-91.405
0
LINE
8
Black
10
49.29
20
-91.405
11
49.29
21
-90.205
0
LINE
8
Black
10
51.04
20
-90.205
11
51.04
21
-91.405
0
LINE
8
Black
10
56.86
20
-91.805
11
56.86
21
-89.805
0
LINE
8
Black
10
56.86
20
-89.805
11
52.96
21
-89.805
0
LINE
8
Black
10
56.86
20
-91.805
11
52.96
21
-91.805
0
LINE
8
Black
10
62.575
20
-91.805
11
62.575
21
-89.805
0
LINE
8
Black
10
62.575
20
-89.805
11
58.675
21
-89.805
0
LINE
8
Black
10
62.575
20
-91.805
11
58.675
21
-91.805
0
LINE
8
Black
10
58.075
20
-73.295
11
58.075
21
-75.295
0
LINE
8
Black
10
58.075
20
-75.295
11
61.975
21
-75.295
0
LINE
8
Black
10
58.075
20
-73.295
11
61.975
21
-73.295
0
LINE
8
Black
10
52.36
20
-73.295
11
52.36
21
-75.295
0
LINE
8
Black
10
52.36
20
-75.295
11
56.26
21
-75.295
0
LINE
8
Black
10
52.36
20
-73.295
11
56.26
21
-73.295
0
LINE
8
Black
10
76.545
20
-91.805
11
76.545
21
-89.805
0
LINE
8
Black
10
76.545
20
-89.805
11
72.645
21
-89.805
0
LINE
8
Black
10
76.545
20
-91.805
11
72.645
21
-91.805
0
LINE
8
Black
10
82.26
20
-91.805
11
82.26
21
-89.805
0
LINE
8
Black
10
82.26
20
-89.805
11
78.36
21
-89.805
0
LINE
8
Black
10
82.26
20
-91.805
11
78.36
21
-91.805
0
LINE
8
Black
10
77.76
20
-73.295
11
77.76
21
-75.295
0
LINE
8
Black
10
77.76
20
-75.295
11
81.66
21
-75.295
0
LINE
8
Black
10
77.76
20
-73.295
11
81.66
21
-73.295
0
LINE
8
Black
10
72.045
20
-73.295
11
72.045
21
-75.295
0
LINE
8
Black
10
72.045
20
-75.295
11
75.945
21
-75.295
0
LINE
8
Black
10
72.045
20
-73.295
11
75.945
21
-73.295
0
LINE
8
Black
10
95.595
20
-91.805
11
95.595
21
-89.805
0
LINE
8
Black
10
95.595
20
-89.805
11
91.695
21
-89.805
0
LINE
8
Black
10
95.595
20
-91.805
11
91.695
21
-91.805
0
LINE
8
Black
10
101.31
20
-91.805
11
101.31
21
-89.805
0
LINE
8
Black
10
101.31
20
-89.805
11
97.41
21
-89.805
0
LINE
8
Black
10
101.31
20
-91.805
11
97.41
21
-91.805
0
LINE
8
Black
10
96.81
20
-73.295
11
96.81
21
-75.295
0
LINE
8
Black
10
96.81
20
-75.295
11
100.71
21
-75.295
0
LINE
8
Black
10
96.81
20
-73.295
11
100.71
21
-73.295
0
LINE
8
Black
10
91.095
20
-73.295
11
91.095
21
-75.295
0
LINE
8
Black
10
91.095
20
-75.295
11
94.995
21
-75.295
0
LINE
8
Black
10
91.095
20
-73.295
11
94.995
21
-73.295
0
LINE
8
Black
10
114.01
20
-91.805
11
114.01
21
-89.805
0
LINE
8
Black
10
114.01
20
-89.805
11
110.11
21
-89.805
0
LINE
8
Black
10
114.01
20
-91.805
11
110.11
21
-91.805
0
LINE
8
Black
10
119.725
20
-91.805
11
119.725
21
-89.805
0
LINE
8
Black
10
119.725
20
-89.805
11
115.825
21
-89.805
0
LINE
8
Black
10
119.725
20
-91.805
11
115.825
21
-91.805
0
LINE
8
Black
10
115.225
20
-73.295
11
115.225
21
-75.295
0
LINE
8
Black
10
115.225
20
-75.295
11
119.125
21
-75.295
0
LINE
8
Black
10
115.225
20
-73.295
11
119.125
21
-73.295
0
LINE
8
Black
10
109.51
20
-73.295
11
109.51
21
-75.295
0
LINE
8
Black
10
109.51
20
-75.295
11
113.41
21
-75.295
0
LINE
8
Black
10
109.51
20
-73.295
11
113.41
21
-73.295
0
LINE
8
Black
10
49.745
20
-86.225
11
49.745
21
-85.225
0
LINE
8
Black
10
48.045
20
-85.225
11
48.045
21
-86.225
0
LINE
8
Black
10
68.795
20
-86.225
11
68.795
21
-85.225
0
LINE
8
Black
10
67.095
20
-85.225
11
67.095
21
-86.225
0
LINE
8
Black
10
87.845
20
-86.225
11
87.845
21
-85.225
0
LINE
8
Black
10
86.145
20
-85.225
11
86.145
21
-86.225
0
LINE
8
Black
10
106.895
20
-86.225
11
106.895
21
-85.225
0
LINE
8
Black
10
105.195
20
-85.225
11
105.195
21
-86.225
0
LINE
8
Black
10
77.565
20
-27.805
11
77.565
21
-28.465
0
LINE
8
Black
10
77.565
20
-26.145
11
77.565
21
-26.805
0
LINE
8
Black
10
77.565
20
-26.145
11
75.535
21
-26.145
0
LINE
8
Black
10
76.155
20
-28.465
11
77.565
21
-28.465
0
LINE
8
Black
10
82.645
20
-27.805
11
82.645
21
-28.465
0
LINE
8
Black
10
82.645
20
-26.145
11
82.645
21
-26.805
0
LINE
8
Black
10
82.645
20
-26.145
11
80.615
21
-26.145
0
LINE
8
Black
10
81.235
20
-28.465
11
82.645
21
-28.465
0
LINE
8
Black
10
87.725
20
-27.805
11
87.725
21
-28.465
0
LINE
8
Black
10
87.725
20
-26.145
11
87.725
21
-26.805
0
LINE
8
Black
10
87.725
20
-26.145
11
85.695
21
-26.145
0
LINE
8
Black
10
86.315
20
-28.465
11
87.725
21
-28.465
0
LINE
8
Black
10
92.805
20
-27.805
11
92.805
21
-28.465
0
LINE
8
Black
10
92.805
20
-26.145
11
92.805
21
-26.805
0
LINE
8
Black
10
92.805
20
-26.145
11
90.775
21
-26.145
0
LINE
8
Black
10
91.395
20
-28.465
11
92.805
21
-28.465
0
LINE
8
Black
10
97.885
20
-27.805
11
97.885
21
-28.465
0
LINE
8
Black
10
97.885
20
-26.145
11
97.885
21
-26.805
0
LINE
8
Black
10
97.885
20
-26.145
11
95.855
21
-26.145
0
LINE
8
Black
10
96.475
20
-28.465
11
97.885
21
-28.465
0
LINE
8
Black
10
102.965
20
-27.805
11
102.965
21
-28.465
0
LINE
8
Black
10
102.965
20
-26.145
11
102.965
21
-26.805
0
LINE
8
Black
10
102.965
20
-26.145
11
100.935
21
-26.145
0
LINE
8
Black
10
101.555
20
-28.465
11
102.965
21
-28.465
0
LINE
8
Black
10
108.045
20
-27.805
11
108.045
21
-28.465
0
LINE
8
Black
10
108.045
20
-26.145
11
108.045
21
-26.805
0
LINE
8
Black
10
108.045
20
-26.145
11
106.015
21
-26.145
0
LINE
8
Black
10
106.635
20
-28.465
11
108.045
21
-28.465
0
LINE
8
Black
10
113.125
20
-27.805
11
113.125
21
-28.465
0
LINE
8
Black
10
113.125
20
-26.145
11
113.125
21
-26.805
0
LINE
8
Black
10
113.125
20
-26.145
11
111.095
21
-26.145
0
LINE
8
Black
10
111.715
20
-28.465
11
113.125
21
-28.465
0
ARC
8
Black
10
27.94
20
-112.395
40
1.905
50
-180
51
-90
0
LINE
8
Black
10
28
20
-114.31
11
63.5
21
-114.3
0
LINE
8
Black
10
26.035
20
-98.41
11
26.035
21
-112.41
0
LINE
8
Black
10
27.9
20
-96.51
11
63.5
21
-96.52
0
LINE
8
Black
10
63.5
20
-114.3
11
63.5
21
-96.52
0
ARC
8
Black
10
27.94
20
-98.425
40
1.905
50
90
51
180
0
LINE
8
Black
10
50.5726
20
-86.425
11
50.8226
21
-86.425
0
LINE
8
Black
10
50.5726
20
-78.675
11
50.9076
21
-78.675
0
LINE
8
Black
10
63.7226
20
-78.675
11
63.3876
21
-78.675
0
LINE
8
Black
10
63.7226
20
-86.425
11
63.3876
21
-86.425
0
LINE
8
Black
10
50.5726
20
-86.425
11
50.5726
21
-78.675
0
LINE
8
Black
10
63.7226
20
-86.425
11
63.7226
21
-78.675
0
LINE
8
Black
10
50.8226
20
-86.425
11
50.8226
21
-88.225
0
LINE
8
Black
10
69.625
20
-86.425
11
69.875
21
-86.425
0
LINE
8
Black
10
69.625
20
-78.675
11
69.96
21
-78.675
0
LINE
8
Black
10
82.775
20
-78.675
11
82.44
21
-78.675
0
LINE
8
Black
10
82.775
20
-86.425
11
82.44
21
-86.425
0
LINE
8
Black
10
69.625
20
-86.425
11
69.625
21
-78.675
0
LINE
8
Black
10
82.775
20
-86.425
11
82.775
21
-78.675
0
LINE
8
Black
10
69.875
20
-86.425
11
69.875
21
-88.225
0
LINE
8
Black
10
78.378
20
-62.803
11
78.628
21
-62.803
0
LINE
8
Black
10
78.378
20
-55.053
11
78.723
21
-55.053
0
LINE
8
Black
10
90.278
20
-55.053
11
89.933
21
-55.053
0
LINE
8
Black
10
90.278
20
-62.803
11
89.933
21
-62.803
0
LINE
8
Black
10
78.378
20
-62.803
11
78.378
21
-55.053
0
LINE
8
Black
10
90.278
20
-62.803
11
90.278
21
-55.053
0
LINE
8
Black
10
78.628
20
-62.803
11
78.628
21
-64.628
0
LINE
8
Black
10
88.675
20
-86.425
11
88.925
21
-86.425
0
LINE
8
Black
10
88.675
20
-78.675
11
89.01
21
-78.675
0
LINE
8
Black
10
101.825
20
-78.675
11
101.49
21
-78.675
0
LINE
8
Black
10
101.825
20
-86.425
11
101.49
21
-86.425
0
LINE
8
Black
10
88.675
20
-86.425
11
88.675
21
-78.675
0
LINE
8
Black
10
101.825
20
-86.425
11
101.825
21
-78.675
0
LINE
8
Black
10
88.925
20
-86.425
11
88.925
21
-88.225
0
LINE
8
Black
10
107.598
20
-86.425
11
107.848
21
-86.425
0
LINE
8
Black
10
107.598
20
-78.675
11
107.933
21
-78.675
0
LINE
8
Black
10
120.748
20
-78.675
11
120.413
21
-78.675
0
LINE
8
Black
10
120.748
20
-86.425
11
120.413
21
-86.425
0
LINE
8
Black
10
107.598
20
-86.425
11
107.598
21
-78.675
0
LINE
8
Black
10
120.748
20
-86.425
11
120.748
21
-78.675
0
LINE
8
Black
10
107.848
20
-86.425
11
107.848
21
-88.225
0
LINE
8
Black
10
97.682
20
-63.311
11
97.932
21
-63.311
0
LINE
8
Black
10
97.682
20
-55.561
11
98.027
21
-55.561
0
LINE
8
Black
10
109.582
20
-55.561
11
109.237
21
-55.561
0
LINE
8
Black
10
109.582
20
-63.311
11
109.237
21
-63.311
0
LINE
8
Black
10
97.682
20
-63.311
11
97.682
21
-55.561
0
LINE
8
Black
10
109.582
20
-63.311
11
109.582
21
-55.561
0
LINE
8
Black
10
97.932
20
-63.311
11
97.932
21
-65.136
0
LINE
8
Black
10
104.184
20
-120.214
11
103.984
21
-120.214
0
LINE
8
Black
10
101.59
20
-120.214
11
101.77
21
-120.214
0
ARC
8
Black
10
102.904
20
-118.714
40
1.9981
50
-239.848
51
-131.348
0
ARC
8
Black
10
102.904
20
-118.714
40
1.54614
50
-222.875
51
-137.175
0
ARC
8
Black
10
102.904
20
-118.704
40
1.98726
50
-48.8866
51
61.1134
0
ARC
8
Black
10
102.904
20
-118.714
40
1.4808
50
-43.2114
51
44.2886
0
LINE
8
Black
10
100.652
20
-102.364
11
100.652
21
-112.604
0
LINE
8
Black
10
96.0114
20
-102.364
11
96.0114
21
-112.604
0
LINE
8
Black
10
100.652
20
-102.364
11
96.0114
21
-102.364
0
LINE
8
Black
10
100.652
20
-112.604
11
96.0114
21
-112.604
0
LINE
8
Black
10
99.1424
20
-102.364
11
99.1424
21
-112.604
0
LINE
8
Black
10
100.652
20
-105.634
11
99.1424
21
-105.634
0
LINE
8
Black
10
100.652
20
-109.335
11
99.1424
21
-109.335
0
LINE
8
Black
10
93.6824
20
-105.629
11
91.9624
21
-105.629
0
LINE
8
Black
10
91.9624
20
-105.629
11
91.9624
21
-109.349
0
LINE
8
Black
10
91.9624
20
-109.349
11
93.6824
21
-109.349
0
LINE
8
Black
10
93.6824
20
-109.349
11
93.6824
21
-105.629
0
LINE
8
Black
10
92.8224
20
-104.559
11
92.8224
21
-105.629
0
LINE
8
Black
10
92.8224
20
-110.419
11
92.8224
21
-109.349
0
LINE
8
Black
10
108.432
20
-106.249
11
108.432
21
-107.449
0
LINE
8
Black
10
106.682
20
-107.449
11
106.682
21
-106.249
0
LINE
8
Black
10
103.47
20
-115.175
11
102.27
21
-115.175
0
LINE
8
Black
10
102.27
20
-113.425
11
103.47
21
-113.425
0
LINE
8
Black
10
46.415
20
-120.82
11
31.055
21
-120.82
0
LINE
8
Black
10
31.055
20
-120.82
11
31.055
21
-123.48
0
LINE
8
Black
10
31.055
20
-123.48
11
46.415
21
-123.48
0
LINE
8
Black
10
46.415
20
-123.48
11
46.415
21
-120.82
0
LINE
8
Black
10
45.465
20
-123.48
11
45.465
21
-129.48
0
LINE
8
Black
10
45.465
20
-129.48
11
44.705
21
-129.48
0
LINE
8
Black
10
44.705
20
-129.48
11
44.705
21
-123.48
0
LINE
8
Black
10
45.405
20
-123.48
11
45.405
21
-129.48
0
LINE
8
Black
10
45.285
20
-123.48
11
45.285
21
-129.48
0
LINE
8
Black
10
45.165
20
-123.48
11
45.165
21
-129.48
0
LINE
8
Black
10
45.045
20
-123.48
11
45.045
21
-129.48
0
LINE
8
Black
10
44.925
20
-123.48
11
44.925
21
-129.48
0
LINE
8
Black
10
44.805
20
-123.48
11
44.805
21
-129.48
0
LINE
8
Black
10
45.465
20
-120.49
11
45.465
21
-120.82
0
LINE
8
Black
10
44.705
20
-120.49
11
44.705
21
-120.82
0
LINE
8
Black
10
43.815
20
-120.82
11
43.815
21
-123.48
0
LINE
8
Black
10
42.925
20
-123.48
11
42.925
21
-129.48
0
LINE
8
Black
10
42.925
20
-129.48
11
42.165
21
-129.48
0
LINE
8
Black
10
42.165
20
-129.48
11
42.165
21
-123.48
0
LINE
8
Black
10
42.925
20
-120.423
11
42.925
21
-120.82
0
LINE
8
Black
10
42.165
20
-120.423
11
42.165
21
-120.82
0
LINE
8
Black
10
41.275
20
-120.82
11
41.275
21
-123.48
0
LINE
8
Black
10
40.385
20
-123.48
11
40.385
21
-129.48
0
LINE
8
Black
10
40.385
20
-129.48
11
39.625
21
-129.48
0
LINE
8
Black
10
39.625
20
-129.48
11
39.625
21
-123.48
0
LINE
8
Black
10
40.385
20
-120.423
11
40.385
21
-120.82
0
LINE
8
Black
10
39.625
20
-120.423
11
39.625
21
-120.82
0
LINE
8
Black
10
38.735
20
-120.82
11
38.735
21
-123.48
0
LINE
8
Black
10
37.845
20
-123.48
11
37.845
21
-129.48
0
LINE
8
Black
10
37.845
20
-129.48
11
37.085
21
-129.48
0
LINE
8
Black
10
37.085
20
-129.48
11
37.085
21
-123.48
0
LINE
8
Black
10
37.845
20
-120.423
11
37.845
21
-120.82
0
LINE
8
Black
10
37.085
20
-120.423
11
37.085
21
-120.82
0
LINE
8
Black
10
36.195
20
-120.82
11
36.195
21
-123.48
0
LINE
8
Black
10
35.305
20
-123.48
11
35.305
21
-129.48
0
LINE
8
Black
10
35.305
20
-129.48
11
34.545
21
-129.48
0
LINE
8
Black
10
34.545
20
-129.48
11
34.545
21
-123.48
0
LINE
8
Black
10
35.305
20
-120.423
11
35.305
21
-120.82
0
LINE
8
Black
10
34.545
20
-120.423
11
34.545
21
-120.82
0
LINE
8
Black
10
33.655
20
-120.82
11
33.655
21
-123.48
0
LINE
8
Black
10
32.765
20
-123.48
11
32.765
21
-129.48
0
LINE
8
Black
10
32.765
20
-129.48
11
32.005
21
-129.48
0
LINE
8
Black
10
32.005
20
-129.48
11
32.005
21
-123.48
0
LINE
8
Black
10
32.765
20
-120.423
11
32.765
21
-120.82
0
LINE
8
Black
10
32.005
20
-120.423
11
32.005
21
-120.82
0
LINE
8
Black
10
45.085
20
-118.11
11
46.355
21
-118.11
0
LINE
8
Black
10
46.355
20
-118.11
11
46.355
21
-119.38
0
LINE
8
Black
10
96.58
20
-101.025
11
96.58
21
-98.365
0
LINE
8
Black
10
93.98
20
-101.025
11
96.58
21
-101.025
0
LINE
8
Black
10
93.98
20
-98.365
11
96.58
21
-98.365
0
LINE
8
Black
10
93.98
20
-101.025
11
93.98
21
-98.365
0
LINE
8
Black
10
92.71
20
-101.025
11
91.38
21
-101.025
0
LINE
8
Black
10
91.38
20
-101.025
11
91.38
21
-99.695
0
LINE
8
Black
10
29.508
20
-29.6895
11
27.388
21
-29.6895
0
LINE
8
Black
10
27.388
20
-29.6895
11
27.388
21
-33.8095
0
LINE
8
Black
10
27.388
20
-33.8095
11
29.508
21
-33.8095
0
LINE
8
Black
10
29.508
20
-33.8095
11
29.508
21
-29.6895
0
LINE
8
Black
10
28.448
20
-28.9195
11
28.448
21
-29.6895
0
LINE
8
Black
10
28.448
20
-34.5795
11
28.448
21
-33.8095
0
LINE
8
Black
10
29.508
20
-30.3495
11
27.388
21
-30.3495
0
LINE
8
Black
10
89.5674
20
-105.424
11
87.4474
21
-105.424
0
LINE
8
Black
10
87.4474
20
-105.424
11
87.4474
21
-109.544
0
LINE
8
Black
10
87.4474
20
-109.544
11
89.5674
21
-109.544
0
LINE
8
Black
10
89.5674
20
-109.544
11
89.5674
21
-105.424
0
LINE
8
Black
10
88.5074
20
-104.654
11
88.5074
21
-105.424
0
LINE
8
Black
10
88.5074
20
-110.314
11
88.5074
21
-109.544
0
LINE
8
Black
10
89.5674
20
-106.084
11
87.4474
21
-106.084
0
LINE
8
Black
10
102.467
20
-110.144
11
102.337
21
-110.144
0
LINE
8
Black
10
102.337
20
-110.144
11
102.337
21
-104.824
0
LINE
8
Black
10
102.337
20
-104.824
11
102.467
21
-104.824
0
LINE
8
Black
10
105.027
20
-110.144
11
105.157
21
-110.144
0
LINE
8
Black
10
105.157
20
-110.144
11
105.157
21
-104.824
0
LINE
8
Black
10
105.157
20
-104.824
11
105.027
21
-104.824
0
LINE
8
Black
10
102.337
20
-109.304
11
105.157
21
-109.304
  0
TEXT
  7
KICADB
  8
Black
  10
86.88
  11
86.88
  20
-118.105
  21
-118.105
  40
1
  41
1
  50
90
  51
0
  71
0
  72
1
  73
2
  1
D18
  0
TEXT
  7
KICADB
  8
Black
  10
85.56
  11
85.56
  20
-121.705
  21
-121.705
  40
1
  41
1
  50
90
  51
0
  71
0
  72
1
  73
2
  1
K
  0
TEXT
  7
KICADB
  8
Black
  10
79.105
  11
79.105
  20
-123.765
  21
-123.765
  40
1
  41
1
  50
90
  51
0
  71
0
  72
1
  73
2
  1
J5
  0
TEXT
  7
KICADB
  8
Black
  10
98.425
  11
98.425
  20
-123.952
  21
-123.952
  40
1
  41
1
  50
0
  51
0
  71
0
  72
1
  73
2
  1
J6
  0
TEXT
  7
KICADB
  8
Black
  10
30.544
  11
30.544
  20
-37.084
  21
-37.084
  40
1
  41
1
  50
90
  51
0
  71
0
  72
1
  73
2
  1
Q1
  0
TEXT
  7
KICADB
  8
Black
  10
42.545
  11
42.545
  20
-25.63
  21
-25.63
  40
1
  41
1
  50
0
  51
0
  71
0
  72
1
  73
2
  1
R22
  0
TEXT
  7
KICADB
  8
Black
  10
116.105
  11
116.105
  20
-100.58
  21
-100.58
  40
1
  41
1
  50
0
  51
0
  71
0
  72
1
  73
2
  1
U7
  0
TEXT
  7
KICADB
  8
Black
  10
38.481
  11
38.481
  20
-27.8
  21
-27.8
  40
1
  41
1
  50
0
  51
0
  71
0
  72
1
  73
2
  1
U8
  0
TEXT
  7
KICADB
  8
Black
  10
55.1497
  11
55.1497
  20
-43.18
  21
-43.18
  40
1
  41
1
  50
0
  51
0
  71
0
  72
1
  73
2
  1
J2
  0
TEXT
  7
KICADB
  8
Black
  10
39.878
  11
39.878
  20
-77.216
  21
-77.216
  40
1
  41
1
  50
90
  51
0
  71
0
  72
1
  73
2
  1
J4
  0
TEXT
  7
KICADB
  8
Black
  10
115.495
  11
115.495
  20
-112.385
  21
-112.385
  40
1
  41
1
  50
0
  51
0
  71
0
  72
1
  73
2
  1
J3
  0
TEXT
  7
KICADB
  8
Black
  10
39.37
  11
39.37
  20
-42.545
  21
-42.545
  40
0.85
  41
1
  50
0
  51
0
  71
0
  72
1
  73
2
  1
R25
  0
TEXT
  7
KICADB
  8
Black
  10
36.83
  11
36.83
  20
-41.91
  21
-41.91
  40
0.85
  41
1
  50
0
  51
0
  71
0
  72
1
  73
2
  1
R24
  0
TEXT
  7
KICADB
  8
Black
  10
27.299
  11
27.299
  20
-41.91
  21
-41.91
  40
0.85
  41
1
  50
0
  51
0
  71
0
  72
1
  73
2
  1
R23
  0
TEXT
  7
KICADB
  8
Black
  10
107.315
  11
107.315
  20
-72.136
  21
-72.136
  40
0.85
  41
1
  50
0
  51
0
  71
0
  72
1
  73
2
  1
R16
  0
TEXT
  7
KICADB
  8
Black
  10
121.92
  11
121.92
  20
-72.136
  21
-72.136
  40
0.85
  41
1
  50
0
  51
0
  71
0
  72
1
  73
2
  1
R15
  0
TEXT
  7
KICADB
  8
Black
  10
121.92
  11
121.92
  20
-93.345
  21
-93.345
  40
0.85
  41
1
  50
90
  51
0
  71
0
  72
1
  73
2
  1
R14
  0
TEXT
  7
KICADB
  8
Black
  10
107.315
  11
107.315
  20
-93.345
  21
-93.345
  40
0.85
  41
1
  50
90
  51
0
  71
0
  72
1
  73
2
  1
R13
  0
TEXT
  7
KICADB
  8
Black
  10
89.154
  11
89.154
  20
-72.136
  21
-72.136
  40
0.85
  41
1
  50
0
  51
0
  71
0
  72
1
  73
2
  1
R12
  0
TEXT
  7
KICADB
  8
Black
  10
103.505
  11
103.505
  20
-72.136
  21
-72.136
  40
0.85
  41
1
  50
0
  51
0
  71
0
  72
1
  73
2
  1
R11
  0
TEXT
  7
KICADB
  8
Black
  10
103.505
  11
103.505
  20
-93.853
  21
-93.853
  40
0.85
  41
1
  50
90
  51
0
  71
0
  72
1
  73
2
  1
R10
  0
TEXT
  7
KICADB
  8
Black
  10
88.9
  11
88.9
  20
-93.345
  21
-93.345
  40
0.85
  41
1
  50
90
  51
0
  71
0
  72
1
  73
2
  1
R9
  0
TEXT
  7
KICADB
  8
Black
  10
69.85
  11
69.85
  20
-72.136
  21
-72.136
  40
0.85
  41
1
  50
0
  51
0
  71
0
  72
1
  73
2
  1
R8
  0
TEXT
  7
KICADB
  8
Black
  10
84.455
  11
84.455
  20
-72.136
  21
-72.136
  40
0.85
  41
1
  50
0
  51
0
  71
0
  72
1
  73
2
  1
R7
  0
TEXT
  7
KICADB
  8
Black
  10
84.455
  11
84.455
  20
-93.345
  21
-93.345
  40
0.85
  41
1
  50
0
  51
0
  71
0
  72
1
  73
2
  1
R6
  0
TEXT
  7
KICADB
  8
Black
  10
69.85
  11
69.85
  20
-93.345
  21
-93.345
  40
0.85
  41
1
  50
0
  51
0
  71
0
  72
1
  73
2
  1
R5
  0
TEXT
  7
KICADB
  8
Black
  10
50.038
  11
50.038
  20
-72.136
  21
-72.136
  40
0.85
  41
1
  50
0
  51
0
  71
0
  72
1
  73
2
  1
R4
  0
TEXT
  7
KICADB
  8
Black
  10
64.77
  11
64.77
  20
-72.136
  21
-72.136
  40
0.85
  41
1
  50
0
  51
0
  71
0
  72
1
  73
2
  1
R3
  0
TEXT
  7
KICADB
  8
Black
  10
64.77
  11
64.77
  20
-93.345
  21
-93.345
  40
0.85
  41
1
  50
0
  51
0
  71
0
  72
1
  73
2
  1
R2
  0
TEXT
  7
KICADB
  8
Black
  10
50.165
  11
50.165
  20
-93.345
  21
-93.345
  40
0.85
  41
1
  50
0
  51
0
  71
0
  72
1
  73
2
  1
R1
  0
TEXT
  7
KICADB
  8
Black
  10
54.61
  11
54.61
  20
-92.555
  21
-92.555
  40
0.85
  41
1
  50
0
  51
0
  71
0
  72
1
  73
2
  1
D101
  0
TEXT
  7
KICADB
  8
Black
  10
60.325
  11
60.325
  20
-92.555
  21
-92.555
  40
0.85
  41
1
  50
0
  51
0
  71
0
  72
1
  73
2
  1
D102
  0
TEXT
  7
KICADB
  8
Black
  10
60.325
  11
60.325
  20
-72.545
  21
-72.545
  40
0.85
  41
1
  50
0
  51
0
  71
0
  72
1
  73
2
  1
D103
  0
TEXT
  7
KICADB
  8
Black
  10
54.61
  11
54.61
  20
-72.545
  21
-72.545
  40
0.85
  41
1
  50
0
  51
0
  71
0
  72
1
  73
2
  1
D104
  0
TEXT
  7
KICADB
  8
Black
  10
74.295
  11
74.295
  20
-92.555
  21
-92.555
  40
0.85
  41
1
  50
0
  51
0
  71
0
  72
1
  73
2
  1
D105
  0
TEXT
  7
KICADB
  8
Black
  10
80.01
  11
80.01
  20
-92.555
  21
-92.555
  40
0.85
  41
1
  50
0
  51
0
  71
0
  72
1
  73
2
  1
D106
  0
TEXT
  7
KICADB
  8
Black
  10
80.01
  11
80.01
  20
-72.545
  21
-72.545
  40
0.85
  41
1
  50
0
  51
0
  71
0
  72
1
  73
2
  1
D107
  0
TEXT
  7
KICADB
  8
Black
  10
74.295
  11
74.295
  20
-72.545
  21
-72.545
  40
0.85
  41
1
  50
0
  51
0
  71
0
  72
1
  73
2
  1
D108
  0
TEXT
  7
KICADB
  8
Black
  10
93.345
  11
93.345
  20
-92.555
  21
-92.555
  40
0.85
  41
1
  50
0
  51
0
  71
0
  72
1
  73
2
  1
D109
  0
TEXT
  7
KICADB
  8
Black
  10
99.06
  11
99.06
  20
-92.555
  21
-92.555
  40
0.85
  41
1
  50
0
  51
0
  71
0
  72
1
  73
2
  1
D110
  0
TEXT
  7
KICADB
  8
Black
  10
99.06
  11
99.06
  20
-72.545
  21
-72.545
  40
0.85
  41
1
  50
0
  51
0
  71
0
  72
1
  73
2
  1
D111
  0
TEXT
  7
KICADB
  8
Black
  10
93.345
  11
93.345
  20
-72.545
  21
-72.545
  40
0.85
  41
1
  50
0
  51
0
  71
0
  72
1
  73
2
  1
D112
  0
TEXT
  7
KICADB
  8
Black
  10
111.76
  11
111.76
  20
-92.555
  21
-92.555
  40
0.85
  41
1
  50
0
  51
0
  71
0
  72
1
  73
2
  1
D113
  0
TEXT
  7
KICADB
  8
Black
  10
117.475
  11
117.475
  20
-92.555
  21
-92.555
  40
0.85
  41
1
  50
0
  51
0
  71
0
  72
1
  73
2
  1
D114
  0
TEXT
  7
KICADB
  8
Black
  10
117.475
  11
117.475
  20
-72.545
  21
-72.545
  40
0.85
  41
1
  50
0
  51
0
  71
0
  72
1
  73
2
  1
D115
  0
TEXT
  7
KICADB
  8
Black
  10
111.76
  11
111.76
  20
-72.545
  21
-72.545
  40
0.85
  41
1
  50
0
  51
0
  71
0
  72
1
  73
2
  1
D116
  0
TEXT
  7
KICADB
  8
Black
  10
48.895
  11
48.895
  20
-88.265
  21
-88.265
  40
0.85
  41
1
  50
0
  51
0
  71
0
  72
1
  73
2
  1
C1
  0
TEXT
  7
KICADB
  8
Black
  10
67.945
  11
67.945
  20
-88.265
  21
-88.265
  40
0.85
  41
1
  50
0
  51
0
  71
0
  72
1
  73
2
  1
C2
  0
TEXT
  7
KICADB
  8
Black
  10
86.995
  11
86.995
  20
-88.265
  21
-88.265
  40
0.85
  41
1
  50
0
  51
0
  71
0
  72
1
  73
2
  1
C3
  0
TEXT
  7
KICADB
  8
Black
  10
106.045
  11
106.045
  20
-88.265
  21
-88.265
  40
0.85
  41
1
  50
0
  51
0
  71
0
  72
1
  73
2
  1
C4
  0
TEXT
  7
KICADB
  8
Black
  10
74.295
  11
74.295
  20
-27.305
  21
-27.305
  40
1
  41
1
  50
90
  51
0
  71
0
  72
1
  73
2
  1
D9
  0
TEXT
  7
KICADB
  8
Black
  10
79.375
  11
79.375
  20
-27.305
  21
-27.305
  40
1
  41
1
  50
90
  51
0
  71
0
  72
1
  73
2
  1
D10
  0
TEXT
  7
KICADB
  8
Black
  10
84.455
  11
84.455
  20
-27.305
  21
-27.305
  40
1
  41
1
  50
90
  51
0
  71
0
  72
1
  73
2
  1
D11
  0
TEXT
  7
KICADB
  8
Black
  10
89.535
  11
89.535
  20
-27.305
  21
-27.305
  40
1
  41
1
  50
90
  51
0
  71
0
  72
1
  73
2
  1
D12
  0
TEXT
  7
KICADB
  8
Black
  10
94.615
  11
94.615
  20
-27.305
  21
-27.305
  40
1
  41
1
  50
90
  51
0
  71
0
  72
1
  73
2
  1
D13
  0
TEXT
  7
KICADB
  8
Black
  10
99.695
  11
99.695
  20
-27.305
  21
-27.305
  40
1
  41
1
  50
90
  51
0
  71
0
  72
1
  73
2
  1
D14
  0
TEXT
  7
KICADB
  8
Black
  10
104.775
  11
104.775
  20
-27.305
  21
-27.305
  40
1
  41
1
  50
90
  51
0
  71
0
  72
1
  73
2
  1
D15
  0
TEXT
  7
KICADB
  8
Black
  10
109.855
  11
109.855
  20
-27.305
  21
-27.305
  40
1
  41
1
  50
90
  51
0
  71
0
  72
1
  73
2
  1
D16
  0
TEXT
  7
KICADB
  8
Black
  10
65.8
  11
65.8
  20
-105.41
  21
-105.41
  40
1
  41
1
  50
90
  51
0
  71
0
  72
1
  73
2
  1
U11
  0
TEXT
  7
KICADB
  8
Black
  10
53.467
  11
53.467
  20
-94.615
  21
-94.615
  40
1
  41
1
  50
90
  51
0
  71
0
  72
1
  73
2
  1
%%O
  0
TEXT
  7
KICADB
  8
Black
  10
29.083
  11
29.083
  20
-115.443
  21
-115.443
  40
1
  41
1
  50
90
  51
0
  71
0
  72
1
  73
2
  1
%%O
  0
TEXT
  7
KICADB
  8
Black
  10
28.956
  11
28.956
  20
-115.697
  21
-115.697
  40
1
  41
1
  50
90
  51
0
  71
0
  72
1
  73
2
  1
%%O
  0
TEXT
  7
KICADB
  8
Black
  10
29.845
  11
29.845
  20
-118.364
  21
-118.364
  40
1
  41
1
  50
90
  51
0
  71
0
  72
1
  73
2
  1
%%O
  0
TEXT
  7
KICADB
  8
Black
  10
30.353
  11
30.353
  20
-94.361
  21
-94.361
  40
1
  41
1
  50
90
  51
0
  71
0
  72
1
  73
2
  1
BAT+
  0
TEXT
  7
KICADB
  8
Black
  10
33.02
  11
33.02
  20
-94.742
  21
-94.742
  40
1
  41
1
  50
90
  51
0
  71
0
  72
1
  73
2
  1
Gnd
  0
TEXT
  7
KICADB
  8
Black
  10
35.56
  11
35.56
  20
-94.742
  21
-94.742
  40
1
  41
1
  50
90
  51
0
  71
0
  72
1
  73
2
  1
BUS
  0
TEXT
  7
KICADB
  8
Black
  10
38.1
  11
38.1
  20
-95.377
  21
-95.377
  40
1
  41
1
  50
90
  51
0
  71
0
  72
1
  73
2
  1
5V
  0
TEXT
  7
KICADB
  8
Black
  10
40.767
  11
40.767
  20
-95.758
  21
-95.758
  40
1
  41
1
  50
90
  51
0
  71
0
  72
1
  73
2
  1
8
  0
TEXT
  7
KICADB
  8
Black
  10
43.053
  11
43.053
  20
-95.758
  21
-95.758
  40
1
  41
1
  50
90
  51
0
  71
0
  72
1
  73
2
  1
6
  0
TEXT
  7
KICADB
  8
Black
  10
45.72
  11
45.72
  20
-95.758
  21
-95.758
  40
1
  41
1
  50
90
  51
0
  71
0
  72
1
  73
2
  1
5
  0
TEXT
  7
KICADB
  8
Black
  10
48.133
  11
48.133
  20
-95.758
  21
-95.758
  40
1
  41
1
  50
90
  51
0
  71
0
  72
1
  73
2
  1
4
  0
TEXT
  7
KICADB
  8
Black
  10
50.927
  11
50.927
  20
-95.758
  21
-95.758
  40
1
  41
1
  50
90
  51
0
  71
0
  72
1
  73
2
  1
3
  0
TEXT
  7
KICADB
  8
Black
  10
53.467
  11
53.467
  20
-95.25
  21
-95.25
  40
1
  41
1
  50
90
  51
0
  71
0
  72
1
  73
2
  1
Tx
  0
TEXT
  7
KICADB
  8
Black
  10
55.88
  11
55.88
  20
-95.25
  21
-95.25
  40
1
  41
1
  50
90
  51
0
  71
0
  72
1
  73
2
  1
Rx
  0
TEXT
  7
KICADB
  8
Black
  10
58.42
  11
58.42
  20
-94.869
  21
-94.869
  40
1
  41
1
  50
90
  51
0
  71
0
  72
1
  73
2
  1
RST
  0
TEXT
  7
KICADB
  8
Black
  10
58.42
  11
58.42
  20
-115.443
  21
-115.443
  40
1
  41
1
  50
90
  51
0
  71
0
  72
1
  73
2
  1
A5
  0
TEXT
  7
KICADB
  8
Black
  10
55.753
  11
55.753
  20
-115.443
  21
-115.443
  40
1
  41
1
  50
90
  51
0
  71
0
  72
1
  73
2
  1
A4
  0
TEXT
  7
KICADB
  8
Black
  10
53.34
  11
53.34
  20
-115.443
  21
-115.443
  40
1
  41
1
  50
90
  51
0
  71
0
  72
1
  73
2
  1
A3
  0
TEXT
  7
KICADB
  8
Black
  10
50.8
  11
50.8
  20
-115.443
  21
-115.443
  40
1
  41
1
  50
90
  51
0
  71
0
  72
1
  73
2
  1
A2
  0
TEXT
  7
KICADB
  8
Black
  10
48.133
  11
48.133
  20
-115.443
  21
-115.443
  40
1
  41
1
  50
90
  51
0
  71
0
  72
1
  73
2
  1
A1
  0
TEXT
  7
KICADB
  8
Black
  10
45.72
  11
45.72
  20
-115.443
  21
-115.443
  40
1
  41
1
  50
90
  51
0
  71
0
  72
1
  73
2
  1
A0
  0
TEXT
  7
KICADB
  8
Black
  10
43.18
  11
43.18
  20
-116.078
  21
-116.078
  40
1
  41
1
  50
90
  51
0
  71
0
  72
1
  73
2
  1
Aref
  0
TEXT
  7
KICADB
  8
Black
  10
40.64
  11
40.64
  20
-115.443
  21
-115.443
  40
1
  41
1
  50
90
  51
0
  71
0
  72
1
  73
2
  1
13
  0
TEXT
  7
KICADB
  8
Black
  10
38.1
  11
38.1
  20
-115.443
  21
-115.443
  40
1
  41
1
  50
90
  51
0
  71
0
  72
1
  73
2
  1
12
  0
TEXT
  7
KICADB
  8
Black
  10
35.56
  11
35.56
  20
-115.443
  21
-115.443
  40
1
  41
1
  50
90
  51
0
  71
0
  72
1
  73
2
  1
11
  0
TEXT
  7
KICADB
  8
Black
  10
33.02
  11
33.02
  20
-115.443
  21
-115.443
  40
1
  41
1
  50
90
  51
0
  71
0
  72
1
  73
2
  1
10
  0
TEXT
  7
KICADB
  8
Black
  10
30.353
  11
30.353
  20
-115.062
  21
-115.062
  40
1
  41
1
  50
90
  51
0
  71
0
  72
1
  73
2
  1
9
  0
TEXT
  7
KICADB
  8
Black
  10
49.6476
  11
49.6476
  20
-82.55
  21
-82.55
  40
1
  41
1
  50
90
  51
0
  71
0
  72
1
  73
2
  1
U1
  0
TEXT
  7
KICADB
  8
Black
  10
68.7
  11
68.7
  20
-82.55
  21
-82.55
  40
1
  41
1
  50
90
  51
0
  71
0
  72
1
  73
2
  1
U2
  0
TEXT
  7
KICADB
  8
Black
  10
77.453
  11
77.453
  20
-58.928
  21
-58.928
  40
1
  41
1
  50
90
  51
0
  71
0
  72
1
  73
2
  1
U3
  0
TEXT
  7
KICADB
  8
Black
  10
87.75
  11
87.75
  20
-82.55
  21
-82.55
  40
1
  41
1
  50
90
  51
0
  71
0
  72
1
  73
2
  1
U4
  0
TEXT
  7
KICADB
  8
Black
  10
106.673
  11
106.673
  20
-82.55
  21
-82.55
  40
1
  41
1
  50
90
  51
0
  71
0
  72
1
  73
2
  1
U5
  0
TEXT
  7
KICADB
  8
Black
  10
96.757
  11
96.757
  20
-59.436
  21
-59.436
  40
1
  41
1
  50
90
  51
0
  71
0
  72
1
  73
2
  1
U6
  0
TEXT
  7
KICADB
  8
Black
  10
105.93
  11
105.93
  20
-118.105
  21
-118.105
  40
1
  41
1
  50
90
  51
0
  71
0
  72
1
  73
2
  1
D21
  0
TEXT
  7
KICADB
  8
Black
  10
104.61
  11
104.61
  20
-121.705
  21
-121.705
  40
1
  41
1
  50
90
  51
0
  71
0
  72
1
  73
2
  1
K
  0
TEXT
  7
KICADB
  8
Black
  10
98.0324
  11
98.0324
  20
-99.8641
  21
-99.8641
  40
1
  41
1
  50
90
  51
0
  71
0
  72
1
  73
2
  1
Q2
  0
TEXT
  7
KICADB
  8
Black
  10
94.6824
  11
94.6824
  20
-107.489
  21
-107.489
  40
1
  41
1
  50
90
  51
0
  71
0
  72
1
  73
2
  1
R29
  0
TEXT
  7
KICADB
  8
Black
  10
107.557
  11
107.557
  20
-104.309
  21
-104.309
  40
0.85
  41
1
  50
90
  51
0
  71
0
  72
1
  73
2
  1
R30
  0
TEXT
  7
KICADB
  8
Black
  10
105.41
  11
105.41
  20
-114.3
  21
-114.3
  40
0.85
  41
1
  50
0
  51
0
  71
0
  72
1
  73
2
  1
R31
  0
TEXT
  7
KICADB
  8
Black
  10
47.355
  11
47.355
  20
-123.765
  21
-123.765
  40
1
  41
1
  50
90
  51
0
  71
0
  72
1
  73
2
  1
J7
  0
TEXT
  7
KICADB
  8
Black
  10
89.535
  11
89.535
  20
-99.695
  21
-99.695
  40
1
  41
1
  50
0
  51
0
  71
0
  72
1
  73
2
  1
JP1
  0
TEXT
  7
KICADB
  8
Black
  10
30.508
  11
30.508
  20
-31.7495
  21
-31.7495
  40
1
  41
1
  50
90
  51
0
  71
0
  72
1
  73
2
  1
D17
  0
TEXT
  7
KICADB
  8
Black
  10
90.5674
  11
90.5674
  20
-107.484
  21
-107.484
  40
1
  41
1
  50
90
  51
0
  71
0
  72
1
  73
2
  1
D19
  0
TEXT
  7
KICADB
  8
Black
  10
104.38
  11
104.38
  20
-99.8641
  21
-99.8641
  40
1
  41
1
  50
90
  51
0
  71
0
  72
1
  73
2
  1
D20
  0
ENDSEC
  0
EOF
