  0
SECTION
  2
HEADER
  9
$ANGBASE
  50
0.0
  9
$ANGDIR
  70
  1
  9
$MEASUREMENT
  70
0
  0
ENDSEC
  0
SECTION
  2
TABLES
  0
TABLE
  2
LTYPE
  70
1
  0
LTYPE
  2
CONTINUOUS
  70
0
  3
Solid line
  72
65
  73
0
  40
0.0
  0
ENDTAB
  0
TABLE
  2
STYLE
  70
4
  0
STYLE
  2
KICAD
  70
0
  40
0
  41
1
  42
1
  50
0
  71
0
  3
isocp.shx
  0
STYLE
  2
KICADB
  70
0
  40
0
  41
1
  42
1
  50
0
  71
0
  3
isocp.shx
  0
STYLE
  2
KICADI
  70
0
  40
0
  41
1
  42
1
  50
15
  71
0
  3
isocp.shx
  0
STYLE
  2
KICADBI
  70
0
  40
0
  41
1
  42
1
  50
15
  71
0
  3
isocp.shx
  0
ENDTAB
  0
TABLE
  2
LAYER
  70
30
  0
LAYER
  2
BLACK
  70
0
  62
7
  6
CONTINUOUS
  0
LAYER
  2
GRAY1
  70
0
  62
251
  6
CONTINUOUS
  0
LAYER
  2
GRAY2
  70
0
  62
8
  6
CONTINUOUS
  0
LAYER
  2
GRAY3
  70
0
  62
9
  6
CONTINUOUS
  0
LAYER
  2
WHITE
  70
0
  62
7
  6
CONTINUOUS
  0
LAYER
  2
LYELLOW
  70
0
  62
51
  6
CONTINUOUS
  0
LAYER
  2
BLUE1
  70
0
  62
178
  6
CONTINUOUS
  0
LAYER
  2
GREEN1
  70
0
  62
98
  6
CONTINUOUS
  0
LAYER
  2
CYAN1
  70
0
  62
138
  6
CONTINUOUS
  0
LAYER
  2
RED1
  70
0
  62
18
  6
CONTINUOUS
  0
LAYER
  2
MAGENTA1
  70
0
  62
228
  6
CONTINUOUS
  0
LAYER
  2
BROWN1
  70
0
  62
58
  6
CONTINUOUS
  0
LAYER
  2
BLUE2
  70
0
  62
5
  6
CONTINUOUS
  0
LAYER
  2
GREEN2
  70
0
  62
3
  6
CONTINUOUS
  0
LAYER
  2
CYAN2
  70
0
  62
4
  6
CONTINUOUS
  0
LAYER
  2
RED2
  70
0
  62
1
  6
CONTINUOUS
  0
LAYER
  2
MAGENTA2
  70
0
  62
6
  6
CONTINUOUS
  0
LAYER
  2
BROWN2
  70
0
  62
54
  6
CONTINUOUS
  0
LAYER
  2
BLUE3
  70
0
  62
171
  6
CONTINUOUS
  0
LAYER
  2
GREEN3
  70
0
  62
91
  6
CONTINUOUS
  0
LAYER
  2
CYAN3
  70
0
  62
131
  6
CONTINUOUS
  0
LAYER
  2
RED3
  70
0
  62
11
  6
CONTINUOUS
  0
LAYER
  2
MAGENTA3
  70
0
  62
221
  6
CONTINUOUS
  0
LAYER
  2
YELLOW3
  70
0
  62
2
  6
CONTINUOUS
  0
LAYER
  2
BLUE4
  70
0
  62
5
  6
CONTINUOUS
  0
LAYER
  2
GREEN4
  70
0
  62
3
  6
CONTINUOUS
  0
LAYER
  2
CYAN4
  70
0
  62
4
  6
CONTINUOUS
  0
LAYER
  2
RED4
  70
0
  62
1
  6
CONTINUOUS
  0
LAYER
  2
MAGENTA4
  70
0
  62
6
  6
CONTINUOUS
  0
LAYER
  2
YELLOW4
  70
0
  62
2
  6
CONTINUOUS
  0
ENDTAB
  0
ENDSEC
  0
SECTION
  2
ENTITIES
  0
TEXT
  7
KICADB
  8
Black
  10
85.8012
  11
85.8012
  20
-115.672
  21
-115.672
  40
3
  41
1
  50
0
  51
0
  71
0
  72
1
  73
2
  1
B
  0
TEXT
  7
KICADB
  8
Black
  10
78.0796
  11
78.0796
  20
-115.519
  21
-115.519
  40
3
  41
1
  50
0
  51
0
  71
0
  72
1
  73
2
  1
A
  0
TEXT
  7
KICADB
  8
Black
  10
31.242
  11
31.242
  20
-86.101
  21
-86.101
  40
1.5
  41
1
  50
0
  51
0
  71
0
  72
1
  73
2
  1
TO COL
  0
TEXT
  7
KICADB
  8
Black
  10
31.242
  11
31.242
  20
-88.651
  21
-88.651
  40
1.5
  41
1
  50
0
  51
0
  71
0
  72
1
  73
2
  1
DRIVER
  0
TEXT
  7
KICADB
  8
Black
  10
84.3788
  11
84.3788
  20
-120.747
  21
-120.747
  40
1.5
  41
1
  50
0
  51
0
  71
0
  72
1
  73
2
  1
24VDC
  0
TEXT
  7
KICADB
  8
Black
  10
84.3788
  11
84.3788
  20
-123.297
  21
-123.297
  40
1.5
  41
1
  50
0
  51
0
  71
0
  72
1
  73
2
  1
CTR+
  0
TEXT
  7
KICADB
  8
Black
  10
38.1
  11
38.1
  20
-27.305
  21
-27.305
  40
1.5
  41
1
  50
0
  51
0
  71
0
  72
1
  73
2
  1
Rev. 1.0 June, 2018
  0
TEXT
  7
KICADB
  8
Black
  10
106.121
  11
106.121
  20
-97.3214
  21
-97.3214
  40
1
  41
1
  50
0
  51
0
  71
0
  72
1
  73
2
  1
REV
  0
TEXT
  7
KICADB
  8
Black
  10
106.121
  11
106.121
  20
-99.0714
  21
-99.0714
  40
1
  41
1
  50
0
  51
0
  71
0
  72
1
  73
2
  1
POL
  0
TEXT
  7
KICADB
  8
Black
  10
46.99
  11
46.99
  20
-52.745
  21
-52.745
  40
3
  41
1
  50
0
  51
0
  71
0
  72
1
  73
2
  1
FlipMaster 9000
  0
TEXT
  7
KICADB
  8
Black
  10
46.99
  11
46.99
  20
-57.745
  21
-57.745
  40
3
  41
1
  50
0
  51
0
  71
0
  72
1
  73
2
  1
Row Driver
  0
TEXT
  7
KICADB
  8
Black
  10
103.022
  11
103.022
  20
-123.241
  21
-123.241
  40
1
  41
1
  50
0
  51
0
  71
0
  72
1
  73
2
  1
PWR OK
0
LINE
8
Black
10
25
20
-25
11
125
21
-25
0
LINE
8
Black
10
25
20
-125
11
25
21
-25
0
LINE
8
Black
10
125
20
-125
11
25
21
-125
0
LINE
8
Black
10
125
20
-25
11
125
21
-125
0
LINE
8
Black
10
39.0026
20
-103.916
11
39.0026
21
-104.016
0
LINE
8
Black
10
39.0026
20
-110.741
11
39.0026
21
-110.716
0
LINE
8
Black
10
34.3526
20
-110.741
11
34.3526
21
-110.716
0
LINE
8
Black
10
33.2776
20
-103.916
11
39.0026
21
-103.916
0
LINE
8
Black
10
34.3526
20
-110.741
11
39.0026
21
-110.741
0
LINE
8
Black
10
107.359
20
-95.449
11
107.159
21
-95.449
0
LINE
8
Black
10
104.765
20
-95.449
11
104.945
21
-95.449
0
ARC
8
Black
10
106.079
20
-93.949
40
1.9981
50
-239.848
51
-131.348
0
ARC
8
Black
10
106.079
20
-93.949
40
1.54614
50
-222.875
51
-137.175
0
ARC
8
Black
10
106.079
20
-93.939
40
1.98726
50
-48.8866
51
61.1134
0
ARC
8
Black
10
106.079
20
-93.949
40
1.4808
50
-43.2114
51
44.2886
0
LINE
8
Black
10
88.2091
20
-125.613
11
97.2109
21
-125.613
0
LINE
8
Black
10
88.2091
20
-129.113
11
97.2109
21
-129.113
0
LINE
8
Black
10
97.2109
20
-129.113
11
97.2109
21
-114.612
0
LINE
8
Black
10
97.2109
20
-114.612
11
88.2091
21
-114.612
0
LINE
8
Black
10
88.2091
20
-114.612
11
88.2091
21
-129.113
0
LINE
8
Black
10
36.879
20
-42.34
11
36.879
21
-38.94
0
ARC
8
Black
10
35.179
20
-40.64
40
2.4
50
180
51
315
0
ARC
8
Black
10
35.179
20
-40.64
40
2.4
50
45
51
180
0
LINE
8
Black
10
39.716
20
-31.405
11
39.716
21
-31.075
0
LINE
8
Black
10
39.716
20
-31.075
11
46.136
21
-31.075
0
LINE
8
Black
10
46.136
20
-31.075
11
46.136
21
-31.405
0
LINE
8
Black
10
39.716
20
-33.365
11
39.716
21
-33.695
0
LINE
8
Black
10
39.716
20
-33.695
11
46.136
21
-33.695
0
LINE
8
Black
10
46.136
20
-33.695
11
46.136
21
-33.365
0
LINE
8
Black
10
121.37
20
-92.03
11
109.77
21
-92.03
0
LINE
8
Black
10
121.37
20
-100.43
11
121.37
21
-92.03
0
LINE
8
Black
10
109.77
20
-100.43
11
121.37
21
-100.43
0
LINE
8
Black
10
109.77
20
-92.03
11
109.77
21
-100.43
0
LINE
8
Black
10
39.251
20
-35.551
11
39.251
21
-36.821
0
LINE
8
Black
10
46.601
20
-35.551
11
46.601
21
-36.821
0
LINE
8
Black
10
46.601
20
-45.221
11
46.601
21
-43.951
0
LINE
8
Black
10
39.251
20
-45.221
11
39.251
21
-43.951
0
LINE
8
Black
10
39.251
20
-35.551
11
46.601
21
-35.551
0
LINE
8
Black
10
39.251
20
-45.221
11
46.601
21
-45.221
0
LINE
8
Black
10
39.251
20
-36.821
11
38.316
21
-36.821
0
LINE
8
Black
10
116.078
20
-45.698
11
57.658
21
-45.698
0
LINE
8
Black
10
115.538
20
-45.148
11
58.218
21
-45.148
0
LINE
8
Black
10
116.078
20
-36.598
11
57.658
21
-36.598
0
LINE
8
Black
10
115.538
20
-37.148
11
89.118
21
-37.148
0
LINE
8
Black
10
84.618
20
-37.148
11
58.218
21
-37.148
0
LINE
8
Black
10
89.118
20
-37.148
11
89.118
21
-36.598
0
LINE
8
Black
10
84.618
20
-37.148
11
84.618
21
-36.598
0
LINE
8
Black
10
116.078
20
-45.698
11
116.078
21
-36.598
0
LINE
8
Black
10
115.538
20
-45.148
11
115.538
21
-37.148
0
LINE
8
Black
10
57.658
20
-45.698
11
57.658
21
-36.598
0
LINE
8
Black
10
58.218
20
-45.148
11
58.218
21
-37.148
0
LINE
8
Black
10
116.078
20
-45.698
11
115.538
21
-45.148
0
LINE
8
Black
10
57.658
20
-45.698
11
58.218
21
-45.148
0
LINE
8
Black
10
116.078
20
-36.598
11
115.538
21
-37.148
0
LINE
8
Black
10
57.658
20
-36.598
11
58.218
21
-37.148
0
LINE
8
Black
10
35.665
20
-62.865
11
35.665
21
-83.185
0
LINE
8
Black
10
35.115
20
-63.405
11
35.115
21
-82.625
0
LINE
8
Black
10
26.565
20
-62.865
11
26.565
21
-83.185
0
LINE
8
Black
10
27.115
20
-63.405
11
27.115
21
-70.775
0
LINE
8
Black
10
27.115
20
-75.275
11
27.115
21
-82.625
0
LINE
8
Black
10
27.115
20
-70.775
11
26.565
21
-70.775
0
LINE
8
Black
10
27.115
20
-75.275
11
26.565
21
-75.275
0
LINE
8
Black
10
35.665
20
-62.865
11
26.565
21
-62.865
0
LINE
8
Black
10
35.115
20
-63.405
11
27.115
21
-63.405
0
LINE
8
Black
10
35.665
20
-83.185
11
26.565
21
-83.185
0
LINE
8
Black
10
35.115
20
-82.625
11
27.115
21
-82.625
0
LINE
8
Black
10
35.665
20
-62.865
11
35.115
21
-63.405
0
LINE
8
Black
10
35.665
20
-83.185
11
35.115
21
-82.625
0
LINE
8
Black
10
26.565
20
-62.865
11
27.115
21
-63.405
0
LINE
8
Black
10
26.565
20
-83.185
11
27.115
21
-82.625
0
LINE
8
Black
10
107.495
20
-120.095
11
123.495
21
-120.095
0
LINE
8
Black
10
123.495
20
-120.095
11
123.495
21
-123.515
0
LINE
8
Black
10
123.495
20
-123.515
11
122.445
21
-123.515
0
LINE
8
Black
10
122.445
20
-123.515
11
122.445
21
-129.715
0
LINE
8
Black
10
122.445
20
-129.715
11
108.545
21
-129.715
0
LINE
8
Black
10
108.545
20
-129.715
11
108.545
21
-123.515
0
LINE
8
Black
10
108.545
20
-123.515
11
107.495
21
-123.515
0
LINE
8
Black
10
107.495
20
-123.515
11
107.495
21
-120.095
0
LINE
8
Black
10
108.735
20
-129.715
11
108.735
21
-131.215
0
LINE
8
Black
10
108.735
20
-131.215
11
110.375
21
-131.215
0
LINE
8
Black
10
110.375
20
-131.215
11
110.375
21
-129.715
0
LINE
8
Black
10
112.695
20
-129.715
11
112.695
21
-131.215
0
LINE
8
Black
10
112.695
20
-131.215
11
114.335
21
-131.215
0
LINE
8
Black
10
114.335
20
-131.215
11
114.335
21
-129.715
0
LINE
8
Black
10
116.655
20
-129.715
11
116.655
21
-131.215
0
LINE
8
Black
10
116.655
20
-131.215
11
118.295
21
-131.215
0
LINE
8
Black
10
118.295
20
-131.215
11
118.295
21
-129.715
0
LINE
8
Black
10
120.615
20
-129.715
11
120.615
21
-131.215
0
LINE
8
Black
10
120.615
20
-131.215
11
122.255
21
-131.215
0
LINE
8
Black
10
122.255
20
-131.215
11
122.255
21
-129.715
0
LINE
8
Black
10
109.555
20
-114.595
11
107.945
21
-114.595
0
LINE
8
Black
10
107.945
20
-114.595
11
107.945
21
-116.205
0
LINE
8
Black
10
41.945
20
-47.385
11
43.145
21
-47.385
0
LINE
8
Black
10
43.145
20
-49.135
11
41.945
21
-49.135
0
LINE
8
Black
10
35.525
20
-45.96
11
34.325
21
-45.96
0
LINE
8
Black
10
34.325
20
-44.21
11
35.525
21
-44.21
0
LINE
8
Black
10
35.525
20
-49.135
11
34.325
21
-49.135
0
LINE
8
Black
10
34.325
20
-47.385
11
35.525
21
-47.385
0
LINE
8
Black
10
105.678
20
-70.45
11
105.678
21
-69.25
0
LINE
8
Black
10
107.428
20
-69.25
11
107.428
21
-70.45
0
LINE
8
Black
10
120.283
20
-70.45
11
120.283
21
-69.25
0
LINE
8
Black
10
122.033
20
-69.25
11
122.033
21
-70.45
0
LINE
8
Black
10
120.283
20
-86.96
11
120.283
21
-85.76
0
LINE
8
Black
10
122.033
20
-85.76
11
122.033
21
-86.96
0
LINE
8
Black
10
107.428
20
-85.76
11
107.428
21
-86.96
0
LINE
8
Black
10
105.678
20
-86.96
11
105.678
21
-85.76
0
LINE
8
Black
10
88.505
20
-69.25
11
88.505
21
-70.45
0
LINE
8
Black
10
86.755
20
-70.45
11
86.755
21
-69.25
0
LINE
8
Black
10
103.11
20
-69.25
11
103.11
21
-70.45
0
LINE
8
Black
10
101.36
20
-70.45
11
101.36
21
-69.25
0
LINE
8
Black
10
101.36
20
-86.96
11
101.36
21
-85.76
0
LINE
8
Black
10
103.11
20
-85.76
11
103.11
21
-86.96
0
LINE
8
Black
10
86.755
20
-86.96
11
86.755
21
-85.76
0
LINE
8
Black
10
88.505
20
-85.76
11
88.505
21
-86.96
0
LINE
8
Black
10
67.705
20
-70.45
11
67.705
21
-69.25
0
LINE
8
Black
10
69.455
20
-69.25
11
69.455
21
-70.45
0
LINE
8
Black
10
82.31
20
-70.45
11
82.31
21
-69.25
0
LINE
8
Black
10
84.06
20
-69.25
11
84.06
21
-70.45
0
LINE
8
Black
10
84.06
20
-85.76
11
84.06
21
-86.96
0
LINE
8
Black
10
82.31
20
-86.96
11
82.31
21
-85.76
0
LINE
8
Black
10
69.455
20
-85.76
11
69.455
21
-86.96
0
LINE
8
Black
10
67.705
20
-86.96
11
67.705
21
-85.76
0
LINE
8
Black
10
49.77
20
-69.25
11
49.77
21
-70.45
0
LINE
8
Black
10
48.02
20
-70.45
11
48.02
21
-69.25
0
LINE
8
Black
10
64.375
20
-69.25
11
64.375
21
-70.45
0
LINE
8
Black
10
62.625
20
-70.45
11
62.625
21
-69.25
0
LINE
8
Black
10
62.625
20
-86.96
11
62.625
21
-85.76
0
LINE
8
Black
10
64.375
20
-85.76
11
64.375
21
-86.96
0
LINE
8
Black
10
48.02
20
-86.96
11
48.02
21
-85.76
0
LINE
8
Black
10
49.77
20
-85.76
11
49.77
21
-86.96
0
LINE
8
Black
10
55.59
20
-87.36
11
55.59
21
-85.36
0
LINE
8
Black
10
55.59
20
-85.36
11
51.69
21
-85.36
0
LINE
8
Black
10
55.59
20
-87.36
11
51.69
21
-87.36
0
LINE
8
Black
10
61.305
20
-87.36
11
61.305
21
-85.36
0
LINE
8
Black
10
61.305
20
-85.36
11
57.405
21
-85.36
0
LINE
8
Black
10
61.305
20
-87.36
11
57.405
21
-87.36
0
LINE
8
Black
10
56.805
20
-68.85
11
56.805
21
-70.85
0
LINE
8
Black
10
56.805
20
-70.85
11
60.705
21
-70.85
0
LINE
8
Black
10
56.805
20
-68.85
11
60.705
21
-68.85
0
LINE
8
Black
10
51.09
20
-68.85
11
51.09
21
-70.85
0
LINE
8
Black
10
51.09
20
-70.85
11
54.99
21
-70.85
0
LINE
8
Black
10
51.09
20
-68.85
11
54.99
21
-68.85
0
LINE
8
Black
10
75.275
20
-87.36
11
75.275
21
-85.36
0
LINE
8
Black
10
75.275
20
-85.36
11
71.375
21
-85.36
0
LINE
8
Black
10
75.275
20
-87.36
11
71.375
21
-87.36
0
LINE
8
Black
10
80.99
20
-87.36
11
80.99
21
-85.36
0
LINE
8
Black
10
80.99
20
-85.36
11
77.09
21
-85.36
0
LINE
8
Black
10
80.99
20
-87.36
11
77.09
21
-87.36
0
LINE
8
Black
10
76.49
20
-68.85
11
76.49
21
-70.85
0
LINE
8
Black
10
76.49
20
-70.85
11
80.39
21
-70.85
0
LINE
8
Black
10
76.49
20
-68.85
11
80.39
21
-68.85
0
LINE
8
Black
10
70.775
20
-68.85
11
70.775
21
-70.85
0
LINE
8
Black
10
70.775
20
-70.85
11
74.675
21
-70.85
0
LINE
8
Black
10
70.775
20
-68.85
11
74.675
21
-68.85
0
LINE
8
Black
10
94.325
20
-87.36
11
94.325
21
-85.36
0
LINE
8
Black
10
94.325
20
-85.36
11
90.425
21
-85.36
0
LINE
8
Black
10
94.325
20
-87.36
11
90.425
21
-87.36
0
LINE
8
Black
10
100.04
20
-87.36
11
100.04
21
-85.36
0
LINE
8
Black
10
100.04
20
-85.36
11
96.14
21
-85.36
0
LINE
8
Black
10
100.04
20
-87.36
11
96.14
21
-87.36
0
LINE
8
Black
10
95.54
20
-68.85
11
95.54
21
-70.85
0
LINE
8
Black
10
95.54
20
-70.85
11
99.44
21
-70.85
0
LINE
8
Black
10
95.54
20
-68.85
11
99.44
21
-68.85
0
LINE
8
Black
10
89.825
20
-68.85
11
89.825
21
-70.85
0
LINE
8
Black
10
89.825
20
-70.85
11
93.725
21
-70.85
0
LINE
8
Black
10
89.825
20
-68.85
11
93.725
21
-68.85
0
LINE
8
Black
10
113.248
20
-87.36
11
113.248
21
-85.36
0
LINE
8
Black
10
113.248
20
-85.36
11
109.348
21
-85.36
0
LINE
8
Black
10
113.248
20
-87.36
11
109.348
21
-87.36
0
LINE
8
Black
10
118.963
20
-87.36
11
118.963
21
-85.36
0
LINE
8
Black
10
118.963
20
-85.36
11
115.063
21
-85.36
0
LINE
8
Black
10
118.963
20
-87.36
11
115.063
21
-87.36
0
LINE
8
Black
10
114.463
20
-68.85
11
114.463
21
-70.85
0
LINE
8
Black
10
114.463
20
-70.85
11
118.363
21
-70.85
0
LINE
8
Black
10
114.463
20
-68.85
11
118.363
21
-68.85
0
LINE
8
Black
10
108.748
20
-68.85
11
108.748
21
-70.85
0
LINE
8
Black
10
108.748
20
-70.85
11
112.648
21
-70.85
0
LINE
8
Black
10
108.748
20
-68.85
11
112.648
21
-68.85
0
LINE
8
Black
10
48.475
20
-82.796
11
48.475
21
-81.796
0
LINE
8
Black
10
46.775
20
-81.796
11
46.775
21
-82.796
0
LINE
8
Black
10
67.525
20
-82.796
11
67.525
21
-81.796
0
LINE
8
Black
10
65.825
20
-81.796
11
65.825
21
-82.796
0
LINE
8
Black
10
86.575
20
-82.796
11
86.575
21
-81.796
0
LINE
8
Black
10
84.875
20
-81.796
11
84.875
21
-82.796
0
LINE
8
Black
10
105.498
20
-82.796
11
105.498
21
-81.796
0
LINE
8
Black
10
103.798
20
-81.796
11
103.798
21
-82.796
0
LINE
8
Black
10
77.565
20
-27.805
11
77.565
21
-28.465
0
LINE
8
Black
10
77.565
20
-26.145
11
77.565
21
-26.805
0
LINE
8
Black
10
77.565
20
-26.145
11
75.535
21
-26.145
0
LINE
8
Black
10
76.155
20
-28.465
11
77.565
21
-28.465
0
LINE
8
Black
10
82.645
20
-27.805
11
82.645
21
-28.465
0
LINE
8
Black
10
82.645
20
-26.145
11
82.645
21
-26.805
0
LINE
8
Black
10
82.645
20
-26.145
11
80.615
21
-26.145
0
LINE
8
Black
10
81.235
20
-28.465
11
82.645
21
-28.465
0
LINE
8
Black
10
87.725
20
-27.805
11
87.725
21
-28.465
0
LINE
8
Black
10
87.725
20
-26.145
11
87.725
21
-26.805
0
LINE
8
Black
10
87.725
20
-26.145
11
85.695
21
-26.145
0
LINE
8
Black
10
86.315
20
-28.465
11
87.725
21
-28.465
0
LINE
8
Black
10
92.805
20
-27.805
11
92.805
21
-28.465
0
LINE
8
Black
10
92.805
20
-26.145
11
92.805
21
-26.805
0
LINE
8
Black
10
92.805
20
-26.145
11
90.775
21
-26.145
0
LINE
8
Black
10
91.395
20
-28.465
11
92.805
21
-28.465
0
LINE
8
Black
10
97.885
20
-27.805
11
97.885
21
-28.465
0
LINE
8
Black
10
97.885
20
-26.145
11
97.885
21
-26.805
0
LINE
8
Black
10
97.885
20
-26.145
11
95.855
21
-26.145
0
LINE
8
Black
10
96.475
20
-28.465
11
97.885
21
-28.465
0
LINE
8
Black
10
102.965
20
-27.805
11
102.965
21
-28.465
0
LINE
8
Black
10
102.965
20
-26.145
11
102.965
21
-26.805
0
LINE
8
Black
10
102.965
20
-26.145
11
100.935
21
-26.145
0
LINE
8
Black
10
101.555
20
-28.465
11
102.965
21
-28.465
0
LINE
8
Black
10
108.045
20
-27.805
11
108.045
21
-28.465
0
LINE
8
Black
10
108.045
20
-26.145
11
108.045
21
-26.805
0
LINE
8
Black
10
108.045
20
-26.145
11
106.015
21
-26.145
0
LINE
8
Black
10
106.635
20
-28.465
11
108.045
21
-28.465
0
LINE
8
Black
10
113.125
20
-27.805
11
113.125
21
-28.465
0
LINE
8
Black
10
113.125
20
-26.145
11
113.125
21
-26.805
0
LINE
8
Black
10
113.125
20
-26.145
11
111.095
21
-26.145
0
LINE
8
Black
10
111.715
20
-28.465
11
113.125
21
-28.465
0
LINE
8
Black
10
49.3026
20
-81.98
11
49.5526
21
-81.98
0
LINE
8
Black
10
49.3026
20
-74.23
11
49.6376
21
-74.23
0
LINE
8
Black
10
62.4526
20
-74.23
11
62.1176
21
-74.23
0
LINE
8
Black
10
62.4526
20
-81.98
11
62.1176
21
-81.98
0
LINE
8
Black
10
49.3026
20
-81.98
11
49.3026
21
-74.23
0
LINE
8
Black
10
62.4526
20
-81.98
11
62.4526
21
-74.23
0
LINE
8
Black
10
49.5526
20
-81.98
11
49.5526
21
-83.78
0
LINE
8
Black
10
68.355
20
-81.98
11
68.605
21
-81.98
0
LINE
8
Black
10
68.355
20
-74.23
11
68.69
21
-74.23
0
LINE
8
Black
10
81.505
20
-74.23
11
81.17
21
-74.23
0
LINE
8
Black
10
81.505
20
-81.98
11
81.17
21
-81.98
0
LINE
8
Black
10
68.355
20
-81.98
11
68.355
21
-74.23
0
LINE
8
Black
10
81.505
20
-81.98
11
81.505
21
-74.23
0
LINE
8
Black
10
68.605
20
-81.98
11
68.605
21
-83.78
0
LINE
8
Black
10
78.505
20
-61.025
11
78.755
21
-61.025
0
LINE
8
Black
10
78.505
20
-53.275
11
78.85
21
-53.275
0
LINE
8
Black
10
90.405
20
-53.275
11
90.06
21
-53.275
0
LINE
8
Black
10
90.405
20
-61.025
11
90.06
21
-61.025
0
LINE
8
Black
10
78.505
20
-61.025
11
78.505
21
-53.275
0
LINE
8
Black
10
90.405
20
-61.025
11
90.405
21
-53.275
0
LINE
8
Black
10
78.755
20
-61.025
11
78.755
21
-62.85
0
LINE
8
Black
10
87.405
20
-81.98
11
87.655
21
-81.98
0
LINE
8
Black
10
87.405
20
-74.23
11
87.74
21
-74.23
0
LINE
8
Black
10
100.555
20
-74.23
11
100.22
21
-74.23
0
LINE
8
Black
10
100.555
20
-81.98
11
100.22
21
-81.98
0
LINE
8
Black
10
87.405
20
-81.98
11
87.405
21
-74.23
0
LINE
8
Black
10
100.555
20
-81.98
11
100.555
21
-74.23
0
LINE
8
Black
10
87.655
20
-81.98
11
87.655
21
-83.78
0
LINE
8
Black
10
106.328
20
-81.98
11
106.578
21
-81.98
0
LINE
8
Black
10
106.328
20
-74.23
11
106.663
21
-74.23
0
LINE
8
Black
10
119.478
20
-74.23
11
119.143
21
-74.23
0
LINE
8
Black
10
119.478
20
-81.98
11
119.143
21
-81.98
0
LINE
8
Black
10
106.328
20
-81.98
11
106.328
21
-74.23
0
LINE
8
Black
10
119.478
20
-81.98
11
119.478
21
-74.23
0
LINE
8
Black
10
106.578
20
-81.98
11
106.578
21
-83.78
0
LINE
8
Black
10
97.555
20
-61.025
11
97.805
21
-61.025
0
LINE
8
Black
10
97.555
20
-53.275
11
97.9
21
-53.275
0
LINE
8
Black
10
109.455
20
-53.275
11
109.11
21
-53.275
0
LINE
8
Black
10
109.455
20
-61.025
11
109.11
21
-61.025
0
LINE
8
Black
10
97.555
20
-61.025
11
97.555
21
-53.275
0
LINE
8
Black
10
109.455
20
-61.025
11
109.455
21
-53.275
0
LINE
8
Black
10
97.805
20
-61.025
11
97.805
21
-62.85
0
LINE
8
Black
10
104.184
20
-120.849
11
103.984
21
-120.849
0
LINE
8
Black
10
101.59
20
-120.849
11
101.77
21
-120.849
0
ARC
8
Black
10
102.904
20
-119.349
40
1.9981
50
-239.848
51
-131.348
0
ARC
8
Black
10
102.904
20
-119.349
40
1.54614
50
-222.875
51
-137.175
0
ARC
8
Black
10
102.904
20
-119.339
40
1.98726
50
-48.8866
51
61.1134
0
ARC
8
Black
10
102.904
20
-119.349
40
1.4808
50
-43.2114
51
44.2886
0
LINE
8
Black
10
97.38
20
-94.66
11
95.66
21
-94.66
0
LINE
8
Black
10
95.66
20
-94.66
11
95.66
21
-98.38
0
LINE
8
Black
10
95.66
20
-98.38
11
97.38
21
-98.38
0
LINE
8
Black
10
97.38
20
-98.38
11
97.38
21
-94.66
0
LINE
8
Black
10
96.52
20
-93.59
11
96.52
21
-94.66
0
LINE
8
Black
10
96.52
20
-99.45
11
96.52
21
-98.38
0
LINE
8
Black
10
104.81
20
-100.09
11
106.01
21
-100.09
0
LINE
8
Black
10
106.01
20
-101.84
11
104.81
21
-101.84
0
LINE
8
Black
10
103.47
20
-115.81
11
102.27
21
-115.81
0
LINE
8
Black
10
102.27
20
-114.06
11
103.47
21
-114.06
0
LINE
8
Black
10
98.365
20
-111.82
11
101.025
21
-111.82
0
LINE
8
Black
10
98.365
20
-109.22
11
98.365
21
-111.82
0
LINE
8
Black
10
101.025
20
-109.22
11
101.025
21
-111.82
0
LINE
8
Black
10
98.365
20
-109.22
11
101.025
21
-109.22
0
LINE
8
Black
10
98.365
20
-107.95
11
98.365
21
-106.62
0
LINE
8
Black
10
98.365
20
-106.62
11
99.695
21
-106.62
0
LINE
8
Black
10
30.27
20
-34.135
11
28.15
21
-34.135
0
LINE
8
Black
10
28.15
20
-34.135
11
28.15
21
-38.255
0
LINE
8
Black
10
28.15
20
-38.255
11
30.27
21
-38.255
0
LINE
8
Black
10
30.27
20
-38.255
11
30.27
21
-34.135
0
LINE
8
Black
10
29.21
20
-33.365
11
29.21
21
-34.135
0
LINE
8
Black
10
29.21
20
-39.025
11
29.21
21
-38.255
0
LINE
8
Black
10
30.27
20
-34.795
11
28.15
21
-34.795
0
LINE
8
Black
10
102.025
20
-94.46
11
99.905
21
-94.46
0
LINE
8
Black
10
99.905
20
-94.46
11
99.905
21
-98.58
0
LINE
8
Black
10
99.905
20
-98.58
11
102.025
21
-98.58
0
LINE
8
Black
10
102.025
20
-98.58
11
102.025
21
-94.46
0
LINE
8
Black
10
100.965
20
-93.69
11
100.965
21
-94.46
0
LINE
8
Black
10
100.965
20
-99.35
11
100.965
21
-98.58
0
LINE
8
Black
10
102.025
20
-95.12
11
99.905
21
-95.12
0
LINE
8
Black
10
94.605
20
-110.61
11
94.475
21
-110.61
0
LINE
8
Black
10
94.475
20
-110.61
11
94.475
21
-105.29
0
LINE
8
Black
10
94.475
20
-105.29
11
94.605
21
-105.29
0
LINE
8
Black
10
97.165
20
-110.61
11
97.295
21
-110.61
0
LINE
8
Black
10
97.295
20
-110.61
11
97.295
21
-105.29
0
LINE
8
Black
10
97.295
20
-105.29
11
97.165
21
-105.29
0
LINE
8
Black
10
94.475
20
-109.77
11
97.295
21
-109.77
0
LINE
8
Black
10
30.9236
20
-106.596
11
30.9236
21
-105.596
0
LINE
8
Black
10
29.2236
20
-105.596
11
29.2236
21
-106.596
0
LINE
8
Black
10
42.3046
20
-105.596
11
42.3046
21
-106.596
0
LINE
8
Black
10
44.0046
20
-106.596
11
44.0046
21
-105.596
0
LINE
8
Black
10
38.2428
20
-91.9086
11
37.0428
21
-91.9086
0
LINE
8
Black
10
37.0428
20
-90.1586
11
38.2428
21
-90.1586
0
LINE
8
Black
10
107.045
20
-102.83
11
107.045
21
-113.07
0
LINE
8
Black
10
122.935
20
-102.83
11
122.935
21
-113.07
0
LINE
8
Black
10
122.935
20
-102.83
11
107.045
21
-102.83
0
LINE
8
Black
10
122.935
20
-113.07
11
107.045
21
-113.07
0
LINE
8
Black
10
107.045
20
-105.41
11
104.405
21
-105.41
0
LINE
8
Black
10
107.045
20
-107.95
11
104.421
21
-107.95
0
LINE
8
Black
10
107.045
20
-110.49
11
104.421
21
-110.49
0
LINE
8
Black
10
81.414
20
-92.1259
11
81.414
21
-112.446
0
LINE
8
Black
10
80.864
20
-92.6659
11
80.864
21
-111.886
0
LINE
8
Black
10
72.314
20
-92.1259
11
72.314
21
-112.446
0
LINE
8
Black
10
72.864
20
-92.6659
11
72.864
21
-100.036
0
LINE
8
Black
10
72.864
20
-104.536
11
72.864
21
-111.886
0
LINE
8
Black
10
72.864
20
-100.036
11
72.314
21
-100.036
0
LINE
8
Black
10
72.864
20
-104.536
11
72.314
21
-104.536
0
LINE
8
Black
10
81.414
20
-92.1259
11
72.314
21
-92.1259
0
LINE
8
Black
10
80.864
20
-92.6659
11
72.864
21
-92.6659
0
LINE
8
Black
10
81.414
20
-112.446
11
72.314
21
-112.446
0
LINE
8
Black
10
80.864
20
-111.886
11
72.864
21
-111.886
0
LINE
8
Black
10
81.414
20
-92.1259
11
80.864
21
-92.6659
0
LINE
8
Black
10
81.414
20
-112.446
11
80.864
21
-111.886
0
LINE
8
Black
10
72.314
20
-92.1259
11
72.864
21
-92.6659
0
LINE
8
Black
10
72.314
20
-112.446
11
72.864
21
-111.886
0
LINE
8
Black
10
91.574
20
-92.1259
11
91.574
21
-112.446
0
LINE
8
Black
10
91.024
20
-92.6659
11
91.024
21
-111.886
0
LINE
8
Black
10
82.474
20
-92.1259
11
82.474
21
-112.446
0
LINE
8
Black
10
83.024
20
-92.6659
11
83.024
21
-100.036
0
LINE
8
Black
10
83.024
20
-104.536
11
83.024
21
-111.886
0
LINE
8
Black
10
83.024
20
-100.036
11
82.474
21
-100.036
0
LINE
8
Black
10
83.024
20
-104.536
11
82.474
21
-104.536
0
LINE
8
Black
10
91.574
20
-92.1259
11
82.474
21
-92.1259
0
LINE
8
Black
10
91.024
20
-92.6659
11
83.024
21
-92.6659
0
LINE
8
Black
10
91.574
20
-112.446
11
82.474
21
-112.446
0
LINE
8
Black
10
91.024
20
-111.886
11
83.024
21
-111.886
0
LINE
8
Black
10
91.574
20
-92.1259
11
91.024
21
-92.6659
0
LINE
8
Black
10
91.574
20
-112.446
11
91.024
21
-111.886
0
LINE
8
Black
10
82.474
20
-92.1259
11
83.024
21
-92.6659
0
LINE
8
Black
10
82.474
20
-112.446
11
83.024
21
-111.886
0
LINE
8
Black
10
64.3151
20
-111.101
11
69.3951
21
-111.101
0
LINE
8
Black
10
64.3151
20
-103.481
11
64.3151
21
-111.101
0
LINE
8
Black
10
69.3951
20
-103.481
11
64.3151
21
-103.481
0
LINE
8
Black
10
32.0571
20
-102.719
11
25.4531
21
-102.719
0
LINE
8
Black
10
32.0571
20
-111.863
11
32.0571
21
-102.719
0
LINE
8
Black
10
25.4531
20
-111.863
11
32.0571
21
-111.863
0
LINE
8
Black
10
25.4531
20
-102.719
11
25.4531
21
-111.863
0
LINE
8
Black
10
26.2151
20
-116.181
11
26.2151
21
-98.4012
0
LINE
8
Black
10
69.3951
20
-116.181
11
26.2151
21
-116.181
0
LINE
8
Black
10
69.3951
20
-98.4012
11
69.3951
21
-116.181
0
LINE
8
Black
10
26.2151
20
-98.4012
11
69.3951
21
-98.4012
0
LINE
8
Black
10
33.2251
20
-96.5412
11
26.4751
21
-96.5412
0
LINE
8
Black
10
34.2251
20
-94.2912
11
33.2251
21
-96.5412
0
LINE
8
Black
10
26.4478
20
-118.109
11
26.4478
21
-112.297
0
LINE
8
Black
10
26.4478
20
-112.297
11
27.7313
21
-112.271
0
LINE
8
Black
10
27.7313
20
-112.271
11
27.7246
21
-103.44
0
LINE
8
Black
10
27.7246
20
-103.44
11
26.5223
21
-103.442
0
LINE
8
Black
10
26.5223
20
-103.442
11
26.5223
21
-96.5411
0
LINE
8
Black
10
34.2249
20
-94.375
11
57.7186
21
-94.375
0
LINE
8
Black
10
57.7186
20
-94.375
11
58.3213
21
-94.6078
0
LINE
8
Black
10
58.3213
20
-94.6078
11
58.8662
21
-94.8913
0
LINE
8
Black
10
58.8662
20
-94.8913
11
59.3526
21
-95.226
0
LINE
8
Black
10
59.3526
20
-95.226
11
59.78
21
-95.6123
0
LINE
8
Black
10
59.78
20
-95.6123
11
60.1478
21
-96.0507
0
LINE
8
Black
10
60.1478
20
-96.0507
11
60.4554
21
-96.5418
0
LINE
8
Black
10
60.4554
20
-96.5418
11
60.7024
21
-97.086
0
LINE
8
Black
10
60.7024
20
-97.086
11
60.888
21
-97.6838
0
LINE
8
Black
10
60.888
20
-97.6838
11
60.9168
21
-116.722
0
LINE
8
Black
10
60.9168
20
-116.722
11
60.6828
21
-117.341
0
LINE
8
Black
10
60.6828
20
-117.341
11
60.3983
21
-117.929
0
LINE
8
Black
10
60.3983
20
-117.929
11
60.0488
21
-118.473
0
LINE
8
Black
10
60.0488
20
-118.473
11
59.6197
21
-118.958
0
LINE
8
Black
10
59.6197
20
-118.958
11
59.0965
21
-119.371
0
LINE
8
Black
10
59.0965
20
-119.371
11
58.4647
21
-119.698
0
LINE
8
Black
10
58.4647
20
-119.698
11
57.7096
21
-119.927
0
LINE
8
Black
10
57.7096
20
-119.927
11
56.8169
21
-120.042
0
LINE
8
Black
10
56.8169
20
-120.042
11
34.2618
21
-120.067
0
LINE
8
Black
10
34.2618
20
-120.067
11
33.3009
21
-118.124
0
LINE
8
Black
10
33.3009
20
-118.124
11
26.4925
21
-118.094
0
LINE
8
Black
10
32.6736
20
-104.112
11
32.6736
21
-111.251
0
LINE
8
Black
10
32.6736
20
-111.251
11
26.8599
21
-111.251
0
LINE
8
Black
10
26.8599
20
-111.251
11
26.8599
21
-104.112
0
LINE
8
Black
10
26.8599
20
-104.112
11
32.6736
21
-104.112
0
LINE
8
Black
10
33.3227
20
-118.035
11
33.3227
21
-116.483
0
LINE
8
Black
10
33.3227
20
-116.483
11
32.7935
21
-115.953
0
LINE
8
Black
10
32.7935
20
-115.953
11
32.7935
21
-114.701
0
LINE
8
Black
10
32.7935
20
-114.701
11
27.7312
21
-114.701
0
LINE
8
Black
10
27.7312
20
-114.701
11
27.7312
21
-115.989
0
LINE
8
Black
10
27.7312
20
-115.989
11
27.2373
21
-116.518
0
LINE
8
Black
10
27.2373
20
-116.518
11
27.2373
21
-118.088
0
LINE
8
Black
10
27.2373
20
-118.088
11
33.3227
21
-118.035
0
LINE
8
Black
10
31.2413
20
-118.07
11
31.2413
21
-118.723
0
LINE
8
Black
10
31.2413
20
-118.723
11
29.2481
21
-118.723
0
LINE
8
Black
10
29.2481
20
-118.723
11
29.2481
21
-118.105
0
LINE
8
Black
10
27.6507
20
-99.9663
11
32.713
21
-99.9663
0
LINE
8
Black
10
32.713
20
-99.9663
11
32.713
21
-98.6787
0
LINE
8
Black
10
32.713
20
-98.6787
11
33.2069
21
-98.1495
0
LINE
8
Black
10
33.2069
20
-98.1495
11
33.2069
21
-96.5796
0
LINE
8
Black
10
33.2069
20
-96.5796
11
27.1215
21
-96.6325
0
LINE
8
Black
10
27.1215
20
-96.6325
11
27.1215
21
-98.1848
0
LINE
8
Black
10
27.1215
20
-98.1848
11
27.6507
21
-98.7139
0
LINE
8
Black
10
27.6507
20
-98.7139
11
27.6507
21
-99.9663
0
LINE
8
Black
10
29.2029
20
-96.5973
11
29.2029
21
-95.9446
0
LINE
8
Black
10
29.2029
20
-95.9446
11
31.1961
21
-95.9446
0
LINE
8
Black
10
31.1961
20
-95.9446
11
31.1961
21
-96.562
  0
TEXT
  7
KICADB
  8
Black
  10
36.7268
  11
36.7268
  20
-111.986
  21
-111.986
  40
1
  41
1
  50
0
  51
0
  71
0
  72
1
  73
2
  1
U13
  0
TEXT
  7
KICADB
  8
Black
  10
106.045
  11
106.045
  20
-90.805
  21
-90.805
  40
1
  41
1
  50
0
  51
0
  71
0
  72
1
  73
2
  1
D18
  0
TEXT
  7
KICADB
  8
Black
  10
98.1964
  11
98.1964
  20
-114.757
  21
-114.757
  40
1
  41
1
  50
0
  51
0
  71
0
  72
1
  73
2
  1
J6
  0
TEXT
  7
KICADB
  8
Black
  10
35.052
  11
35.052
  20
-36.957
  21
-36.957
  40
1
  41
1
  50
0
  51
0
  71
0
  72
1
  73
2
  1
Q1
  0
TEXT
  7
KICADB
  8
Black
  10
43.053
  11
43.053
  20
-30.099
  21
-30.099
  40
1
  41
1
  50
0
  51
0
  71
0
  72
1
  73
2
  1
R22
  0
TEXT
  7
KICADB
  8
Black
  10
115.47
  11
115.47
  20
-90.13
  21
-90.13
  40
1
  41
1
  50
0
  51
0
  71
0
  72
1
  73
2
  1
U7
  0
TEXT
  7
KICADB
  8
Black
  10
42.926
  11
42.926
  20
-34.798
  21
-34.798
  40
1
  41
1
  50
0
  51
0
  71
0
  72
1
  73
2
  1
U8
  0
TEXT
  7
KICADB
  8
Black
  10
55.118
  11
55.118
  20
-41.148
  21
-41.148
  40
1
  41
1
  50
0
  51
0
  71
0
  72
1
  73
2
  1
J2
  0
TEXT
  7
KICADB
  8
Black
  10
30.48
  11
30.48
  20
-60.706
  21
-60.706
  40
1
  41
1
  50
0
  51
0
  71
0
  72
1
  73
2
  1
J4
  0
TEXT
  7
KICADB
  8
Black
  10
115.495
  11
115.495
  20
-113.655
  21
-113.655
  40
1
  41
1
  50
0
  51
0
  71
0
  72
1
  73
2
  1
J3
  0
TEXT
  7
KICADB
  8
Black
  10
39.37
  11
39.37
  20
-48.26
  21
-48.26
  40
0.85
  41
1
  50
0
  51
0
  71
0
  72
1
  73
2
  1
R25
  0
TEXT
  7
KICADB
  8
Black
  10
31.75
  11
31.75
  20
-45.085
  21
-45.085
  40
0.85
  41
1
  50
0
  51
0
  71
0
  72
1
  73
2
  1
R24
  0
TEXT
  7
KICADB
  8
Black
  10
31.75
  11
31.75
  20
-48.26
  21
-48.26
  40
0.85
  41
1
  50
0
  51
0
  71
0
  72
1
  73
2
  1
R23
  0
TEXT
  7
KICADB
  8
Black
  10
106.553
  11
106.553
  20
-67.691
  21
-67.691
  40
0.85
  41
1
  50
0
  51
0
  71
0
  72
1
  73
2
  1
R16
  0
TEXT
  7
KICADB
  8
Black
  10
121.158
  11
121.158
  20
-67.691
  21
-67.691
  40
0.85
  41
1
  50
0
  51
0
  71
0
  72
1
  73
2
  1
R15
  0
TEXT
  7
KICADB
  8
Black
  10
121.158
  11
121.158
  20
-88.9
  21
-88.9
  40
0.85
  41
1
  50
0
  51
0
  71
0
  72
1
  73
2
  1
R14
  0
TEXT
  7
KICADB
  8
Black
  10
106.553
  11
106.553
  20
-88.9
  21
-88.9
  40
0.85
  41
1
  50
0
  51
0
  71
0
  72
1
  73
2
  1
R13
  0
TEXT
  7
KICADB
  8
Black
  10
87.884
  11
87.884
  20
-67.691
  21
-67.691
  40
0.85
  41
1
  50
0
  51
0
  71
0
  72
1
  73
2
  1
R12
  0
TEXT
  7
KICADB
  8
Black
  10
102.235
  11
102.235
  20
-67.691
  21
-67.691
  40
0.85
  41
1
  50
0
  51
0
  71
0
  72
1
  73
2
  1
R11
  0
TEXT
  7
KICADB
  8
Black
  10
102.413
  11
102.413
  20
-88.9508
  21
-88.9508
  40
0.85
  41
1
  50
0
  51
0
  71
0
  72
1
  73
2
  1
R10
  0
TEXT
  7
KICADB
  8
Black
  10
87.63
  11
87.63
  20
-88.9
  21
-88.9
  40
0.85
  41
1
  50
0
  51
0
  71
0
  72
1
  73
2
  1
R9
  0
TEXT
  7
KICADB
  8
Black
  10
68.58
  11
68.58
  20
-67.691
  21
-67.691
  40
0.85
  41
1
  50
0
  51
0
  71
0
  72
1
  73
2
  1
R8
  0
TEXT
  7
KICADB
  8
Black
  10
83.185
  11
83.185
  20
-67.691
  21
-67.691
  40
0.85
  41
1
  50
0
  51
0
  71
0
  72
1
  73
2
  1
R7
  0
TEXT
  7
KICADB
  8
Black
  10
83.185
  11
83.185
  20
-88.9
  21
-88.9
  40
0.85
  41
1
  50
0
  51
0
  71
0
  72
1
  73
2
  1
R6
  0
TEXT
  7
KICADB
  8
Black
  10
68.58
  11
68.58
  20
-88.9
  21
-88.9
  40
0.85
  41
1
  50
0
  51
0
  71
0
  72
1
  73
2
  1
R5
  0
TEXT
  7
KICADB
  8
Black
  10
49.022
  11
49.022
  20
-67.564
  21
-67.564
  40
0.85
  41
1
  50
0
  51
0
  71
0
  72
1
  73
2
  1
R4
  0
TEXT
  7
KICADB
  8
Black
  10
63.5
  11
63.5
  20
-67.564
  21
-67.564
  40
0.85
  41
1
  50
0
  51
0
  71
0
  72
1
  73
2
  1
R3
  0
TEXT
  7
KICADB
  8
Black
  10
63.5
  11
63.5
  20
-88.9
  21
-88.9
  40
0.85
  41
1
  50
0
  51
0
  71
0
  72
1
  73
2
  1
R2
  0
TEXT
  7
KICADB
  8
Black
  10
48.895
  11
48.895
  20
-88.9
  21
-88.9
  40
0.85
  41
1
  50
0
  51
0
  71
0
  72
1
  73
2
  1
R1
  0
TEXT
  7
KICADB
  8
Black
  10
53.34
  11
53.34
  20
-88.11
  21
-88.11
  40
0.85
  41
1
  50
0
  51
0
  71
0
  72
1
  73
2
  1
D101
  0
TEXT
  7
KICADB
  8
Black
  10
59.055
  11
59.055
  20
-88.11
  21
-88.11
  40
0.85
  41
1
  50
0
  51
0
  71
0
  72
1
  73
2
  1
D102
  0
TEXT
  7
KICADB
  8
Black
  10
59.055
  11
59.055
  20
-68.1
  21
-68.1
  40
0.85
  41
1
  50
0
  51
0
  71
0
  72
1
  73
2
  1
D103
  0
TEXT
  7
KICADB
  8
Black
  10
53.34
  11
53.34
  20
-68.1
  21
-68.1
  40
0.85
  41
1
  50
0
  51
0
  71
0
  72
1
  73
2
  1
D104
  0
TEXT
  7
KICADB
  8
Black
  10
73.025
  11
73.025
  20
-88.11
  21
-88.11
  40
0.85
  41
1
  50
0
  51
0
  71
0
  72
1
  73
2
  1
D105
  0
TEXT
  7
KICADB
  8
Black
  10
78.74
  11
78.74
  20
-88.11
  21
-88.11
  40
0.85
  41
1
  50
0
  51
0
  71
0
  72
1
  73
2
  1
D106
  0
TEXT
  7
KICADB
  8
Black
  10
78.74
  11
78.74
  20
-68.1
  21
-68.1
  40
0.85
  41
1
  50
0
  51
0
  71
0
  72
1
  73
2
  1
D107
  0
TEXT
  7
KICADB
  8
Black
  10
73.025
  11
73.025
  20
-68.1
  21
-68.1
  40
0.85
  41
1
  50
0
  51
0
  71
0
  72
1
  73
2
  1
D108
  0
TEXT
  7
KICADB
  8
Black
  10
92.075
  11
92.075
  20
-88.11
  21
-88.11
  40
0.85
  41
1
  50
0
  51
0
  71
0
  72
1
  73
2
  1
D109
  0
TEXT
  7
KICADB
  8
Black
  10
97.79
  11
97.79
  20
-88.11
  21
-88.11
  40
0.85
  41
1
  50
0
  51
0
  71
0
  72
1
  73
2
  1
D110
  0
TEXT
  7
KICADB
  8
Black
  10
97.79
  11
97.79
  20
-68.1
  21
-68.1
  40
0.85
  41
1
  50
0
  51
0
  71
0
  72
1
  73
2
  1
D111
  0
TEXT
  7
KICADB
  8
Black
  10
92.075
  11
92.075
  20
-68.1
  21
-68.1
  40
0.85
  41
1
  50
0
  51
0
  71
0
  72
1
  73
2
  1
D112
  0
TEXT
  7
KICADB
  8
Black
  10
110.998
  11
110.998
  20
-88.11
  21
-88.11
  40
0.85
  41
1
  50
0
  51
0
  71
0
  72
1
  73
2
  1
D113
  0
TEXT
  7
KICADB
  8
Black
  10
116.713
  11
116.713
  20
-88.11
  21
-88.11
  40
0.85
  41
1
  50
0
  51
0
  71
0
  72
1
  73
2
  1
D114
  0
TEXT
  7
KICADB
  8
Black
  10
116.713
  11
116.713
  20
-68.1
  21
-68.1
  40
0.85
  41
1
  50
0
  51
0
  71
0
  72
1
  73
2
  1
D115
  0
TEXT
  7
KICADB
  8
Black
  10
110.998
  11
110.998
  20
-68.1
  21
-68.1
  40
0.85
  41
1
  50
0
  51
0
  71
0
  72
1
  73
2
  1
D116
  0
TEXT
  7
KICADB
  8
Black
  10
47.625
  11
47.625
  20
-84.836
  21
-84.836
  40
0.85
  41
1
  50
0
  51
0
  71
0
  72
1
  73
2
  1
C1
  0
TEXT
  7
KICADB
  8
Black
  10
66.675
  11
66.675
  20
-84.836
  21
-84.836
  40
0.85
  41
1
  50
0
  51
0
  71
0
  72
1
  73
2
  1
C2
  0
TEXT
  7
KICADB
  8
Black
  10
85.725
  11
85.725
  20
-84.836
  21
-84.836
  40
0.85
  41
1
  50
0
  51
0
  71
0
  72
1
  73
2
  1
C3
  0
TEXT
  7
KICADB
  8
Black
  10
104.648
  11
104.648
  20
-84.836
  21
-84.836
  40
0.85
  41
1
  50
0
  51
0
  71
0
  72
1
  73
2
  1
C4
  0
TEXT
  7
KICADB
  8
Black
  10
74.295
  11
74.295
  20
-27.305
  21
-27.305
  40
1
  41
1
  50
90
  51
0
  71
0
  72
1
  73
2
  1
D9
  0
TEXT
  7
KICADB
  8
Black
  10
79.375
  11
79.375
  20
-27.305
  21
-27.305
  40
1
  41
1
  50
90
  51
0
  71
0
  72
1
  73
2
  1
D10
  0
TEXT
  7
KICADB
  8
Black
  10
84.455
  11
84.455
  20
-27.305
  21
-27.305
  40
1
  41
1
  50
90
  51
0
  71
0
  72
1
  73
2
  1
D11
  0
TEXT
  7
KICADB
  8
Black
  10
89.535
  11
89.535
  20
-27.305
  21
-27.305
  40
1
  41
1
  50
90
  51
0
  71
0
  72
1
  73
2
  1
D12
  0
TEXT
  7
KICADB
  8
Black
  10
94.615
  11
94.615
  20
-27.305
  21
-27.305
  40
1
  41
1
  50
90
  51
0
  71
0
  72
1
  73
2
  1
D13
  0
TEXT
  7
KICADB
  8
Black
  10
99.695
  11
99.695
  20
-27.305
  21
-27.305
  40
1
  41
1
  50
90
  51
0
  71
0
  72
1
  73
2
  1
D14
  0
TEXT
  7
KICADB
  8
Black
  10
104.775
  11
104.775
  20
-27.305
  21
-27.305
  40
1
  41
1
  50
90
  51
0
  71
0
  72
1
  73
2
  1
D15
  0
TEXT
  7
KICADB
  8
Black
  10
109.855
  11
109.855
  20
-27.305
  21
-27.305
  40
1
  41
1
  50
90
  51
0
  71
0
  72
1
  73
2
  1
D16
  0
TEXT
  7
KICADB
  8
Black
  10
48.3776
  11
48.3776
  20
-78.105
  21
-78.105
  40
1
  41
1
  50
90
  51
0
  71
0
  72
1
  73
2
  1
U1
  0
TEXT
  7
KICADB
  8
Black
  10
67.43
  11
67.43
  20
-78.105
  21
-78.105
  40
1
  41
1
  50
90
  51
0
  71
0
  72
1
  73
2
  1
U2
  0
TEXT
  7
KICADB
  8
Black
  10
77.58
  11
77.58
  20
-57.15
  21
-57.15
  40
1
  41
1
  50
90
  51
0
  71
0
  72
1
  73
2
  1
U3
  0
TEXT
  7
KICADB
  8
Black
  10
86.48
  11
86.48
  20
-78.105
  21
-78.105
  40
1
  41
1
  50
90
  51
0
  71
0
  72
1
  73
2
  1
U4
  0
TEXT
  7
KICADB
  8
Black
  10
105.403
  11
105.403
  20
-78.105
  21
-78.105
  40
1
  41
1
  50
90
  51
0
  71
0
  72
1
  73
2
  1
U5
  0
TEXT
  7
KICADB
  8
Black
  10
96.63
  11
96.63
  20
-57.15
  21
-57.15
  40
1
  41
1
  50
90
  51
0
  71
0
  72
1
  73
2
  1
U6
  0
TEXT
  7
KICADB
  8
Black
  10
99.4156
  11
99.4156
  20
-121.768
  21
-121.768
  40
1
  41
1
  50
0
  51
0
  71
0
  72
1
  73
2
  1
D21
  0
TEXT
  7
KICADB
  8
Black
  10
94.615
  11
94.615
  20
-96.52
  21
-96.52
  40
1
  41
1
  50
90
  51
0
  71
0
  72
1
  73
2
  1
R29
  0
TEXT
  7
KICADB
  8
Black
  10
108.585
  11
108.585
  20
-101.6
  21
-101.6
  40
0.85
  41
1
  50
0
  51
0
  71
0
  72
1
  73
2
  1
R30
  0
TEXT
  7
KICADB
  8
Black
  10
102.972
  11
102.972
  20
-113.335
  21
-113.335
  40
0.85
  41
1
  50
0
  51
0
  71
0
  72
1
  73
2
  1
R31
  0
TEXT
  7
KICADB
  8
Black
  10
99.695
  11
99.695
  20
-104.775
  21
-104.775
  40
1
  41
1
  50
0
  51
0
  71
0
  72
1
  73
2
  1
JP1
  0
TEXT
  7
KICADB
  8
Black
  10
29.337
  11
29.337
  20
-30.0995
  21
-30.0995
  40
1
  41
1
  50
0
  51
0
  71
0
  72
1
  73
2
  1
D17
  0
TEXT
  7
KICADB
  8
Black
  10
98.425
  11
98.425
  20
-96.52
  21
-96.52
  40
1
  41
1
  50
90
  51
0
  71
0
  72
1
  73
2
  1
D19
  0
TEXT
  7
KICADB
  8
Black
  10
93.345
  11
93.345
  20
-107.95
  21
-107.95
  40
1
  41
1
  50
90
  51
0
  71
0
  72
1
  73
2
  1
D20
  0
TEXT
  7
KICADB
  8
Black
  10
30.0736
  11
30.0736
  20
-109.017
  21
-109.017
  40
0.85
  41
1
  50
0
  51
0
  71
0
  72
1
  73
2
  1
C5
  0
TEXT
  7
KICADB
  8
Black
  10
43.1546
  11
43.1546
  20
-109.017
  21
-109.017
  40
0.85
  41
1
  50
0
  51
0
  71
0
  72
1
  73
2
  1
C6
  0
TEXT
  7
KICADB
  8
Black
  10
37.4904
  11
37.4904
  20
-89.3064
  21
-89.3064
  40
0.85
  41
1
  50
0
  51
0
  71
0
  72
1
  73
2
  1
R28
  0
TEXT
  7
KICADB
  8
Black
  10
116.205
  11
116.205
  20
-101.6
  21
-101.6
  40
1
  41
1
  50
0
  51
0
  71
0
  72
1
  73
2
  1
Q2
  0
TEXT
  7
KICADB
  8
Black
  10
77.089
  11
77.089
  20
-90.932
  21
-90.932
  40
1
  41
1
  50
0
  51
0
  71
0
  72
1
  73
2
  1
J7
  0
TEXT
  7
KICADB
  8
Black
  10
86.614
  11
86.614
  20
-91.059
  21
-91.059
  40
1
  41
1
  50
0
  51
0
  71
0
  72
1
  73
2
  1
J8
  0
TEXT
  7
KICADB
  8
Black
  10
70.6651
  11
70.6651
  20
-107.291
  21
-107.291
  40
1
  41
1
  50
90
  51
0
  71
0
  72
1
  73
2
  1
Arduino Nano R3
  0
TEXT
  7
KICADB
  8
Black
  10
66.8551
  11
66.8551
  20
-107.291
  21
-107.291
  40
1
  41
1
  50
90
  51
0
  71
0
  72
1
  73
2
  1
ICSP
  0
TEXT
  7
KICADB
  8
Black
  10
27.9931
  11
27.9931
  20
-107.291
  21
-107.291
  40
1
  41
1
  50
90
  51
0
  71
0
  72
1
  73
2
  1
USB
  0
TEXT
  7
KICADB
  8
Black
  10
45.0111
  11
45.0111
  20
-123.293
  21
-123.293
  40
1
  41
1
  50
0
  51
0
  71
0
  72
1
  73
2
  1
WeMos D1 Mini
  0
TEXT
  7
KICADB
  8
Black
  10
52.8851
  11
52.8851
  20
-121.261
  21
-121.261
  40
1
  41
0.8
  50
90
  51
0
  71
0
  72
1
  73
2
  1
TX
  0
TEXT
  7
KICADB
  8
Black
  10
50.3451
  11
50.3451
  20
-121.261
  21
-121.261
  40
0.8
  41
1
  50
90
  51
0
  71
0
  72
1
  73
2
  1
RX
  0
TEXT
  7
KICADB
  8
Black
  10
47.8051
  11
47.8051
  20
-121.261
  21
-121.261
  40
0.8
  41
1
  50
90
  51
0
  71
0
  72
1
  73
2
  1
D1
  0
TEXT
  7
KICADB
  8
Black
  10
45.2651
  11
45.2651
  20
-121.261
  21
-121.261
  40
0.8
  41
1
  50
90
  51
0
  71
0
  72
1
  73
2
  1
D2
  0
TEXT
  7
KICADB
  8
Black
  10
42.7251
  11
42.7251
  20
-121.261
  21
-121.261
  40
0.8
  41
1
  50
90
  51
0
  71
0
  72
1
  73
2
  1
D3
  0
TEXT
  7
KICADB
  8
Black
  10
40.1851
  11
40.1851
  20
-121.261
  21
-121.261
  40
0.8
  41
1
  50
90
  51
0
  71
0
  72
1
  73
2
  1
D4
  0
TEXT
  7
KICADB
  8
Black
  10
37.6451
  11
37.6451
  20
-121.769
  21
-121.769
  40
0.8
  41
1
  50
90
  51
0
  71
0
  72
1
  73
2
  1
GND
  0
TEXT
  7
KICADB
  8
Black
  10
35.1051
  11
35.1051
  20
-121.261
  21
-121.261
  40
0.8
  41
1
  50
90
  51
0
  71
0
  72
1
  73
2
  1
5V
  0
TEXT
  7
KICADB
  8
Black
  10
35.1051
  11
35.1051
  20
-92.8132
  21
-92.8132
  40
0.8
  41
1
  50
90
  51
0
  71
0
  72
1
  73
2
  1
3V3
  0
TEXT
  7
KICADB
  8
Black
  10
37.6451
  11
37.6451
  20
-93.3212
  21
-93.3212
  40
0.8
  41
1
  50
90
  51
0
  71
0
  72
1
  73
2
  1
D8
  0
TEXT
  7
KICADB
  8
Black
  10
40.1851
  11
40.1851
  20
-93.3212
  21
-93.3212
  40
0.8
  41
1
  50
90
  51
0
  71
0
  72
1
  73
2
  1
D7
  0
TEXT
  7
KICADB
  8
Black
  10
42.7251
  11
42.7251
  20
-93.3212
  21
-93.3212
  40
0.8
  41
1
  50
90
  51
0
  71
0
  72
1
  73
2
  1
D6
  0
TEXT
  7
KICADB
  8
Black
  10
45.2651
  11
45.2651
  20
-93.3212
  21
-93.3212
  40
0.8
  41
1
  50
90
  51
0
  71
0
  72
1
  73
2
  1
D5
  0
TEXT
  7
KICADB
  8
Black
  10
47.8051
  11
47.8051
  20
-93.3212
  21
-93.3212
  40
0.8
  41
1
  50
90
  51
0
  71
0
  72
1
  73
2
  1
D0
  0
TEXT
  7
KICADB
  8
Black
  10
50.3451
  11
50.3451
  20
-93.3212
  21
-93.3212
  40
0.8
  41
1
  50
90
  51
0
  71
0
  72
1
  73
2
  1
A0
  0
TEXT
  7
KICADB
  8
Black
  10
52.8851
  11
52.8851
  20
-92.8132
  21
-92.8132
  40
0.8
  41
1
  50
90
  51
0
  71
0
  72
1
  73
2
  1
RST
  0
ENDSEC
  0
EOF
