M48
;DRILL file {KiCad 4.0.7} date Wednesday, June 13, 2018 'PMt' 07:43:59 PM
;FORMAT={-:-/ absolute / metric / decimal}
FMAT,2
METRIC,TZ
T1C0.300
T2C0.500
T3C0.600
T4C0.700
T5C0.750
T6C0.800
T7C0.900
T8C1.000
T9C1.001
T10C1.016
T11C1.100
T12C1.700
T13C1.600
T14C3.175
T15C3.200
T16C3.500
%
G90
G05
M71
T1
X27.534Y-51.054
X30.025Y-107.509
X30.785Y-103.581
X32.639Y-107.112
X39.031Y-103.632
X39.226Y-107.107
X39.599Y-106.299
X41.859Y-102.159
X41.958Y-105.541
X43.205Y-103.175
X43.205Y-108.026
X43.84Y-101.067
X47.549Y-109.565
X49.073Y-109.565
X52.705Y-77.597
X52.705Y-74.93
X53.035Y-108.179
X59.055Y-81.153
X60.325Y-75.057
X60.325Y-76.708
X60.325Y-78.486
X60.35Y-84.582
X60.35Y-95.301
X70.485Y-77.597
X71.755Y-75.057
X71.755Y-81.153
X71.755Y-77.597
X72.923Y-110.338
X73.863Y-111.557
X75.59Y-112.852
X78.105Y-78.486
X78.105Y-81.153
X79.375Y-75.057
X79.375Y-76.708
X90.759Y-75.019
X90.805Y-77.597
X90.805Y-81.153
X92.469Y-77.567
X97.155Y-81.153
X97.79Y-79.121
X98.425Y-75.019
X98.425Y-76.67
X107.18Y-78.333
X109.728Y-81.153
X116.078Y-79.121
X116.078Y-81.153
T2
X45.085Y-48.26
X45.847Y-81.28
X45.847Y-70.866
X46.177Y-83.312
X51.41Y-75.032
X51.816Y-47.752
X52.832Y-70.612
X53.975Y-61.849
X53.975Y-81.153
X55.245Y-81.153
X55.372Y-44.196
X56.477Y-63.5
X56.515Y-81.153
X57.785Y-46.609
X57.785Y-66.675
X57.785Y-81.153
X59.055Y-45.466
X63.043Y-82.804
X63.094Y-73.406
X65.151Y-81.28
X65.227Y-83.312
X66.675Y-70.8
X70.46Y-75.032
X71.374Y-71.247
X71.374Y-52.959
X73.025Y-66.294
X73.025Y-81.153
X74.295Y-48.895
X74.295Y-81.153
X75.565Y-66.294
X75.565Y-81.153
X75.692Y-50.927
X75.692Y-57.531
X77.089Y-50.8
X77.089Y-68.199
X78.232Y-58.674
X78.232Y-67.31
X79.375Y-54.229
X80.391Y-84.709
X80.645Y-54.991
X81.915Y-54.229
X82.144Y-82.804
X82.169Y-57.658
X82.194Y-73.406
X83.185Y-54.991
X84.277Y-83.312
X84.328Y-81.28
X84.455Y-54.229
X85.725Y-54.991
X85.725Y-70.866
X86.995Y-54.229
X88.265Y-54.991
X89.56Y-75.032
X90.427Y-71.373
X91.084Y-52.426
X92.075Y-49.149
X92.075Y-78.575
X92.075Y-81.153
X93.345Y-81.153
X94.615Y-44.704
X95.758Y-46.228
X95.885Y-81.153
X96.139Y-67.564
X96.393Y-78.486
X96.939Y-52.451
X97.155Y-61.849
X98.425Y-59.817
X99.568Y-67.945
X99.695Y-54.991
X100.33Y-59.697
X100.584Y-88.011
X100.965Y-54.229
X101.194Y-73.406
X101.194Y-82.804
X102.235Y-54.991
X103.175Y-83.312
X103.251Y-81.28
X103.505Y-54.229
X103.505Y-64.008
X103.51Y-77.508
X104.775Y-54.991
X104.775Y-70.866
X104.902Y-63.881
X106.045Y-54.229
X107.315Y-54.991
X107.493Y-100.94
X107.746Y-77.508
X108.458Y-75.032
X109.347Y-71.501
X109.474Y-77.597
X110.134Y-52.426
X110.998Y-81.153
X111.252Y-51.435
X112.268Y-81.153
X112.395Y-49.53
X113.538Y-77.508
X113.538Y-81.153
X113.792Y-46.736
X114.808Y-81.153
X114.935Y-45.974
X115.062Y-26.924
X115.062Y-67.437
X116.078Y-42.545
X116.078Y-51.562
X116.84Y-59.697
X118.363Y-67.437
X120.091Y-73.457
X120.091Y-82.753
T3
X33.909Y-40.64
X35.179Y-39.37
X35.179Y-41.91
T4
X96.52Y-92.71
X96.52Y-100.33
T5
X70.866Y-89.662
X70.917Y-118.313
X122.301Y-58.166
X122.301Y-61.722
T6
X29.21Y-32.385
X29.21Y-40.005
X39.116Y-32.385
X39.116Y-37.846
X39.116Y-40.386
X39.116Y-42.926
X46.736Y-32.385
X46.736Y-37.846
X46.736Y-40.386
X46.736Y-42.926
X100.965Y-92.71
X100.965Y-100.33
T7
X113.03Y-93.98
X115.57Y-93.98
X118.11Y-93.98
T8
X30.025Y-99.671
X30.025Y-114.911
X32.565Y-99.671
X32.565Y-114.911
X35.105Y-95.861
X35.105Y-99.671
X35.105Y-114.911
X35.105Y-118.721
X37.645Y-95.861
X37.645Y-99.671
X37.645Y-114.911
X37.645Y-118.721
X40.185Y-95.861
X40.185Y-99.671
X40.185Y-114.911
X40.185Y-118.721
X42.725Y-95.861
X42.725Y-99.671
X42.725Y-114.911
X42.725Y-118.721
X45.265Y-95.861
X45.265Y-99.671
X45.265Y-114.911
X45.265Y-118.721
X47.805Y-95.861
X47.805Y-99.671
X47.805Y-114.911
X47.805Y-118.721
X50.345Y-95.861
X50.345Y-99.671
X50.345Y-114.911
X50.345Y-118.721
X52.885Y-95.861
X52.885Y-99.671
X52.885Y-114.911
X52.885Y-118.721
X55.425Y-99.671
X55.425Y-114.911
X57.965Y-99.671
X57.965Y-114.911
X60.505Y-99.671
X60.505Y-114.911
X62.77Y-30.48
X62.77Y-33.02
X63.045Y-99.671
X63.045Y-114.911
X65.31Y-30.48
X65.31Y-33.02
X65.585Y-99.671
X65.585Y-114.911
X67.85Y-30.48
X67.85Y-33.02
X70.39Y-30.48
X70.39Y-33.02
X72.93Y-30.48
X72.93Y-33.02
X75.47Y-30.48
X75.47Y-33.02
X78.01Y-30.48
X78.01Y-33.02
X80.55Y-30.48
X80.55Y-33.02
X83.09Y-30.48
X83.09Y-33.02
X85.63Y-30.48
X85.63Y-33.02
X88.17Y-30.48
X88.17Y-33.02
X90.71Y-30.48
X90.71Y-33.02
X93.25Y-30.48
X93.25Y-33.02
X95.79Y-30.48
X95.79Y-33.02
X98.33Y-30.48
X98.33Y-33.02
X99.695Y-107.95
X99.695Y-110.49
X100.87Y-30.48
X100.87Y-33.02
X103.355Y-105.41
X103.355Y-107.95
X103.355Y-110.49
X103.41Y-30.48
X103.41Y-33.02
X105.95Y-30.48
X105.95Y-33.02
X108.49Y-30.48
X108.49Y-33.02
X111.03Y-30.48
X111.03Y-33.02
T9
X102.87Y-118.11
X102.87Y-120.65
X106.045Y-92.71
X106.045Y-95.25
T10
X29.845Y-67.945
X29.845Y-70.485
X29.845Y-73.025
X29.845Y-75.565
X29.845Y-78.105
X32.385Y-67.945
X32.385Y-70.485
X32.385Y-73.025
X32.385Y-75.565
X32.385Y-78.105
X62.738Y-39.878
X62.738Y-42.418
X65.278Y-39.878
X65.278Y-42.418
X67.818Y-39.878
X67.818Y-42.418
X70.358Y-39.878
X70.358Y-42.418
X72.898Y-39.878
X72.898Y-42.418
X75.438Y-39.878
X75.438Y-42.418
X75.594Y-97.206
X75.594Y-99.746
X75.594Y-102.286
X75.594Y-104.826
X75.594Y-107.366
X77.978Y-39.878
X77.978Y-42.418
X78.134Y-97.206
X78.134Y-99.746
X78.134Y-102.286
X78.134Y-104.826
X78.134Y-107.366
X80.518Y-39.878
X80.518Y-42.418
X83.058Y-39.878
X83.058Y-42.418
X85.598Y-39.878
X85.598Y-42.418
X85.754Y-97.206
X85.754Y-99.746
X85.754Y-102.286
X85.754Y-104.826
X85.754Y-107.366
X88.138Y-39.878
X88.138Y-42.418
X88.294Y-97.206
X88.294Y-99.746
X88.294Y-102.286
X88.294Y-104.826
X88.294Y-107.366
X90.678Y-39.878
X90.678Y-42.418
X93.218Y-39.878
X93.218Y-42.418
X95.758Y-39.878
X95.758Y-42.418
X98.298Y-39.878
X98.298Y-42.418
X100.838Y-39.878
X100.838Y-42.418
X103.378Y-39.878
X103.378Y-42.418
X105.918Y-39.878
X105.918Y-42.418
X108.458Y-39.878
X108.458Y-42.418
X110.998Y-39.878
X110.998Y-42.418
T11
X95.885Y-104.14
X95.885Y-111.76
T12
X109.555Y-116.205
X113.515Y-116.205
X117.475Y-116.205
X121.435Y-116.205
T13
X27.475Y-99.781
X27.475Y-114.801
X68.135Y-99.781
X68.135Y-114.801
T14
X53.626Y-31.75
X120.174Y-31.75
T15
X75.489Y-120.447
T16
X120.015Y-107.95
T9
X91.711Y-115.413G85X93.709Y-115.413
G05
X91.711Y-121.412G85X93.709Y-121.412
G05
X97.409Y-119.412G85X97.409Y-117.413
G05
T0
M30
