  0
SECTION
  2
HEADER
  9
$ANGBASE
  50
0.0
  9
$ANGDIR
  70
  1
  9
$MEASUREMENT
  70
0
  0
ENDSEC
  0
SECTION
  2
TABLES
  0
TABLE
  2
LTYPE
  70
1
  0
LTYPE
  2
CONTINUOUS
  70
0
  3
Solid line
  72
65
  73
0
  40
0.0
  0
ENDTAB
  0
TABLE
  2
STYLE
  70
4
  0
STYLE
  2
KICAD
  70
0
  40
0
  41
1
  42
1
  50
0
  71
0
  3
isocp.shx
  0
STYLE
  2
KICADB
  70
0
  40
0
  41
1
  42
1
  50
0
  71
0
  3
isocp.shx
  0
STYLE
  2
KICADI
  70
0
  40
0
  41
1
  42
1
  50
15
  71
0
  3
isocp.shx
  0
STYLE
  2
KICADBI
  70
0
  40
0
  41
1
  42
1
  50
15
  71
0
  3
isocp.shx
  0
ENDTAB
  0
TABLE
  2
LAYER
  70
30
  0
LAYER
  2
BLACK
  70
0
  62
7
  6
CONTINUOUS
  0
LAYER
  2
GRAY1
  70
0
  62
251
  6
CONTINUOUS
  0
LAYER
  2
GRAY2
  70
0
  62
8
  6
CONTINUOUS
  0
LAYER
  2
GRAY3
  70
0
  62
9
  6
CONTINUOUS
  0
LAYER
  2
WHITE
  70
0
  62
7
  6
CONTINUOUS
  0
LAYER
  2
LYELLOW
  70
0
  62
51
  6
CONTINUOUS
  0
LAYER
  2
BLUE1
  70
0
  62
178
  6
CONTINUOUS
  0
LAYER
  2
GREEN1
  70
0
  62
98
  6
CONTINUOUS
  0
LAYER
  2
CYAN1
  70
0
  62
138
  6
CONTINUOUS
  0
LAYER
  2
RED1
  70
0
  62
18
  6
CONTINUOUS
  0
LAYER
  2
MAGENTA1
  70
0
  62
228
  6
CONTINUOUS
  0
LAYER
  2
BROWN1
  70
0
  62
58
  6
CONTINUOUS
  0
LAYER
  2
BLUE2
  70
0
  62
5
  6
CONTINUOUS
  0
LAYER
  2
GREEN2
  70
0
  62
3
  6
CONTINUOUS
  0
LAYER
  2
CYAN2
  70
0
  62
4
  6
CONTINUOUS
  0
LAYER
  2
RED2
  70
0
  62
1
  6
CONTINUOUS
  0
LAYER
  2
MAGENTA2
  70
0
  62
6
  6
CONTINUOUS
  0
LAYER
  2
BROWN2
  70
0
  62
54
  6
CONTINUOUS
  0
LAYER
  2
BLUE3
  70
0
  62
171
  6
CONTINUOUS
  0
LAYER
  2
GREEN3
  70
0
  62
91
  6
CONTINUOUS
  0
LAYER
  2
CYAN3
  70
0
  62
131
  6
CONTINUOUS
  0
LAYER
  2
RED3
  70
0
  62
11
  6
CONTINUOUS
  0
LAYER
  2
MAGENTA3
  70
0
  62
221
  6
CONTINUOUS
  0
LAYER
  2
YELLOW3
  70
0
  62
2
  6
CONTINUOUS
  0
LAYER
  2
BLUE4
  70
0
  62
5
  6
CONTINUOUS
  0
LAYER
  2
GREEN4
  70
0
  62
3
  6
CONTINUOUS
  0
LAYER
  2
CYAN4
  70
0
  62
4
  6
CONTINUOUS
  0
LAYER
  2
RED4
  70
0
  62
1
  6
CONTINUOUS
  0
LAYER
  2
MAGENTA4
  70
0
  62
6
  6
CONTINUOUS
  0
LAYER
  2
YELLOW4
  70
0
  62
2
  6
CONTINUOUS
  0
ENDTAB
  0
ENDSEC
  0
SECTION
  2
ENTITIES
0
LINE
8
Black
10
34.6722
20
-115.251
11
35.1401
21
-115.521
0
LINE
8
Black
10
35.1401
20
-115.521
11
35.4875
21
-115.935
0
LINE
8
Black
10
35.4875
20
-115.935
11
35.6723
21
-116.443
0
LINE
8
Black
10
35.6723
20
-116.443
11
35.6723
21
-116.983
0
LINE
8
Black
10
35.6723
20
-116.983
11
35.4875
21
-117.491
0
LINE
8
Black
10
35.4875
20
-117.491
11
35.1401
21
-117.905
0
LINE
8
Black
10
35.1401
20
-117.905
11
34.6722
21
-118.175
0
LINE
8
Black
10
34.6722
20
-118.175
11
34.14
21
-118.269
0
LINE
8
Black
10
34.14
20
-118.269
11
33.6078
21
-118.175
0
LINE
8
Black
10
33.6078
20
-118.175
11
33.1399
21
-117.905
0
LINE
8
Black
10
33.1399
20
-117.905
11
32.7925
21
-117.491
0
LINE
8
Black
10
32.7925
20
-117.491
11
32.6077
21
-116.983
0
LINE
8
Black
10
32.6077
20
-116.983
11
32.6077
21
-116.443
0
LINE
8
Black
10
32.6077
20
-116.443
11
32.7925
21
-115.935
0
LINE
8
Black
10
32.7925
20
-115.935
11
33.1399
21
-115.521
0
LINE
8
Black
10
33.1399
20
-115.521
11
33.6078
21
-115.251
0
LINE
8
Black
10
33.6078
20
-115.251
11
34.14
21
-115.157
0
LINE
8
Black
10
34.14
20
-115.157
11
34.6722
21
-115.251
0
LINE
8
Black
10
38.6322
20
-115.251
11
39.1001
21
-115.521
0
LINE
8
Black
10
39.1001
20
-115.521
11
39.4475
21
-115.935
0
LINE
8
Black
10
39.4475
20
-115.935
11
39.6323
21
-116.443
0
LINE
8
Black
10
39.6323
20
-116.443
11
39.6323
21
-116.983
0
LINE
8
Black
10
39.6323
20
-116.983
11
39.4475
21
-117.491
0
LINE
8
Black
10
39.4475
20
-117.491
11
39.1001
21
-117.905
0
LINE
8
Black
10
39.1001
20
-117.905
11
38.6322
21
-118.175
0
LINE
8
Black
10
38.6322
20
-118.175
11
38.1
21
-118.269
0
LINE
8
Black
10
38.1
20
-118.269
11
37.5678
21
-118.175
0
LINE
8
Black
10
37.5678
20
-118.175
11
37.0999
21
-117.905
0
LINE
8
Black
10
37.0999
20
-117.905
11
36.7525
21
-117.491
0
LINE
8
Black
10
36.7525
20
-117.491
11
36.5677
21
-116.983
0
LINE
8
Black
10
36.5677
20
-116.983
11
36.5677
21
-116.443
0
LINE
8
Black
10
36.5677
20
-116.443
11
36.7525
21
-115.935
0
LINE
8
Black
10
36.7525
20
-115.935
11
37.0999
21
-115.521
0
LINE
8
Black
10
37.0999
20
-115.521
11
37.5678
21
-115.251
0
LINE
8
Black
10
37.5678
20
-115.251
11
38.1
21
-115.157
0
LINE
8
Black
10
38.1
20
-115.157
11
38.6322
21
-115.251
0
LINE
8
Black
10
42.5922
20
-115.251
11
43.0601
21
-115.521
0
LINE
8
Black
10
43.0601
20
-115.521
11
43.4075
21
-115.935
0
LINE
8
Black
10
43.4075
20
-115.935
11
43.5923
21
-116.443
0
LINE
8
Black
10
43.5923
20
-116.443
11
43.5923
21
-116.983
0
LINE
8
Black
10
43.5923
20
-116.983
11
43.4075
21
-117.491
0
LINE
8
Black
10
43.4075
20
-117.491
11
43.0601
21
-117.905
0
LINE
8
Black
10
43.0601
20
-117.905
11
42.5922
21
-118.175
0
LINE
8
Black
10
42.5922
20
-118.175
11
42.06
21
-118.269
0
LINE
8
Black
10
42.06
20
-118.269
11
41.5278
21
-118.175
0
LINE
8
Black
10
41.5278
20
-118.175
11
41.0599
21
-117.905
0
LINE
8
Black
10
41.0599
20
-117.905
11
40.7125
21
-117.491
0
LINE
8
Black
10
40.7125
20
-117.491
11
40.5277
21
-116.983
0
LINE
8
Black
10
40.5277
20
-116.983
11
40.5277
21
-116.443
0
LINE
8
Black
10
40.5277
20
-116.443
11
40.7125
21
-115.935
0
LINE
8
Black
10
40.7125
20
-115.935
11
41.0599
21
-115.521
0
LINE
8
Black
10
41.0599
20
-115.521
11
41.5278
21
-115.251
0
LINE
8
Black
10
41.5278
20
-115.251
11
42.06
21
-115.157
0
LINE
8
Black
10
42.06
20
-115.157
11
42.5922
21
-115.251
0
LINE
8
Black
10
57.6822
20
-115.251
11
58.1501
21
-115.521
0
LINE
8
Black
10
58.1501
20
-115.521
11
58.4975
21
-115.935
0
LINE
8
Black
10
58.4975
20
-115.935
11
58.6823
21
-116.443
0
LINE
8
Black
10
58.6823
20
-116.443
11
58.6823
21
-116.983
0
LINE
8
Black
10
58.6823
20
-116.983
11
58.4975
21
-117.491
0
LINE
8
Black
10
58.4975
20
-117.491
11
58.1501
21
-117.905
0
LINE
8
Black
10
58.1501
20
-117.905
11
57.6822
21
-118.175
0
LINE
8
Black
10
57.6822
20
-118.175
11
57.15
21
-118.269
0
LINE
8
Black
10
57.15
20
-118.269
11
56.6178
21
-118.175
0
LINE
8
Black
10
56.6178
20
-118.175
11
56.1499
21
-117.905
0
LINE
8
Black
10
56.1499
20
-117.905
11
55.8025
21
-117.491
0
LINE
8
Black
10
55.8025
20
-117.491
11
55.6177
21
-116.983
0
LINE
8
Black
10
55.6177
20
-116.983
11
55.6177
21
-116.443
0
LINE
8
Black
10
55.6177
20
-116.443
11
55.8025
21
-115.935
0
LINE
8
Black
10
55.8025
20
-115.935
11
56.1499
21
-115.521
0
LINE
8
Black
10
56.1499
20
-115.521
11
56.6178
21
-115.251
0
LINE
8
Black
10
56.6178
20
-115.251
11
57.15
21
-115.157
0
LINE
8
Black
10
57.15
20
-115.157
11
57.6822
21
-115.251
0
LINE
8
Black
10
61.6422
20
-115.251
11
62.1101
21
-115.521
0
LINE
8
Black
10
62.1101
20
-115.521
11
62.4575
21
-115.935
0
LINE
8
Black
10
62.4575
20
-115.935
11
62.6423
21
-116.443
0
LINE
8
Black
10
62.6423
20
-116.443
11
62.6423
21
-116.983
0
LINE
8
Black
10
62.6423
20
-116.983
11
62.4575
21
-117.491
0
LINE
8
Black
10
62.4575
20
-117.491
11
62.1101
21
-117.905
0
LINE
8
Black
10
62.1101
20
-117.905
11
61.6422
21
-118.175
0
LINE
8
Black
10
61.6422
20
-118.175
11
61.11
21
-118.269
0
LINE
8
Black
10
61.11
20
-118.269
11
60.5778
21
-118.175
0
LINE
8
Black
10
60.5778
20
-118.175
11
60.1099
21
-117.905
0
LINE
8
Black
10
60.1099
20
-117.905
11
59.7625
21
-117.491
0
LINE
8
Black
10
59.7625
20
-117.491
11
59.5777
21
-116.983
0
LINE
8
Black
10
59.5777
20
-116.983
11
59.5777
21
-116.443
0
LINE
8
Black
10
59.5777
20
-116.443
11
59.7625
21
-115.935
0
LINE
8
Black
10
59.7625
20
-115.935
11
60.1099
21
-115.521
0
LINE
8
Black
10
60.1099
20
-115.521
11
60.5778
21
-115.251
0
LINE
8
Black
10
60.5778
20
-115.251
11
61.11
21
-115.157
0
LINE
8
Black
10
61.11
20
-115.157
11
61.6422
21
-115.251
0
LINE
8
Black
10
65.6022
20
-115.251
11
66.0701
21
-115.521
0
LINE
8
Black
10
66.0701
20
-115.521
11
66.4175
21
-115.935
0
LINE
8
Black
10
66.4175
20
-115.935
11
66.6023
21
-116.443
0
LINE
8
Black
10
66.6023
20
-116.443
11
66.6023
21
-116.983
0
LINE
8
Black
10
66.6023
20
-116.983
11
66.4175
21
-117.491
0
LINE
8
Black
10
66.4175
20
-117.491
11
66.0701
21
-117.905
0
LINE
8
Black
10
66.0701
20
-117.905
11
65.6022
21
-118.175
0
LINE
8
Black
10
65.6022
20
-118.175
11
65.07
21
-118.269
0
LINE
8
Black
10
65.07
20
-118.269
11
64.5378
21
-118.175
0
LINE
8
Black
10
64.5378
20
-118.175
11
64.0699
21
-117.905
0
LINE
8
Black
10
64.0699
20
-117.905
11
63.7225
21
-117.491
0
LINE
8
Black
10
63.7225
20
-117.491
11
63.5377
21
-116.983
0
LINE
8
Black
10
63.5377
20
-116.983
11
63.5377
21
-116.443
0
LINE
8
Black
10
63.5377
20
-116.443
11
63.7225
21
-115.935
0
LINE
8
Black
10
63.7225
20
-115.935
11
64.0699
21
-115.521
0
LINE
8
Black
10
64.0699
20
-115.521
11
64.5378
21
-115.251
0
LINE
8
Black
10
64.5378
20
-115.251
11
65.07
21
-115.157
0
LINE
8
Black
10
65.07
20
-115.157
11
65.6022
21
-115.251
0
LINE
8
Black
10
31.73
20
-118.263
11
28.63
21
-118.263
0
LINE
8
Black
10
28.63
20
-118.263
11
28.63
21
-115.163
0
LINE
8
Black
10
28.63
20
-115.163
11
31.73
21
-115.163
0
LINE
8
Black
10
31.73
20
-115.163
11
31.73
21
-118.263
0
LINE
8
Black
10
54.74
20
-118.263
11
51.64
21
-118.263
0
LINE
8
Black
10
51.64
20
-118.263
11
51.64
21
-115.163
0
LINE
8
Black
10
51.64
20
-115.163
11
54.74
21
-115.163
0
LINE
8
Black
10
54.74
20
-115.163
11
54.74
21
-118.263
0
LINE
8
Black
10
33.0438
20
-96.2298
11
33.3268
21
-96.4673
0
LINE
8
Black
10
33.3268
20
-96.4673
11
33.5115
21
-96.7872
0
LINE
8
Black
10
33.5115
20
-96.7872
11
33.5756
21
-97.1509
0
LINE
8
Black
10
33.5756
20
-97.1509
11
33.5756
21
-97.1591
0
LINE
8
Black
10
33.5756
20
-97.1591
11
33.5115
21
-97.5228
0
LINE
8
Black
10
33.5115
20
-97.5228
11
33.3268
21
-97.8427
0
LINE
8
Black
10
33.3268
20
-97.8427
11
33.0438
21
-98.0802
0
LINE
8
Black
10
33.0438
20
-98.0802
11
32.6967
21
-98.2065
0
LINE
8
Black
10
32.6967
20
-98.2065
11
32.3273
21
-98.2065
0
LINE
8
Black
10
32.3273
20
-98.2065
11
31.9802
21
-98.0802
0
LINE
8
Black
10
31.9802
20
-98.0802
11
31.6972
21
-97.8427
0
LINE
8
Black
10
31.6972
20
-97.8427
11
31.5125
21
-97.5228
0
LINE
8
Black
10
31.5125
20
-97.5228
11
31.4484
21
-97.1591
0
LINE
8
Black
10
31.4484
20
-97.1591
11
31.4484
21
-97.1509
0
LINE
8
Black
10
31.4484
20
-97.1509
11
31.5125
21
-96.7872
0
LINE
8
Black
10
31.5125
20
-96.7872
11
31.6972
21
-96.4673
0
LINE
8
Black
10
31.6972
20
-96.4673
11
31.9802
21
-96.2298
0
LINE
8
Black
10
31.9802
20
-96.2298
11
32.3273
21
-96.1035
0
LINE
8
Black
10
32.3273
20
-96.1035
11
32.6967
21
-96.1035
0
LINE
8
Black
10
32.6967
20
-96.1035
11
33.0438
21
-96.2298
0
LINE
8
Black
10
30.5038
20
-96.2298
11
30.7868
21
-96.4673
0
LINE
8
Black
10
30.7868
20
-96.4673
11
30.9715
21
-96.7872
0
LINE
8
Black
10
30.9715
20
-96.7872
11
31.0356
21
-97.1509
0
LINE
8
Black
10
31.0356
20
-97.1509
11
31.0356
21
-97.1591
0
LINE
8
Black
10
31.0356
20
-97.1591
11
30.9715
21
-97.5228
0
LINE
8
Black
10
30.9715
20
-97.5228
11
30.7868
21
-97.8427
0
LINE
8
Black
10
30.7868
20
-97.8427
11
30.5038
21
-98.0802
0
LINE
8
Black
10
30.5038
20
-98.0802
11
30.1567
21
-98.2065
0
LINE
8
Black
10
30.1567
20
-98.2065
11
29.7873
21
-98.2065
0
LINE
8
Black
10
29.7873
20
-98.2065
11
29.4402
21
-98.0802
0
LINE
8
Black
10
29.4402
20
-98.0802
11
29.1572
21
-97.8427
0
LINE
8
Black
10
29.1572
20
-97.8427
11
28.9725
21
-97.5228
0
LINE
8
Black
10
28.9725
20
-97.5228
11
28.9084
21
-97.1591
0
LINE
8
Black
10
28.9084
20
-97.1591
11
28.9084
21
-97.1509
0
LINE
8
Black
10
28.9084
20
-97.1509
11
28.9725
21
-96.7872
0
LINE
8
Black
10
28.9725
20
-96.7872
11
29.1572
21
-96.4673
0
LINE
8
Black
10
29.1572
20
-96.4673
11
29.4402
21
-96.2298
0
LINE
8
Black
10
29.4402
20
-96.2298
11
29.7873
21
-96.1035
0
LINE
8
Black
10
29.7873
20
-96.1035
11
30.1567
21
-96.1035
0
LINE
8
Black
10
30.1567
20
-96.1035
11
30.5038
21
-96.2298
0
LINE
8
Black
10
33.0438
20
-93.6898
11
33.3268
21
-93.9273
0
LINE
8
Black
10
33.3268
20
-93.9273
11
33.5115
21
-94.2472
0
LINE
8
Black
10
33.5115
20
-94.2472
11
33.5756
21
-94.6109
0
LINE
8
Black
10
33.5756
20
-94.6109
11
33.5756
21
-94.6191
0
LINE
8
Black
10
33.5756
20
-94.6191
11
33.5115
21
-94.9828
0
LINE
8
Black
10
33.5115
20
-94.9828
11
33.3268
21
-95.3027
0
LINE
8
Black
10
33.3268
20
-95.3027
11
33.0438
21
-95.5402
0
LINE
8
Black
10
33.0438
20
-95.5402
11
32.6967
21
-95.6665
0
LINE
8
Black
10
32.6967
20
-95.6665
11
32.3273
21
-95.6665
0
LINE
8
Black
10
32.3273
20
-95.6665
11
31.9802
21
-95.5402
0
LINE
8
Black
10
31.9802
20
-95.5402
11
31.6972
21
-95.3027
0
LINE
8
Black
10
31.6972
20
-95.3027
11
31.5125
21
-94.9828
0
LINE
8
Black
10
31.5125
20
-94.9828
11
31.4484
21
-94.6191
0
LINE
8
Black
10
31.4484
20
-94.6191
11
31.4484
21
-94.6109
0
LINE
8
Black
10
31.4484
20
-94.6109
11
31.5125
21
-94.2472
0
LINE
8
Black
10
31.5125
20
-94.2472
11
31.6972
21
-93.9273
0
LINE
8
Black
10
31.6972
20
-93.9273
11
31.9802
21
-93.6898
0
LINE
8
Black
10
31.9802
20
-93.6898
11
32.3273
21
-93.5635
0
LINE
8
Black
10
32.3273
20
-93.5635
11
32.6967
21
-93.5635
0
LINE
8
Black
10
32.6967
20
-93.5635
11
33.0438
21
-93.6898
0
LINE
8
Black
10
30.5038
20
-93.6898
11
30.7868
21
-93.9273
0
LINE
8
Black
10
30.7868
20
-93.9273
11
30.9715
21
-94.2472
0
LINE
8
Black
10
30.9715
20
-94.2472
11
31.0356
21
-94.6109
0
LINE
8
Black
10
31.0356
20
-94.6109
11
31.0356
21
-94.6191
0
LINE
8
Black
10
31.0356
20
-94.6191
11
30.9715
21
-94.9828
0
LINE
8
Black
10
30.9715
20
-94.9828
11
30.7868
21
-95.3027
0
LINE
8
Black
10
30.7868
20
-95.3027
11
30.5038
21
-95.5402
0
LINE
8
Black
10
30.5038
20
-95.5402
11
30.1567
21
-95.6665
0
LINE
8
Black
10
30.1567
20
-95.6665
11
29.7873
21
-95.6665
0
LINE
8
Black
10
29.7873
20
-95.6665
11
29.4402
21
-95.5402
0
LINE
8
Black
10
29.4402
20
-95.5402
11
29.1572
21
-95.3027
0
LINE
8
Black
10
29.1572
20
-95.3027
11
28.9725
21
-94.9828
0
LINE
8
Black
10
28.9725
20
-94.9828
11
28.9084
21
-94.6191
0
LINE
8
Black
10
28.9084
20
-94.6191
11
28.9084
21
-94.6109
0
LINE
8
Black
10
28.9084
20
-94.6109
11
28.9725
21
-94.2472
0
LINE
8
Black
10
28.9725
20
-94.2472
11
29.1572
21
-93.9273
0
LINE
8
Black
10
29.1572
20
-93.9273
11
29.4402
21
-93.6898
0
LINE
8
Black
10
29.4402
20
-93.6898
11
29.7873
21
-93.5635
0
LINE
8
Black
10
29.7873
20
-93.5635
11
30.1567
21
-93.5635
0
LINE
8
Black
10
30.1567
20
-93.5635
11
30.5038
21
-93.6898
0
LINE
8
Black
10
30.5038
20
-91.1498
11
30.7868
21
-91.3873
0
LINE
8
Black
10
30.7868
20
-91.3873
11
30.9715
21
-91.7072
0
LINE
8
Black
10
30.9715
20
-91.7072
11
31.0356
21
-92.0709
0
LINE
8
Black
10
31.0356
20
-92.0709
11
31.0356
21
-92.0791
0
LINE
8
Black
10
31.0356
20
-92.0791
11
30.9715
21
-92.4428
0
LINE
8
Black
10
30.9715
20
-92.4428
11
30.7868
21
-92.7627
0
LINE
8
Black
10
30.7868
20
-92.7627
11
30.5038
21
-93.0002
0
LINE
8
Black
10
30.5038
20
-93.0002
11
30.1567
21
-93.1265
0
LINE
8
Black
10
30.1567
20
-93.1265
11
29.7873
21
-93.1265
0
LINE
8
Black
10
29.7873
20
-93.1265
11
29.4402
21
-93.0002
0
LINE
8
Black
10
29.4402
20
-93.0002
11
29.1572
21
-92.7627
0
LINE
8
Black
10
29.1572
20
-92.7627
11
28.9725
21
-92.4428
0
LINE
8
Black
10
28.9725
20
-92.4428
11
28.9084
21
-92.0791
0
LINE
8
Black
10
28.9084
20
-92.0791
11
28.9084
21
-92.0709
0
LINE
8
Black
10
28.9084
20
-92.0709
11
28.9725
21
-91.7072
0
LINE
8
Black
10
28.9725
20
-91.7072
11
29.1572
21
-91.3873
0
LINE
8
Black
10
29.1572
20
-91.3873
11
29.4402
21
-91.1498
0
LINE
8
Black
10
29.4402
20
-91.1498
11
29.7873
21
-91.0235
0
LINE
8
Black
10
29.7873
20
-91.0235
11
30.1567
21
-91.0235
0
LINE
8
Black
10
30.1567
20
-91.0235
11
30.5038
21
-91.1498
0
LINE
8
Black
10
33.0438
20
-91.1498
11
33.3268
21
-91.3873
0
LINE
8
Black
10
33.3268
20
-91.3873
11
33.5115
21
-91.7072
0
LINE
8
Black
10
33.5115
20
-91.7072
11
33.5756
21
-92.0709
0
LINE
8
Black
10
33.5756
20
-92.0709
11
33.5756
21
-92.0791
0
LINE
8
Black
10
33.5756
20
-92.0791
11
33.5115
21
-92.4428
0
LINE
8
Black
10
33.5115
20
-92.4428
11
33.3268
21
-92.7627
0
LINE
8
Black
10
33.3268
20
-92.7627
11
33.0438
21
-93.0002
0
LINE
8
Black
10
33.0438
20
-93.0002
11
32.6967
21
-93.1265
0
LINE
8
Black
10
32.6967
20
-93.1265
11
32.3273
21
-93.1265
0
LINE
8
Black
10
32.3273
20
-93.1265
11
31.9802
21
-93.0002
0
LINE
8
Black
10
31.9802
20
-93.0002
11
31.6972
21
-92.7627
0
LINE
8
Black
10
31.6972
20
-92.7627
11
31.5125
21
-92.4428
0
LINE
8
Black
10
31.5125
20
-92.4428
11
31.4484
21
-92.0791
0
LINE
8
Black
10
31.4484
20
-92.0791
11
31.4484
21
-92.0709
0
LINE
8
Black
10
31.4484
20
-92.0709
11
31.5125
21
-91.7072
0
LINE
8
Black
10
31.5125
20
-91.7072
11
31.6972
21
-91.3873
0
LINE
8
Black
10
31.6972
20
-91.3873
11
31.9802
21
-91.1498
0
LINE
8
Black
10
31.9802
20
-91.1498
11
32.3273
21
-91.0235
0
LINE
8
Black
10
32.3273
20
-91.0235
11
32.6967
21
-91.0235
0
LINE
8
Black
10
32.6967
20
-91.0235
11
33.0438
21
-91.1498
0
LINE
8
Black
10
33.0438
20
-88.6098
11
33.3268
21
-88.8473
0
LINE
8
Black
10
33.3268
20
-88.8473
11
33.5115
21
-89.1672
0
LINE
8
Black
10
33.5115
20
-89.1672
11
33.5756
21
-89.5309
0
LINE
8
Black
10
33.5756
20
-89.5309
11
33.5756
21
-89.5391
0
LINE
8
Black
10
33.5756
20
-89.5391
11
33.5115
21
-89.9028
0
LINE
8
Black
10
33.5115
20
-89.9028
11
33.3268
21
-90.2227
0
LINE
8
Black
10
33.3268
20
-90.2227
11
33.0438
21
-90.4602
0
LINE
8
Black
10
33.0438
20
-90.4602
11
32.6967
21
-90.5865
0
LINE
8
Black
10
32.6967
20
-90.5865
11
32.3273
21
-90.5865
0
LINE
8
Black
10
32.3273
20
-90.5865
11
31.9802
21
-90.4602
0
LINE
8
Black
10
31.9802
20
-90.4602
11
31.6972
21
-90.2227
0
LINE
8
Black
10
31.6972
20
-90.2227
11
31.5125
21
-89.9028
0
LINE
8
Black
10
31.5125
20
-89.9028
11
31.4484
21
-89.5391
0
LINE
8
Black
10
31.4484
20
-89.5391
11
31.4484
21
-89.5309
0
LINE
8
Black
10
31.4484
20
-89.5309
11
31.5125
21
-89.1672
0
LINE
8
Black
10
31.5125
20
-89.1672
11
31.6972
21
-88.8473
0
LINE
8
Black
10
31.6972
20
-88.8473
11
31.9802
21
-88.6098
0
LINE
8
Black
10
31.9802
20
-88.6098
11
32.3273
21
-88.4835
0
LINE
8
Black
10
32.3273
20
-88.4835
11
32.6967
21
-88.4835
0
LINE
8
Black
10
32.6967
20
-88.4835
11
33.0438
21
-88.6098
0
LINE
8
Black
10
30.5038
20
-88.6098
11
30.7868
21
-88.8473
0
LINE
8
Black
10
30.7868
20
-88.8473
11
30.9715
21
-89.1672
0
LINE
8
Black
10
30.9715
20
-89.1672
11
31.0356
21
-89.5309
0
LINE
8
Black
10
31.0356
20
-89.5309
11
31.0356
21
-89.5391
0
LINE
8
Black
10
31.0356
20
-89.5391
11
30.9715
21
-89.9028
0
LINE
8
Black
10
30.9715
20
-89.9028
11
30.7868
21
-90.2227
0
LINE
8
Black
10
30.7868
20
-90.2227
11
30.5038
21
-90.4602
0
LINE
8
Black
10
30.5038
20
-90.4602
11
30.1567
21
-90.5865
0
LINE
8
Black
10
30.1567
20
-90.5865
11
29.7873
21
-90.5865
0
LINE
8
Black
10
29.7873
20
-90.5865
11
29.4402
21
-90.4602
0
LINE
8
Black
10
29.4402
20
-90.4602
11
29.1572
21
-90.2227
0
LINE
8
Black
10
29.1572
20
-90.2227
11
28.9725
21
-89.9028
0
LINE
8
Black
10
28.9725
20
-89.9028
11
28.9084
21
-89.5391
0
LINE
8
Black
10
28.9084
20
-89.5391
11
28.9084
21
-89.5309
0
LINE
8
Black
10
28.9084
20
-89.5309
11
28.9725
21
-89.1672
0
LINE
8
Black
10
28.9725
20
-89.1672
11
29.1572
21
-88.8473
0
LINE
8
Black
10
29.1572
20
-88.8473
11
29.4402
21
-88.6098
0
LINE
8
Black
10
29.4402
20
-88.6098
11
29.7873
21
-88.4835
0
LINE
8
Black
10
29.7873
20
-88.4835
11
30.1567
21
-88.4835
0
LINE
8
Black
10
30.1567
20
-88.4835
11
30.5038
21
-88.6098
0
LINE
8
Black
10
31.0356
20
-88.0586
11
28.9084
21
-88.0586
0
LINE
8
Black
10
28.9084
20
-88.0586
11
28.9084
21
-85.9314
0
LINE
8
Black
10
28.9084
20
-85.9314
11
31.0356
21
-85.9314
0
LINE
8
Black
10
31.0356
20
-85.9314
11
31.0356
21
-88.0586
0
LINE
8
Black
10
33.0438
20
-86.0698
11
33.3268
21
-86.3073
0
LINE
8
Black
10
33.3268
20
-86.3073
11
33.5115
21
-86.6272
0
LINE
8
Black
10
33.5115
20
-86.6272
11
33.5756
21
-86.9909
0
LINE
8
Black
10
33.5756
20
-86.9909
11
33.5756
21
-86.9991
0
LINE
8
Black
10
33.5756
20
-86.9991
11
33.5115
21
-87.3628
0
LINE
8
Black
10
33.5115
20
-87.3628
11
33.3268
21
-87.6827
0
LINE
8
Black
10
33.3268
20
-87.6827
11
33.0438
21
-87.9202
0
LINE
8
Black
10
33.0438
20
-87.9202
11
32.6967
21
-88.0465
0
LINE
8
Black
10
32.6967
20
-88.0465
11
32.3273
21
-88.0465
0
LINE
8
Black
10
32.3273
20
-88.0465
11
31.9802
21
-87.9202
0
LINE
8
Black
10
31.9802
20
-87.9202
11
31.6972
21
-87.6827
0
LINE
8
Black
10
31.6972
20
-87.6827
11
31.5125
21
-87.3628
0
LINE
8
Black
10
31.5125
20
-87.3628
11
31.4484
21
-86.9991
0
LINE
8
Black
10
31.4484
20
-86.9991
11
31.4484
21
-86.9909
0
LINE
8
Black
10
31.4484
20
-86.9909
11
31.5125
21
-86.6272
0
LINE
8
Black
10
31.5125
20
-86.6272
11
31.6972
21
-86.3073
0
LINE
8
Black
10
31.6972
20
-86.3073
11
31.9802
21
-86.0698
0
LINE
8
Black
10
31.9802
20
-86.0698
11
32.3273
21
-85.9435
0
LINE
8
Black
10
32.3273
20
-85.9435
11
32.6967
21
-85.9435
0
LINE
8
Black
10
32.6967
20
-85.9435
11
33.0438
21
-86.0698
0
LINE
8
Black
10
33.0438
20
-74.1318
11
33.3268
21
-74.3693
0
LINE
8
Black
10
33.3268
20
-74.3693
11
33.5115
21
-74.6892
0
LINE
8
Black
10
33.5115
20
-74.6892
11
33.5756
21
-75.0529
0
LINE
8
Black
10
33.5756
20
-75.0529
11
33.5756
21
-75.0611
0
LINE
8
Black
10
33.5756
20
-75.0611
11
33.5115
21
-75.4248
0
LINE
8
Black
10
33.5115
20
-75.4248
11
33.3268
21
-75.7447
0
LINE
8
Black
10
33.3268
20
-75.7447
11
33.0438
21
-75.9822
0
LINE
8
Black
10
33.0438
20
-75.9822
11
32.6967
21
-76.1085
0
LINE
8
Black
10
32.6967
20
-76.1085
11
32.3273
21
-76.1085
0
LINE
8
Black
10
32.3273
20
-76.1085
11
31.9802
21
-75.9822
0
LINE
8
Black
10
31.9802
20
-75.9822
11
31.6972
21
-75.7447
0
LINE
8
Black
10
31.6972
20
-75.7447
11
31.5125
21
-75.4248
0
LINE
8
Black
10
31.5125
20
-75.4248
11
31.4484
21
-75.0611
0
LINE
8
Black
10
31.4484
20
-75.0611
11
31.4484
21
-75.0529
0
LINE
8
Black
10
31.4484
20
-75.0529
11
31.5125
21
-74.6892
0
LINE
8
Black
10
31.5125
20
-74.6892
11
31.6972
21
-74.3693
0
LINE
8
Black
10
31.6972
20
-74.3693
11
31.9802
21
-74.1318
0
LINE
8
Black
10
31.9802
20
-74.1318
11
32.3273
21
-74.0055
0
LINE
8
Black
10
32.3273
20
-74.0055
11
32.6967
21
-74.0055
0
LINE
8
Black
10
32.6967
20
-74.0055
11
33.0438
21
-74.1318
0
LINE
8
Black
10
30.5038
20
-74.1318
11
30.7868
21
-74.3693
0
LINE
8
Black
10
30.7868
20
-74.3693
11
30.9715
21
-74.6892
0
LINE
8
Black
10
30.9715
20
-74.6892
11
31.0356
21
-75.0529
0
LINE
8
Black
10
31.0356
20
-75.0529
11
31.0356
21
-75.0611
0
LINE
8
Black
10
31.0356
20
-75.0611
11
30.9715
21
-75.4248
0
LINE
8
Black
10
30.9715
20
-75.4248
11
30.7868
21
-75.7447
0
LINE
8
Black
10
30.7868
20
-75.7447
11
30.5038
21
-75.9822
0
LINE
8
Black
10
30.5038
20
-75.9822
11
30.1567
21
-76.1085
0
LINE
8
Black
10
30.1567
20
-76.1085
11
29.7873
21
-76.1085
0
LINE
8
Black
10
29.7873
20
-76.1085
11
29.4402
21
-75.9822
0
LINE
8
Black
10
29.4402
20
-75.9822
11
29.1572
21
-75.7447
0
LINE
8
Black
10
29.1572
20
-75.7447
11
28.9725
21
-75.4248
0
LINE
8
Black
10
28.9725
20
-75.4248
11
28.9084
21
-75.0611
0
LINE
8
Black
10
28.9084
20
-75.0611
11
28.9084
21
-75.0529
0
LINE
8
Black
10
28.9084
20
-75.0529
11
28.9725
21
-74.6892
0
LINE
8
Black
10
28.9725
20
-74.6892
11
29.1572
21
-74.3693
0
LINE
8
Black
10
29.1572
20
-74.3693
11
29.4402
21
-74.1318
0
LINE
8
Black
10
29.4402
20
-74.1318
11
29.7873
21
-74.0055
0
LINE
8
Black
10
29.7873
20
-74.0055
11
30.1567
21
-74.0055
0
LINE
8
Black
10
30.1567
20
-74.0055
11
30.5038
21
-74.1318
0
LINE
8
Black
10
33.0438
20
-71.5918
11
33.3268
21
-71.8293
0
LINE
8
Black
10
33.3268
20
-71.8293
11
33.5115
21
-72.1492
0
LINE
8
Black
10
33.5115
20
-72.1492
11
33.5756
21
-72.5129
0
LINE
8
Black
10
33.5756
20
-72.5129
11
33.5756
21
-72.5211
0
LINE
8
Black
10
33.5756
20
-72.5211
11
33.5115
21
-72.8848
0
LINE
8
Black
10
33.5115
20
-72.8848
11
33.3268
21
-73.2047
0
LINE
8
Black
10
33.3268
20
-73.2047
11
33.0438
21
-73.4422
0
LINE
8
Black
10
33.0438
20
-73.4422
11
32.6967
21
-73.5685
0
LINE
8
Black
10
32.6967
20
-73.5685
11
32.3273
21
-73.5685
0
LINE
8
Black
10
32.3273
20
-73.5685
11
31.9802
21
-73.4422
0
LINE
8
Black
10
31.9802
20
-73.4422
11
31.6972
21
-73.2047
0
LINE
8
Black
10
31.6972
20
-73.2047
11
31.5125
21
-72.8848
0
LINE
8
Black
10
31.5125
20
-72.8848
11
31.4484
21
-72.5211
0
LINE
8
Black
10
31.4484
20
-72.5211
11
31.4484
21
-72.5129
0
LINE
8
Black
10
31.4484
20
-72.5129
11
31.5125
21
-72.1492
0
LINE
8
Black
10
31.5125
20
-72.1492
11
31.6972
21
-71.8293
0
LINE
8
Black
10
31.6972
20
-71.8293
11
31.9802
21
-71.5918
0
LINE
8
Black
10
31.9802
20
-71.5918
11
32.3273
21
-71.4655
0
LINE
8
Black
10
32.3273
20
-71.4655
11
32.6967
21
-71.4655
0
LINE
8
Black
10
32.6967
20
-71.4655
11
33.0438
21
-71.5918
0
LINE
8
Black
10
30.5038
20
-71.5918
11
30.7868
21
-71.8293
0
LINE
8
Black
10
30.7868
20
-71.8293
11
30.9715
21
-72.1492
0
LINE
8
Black
10
30.9715
20
-72.1492
11
31.0356
21
-72.5129
0
LINE
8
Black
10
31.0356
20
-72.5129
11
31.0356
21
-72.5211
0
LINE
8
Black
10
31.0356
20
-72.5211
11
30.9715
21
-72.8848
0
LINE
8
Black
10
30.9715
20
-72.8848
11
30.7868
21
-73.2047
0
LINE
8
Black
10
30.7868
20
-73.2047
11
30.5038
21
-73.4422
0
LINE
8
Black
10
30.5038
20
-73.4422
11
30.1567
21
-73.5685
0
LINE
8
Black
10
30.1567
20
-73.5685
11
29.7873
21
-73.5685
0
LINE
8
Black
10
29.7873
20
-73.5685
11
29.4402
21
-73.4422
0
LINE
8
Black
10
29.4402
20
-73.4422
11
29.1572
21
-73.2047
0
LINE
8
Black
10
29.1572
20
-73.2047
11
28.9725
21
-72.8848
0
LINE
8
Black
10
28.9725
20
-72.8848
11
28.9084
21
-72.5211
0
LINE
8
Black
10
28.9084
20
-72.5211
11
28.9084
21
-72.5129
0
LINE
8
Black
10
28.9084
20
-72.5129
11
28.9725
21
-72.1492
0
LINE
8
Black
10
28.9725
20
-72.1492
11
29.1572
21
-71.8293
0
LINE
8
Black
10
29.1572
20
-71.8293
11
29.4402
21
-71.5918
0
LINE
8
Black
10
29.4402
20
-71.5918
11
29.7873
21
-71.4655
0
LINE
8
Black
10
29.7873
20
-71.4655
11
30.1567
21
-71.4655
0
LINE
8
Black
10
30.1567
20
-71.4655
11
30.5038
21
-71.5918
0
LINE
8
Black
10
30.5038
20
-69.0518
11
30.7868
21
-69.2893
0
LINE
8
Black
10
30.7868
20
-69.2893
11
30.9715
21
-69.6092
0
LINE
8
Black
10
30.9715
20
-69.6092
11
31.0356
21
-69.9729
0
LINE
8
Black
10
31.0356
20
-69.9729
11
31.0356
21
-69.9811
0
LINE
8
Black
10
31.0356
20
-69.9811
11
30.9715
21
-70.3448
0
LINE
8
Black
10
30.9715
20
-70.3448
11
30.7868
21
-70.6647
0
LINE
8
Black
10
30.7868
20
-70.6647
11
30.5038
21
-70.9022
0
LINE
8
Black
10
30.5038
20
-70.9022
11
30.1567
21
-71.0285
0
LINE
8
Black
10
30.1567
20
-71.0285
11
29.7873
21
-71.0285
0
LINE
8
Black
10
29.7873
20
-71.0285
11
29.4402
21
-70.9022
0
LINE
8
Black
10
29.4402
20
-70.9022
11
29.1572
21
-70.6647
0
LINE
8
Black
10
29.1572
20
-70.6647
11
28.9725
21
-70.3448
0
LINE
8
Black
10
28.9725
20
-70.3448
11
28.9084
21
-69.9811
0
LINE
8
Black
10
28.9084
20
-69.9811
11
28.9084
21
-69.9729
0
LINE
8
Black
10
28.9084
20
-69.9729
11
28.9725
21
-69.6092
0
LINE
8
Black
10
28.9725
20
-69.6092
11
29.1572
21
-69.2893
0
LINE
8
Black
10
29.1572
20
-69.2893
11
29.4402
21
-69.0518
0
LINE
8
Black
10
29.4402
20
-69.0518
11
29.7873
21
-68.9255
0
LINE
8
Black
10
29.7873
20
-68.9255
11
30.1567
21
-68.9255
0
LINE
8
Black
10
30.1567
20
-68.9255
11
30.5038
21
-69.0518
0
LINE
8
Black
10
33.0438
20
-69.0518
11
33.3268
21
-69.2893
0
LINE
8
Black
10
33.3268
20
-69.2893
11
33.5115
21
-69.6092
0
LINE
8
Black
10
33.5115
20
-69.6092
11
33.5756
21
-69.9729
0
LINE
8
Black
10
33.5756
20
-69.9729
11
33.5756
21
-69.9811
0
LINE
8
Black
10
33.5756
20
-69.9811
11
33.5115
21
-70.3448
0
LINE
8
Black
10
33.5115
20
-70.3448
11
33.3268
21
-70.6647
0
LINE
8
Black
10
33.3268
20
-70.6647
11
33.0438
21
-70.9022
0
LINE
8
Black
10
33.0438
20
-70.9022
11
32.6967
21
-71.0285
0
LINE
8
Black
10
32.6967
20
-71.0285
11
32.3273
21
-71.0285
0
LINE
8
Black
10
32.3273
20
-71.0285
11
31.9802
21
-70.9022
0
LINE
8
Black
10
31.9802
20
-70.9022
11
31.6972
21
-70.6647
0
LINE
8
Black
10
31.6972
20
-70.6647
11
31.5125
21
-70.3448
0
LINE
8
Black
10
31.5125
20
-70.3448
11
31.4484
21
-69.9811
0
LINE
8
Black
10
31.4484
20
-69.9811
11
31.4484
21
-69.9729
0
LINE
8
Black
10
31.4484
20
-69.9729
11
31.5125
21
-69.6092
0
LINE
8
Black
10
31.5125
20
-69.6092
11
31.6972
21
-69.2893
0
LINE
8
Black
10
31.6972
20
-69.2893
11
31.9802
21
-69.0518
0
LINE
8
Black
10
31.9802
20
-69.0518
11
32.3273
21
-68.9255
0
LINE
8
Black
10
32.3273
20
-68.9255
11
32.6967
21
-68.9255
0
LINE
8
Black
10
32.6967
20
-68.9255
11
33.0438
21
-69.0518
0
LINE
8
Black
10
33.0438
20
-66.5118
11
33.3268
21
-66.7493
0
LINE
8
Black
10
33.3268
20
-66.7493
11
33.5115
21
-67.0692
0
LINE
8
Black
10
33.5115
20
-67.0692
11
33.5756
21
-67.4329
0
LINE
8
Black
10
33.5756
20
-67.4329
11
33.5756
21
-67.4411
0
LINE
8
Black
10
33.5756
20
-67.4411
11
33.5115
21
-67.8048
0
LINE
8
Black
10
33.5115
20
-67.8048
11
33.3268
21
-68.1247
0
LINE
8
Black
10
33.3268
20
-68.1247
11
33.0438
21
-68.3622
0
LINE
8
Black
10
33.0438
20
-68.3622
11
32.6967
21
-68.4885
0
LINE
8
Black
10
32.6967
20
-68.4885
11
32.3273
21
-68.4885
0
LINE
8
Black
10
32.3273
20
-68.4885
11
31.9802
21
-68.3622
0
LINE
8
Black
10
31.9802
20
-68.3622
11
31.6972
21
-68.1247
0
LINE
8
Black
10
31.6972
20
-68.1247
11
31.5125
21
-67.8048
0
LINE
8
Black
10
31.5125
20
-67.8048
11
31.4484
21
-67.4411
0
LINE
8
Black
10
31.4484
20
-67.4411
11
31.4484
21
-67.4329
0
LINE
8
Black
10
31.4484
20
-67.4329
11
31.5125
21
-67.0692
0
LINE
8
Black
10
31.5125
20
-67.0692
11
31.6972
21
-66.7493
0
LINE
8
Black
10
31.6972
20
-66.7493
11
31.9802
21
-66.5118
0
LINE
8
Black
10
31.9802
20
-66.5118
11
32.3273
21
-66.3855
0
LINE
8
Black
10
32.3273
20
-66.3855
11
32.6967
21
-66.3855
0
LINE
8
Black
10
32.6967
20
-66.3855
11
33.0438
21
-66.5118
0
LINE
8
Black
10
30.5038
20
-66.5118
11
30.7868
21
-66.7493
0
LINE
8
Black
10
30.7868
20
-66.7493
11
30.9715
21
-67.0692
0
LINE
8
Black
10
30.9715
20
-67.0692
11
31.0356
21
-67.4329
0
LINE
8
Black
10
31.0356
20
-67.4329
11
31.0356
21
-67.4411
0
LINE
8
Black
10
31.0356
20
-67.4411
11
30.9715
21
-67.8048
0
LINE
8
Black
10
30.9715
20
-67.8048
11
30.7868
21
-68.1247
0
LINE
8
Black
10
30.7868
20
-68.1247
11
30.5038
21
-68.3622
0
LINE
8
Black
10
30.5038
20
-68.3622
11
30.1567
21
-68.4885
0
LINE
8
Black
10
30.1567
20
-68.4885
11
29.7873
21
-68.4885
0
LINE
8
Black
10
29.7873
20
-68.4885
11
29.4402
21
-68.3622
0
LINE
8
Black
10
29.4402
20
-68.3622
11
29.1572
21
-68.1247
0
LINE
8
Black
10
29.1572
20
-68.1247
11
28.9725
21
-67.8048
0
LINE
8
Black
10
28.9725
20
-67.8048
11
28.9084
21
-67.4411
0
LINE
8
Black
10
28.9084
20
-67.4411
11
28.9084
21
-67.4329
0
LINE
8
Black
10
28.9084
20
-67.4329
11
28.9725
21
-67.0692
0
LINE
8
Black
10
28.9725
20
-67.0692
11
29.1572
21
-66.7493
0
LINE
8
Black
10
29.1572
20
-66.7493
11
29.4402
21
-66.5118
0
LINE
8
Black
10
29.4402
20
-66.5118
11
29.7873
21
-66.3855
0
LINE
8
Black
10
29.7873
20
-66.3855
11
30.1567
21
-66.3855
0
LINE
8
Black
10
30.1567
20
-66.3855
11
30.5038
21
-66.5118
0
LINE
8
Black
10
31.0356
20
-65.9606
11
28.9084
21
-65.9606
0
LINE
8
Black
10
28.9084
20
-65.9606
11
28.9084
21
-63.8334
0
LINE
8
Black
10
28.9084
20
-63.8334
11
31.0356
21
-63.8334
0
LINE
8
Black
10
31.0356
20
-63.8334
11
31.0356
21
-65.9606
0
LINE
8
Black
10
33.0438
20
-63.9718
11
33.3268
21
-64.2093
0
LINE
8
Black
10
33.3268
20
-64.2093
11
33.5115
21
-64.5292
0
LINE
8
Black
10
33.5115
20
-64.5292
11
33.5756
21
-64.8929
0
LINE
8
Black
10
33.5756
20
-64.8929
11
33.5756
21
-64.9011
0
LINE
8
Black
10
33.5756
20
-64.9011
11
33.5115
21
-65.2648
0
LINE
8
Black
10
33.5115
20
-65.2648
11
33.3268
21
-65.5847
0
LINE
8
Black
10
33.3268
20
-65.5847
11
33.0438
21
-65.8222
0
LINE
8
Black
10
33.0438
20
-65.8222
11
32.6967
21
-65.9485
0
LINE
8
Black
10
32.6967
20
-65.9485
11
32.3273
21
-65.9485
0
LINE
8
Black
10
32.3273
20
-65.9485
11
31.9802
21
-65.8222
0
LINE
8
Black
10
31.9802
20
-65.8222
11
31.6972
21
-65.5847
0
LINE
8
Black
10
31.6972
20
-65.5847
11
31.5125
21
-65.2648
0
LINE
8
Black
10
31.5125
20
-65.2648
11
31.4484
21
-64.9011
0
LINE
8
Black
10
31.4484
20
-64.9011
11
31.4484
21
-64.8929
0
LINE
8
Black
10
31.4484
20
-64.8929
11
31.5125
21
-64.5292
0
LINE
8
Black
10
31.5125
20
-64.5292
11
31.6972
21
-64.2093
0
LINE
8
Black
10
31.6972
20
-64.2093
11
31.9802
21
-63.9718
0
LINE
8
Black
10
31.9802
20
-63.9718
11
32.3273
21
-63.8455
0
LINE
8
Black
10
32.3273
20
-63.8455
11
32.6967
21
-63.8455
0
LINE
8
Black
10
32.6967
20
-63.8455
11
33.0438
21
-63.9718
0
LINE
8
Black
10
31.0857
20
-28.7671
11
32.0405
21
-29.3183
0
LINE
8
Black
10
32.0405
20
-29.3183
11
32.7491
21
-30.1628
0
LINE
8
Black
10
32.7491
20
-30.1628
11
33.1262
21
-31.1988
0
LINE
8
Black
10
33.1262
20
-31.1988
11
33.1262
21
-32.3012
0
LINE
8
Black
10
33.1262
20
-32.3012
11
32.7491
21
-33.3372
0
LINE
8
Black
10
32.7491
20
-33.3372
11
32.0405
21
-34.1817
0
LINE
8
Black
10
32.0405
20
-34.1817
11
31.0857
21
-34.7329
0
LINE
8
Black
10
31.0857
20
-34.7329
11
30
21
-34.9244
0
LINE
8
Black
10
30
20
-34.9244
11
28.9143
21
-34.7329
0
LINE
8
Black
10
28.9143
20
-34.7329
11
27.9595
21
-34.1817
0
LINE
8
Black
10
27.9595
20
-34.1817
11
27.2509
21
-33.3372
0
LINE
8
Black
10
27.2509
20
-33.3372
11
26.8738
21
-32.3012
0
LINE
8
Black
10
26.8738
20
-32.3012
11
26.8738
21
-31.1988
0
LINE
8
Black
10
26.8738
20
-31.1988
11
27.2509
21
-30.1628
0
LINE
8
Black
10
27.2509
20
-30.1628
11
27.9595
21
-29.3183
0
LINE
8
Black
10
27.9595
20
-29.3183
11
28.9143
21
-28.7671
0
LINE
8
Black
10
28.9143
20
-28.7671
11
30
21
-28.5756
0
LINE
8
Black
10
30
20
-28.5756
11
31.0857
21
-28.7671
0
LINE
8
Black
10
97.6337
20
-28.7671
11
98.5885
21
-29.3183
0
LINE
8
Black
10
98.5885
20
-29.3183
11
99.2971
21
-30.1628
0
LINE
8
Black
10
99.2971
20
-30.1628
11
99.6742
21
-31.1988
0
LINE
8
Black
10
99.6742
20
-31.1988
11
99.6742
21
-32.3012
0
LINE
8
Black
10
99.6742
20
-32.3012
11
99.2971
21
-33.3372
0
LINE
8
Black
10
99.2971
20
-33.3372
11
98.5885
21
-34.1817
0
LINE
8
Black
10
98.5885
20
-34.1817
11
97.6337
21
-34.7329
0
LINE
8
Black
10
97.6337
20
-34.7329
11
96.548
21
-34.9244
0
LINE
8
Black
10
96.548
20
-34.9244
11
95.4623
21
-34.7329
0
LINE
8
Black
10
95.4623
20
-34.7329
11
94.5075
21
-34.1817
0
LINE
8
Black
10
94.5075
20
-34.1817
11
93.7989
21
-33.3372
0
LINE
8
Black
10
93.7989
20
-33.3372
11
93.4218
21
-32.3012
0
LINE
8
Black
10
93.4218
20
-32.3012
11
93.4218
21
-31.1988
0
LINE
8
Black
10
93.4218
20
-31.1988
11
93.7989
21
-30.1628
0
LINE
8
Black
10
93.7989
20
-30.1628
11
94.5075
21
-29.3183
0
LINE
8
Black
10
94.5075
20
-29.3183
11
95.4623
21
-28.7671
0
LINE
8
Black
10
95.4623
20
-28.7671
11
96.548
21
-28.5756
0
LINE
8
Black
10
96.548
20
-28.5756
11
97.6337
21
-28.7671
0
LINE
8
Black
10
54.884
20
-32.1502
11
55.15
21
-32.3734
0
LINE
8
Black
10
55.15
20
-32.3734
11
55.3237
21
-32.6742
0
LINE
8
Black
10
55.3237
20
-32.6742
11
55.384
21
-33.0162
0
LINE
8
Black
10
55.384
20
-33.0162
11
55.384
21
-33.0238
0
LINE
8
Black
10
55.384
20
-33.0238
11
55.3237
21
-33.3658
0
LINE
8
Black
10
55.3237
20
-33.3658
11
55.15
21
-33.6666
0
LINE
8
Black
10
55.15
20
-33.6666
11
54.884
21
-33.8898
0
LINE
8
Black
10
54.884
20
-33.8898
11
54.5576
21
-34.0086
0
LINE
8
Black
10
54.5576
20
-34.0086
11
54.2104
21
-34.0086
0
LINE
8
Black
10
54.2104
20
-34.0086
11
53.884
21
-33.8898
0
LINE
8
Black
10
53.884
20
-33.8898
11
53.618
21
-33.6666
0
LINE
8
Black
10
53.618
20
-33.6666
11
53.4443
21
-33.3658
0
LINE
8
Black
10
53.4443
20
-33.3658
11
53.384
21
-33.0238
0
LINE
8
Black
10
53.384
20
-33.0238
11
53.384
21
-33.0162
0
LINE
8
Black
10
53.384
20
-33.0162
11
53.4443
21
-32.6742
0
LINE
8
Black
10
53.4443
20
-32.6742
11
53.618
21
-32.3734
0
LINE
8
Black
10
53.618
20
-32.3734
11
53.884
21
-32.1502
0
LINE
8
Black
10
53.884
20
-32.1502
11
54.2104
21
-32.0314
0
LINE
8
Black
10
54.2104
20
-32.0314
11
54.5576
21
-32.0314
0
LINE
8
Black
10
54.5576
20
-32.0314
11
54.884
21
-32.1502
0
LINE
8
Black
10
52.344
20
-32.1502
11
52.61
21
-32.3734
0
LINE
8
Black
10
52.61
20
-32.3734
11
52.7837
21
-32.6742
0
LINE
8
Black
10
52.7837
20
-32.6742
11
52.844
21
-33.0162
0
LINE
8
Black
10
52.844
20
-33.0162
11
52.844
21
-33.0238
0
LINE
8
Black
10
52.844
20
-33.0238
11
52.7837
21
-33.3658
0
LINE
8
Black
10
52.7837
20
-33.3658
11
52.61
21
-33.6666
0
LINE
8
Black
10
52.61
20
-33.6666
11
52.344
21
-33.8898
0
LINE
8
Black
10
52.344
20
-33.8898
11
52.0176
21
-34.0086
0
LINE
8
Black
10
52.0176
20
-34.0086
11
51.6704
21
-34.0086
0
LINE
8
Black
10
51.6704
20
-34.0086
11
51.344
21
-33.8898
0
LINE
8
Black
10
51.344
20
-33.8898
11
51.078
21
-33.6666
0
LINE
8
Black
10
51.078
20
-33.6666
11
50.9043
21
-33.3658
0
LINE
8
Black
10
50.9043
20
-33.3658
11
50.844
21
-33.0238
0
LINE
8
Black
10
50.844
20
-33.0238
11
50.844
21
-33.0162
0
LINE
8
Black
10
50.844
20
-33.0162
11
50.9043
21
-32.6742
0
LINE
8
Black
10
50.9043
20
-32.6742
11
51.078
21
-32.3734
0
LINE
8
Black
10
51.078
20
-32.3734
11
51.344
21
-32.1502
0
LINE
8
Black
10
51.344
20
-32.1502
11
51.6704
21
-32.0314
0
LINE
8
Black
10
51.6704
20
-32.0314
11
52.0176
21
-32.0314
0
LINE
8
Black
10
52.0176
20
-32.0314
11
52.344
21
-32.1502
0
LINE
8
Black
10
57.424
20
-32.1502
11
57.69
21
-32.3734
0
LINE
8
Black
10
57.69
20
-32.3734
11
57.8637
21
-32.6742
0
LINE
8
Black
10
57.8637
20
-32.6742
11
57.924
21
-33.0162
0
LINE
8
Black
10
57.924
20
-33.0162
11
57.924
21
-33.0238
0
LINE
8
Black
10
57.924
20
-33.0238
11
57.8637
21
-33.3658
0
LINE
8
Black
10
57.8637
20
-33.3658
11
57.69
21
-33.6666
0
LINE
8
Black
10
57.69
20
-33.6666
11
57.424
21
-33.8898
0
LINE
8
Black
10
57.424
20
-33.8898
11
57.0976
21
-34.0086
0
LINE
8
Black
10
57.0976
20
-34.0086
11
56.7504
21
-34.0086
0
LINE
8
Black
10
56.7504
20
-34.0086
11
56.424
21
-33.8898
0
LINE
8
Black
10
56.424
20
-33.8898
11
56.158
21
-33.6666
0
LINE
8
Black
10
56.158
20
-33.6666
11
55.9843
21
-33.3658
0
LINE
8
Black
10
55.9843
20
-33.3658
11
55.924
21
-33.0238
0
LINE
8
Black
10
55.924
20
-33.0238
11
55.924
21
-33.0162
0
LINE
8
Black
10
55.924
20
-33.0162
11
55.9843
21
-32.6742
0
LINE
8
Black
10
55.9843
20
-32.6742
11
56.158
21
-32.3734
0
LINE
8
Black
10
56.158
20
-32.3734
11
56.424
21
-32.1502
0
LINE
8
Black
10
56.424
20
-32.1502
11
56.7504
21
-32.0314
0
LINE
8
Black
10
56.7504
20
-32.0314
11
57.0976
21
-32.0314
0
LINE
8
Black
10
57.0976
20
-32.0314
11
57.424
21
-32.1502
0
LINE
8
Black
10
59.964
20
-32.1502
11
60.23
21
-32.3734
0
LINE
8
Black
10
60.23
20
-32.3734
11
60.4037
21
-32.6742
0
LINE
8
Black
10
60.4037
20
-32.6742
11
60.464
21
-33.0162
0
LINE
8
Black
10
60.464
20
-33.0162
11
60.464
21
-33.0238
0
LINE
8
Black
10
60.464
20
-33.0238
11
60.4037
21
-33.3658
0
LINE
8
Black
10
60.4037
20
-33.3658
11
60.23
21
-33.6666
0
LINE
8
Black
10
60.23
20
-33.6666
11
59.964
21
-33.8898
0
LINE
8
Black
10
59.964
20
-33.8898
11
59.6376
21
-34.0086
0
LINE
8
Black
10
59.6376
20
-34.0086
11
59.2904
21
-34.0086
0
LINE
8
Black
10
59.2904
20
-34.0086
11
58.964
21
-33.8898
0
LINE
8
Black
10
58.964
20
-33.8898
11
58.698
21
-33.6666
0
LINE
8
Black
10
58.698
20
-33.6666
11
58.5243
21
-33.3658
0
LINE
8
Black
10
58.5243
20
-33.3658
11
58.464
21
-33.0238
0
LINE
8
Black
10
58.464
20
-33.0238
11
58.464
21
-33.0162
0
LINE
8
Black
10
58.464
20
-33.0162
11
58.5243
21
-32.6742
0
LINE
8
Black
10
58.5243
20
-32.6742
11
58.698
21
-32.3734
0
LINE
8
Black
10
58.698
20
-32.3734
11
58.964
21
-32.1502
0
LINE
8
Black
10
58.964
20
-32.1502
11
59.2904
21
-32.0314
0
LINE
8
Black
10
59.2904
20
-32.0314
11
59.6376
21
-32.0314
0
LINE
8
Black
10
59.6376
20
-32.0314
11
59.964
21
-32.1502
0
LINE
8
Black
10
49.804
20
-32.1502
11
50.07
21
-32.3734
0
LINE
8
Black
10
50.07
20
-32.3734
11
50.2437
21
-32.6742
0
LINE
8
Black
10
50.2437
20
-32.6742
11
50.304
21
-33.0162
0
LINE
8
Black
10
50.304
20
-33.0162
11
50.304
21
-33.0238
0
LINE
8
Black
10
50.304
20
-33.0238
11
50.2437
21
-33.3658
0
LINE
8
Black
10
50.2437
20
-33.3658
11
50.07
21
-33.6666
0
LINE
8
Black
10
50.07
20
-33.6666
11
49.804
21
-33.8898
0
LINE
8
Black
10
49.804
20
-33.8898
11
49.4776
21
-34.0086
0
LINE
8
Black
10
49.4776
20
-34.0086
11
49.1304
21
-34.0086
0
LINE
8
Black
10
49.1304
20
-34.0086
11
48.804
21
-33.8898
0
LINE
8
Black
10
48.804
20
-33.8898
11
48.538
21
-33.6666
0
LINE
8
Black
10
48.538
20
-33.6666
11
48.3643
21
-33.3658
0
LINE
8
Black
10
48.3643
20
-33.3658
11
48.304
21
-33.0238
0
LINE
8
Black
10
48.304
20
-33.0238
11
48.304
21
-33.0162
0
LINE
8
Black
10
48.304
20
-33.0162
11
48.3643
21
-32.6742
0
LINE
8
Black
10
48.3643
20
-32.6742
11
48.538
21
-32.3734
0
LINE
8
Black
10
48.538
20
-32.3734
11
48.804
21
-32.1502
0
LINE
8
Black
10
48.804
20
-32.1502
11
49.1304
21
-32.0314
0
LINE
8
Black
10
49.1304
20
-32.0314
11
49.4776
21
-32.0314
0
LINE
8
Black
10
49.4776
20
-32.0314
11
49.804
21
-32.1502
0
LINE
8
Black
10
62.504
20
-32.1502
11
62.77
21
-32.3734
0
LINE
8
Black
10
62.77
20
-32.3734
11
62.9437
21
-32.6742
0
LINE
8
Black
10
62.9437
20
-32.6742
11
63.004
21
-33.0162
0
LINE
8
Black
10
63.004
20
-33.0162
11
63.004
21
-33.0238
0
LINE
8
Black
10
63.004
20
-33.0238
11
62.9437
21
-33.3658
0
LINE
8
Black
10
62.9437
20
-33.3658
11
62.77
21
-33.6666
0
LINE
8
Black
10
62.77
20
-33.6666
11
62.504
21
-33.8898
0
LINE
8
Black
10
62.504
20
-33.8898
11
62.1776
21
-34.0086
0
LINE
8
Black
10
62.1776
20
-34.0086
11
61.8304
21
-34.0086
0
LINE
8
Black
10
61.8304
20
-34.0086
11
61.504
21
-33.8898
0
LINE
8
Black
10
61.504
20
-33.8898
11
61.238
21
-33.6666
0
LINE
8
Black
10
61.238
20
-33.6666
11
61.0643
21
-33.3658
0
LINE
8
Black
10
61.0643
20
-33.3658
11
61.004
21
-33.0238
0
LINE
8
Black
10
61.004
20
-33.0238
11
61.004
21
-33.0162
0
LINE
8
Black
10
61.004
20
-33.0162
11
61.0643
21
-32.6742
0
LINE
8
Black
10
61.0643
20
-32.6742
11
61.238
21
-32.3734
0
LINE
8
Black
10
61.238
20
-32.3734
11
61.504
21
-32.1502
0
LINE
8
Black
10
61.504
20
-32.1502
11
61.8304
21
-32.0314
0
LINE
8
Black
10
61.8304
20
-32.0314
11
62.1776
21
-32.0314
0
LINE
8
Black
10
62.1776
20
-32.0314
11
62.504
21
-32.1502
0
LINE
8
Black
10
65.044
20
-32.1502
11
65.31
21
-32.3734
0
LINE
8
Black
10
65.31
20
-32.3734
11
65.4837
21
-32.6742
0
LINE
8
Black
10
65.4837
20
-32.6742
11
65.544
21
-33.0162
0
LINE
8
Black
10
65.544
20
-33.0162
11
65.544
21
-33.0238
0
LINE
8
Black
10
65.544
20
-33.0238
11
65.4837
21
-33.3658
0
LINE
8
Black
10
65.4837
20
-33.3658
11
65.31
21
-33.6666
0
LINE
8
Black
10
65.31
20
-33.6666
11
65.044
21
-33.8898
0
LINE
8
Black
10
65.044
20
-33.8898
11
64.7176
21
-34.0086
0
LINE
8
Black
10
64.7176
20
-34.0086
11
64.3704
21
-34.0086
0
LINE
8
Black
10
64.3704
20
-34.0086
11
64.044
21
-33.8898
0
LINE
8
Black
10
64.044
20
-33.8898
11
63.778
21
-33.6666
0
LINE
8
Black
10
63.778
20
-33.6666
11
63.6043
21
-33.3658
0
LINE
8
Black
10
63.6043
20
-33.3658
11
63.544
21
-33.0238
0
LINE
8
Black
10
63.544
20
-33.0238
11
63.544
21
-33.0162
0
LINE
8
Black
10
63.544
20
-33.0162
11
63.6043
21
-32.6742
0
LINE
8
Black
10
63.6043
20
-32.6742
11
63.778
21
-32.3734
0
LINE
8
Black
10
63.778
20
-32.3734
11
64.044
21
-32.1502
0
LINE
8
Black
10
64.044
20
-32.1502
11
64.3704
21
-32.0314
0
LINE
8
Black
10
64.3704
20
-32.0314
11
64.7176
21
-32.0314
0
LINE
8
Black
10
64.7176
20
-32.0314
11
65.044
21
-32.1502
0
LINE
8
Black
10
47.264
20
-32.1502
11
47.53
21
-32.3734
0
LINE
8
Black
10
47.53
20
-32.3734
11
47.7037
21
-32.6742
0
LINE
8
Black
10
47.7037
20
-32.6742
11
47.764
21
-33.0162
0
LINE
8
Black
10
47.764
20
-33.0162
11
47.764
21
-33.0238
0
LINE
8
Black
10
47.764
20
-33.0238
11
47.7037
21
-33.3658
0
LINE
8
Black
10
47.7037
20
-33.3658
11
47.53
21
-33.6666
0
LINE
8
Black
10
47.53
20
-33.6666
11
47.264
21
-33.8898
0
LINE
8
Black
10
47.264
20
-33.8898
11
46.9376
21
-34.0086
0
LINE
8
Black
10
46.9376
20
-34.0086
11
46.5904
21
-34.0086
0
LINE
8
Black
10
46.5904
20
-34.0086
11
46.264
21
-33.8898
0
LINE
8
Black
10
46.264
20
-33.8898
11
45.998
21
-33.6666
0
LINE
8
Black
10
45.998
20
-33.6666
11
45.8243
21
-33.3658
0
LINE
8
Black
10
45.8243
20
-33.3658
11
45.764
21
-33.0238
0
LINE
8
Black
10
45.764
20
-33.0238
11
45.764
21
-33.0162
0
LINE
8
Black
10
45.764
20
-33.0162
11
45.8243
21
-32.6742
0
LINE
8
Black
10
45.8243
20
-32.6742
11
45.998
21
-32.3734
0
LINE
8
Black
10
45.998
20
-32.3734
11
46.264
21
-32.1502
0
LINE
8
Black
10
46.264
20
-32.1502
11
46.5904
21
-32.0314
0
LINE
8
Black
10
46.5904
20
-32.0314
11
46.9376
21
-32.0314
0
LINE
8
Black
10
46.9376
20
-32.0314
11
47.264
21
-32.1502
0
LINE
8
Black
10
67.584
20
-32.1502
11
67.85
21
-32.3734
0
LINE
8
Black
10
67.85
20
-32.3734
11
68.0237
21
-32.6742
0
LINE
8
Black
10
68.0237
20
-32.6742
11
68.084
21
-33.0162
0
LINE
8
Black
10
68.084
20
-33.0162
11
68.084
21
-33.0238
0
LINE
8
Black
10
68.084
20
-33.0238
11
68.0237
21
-33.3658
0
LINE
8
Black
10
68.0237
20
-33.3658
11
67.85
21
-33.6666
0
LINE
8
Black
10
67.85
20
-33.6666
11
67.584
21
-33.8898
0
LINE
8
Black
10
67.584
20
-33.8898
11
67.2576
21
-34.0086
0
LINE
8
Black
10
67.2576
20
-34.0086
11
66.9104
21
-34.0086
0
LINE
8
Black
10
66.9104
20
-34.0086
11
66.584
21
-33.8898
0
LINE
8
Black
10
66.584
20
-33.8898
11
66.318
21
-33.6666
0
LINE
8
Black
10
66.318
20
-33.6666
11
66.1443
21
-33.3658
0
LINE
8
Black
10
66.1443
20
-33.3658
11
66.084
21
-33.0238
0
LINE
8
Black
10
66.084
20
-33.0238
11
66.084
21
-33.0162
0
LINE
8
Black
10
66.084
20
-33.0162
11
66.1443
21
-32.6742
0
LINE
8
Black
10
66.1443
20
-32.6742
11
66.318
21
-32.3734
0
LINE
8
Black
10
66.318
20
-32.3734
11
66.584
21
-32.1502
0
LINE
8
Black
10
66.584
20
-32.1502
11
66.9104
21
-32.0314
0
LINE
8
Black
10
66.9104
20
-32.0314
11
67.2576
21
-32.0314
0
LINE
8
Black
10
67.2576
20
-32.0314
11
67.584
21
-32.1502
0
LINE
8
Black
10
70.124
20
-32.1502
11
70.39
21
-32.3734
0
LINE
8
Black
10
70.39
20
-32.3734
11
70.5637
21
-32.6742
0
LINE
8
Black
10
70.5637
20
-32.6742
11
70.624
21
-33.0162
0
LINE
8
Black
10
70.624
20
-33.0162
11
70.624
21
-33.0238
0
LINE
8
Black
10
70.624
20
-33.0238
11
70.5637
21
-33.3658
0
LINE
8
Black
10
70.5637
20
-33.3658
11
70.39
21
-33.6666
0
LINE
8
Black
10
70.39
20
-33.6666
11
70.124
21
-33.8898
0
LINE
8
Black
10
70.124
20
-33.8898
11
69.7976
21
-34.0086
0
LINE
8
Black
10
69.7976
20
-34.0086
11
69.4504
21
-34.0086
0
LINE
8
Black
10
69.4504
20
-34.0086
11
69.124
21
-33.8898
0
LINE
8
Black
10
69.124
20
-33.8898
11
68.858
21
-33.6666
0
LINE
8
Black
10
68.858
20
-33.6666
11
68.6843
21
-33.3658
0
LINE
8
Black
10
68.6843
20
-33.3658
11
68.624
21
-33.0238
0
LINE
8
Black
10
68.624
20
-33.0238
11
68.624
21
-33.0162
0
LINE
8
Black
10
68.624
20
-33.0162
11
68.6843
21
-32.6742
0
LINE
8
Black
10
68.6843
20
-32.6742
11
68.858
21
-32.3734
0
LINE
8
Black
10
68.858
20
-32.3734
11
69.124
21
-32.1502
0
LINE
8
Black
10
69.124
20
-32.1502
11
69.4504
21
-32.0314
0
LINE
8
Black
10
69.4504
20
-32.0314
11
69.7976
21
-32.0314
0
LINE
8
Black
10
69.7976
20
-32.0314
11
70.124
21
-32.1502
0
LINE
8
Black
10
44.724
20
-32.1502
11
44.99
21
-32.3734
0
LINE
8
Black
10
44.99
20
-32.3734
11
45.1637
21
-32.6742
0
LINE
8
Black
10
45.1637
20
-32.6742
11
45.224
21
-33.0162
0
LINE
8
Black
10
45.224
20
-33.0162
11
45.224
21
-33.0238
0
LINE
8
Black
10
45.224
20
-33.0238
11
45.1637
21
-33.3658
0
LINE
8
Black
10
45.1637
20
-33.3658
11
44.99
21
-33.6666
0
LINE
8
Black
10
44.99
20
-33.6666
11
44.724
21
-33.8898
0
LINE
8
Black
10
44.724
20
-33.8898
11
44.3976
21
-34.0086
0
LINE
8
Black
10
44.3976
20
-34.0086
11
44.0504
21
-34.0086
0
LINE
8
Black
10
44.0504
20
-34.0086
11
43.724
21
-33.8898
0
LINE
8
Black
10
43.724
20
-33.8898
11
43.458
21
-33.6666
0
LINE
8
Black
10
43.458
20
-33.6666
11
43.2843
21
-33.3658
0
LINE
8
Black
10
43.2843
20
-33.3658
11
43.224
21
-33.0238
0
LINE
8
Black
10
43.224
20
-33.0238
11
43.224
21
-33.0162
0
LINE
8
Black
10
43.224
20
-33.0162
11
43.2843
21
-32.6742
0
LINE
8
Black
10
43.2843
20
-32.6742
11
43.458
21
-32.3734
0
LINE
8
Black
10
43.458
20
-32.3734
11
43.724
21
-32.1502
0
LINE
8
Black
10
43.724
20
-32.1502
11
44.0504
21
-32.0314
0
LINE
8
Black
10
44.0504
20
-32.0314
11
44.3976
21
-32.0314
0
LINE
8
Black
10
44.3976
20
-32.0314
11
44.724
21
-32.1502
0
LINE
8
Black
10
72.664
20
-32.1502
11
72.93
21
-32.3734
0
LINE
8
Black
10
72.93
20
-32.3734
11
73.1037
21
-32.6742
0
LINE
8
Black
10
73.1037
20
-32.6742
11
73.164
21
-33.0162
0
LINE
8
Black
10
73.164
20
-33.0162
11
73.164
21
-33.0238
0
LINE
8
Black
10
73.164
20
-33.0238
11
73.1037
21
-33.3658
0
LINE
8
Black
10
73.1037
20
-33.3658
11
72.93
21
-33.6666
0
LINE
8
Black
10
72.93
20
-33.6666
11
72.664
21
-33.8898
0
LINE
8
Black
10
72.664
20
-33.8898
11
72.3376
21
-34.0086
0
LINE
8
Black
10
72.3376
20
-34.0086
11
71.9904
21
-34.0086
0
LINE
8
Black
10
71.9904
20
-34.0086
11
71.664
21
-33.8898
0
LINE
8
Black
10
71.664
20
-33.8898
11
71.398
21
-33.6666
0
LINE
8
Black
10
71.398
20
-33.6666
11
71.2243
21
-33.3658
0
LINE
8
Black
10
71.2243
20
-33.3658
11
71.164
21
-33.0238
0
LINE
8
Black
10
71.164
20
-33.0238
11
71.164
21
-33.0162
0
LINE
8
Black
10
71.164
20
-33.0162
11
71.2243
21
-32.6742
0
LINE
8
Black
10
71.2243
20
-32.6742
11
71.398
21
-32.3734
0
LINE
8
Black
10
71.398
20
-32.3734
11
71.664
21
-32.1502
0
LINE
8
Black
10
71.664
20
-32.1502
11
71.9904
21
-32.0314
0
LINE
8
Black
10
71.9904
20
-32.0314
11
72.3376
21
-32.0314
0
LINE
8
Black
10
72.3376
20
-32.0314
11
72.664
21
-32.1502
0
LINE
8
Black
10
75.204
20
-32.1502
11
75.47
21
-32.3734
0
LINE
8
Black
10
75.47
20
-32.3734
11
75.6437
21
-32.6742
0
LINE
8
Black
10
75.6437
20
-32.6742
11
75.704
21
-33.0162
0
LINE
8
Black
10
75.704
20
-33.0162
11
75.704
21
-33.0238
0
LINE
8
Black
10
75.704
20
-33.0238
11
75.6437
21
-33.3658
0
LINE
8
Black
10
75.6437
20
-33.3658
11
75.47
21
-33.6666
0
LINE
8
Black
10
75.47
20
-33.6666
11
75.204
21
-33.8898
0
LINE
8
Black
10
75.204
20
-33.8898
11
74.8776
21
-34.0086
0
LINE
8
Black
10
74.8776
20
-34.0086
11
74.5304
21
-34.0086
0
LINE
8
Black
10
74.5304
20
-34.0086
11
74.204
21
-33.8898
0
LINE
8
Black
10
74.204
20
-33.8898
11
73.938
21
-33.6666
0
LINE
8
Black
10
73.938
20
-33.6666
11
73.7643
21
-33.3658
0
LINE
8
Black
10
73.7643
20
-33.3658
11
73.704
21
-33.0238
0
LINE
8
Black
10
73.704
20
-33.0238
11
73.704
21
-33.0162
0
LINE
8
Black
10
73.704
20
-33.0162
11
73.7643
21
-32.6742
0
LINE
8
Black
10
73.7643
20
-32.6742
11
73.938
21
-32.3734
0
LINE
8
Black
10
73.938
20
-32.3734
11
74.204
21
-32.1502
0
LINE
8
Black
10
74.204
20
-32.1502
11
74.5304
21
-32.0314
0
LINE
8
Black
10
74.5304
20
-32.0314
11
74.8776
21
-32.0314
0
LINE
8
Black
10
74.8776
20
-32.0314
11
75.204
21
-32.1502
0
LINE
8
Black
10
42.184
20
-32.1502
11
42.45
21
-32.3734
0
LINE
8
Black
10
42.45
20
-32.3734
11
42.6237
21
-32.6742
0
LINE
8
Black
10
42.6237
20
-32.6742
11
42.684
21
-33.0162
0
LINE
8
Black
10
42.684
20
-33.0162
11
42.684
21
-33.0238
0
LINE
8
Black
10
42.684
20
-33.0238
11
42.6237
21
-33.3658
0
LINE
8
Black
10
42.6237
20
-33.3658
11
42.45
21
-33.6666
0
LINE
8
Black
10
42.45
20
-33.6666
11
42.184
21
-33.8898
0
LINE
8
Black
10
42.184
20
-33.8898
11
41.8576
21
-34.0086
0
LINE
8
Black
10
41.8576
20
-34.0086
11
41.5104
21
-34.0086
0
LINE
8
Black
10
41.5104
20
-34.0086
11
41.184
21
-33.8898
0
LINE
8
Black
10
41.184
20
-33.8898
11
40.918
21
-33.6666
0
LINE
8
Black
10
40.918
20
-33.6666
11
40.7443
21
-33.3658
0
LINE
8
Black
10
40.7443
20
-33.3658
11
40.684
21
-33.0238
0
LINE
8
Black
10
40.684
20
-33.0238
11
40.684
21
-33.0162
0
LINE
8
Black
10
40.684
20
-33.0162
11
40.7443
21
-32.6742
0
LINE
8
Black
10
40.7443
20
-32.6742
11
40.918
21
-32.3734
0
LINE
8
Black
10
40.918
20
-32.3734
11
41.184
21
-32.1502
0
LINE
8
Black
10
41.184
20
-32.1502
11
41.5104
21
-32.0314
0
LINE
8
Black
10
41.5104
20
-32.0314
11
41.8576
21
-32.0314
0
LINE
8
Black
10
41.8576
20
-32.0314
11
42.184
21
-32.1502
0
LINE
8
Black
10
77.744
20
-32.1502
11
78.01
21
-32.3734
0
LINE
8
Black
10
78.01
20
-32.3734
11
78.1837
21
-32.6742
0
LINE
8
Black
10
78.1837
20
-32.6742
11
78.244
21
-33.0162
0
LINE
8
Black
10
78.244
20
-33.0162
11
78.244
21
-33.0238
0
LINE
8
Black
10
78.244
20
-33.0238
11
78.1837
21
-33.3658
0
LINE
8
Black
10
78.1837
20
-33.3658
11
78.01
21
-33.6666
0
LINE
8
Black
10
78.01
20
-33.6666
11
77.744
21
-33.8898
0
LINE
8
Black
10
77.744
20
-33.8898
11
77.4176
21
-34.0086
0
LINE
8
Black
10
77.4176
20
-34.0086
11
77.0704
21
-34.0086
0
LINE
8
Black
10
77.0704
20
-34.0086
11
76.744
21
-33.8898
0
LINE
8
Black
10
76.744
20
-33.8898
11
76.478
21
-33.6666
0
LINE
8
Black
10
76.478
20
-33.6666
11
76.3043
21
-33.3658
0
LINE
8
Black
10
76.3043
20
-33.3658
11
76.244
21
-33.0238
0
LINE
8
Black
10
76.244
20
-33.0238
11
76.244
21
-33.0162
0
LINE
8
Black
10
76.244
20
-33.0162
11
76.3043
21
-32.6742
0
LINE
8
Black
10
76.3043
20
-32.6742
11
76.478
21
-32.3734
0
LINE
8
Black
10
76.478
20
-32.3734
11
76.744
21
-32.1502
0
LINE
8
Black
10
76.744
20
-32.1502
11
77.0704
21
-32.0314
0
LINE
8
Black
10
77.0704
20
-32.0314
11
77.4176
21
-32.0314
0
LINE
8
Black
10
77.4176
20
-32.0314
11
77.744
21
-32.1502
0
LINE
8
Black
10
80.284
20
-32.1502
11
80.55
21
-32.3734
0
LINE
8
Black
10
80.55
20
-32.3734
11
80.7237
21
-32.6742
0
LINE
8
Black
10
80.7237
20
-32.6742
11
80.784
21
-33.0162
0
LINE
8
Black
10
80.784
20
-33.0162
11
80.784
21
-33.0238
0
LINE
8
Black
10
80.784
20
-33.0238
11
80.7237
21
-33.3658
0
LINE
8
Black
10
80.7237
20
-33.3658
11
80.55
21
-33.6666
0
LINE
8
Black
10
80.55
20
-33.6666
11
80.284
21
-33.8898
0
LINE
8
Black
10
80.284
20
-33.8898
11
79.9576
21
-34.0086
0
LINE
8
Black
10
79.9576
20
-34.0086
11
79.6104
21
-34.0086
0
LINE
8
Black
10
79.6104
20
-34.0086
11
79.284
21
-33.8898
0
LINE
8
Black
10
79.284
20
-33.8898
11
79.018
21
-33.6666
0
LINE
8
Black
10
79.018
20
-33.6666
11
78.8443
21
-33.3658
0
LINE
8
Black
10
78.8443
20
-33.3658
11
78.784
21
-33.0238
0
LINE
8
Black
10
78.784
20
-33.0238
11
78.784
21
-33.0162
0
LINE
8
Black
10
78.784
20
-33.0162
11
78.8443
21
-32.6742
0
LINE
8
Black
10
78.8443
20
-32.6742
11
79.018
21
-32.3734
0
LINE
8
Black
10
79.018
20
-32.3734
11
79.284
21
-32.1502
0
LINE
8
Black
10
79.284
20
-32.1502
11
79.6104
21
-32.0314
0
LINE
8
Black
10
79.6104
20
-32.0314
11
79.9576
21
-32.0314
0
LINE
8
Black
10
79.9576
20
-32.0314
11
80.284
21
-32.1502
0
LINE
8
Black
10
39.644
20
-32.1502
11
39.91
21
-32.3734
0
LINE
8
Black
10
39.91
20
-32.3734
11
40.0837
21
-32.6742
0
LINE
8
Black
10
40.0837
20
-32.6742
11
40.144
21
-33.0162
0
LINE
8
Black
10
40.144
20
-33.0162
11
40.144
21
-33.0238
0
LINE
8
Black
10
40.144
20
-33.0238
11
40.0837
21
-33.3658
0
LINE
8
Black
10
40.0837
20
-33.3658
11
39.91
21
-33.6666
0
LINE
8
Black
10
39.91
20
-33.6666
11
39.644
21
-33.8898
0
LINE
8
Black
10
39.644
20
-33.8898
11
39.3176
21
-34.0086
0
LINE
8
Black
10
39.3176
20
-34.0086
11
38.9704
21
-34.0086
0
LINE
8
Black
10
38.9704
20
-34.0086
11
38.644
21
-33.8898
0
LINE
8
Black
10
38.644
20
-33.8898
11
38.378
21
-33.6666
0
LINE
8
Black
10
38.378
20
-33.6666
11
38.2043
21
-33.3658
0
LINE
8
Black
10
38.2043
20
-33.3658
11
38.144
21
-33.0238
0
LINE
8
Black
10
38.144
20
-33.0238
11
38.144
21
-33.0162
0
LINE
8
Black
10
38.144
20
-33.0162
11
38.2043
21
-32.6742
0
LINE
8
Black
10
38.2043
20
-32.6742
11
38.378
21
-32.3734
0
LINE
8
Black
10
38.378
20
-32.3734
11
38.644
21
-32.1502
0
LINE
8
Black
10
38.644
20
-32.1502
11
38.9704
21
-32.0314
0
LINE
8
Black
10
38.9704
20
-32.0314
11
39.3176
21
-32.0314
0
LINE
8
Black
10
39.3176
20
-32.0314
11
39.644
21
-32.1502
0
LINE
8
Black
10
82.824
20
-32.1502
11
83.09
21
-32.3734
0
LINE
8
Black
10
83.09
20
-32.3734
11
83.2637
21
-32.6742
0
LINE
8
Black
10
83.2637
20
-32.6742
11
83.324
21
-33.0162
0
LINE
8
Black
10
83.324
20
-33.0162
11
83.324
21
-33.0238
0
LINE
8
Black
10
83.324
20
-33.0238
11
83.2637
21
-33.3658
0
LINE
8
Black
10
83.2637
20
-33.3658
11
83.09
21
-33.6666
0
LINE
8
Black
10
83.09
20
-33.6666
11
82.824
21
-33.8898
0
LINE
8
Black
10
82.824
20
-33.8898
11
82.4976
21
-34.0086
0
LINE
8
Black
10
82.4976
20
-34.0086
11
82.1504
21
-34.0086
0
LINE
8
Black
10
82.1504
20
-34.0086
11
81.824
21
-33.8898
0
LINE
8
Black
10
81.824
20
-33.8898
11
81.558
21
-33.6666
0
LINE
8
Black
10
81.558
20
-33.6666
11
81.3843
21
-33.3658
0
LINE
8
Black
10
81.3843
20
-33.3658
11
81.324
21
-33.0238
0
LINE
8
Black
10
81.324
20
-33.0238
11
81.324
21
-33.0162
0
LINE
8
Black
10
81.324
20
-33.0162
11
81.3843
21
-32.6742
0
LINE
8
Black
10
81.3843
20
-32.6742
11
81.558
21
-32.3734
0
LINE
8
Black
10
81.558
20
-32.3734
11
81.824
21
-32.1502
0
LINE
8
Black
10
81.824
20
-32.1502
11
82.1504
21
-32.0314
0
LINE
8
Black
10
82.1504
20
-32.0314
11
82.4976
21
-32.0314
0
LINE
8
Black
10
82.4976
20
-32.0314
11
82.824
21
-32.1502
0
LINE
8
Black
10
87.904
20
-32.1502
11
88.17
21
-32.3734
0
LINE
8
Black
10
88.17
20
-32.3734
11
88.3437
21
-32.6742
0
LINE
8
Black
10
88.3437
20
-32.6742
11
88.404
21
-33.0162
0
LINE
8
Black
10
88.404
20
-33.0162
11
88.404
21
-33.0238
0
LINE
8
Black
10
88.404
20
-33.0238
11
88.3437
21
-33.3658
0
LINE
8
Black
10
88.3437
20
-33.3658
11
88.17
21
-33.6666
0
LINE
8
Black
10
88.17
20
-33.6666
11
87.904
21
-33.8898
0
LINE
8
Black
10
87.904
20
-33.8898
11
87.5776
21
-34.0086
0
LINE
8
Black
10
87.5776
20
-34.0086
11
87.2304
21
-34.0086
0
LINE
8
Black
10
87.2304
20
-34.0086
11
86.904
21
-33.8898
0
LINE
8
Black
10
86.904
20
-33.8898
11
86.638
21
-33.6666
0
LINE
8
Black
10
86.638
20
-33.6666
11
86.4643
21
-33.3658
0
LINE
8
Black
10
86.4643
20
-33.3658
11
86.404
21
-33.0238
0
LINE
8
Black
10
86.404
20
-33.0238
11
86.404
21
-33.0162
0
LINE
8
Black
10
86.404
20
-33.0162
11
86.4643
21
-32.6742
0
LINE
8
Black
10
86.4643
20
-32.6742
11
86.638
21
-32.3734
0
LINE
8
Black
10
86.638
20
-32.3734
11
86.904
21
-32.1502
0
LINE
8
Black
10
86.904
20
-32.1502
11
87.2304
21
-32.0314
0
LINE
8
Black
10
87.2304
20
-32.0314
11
87.5776
21
-32.0314
0
LINE
8
Black
10
87.5776
20
-32.0314
11
87.904
21
-32.1502
0
LINE
8
Black
10
85.364
20
-32.1502
11
85.63
21
-32.3734
0
LINE
8
Black
10
85.63
20
-32.3734
11
85.8037
21
-32.6742
0
LINE
8
Black
10
85.8037
20
-32.6742
11
85.864
21
-33.0162
0
LINE
8
Black
10
85.864
20
-33.0162
11
85.864
21
-33.0238
0
LINE
8
Black
10
85.864
20
-33.0238
11
85.8037
21
-33.3658
0
LINE
8
Black
10
85.8037
20
-33.3658
11
85.63
21
-33.6666
0
LINE
8
Black
10
85.63
20
-33.6666
11
85.364
21
-33.8898
0
LINE
8
Black
10
85.364
20
-33.8898
11
85.0376
21
-34.0086
0
LINE
8
Black
10
85.0376
20
-34.0086
11
84.6904
21
-34.0086
0
LINE
8
Black
10
84.6904
20
-34.0086
11
84.364
21
-33.8898
0
LINE
8
Black
10
84.364
20
-33.8898
11
84.098
21
-33.6666
0
LINE
8
Black
10
84.098
20
-33.6666
11
83.9243
21
-33.3658
0
LINE
8
Black
10
83.9243
20
-33.3658
11
83.864
21
-33.0238
0
LINE
8
Black
10
83.864
20
-33.0238
11
83.864
21
-33.0162
0
LINE
8
Black
10
83.864
20
-33.0162
11
83.9243
21
-32.6742
0
LINE
8
Black
10
83.9243
20
-32.6742
11
84.098
21
-32.3734
0
LINE
8
Black
10
84.098
20
-32.3734
11
84.364
21
-32.1502
0
LINE
8
Black
10
84.364
20
-32.1502
11
84.6904
21
-32.0314
0
LINE
8
Black
10
84.6904
20
-32.0314
11
85.0376
21
-32.0314
0
LINE
8
Black
10
85.0376
20
-32.0314
11
85.364
21
-32.1502
0
LINE
8
Black
10
88.404
20
-31.48
11
86.404
21
-31.48
0
LINE
8
Black
10
86.404
20
-31.48
11
86.404
21
-29.48
0
LINE
8
Black
10
86.404
20
-29.48
11
88.404
21
-29.48
0
LINE
8
Black
10
88.404
20
-29.48
11
88.404
21
-31.48
0
LINE
8
Black
10
42.184
20
-29.6102
11
42.45
21
-29.8334
0
LINE
8
Black
10
42.45
20
-29.8334
11
42.6237
21
-30.1342
0
LINE
8
Black
10
42.6237
20
-30.1342
11
42.684
21
-30.4762
0
LINE
8
Black
10
42.684
20
-30.4762
11
42.684
21
-30.4838
0
LINE
8
Black
10
42.684
20
-30.4838
11
42.6237
21
-30.8258
0
LINE
8
Black
10
42.6237
20
-30.8258
11
42.45
21
-31.1266
0
LINE
8
Black
10
42.45
20
-31.1266
11
42.184
21
-31.3498
0
LINE
8
Black
10
42.184
20
-31.3498
11
41.8576
21
-31.4686
0
LINE
8
Black
10
41.8576
20
-31.4686
11
41.5104
21
-31.4686
0
LINE
8
Black
10
41.5104
20
-31.4686
11
41.184
21
-31.3498
0
LINE
8
Black
10
41.184
20
-31.3498
11
40.918
21
-31.1266
0
LINE
8
Black
10
40.918
20
-31.1266
11
40.7443
21
-30.8258
0
LINE
8
Black
10
40.7443
20
-30.8258
11
40.684
21
-30.4838
0
LINE
8
Black
10
40.684
20
-30.4838
11
40.684
21
-30.4762
0
LINE
8
Black
10
40.684
20
-30.4762
11
40.7443
21
-30.1342
0
LINE
8
Black
10
40.7443
20
-30.1342
11
40.918
21
-29.8334
0
LINE
8
Black
10
40.918
20
-29.8334
11
41.184
21
-29.6102
0
LINE
8
Black
10
41.184
20
-29.6102
11
41.5104
21
-29.4914
0
LINE
8
Black
10
41.5104
20
-29.4914
11
41.8576
21
-29.4914
0
LINE
8
Black
10
41.8576
20
-29.4914
11
42.184
21
-29.6102
0
LINE
8
Black
10
44.724
20
-29.6102
11
44.99
21
-29.8334
0
LINE
8
Black
10
44.99
20
-29.8334
11
45.1637
21
-30.1342
0
LINE
8
Black
10
45.1637
20
-30.1342
11
45.224
21
-30.4762
0
LINE
8
Black
10
45.224
20
-30.4762
11
45.224
21
-30.4838
0
LINE
8
Black
10
45.224
20
-30.4838
11
45.1637
21
-30.8258
0
LINE
8
Black
10
45.1637
20
-30.8258
11
44.99
21
-31.1266
0
LINE
8
Black
10
44.99
20
-31.1266
11
44.724
21
-31.3498
0
LINE
8
Black
10
44.724
20
-31.3498
11
44.3976
21
-31.4686
0
LINE
8
Black
10
44.3976
20
-31.4686
11
44.0504
21
-31.4686
0
LINE
8
Black
10
44.0504
20
-31.4686
11
43.724
21
-31.3498
0
LINE
8
Black
10
43.724
20
-31.3498
11
43.458
21
-31.1266
0
LINE
8
Black
10
43.458
20
-31.1266
11
43.2843
21
-30.8258
0
LINE
8
Black
10
43.2843
20
-30.8258
11
43.224
21
-30.4838
0
LINE
8
Black
10
43.224
20
-30.4838
11
43.224
21
-30.4762
0
LINE
8
Black
10
43.224
20
-30.4762
11
43.2843
21
-30.1342
0
LINE
8
Black
10
43.2843
20
-30.1342
11
43.458
21
-29.8334
0
LINE
8
Black
10
43.458
20
-29.8334
11
43.724
21
-29.6102
0
LINE
8
Black
10
43.724
20
-29.6102
11
44.0504
21
-29.4914
0
LINE
8
Black
10
44.0504
20
-29.4914
11
44.3976
21
-29.4914
0
LINE
8
Black
10
44.3976
20
-29.4914
11
44.724
21
-29.6102
0
LINE
8
Black
10
39.644
20
-29.6102
11
39.91
21
-29.8334
0
LINE
8
Black
10
39.91
20
-29.8334
11
40.0837
21
-30.1342
0
LINE
8
Black
10
40.0837
20
-30.1342
11
40.144
21
-30.4762
0
LINE
8
Black
10
40.144
20
-30.4762
11
40.144
21
-30.4838
0
LINE
8
Black
10
40.144
20
-30.4838
11
40.0837
21
-30.8258
0
LINE
8
Black
10
40.0837
20
-30.8258
11
39.91
21
-31.1266
0
LINE
8
Black
10
39.91
20
-31.1266
11
39.644
21
-31.3498
0
LINE
8
Black
10
39.644
20
-31.3498
11
39.3176
21
-31.4686
0
LINE
8
Black
10
39.3176
20
-31.4686
11
38.9704
21
-31.4686
0
LINE
8
Black
10
38.9704
20
-31.4686
11
38.644
21
-31.3498
0
LINE
8
Black
10
38.644
20
-31.3498
11
38.378
21
-31.1266
0
LINE
8
Black
10
38.378
20
-31.1266
11
38.2043
21
-30.8258
0
LINE
8
Black
10
38.2043
20
-30.8258
11
38.144
21
-30.4838
0
LINE
8
Black
10
38.144
20
-30.4838
11
38.144
21
-30.4762
0
LINE
8
Black
10
38.144
20
-30.4762
11
38.2043
21
-30.1342
0
LINE
8
Black
10
38.2043
20
-30.1342
11
38.378
21
-29.8334
0
LINE
8
Black
10
38.378
20
-29.8334
11
38.644
21
-29.6102
0
LINE
8
Black
10
38.644
20
-29.6102
11
38.9704
21
-29.4914
0
LINE
8
Black
10
38.9704
20
-29.4914
11
39.3176
21
-29.4914
0
LINE
8
Black
10
39.3176
20
-29.4914
11
39.644
21
-29.6102
0
LINE
8
Black
10
47.264
20
-29.6102
11
47.53
21
-29.8334
0
LINE
8
Black
10
47.53
20
-29.8334
11
47.7037
21
-30.1342
0
LINE
8
Black
10
47.7037
20
-30.1342
11
47.764
21
-30.4762
0
LINE
8
Black
10
47.764
20
-30.4762
11
47.764
21
-30.4838
0
LINE
8
Black
10
47.764
20
-30.4838
11
47.7037
21
-30.8258
0
LINE
8
Black
10
47.7037
20
-30.8258
11
47.53
21
-31.1266
0
LINE
8
Black
10
47.53
20
-31.1266
11
47.264
21
-31.3498
0
LINE
8
Black
10
47.264
20
-31.3498
11
46.9376
21
-31.4686
0
LINE
8
Black
10
46.9376
20
-31.4686
11
46.5904
21
-31.4686
0
LINE
8
Black
10
46.5904
20
-31.4686
11
46.264
21
-31.3498
0
LINE
8
Black
10
46.264
20
-31.3498
11
45.998
21
-31.1266
0
LINE
8
Black
10
45.998
20
-31.1266
11
45.8243
21
-30.8258
0
LINE
8
Black
10
45.8243
20
-30.8258
11
45.764
21
-30.4838
0
LINE
8
Black
10
45.764
20
-30.4838
11
45.764
21
-30.4762
0
LINE
8
Black
10
45.764
20
-30.4762
11
45.8243
21
-30.1342
0
LINE
8
Black
10
45.8243
20
-30.1342
11
45.998
21
-29.8334
0
LINE
8
Black
10
45.998
20
-29.8334
11
46.264
21
-29.6102
0
LINE
8
Black
10
46.264
20
-29.6102
11
46.5904
21
-29.4914
0
LINE
8
Black
10
46.5904
20
-29.4914
11
46.9376
21
-29.4914
0
LINE
8
Black
10
46.9376
20
-29.4914
11
47.264
21
-29.6102
0
LINE
8
Black
10
49.804
20
-29.6102
11
50.07
21
-29.8334
0
LINE
8
Black
10
50.07
20
-29.8334
11
50.2437
21
-30.1342
0
LINE
8
Black
10
50.2437
20
-30.1342
11
50.304
21
-30.4762
0
LINE
8
Black
10
50.304
20
-30.4762
11
50.304
21
-30.4838
0
LINE
8
Black
10
50.304
20
-30.4838
11
50.2437
21
-30.8258
0
LINE
8
Black
10
50.2437
20
-30.8258
11
50.07
21
-31.1266
0
LINE
8
Black
10
50.07
20
-31.1266
11
49.804
21
-31.3498
0
LINE
8
Black
10
49.804
20
-31.3498
11
49.4776
21
-31.4686
0
LINE
8
Black
10
49.4776
20
-31.4686
11
49.1304
21
-31.4686
0
LINE
8
Black
10
49.1304
20
-31.4686
11
48.804
21
-31.3498
0
LINE
8
Black
10
48.804
20
-31.3498
11
48.538
21
-31.1266
0
LINE
8
Black
10
48.538
20
-31.1266
11
48.3643
21
-30.8258
0
LINE
8
Black
10
48.3643
20
-30.8258
11
48.304
21
-30.4838
0
LINE
8
Black
10
48.304
20
-30.4838
11
48.304
21
-30.4762
0
LINE
8
Black
10
48.304
20
-30.4762
11
48.3643
21
-30.1342
0
LINE
8
Black
10
48.3643
20
-30.1342
11
48.538
21
-29.8334
0
LINE
8
Black
10
48.538
20
-29.8334
11
48.804
21
-29.6102
0
LINE
8
Black
10
48.804
20
-29.6102
11
49.1304
21
-29.4914
0
LINE
8
Black
10
49.1304
20
-29.4914
11
49.4776
21
-29.4914
0
LINE
8
Black
10
49.4776
20
-29.4914
11
49.804
21
-29.6102
0
LINE
8
Black
10
52.344
20
-29.6102
11
52.61
21
-29.8334
0
LINE
8
Black
10
52.61
20
-29.8334
11
52.7837
21
-30.1342
0
LINE
8
Black
10
52.7837
20
-30.1342
11
52.844
21
-30.4762
0
LINE
8
Black
10
52.844
20
-30.4762
11
52.844
21
-30.4838
0
LINE
8
Black
10
52.844
20
-30.4838
11
52.7837
21
-30.8258
0
LINE
8
Black
10
52.7837
20
-30.8258
11
52.61
21
-31.1266
0
LINE
8
Black
10
52.61
20
-31.1266
11
52.344
21
-31.3498
0
LINE
8
Black
10
52.344
20
-31.3498
11
52.0176
21
-31.4686
0
LINE
8
Black
10
52.0176
20
-31.4686
11
51.6704
21
-31.4686
0
LINE
8
Black
10
51.6704
20
-31.4686
11
51.344
21
-31.3498
0
LINE
8
Black
10
51.344
20
-31.3498
11
51.078
21
-31.1266
0
LINE
8
Black
10
51.078
20
-31.1266
11
50.9043
21
-30.8258
0
LINE
8
Black
10
50.9043
20
-30.8258
11
50.844
21
-30.4838
0
LINE
8
Black
10
50.844
20
-30.4838
11
50.844
21
-30.4762
0
LINE
8
Black
10
50.844
20
-30.4762
11
50.9043
21
-30.1342
0
LINE
8
Black
10
50.9043
20
-30.1342
11
51.078
21
-29.8334
0
LINE
8
Black
10
51.078
20
-29.8334
11
51.344
21
-29.6102
0
LINE
8
Black
10
51.344
20
-29.6102
11
51.6704
21
-29.4914
0
LINE
8
Black
10
51.6704
20
-29.4914
11
52.0176
21
-29.4914
0
LINE
8
Black
10
52.0176
20
-29.4914
11
52.344
21
-29.6102
0
LINE
8
Black
10
54.884
20
-29.6102
11
55.15
21
-29.8334
0
LINE
8
Black
10
55.15
20
-29.8334
11
55.3237
21
-30.1342
0
LINE
8
Black
10
55.3237
20
-30.1342
11
55.384
21
-30.4762
0
LINE
8
Black
10
55.384
20
-30.4762
11
55.384
21
-30.4838
0
LINE
8
Black
10
55.384
20
-30.4838
11
55.3237
21
-30.8258
0
LINE
8
Black
10
55.3237
20
-30.8258
11
55.15
21
-31.1266
0
LINE
8
Black
10
55.15
20
-31.1266
11
54.884
21
-31.3498
0
LINE
8
Black
10
54.884
20
-31.3498
11
54.5576
21
-31.4686
0
LINE
8
Black
10
54.5576
20
-31.4686
11
54.2104
21
-31.4686
0
LINE
8
Black
10
54.2104
20
-31.4686
11
53.884
21
-31.3498
0
LINE
8
Black
10
53.884
20
-31.3498
11
53.618
21
-31.1266
0
LINE
8
Black
10
53.618
20
-31.1266
11
53.4443
21
-30.8258
0
LINE
8
Black
10
53.4443
20
-30.8258
11
53.384
21
-30.4838
0
LINE
8
Black
10
53.384
20
-30.4838
11
53.384
21
-30.4762
0
LINE
8
Black
10
53.384
20
-30.4762
11
53.4443
21
-30.1342
0
LINE
8
Black
10
53.4443
20
-30.1342
11
53.618
21
-29.8334
0
LINE
8
Black
10
53.618
20
-29.8334
11
53.884
21
-29.6102
0
LINE
8
Black
10
53.884
20
-29.6102
11
54.2104
21
-29.4914
0
LINE
8
Black
10
54.2104
20
-29.4914
11
54.5576
21
-29.4914
0
LINE
8
Black
10
54.5576
20
-29.4914
11
54.884
21
-29.6102
0
LINE
8
Black
10
57.424
20
-29.6102
11
57.69
21
-29.8334
0
LINE
8
Black
10
57.69
20
-29.8334
11
57.8637
21
-30.1342
0
LINE
8
Black
10
57.8637
20
-30.1342
11
57.924
21
-30.4762
0
LINE
8
Black
10
57.924
20
-30.4762
11
57.924
21
-30.4838
0
LINE
8
Black
10
57.924
20
-30.4838
11
57.8637
21
-30.8258
0
LINE
8
Black
10
57.8637
20
-30.8258
11
57.69
21
-31.1266
0
LINE
8
Black
10
57.69
20
-31.1266
11
57.424
21
-31.3498
0
LINE
8
Black
10
57.424
20
-31.3498
11
57.0976
21
-31.4686
0
LINE
8
Black
10
57.0976
20
-31.4686
11
56.7504
21
-31.4686
0
LINE
8
Black
10
56.7504
20
-31.4686
11
56.424
21
-31.3498
0
LINE
8
Black
10
56.424
20
-31.3498
11
56.158
21
-31.1266
0
LINE
8
Black
10
56.158
20
-31.1266
11
55.9843
21
-30.8258
0
LINE
8
Black
10
55.9843
20
-30.8258
11
55.924
21
-30.4838
0
LINE
8
Black
10
55.924
20
-30.4838
11
55.924
21
-30.4762
0
LINE
8
Black
10
55.924
20
-30.4762
11
55.9843
21
-30.1342
0
LINE
8
Black
10
55.9843
20
-30.1342
11
56.158
21
-29.8334
0
LINE
8
Black
10
56.158
20
-29.8334
11
56.424
21
-29.6102
0
LINE
8
Black
10
56.424
20
-29.6102
11
56.7504
21
-29.4914
0
LINE
8
Black
10
56.7504
20
-29.4914
11
57.0976
21
-29.4914
0
LINE
8
Black
10
57.0976
20
-29.4914
11
57.424
21
-29.6102
0
LINE
8
Black
10
59.964
20
-29.6102
11
60.23
21
-29.8334
0
LINE
8
Black
10
60.23
20
-29.8334
11
60.4037
21
-30.1342
0
LINE
8
Black
10
60.4037
20
-30.1342
11
60.464
21
-30.4762
0
LINE
8
Black
10
60.464
20
-30.4762
11
60.464
21
-30.4838
0
LINE
8
Black
10
60.464
20
-30.4838
11
60.4037
21
-30.8258
0
LINE
8
Black
10
60.4037
20
-30.8258
11
60.23
21
-31.1266
0
LINE
8
Black
10
60.23
20
-31.1266
11
59.964
21
-31.3498
0
LINE
8
Black
10
59.964
20
-31.3498
11
59.6376
21
-31.4686
0
LINE
8
Black
10
59.6376
20
-31.4686
11
59.2904
21
-31.4686
0
LINE
8
Black
10
59.2904
20
-31.4686
11
58.964
21
-31.3498
0
LINE
8
Black
10
58.964
20
-31.3498
11
58.698
21
-31.1266
0
LINE
8
Black
10
58.698
20
-31.1266
11
58.5243
21
-30.8258
0
LINE
8
Black
10
58.5243
20
-30.8258
11
58.464
21
-30.4838
0
LINE
8
Black
10
58.464
20
-30.4838
11
58.464
21
-30.4762
0
LINE
8
Black
10
58.464
20
-30.4762
11
58.5243
21
-30.1342
0
LINE
8
Black
10
58.5243
20
-30.1342
11
58.698
21
-29.8334
0
LINE
8
Black
10
58.698
20
-29.8334
11
58.964
21
-29.6102
0
LINE
8
Black
10
58.964
20
-29.6102
11
59.2904
21
-29.4914
0
LINE
8
Black
10
59.2904
20
-29.4914
11
59.6376
21
-29.4914
0
LINE
8
Black
10
59.6376
20
-29.4914
11
59.964
21
-29.6102
0
LINE
8
Black
10
62.504
20
-29.6102
11
62.77
21
-29.8334
0
LINE
8
Black
10
62.77
20
-29.8334
11
62.9437
21
-30.1342
0
LINE
8
Black
10
62.9437
20
-30.1342
11
63.004
21
-30.4762
0
LINE
8
Black
10
63.004
20
-30.4762
11
63.004
21
-30.4838
0
LINE
8
Black
10
63.004
20
-30.4838
11
62.9437
21
-30.8258
0
LINE
8
Black
10
62.9437
20
-30.8258
11
62.77
21
-31.1266
0
LINE
8
Black
10
62.77
20
-31.1266
11
62.504
21
-31.3498
0
LINE
8
Black
10
62.504
20
-31.3498
11
62.1776
21
-31.4686
0
LINE
8
Black
10
62.1776
20
-31.4686
11
61.8304
21
-31.4686
0
LINE
8
Black
10
61.8304
20
-31.4686
11
61.504
21
-31.3498
0
LINE
8
Black
10
61.504
20
-31.3498
11
61.238
21
-31.1266
0
LINE
8
Black
10
61.238
20
-31.1266
11
61.0643
21
-30.8258
0
LINE
8
Black
10
61.0643
20
-30.8258
11
61.004
21
-30.4838
0
LINE
8
Black
10
61.004
20
-30.4838
11
61.004
21
-30.4762
0
LINE
8
Black
10
61.004
20
-30.4762
11
61.0643
21
-30.1342
0
LINE
8
Black
10
61.0643
20
-30.1342
11
61.238
21
-29.8334
0
LINE
8
Black
10
61.238
20
-29.8334
11
61.504
21
-29.6102
0
LINE
8
Black
10
61.504
20
-29.6102
11
61.8304
21
-29.4914
0
LINE
8
Black
10
61.8304
20
-29.4914
11
62.1776
21
-29.4914
0
LINE
8
Black
10
62.1776
20
-29.4914
11
62.504
21
-29.6102
0
LINE
8
Black
10
65.044
20
-29.6102
11
65.31
21
-29.8334
0
LINE
8
Black
10
65.31
20
-29.8334
11
65.4837
21
-30.1342
0
LINE
8
Black
10
65.4837
20
-30.1342
11
65.544
21
-30.4762
0
LINE
8
Black
10
65.544
20
-30.4762
11
65.544
21
-30.4838
0
LINE
8
Black
10
65.544
20
-30.4838
11
65.4837
21
-30.8258
0
LINE
8
Black
10
65.4837
20
-30.8258
11
65.31
21
-31.1266
0
LINE
8
Black
10
65.31
20
-31.1266
11
65.044
21
-31.3498
0
LINE
8
Black
10
65.044
20
-31.3498
11
64.7176
21
-31.4686
0
LINE
8
Black
10
64.7176
20
-31.4686
11
64.3704
21
-31.4686
0
LINE
8
Black
10
64.3704
20
-31.4686
11
64.044
21
-31.3498
0
LINE
8
Black
10
64.044
20
-31.3498
11
63.778
21
-31.1266
0
LINE
8
Black
10
63.778
20
-31.1266
11
63.6043
21
-30.8258
0
LINE
8
Black
10
63.6043
20
-30.8258
11
63.544
21
-30.4838
0
LINE
8
Black
10
63.544
20
-30.4838
11
63.544
21
-30.4762
0
LINE
8
Black
10
63.544
20
-30.4762
11
63.6043
21
-30.1342
0
LINE
8
Black
10
63.6043
20
-30.1342
11
63.778
21
-29.8334
0
LINE
8
Black
10
63.778
20
-29.8334
11
64.044
21
-29.6102
0
LINE
8
Black
10
64.044
20
-29.6102
11
64.3704
21
-29.4914
0
LINE
8
Black
10
64.3704
20
-29.4914
11
64.7176
21
-29.4914
0
LINE
8
Black
10
64.7176
20
-29.4914
11
65.044
21
-29.6102
0
LINE
8
Black
10
67.584
20
-29.6102
11
67.85
21
-29.8334
0
LINE
8
Black
10
67.85
20
-29.8334
11
68.0237
21
-30.1342
0
LINE
8
Black
10
68.0237
20
-30.1342
11
68.084
21
-30.4762
0
LINE
8
Black
10
68.084
20
-30.4762
11
68.084
21
-30.4838
0
LINE
8
Black
10
68.084
20
-30.4838
11
68.0237
21
-30.8258
0
LINE
8
Black
10
68.0237
20
-30.8258
11
67.85
21
-31.1266
0
LINE
8
Black
10
67.85
20
-31.1266
11
67.584
21
-31.3498
0
LINE
8
Black
10
67.584
20
-31.3498
11
67.2576
21
-31.4686
0
LINE
8
Black
10
67.2576
20
-31.4686
11
66.9104
21
-31.4686
0
LINE
8
Black
10
66.9104
20
-31.4686
11
66.584
21
-31.3498
0
LINE
8
Black
10
66.584
20
-31.3498
11
66.318
21
-31.1266
0
LINE
8
Black
10
66.318
20
-31.1266
11
66.1443
21
-30.8258
0
LINE
8
Black
10
66.1443
20
-30.8258
11
66.084
21
-30.4838
0
LINE
8
Black
10
66.084
20
-30.4838
11
66.084
21
-30.4762
0
LINE
8
Black
10
66.084
20
-30.4762
11
66.1443
21
-30.1342
0
LINE
8
Black
10
66.1443
20
-30.1342
11
66.318
21
-29.8334
0
LINE
8
Black
10
66.318
20
-29.8334
11
66.584
21
-29.6102
0
LINE
8
Black
10
66.584
20
-29.6102
11
66.9104
21
-29.4914
0
LINE
8
Black
10
66.9104
20
-29.4914
11
67.2576
21
-29.4914
0
LINE
8
Black
10
67.2576
20
-29.4914
11
67.584
21
-29.6102
0
LINE
8
Black
10
70.124
20
-29.6102
11
70.39
21
-29.8334
0
LINE
8
Black
10
70.39
20
-29.8334
11
70.5637
21
-30.1342
0
LINE
8
Black
10
70.5637
20
-30.1342
11
70.624
21
-30.4762
0
LINE
8
Black
10
70.624
20
-30.4762
11
70.624
21
-30.4838
0
LINE
8
Black
10
70.624
20
-30.4838
11
70.5637
21
-30.8258
0
LINE
8
Black
10
70.5637
20
-30.8258
11
70.39
21
-31.1266
0
LINE
8
Black
10
70.39
20
-31.1266
11
70.124
21
-31.3498
0
LINE
8
Black
10
70.124
20
-31.3498
11
69.7976
21
-31.4686
0
LINE
8
Black
10
69.7976
20
-31.4686
11
69.4504
21
-31.4686
0
LINE
8
Black
10
69.4504
20
-31.4686
11
69.124
21
-31.3498
0
LINE
8
Black
10
69.124
20
-31.3498
11
68.858
21
-31.1266
0
LINE
8
Black
10
68.858
20
-31.1266
11
68.6843
21
-30.8258
0
LINE
8
Black
10
68.6843
20
-30.8258
11
68.624
21
-30.4838
0
LINE
8
Black
10
68.624
20
-30.4838
11
68.624
21
-30.4762
0
LINE
8
Black
10
68.624
20
-30.4762
11
68.6843
21
-30.1342
0
LINE
8
Black
10
68.6843
20
-30.1342
11
68.858
21
-29.8334
0
LINE
8
Black
10
68.858
20
-29.8334
11
69.124
21
-29.6102
0
LINE
8
Black
10
69.124
20
-29.6102
11
69.4504
21
-29.4914
0
LINE
8
Black
10
69.4504
20
-29.4914
11
69.7976
21
-29.4914
0
LINE
8
Black
10
69.7976
20
-29.4914
11
70.124
21
-29.6102
0
LINE
8
Black
10
72.664
20
-29.6102
11
72.93
21
-29.8334
0
LINE
8
Black
10
72.93
20
-29.8334
11
73.1037
21
-30.1342
0
LINE
8
Black
10
73.1037
20
-30.1342
11
73.164
21
-30.4762
0
LINE
8
Black
10
73.164
20
-30.4762
11
73.164
21
-30.4838
0
LINE
8
Black
10
73.164
20
-30.4838
11
73.1037
21
-30.8258
0
LINE
8
Black
10
73.1037
20
-30.8258
11
72.93
21
-31.1266
0
LINE
8
Black
10
72.93
20
-31.1266
11
72.664
21
-31.3498
0
LINE
8
Black
10
72.664
20
-31.3498
11
72.3376
21
-31.4686
0
LINE
8
Black
10
72.3376
20
-31.4686
11
71.9904
21
-31.4686
0
LINE
8
Black
10
71.9904
20
-31.4686
11
71.664
21
-31.3498
0
LINE
8
Black
10
71.664
20
-31.3498
11
71.398
21
-31.1266
0
LINE
8
Black
10
71.398
20
-31.1266
11
71.2243
21
-30.8258
0
LINE
8
Black
10
71.2243
20
-30.8258
11
71.164
21
-30.4838
0
LINE
8
Black
10
71.164
20
-30.4838
11
71.164
21
-30.4762
0
LINE
8
Black
10
71.164
20
-30.4762
11
71.2243
21
-30.1342
0
LINE
8
Black
10
71.2243
20
-30.1342
11
71.398
21
-29.8334
0
LINE
8
Black
10
71.398
20
-29.8334
11
71.664
21
-29.6102
0
LINE
8
Black
10
71.664
20
-29.6102
11
71.9904
21
-29.4914
0
LINE
8
Black
10
71.9904
20
-29.4914
11
72.3376
21
-29.4914
0
LINE
8
Black
10
72.3376
20
-29.4914
11
72.664
21
-29.6102
0
LINE
8
Black
10
75.204
20
-29.6102
11
75.47
21
-29.8334
0
LINE
8
Black
10
75.47
20
-29.8334
11
75.6437
21
-30.1342
0
LINE
8
Black
10
75.6437
20
-30.1342
11
75.704
21
-30.4762
0
LINE
8
Black
10
75.704
20
-30.4762
11
75.704
21
-30.4838
0
LINE
8
Black
10
75.704
20
-30.4838
11
75.6437
21
-30.8258
0
LINE
8
Black
10
75.6437
20
-30.8258
11
75.47
21
-31.1266
0
LINE
8
Black
10
75.47
20
-31.1266
11
75.204
21
-31.3498
0
LINE
8
Black
10
75.204
20
-31.3498
11
74.8776
21
-31.4686
0
LINE
8
Black
10
74.8776
20
-31.4686
11
74.5304
21
-31.4686
0
LINE
8
Black
10
74.5304
20
-31.4686
11
74.204
21
-31.3498
0
LINE
8
Black
10
74.204
20
-31.3498
11
73.938
21
-31.1266
0
LINE
8
Black
10
73.938
20
-31.1266
11
73.7643
21
-30.8258
0
LINE
8
Black
10
73.7643
20
-30.8258
11
73.704
21
-30.4838
0
LINE
8
Black
10
73.704
20
-30.4838
11
73.704
21
-30.4762
0
LINE
8
Black
10
73.704
20
-30.4762
11
73.7643
21
-30.1342
0
LINE
8
Black
10
73.7643
20
-30.1342
11
73.938
21
-29.8334
0
LINE
8
Black
10
73.938
20
-29.8334
11
74.204
21
-29.6102
0
LINE
8
Black
10
74.204
20
-29.6102
11
74.5304
21
-29.4914
0
LINE
8
Black
10
74.5304
20
-29.4914
11
74.8776
21
-29.4914
0
LINE
8
Black
10
74.8776
20
-29.4914
11
75.204
21
-29.6102
0
LINE
8
Black
10
77.744
20
-29.6102
11
78.01
21
-29.8334
0
LINE
8
Black
10
78.01
20
-29.8334
11
78.1837
21
-30.1342
0
LINE
8
Black
10
78.1837
20
-30.1342
11
78.244
21
-30.4762
0
LINE
8
Black
10
78.244
20
-30.4762
11
78.244
21
-30.4838
0
LINE
8
Black
10
78.244
20
-30.4838
11
78.1837
21
-30.8258
0
LINE
8
Black
10
78.1837
20
-30.8258
11
78.01
21
-31.1266
0
LINE
8
Black
10
78.01
20
-31.1266
11
77.744
21
-31.3498
0
LINE
8
Black
10
77.744
20
-31.3498
11
77.4176
21
-31.4686
0
LINE
8
Black
10
77.4176
20
-31.4686
11
77.0704
21
-31.4686
0
LINE
8
Black
10
77.0704
20
-31.4686
11
76.744
21
-31.3498
0
LINE
8
Black
10
76.744
20
-31.3498
11
76.478
21
-31.1266
0
LINE
8
Black
10
76.478
20
-31.1266
11
76.3043
21
-30.8258
0
LINE
8
Black
10
76.3043
20
-30.8258
11
76.244
21
-30.4838
0
LINE
8
Black
10
76.244
20
-30.4838
11
76.244
21
-30.4762
0
LINE
8
Black
10
76.244
20
-30.4762
11
76.3043
21
-30.1342
0
LINE
8
Black
10
76.3043
20
-30.1342
11
76.478
21
-29.8334
0
LINE
8
Black
10
76.478
20
-29.8334
11
76.744
21
-29.6102
0
LINE
8
Black
10
76.744
20
-29.6102
11
77.0704
21
-29.4914
0
LINE
8
Black
10
77.0704
20
-29.4914
11
77.4176
21
-29.4914
0
LINE
8
Black
10
77.4176
20
-29.4914
11
77.744
21
-29.6102
0
LINE
8
Black
10
80.284
20
-29.6102
11
80.55
21
-29.8334
0
LINE
8
Black
10
80.55
20
-29.8334
11
80.7237
21
-30.1342
0
LINE
8
Black
10
80.7237
20
-30.1342
11
80.784
21
-30.4762
0
LINE
8
Black
10
80.784
20
-30.4762
11
80.784
21
-30.4838
0
LINE
8
Black
10
80.784
20
-30.4838
11
80.7237
21
-30.8258
0
LINE
8
Black
10
80.7237
20
-30.8258
11
80.55
21
-31.1266
0
LINE
8
Black
10
80.55
20
-31.1266
11
80.284
21
-31.3498
0
LINE
8
Black
10
80.284
20
-31.3498
11
79.9576
21
-31.4686
0
LINE
8
Black
10
79.9576
20
-31.4686
11
79.6104
21
-31.4686
0
LINE
8
Black
10
79.6104
20
-31.4686
11
79.284
21
-31.3498
0
LINE
8
Black
10
79.284
20
-31.3498
11
79.018
21
-31.1266
0
LINE
8
Black
10
79.018
20
-31.1266
11
78.8443
21
-30.8258
0
LINE
8
Black
10
78.8443
20
-30.8258
11
78.784
21
-30.4838
0
LINE
8
Black
10
78.784
20
-30.4838
11
78.784
21
-30.4762
0
LINE
8
Black
10
78.784
20
-30.4762
11
78.8443
21
-30.1342
0
LINE
8
Black
10
78.8443
20
-30.1342
11
79.018
21
-29.8334
0
LINE
8
Black
10
79.018
20
-29.8334
11
79.284
21
-29.6102
0
LINE
8
Black
10
79.284
20
-29.6102
11
79.6104
21
-29.4914
0
LINE
8
Black
10
79.6104
20
-29.4914
11
79.9576
21
-29.4914
0
LINE
8
Black
10
79.9576
20
-29.4914
11
80.284
21
-29.6102
0
LINE
8
Black
10
82.824
20
-29.6102
11
83.09
21
-29.8334
0
LINE
8
Black
10
83.09
20
-29.8334
11
83.2637
21
-30.1342
0
LINE
8
Black
10
83.2637
20
-30.1342
11
83.324
21
-30.4762
0
LINE
8
Black
10
83.324
20
-30.4762
11
83.324
21
-30.4838
0
LINE
8
Black
10
83.324
20
-30.4838
11
83.2637
21
-30.8258
0
LINE
8
Black
10
83.2637
20
-30.8258
11
83.09
21
-31.1266
0
LINE
8
Black
10
83.09
20
-31.1266
11
82.824
21
-31.3498
0
LINE
8
Black
10
82.824
20
-31.3498
11
82.4976
21
-31.4686
0
LINE
8
Black
10
82.4976
20
-31.4686
11
82.1504
21
-31.4686
0
LINE
8
Black
10
82.1504
20
-31.4686
11
81.824
21
-31.3498
0
LINE
8
Black
10
81.824
20
-31.3498
11
81.558
21
-31.1266
0
LINE
8
Black
10
81.558
20
-31.1266
11
81.3843
21
-30.8258
0
LINE
8
Black
10
81.3843
20
-30.8258
11
81.324
21
-30.4838
0
LINE
8
Black
10
81.324
20
-30.4838
11
81.324
21
-30.4762
0
LINE
8
Black
10
81.324
20
-30.4762
11
81.3843
21
-30.1342
0
LINE
8
Black
10
81.3843
20
-30.1342
11
81.558
21
-29.8334
0
LINE
8
Black
10
81.558
20
-29.8334
11
81.824
21
-29.6102
0
LINE
8
Black
10
81.824
20
-29.6102
11
82.1504
21
-29.4914
0
LINE
8
Black
10
82.1504
20
-29.4914
11
82.4976
21
-29.4914
0
LINE
8
Black
10
82.4976
20
-29.4914
11
82.824
21
-29.6102
0
LINE
8
Black
10
85.364
20
-29.6102
11
85.63
21
-29.8334
0
LINE
8
Black
10
85.63
20
-29.8334
11
85.8037
21
-30.1342
0
LINE
8
Black
10
85.8037
20
-30.1342
11
85.864
21
-30.4762
0
LINE
8
Black
10
85.864
20
-30.4762
11
85.864
21
-30.4838
0
LINE
8
Black
10
85.864
20
-30.4838
11
85.8037
21
-30.8258
0
LINE
8
Black
10
85.8037
20
-30.8258
11
85.63
21
-31.1266
0
LINE
8
Black
10
85.63
20
-31.1266
11
85.364
21
-31.3498
0
LINE
8
Black
10
85.364
20
-31.3498
11
85.0376
21
-31.4686
0
LINE
8
Black
10
85.0376
20
-31.4686
11
84.6904
21
-31.4686
0
LINE
8
Black
10
84.6904
20
-31.4686
11
84.364
21
-31.3498
0
LINE
8
Black
10
84.364
20
-31.3498
11
84.098
21
-31.1266
0
LINE
8
Black
10
84.098
20
-31.1266
11
83.9243
21
-30.8258
0
LINE
8
Black
10
83.9243
20
-30.8258
11
83.864
21
-30.4838
0
LINE
8
Black
10
83.864
20
-30.4838
11
83.864
21
-30.4762
0
LINE
8
Black
10
83.864
20
-30.4762
11
83.9243
21
-30.1342
0
LINE
8
Black
10
83.9243
20
-30.1342
11
84.098
21
-29.8334
0
LINE
8
Black
10
84.098
20
-29.8334
11
84.364
21
-29.6102
0
LINE
8
Black
10
84.364
20
-29.6102
11
84.6904
21
-29.4914
0
LINE
8
Black
10
84.6904
20
-29.4914
11
85.0376
21
-29.4914
0
LINE
8
Black
10
85.0376
20
-29.4914
11
85.364
21
-29.6102
0
LINE
8
Black
10
125.006
20
-24.9261
11
125.013
21
-24.9261
0
LINE
8
Black
10
125.013
20
-24.9261
11
125.019
21
-24.9284
0
LINE
8
Black
10
125.019
20
-24.9284
11
125.026
21
-24.9295
0
LINE
8
Black
10
125.026
20
-24.9295
11
125.031
21
-24.9328
0
LINE
8
Black
10
125.031
20
-24.9328
11
125.037
21
-24.935
0
LINE
8
Black
10
125.037
20
-24.935
11
125.043
21
-24.9393
0
LINE
8
Black
10
125.043
20
-24.9393
11
125.048
21
-24.9425
0
LINE
8
Black
10
125.048
20
-24.9425
11
125.052
21
-24.9476
0
LINE
8
Black
10
125.052
20
-24.9476
11
125.057
21
-24.9518
0
LINE
8
Black
10
125.057
20
-24.9518
11
125.061
21
-24.9575
0
LINE
8
Black
10
125.061
20
-24.9575
11
125.065
21
-24.9625
0
LINE
8
Black
10
125.065
20
-24.9625
11
125.067
21
-24.9687
0
LINE
8
Black
10
125.067
20
-24.9687
11
125.07
21
-24.9743
0
LINE
8
Black
10
125.07
20
-24.9743
11
125.072
21
-24.9808
0
LINE
8
Black
10
125.072
20
-24.9808
11
125.074
21
-24.987
0
LINE
8
Black
10
125.074
20
-24.987
11
125.074
21
-24.9935
0
LINE
8
Black
10
125.074
20
-24.9935
11
125.075
21
-25
0
LINE
8
Black
10
125.075
20
-25
11
125.075
21
-125
0
LINE
8
Black
10
125.075
20
-125
11
125.074
21
-125.006
0
LINE
8
Black
10
125.074
20
-125.006
11
125.074
21
-125.013
0
LINE
8
Black
10
125.074
20
-125.013
11
125.072
21
-125.019
0
LINE
8
Black
10
125.072
20
-125.019
11
125.07
21
-125.026
0
LINE
8
Black
10
125.07
20
-125.026
11
125.067
21
-125.031
0
LINE
8
Black
10
125.067
20
-125.031
11
125.065
21
-125.037
0
LINE
8
Black
10
125.065
20
-125.037
11
125.061
21
-125.043
0
LINE
8
Black
10
125.061
20
-125.043
11
125.057
21
-125.048
0
LINE
8
Black
10
125.057
20
-125.048
11
125.052
21
-125.052
0
LINE
8
Black
10
125.052
20
-125.052
11
125.048
21
-125.057
0
LINE
8
Black
10
125.048
20
-125.057
11
125.043
21
-125.061
0
LINE
8
Black
10
125.043
20
-125.061
11
125.037
21
-125.065
0
LINE
8
Black
10
125.037
20
-125.065
11
125.031
21
-125.067
0
LINE
8
Black
10
125.031
20
-125.067
11
125.026
21
-125.07
0
LINE
8
Black
10
125.026
20
-125.07
11
125.019
21
-125.072
0
LINE
8
Black
10
125.019
20
-125.072
11
125.013
21
-125.074
0
LINE
8
Black
10
125.013
20
-125.074
11
125.006
21
-125.074
0
LINE
8
Black
10
125.006
20
-125.074
11
125
21
-125.075
0
LINE
8
Black
10
125
20
-125.075
11
25
21
-125.075
0
LINE
8
Black
10
25
20
-125.075
11
24.9935
21
-125.074
0
LINE
8
Black
10
24.9935
20
-125.074
11
24.987
21
-125.074
0
LINE
8
Black
10
24.987
20
-125.074
11
24.9808
21
-125.072
0
LINE
8
Black
10
24.9808
20
-125.072
11
24.9743
21
-125.07
0
LINE
8
Black
10
24.9743
20
-125.07
11
24.9687
21
-125.067
0
LINE
8
Black
10
24.9687
20
-125.067
11
24.9625
21
-125.065
0
LINE
8
Black
10
24.9625
20
-125.065
11
24.9575
21
-125.061
0
LINE
8
Black
10
24.9575
20
-125.061
11
24.9518
21
-125.057
0
LINE
8
Black
10
24.9518
20
-125.057
11
24.9476
21
-125.052
0
LINE
8
Black
10
24.9476
20
-125.052
11
24.9425
21
-125.048
0
LINE
8
Black
10
24.9425
20
-125.048
11
24.9393
21
-125.043
0
LINE
8
Black
10
24.9393
20
-125.043
11
24.935
21
-125.037
0
LINE
8
Black
10
24.935
20
-125.037
11
24.9328
21
-125.031
0
LINE
8
Black
10
24.9328
20
-125.031
11
24.9295
21
-125.026
0
LINE
8
Black
10
24.9295
20
-125.026
11
24.9284
21
-125.019
0
LINE
8
Black
10
24.9284
20
-125.019
11
24.9261
21
-125.013
0
LINE
8
Black
10
24.9261
20
-125.013
11
24.9261
21
-125.006
0
LINE
8
Black
10
24.9261
20
-125.006
11
24.925
21
-125
0
LINE
8
Black
10
24.925
20
-125
11
24.925
21
-25
0
LINE
8
Black
10
24.925
20
-25
11
24.9261
21
-24.9935
0
LINE
8
Black
10
24.9261
20
-24.9935
11
24.9261
21
-24.987
0
LINE
8
Black
10
24.9261
20
-24.987
11
24.9284
21
-24.9808
0
LINE
8
Black
10
24.9284
20
-24.9808
11
24.9295
21
-24.9743
0
LINE
8
Black
10
24.9295
20
-24.9743
11
24.9328
21
-24.9687
0
LINE
8
Black
10
24.9328
20
-24.9687
11
24.935
21
-24.9625
0
LINE
8
Black
10
24.935
20
-24.9625
11
24.9393
21
-24.9575
0
LINE
8
Black
10
24.9393
20
-24.9575
11
24.9425
21
-24.9518
0
LINE
8
Black
10
24.9425
20
-24.9518
11
24.9476
21
-24.9476
0
LINE
8
Black
10
24.9476
20
-24.9476
11
24.9518
21
-24.9425
0
LINE
8
Black
10
24.9518
20
-24.9425
11
24.9575
21
-24.9393
0
LINE
8
Black
10
24.9575
20
-24.9393
11
24.9625
21
-24.935
0
LINE
8
Black
10
24.9625
20
-24.935
11
24.9687
21
-24.9328
0
LINE
8
Black
10
24.9687
20
-24.9328
11
24.9743
21
-24.9295
0
LINE
8
Black
10
24.9743
20
-24.9295
11
24.9808
21
-24.9284
0
LINE
8
Black
10
24.9808
20
-24.9284
11
24.987
21
-24.9261
0
LINE
8
Black
10
24.987
20
-24.9261
11
24.9935
21
-24.9261
0
LINE
8
Black
10
24.9935
20
-24.9261
11
25
21
-24.925
0
LINE
8
Black
10
25
20
-24.925
11
125
21
-24.925
0
LINE
8
Black
10
125
20
-24.925
11
125.006
21
-24.9261
0
LINE
8
Black
10
25.075
20
-25.075
11
25.075
21
-124.925
0
LINE
8
Black
10
25.075
20
-124.925
11
124.925
21
-124.925
0
LINE
8
Black
10
124.925
20
-124.925
11
124.925
21
-25.075
0
LINE
8
Black
10
124.925
20
-25.075
11
25.075
21
-25.075
  0
ENDSEC
  0
EOF
