  0
SECTION
  2
HEADER
  9
$ANGBASE
  50
0.0
  9
$ANGDIR
  70
  1
  9
$MEASUREMENT
  70
0
  0
ENDSEC
  0
SECTION
  2
TABLES
  0
TABLE
  2
LTYPE
  70
1
  0
LTYPE
  2
CONTINUOUS
  70
0
  3
Solid line
  72
65
  73
0
  40
0.0
  0
ENDTAB
  0
TABLE
  2
STYLE
  70
4
  0
STYLE
  2
KICAD
  70
0
  40
0
  41
1
  42
1
  50
0
  71
0
  3
isocp.shx
  0
STYLE
  2
KICADB
  70
0
  40
0
  41
1
  42
1
  50
0
  71
0
  3
isocp.shx
  0
STYLE
  2
KICADI
  70
0
  40
0
  41
1
  42
1
  50
15
  71
0
  3
isocp.shx
  0
STYLE
  2
KICADBI
  70
0
  40
0
  41
1
  42
1
  50
15
  71
0
  3
isocp.shx
  0
ENDTAB
  0
TABLE
  2
LAYER
  70
30
  0
LAYER
  2
BLACK
  70
0
  62
7
  6
CONTINUOUS
  0
LAYER
  2
GRAY1
  70
0
  62
251
  6
CONTINUOUS
  0
LAYER
  2
GRAY2
  70
0
  62
8
  6
CONTINUOUS
  0
LAYER
  2
GRAY3
  70
0
  62
9
  6
CONTINUOUS
  0
LAYER
  2
WHITE
  70
0
  62
7
  6
CONTINUOUS
  0
LAYER
  2
LYELLOW
  70
0
  62
51
  6
CONTINUOUS
  0
LAYER
  2
BLUE1
  70
0
  62
178
  6
CONTINUOUS
  0
LAYER
  2
GREEN1
  70
0
  62
98
  6
CONTINUOUS
  0
LAYER
  2
CYAN1
  70
0
  62
138
  6
CONTINUOUS
  0
LAYER
  2
RED1
  70
0
  62
18
  6
CONTINUOUS
  0
LAYER
  2
MAGENTA1
  70
0
  62
228
  6
CONTINUOUS
  0
LAYER
  2
BROWN1
  70
0
  62
58
  6
CONTINUOUS
  0
LAYER
  2
BLUE2
  70
0
  62
5
  6
CONTINUOUS
  0
LAYER
  2
GREEN2
  70
0
  62
3
  6
CONTINUOUS
  0
LAYER
  2
CYAN2
  70
0
  62
4
  6
CONTINUOUS
  0
LAYER
  2
RED2
  70
0
  62
1
  6
CONTINUOUS
  0
LAYER
  2
MAGENTA2
  70
0
  62
6
  6
CONTINUOUS
  0
LAYER
  2
BROWN2
  70
0
  62
54
  6
CONTINUOUS
  0
LAYER
  2
BLUE3
  70
0
  62
171
  6
CONTINUOUS
  0
LAYER
  2
GREEN3
  70
0
  62
91
  6
CONTINUOUS
  0
LAYER
  2
CYAN3
  70
0
  62
131
  6
CONTINUOUS
  0
LAYER
  2
RED3
  70
0
  62
11
  6
CONTINUOUS
  0
LAYER
  2
MAGENTA3
  70
0
  62
221
  6
CONTINUOUS
  0
LAYER
  2
YELLOW3
  70
0
  62
2
  6
CONTINUOUS
  0
LAYER
  2
BLUE4
  70
0
  62
5
  6
CONTINUOUS
  0
LAYER
  2
GREEN4
  70
0
  62
3
  6
CONTINUOUS
  0
LAYER
  2
CYAN4
  70
0
  62
4
  6
CONTINUOUS
  0
LAYER
  2
RED4
  70
0
  62
1
  6
CONTINUOUS
  0
LAYER
  2
MAGENTA4
  70
0
  62
6
  6
CONTINUOUS
  0
LAYER
  2
YELLOW4
  70
0
  62
2
  6
CONTINUOUS
  0
ENDTAB
  0
ENDSEC
  0
SECTION
  2
ENTITIES
0
LINE
8
Black
10
25
20
-25
11
25
21
-125
0
LINE
8
Black
10
25
20
-125
11
125
21
-125
0
LINE
8
Black
10
125
20
-25
11
125
21
-125
0
LINE
8
Black
10
25
20
-25
11
125
21
-25
0
LINE
8
Black
10
31.169
20
-106.226
11
31.569
21
-106.626
0
LINE
8
Black
10
31.569
20
-106.226
11
31.169
21
-106.626
0
LINE
8
Black
10
33.836
20
-96.701
11
34.236
21
-97.101
0
LINE
8
Black
10
34.236
20
-96.701
11
33.836
21
-97.101
0
LINE
8
Black
10
33.963
20
-58.601
11
34.363
21
-59.001
0
LINE
8
Black
10
34.363
20
-58.601
11
33.963
21
-59.001
0
LINE
8
Black
10
34.979
20
-101.019
11
35.379
21
-101.419
0
LINE
8
Black
10
35.379
20
-101.019
11
34.979
21
-101.419
0
LINE
8
Black
10
37.392
20
-93.145
11
37.792
21
-93.545
0
LINE
8
Black
10
37.792
20
-93.145
11
37.392
21
-93.545
0
LINE
8
Black
10
37.392
20
-99.368
11
37.792
21
-99.768
0
LINE
8
Black
10
37.792
20
-99.368
11
37.392
21
-99.768
0
LINE
8
Black
10
37.9
20
-55.68
11
38.3
21
-56.08
0
LINE
8
Black
10
38.3
20
-55.68
11
37.9
21
-56.08
0
LINE
8
Black
10
39.805
20
-55.68
11
40.205
21
-56.08
0
LINE
8
Black
10
40.205
20
-55.68
11
39.805
21
-56.08
0
LINE
8
Black
10
42.345
20
-55.68
11
42.745
21
-56.08
0
LINE
8
Black
10
42.745
20
-55.68
11
42.345
21
-56.08
0
LINE
8
Black
10
43.615
20
-56.95
11
44.015
21
-57.35
0
LINE
8
Black
10
44.015
20
-56.95
11
43.615
21
-57.35
0
LINE
8
Black
10
43.615
20
-84.255
11
44.015
21
-84.655
0
LINE
8
Black
10
44.015
20
-84.255
11
43.615
21
-84.655
0
LINE
8
Black
10
43.615
20
-95.812
11
44.015
21
-96.212
0
LINE
8
Black
10
44.015
20
-95.812
11
43.615
21
-96.212
0
LINE
8
Black
10
44.885
20
-55.68
11
45.285
21
-56.08
0
LINE
8
Black
10
45.285
20
-55.68
11
44.885
21
-56.08
0
LINE
8
Black
10
44.885
20
-101.781
11
45.285
21
-102.181
0
LINE
8
Black
10
45.285
20
-101.781
11
44.885
21
-102.181
0
LINE
8
Black
10
45.7994
20
-86.922
11
46.1994
21
-87.322
0
LINE
8
Black
10
46.1994
20
-86.922
11
45.7994
21
-87.322
0
LINE
8
Black
10
46.155
20
-56.95
11
46.555
21
-57.35
0
LINE
8
Black
10
46.555
20
-56.95
11
46.155
21
-57.35
0
LINE
8
Black
10
47.425
20
-101.781
11
47.825
21
-102.181
0
LINE
8
Black
10
47.825
20
-101.781
11
47.425
21
-102.181
0
LINE
8
Black
10
49.965
20
-98.86
11
50.365
21
-99.26
0
LINE
8
Black
10
50.365
20
-98.86
11
49.965
21
-99.26
0
LINE
8
Black
10
49.965
20
-102.035
11
50.365
21
-102.435
0
LINE
8
Black
10
50.365
20
-102.035
11
49.965
21
-102.435
0
LINE
8
Black
10
50.9048
20
-86.9728
11
51.3048
21
-87.3728
0
LINE
8
Black
10
51.3048
20
-86.9728
11
50.9048
21
-87.3728
0
LINE
8
Black
10
51.235
20
-95.685
11
51.635
21
-96.085
0
LINE
8
Black
10
51.635
20
-95.685
11
51.235
21
-96.085
0
LINE
8
Black
10
51.235
20
-97.717
11
51.635
21
-98.117
0
LINE
8
Black
10
51.635
20
-97.717
11
51.235
21
-98.117
0
LINE
8
Black
10
53.775
20
-69.65
11
54.175
21
-70.05
0
LINE
8
Black
10
54.175
20
-69.65
11
53.775
21
-70.05
0
LINE
8
Black
10
55.0087
20
-74.3853
11
55.4087
21
-74.7853
0
LINE
8
Black
10
55.4087
20
-74.3853
11
55.0087
21
-74.7853
0
LINE
8
Black
10
55.934
20
-61.268
11
56.334
21
-61.668
0
LINE
8
Black
10
56.334
20
-61.268
11
55.934
21
-61.668
0
LINE
8
Black
10
55.934
20
-56.95
11
56.334
21
-57.35
0
LINE
8
Black
10
56.334
20
-56.95
11
55.934
21
-57.35
0
LINE
8
Black
10
57.585
20
-76
11
57.985
21
-76.4
0
LINE
8
Black
10
57.985
20
-76
11
57.585
21
-76.4
0
LINE
8
Black
10
59.49
20
-55.68
11
59.89
21
-56.08
0
LINE
8
Black
10
59.89
20
-55.68
11
59.49
21
-56.08
0
LINE
8
Black
10
59.871
20
-91.494
11
60.271
21
-91.894
0
LINE
8
Black
10
60.271
20
-91.494
11
59.871
21
-91.894
0
LINE
8
Black
10
60.125
20
-72.952
11
60.525
21
-73.352
0
LINE
8
Black
10
60.525
20
-72.952
11
60.125
21
-73.352
0
LINE
8
Black
10
60.125
20
-76
11
60.525
21
-76.4
0
LINE
8
Black
10
60.525
20
-76
11
60.125
21
-76.4
0
LINE
8
Black
10
60.76
20
-51.743
11
61.16
21
-52.143
0
LINE
8
Black
10
61.16
20
-51.743
11
60.76
21
-52.143
0
LINE
8
Black
10
61.014
20
-61.268
11
61.414
21
-61.668
0
LINE
8
Black
10
61.414
20
-61.268
11
61.014
21
-61.668
0
LINE
8
Black
10
61.395
20
-69.65
11
61.795
21
-70.05
0
LINE
8
Black
10
61.795
20
-69.65
11
61.395
21
-70.05
0
LINE
8
Black
10
61.395
20
-71.682
11
61.795
21
-72.082
0
LINE
8
Black
10
61.795
20
-71.682
11
61.395
21
-72.082
0
LINE
8
Black
10
62.03
20
-55.68
11
62.43
21
-56.08
0
LINE
8
Black
10
62.43
20
-55.68
11
62.03
21
-56.08
0
LINE
8
Black
10
62.284
20
-75.238
11
62.684
21
-75.638
0
LINE
8
Black
10
62.684
20
-75.238
11
62.284
21
-75.638
0
LINE
8
Black
10
62.665
20
-101.908
11
63.065
21
-102.308
0
LINE
8
Black
10
63.065
20
-101.908
11
62.665
21
-102.308
0
LINE
8
Black
10
63.935
20
-56.315
11
64.335
21
-56.715
0
LINE
8
Black
10
64.335
20
-56.315
11
63.935
21
-56.715
0
LINE
8
Black
10
63.935
20
-101.908
11
64.335
21
-102.308
0
LINE
8
Black
10
64.335
20
-101.908
11
63.935
21
-102.308
0
LINE
8
Black
10
64.996
20
-86.795
11
65.396
21
-87.195
0
LINE
8
Black
10
65.396
20
-86.795
11
64.996
21
-87.195
0
LINE
8
Black
10
66.475
20
-101.908
11
66.875
21
-102.308
0
LINE
8
Black
10
66.875
20
-101.908
11
66.475
21
-102.308
0
LINE
8
Black
10
67.618
20
-51.743
11
68.018
21
-52.143
0
LINE
8
Black
10
68.018
20
-51.743
11
67.618
21
-52.143
0
LINE
8
Black
10
67.745
20
-57.585
11
68.145
21
-57.985
0
LINE
8
Black
10
68.145
20
-57.585
11
67.745
21
-57.985
0
LINE
8
Black
10
69.015
20
-98.86
11
69.415
21
-99.26
0
LINE
8
Black
10
69.415
20
-98.86
11
69.015
21
-99.26
0
LINE
8
Black
10
69.015
20
-102.035
11
69.415
21
-102.435
0
LINE
8
Black
10
69.415
20
-102.035
11
69.015
21
-102.435
0
LINE
8
Black
10
69.142
20
-86.922
11
69.542
21
-87.322
0
LINE
8
Black
10
69.542
20
-86.922
11
69.142
21
-87.322
0
LINE
8
Black
10
70.285
20
-95.685
11
70.685
21
-96.085
0
LINE
8
Black
10
70.685
20
-95.685
11
70.285
21
-96.085
0
LINE
8
Black
10
70.285
20
-97.717
11
70.685
21
-98.117
0
LINE
8
Black
10
70.685
20
-97.717
11
70.285
21
-98.117
0
LINE
8
Black
10
72.825
20
-69.65
11
73.225
21
-70.05
0
LINE
8
Black
10
73.225
20
-69.65
11
72.825
21
-70.05
0
LINE
8
Black
10
73.714
20
-74.73
11
74.114
21
-75.13
0
LINE
8
Black
10
74.114
20
-74.73
11
73.714
21
-75.13
0
LINE
8
Black
10
75.41
20
-61.268
11
75.81
21
-61.668
0
LINE
8
Black
10
75.81
20
-61.268
11
75.41
21
-61.668
0
LINE
8
Black
10
75.492
20
-56.569
11
75.892
21
-56.969
0
LINE
8
Black
10
75.892
20
-56.569
11
75.492
21
-56.969
0
LINE
8
Black
10
76.381
20
-57.585
11
76.781
21
-57.985
0
LINE
8
Black
10
76.781
20
-57.585
11
76.381
21
-57.985
0
LINE
8
Black
10
76.635
20
-75.746
11
77.035
21
-76.146
0
LINE
8
Black
10
77.035
20
-75.746
11
76.635
21
-76.146
0
LINE
8
Black
10
79.175
20
-72.952
11
79.575
21
-73.352
0
LINE
8
Black
10
79.575
20
-72.952
11
79.175
21
-73.352
0
LINE
8
Black
10
79.175
20
-75.746
11
79.575
21
-76.146
0
LINE
8
Black
10
79.575
20
-75.746
11
79.175
21
-76.146
0
LINE
8
Black
10
79.302
20
-92.256
11
79.702
21
-92.656
0
LINE
8
Black
10
79.702
20
-92.256
11
79.302
21
-92.656
0
LINE
8
Black
10
80.1656
20
-61.2172
11
80.5656
21
-61.6172
0
LINE
8
Black
10
80.5656
20
-61.2172
11
80.1656
21
-61.6172
0
LINE
8
Black
10
80.191
20
-55.68
11
80.591
21
-56.08
0
LINE
8
Black
10
80.591
20
-55.68
11
80.191
21
-56.08
0
LINE
8
Black
10
80.445
20
-69.65
11
80.845
21
-70.05
0
LINE
8
Black
10
80.845
20
-69.65
11
80.445
21
-70.05
0
LINE
8
Black
10
80.445
20
-71.682
11
80.845
21
-72.082
0
LINE
8
Black
10
80.845
20
-71.682
11
80.445
21
-72.082
0
LINE
8
Black
10
81.715
20
-74.73
11
82.115
21
-75.13
0
LINE
8
Black
10
82.115
20
-74.73
11
81.715
21
-75.13
0
LINE
8
Black
10
81.715
20
-101.781
11
82.115
21
-102.181
0
LINE
8
Black
10
82.115
20
-101.781
11
81.715
21
-102.181
0
LINE
8
Black
10
82.985
20
-101.4
11
83.385
21
-101.8
0
LINE
8
Black
10
83.385
20
-101.4
11
82.985
21
-101.8
0
LINE
8
Black
10
83.284
20
-55.299
11
83.684
21
-55.699
0
LINE
8
Black
10
83.684
20
-55.299
11
83.284
21
-55.699
0
LINE
8
Black
10
83.829
20
-87.049
11
84.229
21
-87.449
0
LINE
8
Black
10
84.229
20
-87.049
11
83.829
21
-87.449
0
LINE
8
Black
10
84.255
20
-55.172
11
84.655
21
-55.572
0
LINE
8
Black
10
84.655
20
-55.172
11
84.255
21
-55.572
0
LINE
8
Black
10
85.271
20
-57.585
11
85.671
21
-57.985
0
LINE
8
Black
10
85.671
20
-57.585
11
85.271
21
-57.985
0
LINE
8
Black
10
85.525
20
-101.527
11
85.925
21
-101.927
0
LINE
8
Black
10
85.925
20
-101.527
11
85.525
21
-101.927
0
LINE
8
Black
10
88.065
20
-57.585
11
88.465
21
-57.985
0
LINE
8
Black
10
88.465
20
-57.585
11
88.065
21
-57.985
0
LINE
8
Black
10
88.065
20
-102.035
11
88.465
21
-102.435
0
LINE
8
Black
10
88.465
20
-102.035
11
88.065
21
-102.435
0
LINE
8
Black
10
88.7
20
-98.86
11
89.1
21
-99.26
0
LINE
8
Black
10
89.1
20
-98.86
11
88.7
21
-99.26
0
LINE
8
Black
10
88.954
20
-87.049
11
89.354
21
-87.449
0
LINE
8
Black
10
89.354
20
-87.049
11
88.954
21
-87.449
0
LINE
8
Black
10
89.335
20
-95.685
11
89.735
21
-96.085
0
LINE
8
Black
10
89.735
20
-95.685
11
89.335
21
-96.085
0
LINE
8
Black
10
89.335
20
-97.717
11
89.735
21
-98.117
0
LINE
8
Black
10
89.735
20
-97.717
11
89.335
21
-98.117
0
LINE
8
Black
10
91.875
20
-69.777
11
92.275
21
-70.177
0
LINE
8
Black
10
92.275
20
-69.777
11
91.875
21
-70.177
0
LINE
8
Black
10
93.145
20
-56.442
11
93.545
21
-56.842
0
LINE
8
Black
10
93.545
20
-56.442
11
93.145
21
-56.842
0
LINE
8
Black
10
93.145
20
-75.746
11
93.545
21
-76.146
0
LINE
8
Black
10
93.545
20
-75.746
11
93.145
21
-76.146
0
LINE
8
Black
10
94.968
20
-61.268
11
95.368
21
-61.668
0
LINE
8
Black
10
95.368
20
-61.268
11
94.968
21
-61.668
0
LINE
8
Black
10
95.05
20
-55.807
11
95.45
21
-56.207
0
LINE
8
Black
10
95.45
20
-55.807
11
95.05
21
-56.207
0
LINE
8
Black
10
95.685
20
-57.585
11
96.085
21
-57.985
0
LINE
8
Black
10
96.085
20
-57.585
11
95.685
21
-57.985
0
LINE
8
Black
10
95.685
20
-75.746
11
96.085
21
-76.146
0
LINE
8
Black
10
96.085
20
-75.746
11
95.685
21
-76.146
0
LINE
8
Black
10
98.098
20
-91.875
11
98.498
21
-92.275
0
LINE
8
Black
10
98.498
20
-91.875
11
98.098
21
-92.275
0
LINE
8
Black
10
98.225
20
-75.7968
11
98.625
21
-76.1968
0
LINE
8
Black
10
98.625
20
-75.7968
11
98.225
21
-76.1968
0
LINE
8
Black
10
98.987
20
-72.952
11
99.387
21
-73.352
0
LINE
8
Black
10
99.387
20
-72.952
11
98.987
21
-73.352
0
LINE
8
Black
10
99.241
20
-54.918
11
99.641
21
-55.318
0
LINE
8
Black
10
99.641
20
-54.918
11
99.241
21
-55.318
0
LINE
8
Black
10
99.241
20
-61.268
11
99.641
21
-61.668
0
LINE
8
Black
10
99.641
20
-61.268
11
99.241
21
-61.668
0
LINE
8
Black
10
99.495
20
-69.65
11
99.895
21
-70.05
0
LINE
8
Black
10
99.895
20
-69.65
11
99.495
21
-70.05
0
LINE
8
Black
10
99.495
20
-71.682
11
99.895
21
-72.082
0
LINE
8
Black
10
99.895
20
-71.682
11
99.495
21
-72.082
0
LINE
8
Black
10
100.638
20
-74.73
11
101.038
21
-75.13
0
LINE
8
Black
10
101.038
20
-74.73
11
100.638
21
-75.13
0
LINE
8
Black
10
100.638
20
-101.908
11
101.038
21
-102.308
0
LINE
8
Black
10
101.038
20
-101.908
11
100.638
21
-102.308
0
LINE
8
Black
10
102.035
20
-100.765
11
102.435
21
-101.165
0
LINE
8
Black
10
102.435
20
-100.765
11
102.035
21
-101.165
0
LINE
8
Black
10
102.035
20
-101.908
11
102.435
21
-102.308
0
LINE
8
Black
10
102.435
20
-101.908
11
102.035
21
-102.308
0
LINE
8
Black
10
102.67
20
-55.045
11
103.07
21
-55.445
0
LINE
8
Black
10
103.07
20
-55.045
11
102.67
21
-55.445
0
LINE
8
Black
10
103.295
20
-87.303
11
103.695
21
-87.703
0
LINE
8
Black
10
103.695
20
-87.303
11
103.295
21
-87.703
0
LINE
8
Black
10
103.305
20
-51.489
11
103.705
21
-51.889
0
LINE
8
Black
10
103.705
20
-51.489
11
103.305
21
-51.889
0
LINE
8
Black
10
103.94
20
-55.045
11
104.34
21
-55.445
0
LINE
8
Black
10
104.34
20
-55.045
11
103.94
21
-55.445
0
LINE
8
Black
10
107.115
20
-57.585
11
107.515
21
-57.985
0
LINE
8
Black
10
107.515
20
-57.585
11
107.115
21
-57.985
0
LINE
8
Black
10
107.115
20
-98.86
11
107.515
21
-99.26
0
LINE
8
Black
10
107.515
20
-98.86
11
107.115
21
-99.26
0
LINE
8
Black
10
107.115
20
-101.654
11
107.515
21
-102.054
0
LINE
8
Black
10
107.515
20
-101.654
11
107.115
21
-102.054
0
LINE
8
Black
10
108.004
20
-86.922
11
108.404
21
-87.322
0
LINE
8
Black
10
108.404
20
-86.922
11
108.004
21
-87.322
0
LINE
8
Black
10
108.385
20
-95.685
11
108.785
21
-96.085
0
LINE
8
Black
10
108.785
20
-95.685
11
108.385
21
-96.085
0
LINE
8
Black
10
108.385
20
-97.717
11
108.785
21
-98.117
0
LINE
8
Black
10
108.785
20
-97.717
11
108.385
21
-98.117
0
LINE
8
Black
10
108.639
20
-58.22
11
109.039
21
-58.62
0
LINE
8
Black
10
109.039
20
-58.22
11
108.639
21
-58.62
0
LINE
8
Black
10
108.639
20
-63.935
11
109.039
21
-64.335
0
LINE
8
Black
10
109.039
20
-63.935
11
108.639
21
-64.335
0
LINE
8
Black
10
110.29
20
-55.045
11
110.69
21
-55.445
0
LINE
8
Black
10
110.69
20
-55.045
11
110.29
21
-55.445
0
LINE
8
Black
10
110.671
20
-56.569
11
111.071
21
-56.969
0
LINE
8
Black
10
111.071
20
-56.569
11
110.671
21
-56.969
0
LINE
8
Black
10
112.195
20
-75.746
11
112.595
21
-76.146
0
LINE
8
Black
10
112.595
20
-75.746
11
112.195
21
-76.146
0
LINE
8
Black
10
112.322
20
-61.395
11
112.722
21
-61.795
0
LINE
8
Black
10
112.722
20
-61.395
11
112.322
21
-61.795
0
LINE
8
Black
10
114.227
20
-57.585
11
114.627
21
-57.985
0
LINE
8
Black
10
114.627
20
-57.585
11
114.227
21
-57.985
0
LINE
8
Black
10
114.735
20
-75.746
11
115.135
21
-76.146
0
LINE
8
Black
10
115.135
20
-75.746
11
114.735
21
-76.146
0
LINE
8
Black
10
117.275
20
-70.539
11
117.675
21
-70.939
0
LINE
8
Black
10
117.675
20
-70.539
11
117.275
21
-70.939
0
LINE
8
Black
10
117.275
20
-72.952
11
117.675
21
-73.352
0
LINE
8
Black
10
117.675
20
-72.952
11
117.275
21
-73.352
0
LINE
8
Black
10
117.275
20
-75.746
11
117.675
21
-76.146
0
LINE
8
Black
10
117.675
20
-75.746
11
117.275
21
-76.146
0
LINE
8
Black
10
117.275
20
-98.86
11
117.675
21
-99.26
0
LINE
8
Black
10
117.675
20
-98.86
11
117.275
21
-99.26
0
LINE
8
Black
10
118.545
20
-71.682
11
118.945
21
-72.082
0
LINE
8
Black
10
118.945
20
-71.682
11
118.545
21
-72.082
0
LINE
8
Black
10
118.545
20
-100.003
11
118.945
21
-100.403
0
LINE
8
Black
10
118.945
20
-100.003
11
118.545
21
-100.403
0
LINE
8
Black
10
118.545
20
-73.968
11
118.945
21
-74.368
0
LINE
8
Black
10
118.945
20
-73.968
11
118.545
21
-74.368
0
LINE
8
Black
10
119.815
20
-97.717
11
120.215
21
-98.117
0
LINE
8
Black
10
120.215
20
-97.717
11
119.815
21
-98.117
0
LINE
8
Black
10
120.831
20
-96.8534
11
121.231
21
-97.2534
0
LINE
8
Black
10
121.231
20
-96.8534
11
120.831
21
-97.2534
0
CIRCLE
8
Black
10
35.814
20
-38.227
40
0.25
0
CIRCLE
8
Black
10
35.814
20
-50.419
40
0.25
0
CIRCLE
8
Black
10
36.322
20
-60.325
40
0.25
0
CIRCLE
8
Black
10
36.322
20
-85.852
40
0.25
0
CIRCLE
8
Black
10
36.322
20
-111.125
40
0.25
0
CIRCLE
8
Black
10
38.735
20
-105.791
40
0.25
0
CIRCLE
8
Black
10
40.01
20
-102.505
40
0.25
0
CIRCLE
8
Black
10
40.01
20
-110.993
40
0.25
0
CIRCLE
8
Black
10
40.513
20
-48.895
40
0.25
0
CIRCLE
8
Black
10
40.513
20
-48.895
40
0.25
0
CIRCLE
8
Black
10
41.275
20
-46.609
40
0.25
0
CIRCLE
8
Black
10
42.545
20
-46.101
40
0.25
0
CIRCLE
8
Black
10
42.799
20
-89.535
40
0.25
0
CIRCLE
8
Black
10
42.867
20
-96.126
40
0.25
0
CIRCLE
8
Black
10
43.815
20
-46.609
40
0.25
0
CIRCLE
8
Black
10
45.085
20
-46.101
40
0.25
0
CIRCLE
8
Black
10
46.355
20
-48.895
40
0.25
0
CIRCLE
8
Black
10
46.355
20
-102.108
40
0.25
0
CIRCLE
8
Black
10
47.625
20
-46.101
40
0.25
0
CIRCLE
8
Black
10
47.752
20
-90.043
40
0.25
0
CIRCLE
8
Black
10
48.895
20
-46.609
40
0.25
0
CIRCLE
8
Black
10
48.895
20
-79.756
40
0.25
0
CIRCLE
8
Black
10
48.895
20
-102.108
40
0.25
0
CIRCLE
8
Black
10
51.308
20
-62.484
40
0.25
0
CIRCLE
8
Black
10
52.705
20
-69.977
40
0.25
0
CIRCLE
8
Black
10
53.721
20
-26.3144
40
0.25
0
CIRCLE
8
Black
10
53.848
20
-94.361
40
0.25
0
CIRCLE
8
Black
10
53.848
20
-103.759
40
0.25
0
CIRCLE
8
Black
10
54.3306
20
-38.2524
40
0.25
0
CIRCLE
8
Black
10
56.515
20
-75.438
40
0.25
0
CIRCLE
8
Black
10
57.658
20
-61.468
40
0.25
0
CIRCLE
8
Black
10
57.785
20
-74.93
40
0.25
0
CIRCLE
8
Black
10
57.785
20
-105.664
40
0.25
0
CIRCLE
8
Black
10
58.7756
20
-26.3144
40
0.25
0
CIRCLE
8
Black
10
59.055
20
-48.26
40
0.25
0
CIRCLE
8
Black
10
59.436
20
-38.2524
40
0.25
0
CIRCLE
8
Black
10
59.563
20
-87.503
40
0.25
0
CIRCLE
8
Black
10
60.96
20
-46.99
40
0.25
0
CIRCLE
8
Black
10
61.595
20
-96.012
40
0.25
0
CIRCLE
8
Black
10
62.865
20
-66.675
40
0.25
0
CIRCLE
8
Black
10
62.865
20
-79.502
40
0.25
0
CIRCLE
8
Black
10
63.5
20
-46.101
40
0.25
0
CIRCLE
8
Black
10
63.8556
20
-26.3144
40
0.25
0
CIRCLE
8
Black
10
64.5414
20
-38.2524
40
0.25
0
CIRCLE
8
Black
10
64.77
20
-46.609
40
0.25
0
CIRCLE
8
Black
10
65.405
20
-102.108
40
0.25
0
CIRCLE
8
Black
10
66.9036
20
-89.8144
40
0.25
0
CIRCLE
8
Black
10
67.31
20
-42.418
40
0.25
0
CIRCLE
8
Black
10
67.945
20
-102.108
40
0.25
0
CIRCLE
8
Black
10
68.58
20
-46.101
40
0.25
0
CIRCLE
8
Black
10
68.9356
20
-26.3144
40
0.25
0
CIRCLE
8
Black
10
69.6214
20
-38.2524
40
0.25
0
CIRCLE
8
Black
10
69.85
20
-42.418
40
0.25
0
CIRCLE
8
Black
10
71.755
20
-69.977
40
0.25
0
CIRCLE
8
Black
10
72.009
20
-40.005
40
0.25
0
CIRCLE
8
Black
10
72.009
20
-64.135
40
0.25
0
CIRCLE
8
Black
10
72.263
20
-44.196
40
0.25
0
CIRCLE
8
Black
10
72.771
20
-94.361
40
0.25
0
CIRCLE
8
Black
10
72.898
20
-39.243
40
0.25
0
CIRCLE
8
Black
10
72.898
20
-90.17
40
0.25
0
CIRCLE
8
Black
10
72.898
20
-103.759
40
0.25
0
CIRCLE
8
Black
10
74.0664
20
-26.3144
40
0.25
0
CIRCLE
8
Black
10
74.676
20
-38.2524
40
0.25
0
CIRCLE
8
Black
10
75.565
20
-76.073
40
0.25
0
CIRCLE
8
Black
10
76.454
20
-90.17
40
0.25
0
CIRCLE
8
Black
10
76.6826
20
-39.5224
40
0.25
0
CIRCLE
8
Black
10
76.835
20
-105.664
40
0.25
0
CIRCLE
8
Black
10
77.325
20
-64.135
40
0.25
0
CIRCLE
8
Black
10
78.105
20
-39.37
40
0.25
0
CIRCLE
8
Black
10
78.105
20
-76.073
40
0.25
0
CIRCLE
8
Black
10
78.232
20
-47.498
40
0.25
0
CIRCLE
8
Black
10
79.0956
20
-26.3144
40
0.25
0
CIRCLE
8
Black
10
79.7814
20
-38.2524
40
0.25
0
CIRCLE
8
Black
10
80.645
20
-96.012
40
0.25
0
CIRCLE
8
Black
10
81.026
20
-87.376
40
0.25
0
CIRCLE
8
Black
10
81.915
20
-66.675
40
0.25
0
CIRCLE
8
Black
10
81.915
20
-79.375
40
0.25
0
CIRCLE
8
Black
10
83.584
20
-45.847
40
0.25
0
CIRCLE
8
Black
10
84.1248
20
-26.3144
40
0.25
0
CIRCLE
8
Black
10
84.455
20
-42.418
40
0.25
0
CIRCLE
8
Black
10
84.455
20
-102.108
40
0.25
0
CIRCLE
8
Black
10
84.7926
20
-38.2524
40
0.25
0
CIRCLE
8
Black
10
85.217
20
-46.355
40
0.25
0
CIRCLE
8
Black
10
85.725
20
-42.418
40
0.25
0
CIRCLE
8
Black
10
86.196
20
-87.122
40
0.25
0
CIRCLE
8
Black
10
86.995
20
-102.108
40
0.25
0
CIRCLE
8
Black
10
89.535
20
-42.418
40
0.25
0
CIRCLE
8
Black
10
89.535
20
-46.101
40
0.25
0
CIRCLE
8
Black
10
89.8652
20
-26.3144
40
0.25
0
CIRCLE
8
Black
10
90.805
20
-42.418
40
0.25
0
CIRCLE
8
Black
10
90.805
20
-69.977
40
0.25
0
CIRCLE
8
Black
10
91.059
20
-63.881
40
0.25
0
CIRCLE
8
Black
10
91.948
20
-94.361
40
0.25
0
CIRCLE
8
Black
10
91.948
20
-103.759
40
0.25
0
CIRCLE
8
Black
10
92.075
20
-90.424
40
0.25
0
CIRCLE
8
Black
10
93.218
20
-44.196
40
0.25
0
CIRCLE
8
Black
10
94.5388
20
-47.117
40
0.25
0
CIRCLE
8
Black
10
94.6404
20
-76.0476
40
0.25
0
CIRCLE
8
Black
10
95.885
20
-105.664
40
0.25
0
CIRCLE
8
Black
10
96.012
20
-90.424
40
0.25
0
CIRCLE
8
Black
10
96.139
20
-63.627
40
0.25
0
CIRCLE
8
Black
10
97.155
20
-76.073
40
0.25
0
CIRCLE
8
Black
10
97.409
20
-46.228
40
0.25
0
CIRCLE
8
Black
10
98.552
20
-48.26
40
0.25
0
CIRCLE
8
Black
10
99.695
20
-96.012
40
0.25
0
CIRCLE
8
Black
10
99.949
20
-87.376
40
0.25
0
CIRCLE
8
Black
10
100.965
20
-66.675
40
0.25
0
CIRCLE
8
Black
10
100.965
20
-79.375
40
0.25
0
CIRCLE
8
Black
10
103.505
20
-102.108
40
0.25
0
CIRCLE
8
Black
10
104.14
20
-45.974
40
0.25
0
CIRCLE
8
Black
10
104.14
20
-47.498
40
0.25
0
CIRCLE
8
Black
10
105.41
20
-42.418
40
0.25
0
CIRCLE
8
Black
10
106.045
20
-102.108
40
0.25
0
CIRCLE
8
Black
10
106.426
20
-91.059
40
0.25
0
CIRCLE
8
Black
10
106.68
20
-42.418
40
0.25
0
CIRCLE
8
Black
10
106.68
20
-45.974
40
0.25
0
CIRCLE
8
Black
10
108.077
20
-49.022
40
0.25
0
CIRCLE
8
Black
10
109.22
20
-45.974
40
0.25
0
CIRCLE
8
Black
10
109.804
20
-47.8536
40
0.25
0
CIRCLE
8
Black
10
109.855
20
-69.977
40
0.25
0
CIRCLE
8
Black
10
110.109
20
-61.722
40
0.25
0
CIRCLE
8
Black
10
110.49
20
-36.83
40
0.25
0
CIRCLE
8
Black
10
110.998
20
-94.361
40
0.25
0
CIRCLE
8
Black
10
110.998
20
-103.759
40
0.25
0
CIRCLE
8
Black
10
111.76
20
-42.418
40
0.25
0
CIRCLE
8
Black
10
113.436
20
-48.7172
40
0.25
0
CIRCLE
8
Black
10
113.665
20
-76.073
40
0.25
0
CIRCLE
8
Black
10
114.046
20
-44.196
40
0.25
0
CIRCLE
8
Black
10
115.189
20
-52.197
40
0.25
0
CIRCLE
8
Black
10
115.189
20
-63.627
40
0.25
0
CIRCLE
8
Black
10
116.205
20
-76.073
40
0.25
0
CIRCLE
8
Black
10
121.031
20
-68.326
40
0.25
0
CIRCLE
8
Black
10
122.072
20
-77.724
40
0.25
0
LINE
8
Black
10
51.435
20
-43.948
11
51.435
21
-44.698
0
LINE
8
Black
10
51.06
20
-44.323
11
51.81
21
-44.323
0
LINE
8
Black
10
39.4976
20
-30.8336
11
39.4976
21
-30.1264
0
LINE
8
Black
10
39.4976
20
-30.1264
11
38.7904
21
-30.1264
0
LINE
8
Black
10
38.7904
20
-30.1264
11
38.7904
21
-30.8336
0
LINE
8
Black
10
38.7904
20
-30.8336
11
39.4976
21
-30.8336
0
LINE
8
Black
10
39.4976
20
-33.3736
11
39.4976
21
-32.6664
0
LINE
8
Black
10
39.4976
20
-32.6664
11
38.7904
21
-32.6664
0
LINE
8
Black
10
38.7904
20
-32.6664
11
38.7904
21
-33.3736
0
LINE
8
Black
10
38.7904
20
-33.3736
11
39.4976
21
-33.3736
0
LINE
8
Black
10
42.0376
20
-30.8336
11
42.0376
21
-30.1264
0
LINE
8
Black
10
42.0376
20
-30.1264
11
41.3304
21
-30.1264
0
LINE
8
Black
10
41.3304
20
-30.1264
11
41.3304
21
-30.8336
0
LINE
8
Black
10
41.3304
20
-30.8336
11
42.0376
21
-30.8336
0
LINE
8
Black
10
42.0376
20
-33.3736
11
42.0376
21
-32.6664
0
LINE
8
Black
10
42.0376
20
-32.6664
11
41.3304
21
-32.6664
0
LINE
8
Black
10
41.3304
20
-32.6664
11
41.3304
21
-33.3736
0
LINE
8
Black
10
41.3304
20
-33.3736
11
42.0376
21
-33.3736
0
LINE
8
Black
10
44.5776
20
-30.8336
11
44.5776
21
-30.1264
0
LINE
8
Black
10
44.5776
20
-30.1264
11
43.8704
21
-30.1264
0
LINE
8
Black
10
43.8704
20
-30.1264
11
43.8704
21
-30.8336
0
LINE
8
Black
10
43.8704
20
-30.8336
11
44.5776
21
-30.8336
0
LINE
8
Black
10
44.5776
20
-33.3736
11
44.5776
21
-32.6664
0
LINE
8
Black
10
44.5776
20
-32.6664
11
43.8704
21
-32.6664
0
LINE
8
Black
10
43.8704
20
-32.6664
11
43.8704
21
-33.3736
0
LINE
8
Black
10
43.8704
20
-33.3736
11
44.5776
21
-33.3736
0
LINE
8
Black
10
47.1176
20
-30.8336
11
47.1176
21
-30.1264
0
LINE
8
Black
10
47.1176
20
-30.1264
11
46.4104
21
-30.1264
0
LINE
8
Black
10
46.4104
20
-30.1264
11
46.4104
21
-30.8336
0
LINE
8
Black
10
46.4104
20
-30.8336
11
47.1176
21
-30.8336
0
LINE
8
Black
10
47.1176
20
-33.3736
11
47.1176
21
-32.6664
0
LINE
8
Black
10
47.1176
20
-32.6664
11
46.4104
21
-32.6664
0
LINE
8
Black
10
46.4104
20
-32.6664
11
46.4104
21
-33.3736
0
LINE
8
Black
10
46.4104
20
-33.3736
11
47.1176
21
-33.3736
0
LINE
8
Black
10
49.6576
20
-30.8336
11
49.6576
21
-30.1264
0
LINE
8
Black
10
49.6576
20
-30.1264
11
48.9504
21
-30.1264
0
LINE
8
Black
10
48.9504
20
-30.1264
11
48.9504
21
-30.8336
0
LINE
8
Black
10
48.9504
20
-30.8336
11
49.6576
21
-30.8336
0
LINE
8
Black
10
49.6576
20
-33.3736
11
49.6576
21
-32.6664
0
LINE
8
Black
10
49.6576
20
-32.6664
11
48.9504
21
-32.6664
0
LINE
8
Black
10
48.9504
20
-32.6664
11
48.9504
21
-33.3736
0
LINE
8
Black
10
48.9504
20
-33.3736
11
49.6576
21
-33.3736
0
LINE
8
Black
10
52.1976
20
-30.8336
11
52.1976
21
-30.1264
0
LINE
8
Black
10
52.1976
20
-30.1264
11
51.4904
21
-30.1264
0
LINE
8
Black
10
51.4904
20
-30.1264
11
51.4904
21
-30.8336
0
LINE
8
Black
10
51.4904
20
-30.8336
11
52.1976
21
-30.8336
0
LINE
8
Black
10
52.1976
20
-33.3736
11
52.1976
21
-32.6664
0
LINE
8
Black
10
52.1976
20
-32.6664
11
51.4904
21
-32.6664
0
LINE
8
Black
10
51.4904
20
-32.6664
11
51.4904
21
-33.3736
0
LINE
8
Black
10
51.4904
20
-33.3736
11
52.1976
21
-33.3736
0
LINE
8
Black
10
54.7376
20
-30.8336
11
54.7376
21
-30.1264
0
LINE
8
Black
10
54.7376
20
-30.1264
11
54.0304
21
-30.1264
0
LINE
8
Black
10
54.0304
20
-30.1264
11
54.0304
21
-30.8336
0
LINE
8
Black
10
54.0304
20
-30.8336
11
54.7376
21
-30.8336
0
LINE
8
Black
10
54.7376
20
-33.3736
11
54.7376
21
-32.6664
0
LINE
8
Black
10
54.7376
20
-32.6664
11
54.0304
21
-32.6664
0
LINE
8
Black
10
54.0304
20
-32.6664
11
54.0304
21
-33.3736
0
LINE
8
Black
10
54.0304
20
-33.3736
11
54.7376
21
-33.3736
0
LINE
8
Black
10
57.2776
20
-30.8336
11
57.2776
21
-30.1264
0
LINE
8
Black
10
57.2776
20
-30.1264
11
56.5704
21
-30.1264
0
LINE
8
Black
10
56.5704
20
-30.1264
11
56.5704
21
-30.8336
0
LINE
8
Black
10
56.5704
20
-30.8336
11
57.2776
21
-30.8336
0
LINE
8
Black
10
57.2776
20
-33.3736
11
57.2776
21
-32.6664
0
LINE
8
Black
10
57.2776
20
-32.6664
11
56.5704
21
-32.6664
0
LINE
8
Black
10
56.5704
20
-32.6664
11
56.5704
21
-33.3736
0
LINE
8
Black
10
56.5704
20
-33.3736
11
57.2776
21
-33.3736
0
LINE
8
Black
10
59.8176
20
-30.8336
11
59.8176
21
-30.1264
0
LINE
8
Black
10
59.8176
20
-30.1264
11
59.1104
21
-30.1264
0
LINE
8
Black
10
59.1104
20
-30.1264
11
59.1104
21
-30.8336
0
LINE
8
Black
10
59.1104
20
-30.8336
11
59.8176
21
-30.8336
0
LINE
8
Black
10
59.8176
20
-33.3736
11
59.8176
21
-32.6664
0
LINE
8
Black
10
59.8176
20
-32.6664
11
59.1104
21
-32.6664
0
LINE
8
Black
10
59.1104
20
-32.6664
11
59.1104
21
-33.3736
0
LINE
8
Black
10
59.1104
20
-33.3736
11
59.8176
21
-33.3736
0
LINE
8
Black
10
62.3576
20
-30.8336
11
62.3576
21
-30.1264
0
LINE
8
Black
10
62.3576
20
-30.1264
11
61.6504
21
-30.1264
0
LINE
8
Black
10
61.6504
20
-30.1264
11
61.6504
21
-30.8336
0
LINE
8
Black
10
61.6504
20
-30.8336
11
62.3576
21
-30.8336
0
LINE
8
Black
10
62.3576
20
-33.3736
11
62.3576
21
-32.6664
0
LINE
8
Black
10
62.3576
20
-32.6664
11
61.6504
21
-32.6664
0
LINE
8
Black
10
61.6504
20
-32.6664
11
61.6504
21
-33.3736
0
LINE
8
Black
10
61.6504
20
-33.3736
11
62.3576
21
-33.3736
0
LINE
8
Black
10
64.8976
20
-30.8336
11
64.8976
21
-30.1264
0
LINE
8
Black
10
64.8976
20
-30.1264
11
64.1904
21
-30.1264
0
LINE
8
Black
10
64.1904
20
-30.1264
11
64.1904
21
-30.8336
0
LINE
8
Black
10
64.1904
20
-30.8336
11
64.8976
21
-30.8336
0
LINE
8
Black
10
64.8976
20
-33.3736
11
64.8976
21
-32.6664
0
LINE
8
Black
10
64.8976
20
-32.6664
11
64.1904
21
-32.6664
0
LINE
8
Black
10
64.1904
20
-32.6664
11
64.1904
21
-33.3736
0
LINE
8
Black
10
64.1904
20
-33.3736
11
64.8976
21
-33.3736
0
LINE
8
Black
10
67.4376
20
-30.8336
11
67.4376
21
-30.1264
0
LINE
8
Black
10
67.4376
20
-30.1264
11
66.7304
21
-30.1264
0
LINE
8
Black
10
66.7304
20
-30.1264
11
66.7304
21
-30.8336
0
LINE
8
Black
10
66.7304
20
-30.8336
11
67.4376
21
-30.8336
0
LINE
8
Black
10
67.4376
20
-33.3736
11
67.4376
21
-32.6664
0
LINE
8
Black
10
67.4376
20
-32.6664
11
66.7304
21
-32.6664
0
LINE
8
Black
10
66.7304
20
-32.6664
11
66.7304
21
-33.3736
0
LINE
8
Black
10
66.7304
20
-33.3736
11
67.4376
21
-33.3736
0
LINE
8
Black
10
69.9776
20
-30.8336
11
69.9776
21
-30.1264
0
LINE
8
Black
10
69.9776
20
-30.1264
11
69.2704
21
-30.1264
0
LINE
8
Black
10
69.2704
20
-30.1264
11
69.2704
21
-30.8336
0
LINE
8
Black
10
69.2704
20
-30.8336
11
69.9776
21
-30.8336
0
LINE
8
Black
10
69.9776
20
-33.3736
11
69.9776
21
-32.6664
0
LINE
8
Black
10
69.9776
20
-32.6664
11
69.2704
21
-32.6664
0
LINE
8
Black
10
69.2704
20
-32.6664
11
69.2704
21
-33.3736
0
LINE
8
Black
10
69.2704
20
-33.3736
11
69.9776
21
-33.3736
0
LINE
8
Black
10
72.5176
20
-30.8336
11
72.5176
21
-30.1264
0
LINE
8
Black
10
72.5176
20
-30.1264
11
71.8104
21
-30.1264
0
LINE
8
Black
10
71.8104
20
-30.1264
11
71.8104
21
-30.8336
0
LINE
8
Black
10
71.8104
20
-30.8336
11
72.5176
21
-30.8336
0
LINE
8
Black
10
72.5176
20
-33.3736
11
72.5176
21
-32.6664
0
LINE
8
Black
10
72.5176
20
-32.6664
11
71.8104
21
-32.6664
0
LINE
8
Black
10
71.8104
20
-32.6664
11
71.8104
21
-33.3736
0
LINE
8
Black
10
71.8104
20
-33.3736
11
72.5176
21
-33.3736
0
LINE
8
Black
10
75.0576
20
-30.8336
11
75.0576
21
-30.1264
0
LINE
8
Black
10
75.0576
20
-30.1264
11
74.3504
21
-30.1264
0
LINE
8
Black
10
74.3504
20
-30.1264
11
74.3504
21
-30.8336
0
LINE
8
Black
10
74.3504
20
-30.8336
11
75.0576
21
-30.8336
0
LINE
8
Black
10
75.0576
20
-33.3736
11
75.0576
21
-32.6664
0
LINE
8
Black
10
75.0576
20
-32.6664
11
74.3504
21
-32.6664
0
LINE
8
Black
10
74.3504
20
-32.6664
11
74.3504
21
-33.3736
0
LINE
8
Black
10
74.3504
20
-33.3736
11
75.0576
21
-33.3736
0
LINE
8
Black
10
77.5976
20
-30.8336
11
77.5976
21
-30.1264
0
LINE
8
Black
10
77.5976
20
-30.1264
11
76.8904
21
-30.1264
0
LINE
8
Black
10
76.8904
20
-30.1264
11
76.8904
21
-30.8336
0
LINE
8
Black
10
76.8904
20
-30.8336
11
77.5976
21
-30.8336
0
LINE
8
Black
10
77.5976
20
-33.3736
11
77.5976
21
-32.6664
0
LINE
8
Black
10
77.5976
20
-32.6664
11
76.8904
21
-32.6664
0
LINE
8
Black
10
76.8904
20
-32.6664
11
76.8904
21
-33.3736
0
LINE
8
Black
10
76.8904
20
-33.3736
11
77.5976
21
-33.3736
0
LINE
8
Black
10
80.1376
20
-30.8336
11
80.1376
21
-30.1264
0
LINE
8
Black
10
80.1376
20
-30.1264
11
79.4304
21
-30.1264
0
LINE
8
Black
10
79.4304
20
-30.1264
11
79.4304
21
-30.8336
0
LINE
8
Black
10
79.4304
20
-30.8336
11
80.1376
21
-30.8336
0
LINE
8
Black
10
80.1376
20
-33.3736
11
80.1376
21
-32.6664
0
LINE
8
Black
10
80.1376
20
-32.6664
11
79.4304
21
-32.6664
0
LINE
8
Black
10
79.4304
20
-32.6664
11
79.4304
21
-33.3736
0
LINE
8
Black
10
79.4304
20
-33.3736
11
80.1376
21
-33.3736
0
LINE
8
Black
10
82.6776
20
-30.8336
11
82.6776
21
-30.1264
0
LINE
8
Black
10
82.6776
20
-30.1264
11
81.9704
21
-30.1264
0
LINE
8
Black
10
81.9704
20
-30.1264
11
81.9704
21
-30.8336
0
LINE
8
Black
10
81.9704
20
-30.8336
11
82.6776
21
-30.8336
0
LINE
8
Black
10
82.6776
20
-33.3736
11
82.6776
21
-32.6664
0
LINE
8
Black
10
82.6776
20
-32.6664
11
81.9704
21
-32.6664
0
LINE
8
Black
10
81.9704
20
-32.6664
11
81.9704
21
-33.3736
0
LINE
8
Black
10
81.9704
20
-33.3736
11
82.6776
21
-33.3736
0
LINE
8
Black
10
85.2176
20
-30.8336
11
85.2176
21
-30.1264
0
LINE
8
Black
10
85.2176
20
-30.1264
11
84.5104
21
-30.1264
0
LINE
8
Black
10
84.5104
20
-30.1264
11
84.5104
21
-30.8336
0
LINE
8
Black
10
84.5104
20
-30.8336
11
85.2176
21
-30.8336
0
LINE
8
Black
10
85.2176
20
-33.3736
11
85.2176
21
-32.6664
0
LINE
8
Black
10
85.2176
20
-32.6664
11
84.5104
21
-32.6664
0
LINE
8
Black
10
84.5104
20
-32.6664
11
84.5104
21
-33.3736
0
LINE
8
Black
10
84.5104
20
-33.3736
11
85.2176
21
-33.3736
0
LINE
8
Black
10
87.7576
20
-30.8336
11
87.7576
21
-30.1264
0
LINE
8
Black
10
87.7576
20
-30.1264
11
87.0504
21
-30.1264
0
LINE
8
Black
10
87.0504
20
-30.1264
11
87.0504
21
-30.8336
0
LINE
8
Black
10
87.0504
20
-30.8336
11
87.7576
21
-30.8336
0
LINE
8
Black
10
87.7576
20
-33.3736
11
87.7576
21
-32.6664
0
LINE
8
Black
10
87.7576
20
-32.6664
11
87.0504
21
-32.6664
0
LINE
8
Black
10
87.0504
20
-32.6664
11
87.0504
21
-33.3736
0
LINE
8
Black
10
87.0504
20
-33.3736
11
87.7576
21
-33.3736
0
LINE
8
Black
10
29.972
20
-65.405
11
30.48
21
-64.897
0
LINE
8
Black
10
30.48
20
-64.897
11
29.972
21
-64.389
0
LINE
8
Black
10
29.972
20
-64.389
11
29.464
21
-64.897
0
LINE
8
Black
10
29.464
20
-64.897
11
29.972
21
-65.405
0
LINE
8
Black
10
29.972
20
-67.945
11
30.48
21
-67.437
0
LINE
8
Black
10
30.48
20
-67.437
11
29.972
21
-66.929
0
LINE
8
Black
10
29.972
20
-66.929
11
29.464
21
-67.437
0
LINE
8
Black
10
29.464
20
-67.437
11
29.972
21
-67.945
0
LINE
8
Black
10
29.972
20
-70.485
11
30.48
21
-69.977
0
LINE
8
Black
10
30.48
20
-69.977
11
29.972
21
-69.469
0
LINE
8
Black
10
29.972
20
-69.469
11
29.464
21
-69.977
0
LINE
8
Black
10
29.464
20
-69.977
11
29.972
21
-70.485
0
LINE
8
Black
10
29.972
20
-73.025
11
30.48
21
-72.517
0
LINE
8
Black
10
30.48
20
-72.517
11
29.972
21
-72.009
0
LINE
8
Black
10
29.972
20
-72.009
11
29.464
21
-72.517
0
LINE
8
Black
10
29.464
20
-72.517
11
29.972
21
-73.025
0
LINE
8
Black
10
29.972
20
-75.565
11
30.48
21
-75.057
0
LINE
8
Black
10
30.48
20
-75.057
11
29.972
21
-74.549
0
LINE
8
Black
10
29.972
20
-74.549
11
29.464
21
-75.057
0
LINE
8
Black
10
29.464
20
-75.057
11
29.972
21
-75.565
0
LINE
8
Black
10
29.972
20
-87.503
11
30.48
21
-86.995
0
LINE
8
Black
10
30.48
20
-86.995
11
29.972
21
-86.487
0
LINE
8
Black
10
29.972
20
-86.487
11
29.464
21
-86.995
0
LINE
8
Black
10
29.464
20
-86.995
11
29.972
21
-87.503
0
LINE
8
Black
10
29.972
20
-90.043
11
30.48
21
-89.535
0
LINE
8
Black
10
30.48
20
-89.535
11
29.972
21
-89.027
0
LINE
8
Black
10
29.972
20
-89.027
11
29.464
21
-89.535
0
LINE
8
Black
10
29.464
20
-89.535
11
29.972
21
-90.043
0
LINE
8
Black
10
29.972
20
-92.583
11
30.48
21
-92.075
0
LINE
8
Black
10
30.48
20
-92.075
11
29.972
21
-91.567
0
LINE
8
Black
10
29.972
20
-91.567
11
29.464
21
-92.075
0
LINE
8
Black
10
29.464
20
-92.075
11
29.972
21
-92.583
0
LINE
8
Black
10
29.972
20
-95.123
11
30.48
21
-94.615
0
LINE
8
Black
10
30.48
20
-94.615
11
29.972
21
-94.107
0
LINE
8
Black
10
29.972
20
-94.107
11
29.464
21
-94.615
0
LINE
8
Black
10
29.464
20
-94.615
11
29.972
21
-95.123
0
LINE
8
Black
10
29.972
20
-97.663
11
30.48
21
-97.155
0
LINE
8
Black
10
30.48
20
-97.155
11
29.972
21
-96.647
0
LINE
8
Black
10
29.972
20
-96.647
11
29.464
21
-97.155
0
LINE
8
Black
10
29.464
20
-97.155
11
29.972
21
-97.663
0
LINE
8
Black
10
32.512
20
-65.405
11
33.02
21
-64.897
0
LINE
8
Black
10
33.02
20
-64.897
11
32.512
21
-64.389
0
LINE
8
Black
10
32.512
20
-64.389
11
32.004
21
-64.897
0
LINE
8
Black
10
32.004
20
-64.897
11
32.512
21
-65.405
0
LINE
8
Black
10
32.512
20
-67.945
11
33.02
21
-67.437
0
LINE
8
Black
10
33.02
20
-67.437
11
32.512
21
-66.929
0
LINE
8
Black
10
32.512
20
-66.929
11
32.004
21
-67.437
0
LINE
8
Black
10
32.004
20
-67.437
11
32.512
21
-67.945
0
LINE
8
Black
10
32.512
20
-70.485
11
33.02
21
-69.977
0
LINE
8
Black
10
33.02
20
-69.977
11
32.512
21
-69.469
0
LINE
8
Black
10
32.512
20
-69.469
11
32.004
21
-69.977
0
LINE
8
Black
10
32.004
20
-69.977
11
32.512
21
-70.485
0
LINE
8
Black
10
32.512
20
-73.025
11
33.02
21
-72.517
0
LINE
8
Black
10
33.02
20
-72.517
11
32.512
21
-72.009
0
LINE
8
Black
10
32.512
20
-72.009
11
32.004
21
-72.517
0
LINE
8
Black
10
32.004
20
-72.517
11
32.512
21
-73.025
0
LINE
8
Black
10
32.512
20
-75.565
11
33.02
21
-75.057
0
LINE
8
Black
10
33.02
20
-75.057
11
32.512
21
-74.549
0
LINE
8
Black
10
32.512
20
-74.549
11
32.004
21
-75.057
0
LINE
8
Black
10
32.004
20
-75.057
11
32.512
21
-75.565
0
LINE
8
Black
10
32.512
20
-87.503
11
33.02
21
-86.995
0
LINE
8
Black
10
33.02
20
-86.995
11
32.512
21
-86.487
0
LINE
8
Black
10
32.512
20
-86.487
11
32.004
21
-86.995
0
LINE
8
Black
10
32.004
20
-86.995
11
32.512
21
-87.503
0
LINE
8
Black
10
32.512
20
-90.043
11
33.02
21
-89.535
0
LINE
8
Black
10
33.02
20
-89.535
11
32.512
21
-89.027
0
LINE
8
Black
10
32.512
20
-89.027
11
32.004
21
-89.535
0
LINE
8
Black
10
32.004
20
-89.535
11
32.512
21
-90.043
0
LINE
8
Black
10
32.512
20
-92.583
11
33.02
21
-92.075
0
LINE
8
Black
10
33.02
20
-92.075
11
32.512
21
-91.567
0
LINE
8
Black
10
32.512
20
-91.567
11
32.004
21
-92.075
0
LINE
8
Black
10
32.004
20
-92.075
11
32.512
21
-92.583
0
LINE
8
Black
10
32.512
20
-95.123
11
33.02
21
-94.615
0
LINE
8
Black
10
33.02
20
-94.615
11
32.512
21
-94.107
0
LINE
8
Black
10
32.512
20
-94.107
11
32.004
21
-94.615
0
LINE
8
Black
10
32.004
20
-94.615
11
32.512
21
-95.123
0
LINE
8
Black
10
32.512
20
-97.663
11
33.02
21
-97.155
0
LINE
8
Black
10
33.02
20
-97.155
11
32.512
21
-96.647
0
LINE
8
Black
10
32.512
20
-96.647
11
32.004
21
-97.155
0
LINE
8
Black
10
32.004
20
-97.155
11
32.512
21
-97.663
0
LINE
8
Black
10
29.33
20
-115.863
11
31.03
21
-117.563
0
LINE
8
Black
10
31.03
20
-115.863
11
29.33
21
-117.563
0
CIRCLE
8
Black
10
30.18
20
-116.713
40
0.85
0
LINE
8
Black
10
33.29
20
-115.863
11
34.99
21
-117.563
0
LINE
8
Black
10
34.99
20
-115.863
11
33.29
21
-117.563
0
CIRCLE
8
Black
10
34.14
20
-116.713
40
0.85
0
LINE
8
Black
10
37.25
20
-115.863
11
38.95
21
-117.563
0
LINE
8
Black
10
38.95
20
-115.863
11
37.25
21
-117.563
0
CIRCLE
8
Black
10
38.1
20
-116.713
40
0.85
0
LINE
8
Black
10
41.21
20
-115.863
11
42.91
21
-117.563
0
LINE
8
Black
10
42.91
20
-115.863
11
41.21
21
-117.563
0
CIRCLE
8
Black
10
42.06
20
-116.713
40
0.85
0
LINE
8
Black
10
52.34
20
-115.863
11
54.04
21
-117.563
0
LINE
8
Black
10
54.04
20
-115.863
11
52.34
21
-117.563
0
CIRCLE
8
Black
10
53.19
20
-116.713
40
0.85
0
LINE
8
Black
10
56.3
20
-115.863
11
58
21
-117.563
0
LINE
8
Black
10
58
20
-115.863
11
56.3
21
-117.563
0
CIRCLE
8
Black
10
57.15
20
-116.713
40
0.85
0
LINE
8
Black
10
60.26
20
-115.863
11
61.96
21
-117.563
0
LINE
8
Black
10
61.96
20
-115.863
11
60.26
21
-117.563
0
CIRCLE
8
Black
10
61.11
20
-116.713
40
0.85
0
LINE
8
Black
10
64.22
20
-115.863
11
65.92
21
-117.563
0
LINE
8
Black
10
65.92
20
-115.863
11
64.22
21
-117.563
0
CIRCLE
8
Black
10
65.07
20
-116.713
40
0.85
0
LINE
8
Black
10
28.4125
20
-30.1625
11
31.5875
21
-33.3375
0
LINE
8
Black
10
31.5875
20
-30.1625
11
28.4125
21
-33.3375
0
LINE
8
Black
10
30
20
-30.1625
11
30
21
-33.3375
0
LINE
8
Black
10
28.4125
20
-31.75
11
31.5875
21
-31.75
0
LINE
8
Black
10
94.9605
20
-30.1625
11
98.1355
21
-33.3375
0
LINE
8
Black
10
98.1355
20
-30.1625
11
94.9605
21
-33.3375
0
LINE
8
Black
10
96.548
20
-30.1625
11
96.548
21
-33.3375
0
LINE
8
Black
10
94.9605
20
-31.75
11
98.1355
21
-31.75
0
LINE
8
Black
10
27.6393
20
-129.732
11
27.6393
21
-126.732
0
LINE
8
Black
10
27.6393
20
-126.732
11
28.3536
21
-126.732
0
LINE
8
Black
10
28.3536
20
-126.732
11
28.7821
21
-126.875
0
LINE
8
Black
10
28.7821
20
-126.875
11
29.0679
21
-127.161
0
LINE
8
Black
10
29.0679
20
-127.161
11
29.2107
21
-127.446
0
LINE
8
Black
10
29.2107
20
-127.446
11
29.3536
21
-128.018
0
LINE
8
Black
10
29.3536
20
-128.018
11
29.3536
21
-128.446
0
LINE
8
Black
10
29.3536
20
-128.446
11
29.2107
21
-129.018
0
LINE
8
Black
10
29.2107
20
-129.018
11
29.0679
21
-129.304
0
LINE
8
Black
10
29.0679
20
-129.304
11
28.7821
21
-129.589
0
LINE
8
Black
10
28.7821
20
-129.589
11
28.3536
21
-129.732
0
LINE
8
Black
10
28.3536
20
-129.732
11
27.6393
21
-129.732
0
LINE
8
Black
10
30.6393
20
-129.732
11
30.6393
21
-127.732
0
LINE
8
Black
10
30.6393
20
-128.304
11
30.7821
21
-128.018
0
LINE
8
Black
10
30.7821
20
-128.018
11
30.925
21
-127.875
0
LINE
8
Black
10
30.925
20
-127.875
11
31.2107
21
-127.732
0
LINE
8
Black
10
31.2107
20
-127.732
11
31.4964
21
-127.732
0
LINE
8
Black
10
32.4964
20
-129.732
11
32.4964
21
-127.732
0
LINE
8
Black
10
32.4964
20
-126.732
11
32.3536
21
-126.875
0
LINE
8
Black
10
32.3536
20
-126.875
11
32.4964
21
-127.018
0
LINE
8
Black
10
32.4964
20
-127.018
11
32.6393
21
-126.875
0
LINE
8
Black
10
32.6393
20
-126.875
11
32.4964
21
-126.732
0
LINE
8
Black
10
32.4964
20
-126.732
11
32.4964
21
-127.018
0
LINE
8
Black
10
34.3536
20
-129.732
11
34.0679
21
-129.589
0
LINE
8
Black
10
34.0679
20
-129.589
11
33.925
21
-129.304
0
LINE
8
Black
10
33.925
20
-129.304
11
33.925
21
-126.732
0
LINE
8
Black
10
35.925
20
-129.732
11
35.6393
21
-129.589
0
LINE
8
Black
10
35.6393
20
-129.589
11
35.4964
21
-129.304
0
LINE
8
Black
10
35.4964
20
-129.304
11
35.4964
21
-126.732
0
LINE
8
Black
10
39.3536
20
-129.732
11
39.3536
21
-126.732
0
LINE
8
Black
10
39.3536
20
-126.732
11
40.3536
21
-128.875
0
LINE
8
Black
10
40.3536
20
-128.875
11
41.3536
21
-126.732
0
LINE
8
Black
10
41.3536
20
-126.732
11
41.3536
21
-129.732
0
LINE
8
Black
10
44.0679
20
-129.732
11
44.0679
21
-128.161
0
LINE
8
Black
10
44.0679
20
-128.161
11
43.925
21
-127.875
0
LINE
8
Black
10
43.925
20
-127.875
11
43.6393
21
-127.732
0
LINE
8
Black
10
43.6393
20
-127.732
11
43.0679
21
-127.732
0
LINE
8
Black
10
43.0679
20
-127.732
11
42.7821
21
-127.875
0
LINE
8
Black
10
44.0679
20
-129.589
11
43.7821
21
-129.732
0
LINE
8
Black
10
43.7821
20
-129.732
11
43.0679
21
-129.732
0
LINE
8
Black
10
43.0679
20
-129.732
11
42.7821
21
-129.589
0
LINE
8
Black
10
42.7821
20
-129.589
11
42.6393
21
-129.304
0
LINE
8
Black
10
42.6393
20
-129.304
11
42.6393
21
-129.018
0
LINE
8
Black
10
42.6393
20
-129.018
11
42.7821
21
-128.732
0
LINE
8
Black
10
42.7821
20
-128.732
11
43.0679
21
-128.589
0
LINE
8
Black
10
43.0679
20
-128.589
11
43.7821
21
-128.589
0
LINE
8
Black
10
43.7821
20
-128.589
11
44.0679
21
-128.446
0
LINE
8
Black
10
45.4964
20
-127.732
11
45.4964
21
-130.732
0
LINE
8
Black
10
45.4964
20
-127.875
11
45.7821
21
-127.732
0
LINE
8
Black
10
45.7821
20
-127.732
11
46.3536
21
-127.732
0
LINE
8
Black
10
46.3536
20
-127.732
11
46.6393
21
-127.875
0
LINE
8
Black
10
46.6393
20
-127.875
11
46.7821
21
-128.018
0
LINE
8
Black
10
46.7821
20
-128.018
11
46.925
21
-128.304
0
LINE
8
Black
10
46.925
20
-128.304
11
46.925
21
-129.161
0
LINE
8
Black
10
46.925
20
-129.161
11
46.7821
21
-129.446
0
LINE
8
Black
10
46.7821
20
-129.446
11
46.6393
21
-129.589
0
LINE
8
Black
10
46.6393
20
-129.589
11
46.3536
21
-129.732
0
LINE
8
Black
10
46.3536
20
-129.732
11
45.7821
21
-129.732
0
LINE
8
Black
10
45.7821
20
-129.732
11
45.4964
21
-129.589
0
LINE
8
Black
10
48.2107
20
-129.446
11
48.3536
21
-129.589
0
LINE
8
Black
10
48.3536
20
-129.589
11
48.2107
21
-129.732
0
LINE
8
Black
10
48.2107
20
-129.732
11
48.0679
21
-129.589
0
LINE
8
Black
10
48.0679
20
-129.589
11
48.2107
21
-129.446
0
LINE
8
Black
10
48.2107
20
-129.446
11
48.2107
21
-129.732
0
LINE
8
Black
10
48.2107
20
-127.875
11
48.3536
21
-128.018
0
LINE
8
Black
10
48.3536
20
-128.018
11
48.2107
21
-128.161
0
LINE
8
Black
10
48.2107
20
-128.161
11
48.0679
21
-128.018
0
LINE
8
Black
10
48.0679
20
-128.018
11
48.2107
21
-127.875
0
LINE
8
Black
10
48.2107
20
-127.875
11
48.2107
21
-128.161
0
LINE
8
Black
10
24.525
20
-134.475
11
24.925
21
-134.875
0
LINE
8
Black
10
24.925
20
-134.475
11
24.525
21
-134.875
0
LINE
8
Black
10
28.2107
20
-133.032
11
28.4964
21
-133.032
0
LINE
8
Black
10
28.4964
20
-133.032
11
28.7821
21
-133.175
0
LINE
8
Black
10
28.7821
20
-133.175
11
28.925
21
-133.318
0
LINE
8
Black
10
28.925
20
-133.318
11
29.0679
21
-133.604
0
LINE
8
Black
10
29.0679
20
-133.604
11
29.2107
21
-134.175
0
LINE
8
Black
10
29.2107
20
-134.175
11
29.2107
21
-134.889
0
LINE
8
Black
10
29.2107
20
-134.889
11
29.0679
21
-135.461
0
LINE
8
Black
10
29.0679
20
-135.461
11
28.925
21
-135.746
0
LINE
8
Black
10
28.925
20
-135.746
11
28.7821
21
-135.889
0
LINE
8
Black
10
28.7821
20
-135.889
11
28.4964
21
-136.032
0
LINE
8
Black
10
28.4964
20
-136.032
11
28.2107
21
-136.032
0
LINE
8
Black
10
28.2107
20
-136.032
11
27.925
21
-135.889
0
LINE
8
Black
10
27.925
20
-135.889
11
27.7821
21
-135.746
0
LINE
8
Black
10
27.7821
20
-135.746
11
27.6393
21
-135.461
0
LINE
8
Black
10
27.6393
20
-135.461
11
27.4964
21
-134.889
0
LINE
8
Black
10
27.4964
20
-134.889
11
27.4964
21
-134.175
0
LINE
8
Black
10
27.4964
20
-134.175
11
27.6393
21
-133.604
0
LINE
8
Black
10
27.6393
20
-133.604
11
27.7821
21
-133.318
0
LINE
8
Black
10
27.7821
20
-133.318
11
27.925
21
-133.175
0
LINE
8
Black
10
27.925
20
-133.175
11
28.2107
21
-133.032
0
LINE
8
Black
10
30.4964
20
-135.746
11
30.6393
21
-135.889
0
LINE
8
Black
10
30.6393
20
-135.889
11
30.4964
21
-136.032
0
LINE
8
Black
10
30.4964
20
-136.032
11
30.3536
21
-135.889
0
LINE
8
Black
10
30.3536
20
-135.889
11
30.4964
21
-135.746
0
LINE
8
Black
10
30.4964
20
-135.746
11
30.4964
21
-136.032
0
LINE
8
Black
10
33.2107
20
-134.032
11
33.2107
21
-136.032
0
LINE
8
Black
10
32.4964
20
-132.889
11
31.7821
21
-135.032
0
LINE
8
Black
10
31.7821
20
-135.032
11
33.6393
21
-135.032
0
LINE
8
Black
10
35.3536
20
-133.032
11
35.6393
21
-133.032
0
LINE
8
Black
10
35.6393
20
-133.032
11
35.925
21
-133.175
0
LINE
8
Black
10
35.925
20
-133.175
11
36.0679
21
-133.318
0
LINE
8
Black
10
36.0679
20
-133.318
11
36.2107
21
-133.604
0
LINE
8
Black
10
36.2107
20
-133.604
11
36.3536
21
-134.175
0
LINE
8
Black
10
36.3536
20
-134.175
11
36.3536
21
-134.889
0
LINE
8
Black
10
36.3536
20
-134.889
11
36.2107
21
-135.461
0
LINE
8
Black
10
36.2107
20
-135.461
11
36.0679
21
-135.746
0
LINE
8
Black
10
36.0679
20
-135.746
11
35.925
21
-135.889
0
LINE
8
Black
10
35.925
20
-135.889
11
35.6393
21
-136.032
0
LINE
8
Black
10
35.6393
20
-136.032
11
35.3536
21
-136.032
0
LINE
8
Black
10
35.3536
20
-136.032
11
35.0679
21
-135.889
0
LINE
8
Black
10
35.0679
20
-135.889
11
34.925
21
-135.746
0
LINE
8
Black
10
34.925
20
-135.746
11
34.7821
21
-135.461
0
LINE
8
Black
10
34.7821
20
-135.461
11
34.6393
21
-134.889
0
LINE
8
Black
10
34.6393
20
-134.889
11
34.6393
21
-134.175
0
LINE
8
Black
10
34.6393
20
-134.175
11
34.7821
21
-133.604
0
LINE
8
Black
10
34.7821
20
-133.604
11
34.925
21
-133.318
0
LINE
8
Black
10
34.925
20
-133.318
11
35.0679
21
-133.175
0
LINE
8
Black
10
35.0679
20
-133.175
11
35.3536
21
-133.032
0
LINE
8
Black
10
37.6393
20
-136.032
11
37.6393
21
-134.032
0
LINE
8
Black
10
37.6393
20
-134.318
11
37.7821
21
-134.175
0
LINE
8
Black
10
37.7821
20
-134.175
11
38.0679
21
-134.032
0
LINE
8
Black
10
38.0679
20
-134.032
11
38.4964
21
-134.032
0
LINE
8
Black
10
38.4964
20
-134.032
11
38.7821
21
-134.175
0
LINE
8
Black
10
38.7821
20
-134.175
11
38.925
21
-134.461
0
LINE
8
Black
10
38.925
20
-134.461
11
38.925
21
-136.032
0
LINE
8
Black
10
38.925
20
-134.461
11
39.0679
21
-134.175
0
LINE
8
Black
10
39.0679
20
-134.175
11
39.3536
21
-134.032
0
LINE
8
Black
10
39.3536
20
-134.032
11
39.7821
21
-134.032
0
LINE
8
Black
10
39.7821
20
-134.032
11
40.0679
21
-134.175
0
LINE
8
Black
10
40.0679
20
-134.175
11
40.2107
21
-134.461
0
LINE
8
Black
10
40.2107
20
-134.461
11
40.2107
21
-136.032
0
LINE
8
Black
10
41.6393
20
-136.032
11
41.6393
21
-134.032
0
LINE
8
Black
10
41.6393
20
-134.318
11
41.7821
21
-134.175
0
LINE
8
Black
10
41.7821
20
-134.175
11
42.0679
21
-134.032
0
LINE
8
Black
10
42.0679
20
-134.032
11
42.4964
21
-134.032
0
LINE
8
Black
10
42.4964
20
-134.032
11
42.7821
21
-134.175
0
LINE
8
Black
10
42.7821
20
-134.175
11
42.925
21
-134.461
0
LINE
8
Black
10
42.925
20
-134.461
11
42.925
21
-136.032
0
LINE
8
Black
10
42.925
20
-134.461
11
43.0679
21
-134.175
0
LINE
8
Black
10
43.0679
20
-134.175
11
43.3536
21
-134.032
0
LINE
8
Black
10
43.3536
20
-134.032
11
43.7821
21
-134.032
0
LINE
8
Black
10
43.7821
20
-134.032
11
44.0679
21
-134.175
0
LINE
8
Black
10
44.0679
20
-134.175
11
44.2107
21
-134.461
0
LINE
8
Black
10
44.2107
20
-134.461
11
44.2107
21
-136.032
0
LINE
8
Black
10
50.0679
20
-132.889
11
47.4964
21
-136.746
0
LINE
8
Black
10
53.925
20
-133.032
11
54.2107
21
-133.032
0
LINE
8
Black
10
54.2107
20
-133.032
11
54.4964
21
-133.175
0
LINE
8
Black
10
54.4964
20
-133.175
11
54.6393
21
-133.318
0
LINE
8
Black
10
54.6393
20
-133.318
11
54.7821
21
-133.604
0
LINE
8
Black
10
54.7821
20
-133.604
11
54.925
21
-134.175
0
LINE
8
Black
10
54.925
20
-134.175
11
54.925
21
-134.889
0
LINE
8
Black
10
54.925
20
-134.889
11
54.7821
21
-135.461
0
LINE
8
Black
10
54.7821
20
-135.461
11
54.6393
21
-135.746
0
LINE
8
Black
10
54.6393
20
-135.746
11
54.4964
21
-135.889
0
LINE
8
Black
10
54.4964
20
-135.889
11
54.2107
21
-136.032
0
LINE
8
Black
10
54.2107
20
-136.032
11
53.925
21
-136.032
0
LINE
8
Black
10
53.925
20
-136.032
11
53.6393
21
-135.889
0
LINE
8
Black
10
53.6393
20
-135.889
11
53.4964
21
-135.746
0
LINE
8
Black
10
53.4964
20
-135.746
11
53.3536
21
-135.461
0
LINE
8
Black
10
53.3536
20
-135.461
11
53.2107
21
-134.889
0
LINE
8
Black
10
53.2107
20
-134.889
11
53.2107
21
-134.175
0
LINE
8
Black
10
53.2107
20
-134.175
11
53.3536
21
-133.604
0
LINE
8
Black
10
53.3536
20
-133.604
11
53.4964
21
-133.318
0
LINE
8
Black
10
53.4964
20
-133.318
11
53.6393
21
-133.175
0
LINE
8
Black
10
53.6393
20
-133.175
11
53.925
21
-133.032
0
LINE
8
Black
10
56.2107
20
-135.746
11
56.3536
21
-135.889
0
LINE
8
Black
10
56.3536
20
-135.889
11
56.2107
21
-136.032
0
LINE
8
Black
10
56.2107
20
-136.032
11
56.0679
21
-135.889
0
LINE
8
Black
10
56.0679
20
-135.889
11
56.2107
21
-135.746
0
LINE
8
Black
10
56.2107
20
-135.746
11
56.2107
21
-136.032
0
LINE
8
Black
10
58.2107
20
-133.032
11
58.4964
21
-133.032
0
LINE
8
Black
10
58.4964
20
-133.032
11
58.7821
21
-133.175
0
LINE
8
Black
10
58.7821
20
-133.175
11
58.925
21
-133.318
0
LINE
8
Black
10
58.925
20
-133.318
11
59.0679
21
-133.604
0
LINE
8
Black
10
59.0679
20
-133.604
11
59.2107
21
-134.175
0
LINE
8
Black
10
59.2107
20
-134.175
11
59.2107
21
-134.889
0
LINE
8
Black
10
59.2107
20
-134.889
11
59.0679
21
-135.461
0
LINE
8
Black
10
59.0679
20
-135.461
11
58.925
21
-135.746
0
LINE
8
Black
10
58.925
20
-135.746
11
58.7821
21
-135.889
0
LINE
8
Black
10
58.7821
20
-135.889
11
58.4964
21
-136.032
0
LINE
8
Black
10
58.4964
20
-136.032
11
58.2107
21
-136.032
0
LINE
8
Black
10
58.2107
20
-136.032
11
57.925
21
-135.889
0
LINE
8
Black
10
57.925
20
-135.889
11
57.7821
21
-135.746
0
LINE
8
Black
10
57.7821
20
-135.746
11
57.6393
21
-135.461
0
LINE
8
Black
10
57.6393
20
-135.461
11
57.4964
21
-134.889
0
LINE
8
Black
10
57.4964
20
-134.889
11
57.4964
21
-134.175
0
LINE
8
Black
10
57.4964
20
-134.175
11
57.6393
21
-133.604
0
LINE
8
Black
10
57.6393
20
-133.604
11
57.7821
21
-133.318
0
LINE
8
Black
10
57.7821
20
-133.318
11
57.925
21
-133.175
0
LINE
8
Black
10
57.925
20
-133.175
11
58.2107
21
-133.032
0
LINE
8
Black
10
62.0679
20
-136.032
11
60.3536
21
-136.032
0
LINE
8
Black
10
61.2107
20
-136.032
11
61.2107
21
-133.032
0
LINE
8
Black
10
61.2107
20
-133.032
11
60.925
21
-133.461
0
LINE
8
Black
10
60.925
20
-133.461
11
60.6393
21
-133.746
0
LINE
8
Black
10
60.6393
20
-133.746
11
60.3536
21
-133.889
0
LINE
8
Black
10
64.6393
20
-133.032
11
64.0679
21
-133.032
0
LINE
8
Black
10
64.0679
20
-133.032
11
63.7821
21
-133.175
0
LINE
8
Black
10
63.7821
20
-133.175
11
63.6393
21
-133.318
0
LINE
8
Black
10
63.6393
20
-133.318
11
63.3536
21
-133.746
0
LINE
8
Black
10
63.3536
20
-133.746
11
63.2107
21
-134.318
0
LINE
8
Black
10
63.2107
20
-134.318
11
63.2107
21
-135.461
0
LINE
8
Black
10
63.2107
20
-135.461
11
63.3536
21
-135.746
0
LINE
8
Black
10
63.3536
20
-135.746
11
63.4964
21
-135.889
0
LINE
8
Black
10
63.4964
20
-135.889
11
63.7821
21
-136.032
0
LINE
8
Black
10
63.7821
20
-136.032
11
64.3536
21
-136.032
0
LINE
8
Black
10
64.3536
20
-136.032
11
64.6393
21
-135.889
0
LINE
8
Black
10
64.6393
20
-135.889
11
64.7821
21
-135.746
0
LINE
8
Black
10
64.7821
20
-135.746
11
64.925
21
-135.461
0
LINE
8
Black
10
64.925
20
-135.461
11
64.925
21
-134.746
0
LINE
8
Black
10
64.925
20
-134.746
11
64.7821
21
-134.461
0
LINE
8
Black
10
64.7821
20
-134.461
11
64.6393
21
-134.318
0
LINE
8
Black
10
64.6393
20
-134.318
11
64.3536
21
-134.175
0
LINE
8
Black
10
64.3536
20
-134.175
11
63.7821
21
-134.175
0
LINE
8
Black
10
63.7821
20
-134.175
11
63.4964
21
-134.318
0
LINE
8
Black
10
63.4964
20
-134.318
11
63.3536
21
-134.461
0
LINE
8
Black
10
63.3536
20
-134.461
11
63.2107
21
-134.746
0
LINE
8
Black
10
66.0679
20
-133.032
11
66.0679
21
-133.604
0
LINE
8
Black
10
67.2107
20
-133.032
11
67.2107
21
-133.604
0
LINE
8
Black
10
71.6393
20
-137.175
11
71.4964
21
-137.032
0
LINE
8
Black
10
71.4964
20
-137.032
11
71.2107
21
-136.604
0
LINE
8
Black
10
71.2107
20
-136.604
11
71.0679
21
-136.318
0
LINE
8
Black
10
71.0679
20
-136.318
11
70.925
21
-135.889
0
LINE
8
Black
10
70.925
20
-135.889
11
70.7821
21
-135.175
0
LINE
8
Black
10
70.7821
20
-135.175
11
70.7821
21
-134.604
0
LINE
8
Black
10
70.7821
20
-134.604
11
70.925
21
-133.889
0
LINE
8
Black
10
70.925
20
-133.889
11
71.0679
21
-133.461
0
LINE
8
Black
10
71.0679
20
-133.461
11
71.2107
21
-133.175
0
LINE
8
Black
10
71.2107
20
-133.175
11
71.4964
21
-132.746
0
LINE
8
Black
10
71.4964
20
-132.746
11
71.6393
21
-132.604
0
LINE
8
Black
10
74.3536
20
-136.032
11
72.6393
21
-136.032
0
LINE
8
Black
10
73.4964
20
-136.032
11
73.4964
21
-133.032
0
LINE
8
Black
10
73.4964
20
-133.032
11
73.2107
21
-133.461
0
LINE
8
Black
10
73.2107
20
-133.461
11
72.925
21
-133.746
0
LINE
8
Black
10
72.925
20
-133.746
11
72.6393
21
-133.889
0
LINE
8
Black
10
75.4964
20
-133.318
11
75.6393
21
-133.175
0
LINE
8
Black
10
75.6393
20
-133.175
11
75.925
21
-133.032
0
LINE
8
Black
10
75.925
20
-133.032
11
76.6393
21
-133.032
0
LINE
8
Black
10
76.6393
20
-133.032
11
76.925
21
-133.175
0
LINE
8
Black
10
76.925
20
-133.175
11
77.0679
21
-133.318
0
LINE
8
Black
10
77.0679
20
-133.318
11
77.2107
21
-133.604
0
LINE
8
Black
10
77.2107
20
-133.604
11
77.2107
21
-133.889
0
LINE
8
Black
10
77.2107
20
-133.889
11
77.0679
21
-134.318
0
LINE
8
Black
10
77.0679
20
-134.318
11
75.3536
21
-136.032
0
LINE
8
Black
10
75.3536
20
-136.032
11
77.2107
21
-136.032
0
LINE
8
Black
10
80.0679
20
-136.032
11
78.3536
21
-136.032
0
LINE
8
Black
10
79.2107
20
-136.032
11
79.2107
21
-133.032
0
LINE
8
Black
10
79.2107
20
-133.032
11
78.925
21
-133.461
0
LINE
8
Black
10
78.925
20
-133.461
11
78.6393
21
-133.746
0
LINE
8
Black
10
78.6393
20
-133.746
11
78.3536
21
-133.889
0
LINE
8
Black
10
83.6393
20
-136.032
11
83.6393
21
-133.032
0
LINE
8
Black
10
84.925
20
-136.032
11
84.925
21
-134.461
0
LINE
8
Black
10
84.925
20
-134.461
11
84.7821
21
-134.175
0
LINE
8
Black
10
84.7821
20
-134.175
11
84.4964
21
-134.032
0
LINE
8
Black
10
84.4964
20
-134.032
11
84.0679
21
-134.032
0
LINE
8
Black
10
84.0679
20
-134.032
11
83.7821
21
-134.175
0
LINE
8
Black
10
83.7821
20
-134.175
11
83.6393
21
-134.318
0
LINE
8
Black
10
86.7821
20
-136.032
11
86.4964
21
-135.889
0
LINE
8
Black
10
86.4964
20
-135.889
11
86.3536
21
-135.746
0
LINE
8
Black
10
86.3536
20
-135.746
11
86.2107
21
-135.461
0
LINE
8
Black
10
86.2107
20
-135.461
11
86.2107
21
-134.604
0
LINE
8
Black
10
86.2107
20
-134.604
11
86.3536
21
-134.318
0
LINE
8
Black
10
86.3536
20
-134.318
11
86.4964
21
-134.175
0
LINE
8
Black
10
86.4964
20
-134.175
11
86.7821
21
-134.032
0
LINE
8
Black
10
86.7821
20
-134.032
11
87.2107
21
-134.032
0
LINE
8
Black
10
87.2107
20
-134.032
11
87.4964
21
-134.175
0
LINE
8
Black
10
87.4964
20
-134.175
11
87.6393
21
-134.318
0
LINE
8
Black
10
87.6393
20
-134.318
11
87.7821
21
-134.604
0
LINE
8
Black
10
87.7821
20
-134.604
11
87.7821
21
-135.461
0
LINE
8
Black
10
87.7821
20
-135.461
11
87.6393
21
-135.746
0
LINE
8
Black
10
87.6393
20
-135.746
11
87.4964
21
-135.889
0
LINE
8
Black
10
87.4964
20
-135.889
11
87.2107
21
-136.032
0
LINE
8
Black
10
87.2107
20
-136.032
11
86.7821
21
-136.032
0
LINE
8
Black
10
89.4964
20
-136.032
11
89.2107
21
-135.889
0
LINE
8
Black
10
89.2107
20
-135.889
11
89.0679
21
-135.604
0
LINE
8
Black
10
89.0679
20
-135.604
11
89.0679
21
-133.032
0
LINE
8
Black
10
91.7821
20
-135.889
11
91.4964
21
-136.032
0
LINE
8
Black
10
91.4964
20
-136.032
11
90.925
21
-136.032
0
LINE
8
Black
10
90.925
20
-136.032
11
90.6393
21
-135.889
0
LINE
8
Black
10
90.6393
20
-135.889
11
90.4964
21
-135.604
0
LINE
8
Black
10
90.4964
20
-135.604
11
90.4964
21
-134.461
0
LINE
8
Black
10
90.4964
20
-134.461
11
90.6393
21
-134.175
0
LINE
8
Black
10
90.6393
20
-134.175
11
90.925
21
-134.032
0
LINE
8
Black
10
90.925
20
-134.032
11
91.4964
21
-134.032
0
LINE
8
Black
10
91.4964
20
-134.032
11
91.7821
21
-134.175
0
LINE
8
Black
10
91.7821
20
-134.175
11
91.925
21
-134.461
0
LINE
8
Black
10
91.925
20
-134.461
11
91.925
21
-134.746
0
LINE
8
Black
10
91.925
20
-134.746
11
90.4964
21
-135.032
0
LINE
8
Black
10
93.0679
20
-135.889
11
93.3536
21
-136.032
0
LINE
8
Black
10
93.3536
20
-136.032
11
93.925
21
-136.032
0
LINE
8
Black
10
93.925
20
-136.032
11
94.2107
21
-135.889
0
LINE
8
Black
10
94.2107
20
-135.889
11
94.3536
21
-135.604
0
LINE
8
Black
10
94.3536
20
-135.604
11
94.3536
21
-135.461
0
LINE
8
Black
10
94.3536
20
-135.461
11
94.2107
21
-135.175
0
LINE
8
Black
10
94.2107
20
-135.175
11
93.925
21
-135.032
0
LINE
8
Black
10
93.925
20
-135.032
11
93.4964
21
-135.032
0
LINE
8
Black
10
93.4964
20
-135.032
11
93.2107
21
-134.889
0
LINE
8
Black
10
93.2107
20
-134.889
11
93.0679
21
-134.604
0
LINE
8
Black
10
93.0679
20
-134.604
11
93.0679
21
-134.461
0
LINE
8
Black
10
93.0679
20
-134.461
11
93.2107
21
-134.175
0
LINE
8
Black
10
93.2107
20
-134.175
11
93.4964
21
-134.032
0
LINE
8
Black
10
93.4964
20
-134.032
11
93.925
21
-134.032
0
LINE
8
Black
10
93.925
20
-134.032
11
94.2107
21
-134.175
0
LINE
8
Black
10
95.3536
20
-137.175
11
95.4964
21
-137.032
0
LINE
8
Black
10
95.4964
20
-137.032
11
95.7821
21
-136.604
0
LINE
8
Black
10
95.7821
20
-136.604
11
95.925
21
-136.318
0
LINE
8
Black
10
95.925
20
-136.318
11
96.0679
21
-135.889
0
LINE
8
Black
10
96.0679
20
-135.889
11
96.2107
21
-135.175
0
LINE
8
Black
10
96.2107
20
-135.175
11
96.2107
21
-134.604
0
LINE
8
Black
10
96.2107
20
-134.604
11
96.0679
21
-133.889
0
LINE
8
Black
10
96.0679
20
-133.889
11
95.925
21
-133.461
0
LINE
8
Black
10
95.925
20
-133.461
11
95.7821
21
-133.175
0
LINE
8
Black
10
95.7821
20
-133.175
11
95.4964
21
-132.746
0
LINE
8
Black
10
95.4964
20
-132.746
11
95.3536
21
-132.604
0
CIRCLE
8
Black
10
24.675
20
-138.635
40
0.25
0
LINE
8
Black
10
28.2107
20
-136.992
11
28.4964
21
-136.992
0
LINE
8
Black
10
28.4964
20
-136.992
11
28.7821
21
-137.135
0
LINE
8
Black
10
28.7821
20
-137.135
11
28.925
21
-137.278
0
LINE
8
Black
10
28.925
20
-137.278
11
29.0679
21
-137.564
0
LINE
8
Black
10
29.0679
20
-137.564
11
29.2107
21
-138.135
0
LINE
8
Black
10
29.2107
20
-138.135
11
29.2107
21
-138.849
0
LINE
8
Black
10
29.2107
20
-138.849
11
29.0679
21
-139.421
0
LINE
8
Black
10
29.0679
20
-139.421
11
28.925
21
-139.706
0
LINE
8
Black
10
28.925
20
-139.706
11
28.7821
21
-139.849
0
LINE
8
Black
10
28.7821
20
-139.849
11
28.4964
21
-139.992
0
LINE
8
Black
10
28.4964
20
-139.992
11
28.2107
21
-139.992
0
LINE
8
Black
10
28.2107
20
-139.992
11
27.925
21
-139.849
0
LINE
8
Black
10
27.925
20
-139.849
11
27.7821
21
-139.706
0
LINE
8
Black
10
27.7821
20
-139.706
11
27.6393
21
-139.421
0
LINE
8
Black
10
27.6393
20
-139.421
11
27.4964
21
-138.849
0
LINE
8
Black
10
27.4964
20
-138.849
11
27.4964
21
-138.135
0
LINE
8
Black
10
27.4964
20
-138.135
11
27.6393
21
-137.564
0
LINE
8
Black
10
27.6393
20
-137.564
11
27.7821
21
-137.278
0
LINE
8
Black
10
27.7821
20
-137.278
11
27.925
21
-137.135
0
LINE
8
Black
10
27.925
20
-137.135
11
28.2107
21
-136.992
0
LINE
8
Black
10
30.4964
20
-139.706
11
30.6393
21
-139.849
0
LINE
8
Black
10
30.6393
20
-139.849
11
30.4964
21
-139.992
0
LINE
8
Black
10
30.4964
20
-139.992
11
30.3536
21
-139.849
0
LINE
8
Black
10
30.3536
20
-139.849
11
30.4964
21
-139.706
0
LINE
8
Black
10
30.4964
20
-139.706
11
30.4964
21
-139.992
0
LINE
8
Black
10
33.3536
20
-136.992
11
31.925
21
-136.992
0
LINE
8
Black
10
31.925
20
-136.992
11
31.7821
21
-138.421
0
LINE
8
Black
10
31.7821
20
-138.421
11
31.925
21
-138.278
0
LINE
8
Black
10
31.925
20
-138.278
11
32.2107
21
-138.135
0
LINE
8
Black
10
32.2107
20
-138.135
11
32.925
21
-138.135
0
LINE
8
Black
10
32.925
20
-138.135
11
33.2107
21
-138.278
0
LINE
8
Black
10
33.2107
20
-138.278
11
33.3536
21
-138.421
0
LINE
8
Black
10
33.3536
20
-138.421
11
33.4964
21
-138.706
0
LINE
8
Black
10
33.4964
20
-138.706
11
33.4964
21
-139.421
0
LINE
8
Black
10
33.4964
20
-139.421
11
33.3536
21
-139.706
0
LINE
8
Black
10
33.3536
20
-139.706
11
33.2107
21
-139.849
0
LINE
8
Black
10
33.2107
20
-139.849
11
32.925
21
-139.992
0
LINE
8
Black
10
32.925
20
-139.992
11
32.2107
21
-139.992
0
LINE
8
Black
10
32.2107
20
-139.992
11
31.925
21
-139.849
0
LINE
8
Black
10
31.925
20
-139.849
11
31.7821
21
-139.706
0
LINE
8
Black
10
35.3536
20
-136.992
11
35.6393
21
-136.992
0
LINE
8
Black
10
35.6393
20
-136.992
11
35.925
21
-137.135
0
LINE
8
Black
10
35.925
20
-137.135
11
36.0679
21
-137.278
0
LINE
8
Black
10
36.0679
20
-137.278
11
36.2107
21
-137.564
0
LINE
8
Black
10
36.2107
20
-137.564
11
36.3536
21
-138.135
0
LINE
8
Black
10
36.3536
20
-138.135
11
36.3536
21
-138.849
0
LINE
8
Black
10
36.3536
20
-138.849
11
36.2107
21
-139.421
0
LINE
8
Black
10
36.2107
20
-139.421
11
36.0679
21
-139.706
0
LINE
8
Black
10
36.0679
20
-139.706
11
35.925
21
-139.849
0
LINE
8
Black
10
35.925
20
-139.849
11
35.6393
21
-139.992
0
LINE
8
Black
10
35.6393
20
-139.992
11
35.3536
21
-139.992
0
LINE
8
Black
10
35.3536
20
-139.992
11
35.0679
21
-139.849
0
LINE
8
Black
10
35.0679
20
-139.849
11
34.925
21
-139.706
0
LINE
8
Black
10
34.925
20
-139.706
11
34.7821
21
-139.421
0
LINE
8
Black
10
34.7821
20
-139.421
11
34.6393
21
-138.849
0
LINE
8
Black
10
34.6393
20
-138.849
11
34.6393
21
-138.135
0
LINE
8
Black
10
34.6393
20
-138.135
11
34.7821
21
-137.564
0
LINE
8
Black
10
34.7821
20
-137.564
11
34.925
21
-137.278
0
LINE
8
Black
10
34.925
20
-137.278
11
35.0679
21
-137.135
0
LINE
8
Black
10
35.0679
20
-137.135
11
35.3536
21
-136.992
0
LINE
8
Black
10
37.6393
20
-139.992
11
37.6393
21
-137.992
0
LINE
8
Black
10
37.6393
20
-138.278
11
37.7821
21
-138.135
0
LINE
8
Black
10
37.7821
20
-138.135
11
38.0679
21
-137.992
0
LINE
8
Black
10
38.0679
20
-137.992
11
38.4964
21
-137.992
0
LINE
8
Black
10
38.4964
20
-137.992
11
38.7821
21
-138.135
0
LINE
8
Black
10
38.7821
20
-138.135
11
38.925
21
-138.421
0
LINE
8
Black
10
38.925
20
-138.421
11
38.925
21
-139.992
0
LINE
8
Black
10
38.925
20
-138.421
11
39.0679
21
-138.135
0
LINE
8
Black
10
39.0679
20
-138.135
11
39.3536
21
-137.992
0
LINE
8
Black
10
39.3536
20
-137.992
11
39.7821
21
-137.992
0
LINE
8
Black
10
39.7821
20
-137.992
11
40.0679
21
-138.135
0
LINE
8
Black
10
40.0679
20
-138.135
11
40.2107
21
-138.421
0
LINE
8
Black
10
40.2107
20
-138.421
11
40.2107
21
-139.992
0
LINE
8
Black
10
41.6393
20
-139.992
11
41.6393
21
-137.992
0
LINE
8
Black
10
41.6393
20
-138.278
11
41.7821
21
-138.135
0
LINE
8
Black
10
41.7821
20
-138.135
11
42.0679
21
-137.992
0
LINE
8
Black
10
42.0679
20
-137.992
11
42.4964
21
-137.992
0
LINE
8
Black
10
42.4964
20
-137.992
11
42.7821
21
-138.135
0
LINE
8
Black
10
42.7821
20
-138.135
11
42.925
21
-138.421
0
LINE
8
Black
10
42.925
20
-138.421
11
42.925
21
-139.992
0
LINE
8
Black
10
42.925
20
-138.421
11
43.0679
21
-138.135
0
LINE
8
Black
10
43.0679
20
-138.135
11
43.3536
21
-137.992
0
LINE
8
Black
10
43.3536
20
-137.992
11
43.7821
21
-137.992
0
LINE
8
Black
10
43.7821
20
-137.992
11
44.0679
21
-138.135
0
LINE
8
Black
10
44.0679
20
-138.135
11
44.2107
21
-138.421
0
LINE
8
Black
10
44.2107
20
-138.421
11
44.2107
21
-139.992
0
LINE
8
Black
10
50.0679
20
-136.849
11
47.4964
21
-140.706
0
LINE
8
Black
10
53.925
20
-136.992
11
54.2107
21
-136.992
0
LINE
8
Black
10
54.2107
20
-136.992
11
54.4964
21
-137.135
0
LINE
8
Black
10
54.4964
20
-137.135
11
54.6393
21
-137.278
0
LINE
8
Black
10
54.6393
20
-137.278
11
54.7821
21
-137.564
0
LINE
8
Black
10
54.7821
20
-137.564
11
54.925
21
-138.135
0
LINE
8
Black
10
54.925
20
-138.135
11
54.925
21
-138.849
0
LINE
8
Black
10
54.925
20
-138.849
11
54.7821
21
-139.421
0
LINE
8
Black
10
54.7821
20
-139.421
11
54.6393
21
-139.706
0
LINE
8
Black
10
54.6393
20
-139.706
11
54.4964
21
-139.849
0
LINE
8
Black
10
54.4964
20
-139.849
11
54.2107
21
-139.992
0
LINE
8
Black
10
54.2107
20
-139.992
11
53.925
21
-139.992
0
LINE
8
Black
10
53.925
20
-139.992
11
53.6393
21
-139.849
0
LINE
8
Black
10
53.6393
20
-139.849
11
53.4964
21
-139.706
0
LINE
8
Black
10
53.4964
20
-139.706
11
53.3536
21
-139.421
0
LINE
8
Black
10
53.3536
20
-139.421
11
53.2107
21
-138.849
0
LINE
8
Black
10
53.2107
20
-138.849
11
53.2107
21
-138.135
0
LINE
8
Black
10
53.2107
20
-138.135
11
53.3536
21
-137.564
0
LINE
8
Black
10
53.3536
20
-137.564
11
53.4964
21
-137.278
0
LINE
8
Black
10
53.4964
20
-137.278
11
53.6393
21
-137.135
0
LINE
8
Black
10
53.6393
20
-137.135
11
53.925
21
-136.992
0
LINE
8
Black
10
56.2107
20
-139.706
11
56.3536
21
-139.849
0
LINE
8
Black
10
56.3536
20
-139.849
11
56.2107
21
-139.992
0
LINE
8
Black
10
56.2107
20
-139.992
11
56.0679
21
-139.849
0
LINE
8
Black
10
56.0679
20
-139.849
11
56.2107
21
-139.706
0
LINE
8
Black
10
56.2107
20
-139.706
11
56.2107
21
-139.992
0
LINE
8
Black
10
58.2107
20
-136.992
11
58.4964
21
-136.992
0
LINE
8
Black
10
58.4964
20
-136.992
11
58.7821
21
-137.135
0
LINE
8
Black
10
58.7821
20
-137.135
11
58.925
21
-137.278
0
LINE
8
Black
10
58.925
20
-137.278
11
59.0679
21
-137.564
0
LINE
8
Black
10
59.0679
20
-137.564
11
59.2107
21
-138.135
0
LINE
8
Black
10
59.2107
20
-138.135
11
59.2107
21
-138.849
0
LINE
8
Black
10
59.2107
20
-138.849
11
59.0679
21
-139.421
0
LINE
8
Black
10
59.0679
20
-139.421
11
58.925
21
-139.706
0
LINE
8
Black
10
58.925
20
-139.706
11
58.7821
21
-139.849
0
LINE
8
Black
10
58.7821
20
-139.849
11
58.4964
21
-139.992
0
LINE
8
Black
10
58.4964
20
-139.992
11
58.2107
21
-139.992
0
LINE
8
Black
10
58.2107
20
-139.992
11
57.925
21
-139.849
0
LINE
8
Black
10
57.925
20
-139.849
11
57.7821
21
-139.706
0
LINE
8
Black
10
57.7821
20
-139.706
11
57.6393
21
-139.421
0
LINE
8
Black
10
57.6393
20
-139.421
11
57.4964
21
-138.849
0
LINE
8
Black
10
57.4964
20
-138.849
11
57.4964
21
-138.135
0
LINE
8
Black
10
57.4964
20
-138.135
11
57.6393
21
-137.564
0
LINE
8
Black
10
57.6393
20
-137.564
11
57.7821
21
-137.278
0
LINE
8
Black
10
57.7821
20
-137.278
11
57.925
21
-137.135
0
LINE
8
Black
10
57.925
20
-137.135
11
58.2107
21
-136.992
0
LINE
8
Black
10
60.3536
20
-137.278
11
60.4964
21
-137.135
0
LINE
8
Black
10
60.4964
20
-137.135
11
60.7821
21
-136.992
0
LINE
8
Black
10
60.7821
20
-136.992
11
61.4964
21
-136.992
0
LINE
8
Black
10
61.4964
20
-136.992
11
61.7821
21
-137.135
0
LINE
8
Black
10
61.7821
20
-137.135
11
61.925
21
-137.278
0
LINE
8
Black
10
61.925
20
-137.278
11
62.0679
21
-137.564
0
LINE
8
Black
10
62.0679
20
-137.564
11
62.0679
21
-137.849
0
LINE
8
Black
10
62.0679
20
-137.849
11
61.925
21
-138.278
0
LINE
8
Black
10
61.925
20
-138.278
11
60.2107
21
-139.992
0
LINE
8
Black
10
60.2107
20
-139.992
11
62.0679
21
-139.992
0
LINE
8
Black
10
63.925
20
-136.992
11
64.2107
21
-136.992
0
LINE
8
Black
10
64.2107
20
-136.992
11
64.4964
21
-137.135
0
LINE
8
Black
10
64.4964
20
-137.135
11
64.6393
21
-137.278
0
LINE
8
Black
10
64.6393
20
-137.278
11
64.7821
21
-137.564
0
LINE
8
Black
10
64.7821
20
-137.564
11
64.925
21
-138.135
0
LINE
8
Black
10
64.925
20
-138.135
11
64.925
21
-138.849
0
LINE
8
Black
10
64.925
20
-138.849
11
64.7821
21
-139.421
0
LINE
8
Black
10
64.7821
20
-139.421
11
64.6393
21
-139.706
0
LINE
8
Black
10
64.6393
20
-139.706
11
64.4964
21
-139.849
0
LINE
8
Black
10
64.4964
20
-139.849
11
64.2107
21
-139.992
0
LINE
8
Black
10
64.2107
20
-139.992
11
63.925
21
-139.992
0
LINE
8
Black
10
63.925
20
-139.992
11
63.6393
21
-139.849
0
LINE
8
Black
10
63.6393
20
-139.849
11
63.4964
21
-139.706
0
LINE
8
Black
10
63.4964
20
-139.706
11
63.3536
21
-139.421
0
LINE
8
Black
10
63.3536
20
-139.421
11
63.2107
21
-138.849
0
LINE
8
Black
10
63.2107
20
-138.849
11
63.2107
21
-138.135
0
LINE
8
Black
10
63.2107
20
-138.135
11
63.3536
21
-137.564
0
LINE
8
Black
10
63.3536
20
-137.564
11
63.4964
21
-137.278
0
LINE
8
Black
10
63.4964
20
-137.278
11
63.6393
21
-137.135
0
LINE
8
Black
10
63.6393
20
-137.135
11
63.925
21
-136.992
0
LINE
8
Black
10
66.0679
20
-136.992
11
66.0679
21
-137.564
0
LINE
8
Black
10
67.2107
20
-136.992
11
67.2107
21
-137.564
0
LINE
8
Black
10
71.6393
20
-141.135
11
71.4964
21
-140.992
0
LINE
8
Black
10
71.4964
20
-140.992
11
71.2107
21
-140.564
0
LINE
8
Black
10
71.2107
20
-140.564
11
71.0679
21
-140.278
0
LINE
8
Black
10
71.0679
20
-140.278
11
70.925
21
-139.849
0
LINE
8
Black
10
70.925
20
-139.849
11
70.7821
21
-139.135
0
LINE
8
Black
10
70.7821
20
-139.135
11
70.7821
21
-138.564
0
LINE
8
Black
10
70.7821
20
-138.564
11
70.925
21
-137.849
0
LINE
8
Black
10
70.925
20
-137.849
11
71.0679
21
-137.421
0
LINE
8
Black
10
71.0679
20
-137.421
11
71.2107
21
-137.135
0
LINE
8
Black
10
71.2107
20
-137.135
11
71.4964
21
-136.706
0
LINE
8
Black
10
71.4964
20
-136.706
11
71.6393
21
-136.564
0
LINE
8
Black
10
74.3536
20
-139.992
11
72.6393
21
-139.992
0
LINE
8
Black
10
73.4964
20
-139.992
11
73.4964
21
-136.992
0
LINE
8
Black
10
73.4964
20
-136.992
11
73.2107
21
-137.421
0
LINE
8
Black
10
73.2107
20
-137.421
11
72.925
21
-137.706
0
LINE
8
Black
10
72.925
20
-137.706
11
72.6393
21
-137.849
0
LINE
8
Black
10
75.3536
20
-136.992
11
77.2107
21
-136.992
0
LINE
8
Black
10
77.2107
20
-136.992
11
76.2107
21
-138.135
0
LINE
8
Black
10
76.2107
20
-138.135
11
76.6393
21
-138.135
0
LINE
8
Black
10
76.6393
20
-138.135
11
76.925
21
-138.278
0
LINE
8
Black
10
76.925
20
-138.278
11
77.0679
21
-138.421
0
LINE
8
Black
10
77.0679
20
-138.421
11
77.2107
21
-138.706
0
LINE
8
Black
10
77.2107
20
-138.706
11
77.2107
21
-139.421
0
LINE
8
Black
10
77.2107
20
-139.421
11
77.0679
21
-139.706
0
LINE
8
Black
10
77.0679
20
-139.706
11
76.925
21
-139.849
0
LINE
8
Black
10
76.925
20
-139.849
11
76.6393
21
-139.992
0
LINE
8
Black
10
76.6393
20
-139.992
11
75.7821
21
-139.992
0
LINE
8
Black
10
75.7821
20
-139.992
11
75.4964
21
-139.849
0
LINE
8
Black
10
75.4964
20
-139.849
11
75.3536
21
-139.706
0
LINE
8
Black
10
78.2107
20
-136.992
11
80.0679
21
-136.992
0
LINE
8
Black
10
80.0679
20
-136.992
11
79.0679
21
-138.135
0
LINE
8
Black
10
79.0679
20
-138.135
11
79.4964
21
-138.135
0
LINE
8
Black
10
79.4964
20
-138.135
11
79.7821
21
-138.278
0
LINE
8
Black
10
79.7821
20
-138.278
11
79.925
21
-138.421
0
LINE
8
Black
10
79.925
20
-138.421
11
80.0679
21
-138.706
0
LINE
8
Black
10
80.0679
20
-138.706
11
80.0679
21
-139.421
0
LINE
8
Black
10
80.0679
20
-139.421
11
79.925
21
-139.706
0
LINE
8
Black
10
79.925
20
-139.706
11
79.7821
21
-139.849
0
LINE
8
Black
10
79.7821
20
-139.849
11
79.4964
21
-139.992
0
LINE
8
Black
10
79.4964
20
-139.992
11
78.6393
21
-139.992
0
LINE
8
Black
10
78.6393
20
-139.992
11
78.3536
21
-139.849
0
LINE
8
Black
10
78.3536
20
-139.849
11
78.2107
21
-139.706
0
LINE
8
Black
10
83.6393
20
-139.992
11
83.6393
21
-136.992
0
LINE
8
Black
10
84.925
20
-139.992
11
84.925
21
-138.421
0
LINE
8
Black
10
84.925
20
-138.421
11
84.7821
21
-138.135
0
LINE
8
Black
10
84.7821
20
-138.135
11
84.4964
21
-137.992
0
LINE
8
Black
10
84.4964
20
-137.992
11
84.0679
21
-137.992
0
LINE
8
Black
10
84.0679
20
-137.992
11
83.7821
21
-138.135
0
LINE
8
Black
10
83.7821
20
-138.135
11
83.6393
21
-138.278
0
LINE
8
Black
10
86.7821
20
-139.992
11
86.4964
21
-139.849
0
LINE
8
Black
10
86.4964
20
-139.849
11
86.3536
21
-139.706
0
LINE
8
Black
10
86.3536
20
-139.706
11
86.2107
21
-139.421
0
LINE
8
Black
10
86.2107
20
-139.421
11
86.2107
21
-138.564
0
LINE
8
Black
10
86.2107
20
-138.564
11
86.3536
21
-138.278
0
LINE
8
Black
10
86.3536
20
-138.278
11
86.4964
21
-138.135
0
LINE
8
Black
10
86.4964
20
-138.135
11
86.7821
21
-137.992
0
LINE
8
Black
10
86.7821
20
-137.992
11
87.2107
21
-137.992
0
LINE
8
Black
10
87.2107
20
-137.992
11
87.4964
21
-138.135
0
LINE
8
Black
10
87.4964
20
-138.135
11
87.6393
21
-138.278
0
LINE
8
Black
10
87.6393
20
-138.278
11
87.7821
21
-138.564
0
LINE
8
Black
10
87.7821
20
-138.564
11
87.7821
21
-139.421
0
LINE
8
Black
10
87.7821
20
-139.421
11
87.6393
21
-139.706
0
LINE
8
Black
10
87.6393
20
-139.706
11
87.4964
21
-139.849
0
LINE
8
Black
10
87.4964
20
-139.849
11
87.2107
21
-139.992
0
LINE
8
Black
10
87.2107
20
-139.992
11
86.7821
21
-139.992
0
LINE
8
Black
10
89.4964
20
-139.992
11
89.2107
21
-139.849
0
LINE
8
Black
10
89.2107
20
-139.849
11
89.0679
21
-139.564
0
LINE
8
Black
10
89.0679
20
-139.564
11
89.0679
21
-136.992
0
LINE
8
Black
10
91.7821
20
-139.849
11
91.4964
21
-139.992
0
LINE
8
Black
10
91.4964
20
-139.992
11
90.925
21
-139.992
0
LINE
8
Black
10
90.925
20
-139.992
11
90.6393
21
-139.849
0
LINE
8
Black
10
90.6393
20
-139.849
11
90.4964
21
-139.564
0
LINE
8
Black
10
90.4964
20
-139.564
11
90.4964
21
-138.421
0
LINE
8
Black
10
90.4964
20
-138.421
11
90.6393
21
-138.135
0
LINE
8
Black
10
90.6393
20
-138.135
11
90.925
21
-137.992
0
LINE
8
Black
10
90.925
20
-137.992
11
91.4964
21
-137.992
0
LINE
8
Black
10
91.4964
20
-137.992
11
91.7821
21
-138.135
0
LINE
8
Black
10
91.7821
20
-138.135
11
91.925
21
-138.421
0
LINE
8
Black
10
91.925
20
-138.421
11
91.925
21
-138.706
0
LINE
8
Black
10
91.925
20
-138.706
11
90.4964
21
-138.992
0
LINE
8
Black
10
93.0679
20
-139.849
11
93.3536
21
-139.992
0
LINE
8
Black
10
93.3536
20
-139.992
11
93.925
21
-139.992
0
LINE
8
Black
10
93.925
20
-139.992
11
94.2107
21
-139.849
0
LINE
8
Black
10
94.2107
20
-139.849
11
94.3536
21
-139.564
0
LINE
8
Black
10
94.3536
20
-139.564
11
94.3536
21
-139.421
0
LINE
8
Black
10
94.3536
20
-139.421
11
94.2107
21
-139.135
0
LINE
8
Black
10
94.2107
20
-139.135
11
93.925
21
-138.992
0
LINE
8
Black
10
93.925
20
-138.992
11
93.4964
21
-138.992
0
LINE
8
Black
10
93.4964
20
-138.992
11
93.2107
21
-138.849
0
LINE
8
Black
10
93.2107
20
-138.849
11
93.0679
21
-138.564
0
LINE
8
Black
10
93.0679
20
-138.564
11
93.0679
21
-138.421
0
LINE
8
Black
10
93.0679
20
-138.421
11
93.2107
21
-138.135
0
LINE
8
Black
10
93.2107
20
-138.135
11
93.4964
21
-137.992
0
LINE
8
Black
10
93.4964
20
-137.992
11
93.925
21
-137.992
0
LINE
8
Black
10
93.925
20
-137.992
11
94.2107
21
-138.135
0
LINE
8
Black
10
95.3536
20
-141.135
11
95.4964
21
-140.992
0
LINE
8
Black
10
95.4964
20
-140.992
11
95.7821
21
-140.564
0
LINE
8
Black
10
95.7821
20
-140.564
11
95.925
21
-140.278
0
LINE
8
Black
10
95.925
20
-140.278
11
96.0679
21
-139.849
0
LINE
8
Black
10
96.0679
20
-139.849
11
96.2107
21
-139.135
0
LINE
8
Black
10
96.2107
20
-139.135
11
96.2107
21
-138.564
0
LINE
8
Black
10
96.2107
20
-138.564
11
96.0679
21
-137.849
0
LINE
8
Black
10
96.0679
20
-137.849
11
95.925
21
-137.421
0
LINE
8
Black
10
95.925
20
-137.421
11
95.7821
21
-137.135
0
LINE
8
Black
10
95.7821
20
-137.135
11
95.4964
21
-136.706
0
LINE
8
Black
10
95.4964
20
-136.706
11
95.3536
21
-136.564
0
LINE
8
Black
10
24.55
20
-142.22
11
24.55
21
-142.97
0
LINE
8
Black
10
24.175
20
-142.595
11
24.925
21
-142.595
0
LINE
8
Black
10
28.2107
20
-140.952
11
28.4964
21
-140.952
0
LINE
8
Black
10
28.4964
20
-140.952
11
28.7821
21
-141.095
0
LINE
8
Black
10
28.7821
20
-141.095
11
28.925
21
-141.238
0
LINE
8
Black
10
28.925
20
-141.238
11
29.0679
21
-141.524
0
LINE
8
Black
10
29.0679
20
-141.524
11
29.2107
21
-142.095
0
LINE
8
Black
10
29.2107
20
-142.095
11
29.2107
21
-142.809
0
LINE
8
Black
10
29.2107
20
-142.809
11
29.0679
21
-143.381
0
LINE
8
Black
10
29.0679
20
-143.381
11
28.925
21
-143.666
0
LINE
8
Black
10
28.925
20
-143.666
11
28.7821
21
-143.809
0
LINE
8
Black
10
28.7821
20
-143.809
11
28.4964
21
-143.952
0
LINE
8
Black
10
28.4964
20
-143.952
11
28.2107
21
-143.952
0
LINE
8
Black
10
28.2107
20
-143.952
11
27.925
21
-143.809
0
LINE
8
Black
10
27.925
20
-143.809
11
27.7821
21
-143.666
0
LINE
8
Black
10
27.7821
20
-143.666
11
27.6393
21
-143.381
0
LINE
8
Black
10
27.6393
20
-143.381
11
27.4964
21
-142.809
0
LINE
8
Black
10
27.4964
20
-142.809
11
27.4964
21
-142.095
0
LINE
8
Black
10
27.4964
20
-142.095
11
27.6393
21
-141.524
0
LINE
8
Black
10
27.6393
20
-141.524
11
27.7821
21
-141.238
0
LINE
8
Black
10
27.7821
20
-141.238
11
27.925
21
-141.095
0
LINE
8
Black
10
27.925
20
-141.095
11
28.2107
21
-140.952
0
LINE
8
Black
10
30.4964
20
-143.666
11
30.6393
21
-143.809
0
LINE
8
Black
10
30.6393
20
-143.809
11
30.4964
21
-143.952
0
LINE
8
Black
10
30.4964
20
-143.952
11
30.3536
21
-143.809
0
LINE
8
Black
10
30.3536
20
-143.809
11
30.4964
21
-143.666
0
LINE
8
Black
10
30.4964
20
-143.666
11
30.4964
21
-143.952
0
LINE
8
Black
10
31.6393
20
-140.952
11
33.6393
21
-140.952
0
LINE
8
Black
10
33.6393
20
-140.952
11
32.3536
21
-143.952
0
LINE
8
Black
10
36.2107
20
-140.952
11
34.7821
21
-140.952
0
LINE
8
Black
10
34.7821
20
-140.952
11
34.6393
21
-142.381
0
LINE
8
Black
10
34.6393
20
-142.381
11
34.7821
21
-142.238
0
LINE
8
Black
10
34.7821
20
-142.238
11
35.0679
21
-142.095
0
LINE
8
Black
10
35.0679
20
-142.095
11
35.7821
21
-142.095
0
LINE
8
Black
10
35.7821
20
-142.095
11
36.0679
21
-142.238
0
LINE
8
Black
10
36.0679
20
-142.238
11
36.2107
21
-142.381
0
LINE
8
Black
10
36.2107
20
-142.381
11
36.3536
21
-142.666
0
LINE
8
Black
10
36.3536
20
-142.666
11
36.3536
21
-143.381
0
LINE
8
Black
10
36.3536
20
-143.381
11
36.2107
21
-143.666
0
LINE
8
Black
10
36.2107
20
-143.666
11
36.0679
21
-143.809
0
LINE
8
Black
10
36.0679
20
-143.809
11
35.7821
21
-143.952
0
LINE
8
Black
10
35.7821
20
-143.952
11
35.0679
21
-143.952
0
LINE
8
Black
10
35.0679
20
-143.952
11
34.7821
21
-143.809
0
LINE
8
Black
10
34.7821
20
-143.809
11
34.6393
21
-143.666
0
LINE
8
Black
10
37.6393
20
-143.952
11
37.6393
21
-141.952
0
LINE
8
Black
10
37.6393
20
-142.238
11
37.7821
21
-142.095
0
LINE
8
Black
10
37.7821
20
-142.095
11
38.0679
21
-141.952
0
LINE
8
Black
10
38.0679
20
-141.952
11
38.4964
21
-141.952
0
LINE
8
Black
10
38.4964
20
-141.952
11
38.7821
21
-142.095
0
LINE
8
Black
10
38.7821
20
-142.095
11
38.925
21
-142.381
0
LINE
8
Black
10
38.925
20
-142.381
11
38.925
21
-143.952
0
LINE
8
Black
10
38.925
20
-142.381
11
39.0679
21
-142.095
0
LINE
8
Black
10
39.0679
20
-142.095
11
39.3536
21
-141.952
0
LINE
8
Black
10
39.3536
20
-141.952
11
39.7821
21
-141.952
0
LINE
8
Black
10
39.7821
20
-141.952
11
40.0679
21
-142.095
0
LINE
8
Black
10
40.0679
20
-142.095
11
40.2107
21
-142.381
0
LINE
8
Black
10
40.2107
20
-142.381
11
40.2107
21
-143.952
0
LINE
8
Black
10
41.6393
20
-143.952
11
41.6393
21
-141.952
0
LINE
8
Black
10
41.6393
20
-142.238
11
41.7821
21
-142.095
0
LINE
8
Black
10
41.7821
20
-142.095
11
42.0679
21
-141.952
0
LINE
8
Black
10
42.0679
20
-141.952
11
42.4964
21
-141.952
0
LINE
8
Black
10
42.4964
20
-141.952
11
42.7821
21
-142.095
0
LINE
8
Black
10
42.7821
20
-142.095
11
42.925
21
-142.381
0
LINE
8
Black
10
42.925
20
-142.381
11
42.925
21
-143.952
0
LINE
8
Black
10
42.925
20
-142.381
11
43.0679
21
-142.095
0
LINE
8
Black
10
43.0679
20
-142.095
11
43.3536
21
-141.952
0
LINE
8
Black
10
43.3536
20
-141.952
11
43.7821
21
-141.952
0
LINE
8
Black
10
43.7821
20
-141.952
11
44.0679
21
-142.095
0
LINE
8
Black
10
44.0679
20
-142.095
11
44.2107
21
-142.381
0
LINE
8
Black
10
44.2107
20
-142.381
11
44.2107
21
-143.952
0
LINE
8
Black
10
50.0679
20
-140.809
11
47.4964
21
-144.666
0
LINE
8
Black
10
53.925
20
-140.952
11
54.2107
21
-140.952
0
LINE
8
Black
10
54.2107
20
-140.952
11
54.4964
21
-141.095
0
LINE
8
Black
10
54.4964
20
-141.095
11
54.6393
21
-141.238
0
LINE
8
Black
10
54.6393
20
-141.238
11
54.7821
21
-141.524
0
LINE
8
Black
10
54.7821
20
-141.524
11
54.925
21
-142.095
0
LINE
8
Black
10
54.925
20
-142.095
11
54.925
21
-142.809
0
LINE
8
Black
10
54.925
20
-142.809
11
54.7821
21
-143.381
0
LINE
8
Black
10
54.7821
20
-143.381
11
54.6393
21
-143.666
0
LINE
8
Black
10
54.6393
20
-143.666
11
54.4964
21
-143.809
0
LINE
8
Black
10
54.4964
20
-143.809
11
54.2107
21
-143.952
0
LINE
8
Black
10
54.2107
20
-143.952
11
53.925
21
-143.952
0
LINE
8
Black
10
53.925
20
-143.952
11
53.6393
21
-143.809
0
LINE
8
Black
10
53.6393
20
-143.809
11
53.4964
21
-143.666
0
LINE
8
Black
10
53.4964
20
-143.666
11
53.3536
21
-143.381
0
LINE
8
Black
10
53.3536
20
-143.381
11
53.2107
21
-142.809
0
LINE
8
Black
10
53.2107
20
-142.809
11
53.2107
21
-142.095
0
LINE
8
Black
10
53.2107
20
-142.095
11
53.3536
21
-141.524
0
LINE
8
Black
10
53.3536
20
-141.524
11
53.4964
21
-141.238
0
LINE
8
Black
10
53.4964
20
-141.238
11
53.6393
21
-141.095
0
LINE
8
Black
10
53.6393
20
-141.095
11
53.925
21
-140.952
0
LINE
8
Black
10
56.2107
20
-143.666
11
56.3536
21
-143.809
0
LINE
8
Black
10
56.3536
20
-143.809
11
56.2107
21
-143.952
0
LINE
8
Black
10
56.2107
20
-143.952
11
56.0679
21
-143.809
0
LINE
8
Black
10
56.0679
20
-143.809
11
56.2107
21
-143.666
0
LINE
8
Black
10
56.2107
20
-143.666
11
56.2107
21
-143.952
0
LINE
8
Black
10
58.2107
20
-140.952
11
58.4964
21
-140.952
0
LINE
8
Black
10
58.4964
20
-140.952
11
58.7821
21
-141.095
0
LINE
8
Black
10
58.7821
20
-141.095
11
58.925
21
-141.238
0
LINE
8
Black
10
58.925
20
-141.238
11
59.0679
21
-141.524
0
LINE
8
Black
10
59.0679
20
-141.524
11
59.2107
21
-142.095
0
LINE
8
Black
10
59.2107
20
-142.095
11
59.2107
21
-142.809
0
LINE
8
Black
10
59.2107
20
-142.809
11
59.0679
21
-143.381
0
LINE
8
Black
10
59.0679
20
-143.381
11
58.925
21
-143.666
0
LINE
8
Black
10
58.925
20
-143.666
11
58.7821
21
-143.809
0
LINE
8
Black
10
58.7821
20
-143.809
11
58.4964
21
-143.952
0
LINE
8
Black
10
58.4964
20
-143.952
11
58.2107
21
-143.952
0
LINE
8
Black
10
58.2107
20
-143.952
11
57.925
21
-143.809
0
LINE
8
Black
10
57.925
20
-143.809
11
57.7821
21
-143.666
0
LINE
8
Black
10
57.7821
20
-143.666
11
57.6393
21
-143.381
0
LINE
8
Black
10
57.6393
20
-143.381
11
57.4964
21
-142.809
0
LINE
8
Black
10
57.4964
20
-142.809
11
57.4964
21
-142.095
0
LINE
8
Black
10
57.4964
20
-142.095
11
57.6393
21
-141.524
0
LINE
8
Black
10
57.6393
20
-141.524
11
57.7821
21
-141.238
0
LINE
8
Black
10
57.7821
20
-141.238
11
57.925
21
-141.095
0
LINE
8
Black
10
57.925
20
-141.095
11
58.2107
21
-140.952
0
LINE
8
Black
10
60.2107
20
-140.952
11
62.0679
21
-140.952
0
LINE
8
Black
10
62.0679
20
-140.952
11
61.0679
21
-142.095
0
LINE
8
Black
10
61.0679
20
-142.095
11
61.4964
21
-142.095
0
LINE
8
Black
10
61.4964
20
-142.095
11
61.7821
21
-142.238
0
LINE
8
Black
10
61.7821
20
-142.238
11
61.925
21
-142.381
0
LINE
8
Black
10
61.925
20
-142.381
11
62.0679
21
-142.666
0
LINE
8
Black
10
62.0679
20
-142.666
11
62.0679
21
-143.381
0
LINE
8
Black
10
62.0679
20
-143.381
11
61.925
21
-143.666
0
LINE
8
Black
10
61.925
20
-143.666
11
61.7821
21
-143.809
0
LINE
8
Black
10
61.7821
20
-143.809
11
61.4964
21
-143.952
0
LINE
8
Black
10
61.4964
20
-143.952
11
60.6393
21
-143.952
0
LINE
8
Black
10
60.6393
20
-143.952
11
60.3536
21
-143.809
0
LINE
8
Black
10
60.3536
20
-143.809
11
60.2107
21
-143.666
0
LINE
8
Black
10
63.925
20
-140.952
11
64.2107
21
-140.952
0
LINE
8
Black
10
64.2107
20
-140.952
11
64.4964
21
-141.095
0
LINE
8
Black
10
64.4964
20
-141.095
11
64.6393
21
-141.238
0
LINE
8
Black
10
64.6393
20
-141.238
11
64.7821
21
-141.524
0
LINE
8
Black
10
64.7821
20
-141.524
11
64.925
21
-142.095
0
LINE
8
Black
10
64.925
20
-142.095
11
64.925
21
-142.809
0
LINE
8
Black
10
64.925
20
-142.809
11
64.7821
21
-143.381
0
LINE
8
Black
10
64.7821
20
-143.381
11
64.6393
21
-143.666
0
LINE
8
Black
10
64.6393
20
-143.666
11
64.4964
21
-143.809
0
LINE
8
Black
10
64.4964
20
-143.809
11
64.2107
21
-143.952
0
LINE
8
Black
10
64.2107
20
-143.952
11
63.925
21
-143.952
0
LINE
8
Black
10
63.925
20
-143.952
11
63.6393
21
-143.809
0
LINE
8
Black
10
63.6393
20
-143.809
11
63.4964
21
-143.666
0
LINE
8
Black
10
63.4964
20
-143.666
11
63.3536
21
-143.381
0
LINE
8
Black
10
63.3536
20
-143.381
11
63.2107
21
-142.809
0
LINE
8
Black
10
63.2107
20
-142.809
11
63.2107
21
-142.095
0
LINE
8
Black
10
63.2107
20
-142.095
11
63.3536
21
-141.524
0
LINE
8
Black
10
63.3536
20
-141.524
11
63.4964
21
-141.238
0
LINE
8
Black
10
63.4964
20
-141.238
11
63.6393
21
-141.095
0
LINE
8
Black
10
63.6393
20
-141.095
11
63.925
21
-140.952
0
LINE
8
Black
10
66.0679
20
-140.952
11
66.0679
21
-141.524
0
LINE
8
Black
10
67.2107
20
-140.952
11
67.2107
21
-141.524
0
LINE
8
Black
10
71.6393
20
-145.095
11
71.4964
21
-144.952
0
LINE
8
Black
10
71.4964
20
-144.952
11
71.2107
21
-144.524
0
LINE
8
Black
10
71.2107
20
-144.524
11
71.0679
21
-144.238
0
LINE
8
Black
10
71.0679
20
-144.238
11
70.925
21
-143.809
0
LINE
8
Black
10
70.925
20
-143.809
11
70.7821
21
-143.095
0
LINE
8
Black
10
70.7821
20
-143.095
11
70.7821
21
-142.524
0
LINE
8
Black
10
70.7821
20
-142.524
11
70.925
21
-141.809
0
LINE
8
Black
10
70.925
20
-141.809
11
71.0679
21
-141.381
0
LINE
8
Black
10
71.0679
20
-141.381
11
71.2107
21
-141.095
0
LINE
8
Black
10
71.2107
20
-141.095
11
71.4964
21
-140.666
0
LINE
8
Black
10
71.4964
20
-140.666
11
71.6393
21
-140.524
0
LINE
8
Black
10
74.3536
20
-143.952
11
72.6393
21
-143.952
0
LINE
8
Black
10
73.4964
20
-143.952
11
73.4964
21
-140.952
0
LINE
8
Black
10
73.4964
20
-140.952
11
73.2107
21
-141.381
0
LINE
8
Black
10
73.2107
20
-141.381
11
72.925
21
-141.666
0
LINE
8
Black
10
72.925
20
-141.666
11
72.6393
21
-141.809
0
LINE
8
Black
10
77.925
20
-143.952
11
77.925
21
-140.952
0
LINE
8
Black
10
79.2107
20
-143.952
11
79.2107
21
-142.381
0
LINE
8
Black
10
79.2107
20
-142.381
11
79.0679
21
-142.095
0
LINE
8
Black
10
79.0679
20
-142.095
11
78.7821
21
-141.952
0
LINE
8
Black
10
78.7821
20
-141.952
11
78.3536
21
-141.952
0
LINE
8
Black
10
78.3536
20
-141.952
11
78.0679
21
-142.095
0
LINE
8
Black
10
78.0679
20
-142.095
11
77.925
21
-142.238
0
LINE
8
Black
10
81.0679
20
-143.952
11
80.7821
21
-143.809
0
LINE
8
Black
10
80.7821
20
-143.809
11
80.6393
21
-143.666
0
LINE
8
Black
10
80.6393
20
-143.666
11
80.4964
21
-143.381
0
LINE
8
Black
10
80.4964
20
-143.381
11
80.4964
21
-142.524
0
LINE
8
Black
10
80.4964
20
-142.524
11
80.6393
21
-142.238
0
LINE
8
Black
10
80.6393
20
-142.238
11
80.7821
21
-142.095
0
LINE
8
Black
10
80.7821
20
-142.095
11
81.0679
21
-141.952
0
LINE
8
Black
10
81.0679
20
-141.952
11
81.4964
21
-141.952
0
LINE
8
Black
10
81.4964
20
-141.952
11
81.7821
21
-142.095
0
LINE
8
Black
10
81.7821
20
-142.095
11
81.925
21
-142.238
0
LINE
8
Black
10
81.925
20
-142.238
11
82.0679
21
-142.524
0
LINE
8
Black
10
82.0679
20
-142.524
11
82.0679
21
-143.381
0
LINE
8
Black
10
82.0679
20
-143.381
11
81.925
21
-143.666
0
LINE
8
Black
10
81.925
20
-143.666
11
81.7821
21
-143.809
0
LINE
8
Black
10
81.7821
20
-143.809
11
81.4964
21
-143.952
0
LINE
8
Black
10
81.4964
20
-143.952
11
81.0679
21
-143.952
0
LINE
8
Black
10
83.7821
20
-143.952
11
83.4964
21
-143.809
0
LINE
8
Black
10
83.4964
20
-143.809
11
83.3536
21
-143.524
0
LINE
8
Black
10
83.3536
20
-143.524
11
83.3536
21
-140.952
0
LINE
8
Black
10
86.0679
20
-143.809
11
85.7821
21
-143.952
0
LINE
8
Black
10
85.7821
20
-143.952
11
85.2107
21
-143.952
0
LINE
8
Black
10
85.2107
20
-143.952
11
84.925
21
-143.809
0
LINE
8
Black
10
84.925
20
-143.809
11
84.7821
21
-143.524
0
LINE
8
Black
10
84.7821
20
-143.524
11
84.7821
21
-142.381
0
LINE
8
Black
10
84.7821
20
-142.381
11
84.925
21
-142.095
0
LINE
8
Black
10
84.925
20
-142.095
11
85.2107
21
-141.952
0
LINE
8
Black
10
85.2107
20
-141.952
11
85.7821
21
-141.952
0
LINE
8
Black
10
85.7821
20
-141.952
11
86.0679
21
-142.095
0
LINE
8
Black
10
86.0679
20
-142.095
11
86.2107
21
-142.381
0
LINE
8
Black
10
86.2107
20
-142.381
11
86.2107
21
-142.666
0
LINE
8
Black
10
86.2107
20
-142.666
11
84.7821
21
-142.952
0
LINE
8
Black
10
87.2107
20
-145.095
11
87.3536
21
-144.952
0
LINE
8
Black
10
87.3536
20
-144.952
11
87.6393
21
-144.524
0
LINE
8
Black
10
87.6393
20
-144.524
11
87.7821
21
-144.238
0
LINE
8
Black
10
87.7821
20
-144.238
11
87.925
21
-143.809
0
LINE
8
Black
10
87.925
20
-143.809
11
88.0679
21
-143.095
0
LINE
8
Black
10
88.0679
20
-143.095
11
88.0679
21
-142.524
0
LINE
8
Black
10
88.0679
20
-142.524
11
87.925
21
-141.809
0
LINE
8
Black
10
87.925
20
-141.809
11
87.7821
21
-141.381
0
LINE
8
Black
10
87.7821
20
-141.381
11
87.6393
21
-141.095
0
LINE
8
Black
10
87.6393
20
-141.095
11
87.3536
21
-140.666
0
LINE
8
Black
10
87.3536
20
-140.666
11
87.2107
21
-140.524
0
LINE
8
Black
10
24.7786
20
-146.909
11
24.7786
21
-146.201
0
LINE
8
Black
10
24.7786
20
-146.201
11
24.0714
21
-146.201
0
LINE
8
Black
10
24.0714
20
-146.201
11
24.0714
21
-146.909
0
LINE
8
Black
10
24.0714
20
-146.909
11
24.7786
21
-146.909
0
LINE
8
Black
10
29.2107
20
-147.912
11
27.4964
21
-147.912
0
LINE
8
Black
10
28.3536
20
-147.912
11
28.3536
21
-144.912
0
LINE
8
Black
10
28.3536
20
-144.912
11
28.0679
21
-145.341
0
LINE
8
Black
10
28.0679
20
-145.341
11
27.7821
21
-145.626
0
LINE
8
Black
10
27.7821
20
-145.626
11
27.4964
21
-145.769
0
LINE
8
Black
10
30.4964
20
-147.626
11
30.6393
21
-147.769
0
LINE
8
Black
10
30.6393
20
-147.769
11
30.4964
21
-147.912
0
LINE
8
Black
10
30.4964
20
-147.912
11
30.3536
21
-147.769
0
LINE
8
Black
10
30.3536
20
-147.769
11
30.4964
21
-147.626
0
LINE
8
Black
10
30.4964
20
-147.626
11
30.4964
21
-147.912
0
LINE
8
Black
10
32.4964
20
-144.912
11
32.7821
21
-144.912
0
LINE
8
Black
10
32.7821
20
-144.912
11
33.0679
21
-145.055
0
LINE
8
Black
10
33.0679
20
-145.055
11
33.2107
21
-145.198
0
LINE
8
Black
10
33.2107
20
-145.198
11
33.3536
21
-145.484
0
LINE
8
Black
10
33.3536
20
-145.484
11
33.4964
21
-146.055
0
LINE
8
Black
10
33.4964
20
-146.055
11
33.4964
21
-146.769
0
LINE
8
Black
10
33.4964
20
-146.769
11
33.3536
21
-147.341
0
LINE
8
Black
10
33.3536
20
-147.341
11
33.2107
21
-147.626
0
LINE
8
Black
10
33.2107
20
-147.626
11
33.0679
21
-147.769
0
LINE
8
Black
10
33.0679
20
-147.769
11
32.7821
21
-147.912
0
LINE
8
Black
10
32.7821
20
-147.912
11
32.4964
21
-147.912
0
LINE
8
Black
10
32.4964
20
-147.912
11
32.2107
21
-147.769
0
LINE
8
Black
10
32.2107
20
-147.769
11
32.0679
21
-147.626
0
LINE
8
Black
10
32.0679
20
-147.626
11
31.925
21
-147.341
0
LINE
8
Black
10
31.925
20
-147.341
11
31.7821
21
-146.769
0
LINE
8
Black
10
31.7821
20
-146.769
11
31.7821
21
-146.055
0
LINE
8
Black
10
31.7821
20
-146.055
11
31.925
21
-145.484
0
LINE
8
Black
10
31.925
20
-145.484
11
32.0679
21
-145.198
0
LINE
8
Black
10
32.0679
20
-145.198
11
32.2107
21
-145.055
0
LINE
8
Black
10
32.2107
20
-145.055
11
32.4964
21
-144.912
0
LINE
8
Black
10
35.3536
20
-144.912
11
35.6393
21
-144.912
0
LINE
8
Black
10
35.6393
20
-144.912
11
35.925
21
-145.055
0
LINE
8
Black
10
35.925
20
-145.055
11
36.0679
21
-145.198
0
LINE
8
Black
10
36.0679
20
-145.198
11
36.2107
21
-145.484
0
LINE
8
Black
10
36.2107
20
-145.484
11
36.3536
21
-146.055
0
LINE
8
Black
10
36.3536
20
-146.055
11
36.3536
21
-146.769
0
LINE
8
Black
10
36.3536
20
-146.769
11
36.2107
21
-147.341
0
LINE
8
Black
10
36.2107
20
-147.341
11
36.0679
21
-147.626
0
LINE
8
Black
10
36.0679
20
-147.626
11
35.925
21
-147.769
0
LINE
8
Black
10
35.925
20
-147.769
11
35.6393
21
-147.912
0
LINE
8
Black
10
35.6393
20
-147.912
11
35.3536
21
-147.912
0
LINE
8
Black
10
35.3536
20
-147.912
11
35.0679
21
-147.769
0
LINE
8
Black
10
35.0679
20
-147.769
11
34.925
21
-147.626
0
LINE
8
Black
10
34.925
20
-147.626
11
34.7821
21
-147.341
0
LINE
8
Black
10
34.7821
20
-147.341
11
34.6393
21
-146.769
0
LINE
8
Black
10
34.6393
20
-146.769
11
34.6393
21
-146.055
0
LINE
8
Black
10
34.6393
20
-146.055
11
34.7821
21
-145.484
0
LINE
8
Black
10
34.7821
20
-145.484
11
34.925
21
-145.198
0
LINE
8
Black
10
34.925
20
-145.198
11
35.0679
21
-145.055
0
LINE
8
Black
10
35.0679
20
-145.055
11
35.3536
21
-144.912
0
LINE
8
Black
10
37.6393
20
-147.912
11
37.6393
21
-145.912
0
LINE
8
Black
10
37.6393
20
-146.198
11
37.7821
21
-146.055
0
LINE
8
Black
10
37.7821
20
-146.055
11
38.0679
21
-145.912
0
LINE
8
Black
10
38.0679
20
-145.912
11
38.4964
21
-145.912
0
LINE
8
Black
10
38.4964
20
-145.912
11
38.7821
21
-146.055
0
LINE
8
Black
10
38.7821
20
-146.055
11
38.925
21
-146.341
0
LINE
8
Black
10
38.925
20
-146.341
11
38.925
21
-147.912
0
LINE
8
Black
10
38.925
20
-146.341
11
39.0679
21
-146.055
0
LINE
8
Black
10
39.0679
20
-146.055
11
39.3536
21
-145.912
0
LINE
8
Black
10
39.3536
20
-145.912
11
39.7821
21
-145.912
0
LINE
8
Black
10
39.7821
20
-145.912
11
40.0679
21
-146.055
0
LINE
8
Black
10
40.0679
20
-146.055
11
40.2107
21
-146.341
0
LINE
8
Black
10
40.2107
20
-146.341
11
40.2107
21
-147.912
0
LINE
8
Black
10
41.6393
20
-147.912
11
41.6393
21
-145.912
0
LINE
8
Black
10
41.6393
20
-146.198
11
41.7821
21
-146.055
0
LINE
8
Black
10
41.7821
20
-146.055
11
42.0679
21
-145.912
0
LINE
8
Black
10
42.0679
20
-145.912
11
42.4964
21
-145.912
0
LINE
8
Black
10
42.4964
20
-145.912
11
42.7821
21
-146.055
0
LINE
8
Black
10
42.7821
20
-146.055
11
42.925
21
-146.341
0
LINE
8
Black
10
42.925
20
-146.341
11
42.925
21
-147.912
0
LINE
8
Black
10
42.925
20
-146.341
11
43.0679
21
-146.055
0
LINE
8
Black
10
43.0679
20
-146.055
11
43.3536
21
-145.912
0
LINE
8
Black
10
43.3536
20
-145.912
11
43.7821
21
-145.912
0
LINE
8
Black
10
43.7821
20
-145.912
11
44.0679
21
-146.055
0
LINE
8
Black
10
44.0679
20
-146.055
11
44.2107
21
-146.341
0
LINE
8
Black
10
44.2107
20
-146.341
11
44.2107
21
-147.912
0
LINE
8
Black
10
50.0679
20
-144.769
11
47.4964
21
-148.626
0
LINE
8
Black
10
53.925
20
-144.912
11
54.2107
21
-144.912
0
LINE
8
Black
10
54.2107
20
-144.912
11
54.4964
21
-145.055
0
LINE
8
Black
10
54.4964
20
-145.055
11
54.6393
21
-145.198
0
LINE
8
Black
10
54.6393
20
-145.198
11
54.7821
21
-145.484
0
LINE
8
Black
10
54.7821
20
-145.484
11
54.925
21
-146.055
0
LINE
8
Black
10
54.925
20
-146.055
11
54.925
21
-146.769
0
LINE
8
Black
10
54.925
20
-146.769
11
54.7821
21
-147.341
0
LINE
8
Black
10
54.7821
20
-147.341
11
54.6393
21
-147.626
0
LINE
8
Black
10
54.6393
20
-147.626
11
54.4964
21
-147.769
0
LINE
8
Black
10
54.4964
20
-147.769
11
54.2107
21
-147.912
0
LINE
8
Black
10
54.2107
20
-147.912
11
53.925
21
-147.912
0
LINE
8
Black
10
53.925
20
-147.912
11
53.6393
21
-147.769
0
LINE
8
Black
10
53.6393
20
-147.769
11
53.4964
21
-147.626
0
LINE
8
Black
10
53.4964
20
-147.626
11
53.3536
21
-147.341
0
LINE
8
Black
10
53.3536
20
-147.341
11
53.2107
21
-146.769
0
LINE
8
Black
10
53.2107
20
-146.769
11
53.2107
21
-146.055
0
LINE
8
Black
10
53.2107
20
-146.055
11
53.3536
21
-145.484
0
LINE
8
Black
10
53.3536
20
-145.484
11
53.4964
21
-145.198
0
LINE
8
Black
10
53.4964
20
-145.198
11
53.6393
21
-145.055
0
LINE
8
Black
10
53.6393
20
-145.055
11
53.925
21
-144.912
0
LINE
8
Black
10
56.2107
20
-147.626
11
56.3536
21
-147.769
0
LINE
8
Black
10
56.3536
20
-147.769
11
56.2107
21
-147.912
0
LINE
8
Black
10
56.2107
20
-147.912
11
56.0679
21
-147.769
0
LINE
8
Black
10
56.0679
20
-147.769
11
56.2107
21
-147.626
0
LINE
8
Black
10
56.2107
20
-147.626
11
56.2107
21
-147.912
0
LINE
8
Black
10
58.2107
20
-144.912
11
58.4964
21
-144.912
0
LINE
8
Black
10
58.4964
20
-144.912
11
58.7821
21
-145.055
0
LINE
8
Black
10
58.7821
20
-145.055
11
58.925
21
-145.198
0
LINE
8
Black
10
58.925
20
-145.198
11
59.0679
21
-145.484
0
LINE
8
Black
10
59.0679
20
-145.484
11
59.2107
21
-146.055
0
LINE
8
Black
10
59.2107
20
-146.055
11
59.2107
21
-146.769
0
LINE
8
Black
10
59.2107
20
-146.769
11
59.0679
21
-147.341
0
LINE
8
Black
10
59.0679
20
-147.341
11
58.925
21
-147.626
0
LINE
8
Black
10
58.925
20
-147.626
11
58.7821
21
-147.769
0
LINE
8
Black
10
58.7821
20
-147.769
11
58.4964
21
-147.912
0
LINE
8
Black
10
58.4964
20
-147.912
11
58.2107
21
-147.912
0
LINE
8
Black
10
58.2107
20
-147.912
11
57.925
21
-147.769
0
LINE
8
Black
10
57.925
20
-147.769
11
57.7821
21
-147.626
0
LINE
8
Black
10
57.7821
20
-147.626
11
57.6393
21
-147.341
0
LINE
8
Black
10
57.6393
20
-147.341
11
57.4964
21
-146.769
0
LINE
8
Black
10
57.4964
20
-146.769
11
57.4964
21
-146.055
0
LINE
8
Black
10
57.4964
20
-146.055
11
57.6393
21
-145.484
0
LINE
8
Black
10
57.6393
20
-145.484
11
57.7821
21
-145.198
0
LINE
8
Black
10
57.7821
20
-145.198
11
57.925
21
-145.055
0
LINE
8
Black
10
57.925
20
-145.055
11
58.2107
21
-144.912
0
LINE
8
Black
10
60.2107
20
-144.912
11
62.0679
21
-144.912
0
LINE
8
Black
10
62.0679
20
-144.912
11
61.0679
21
-146.055
0
LINE
8
Black
10
61.0679
20
-146.055
11
61.4964
21
-146.055
0
LINE
8
Black
10
61.4964
20
-146.055
11
61.7821
21
-146.198
0
LINE
8
Black
10
61.7821
20
-146.198
11
61.925
21
-146.341
0
LINE
8
Black
10
61.925
20
-146.341
11
62.0679
21
-146.626
0
LINE
8
Black
10
62.0679
20
-146.626
11
62.0679
21
-147.341
0
LINE
8
Black
10
62.0679
20
-147.341
11
61.925
21
-147.626
0
LINE
8
Black
10
61.925
20
-147.626
11
61.7821
21
-147.769
0
LINE
8
Black
10
61.7821
20
-147.769
11
61.4964
21
-147.912
0
LINE
8
Black
10
61.4964
20
-147.912
11
60.6393
21
-147.912
0
LINE
8
Black
10
60.6393
20
-147.912
11
60.3536
21
-147.769
0
LINE
8
Black
10
60.3536
20
-147.769
11
60.2107
21
-147.626
0
LINE
8
Black
10
63.4964
20
-147.912
11
64.0679
21
-147.912
0
LINE
8
Black
10
64.0679
20
-147.912
11
64.3536
21
-147.769
0
LINE
8
Black
10
64.3536
20
-147.769
11
64.4964
21
-147.626
0
LINE
8
Black
10
64.4964
20
-147.626
11
64.7821
21
-147.198
0
LINE
8
Black
10
64.7821
20
-147.198
11
64.925
21
-146.626
0
LINE
8
Black
10
64.925
20
-146.626
11
64.925
21
-145.484
0
LINE
8
Black
10
64.925
20
-145.484
11
64.7821
21
-145.198
0
LINE
8
Black
10
64.7821
20
-145.198
11
64.6393
21
-145.055
0
LINE
8
Black
10
64.6393
20
-145.055
11
64.3536
21
-144.912
0
LINE
8
Black
10
64.3536
20
-144.912
11
63.7821
21
-144.912
0
LINE
8
Black
10
63.7821
20
-144.912
11
63.4964
21
-145.055
0
LINE
8
Black
10
63.4964
20
-145.055
11
63.3536
21
-145.198
0
LINE
8
Black
10
63.3536
20
-145.198
11
63.2107
21
-145.484
0
LINE
8
Black
10
63.2107
20
-145.484
11
63.2107
21
-146.198
0
LINE
8
Black
10
63.2107
20
-146.198
11
63.3536
21
-146.484
0
LINE
8
Black
10
63.3536
20
-146.484
11
63.4964
21
-146.626
0
LINE
8
Black
10
63.4964
20
-146.626
11
63.7821
21
-146.769
0
LINE
8
Black
10
63.7821
20
-146.769
11
64.3536
21
-146.769
0
LINE
8
Black
10
64.3536
20
-146.769
11
64.6393
21
-146.626
0
LINE
8
Black
10
64.6393
20
-146.626
11
64.7821
21
-146.484
0
LINE
8
Black
10
64.7821
20
-146.484
11
64.925
21
-146.198
0
LINE
8
Black
10
66.0679
20
-144.912
11
66.0679
21
-145.484
0
LINE
8
Black
10
67.2107
20
-144.912
11
67.2107
21
-145.484
0
LINE
8
Black
10
71.6393
20
-149.055
11
71.4964
21
-148.912
0
LINE
8
Black
10
71.4964
20
-148.912
11
71.2107
21
-148.484
0
LINE
8
Black
10
71.2107
20
-148.484
11
71.0679
21
-148.198
0
LINE
8
Black
10
71.0679
20
-148.198
11
70.925
21
-147.769
0
LINE
8
Black
10
70.925
20
-147.769
11
70.7821
21
-147.055
0
LINE
8
Black
10
70.7821
20
-147.055
11
70.7821
21
-146.484
0
LINE
8
Black
10
70.7821
20
-146.484
11
70.925
21
-145.769
0
LINE
8
Black
10
70.925
20
-145.769
11
71.0679
21
-145.341
0
LINE
8
Black
10
71.0679
20
-145.341
11
71.2107
21
-145.055
0
LINE
8
Black
10
71.2107
20
-145.055
11
71.4964
21
-144.626
0
LINE
8
Black
10
71.4964
20
-144.626
11
71.6393
21
-144.484
0
LINE
8
Black
10
74.0679
20
-145.912
11
74.0679
21
-147.912
0
LINE
8
Black
10
73.3536
20
-144.769
11
72.6393
21
-146.912
0
LINE
8
Black
10
72.6393
20
-146.912
11
74.4964
21
-146.912
0
LINE
8
Black
10
76.2107
20
-144.912
11
76.4964
21
-144.912
0
LINE
8
Black
10
76.4964
20
-144.912
11
76.7821
21
-145.055
0
LINE
8
Black
10
76.7821
20
-145.055
11
76.925
21
-145.198
0
LINE
8
Black
10
76.925
20
-145.198
11
77.0679
21
-145.484
0
LINE
8
Black
10
77.0679
20
-145.484
11
77.2107
21
-146.055
0
LINE
8
Black
10
77.2107
20
-146.055
11
77.2107
21
-146.769
0
LINE
8
Black
10
77.2107
20
-146.769
11
77.0679
21
-147.341
0
LINE
8
Black
10
77.0679
20
-147.341
11
76.925
21
-147.626
0
LINE
8
Black
10
76.925
20
-147.626
11
76.7821
21
-147.769
0
LINE
8
Black
10
76.7821
20
-147.769
11
76.4964
21
-147.912
0
LINE
8
Black
10
76.4964
20
-147.912
11
76.2107
21
-147.912
0
LINE
8
Black
10
76.2107
20
-147.912
11
75.925
21
-147.769
0
LINE
8
Black
10
75.925
20
-147.769
11
75.7821
21
-147.626
0
LINE
8
Black
10
75.7821
20
-147.626
11
75.6393
21
-147.341
0
LINE
8
Black
10
75.6393
20
-147.341
11
75.4964
21
-146.769
0
LINE
8
Black
10
75.4964
20
-146.769
11
75.4964
21
-146.055
0
LINE
8
Black
10
75.4964
20
-146.055
11
75.6393
21
-145.484
0
LINE
8
Black
10
75.6393
20
-145.484
11
75.7821
21
-145.198
0
LINE
8
Black
10
75.7821
20
-145.198
11
75.925
21
-145.055
0
LINE
8
Black
10
75.925
20
-145.055
11
76.2107
21
-144.912
0
LINE
8
Black
10
80.7821
20
-147.912
11
80.7821
21
-144.912
0
LINE
8
Black
10
82.0679
20
-147.912
11
82.0679
21
-146.341
0
LINE
8
Black
10
82.0679
20
-146.341
11
81.925
21
-146.055
0
LINE
8
Black
10
81.925
20
-146.055
11
81.6393
21
-145.912
0
LINE
8
Black
10
81.6393
20
-145.912
11
81.2107
21
-145.912
0
LINE
8
Black
10
81.2107
20
-145.912
11
80.925
21
-146.055
0
LINE
8
Black
10
80.925
20
-146.055
11
80.7821
21
-146.198
0
LINE
8
Black
10
83.925
20
-147.912
11
83.6393
21
-147.769
0
LINE
8
Black
10
83.6393
20
-147.769
11
83.4964
21
-147.626
0
LINE
8
Black
10
83.4964
20
-147.626
11
83.3536
21
-147.341
0
LINE
8
Black
10
83.3536
20
-147.341
11
83.3536
21
-146.484
0
LINE
8
Black
10
83.3536
20
-146.484
11
83.4964
21
-146.198
0
LINE
8
Black
10
83.4964
20
-146.198
11
83.6393
21
-146.055
0
LINE
8
Black
10
83.6393
20
-146.055
11
83.925
21
-145.912
0
LINE
8
Black
10
83.925
20
-145.912
11
84.3536
21
-145.912
0
LINE
8
Black
10
84.3536
20
-145.912
11
84.6393
21
-146.055
0
LINE
8
Black
10
84.6393
20
-146.055
11
84.7821
21
-146.198
0
LINE
8
Black
10
84.7821
20
-146.198
11
84.925
21
-146.484
0
LINE
8
Black
10
84.925
20
-146.484
11
84.925
21
-147.341
0
LINE
8
Black
10
84.925
20
-147.341
11
84.7821
21
-147.626
0
LINE
8
Black
10
84.7821
20
-147.626
11
84.6393
21
-147.769
0
LINE
8
Black
10
84.6393
20
-147.769
11
84.3536
21
-147.912
0
LINE
8
Black
10
84.3536
20
-147.912
11
83.925
21
-147.912
0
LINE
8
Black
10
86.6393
20
-147.912
11
86.3536
21
-147.769
0
LINE
8
Black
10
86.3536
20
-147.769
11
86.2107
21
-147.484
0
LINE
8
Black
10
86.2107
20
-147.484
11
86.2107
21
-144.912
0
LINE
8
Black
10
88.925
20
-147.769
11
88.6393
21
-147.912
0
LINE
8
Black
10
88.6393
20
-147.912
11
88.0679
21
-147.912
0
LINE
8
Black
10
88.0679
20
-147.912
11
87.7821
21
-147.769
0
LINE
8
Black
10
87.7821
20
-147.769
11
87.6393
21
-147.484
0
LINE
8
Black
10
87.6393
20
-147.484
11
87.6393
21
-146.341
0
LINE
8
Black
10
87.6393
20
-146.341
11
87.7821
21
-146.055
0
LINE
8
Black
10
87.7821
20
-146.055
11
88.0679
21
-145.912
0
LINE
8
Black
10
88.0679
20
-145.912
11
88.6393
21
-145.912
0
LINE
8
Black
10
88.6393
20
-145.912
11
88.925
21
-146.055
0
LINE
8
Black
10
88.925
20
-146.055
11
89.0679
21
-146.341
0
LINE
8
Black
10
89.0679
20
-146.341
11
89.0679
21
-146.626
0
LINE
8
Black
10
89.0679
20
-146.626
11
87.6393
21
-146.912
0
LINE
8
Black
10
90.2107
20
-147.769
11
90.4964
21
-147.912
0
LINE
8
Black
10
90.4964
20
-147.912
11
91.0679
21
-147.912
0
LINE
8
Black
10
91.0679
20
-147.912
11
91.3536
21
-147.769
0
LINE
8
Black
10
91.3536
20
-147.769
11
91.4964
21
-147.484
0
LINE
8
Black
10
91.4964
20
-147.484
11
91.4964
21
-147.341
0
LINE
8
Black
10
91.4964
20
-147.341
11
91.3536
21
-147.055
0
LINE
8
Black
10
91.3536
20
-147.055
11
91.0679
21
-146.912
0
LINE
8
Black
10
91.0679
20
-146.912
11
90.6393
21
-146.912
0
LINE
8
Black
10
90.6393
20
-146.912
11
90.3536
21
-146.769
0
LINE
8
Black
10
90.3536
20
-146.769
11
90.2107
21
-146.484
0
LINE
8
Black
10
90.2107
20
-146.484
11
90.2107
21
-146.341
0
LINE
8
Black
10
90.2107
20
-146.341
11
90.3536
21
-146.055
0
LINE
8
Black
10
90.3536
20
-146.055
11
90.6393
21
-145.912
0
LINE
8
Black
10
90.6393
20
-145.912
11
91.0679
21
-145.912
0
LINE
8
Black
10
91.0679
20
-145.912
11
91.3536
21
-146.055
0
LINE
8
Black
10
92.4964
20
-149.055
11
92.6393
21
-148.912
0
LINE
8
Black
10
92.6393
20
-148.912
11
92.925
21
-148.484
0
LINE
8
Black
10
92.925
20
-148.484
11
93.0679
21
-148.198
0
LINE
8
Black
10
93.0679
20
-148.198
11
93.2107
21
-147.769
0
LINE
8
Black
10
93.2107
20
-147.769
11
93.3536
21
-147.055
0
LINE
8
Black
10
93.3536
20
-147.055
11
93.3536
21
-146.484
0
LINE
8
Black
10
93.3536
20
-146.484
11
93.2107
21
-145.769
0
LINE
8
Black
10
93.2107
20
-145.769
11
93.0679
21
-145.341
0
LINE
8
Black
10
93.0679
20
-145.341
11
92.925
21
-145.055
0
LINE
8
Black
10
92.925
20
-145.055
11
92.6393
21
-144.626
0
LINE
8
Black
10
92.6393
20
-144.626
11
92.4964
21
-144.484
0
LINE
8
Black
10
24.417
20
-151.023
11
24.925
21
-150.515
0
LINE
8
Black
10
24.925
20
-150.515
11
24.417
21
-150.007
0
LINE
8
Black
10
24.417
20
-150.007
11
23.909
21
-150.515
0
LINE
8
Black
10
23.909
20
-150.515
11
24.417
21
-151.023
0
LINE
8
Black
10
29.2107
20
-151.872
11
27.4964
21
-151.872
0
LINE
8
Black
10
28.3536
20
-151.872
11
28.3536
21
-148.872
0
LINE
8
Black
10
28.3536
20
-148.872
11
28.0679
21
-149.301
0
LINE
8
Black
10
28.0679
20
-149.301
11
27.7821
21
-149.586
0
LINE
8
Black
10
27.7821
20
-149.586
11
27.4964
21
-149.729
0
LINE
8
Black
10
30.4964
20
-151.586
11
30.6393
21
-151.729
0
LINE
8
Black
10
30.6393
20
-151.729
11
30.4964
21
-151.872
0
LINE
8
Black
10
30.4964
20
-151.872
11
30.3536
21
-151.729
0
LINE
8
Black
10
30.3536
20
-151.729
11
30.4964
21
-151.586
0
LINE
8
Black
10
30.4964
20
-151.586
11
30.4964
21
-151.872
0
LINE
8
Black
10
32.4964
20
-148.872
11
32.7821
21
-148.872
0
LINE
8
Black
10
32.7821
20
-148.872
11
33.0679
21
-149.015
0
LINE
8
Black
10
33.0679
20
-149.015
11
33.2107
21
-149.158
0
LINE
8
Black
10
33.2107
20
-149.158
11
33.3536
21
-149.444
0
LINE
8
Black
10
33.3536
20
-149.444
11
33.4964
21
-150.015
0
LINE
8
Black
10
33.4964
20
-150.015
11
33.4964
21
-150.729
0
LINE
8
Black
10
33.4964
20
-150.729
11
33.3536
21
-151.301
0
LINE
8
Black
10
33.3536
20
-151.301
11
33.2107
21
-151.586
0
LINE
8
Black
10
33.2107
20
-151.586
11
33.0679
21
-151.729
0
LINE
8
Black
10
33.0679
20
-151.729
11
32.7821
21
-151.872
0
LINE
8
Black
10
32.7821
20
-151.872
11
32.4964
21
-151.872
0
LINE
8
Black
10
32.4964
20
-151.872
11
32.2107
21
-151.729
0
LINE
8
Black
10
32.2107
20
-151.729
11
32.0679
21
-151.586
0
LINE
8
Black
10
32.0679
20
-151.586
11
31.925
21
-151.301
0
LINE
8
Black
10
31.925
20
-151.301
11
31.7821
21
-150.729
0
LINE
8
Black
10
31.7821
20
-150.729
11
31.7821
21
-150.015
0
LINE
8
Black
10
31.7821
20
-150.015
11
31.925
21
-149.444
0
LINE
8
Black
10
31.925
20
-149.444
11
32.0679
21
-149.158
0
LINE
8
Black
10
32.0679
20
-149.158
11
32.2107
21
-149.015
0
LINE
8
Black
10
32.2107
20
-149.015
11
32.4964
21
-148.872
0
LINE
8
Black
10
34.6393
20
-149.158
11
34.7821
21
-149.015
0
LINE
8
Black
10
34.7821
20
-149.015
11
35.0679
21
-148.872
0
LINE
8
Black
10
35.0679
20
-148.872
11
35.7821
21
-148.872
0
LINE
8
Black
10
35.7821
20
-148.872
11
36.0679
21
-149.015
0
LINE
8
Black
10
36.0679
20
-149.015
11
36.2107
21
-149.158
0
LINE
8
Black
10
36.2107
20
-149.158
11
36.3536
21
-149.444
0
LINE
8
Black
10
36.3536
20
-149.444
11
36.3536
21
-149.729
0
LINE
8
Black
10
36.3536
20
-149.729
11
36.2107
21
-150.158
0
LINE
8
Black
10
36.2107
20
-150.158
11
34.4964
21
-151.872
0
LINE
8
Black
10
34.4964
20
-151.872
11
36.3536
21
-151.872
0
LINE
8
Black
10
37.6393
20
-151.872
11
37.6393
21
-149.872
0
LINE
8
Black
10
37.6393
20
-150.158
11
37.7821
21
-150.015
0
LINE
8
Black
10
37.7821
20
-150.015
11
38.0679
21
-149.872
0
LINE
8
Black
10
38.0679
20
-149.872
11
38.4964
21
-149.872
0
LINE
8
Black
10
38.4964
20
-149.872
11
38.7821
21
-150.015
0
LINE
8
Black
10
38.7821
20
-150.015
11
38.925
21
-150.301
0
LINE
8
Black
10
38.925
20
-150.301
11
38.925
21
-151.872
0
LINE
8
Black
10
38.925
20
-150.301
11
39.0679
21
-150.015
0
LINE
8
Black
10
39.0679
20
-150.015
11
39.3536
21
-149.872
0
LINE
8
Black
10
39.3536
20
-149.872
11
39.7821
21
-149.872
0
LINE
8
Black
10
39.7821
20
-149.872
11
40.0679
21
-150.015
0
LINE
8
Black
10
40.0679
20
-150.015
11
40.2107
21
-150.301
0
LINE
8
Black
10
40.2107
20
-150.301
11
40.2107
21
-151.872
0
LINE
8
Black
10
41.6393
20
-151.872
11
41.6393
21
-149.872
0
LINE
8
Black
10
41.6393
20
-150.158
11
41.7821
21
-150.015
0
LINE
8
Black
10
41.7821
20
-150.015
11
42.0679
21
-149.872
0
LINE
8
Black
10
42.0679
20
-149.872
11
42.4964
21
-149.872
0
LINE
8
Black
10
42.4964
20
-149.872
11
42.7821
21
-150.015
0
LINE
8
Black
10
42.7821
20
-150.015
11
42.925
21
-150.301
0
LINE
8
Black
10
42.925
20
-150.301
11
42.925
21
-151.872
0
LINE
8
Black
10
42.925
20
-150.301
11
43.0679
21
-150.015
0
LINE
8
Black
10
43.0679
20
-150.015
11
43.3536
21
-149.872
0
LINE
8
Black
10
43.3536
20
-149.872
11
43.7821
21
-149.872
0
LINE
8
Black
10
43.7821
20
-149.872
11
44.0679
21
-150.015
0
LINE
8
Black
10
44.0679
20
-150.015
11
44.2107
21
-150.301
0
LINE
8
Black
10
44.2107
20
-150.301
11
44.2107
21
-151.872
0
LINE
8
Black
10
50.0679
20
-148.729
11
47.4964
21
-152.586
0
LINE
8
Black
10
53.925
20
-148.872
11
54.2107
21
-148.872
0
LINE
8
Black
10
54.2107
20
-148.872
11
54.4964
21
-149.015
0
LINE
8
Black
10
54.4964
20
-149.015
11
54.6393
21
-149.158
0
LINE
8
Black
10
54.6393
20
-149.158
11
54.7821
21
-149.444
0
LINE
8
Black
10
54.7821
20
-149.444
11
54.925
21
-150.015
0
LINE
8
Black
10
54.925
20
-150.015
11
54.925
21
-150.729
0
LINE
8
Black
10
54.925
20
-150.729
11
54.7821
21
-151.301
0
LINE
8
Black
10
54.7821
20
-151.301
11
54.6393
21
-151.586
0
LINE
8
Black
10
54.6393
20
-151.586
11
54.4964
21
-151.729
0
LINE
8
Black
10
54.4964
20
-151.729
11
54.2107
21
-151.872
0
LINE
8
Black
10
54.2107
20
-151.872
11
53.925
21
-151.872
0
LINE
8
Black
10
53.925
20
-151.872
11
53.6393
21
-151.729
0
LINE
8
Black
10
53.6393
20
-151.729
11
53.4964
21
-151.586
0
LINE
8
Black
10
53.4964
20
-151.586
11
53.3536
21
-151.301
0
LINE
8
Black
10
53.3536
20
-151.301
11
53.2107
21
-150.729
0
LINE
8
Black
10
53.2107
20
-150.729
11
53.2107
21
-150.015
0
LINE
8
Black
10
53.2107
20
-150.015
11
53.3536
21
-149.444
0
LINE
8
Black
10
53.3536
20
-149.444
11
53.4964
21
-149.158
0
LINE
8
Black
10
53.4964
20
-149.158
11
53.6393
21
-149.015
0
LINE
8
Black
10
53.6393
20
-149.015
11
53.925
21
-148.872
0
LINE
8
Black
10
56.2107
20
-151.586
11
56.3536
21
-151.729
0
LINE
8
Black
10
56.3536
20
-151.729
11
56.2107
21
-151.872
0
LINE
8
Black
10
56.2107
20
-151.872
11
56.0679
21
-151.729
0
LINE
8
Black
10
56.0679
20
-151.729
11
56.2107
21
-151.586
0
LINE
8
Black
10
56.2107
20
-151.586
11
56.2107
21
-151.872
0
LINE
8
Black
10
58.2107
20
-148.872
11
58.4964
21
-148.872
0
LINE
8
Black
10
58.4964
20
-148.872
11
58.7821
21
-149.015
0
LINE
8
Black
10
58.7821
20
-149.015
11
58.925
21
-149.158
0
LINE
8
Black
10
58.925
20
-149.158
11
59.0679
21
-149.444
0
LINE
8
Black
10
59.0679
20
-149.444
11
59.2107
21
-150.015
0
LINE
8
Black
10
59.2107
20
-150.015
11
59.2107
21
-150.729
0
LINE
8
Black
10
59.2107
20
-150.729
11
59.0679
21
-151.301
0
LINE
8
Black
10
59.0679
20
-151.301
11
58.925
21
-151.586
0
LINE
8
Black
10
58.925
20
-151.586
11
58.7821
21
-151.729
0
LINE
8
Black
10
58.7821
20
-151.729
11
58.4964
21
-151.872
0
LINE
8
Black
10
58.4964
20
-151.872
11
58.2107
21
-151.872
0
LINE
8
Black
10
58.2107
20
-151.872
11
57.925
21
-151.729
0
LINE
8
Black
10
57.925
20
-151.729
11
57.7821
21
-151.586
0
LINE
8
Black
10
57.7821
20
-151.586
11
57.6393
21
-151.301
0
LINE
8
Black
10
57.6393
20
-151.301
11
57.4964
21
-150.729
0
LINE
8
Black
10
57.4964
20
-150.729
11
57.4964
21
-150.015
0
LINE
8
Black
10
57.4964
20
-150.015
11
57.6393
21
-149.444
0
LINE
8
Black
10
57.6393
20
-149.444
11
57.7821
21
-149.158
0
LINE
8
Black
10
57.7821
20
-149.158
11
57.925
21
-149.015
0
LINE
8
Black
10
57.925
20
-149.015
11
58.2107
21
-148.872
0
LINE
8
Black
10
61.7821
20
-149.872
11
61.7821
21
-151.872
0
LINE
8
Black
10
61.0679
20
-148.729
11
60.3536
21
-150.872
0
LINE
8
Black
10
60.3536
20
-150.872
11
62.2107
21
-150.872
0
LINE
8
Black
10
63.925
20
-148.872
11
64.2107
21
-148.872
0
LINE
8
Black
10
64.2107
20
-148.872
11
64.4964
21
-149.015
0
LINE
8
Black
10
64.4964
20
-149.015
11
64.6393
21
-149.158
0
LINE
8
Black
10
64.6393
20
-149.158
11
64.7821
21
-149.444
0
LINE
8
Black
10
64.7821
20
-149.444
11
64.925
21
-150.015
0
LINE
8
Black
10
64.925
20
-150.015
11
64.925
21
-150.729
0
LINE
8
Black
10
64.925
20
-150.729
11
64.7821
21
-151.301
0
LINE
8
Black
10
64.7821
20
-151.301
11
64.6393
21
-151.586
0
LINE
8
Black
10
64.6393
20
-151.586
11
64.4964
21
-151.729
0
LINE
8
Black
10
64.4964
20
-151.729
11
64.2107
21
-151.872
0
LINE
8
Black
10
64.2107
20
-151.872
11
63.925
21
-151.872
0
LINE
8
Black
10
63.925
20
-151.872
11
63.6393
21
-151.729
0
LINE
8
Black
10
63.6393
20
-151.729
11
63.4964
21
-151.586
0
LINE
8
Black
10
63.4964
20
-151.586
11
63.3536
21
-151.301
0
LINE
8
Black
10
63.3536
20
-151.301
11
63.2107
21
-150.729
0
LINE
8
Black
10
63.2107
20
-150.729
11
63.2107
21
-150.015
0
LINE
8
Black
10
63.2107
20
-150.015
11
63.3536
21
-149.444
0
LINE
8
Black
10
63.3536
20
-149.444
11
63.4964
21
-149.158
0
LINE
8
Black
10
63.4964
20
-149.158
11
63.6393
21
-149.015
0
LINE
8
Black
10
63.6393
20
-149.015
11
63.925
21
-148.872
0
LINE
8
Black
10
66.0679
20
-148.872
11
66.0679
21
-149.444
0
LINE
8
Black
10
67.2107
20
-148.872
11
67.2107
21
-149.444
0
LINE
8
Black
10
71.6393
20
-153.015
11
71.4964
21
-152.872
0
LINE
8
Black
10
71.4964
20
-152.872
11
71.2107
21
-152.444
0
LINE
8
Black
10
71.2107
20
-152.444
11
71.0679
21
-152.158
0
LINE
8
Black
10
71.0679
20
-152.158
11
70.925
21
-151.729
0
LINE
8
Black
10
70.925
20
-151.729
11
70.7821
21
-151.015
0
LINE
8
Black
10
70.7821
20
-151.015
11
70.7821
21
-150.444
0
LINE
8
Black
10
70.7821
20
-150.444
11
70.925
21
-149.729
0
LINE
8
Black
10
70.925
20
-149.729
11
71.0679
21
-149.301
0
LINE
8
Black
10
71.0679
20
-149.301
11
71.2107
21
-149.015
0
LINE
8
Black
10
71.2107
20
-149.015
11
71.4964
21
-148.586
0
LINE
8
Black
10
71.4964
20
-148.586
11
71.6393
21
-148.444
0
LINE
8
Black
10
72.6393
20
-149.158
11
72.7821
21
-149.015
0
LINE
8
Black
10
72.7821
20
-149.015
11
73.0679
21
-148.872
0
LINE
8
Black
10
73.0679
20
-148.872
11
73.7821
21
-148.872
0
LINE
8
Black
10
73.7821
20
-148.872
11
74.0679
21
-149.015
0
LINE
8
Black
10
74.0679
20
-149.015
11
74.2107
21
-149.158
0
LINE
8
Black
10
74.2107
20
-149.158
11
74.3536
21
-149.444
0
LINE
8
Black
10
74.3536
20
-149.444
11
74.3536
21
-149.729
0
LINE
8
Black
10
74.3536
20
-149.729
11
74.2107
21
-150.158
0
LINE
8
Black
10
74.2107
20
-150.158
11
72.4964
21
-151.872
0
LINE
8
Black
10
72.4964
20
-151.872
11
74.3536
21
-151.872
0
LINE
8
Black
10
76.2107
20
-148.872
11
76.4964
21
-148.872
0
LINE
8
Black
10
76.4964
20
-148.872
11
76.7821
21
-149.015
0
LINE
8
Black
10
76.7821
20
-149.015
11
76.925
21
-149.158
0
LINE
8
Black
10
76.925
20
-149.158
11
77.0679
21
-149.444
0
LINE
8
Black
10
77.0679
20
-149.444
11
77.2107
21
-150.015
0
LINE
8
Black
10
77.2107
20
-150.015
11
77.2107
21
-150.729
0
LINE
8
Black
10
77.2107
20
-150.729
11
77.0679
21
-151.301
0
LINE
8
Black
10
77.0679
20
-151.301
11
76.925
21
-151.586
0
LINE
8
Black
10
76.925
20
-151.586
11
76.7821
21
-151.729
0
LINE
8
Black
10
76.7821
20
-151.729
11
76.4964
21
-151.872
0
LINE
8
Black
10
76.4964
20
-151.872
11
76.2107
21
-151.872
0
LINE
8
Black
10
76.2107
20
-151.872
11
75.925
21
-151.729
0
LINE
8
Black
10
75.925
20
-151.729
11
75.7821
21
-151.586
0
LINE
8
Black
10
75.7821
20
-151.586
11
75.6393
21
-151.301
0
LINE
8
Black
10
75.6393
20
-151.301
11
75.4964
21
-150.729
0
LINE
8
Black
10
75.4964
20
-150.729
11
75.4964
21
-150.015
0
LINE
8
Black
10
75.4964
20
-150.015
11
75.6393
21
-149.444
0
LINE
8
Black
10
75.6393
20
-149.444
11
75.7821
21
-149.158
0
LINE
8
Black
10
75.7821
20
-149.158
11
75.925
21
-149.015
0
LINE
8
Black
10
75.925
20
-149.015
11
76.2107
21
-148.872
0
LINE
8
Black
10
80.7821
20
-151.872
11
80.7821
21
-148.872
0
LINE
8
Black
10
82.0679
20
-151.872
11
82.0679
21
-150.301
0
LINE
8
Black
10
82.0679
20
-150.301
11
81.925
21
-150.015
0
LINE
8
Black
10
81.925
20
-150.015
11
81.6393
21
-149.872
0
LINE
8
Black
10
81.6393
20
-149.872
11
81.2107
21
-149.872
0
LINE
8
Black
10
81.2107
20
-149.872
11
80.925
21
-150.015
0
LINE
8
Black
10
80.925
20
-150.015
11
80.7821
21
-150.158
0
LINE
8
Black
10
83.925
20
-151.872
11
83.6393
21
-151.729
0
LINE
8
Black
10
83.6393
20
-151.729
11
83.4964
21
-151.586
0
LINE
8
Black
10
83.4964
20
-151.586
11
83.3536
21
-151.301
0
LINE
8
Black
10
83.3536
20
-151.301
11
83.3536
21
-150.444
0
LINE
8
Black
10
83.3536
20
-150.444
11
83.4964
21
-150.158
0
LINE
8
Black
10
83.4964
20
-150.158
11
83.6393
21
-150.015
0
LINE
8
Black
10
83.6393
20
-150.015
11
83.925
21
-149.872
0
LINE
8
Black
10
83.925
20
-149.872
11
84.3536
21
-149.872
0
LINE
8
Black
10
84.3536
20
-149.872
11
84.6393
21
-150.015
0
LINE
8
Black
10
84.6393
20
-150.015
11
84.7821
21
-150.158
0
LINE
8
Black
10
84.7821
20
-150.158
11
84.925
21
-150.444
0
LINE
8
Black
10
84.925
20
-150.444
11
84.925
21
-151.301
0
LINE
8
Black
10
84.925
20
-151.301
11
84.7821
21
-151.586
0
LINE
8
Black
10
84.7821
20
-151.586
11
84.6393
21
-151.729
0
LINE
8
Black
10
84.6393
20
-151.729
11
84.3536
21
-151.872
0
LINE
8
Black
10
84.3536
20
-151.872
11
83.925
21
-151.872
0
LINE
8
Black
10
86.6393
20
-151.872
11
86.3536
21
-151.729
0
LINE
8
Black
10
86.3536
20
-151.729
11
86.2107
21
-151.444
0
LINE
8
Black
10
86.2107
20
-151.444
11
86.2107
21
-148.872
0
LINE
8
Black
10
88.925
20
-151.729
11
88.6393
21
-151.872
0
LINE
8
Black
10
88.6393
20
-151.872
11
88.0679
21
-151.872
0
LINE
8
Black
10
88.0679
20
-151.872
11
87.7821
21
-151.729
0
LINE
8
Black
10
87.7821
20
-151.729
11
87.6393
21
-151.444
0
LINE
8
Black
10
87.6393
20
-151.444
11
87.6393
21
-150.301
0
LINE
8
Black
10
87.6393
20
-150.301
11
87.7821
21
-150.015
0
LINE
8
Black
10
87.7821
20
-150.015
11
88.0679
21
-149.872
0
LINE
8
Black
10
88.0679
20
-149.872
11
88.6393
21
-149.872
0
LINE
8
Black
10
88.6393
20
-149.872
11
88.925
21
-150.015
0
LINE
8
Black
10
88.925
20
-150.015
11
89.0679
21
-150.301
0
LINE
8
Black
10
89.0679
20
-150.301
11
89.0679
21
-150.586
0
LINE
8
Black
10
89.0679
20
-150.586
11
87.6393
21
-150.872
0
LINE
8
Black
10
90.2107
20
-151.729
11
90.4964
21
-151.872
0
LINE
8
Black
10
90.4964
20
-151.872
11
91.0679
21
-151.872
0
LINE
8
Black
10
91.0679
20
-151.872
11
91.3536
21
-151.729
0
LINE
8
Black
10
91.3536
20
-151.729
11
91.4964
21
-151.444
0
LINE
8
Black
10
91.4964
20
-151.444
11
91.4964
21
-151.301
0
LINE
8
Black
10
91.4964
20
-151.301
11
91.3536
21
-151.015
0
LINE
8
Black
10
91.3536
20
-151.015
11
91.0679
21
-150.872
0
LINE
8
Black
10
91.0679
20
-150.872
11
90.6393
21
-150.872
0
LINE
8
Black
10
90.6393
20
-150.872
11
90.3536
21
-150.729
0
LINE
8
Black
10
90.3536
20
-150.729
11
90.2107
21
-150.444
0
LINE
8
Black
10
90.2107
20
-150.444
11
90.2107
21
-150.301
0
LINE
8
Black
10
90.2107
20
-150.301
11
90.3536
21
-150.015
0
LINE
8
Black
10
90.3536
20
-150.015
11
90.6393
21
-149.872
0
LINE
8
Black
10
90.6393
20
-149.872
11
91.0679
21
-149.872
0
LINE
8
Black
10
91.0679
20
-149.872
11
91.3536
21
-150.015
0
LINE
8
Black
10
92.4964
20
-153.015
11
92.6393
21
-152.872
0
LINE
8
Black
10
92.6393
20
-152.872
11
92.925
21
-152.444
0
LINE
8
Black
10
92.925
20
-152.444
11
93.0679
21
-152.158
0
LINE
8
Black
10
93.0679
20
-152.158
11
93.2107
21
-151.729
0
LINE
8
Black
10
93.2107
20
-151.729
11
93.3536
21
-151.015
0
LINE
8
Black
10
93.3536
20
-151.015
11
93.3536
21
-150.444
0
LINE
8
Black
10
93.3536
20
-150.444
11
93.2107
21
-149.729
0
LINE
8
Black
10
93.2107
20
-149.729
11
93.0679
21
-149.301
0
LINE
8
Black
10
93.0679
20
-149.301
11
92.925
21
-149.015
0
LINE
8
Black
10
92.925
20
-149.015
11
92.6393
21
-148.586
0
LINE
8
Black
10
92.6393
20
-148.586
11
92.4964
21
-148.444
0
LINE
8
Black
10
23.225
20
-153.625
11
24.925
21
-155.325
0
LINE
8
Black
10
24.925
20
-153.625
11
23.225
21
-155.325
0
CIRCLE
8
Black
10
24.075
20
-154.475
40
0.85
0
LINE
8
Black
10
29.2107
20
-155.832
11
27.4964
21
-155.832
0
LINE
8
Black
10
28.3536
20
-155.832
11
28.3536
21
-152.832
0
LINE
8
Black
10
28.3536
20
-152.832
11
28.0679
21
-153.261
0
LINE
8
Black
10
28.0679
20
-153.261
11
27.7821
21
-153.546
0
LINE
8
Black
10
27.7821
20
-153.546
11
27.4964
21
-153.689
0
LINE
8
Black
10
30.4964
20
-155.546
11
30.6393
21
-155.689
0
LINE
8
Black
10
30.6393
20
-155.689
11
30.4964
21
-155.832
0
LINE
8
Black
10
30.4964
20
-155.832
11
30.3536
21
-155.689
0
LINE
8
Black
10
30.3536
20
-155.689
11
30.4964
21
-155.546
0
LINE
8
Black
10
30.4964
20
-155.546
11
30.4964
21
-155.832
0
LINE
8
Black
10
31.6393
20
-152.832
11
33.6393
21
-152.832
0
LINE
8
Black
10
33.6393
20
-152.832
11
32.3536
21
-155.832
0
LINE
8
Black
10
35.3536
20
-152.832
11
35.6393
21
-152.832
0
LINE
8
Black
10
35.6393
20
-152.832
11
35.925
21
-152.975
0
LINE
8
Black
10
35.925
20
-152.975
11
36.0679
21
-153.118
0
LINE
8
Black
10
36.0679
20
-153.118
11
36.2107
21
-153.404
0
LINE
8
Black
10
36.2107
20
-153.404
11
36.3536
21
-153.975
0
LINE
8
Black
10
36.3536
20
-153.975
11
36.3536
21
-154.689
0
LINE
8
Black
10
36.3536
20
-154.689
11
36.2107
21
-155.261
0
LINE
8
Black
10
36.2107
20
-155.261
11
36.0679
21
-155.546
0
LINE
8
Black
10
36.0679
20
-155.546
11
35.925
21
-155.689
0
LINE
8
Black
10
35.925
20
-155.689
11
35.6393
21
-155.832
0
LINE
8
Black
10
35.6393
20
-155.832
11
35.3536
21
-155.832
0
LINE
8
Black
10
35.3536
20
-155.832
11
35.0679
21
-155.689
0
LINE
8
Black
10
35.0679
20
-155.689
11
34.925
21
-155.546
0
LINE
8
Black
10
34.925
20
-155.546
11
34.7821
21
-155.261
0
LINE
8
Black
10
34.7821
20
-155.261
11
34.6393
21
-154.689
0
LINE
8
Black
10
34.6393
20
-154.689
11
34.6393
21
-153.975
0
LINE
8
Black
10
34.6393
20
-153.975
11
34.7821
21
-153.404
0
LINE
8
Black
10
34.7821
20
-153.404
11
34.925
21
-153.118
0
LINE
8
Black
10
34.925
20
-153.118
11
35.0679
21
-152.975
0
LINE
8
Black
10
35.0679
20
-152.975
11
35.3536
21
-152.832
0
LINE
8
Black
10
37.6393
20
-155.832
11
37.6393
21
-153.832
0
LINE
8
Black
10
37.6393
20
-154.118
11
37.7821
21
-153.975
0
LINE
8
Black
10
37.7821
20
-153.975
11
38.0679
21
-153.832
0
LINE
8
Black
10
38.0679
20
-153.832
11
38.4964
21
-153.832
0
LINE
8
Black
10
38.4964
20
-153.832
11
38.7821
21
-153.975
0
LINE
8
Black
10
38.7821
20
-153.975
11
38.925
21
-154.261
0
LINE
8
Black
10
38.925
20
-154.261
11
38.925
21
-155.832
0
LINE
8
Black
10
38.925
20
-154.261
11
39.0679
21
-153.975
0
LINE
8
Black
10
39.0679
20
-153.975
11
39.3536
21
-153.832
0
LINE
8
Black
10
39.3536
20
-153.832
11
39.7821
21
-153.832
0
LINE
8
Black
10
39.7821
20
-153.832
11
40.0679
21
-153.975
0
LINE
8
Black
10
40.0679
20
-153.975
11
40.2107
21
-154.261
0
LINE
8
Black
10
40.2107
20
-154.261
11
40.2107
21
-155.832
0
LINE
8
Black
10
41.6393
20
-155.832
11
41.6393
21
-153.832
0
LINE
8
Black
10
41.6393
20
-154.118
11
41.7821
21
-153.975
0
LINE
8
Black
10
41.7821
20
-153.975
11
42.0679
21
-153.832
0
LINE
8
Black
10
42.0679
20
-153.832
11
42.4964
21
-153.832
0
LINE
8
Black
10
42.4964
20
-153.832
11
42.7821
21
-153.975
0
LINE
8
Black
10
42.7821
20
-153.975
11
42.925
21
-154.261
0
LINE
8
Black
10
42.925
20
-154.261
11
42.925
21
-155.832
0
LINE
8
Black
10
42.925
20
-154.261
11
43.0679
21
-153.975
0
LINE
8
Black
10
43.0679
20
-153.975
11
43.3536
21
-153.832
0
LINE
8
Black
10
43.3536
20
-153.832
11
43.7821
21
-153.832
0
LINE
8
Black
10
43.7821
20
-153.832
11
44.0679
21
-153.975
0
LINE
8
Black
10
44.0679
20
-153.975
11
44.2107
21
-154.261
0
LINE
8
Black
10
44.2107
20
-154.261
11
44.2107
21
-155.832
0
LINE
8
Black
10
50.0679
20
-152.689
11
47.4964
21
-156.546
0
LINE
8
Black
10
53.925
20
-152.832
11
54.2107
21
-152.832
0
LINE
8
Black
10
54.2107
20
-152.832
11
54.4964
21
-152.975
0
LINE
8
Black
10
54.4964
20
-152.975
11
54.6393
21
-153.118
0
LINE
8
Black
10
54.6393
20
-153.118
11
54.7821
21
-153.404
0
LINE
8
Black
10
54.7821
20
-153.404
11
54.925
21
-153.975
0
LINE
8
Black
10
54.925
20
-153.975
11
54.925
21
-154.689
0
LINE
8
Black
10
54.925
20
-154.689
11
54.7821
21
-155.261
0
LINE
8
Black
10
54.7821
20
-155.261
11
54.6393
21
-155.546
0
LINE
8
Black
10
54.6393
20
-155.546
11
54.4964
21
-155.689
0
LINE
8
Black
10
54.4964
20
-155.689
11
54.2107
21
-155.832
0
LINE
8
Black
10
54.2107
20
-155.832
11
53.925
21
-155.832
0
LINE
8
Black
10
53.925
20
-155.832
11
53.6393
21
-155.689
0
LINE
8
Black
10
53.6393
20
-155.689
11
53.4964
21
-155.546
0
LINE
8
Black
10
53.4964
20
-155.546
11
53.3536
21
-155.261
0
LINE
8
Black
10
53.3536
20
-155.261
11
53.2107
21
-154.689
0
LINE
8
Black
10
53.2107
20
-154.689
11
53.2107
21
-153.975
0
LINE
8
Black
10
53.2107
20
-153.975
11
53.3536
21
-153.404
0
LINE
8
Black
10
53.3536
20
-153.404
11
53.4964
21
-153.118
0
LINE
8
Black
10
53.4964
20
-153.118
11
53.6393
21
-152.975
0
LINE
8
Black
10
53.6393
20
-152.975
11
53.925
21
-152.832
0
LINE
8
Black
10
56.2107
20
-155.546
11
56.3536
21
-155.689
0
LINE
8
Black
10
56.3536
20
-155.689
11
56.2107
21
-155.832
0
LINE
8
Black
10
56.2107
20
-155.832
11
56.0679
21
-155.689
0
LINE
8
Black
10
56.0679
20
-155.689
11
56.2107
21
-155.546
0
LINE
8
Black
10
56.2107
20
-155.546
11
56.2107
21
-155.832
0
LINE
8
Black
10
58.2107
20
-152.832
11
58.4964
21
-152.832
0
LINE
8
Black
10
58.4964
20
-152.832
11
58.7821
21
-152.975
0
LINE
8
Black
10
58.7821
20
-152.975
11
58.925
21
-153.118
0
LINE
8
Black
10
58.925
20
-153.118
11
59.0679
21
-153.404
0
LINE
8
Black
10
59.0679
20
-153.404
11
59.2107
21
-153.975
0
LINE
8
Black
10
59.2107
20
-153.975
11
59.2107
21
-154.689
0
LINE
8
Black
10
59.2107
20
-154.689
11
59.0679
21
-155.261
0
LINE
8
Black
10
59.0679
20
-155.261
11
58.925
21
-155.546
0
LINE
8
Black
10
58.925
20
-155.546
11
58.7821
21
-155.689
0
LINE
8
Black
10
58.7821
20
-155.689
11
58.4964
21
-155.832
0
LINE
8
Black
10
58.4964
20
-155.832
11
58.2107
21
-155.832
0
LINE
8
Black
10
58.2107
20
-155.832
11
57.925
21
-155.689
0
LINE
8
Black
10
57.925
20
-155.689
11
57.7821
21
-155.546
0
LINE
8
Black
10
57.7821
20
-155.546
11
57.6393
21
-155.261
0
LINE
8
Black
10
57.6393
20
-155.261
11
57.4964
21
-154.689
0
LINE
8
Black
10
57.4964
20
-154.689
11
57.4964
21
-153.975
0
LINE
8
Black
10
57.4964
20
-153.975
11
57.6393
21
-153.404
0
LINE
8
Black
10
57.6393
20
-153.404
11
57.7821
21
-153.118
0
LINE
8
Black
10
57.7821
20
-153.118
11
57.925
21
-152.975
0
LINE
8
Black
10
57.925
20
-152.975
11
58.2107
21
-152.832
0
LINE
8
Black
10
61.7821
20
-152.832
11
61.2107
21
-152.832
0
LINE
8
Black
10
61.2107
20
-152.832
11
60.925
21
-152.975
0
LINE
8
Black
10
60.925
20
-152.975
11
60.7821
21
-153.118
0
LINE
8
Black
10
60.7821
20
-153.118
11
60.4964
21
-153.546
0
LINE
8
Black
10
60.4964
20
-153.546
11
60.3536
21
-154.118
0
LINE
8
Black
10
60.3536
20
-154.118
11
60.3536
21
-155.261
0
LINE
8
Black
10
60.3536
20
-155.261
11
60.4964
21
-155.546
0
LINE
8
Black
10
60.4964
20
-155.546
11
60.6393
21
-155.689
0
LINE
8
Black
10
60.6393
20
-155.689
11
60.925
21
-155.832
0
LINE
8
Black
10
60.925
20
-155.832
11
61.4964
21
-155.832
0
LINE
8
Black
10
61.4964
20
-155.832
11
61.7821
21
-155.689
0
LINE
8
Black
10
61.7821
20
-155.689
11
61.925
21
-155.546
0
LINE
8
Black
10
61.925
20
-155.546
11
62.0679
21
-155.261
0
LINE
8
Black
10
62.0679
20
-155.261
11
62.0679
21
-154.546
0
LINE
8
Black
10
62.0679
20
-154.546
11
61.925
21
-154.261
0
LINE
8
Black
10
61.925
20
-154.261
11
61.7821
21
-154.118
0
LINE
8
Black
10
61.7821
20
-154.118
11
61.4964
21
-153.975
0
LINE
8
Black
10
61.4964
20
-153.975
11
60.925
21
-153.975
0
LINE
8
Black
10
60.925
20
-153.975
11
60.6393
21
-154.118
0
LINE
8
Black
10
60.6393
20
-154.118
11
60.4964
21
-154.261
0
LINE
8
Black
10
60.4964
20
-154.261
11
60.3536
21
-154.546
0
LINE
8
Black
10
63.0679
20
-152.832
11
65.0679
21
-152.832
0
LINE
8
Black
10
65.0679
20
-152.832
11
63.7821
21
-155.832
0
LINE
8
Black
10
66.0679
20
-152.832
11
66.0679
21
-153.404
0
LINE
8
Black
10
67.2107
20
-152.832
11
67.2107
21
-153.404
0
LINE
8
Black
10
71.6393
20
-156.975
11
71.4964
21
-156.832
0
LINE
8
Black
10
71.4964
20
-156.832
11
71.2107
21
-156.404
0
LINE
8
Black
10
71.2107
20
-156.404
11
71.0679
21
-156.118
0
LINE
8
Black
10
71.0679
20
-156.118
11
70.925
21
-155.689
0
LINE
8
Black
10
70.925
20
-155.689
11
70.7821
21
-154.975
0
LINE
8
Black
10
70.7821
20
-154.975
11
70.7821
21
-154.404
0
LINE
8
Black
10
70.7821
20
-154.404
11
70.925
21
-153.689
0
LINE
8
Black
10
70.925
20
-153.689
11
71.0679
21
-153.261
0
LINE
8
Black
10
71.0679
20
-153.261
11
71.2107
21
-152.975
0
LINE
8
Black
10
71.2107
20
-152.975
11
71.4964
21
-152.546
0
LINE
8
Black
10
71.4964
20
-152.546
11
71.6393
21
-152.404
0
LINE
8
Black
10
73.2107
20
-154.118
11
72.925
21
-153.975
0
LINE
8
Black
10
72.925
20
-153.975
11
72.7821
21
-153.832
0
LINE
8
Black
10
72.7821
20
-153.832
11
72.6393
21
-153.546
0
LINE
8
Black
10
72.6393
20
-153.546
11
72.6393
21
-153.404
0
LINE
8
Black
10
72.6393
20
-153.404
11
72.7821
21
-153.118
0
LINE
8
Black
10
72.7821
20
-153.118
11
72.925
21
-152.975
0
LINE
8
Black
10
72.925
20
-152.975
11
73.2107
21
-152.832
0
LINE
8
Black
10
73.2107
20
-152.832
11
73.7821
21
-152.832
0
LINE
8
Black
10
73.7821
20
-152.832
11
74.0679
21
-152.975
0
LINE
8
Black
10
74.0679
20
-152.975
11
74.2107
21
-153.118
0
LINE
8
Black
10
74.2107
20
-153.118
11
74.3536
21
-153.404
0
LINE
8
Black
10
74.3536
20
-153.404
11
74.3536
21
-153.546
0
LINE
8
Black
10
74.3536
20
-153.546
11
74.2107
21
-153.832
0
LINE
8
Black
10
74.2107
20
-153.832
11
74.0679
21
-153.975
0
LINE
8
Black
10
74.0679
20
-153.975
11
73.7821
21
-154.118
0
LINE
8
Black
10
73.7821
20
-154.118
11
73.2107
21
-154.118
0
LINE
8
Black
10
73.2107
20
-154.118
11
72.925
21
-154.261
0
LINE
8
Black
10
72.925
20
-154.261
11
72.7821
21
-154.404
0
LINE
8
Black
10
72.7821
20
-154.404
11
72.6393
21
-154.689
0
LINE
8
Black
10
72.6393
20
-154.689
11
72.6393
21
-155.261
0
LINE
8
Black
10
72.6393
20
-155.261
11
72.7821
21
-155.546
0
LINE
8
Black
10
72.7821
20
-155.546
11
72.925
21
-155.689
0
LINE
8
Black
10
72.925
20
-155.689
11
73.2107
21
-155.832
0
LINE
8
Black
10
73.2107
20
-155.832
11
73.7821
21
-155.832
0
LINE
8
Black
10
73.7821
20
-155.832
11
74.0679
21
-155.689
0
LINE
8
Black
10
74.0679
20
-155.689
11
74.2107
21
-155.546
0
LINE
8
Black
10
74.2107
20
-155.546
11
74.3536
21
-155.261
0
LINE
8
Black
10
74.3536
20
-155.261
11
74.3536
21
-154.689
0
LINE
8
Black
10
74.3536
20
-154.689
11
74.2107
21
-154.404
0
LINE
8
Black
10
74.2107
20
-154.404
11
74.0679
21
-154.261
0
LINE
8
Black
10
74.0679
20
-154.261
11
73.7821
21
-154.118
0
LINE
8
Black
10
77.925
20
-155.832
11
77.925
21
-152.832
0
LINE
8
Black
10
79.2107
20
-155.832
11
79.2107
21
-154.261
0
LINE
8
Black
10
79.2107
20
-154.261
11
79.0679
21
-153.975
0
LINE
8
Black
10
79.0679
20
-153.975
11
78.7821
21
-153.832
0
LINE
8
Black
10
78.7821
20
-153.832
11
78.3536
21
-153.832
0
LINE
8
Black
10
78.3536
20
-153.832
11
78.0679
21
-153.975
0
LINE
8
Black
10
78.0679
20
-153.975
11
77.925
21
-154.118
0
LINE
8
Black
10
81.0679
20
-155.832
11
80.7821
21
-155.689
0
LINE
8
Black
10
80.7821
20
-155.689
11
80.6393
21
-155.546
0
LINE
8
Black
10
80.6393
20
-155.546
11
80.4964
21
-155.261
0
LINE
8
Black
10
80.4964
20
-155.261
11
80.4964
21
-154.404
0
LINE
8
Black
10
80.4964
20
-154.404
11
80.6393
21
-154.118
0
LINE
8
Black
10
80.6393
20
-154.118
11
80.7821
21
-153.975
0
LINE
8
Black
10
80.7821
20
-153.975
11
81.0679
21
-153.832
0
LINE
8
Black
10
81.0679
20
-153.832
11
81.4964
21
-153.832
0
LINE
8
Black
10
81.4964
20
-153.832
11
81.7821
21
-153.975
0
LINE
8
Black
10
81.7821
20
-153.975
11
81.925
21
-154.118
0
LINE
8
Black
10
81.925
20
-154.118
11
82.0679
21
-154.404
0
LINE
8
Black
10
82.0679
20
-154.404
11
82.0679
21
-155.261
0
LINE
8
Black
10
82.0679
20
-155.261
11
81.925
21
-155.546
0
LINE
8
Black
10
81.925
20
-155.546
11
81.7821
21
-155.689
0
LINE
8
Black
10
81.7821
20
-155.689
11
81.4964
21
-155.832
0
LINE
8
Black
10
81.4964
20
-155.832
11
81.0679
21
-155.832
0
LINE
8
Black
10
83.7821
20
-155.832
11
83.4964
21
-155.689
0
LINE
8
Black
10
83.4964
20
-155.689
11
83.3536
21
-155.404
0
LINE
8
Black
10
83.3536
20
-155.404
11
83.3536
21
-152.832
0
LINE
8
Black
10
86.0679
20
-155.689
11
85.7821
21
-155.832
0
LINE
8
Black
10
85.7821
20
-155.832
11
85.2107
21
-155.832
0
LINE
8
Black
10
85.2107
20
-155.832
11
84.925
21
-155.689
0
LINE
8
Black
10
84.925
20
-155.689
11
84.7821
21
-155.404
0
LINE
8
Black
10
84.7821
20
-155.404
11
84.7821
21
-154.261
0
LINE
8
Black
10
84.7821
20
-154.261
11
84.925
21
-153.975
0
LINE
8
Black
10
84.925
20
-153.975
11
85.2107
21
-153.832
0
LINE
8
Black
10
85.2107
20
-153.832
11
85.7821
21
-153.832
0
LINE
8
Black
10
85.7821
20
-153.832
11
86.0679
21
-153.975
0
LINE
8
Black
10
86.0679
20
-153.975
11
86.2107
21
-154.261
0
LINE
8
Black
10
86.2107
20
-154.261
11
86.2107
21
-154.546
0
LINE
8
Black
10
86.2107
20
-154.546
11
84.7821
21
-154.832
0
LINE
8
Black
10
87.3536
20
-155.689
11
87.6393
21
-155.832
0
LINE
8
Black
10
87.6393
20
-155.832
11
88.2107
21
-155.832
0
LINE
8
Black
10
88.2107
20
-155.832
11
88.4964
21
-155.689
0
LINE
8
Black
10
88.4964
20
-155.689
11
88.6393
21
-155.404
0
LINE
8
Black
10
88.6393
20
-155.404
11
88.6393
21
-155.261
0
LINE
8
Black
10
88.6393
20
-155.261
11
88.4964
21
-154.975
0
LINE
8
Black
10
88.4964
20
-154.975
11
88.2107
21
-154.832
0
LINE
8
Black
10
88.2107
20
-154.832
11
87.7821
21
-154.832
0
LINE
8
Black
10
87.7821
20
-154.832
11
87.4964
21
-154.689
0
LINE
8
Black
10
87.4964
20
-154.689
11
87.3536
21
-154.404
0
LINE
8
Black
10
87.3536
20
-154.404
11
87.3536
21
-154.261
0
LINE
8
Black
10
87.3536
20
-154.261
11
87.4964
21
-153.975
0
LINE
8
Black
10
87.4964
20
-153.975
11
87.7821
21
-153.832
0
LINE
8
Black
10
87.7821
20
-153.832
11
88.2107
21
-153.832
0
LINE
8
Black
10
88.2107
20
-153.832
11
88.4964
21
-153.975
0
LINE
8
Black
10
89.6393
20
-156.975
11
89.7821
21
-156.832
0
LINE
8
Black
10
89.7821
20
-156.832
11
90.0679
21
-156.404
0
LINE
8
Black
10
90.0679
20
-156.404
11
90.2107
21
-156.118
0
LINE
8
Black
10
90.2107
20
-156.118
11
90.3536
21
-155.689
0
LINE
8
Black
10
90.3536
20
-155.689
11
90.4964
21
-154.975
0
LINE
8
Black
10
90.4964
20
-154.975
11
90.4964
21
-154.404
0
LINE
8
Black
10
90.4964
20
-154.404
11
90.3536
21
-153.689
0
LINE
8
Black
10
90.3536
20
-153.689
11
90.2107
21
-153.261
0
LINE
8
Black
10
90.2107
20
-153.261
11
90.0679
21
-152.975
0
LINE
8
Black
10
90.0679
20
-152.975
11
89.7821
21
-152.546
0
LINE
8
Black
10
89.7821
20
-152.546
11
89.6393
21
-152.404
0
LINE
8
Black
10
21.75
20
-156.848
11
24.925
21
-160.023
0
LINE
8
Black
10
24.925
20
-156.848
11
21.75
21
-160.023
0
LINE
8
Black
10
23.3375
20
-156.848
11
23.3375
21
-160.023
0
LINE
8
Black
10
21.75
20
-158.435
11
24.925
21
-158.435
0
LINE
8
Black
10
27.3536
20
-156.792
11
29.2107
21
-156.792
0
LINE
8
Black
10
29.2107
20
-156.792
11
28.2107
21
-157.935
0
LINE
8
Black
10
28.2107
20
-157.935
11
28.6393
21
-157.935
0
LINE
8
Black
10
28.6393
20
-157.935
11
28.925
21
-158.078
0
LINE
8
Black
10
28.925
20
-158.078
11
29.0679
21
-158.221
0
LINE
8
Black
10
29.0679
20
-158.221
11
29.2107
21
-158.506
0
LINE
8
Black
10
29.2107
20
-158.506
11
29.2107
21
-159.221
0
LINE
8
Black
10
29.2107
20
-159.221
11
29.0679
21
-159.506
0
LINE
8
Black
10
29.0679
20
-159.506
11
28.925
21
-159.649
0
LINE
8
Black
10
28.925
20
-159.649
11
28.6393
21
-159.792
0
LINE
8
Black
10
28.6393
20
-159.792
11
27.7821
21
-159.792
0
LINE
8
Black
10
27.7821
20
-159.792
11
27.4964
21
-159.649
0
LINE
8
Black
10
27.4964
20
-159.649
11
27.3536
21
-159.506
0
LINE
8
Black
10
30.4964
20
-159.506
11
30.6393
21
-159.649
0
LINE
8
Black
10
30.6393
20
-159.649
11
30.4964
21
-159.792
0
LINE
8
Black
10
30.4964
20
-159.792
11
30.3536
21
-159.649
0
LINE
8
Black
10
30.3536
20
-159.649
11
30.4964
21
-159.506
0
LINE
8
Black
10
30.4964
20
-159.506
11
30.4964
21
-159.792
0
LINE
8
Black
10
33.4964
20
-159.792
11
31.7821
21
-159.792
0
LINE
8
Black
10
32.6393
20
-159.792
11
32.6393
21
-156.792
0
LINE
8
Black
10
32.6393
20
-156.792
11
32.3536
21
-157.221
0
LINE
8
Black
10
32.3536
20
-157.221
11
32.0679
21
-157.506
0
LINE
8
Black
10
32.0679
20
-157.506
11
31.7821
21
-157.649
0
LINE
8
Black
10
34.4964
20
-156.792
11
36.4964
21
-156.792
0
LINE
8
Black
10
36.4964
20
-156.792
11
35.2107
21
-159.792
0
LINE
8
Black
10
37.6393
20
-159.792
11
37.6393
21
-157.792
0
LINE
8
Black
10
37.6393
20
-158.078
11
37.7821
21
-157.935
0
LINE
8
Black
10
37.7821
20
-157.935
11
38.0679
21
-157.792
0
LINE
8
Black
10
38.0679
20
-157.792
11
38.4964
21
-157.792
0
LINE
8
Black
10
38.4964
20
-157.792
11
38.7821
21
-157.935
0
LINE
8
Black
10
38.7821
20
-157.935
11
38.925
21
-158.221
0
LINE
8
Black
10
38.925
20
-158.221
11
38.925
21
-159.792
0
LINE
8
Black
10
38.925
20
-158.221
11
39.0679
21
-157.935
0
LINE
8
Black
10
39.0679
20
-157.935
11
39.3536
21
-157.792
0
LINE
8
Black
10
39.3536
20
-157.792
11
39.7821
21
-157.792
0
LINE
8
Black
10
39.7821
20
-157.792
11
40.0679
21
-157.935
0
LINE
8
Black
10
40.0679
20
-157.935
11
40.2107
21
-158.221
0
LINE
8
Black
10
40.2107
20
-158.221
11
40.2107
21
-159.792
0
LINE
8
Black
10
41.6393
20
-159.792
11
41.6393
21
-157.792
0
LINE
8
Black
10
41.6393
20
-158.078
11
41.7821
21
-157.935
0
LINE
8
Black
10
41.7821
20
-157.935
11
42.0679
21
-157.792
0
LINE
8
Black
10
42.0679
20
-157.792
11
42.4964
21
-157.792
0
LINE
8
Black
10
42.4964
20
-157.792
11
42.7821
21
-157.935
0
LINE
8
Black
10
42.7821
20
-157.935
11
42.925
21
-158.221
0
LINE
8
Black
10
42.925
20
-158.221
11
42.925
21
-159.792
0
LINE
8
Black
10
42.925
20
-158.221
11
43.0679
21
-157.935
0
LINE
8
Black
10
43.0679
20
-157.935
11
43.3536
21
-157.792
0
LINE
8
Black
10
43.3536
20
-157.792
11
43.7821
21
-157.792
0
LINE
8
Black
10
43.7821
20
-157.792
11
44.0679
21
-157.935
0
LINE
8
Black
10
44.0679
20
-157.935
11
44.2107
21
-158.221
0
LINE
8
Black
10
44.2107
20
-158.221
11
44.2107
21
-159.792
0
LINE
8
Black
10
50.0679
20
-156.649
11
47.4964
21
-160.506
0
LINE
8
Black
10
53.925
20
-156.792
11
54.2107
21
-156.792
0
LINE
8
Black
10
54.2107
20
-156.792
11
54.4964
21
-156.935
0
LINE
8
Black
10
54.4964
20
-156.935
11
54.6393
21
-157.078
0
LINE
8
Black
10
54.6393
20
-157.078
11
54.7821
21
-157.364
0
LINE
8
Black
10
54.7821
20
-157.364
11
54.925
21
-157.935
0
LINE
8
Black
10
54.925
20
-157.935
11
54.925
21
-158.649
0
LINE
8
Black
10
54.925
20
-158.649
11
54.7821
21
-159.221
0
LINE
8
Black
10
54.7821
20
-159.221
11
54.6393
21
-159.506
0
LINE
8
Black
10
54.6393
20
-159.506
11
54.4964
21
-159.649
0
LINE
8
Black
10
54.4964
20
-159.649
11
54.2107
21
-159.792
0
LINE
8
Black
10
54.2107
20
-159.792
11
53.925
21
-159.792
0
LINE
8
Black
10
53.925
20
-159.792
11
53.6393
21
-159.649
0
LINE
8
Black
10
53.6393
20
-159.649
11
53.4964
21
-159.506
0
LINE
8
Black
10
53.4964
20
-159.506
11
53.3536
21
-159.221
0
LINE
8
Black
10
53.3536
20
-159.221
11
53.2107
21
-158.649
0
LINE
8
Black
10
53.2107
20
-158.649
11
53.2107
21
-157.935
0
LINE
8
Black
10
53.2107
20
-157.935
11
53.3536
21
-157.364
0
LINE
8
Black
10
53.3536
20
-157.364
11
53.4964
21
-157.078
0
LINE
8
Black
10
53.4964
20
-157.078
11
53.6393
21
-156.935
0
LINE
8
Black
10
53.6393
20
-156.935
11
53.925
21
-156.792
0
LINE
8
Black
10
56.2107
20
-159.506
11
56.3536
21
-159.649
0
LINE
8
Black
10
56.3536
20
-159.649
11
56.2107
21
-159.792
0
LINE
8
Black
10
56.2107
20
-159.792
11
56.0679
21
-159.649
0
LINE
8
Black
10
56.0679
20
-159.649
11
56.2107
21
-159.506
0
LINE
8
Black
10
56.2107
20
-159.506
11
56.2107
21
-159.792
0
LINE
8
Black
10
59.2107
20
-159.792
11
57.4964
21
-159.792
0
LINE
8
Black
10
58.3536
20
-159.792
11
58.3536
21
-156.792
0
LINE
8
Black
10
58.3536
20
-156.792
11
58.0679
21
-157.221
0
LINE
8
Black
10
58.0679
20
-157.221
11
57.7821
21
-157.506
0
LINE
8
Black
10
57.7821
20
-157.506
11
57.4964
21
-157.649
0
LINE
8
Black
10
60.3536
20
-157.078
11
60.4964
21
-156.935
0
LINE
8
Black
10
60.4964
20
-156.935
11
60.7821
21
-156.792
0
LINE
8
Black
10
60.7821
20
-156.792
11
61.4964
21
-156.792
0
LINE
8
Black
10
61.4964
20
-156.792
11
61.7821
21
-156.935
0
LINE
8
Black
10
61.7821
20
-156.935
11
61.925
21
-157.078
0
LINE
8
Black
10
61.925
20
-157.078
11
62.0679
21
-157.364
0
LINE
8
Black
10
62.0679
20
-157.364
11
62.0679
21
-157.649
0
LINE
8
Black
10
62.0679
20
-157.649
11
61.925
21
-158.078
0
LINE
8
Black
10
61.925
20
-158.078
11
60.2107
21
-159.792
0
LINE
8
Black
10
60.2107
20
-159.792
11
62.0679
21
-159.792
0
LINE
8
Black
10
64.7821
20
-156.792
11
63.3536
21
-156.792
0
LINE
8
Black
10
63.3536
20
-156.792
11
63.2107
21
-158.221
0
LINE
8
Black
10
63.2107
20
-158.221
11
63.3536
21
-158.078
0
LINE
8
Black
10
63.3536
20
-158.078
11
63.6393
21
-157.935
0
LINE
8
Black
10
63.6393
20
-157.935
11
64.3536
21
-157.935
0
LINE
8
Black
10
64.3536
20
-157.935
11
64.6393
21
-158.078
0
LINE
8
Black
10
64.6393
20
-158.078
11
64.7821
21
-158.221
0
LINE
8
Black
10
64.7821
20
-158.221
11
64.925
21
-158.506
0
LINE
8
Black
10
64.925
20
-158.506
11
64.925
21
-159.221
0
LINE
8
Black
10
64.925
20
-159.221
11
64.7821
21
-159.506
0
LINE
8
Black
10
64.7821
20
-159.506
11
64.6393
21
-159.649
0
LINE
8
Black
10
64.6393
20
-159.649
11
64.3536
21
-159.792
0
LINE
8
Black
10
64.3536
20
-159.792
11
63.6393
21
-159.792
0
LINE
8
Black
10
63.6393
20
-159.792
11
63.3536
21
-159.649
0
LINE
8
Black
10
63.3536
20
-159.649
11
63.2107
21
-159.506
0
LINE
8
Black
10
66.0679
20
-156.792
11
66.0679
21
-157.364
0
LINE
8
Black
10
67.2107
20
-156.792
11
67.2107
21
-157.364
0
LINE
8
Black
10
71.6393
20
-160.935
11
71.4964
21
-160.792
0
LINE
8
Black
10
71.4964
20
-160.792
11
71.2107
21
-160.364
0
LINE
8
Black
10
71.2107
20
-160.364
11
71.0679
21
-160.078
0
LINE
8
Black
10
71.0679
20
-160.078
11
70.925
21
-159.649
0
LINE
8
Black
10
70.925
20
-159.649
11
70.7821
21
-158.935
0
LINE
8
Black
10
70.7821
20
-158.935
11
70.7821
21
-158.364
0
LINE
8
Black
10
70.7821
20
-158.364
11
70.925
21
-157.649
0
LINE
8
Black
10
70.925
20
-157.649
11
71.0679
21
-157.221
0
LINE
8
Black
10
71.0679
20
-157.221
11
71.2107
21
-156.935
0
LINE
8
Black
10
71.2107
20
-156.935
11
71.4964
21
-156.506
0
LINE
8
Black
10
71.4964
20
-156.506
11
71.6393
21
-156.364
0
LINE
8
Black
10
72.6393
20
-157.078
11
72.7821
21
-156.935
0
LINE
8
Black
10
72.7821
20
-156.935
11
73.0679
21
-156.792
0
LINE
8
Black
10
73.0679
20
-156.792
11
73.7821
21
-156.792
0
LINE
8
Black
10
73.7821
20
-156.792
11
74.0679
21
-156.935
0
LINE
8
Black
10
74.0679
20
-156.935
11
74.2107
21
-157.078
0
LINE
8
Black
10
74.2107
20
-157.078
11
74.3536
21
-157.364
0
LINE
8
Black
10
74.3536
20
-157.364
11
74.3536
21
-157.649
0
LINE
8
Black
10
74.3536
20
-157.649
11
74.2107
21
-158.078
0
LINE
8
Black
10
74.2107
20
-158.078
11
72.4964
21
-159.792
0
LINE
8
Black
10
72.4964
20
-159.792
11
74.3536
21
-159.792
0
LINE
8
Black
10
77.925
20
-159.792
11
77.925
21
-156.792
0
LINE
8
Black
10
79.2107
20
-159.792
11
79.2107
21
-158.221
0
LINE
8
Black
10
79.2107
20
-158.221
11
79.0679
21
-157.935
0
LINE
8
Black
10
79.0679
20
-157.935
11
78.7821
21
-157.792
0
LINE
8
Black
10
78.7821
20
-157.792
11
78.3536
21
-157.792
0
LINE
8
Black
10
78.3536
20
-157.792
11
78.0679
21
-157.935
0
LINE
8
Black
10
78.0679
20
-157.935
11
77.925
21
-158.078
0
LINE
8
Black
10
81.0679
20
-159.792
11
80.7821
21
-159.649
0
LINE
8
Black
10
80.7821
20
-159.649
11
80.6393
21
-159.506
0
LINE
8
Black
10
80.6393
20
-159.506
11
80.4964
21
-159.221
0
LINE
8
Black
10
80.4964
20
-159.221
11
80.4964
21
-158.364
0
LINE
8
Black
10
80.4964
20
-158.364
11
80.6393
21
-158.078
0
LINE
8
Black
10
80.6393
20
-158.078
11
80.7821
21
-157.935
0
LINE
8
Black
10
80.7821
20
-157.935
11
81.0679
21
-157.792
0
LINE
8
Black
10
81.0679
20
-157.792
11
81.4964
21
-157.792
0
LINE
8
Black
10
81.4964
20
-157.792
11
81.7821
21
-157.935
0
LINE
8
Black
10
81.7821
20
-157.935
11
81.925
21
-158.078
0
LINE
8
Black
10
81.925
20
-158.078
11
82.0679
21
-158.364
0
LINE
8
Black
10
82.0679
20
-158.364
11
82.0679
21
-159.221
0
LINE
8
Black
10
82.0679
20
-159.221
11
81.925
21
-159.506
0
LINE
8
Black
10
81.925
20
-159.506
11
81.7821
21
-159.649
0
LINE
8
Black
10
81.7821
20
-159.649
11
81.4964
21
-159.792
0
LINE
8
Black
10
81.4964
20
-159.792
11
81.0679
21
-159.792
0
LINE
8
Black
10
83.7821
20
-159.792
11
83.4964
21
-159.649
0
LINE
8
Black
10
83.4964
20
-159.649
11
83.3536
21
-159.364
0
LINE
8
Black
10
83.3536
20
-159.364
11
83.3536
21
-156.792
0
LINE
8
Black
10
86.0679
20
-159.649
11
85.7821
21
-159.792
0
LINE
8
Black
10
85.7821
20
-159.792
11
85.2107
21
-159.792
0
LINE
8
Black
10
85.2107
20
-159.792
11
84.925
21
-159.649
0
LINE
8
Black
10
84.925
20
-159.649
11
84.7821
21
-159.364
0
LINE
8
Black
10
84.7821
20
-159.364
11
84.7821
21
-158.221
0
LINE
8
Black
10
84.7821
20
-158.221
11
84.925
21
-157.935
0
LINE
8
Black
10
84.925
20
-157.935
11
85.2107
21
-157.792
0
LINE
8
Black
10
85.2107
20
-157.792
11
85.7821
21
-157.792
0
LINE
8
Black
10
85.7821
20
-157.792
11
86.0679
21
-157.935
0
LINE
8
Black
10
86.0679
20
-157.935
11
86.2107
21
-158.221
0
LINE
8
Black
10
86.2107
20
-158.221
11
86.2107
21
-158.506
0
LINE
8
Black
10
86.2107
20
-158.506
11
84.7821
21
-158.792
0
LINE
8
Black
10
87.3536
20
-159.649
11
87.6393
21
-159.792
0
LINE
8
Black
10
87.6393
20
-159.792
11
88.2107
21
-159.792
0
LINE
8
Black
10
88.2107
20
-159.792
11
88.4964
21
-159.649
0
LINE
8
Black
10
88.4964
20
-159.649
11
88.6393
21
-159.364
0
LINE
8
Black
10
88.6393
20
-159.364
11
88.6393
21
-159.221
0
LINE
8
Black
10
88.6393
20
-159.221
11
88.4964
21
-158.935
0
LINE
8
Black
10
88.4964
20
-158.935
11
88.2107
21
-158.792
0
LINE
8
Black
10
88.2107
20
-158.792
11
87.7821
21
-158.792
0
LINE
8
Black
10
87.7821
20
-158.792
11
87.4964
21
-158.649
0
LINE
8
Black
10
87.4964
20
-158.649
11
87.3536
21
-158.364
0
LINE
8
Black
10
87.3536
20
-158.364
11
87.3536
21
-158.221
0
LINE
8
Black
10
87.3536
20
-158.221
11
87.4964
21
-157.935
0
LINE
8
Black
10
87.4964
20
-157.935
11
87.7821
21
-157.792
0
LINE
8
Black
10
87.7821
20
-157.792
11
88.2107
21
-157.792
0
LINE
8
Black
10
88.2107
20
-157.792
11
88.4964
21
-157.935
0
LINE
8
Black
10
89.6393
20
-160.935
11
89.7821
21
-160.792
0
LINE
8
Black
10
89.7821
20
-160.792
11
90.0679
21
-160.364
0
LINE
8
Black
10
90.0679
20
-160.364
11
90.2107
21
-160.078
0
LINE
8
Black
10
90.2107
20
-160.078
11
90.3536
21
-159.649
0
LINE
8
Black
10
90.3536
20
-159.649
11
90.4964
21
-158.935
0
LINE
8
Black
10
90.4964
20
-158.935
11
90.4964
21
-158.364
0
LINE
8
Black
10
90.4964
20
-158.364
11
90.3536
21
-157.649
0
LINE
8
Black
10
90.3536
20
-157.649
11
90.2107
21
-157.221
0
LINE
8
Black
10
90.2107
20
-157.221
11
90.0679
21
-156.935
0
LINE
8
Black
10
90.0679
20
-156.935
11
89.7821
21
-156.506
0
LINE
8
Black
10
89.7821
20
-156.506
11
89.6393
21
-156.364
0
LINE
8
Black
10
95.0679
20
-160.935
11
94.925
21
-160.792
0
LINE
8
Black
10
94.925
20
-160.792
11
94.6393
21
-160.364
0
LINE
8
Black
10
94.6393
20
-160.364
11
94.4964
21
-160.078
0
LINE
8
Black
10
94.4964
20
-160.078
11
94.3536
21
-159.649
0
LINE
8
Black
10
94.3536
20
-159.649
11
94.2107
21
-158.935
0
LINE
8
Black
10
94.2107
20
-158.935
11
94.2107
21
-158.364
0
LINE
8
Black
10
94.2107
20
-158.364
11
94.3536
21
-157.649
0
LINE
8
Black
10
94.3536
20
-157.649
11
94.4964
21
-157.221
0
LINE
8
Black
10
94.4964
20
-157.221
11
94.6393
21
-156.935
0
LINE
8
Black
10
94.6393
20
-156.935
11
94.925
21
-156.506
0
LINE
8
Black
10
94.925
20
-156.506
11
95.0679
21
-156.364
0
LINE
8
Black
10
96.2107
20
-157.792
11
96.2107
21
-159.792
0
LINE
8
Black
10
96.2107
20
-158.078
11
96.3536
21
-157.935
0
LINE
8
Black
10
96.3536
20
-157.935
11
96.6393
21
-157.792
0
LINE
8
Black
10
96.6393
20
-157.792
11
97.0679
21
-157.792
0
LINE
8
Black
10
97.0679
20
-157.792
11
97.3536
21
-157.935
0
LINE
8
Black
10
97.3536
20
-157.935
11
97.4964
21
-158.221
0
LINE
8
Black
10
97.4964
20
-158.221
11
97.4964
21
-159.792
0
LINE
8
Black
10
99.3536
20
-159.792
11
99.0679
21
-159.649
0
LINE
8
Black
10
99.0679
20
-159.649
11
98.925
21
-159.506
0
LINE
8
Black
10
98.925
20
-159.506
11
98.7821
21
-159.221
0
LINE
8
Black
10
98.7821
20
-159.221
11
98.7821
21
-158.364
0
LINE
8
Black
10
98.7821
20
-158.364
11
98.925
21
-158.078
0
LINE
8
Black
10
98.925
20
-158.078
11
99.0679
21
-157.935
0
LINE
8
Black
10
99.0679
20
-157.935
11
99.3536
21
-157.792
0
LINE
8
Black
10
99.3536
20
-157.792
11
99.7821
21
-157.792
0
LINE
8
Black
10
99.7821
20
-157.792
11
100.068
21
-157.935
0
LINE
8
Black
10
100.068
20
-157.935
11
100.211
21
-158.078
0
LINE
8
Black
10
100.211
20
-158.078
11
100.354
21
-158.364
0
LINE
8
Black
10
100.354
20
-158.364
11
100.354
21
-159.221
0
LINE
8
Black
10
100.354
20
-159.221
11
100.211
21
-159.506
0
LINE
8
Black
10
100.211
20
-159.506
11
100.068
21
-159.649
0
LINE
8
Black
10
100.068
20
-159.649
11
99.7821
21
-159.792
0
LINE
8
Black
10
99.7821
20
-159.792
11
99.3536
21
-159.792
0
LINE
8
Black
10
101.211
20
-157.792
11
102.354
21
-157.792
0
LINE
8
Black
10
101.639
20
-156.792
11
101.639
21
-159.364
0
LINE
8
Black
10
101.639
20
-159.364
11
101.782
21
-159.649
0
LINE
8
Black
10
101.782
20
-159.649
11
102.068
21
-159.792
0
LINE
8
Black
10
102.068
20
-159.792
11
102.354
21
-159.792
0
LINE
8
Black
10
105.639
20
-157.792
11
105.639
21
-160.792
0
LINE
8
Black
10
105.639
20
-157.935
11
105.925
21
-157.792
0
LINE
8
Black
10
105.925
20
-157.792
11
106.496
21
-157.792
0
LINE
8
Black
10
106.496
20
-157.792
11
106.782
21
-157.935
0
LINE
8
Black
10
106.782
20
-157.935
11
106.925
21
-158.078
0
LINE
8
Black
10
106.925
20
-158.078
11
107.068
21
-158.364
0
LINE
8
Black
10
107.068
20
-158.364
11
107.068
21
-159.221
0
LINE
8
Black
10
107.068
20
-159.221
11
106.925
21
-159.506
0
LINE
8
Black
10
106.925
20
-159.506
11
106.782
21
-159.649
0
LINE
8
Black
10
106.782
20
-159.649
11
106.496
21
-159.792
0
LINE
8
Black
10
106.496
20
-159.792
11
105.925
21
-159.792
0
LINE
8
Black
10
105.925
20
-159.792
11
105.639
21
-159.649
0
LINE
8
Black
10
108.782
20
-159.792
11
108.496
21
-159.649
0
LINE
8
Black
10
108.496
20
-159.649
11
108.354
21
-159.364
0
LINE
8
Black
10
108.354
20
-159.364
11
108.354
21
-156.792
0
LINE
8
Black
10
111.211
20
-159.792
11
111.211
21
-158.221
0
LINE
8
Black
10
111.211
20
-158.221
11
111.068
21
-157.935
0
LINE
8
Black
10
111.068
20
-157.935
11
110.782
21
-157.792
0
LINE
8
Black
10
110.782
20
-157.792
11
110.211
21
-157.792
0
LINE
8
Black
10
110.211
20
-157.792
11
109.925
21
-157.935
0
LINE
8
Black
10
111.211
20
-159.649
11
110.925
21
-159.792
0
LINE
8
Black
10
110.925
20
-159.792
11
110.211
21
-159.792
0
LINE
8
Black
10
110.211
20
-159.792
11
109.925
21
-159.649
0
LINE
8
Black
10
109.925
20
-159.649
11
109.782
21
-159.364
0
LINE
8
Black
10
109.782
20
-159.364
11
109.782
21
-159.078
0
LINE
8
Black
10
109.782
20
-159.078
11
109.925
21
-158.792
0
LINE
8
Black
10
109.925
20
-158.792
11
110.211
21
-158.649
0
LINE
8
Black
10
110.211
20
-158.649
11
110.925
21
-158.649
0
LINE
8
Black
10
110.925
20
-158.649
11
111.211
21
-158.506
0
LINE
8
Black
10
112.211
20
-157.792
11
113.354
21
-157.792
0
LINE
8
Black
10
112.639
20
-156.792
11
112.639
21
-159.364
0
LINE
8
Black
10
112.639
20
-159.364
11
112.782
21
-159.649
0
LINE
8
Black
10
112.782
20
-159.649
11
113.068
21
-159.792
0
LINE
8
Black
10
113.068
20
-159.792
11
113.354
21
-159.792
0
LINE
8
Black
10
115.496
20
-159.649
11
115.211
21
-159.792
0
LINE
8
Black
10
115.211
20
-159.792
11
114.639
21
-159.792
0
LINE
8
Black
10
114.639
20
-159.792
11
114.354
21
-159.649
0
LINE
8
Black
10
114.354
20
-159.649
11
114.211
21
-159.364
0
LINE
8
Black
10
114.211
20
-159.364
11
114.211
21
-158.221
0
LINE
8
Black
10
114.211
20
-158.221
11
114.354
21
-157.935
0
LINE
8
Black
10
114.354
20
-157.935
11
114.639
21
-157.792
0
LINE
8
Black
10
114.639
20
-157.792
11
115.211
21
-157.792
0
LINE
8
Black
10
115.211
20
-157.792
11
115.496
21
-157.935
0
LINE
8
Black
10
115.496
20
-157.935
11
115.639
21
-158.221
0
LINE
8
Black
10
115.639
20
-158.221
11
115.639
21
-158.506
0
LINE
8
Black
10
115.639
20
-158.506
11
114.211
21
-158.792
0
LINE
8
Black
10
118.211
20
-159.792
11
118.211
21
-156.792
0
LINE
8
Black
10
118.211
20
-159.649
11
117.925
21
-159.792
0
LINE
8
Black
10
117.925
20
-159.792
11
117.354
21
-159.792
0
LINE
8
Black
10
117.354
20
-159.792
11
117.068
21
-159.649
0
LINE
8
Black
10
117.068
20
-159.649
11
116.925
21
-159.506
0
LINE
8
Black
10
116.925
20
-159.506
11
116.782
21
-159.221
0
LINE
8
Black
10
116.782
20
-159.221
11
116.782
21
-158.364
0
LINE
8
Black
10
116.782
20
-158.364
11
116.925
21
-158.078
0
LINE
8
Black
10
116.925
20
-158.078
11
117.068
21
-157.935
0
LINE
8
Black
10
117.068
20
-157.935
11
117.354
21
-157.792
0
LINE
8
Black
10
117.354
20
-157.792
11
117.925
21
-157.792
0
LINE
8
Black
10
117.925
20
-157.792
11
118.211
21
-157.935
0
LINE
8
Black
10
119.354
20
-160.935
11
119.496
21
-160.792
0
LINE
8
Black
10
119.496
20
-160.792
11
119.782
21
-160.364
0
LINE
8
Black
10
119.782
20
-160.364
11
119.925
21
-160.078
0
LINE
8
Black
10
119.925
20
-160.078
11
120.068
21
-159.649
0
LINE
8
Black
10
120.068
20
-159.649
11
120.211
21
-158.935
0
LINE
8
Black
10
120.211
20
-158.935
11
120.211
21
-158.364
0
LINE
8
Black
10
120.211
20
-158.364
11
120.068
21
-157.649
0
LINE
8
Black
10
120.068
20
-157.649
11
119.925
21
-157.221
0
LINE
8
Black
10
119.925
20
-157.221
11
119.782
21
-156.935
0
LINE
8
Black
10
119.782
20
-156.935
11
119.496
21
-156.506
0
LINE
8
Black
10
119.496
20
-156.506
11
119.354
21
-156.364
  0
ENDSEC
  0
EOF
