  0
SECTION
  2
HEADER
  9
$ANGBASE
  50
0.0
  9
$ANGDIR
  70
  1
  9
$MEASUREMENT
  70
0
  0
ENDSEC
  0
SECTION
  2
TABLES
  0
TABLE
  2
LTYPE
  70
1
  0
LTYPE
  2
CONTINUOUS
  70
0
  3
Solid line
  72
65
  73
0
  40
0.0
  0
ENDTAB
  0
TABLE
  2
STYLE
  70
4
  0
STYLE
  2
KICAD
  70
0
  40
0
  41
1
  42
1
  50
0
  71
0
  3
isocp.shx
  0
STYLE
  2
KICADB
  70
0
  40
0
  41
1
  42
1
  50
0
  71
0
  3
isocp.shx
  0
STYLE
  2
KICADI
  70
0
  40
0
  41
1
  42
1
  50
15
  71
0
  3
isocp.shx
  0
STYLE
  2
KICADBI
  70
0
  40
0
  41
1
  42
1
  50
15
  71
0
  3
isocp.shx
  0
ENDTAB
  0
TABLE
  2
LAYER
  70
30
  0
LAYER
  2
BLACK
  70
0
  62
7
  6
CONTINUOUS
  0
LAYER
  2
GRAY1
  70
0
  62
251
  6
CONTINUOUS
  0
LAYER
  2
GRAY2
  70
0
  62
8
  6
CONTINUOUS
  0
LAYER
  2
GRAY3
  70
0
  62
9
  6
CONTINUOUS
  0
LAYER
  2
WHITE
  70
0
  62
7
  6
CONTINUOUS
  0
LAYER
  2
LYELLOW
  70
0
  62
51
  6
CONTINUOUS
  0
LAYER
  2
BLUE1
  70
0
  62
178
  6
CONTINUOUS
  0
LAYER
  2
GREEN1
  70
0
  62
98
  6
CONTINUOUS
  0
LAYER
  2
CYAN1
  70
0
  62
138
  6
CONTINUOUS
  0
LAYER
  2
RED1
  70
0
  62
18
  6
CONTINUOUS
  0
LAYER
  2
MAGENTA1
  70
0
  62
228
  6
CONTINUOUS
  0
LAYER
  2
BROWN1
  70
0
  62
58
  6
CONTINUOUS
  0
LAYER
  2
BLUE2
  70
0
  62
5
  6
CONTINUOUS
  0
LAYER
  2
GREEN2
  70
0
  62
3
  6
CONTINUOUS
  0
LAYER
  2
CYAN2
  70
0
  62
4
  6
CONTINUOUS
  0
LAYER
  2
RED2
  70
0
  62
1
  6
CONTINUOUS
  0
LAYER
  2
MAGENTA2
  70
0
  62
6
  6
CONTINUOUS
  0
LAYER
  2
BROWN2
  70
0
  62
54
  6
CONTINUOUS
  0
LAYER
  2
BLUE3
  70
0
  62
171
  6
CONTINUOUS
  0
LAYER
  2
GREEN3
  70
0
  62
91
  6
CONTINUOUS
  0
LAYER
  2
CYAN3
  70
0
  62
131
  6
CONTINUOUS
  0
LAYER
  2
RED3
  70
0
  62
11
  6
CONTINUOUS
  0
LAYER
  2
MAGENTA3
  70
0
  62
221
  6
CONTINUOUS
  0
LAYER
  2
YELLOW3
  70
0
  62
2
  6
CONTINUOUS
  0
LAYER
  2
BLUE4
  70
0
  62
5
  6
CONTINUOUS
  0
LAYER
  2
GREEN4
  70
0
  62
3
  6
CONTINUOUS
  0
LAYER
  2
CYAN4
  70
0
  62
4
  6
CONTINUOUS
  0
LAYER
  2
RED4
  70
0
  62
1
  6
CONTINUOUS
  0
LAYER
  2
MAGENTA4
  70
0
  62
6
  6
CONTINUOUS
  0
LAYER
  2
YELLOW4
  70
0
  62
2
  6
CONTINUOUS
  0
ENDTAB
  0
ENDSEC
  0
SECTION
  2
ENTITIES
0
LINE
8
Black
10
25
20
-25
11
25
21
-125
0
LINE
8
Black
10
25
20
-125
11
125
21
-125
0
LINE
8
Black
10
125
20
-25
11
125
21
-125
0
LINE
8
Black
10
25
20
-25
11
125
21
-25
0
LINE
8
Black
10
28.4125
20
-30.1625
11
31.5875
21
-33.3375
0
LINE
8
Black
10
31.5875
20
-30.1625
11
28.4125
21
-33.3375
0
LINE
8
Black
10
94.9605
20
-30.1625
11
98.1355
21
-33.3375
0
LINE
8
Black
10
98.1355
20
-30.1625
11
94.9605
21
-33.3375
0
LINE
8
Black
10
27.6393
20
-129.732
11
27.6393
21
-126.732
0
LINE
8
Black
10
27.6393
20
-126.732
11
28.3536
21
-126.732
0
LINE
8
Black
10
28.3536
20
-126.732
11
28.7821
21
-126.875
0
LINE
8
Black
10
28.7821
20
-126.875
11
29.0679
21
-127.161
0
LINE
8
Black
10
29.0679
20
-127.161
11
29.2107
21
-127.446
0
LINE
8
Black
10
29.2107
20
-127.446
11
29.3536
21
-128.018
0
LINE
8
Black
10
29.3536
20
-128.018
11
29.3536
21
-128.446
0
LINE
8
Black
10
29.3536
20
-128.446
11
29.2107
21
-129.018
0
LINE
8
Black
10
29.2107
20
-129.018
11
29.0679
21
-129.304
0
LINE
8
Black
10
29.0679
20
-129.304
11
28.7821
21
-129.589
0
LINE
8
Black
10
28.7821
20
-129.589
11
28.3536
21
-129.732
0
LINE
8
Black
10
28.3536
20
-129.732
11
27.6393
21
-129.732
0
LINE
8
Black
10
30.6393
20
-129.732
11
30.6393
21
-127.732
0
LINE
8
Black
10
30.6393
20
-128.304
11
30.7821
21
-128.018
0
LINE
8
Black
10
30.7821
20
-128.018
11
30.925
21
-127.875
0
LINE
8
Black
10
30.925
20
-127.875
11
31.2107
21
-127.732
0
LINE
8
Black
10
31.2107
20
-127.732
11
31.4964
21
-127.732
0
LINE
8
Black
10
32.4964
20
-129.732
11
32.4964
21
-127.732
0
LINE
8
Black
10
32.4964
20
-126.732
11
32.3536
21
-126.875
0
LINE
8
Black
10
32.3536
20
-126.875
11
32.4964
21
-127.018
0
LINE
8
Black
10
32.4964
20
-127.018
11
32.6393
21
-126.875
0
LINE
8
Black
10
32.6393
20
-126.875
11
32.4964
21
-126.732
0
LINE
8
Black
10
32.4964
20
-126.732
11
32.4964
21
-127.018
0
LINE
8
Black
10
34.3536
20
-129.732
11
34.0679
21
-129.589
0
LINE
8
Black
10
34.0679
20
-129.589
11
33.925
21
-129.304
0
LINE
8
Black
10
33.925
20
-129.304
11
33.925
21
-126.732
0
LINE
8
Black
10
35.925
20
-129.732
11
35.6393
21
-129.589
0
LINE
8
Black
10
35.6393
20
-129.589
11
35.4964
21
-129.304
0
LINE
8
Black
10
35.4964
20
-129.304
11
35.4964
21
-126.732
0
LINE
8
Black
10
39.3536
20
-129.732
11
39.3536
21
-126.732
0
LINE
8
Black
10
39.3536
20
-126.732
11
40.3536
21
-128.875
0
LINE
8
Black
10
40.3536
20
-128.875
11
41.3536
21
-126.732
0
LINE
8
Black
10
41.3536
20
-126.732
11
41.3536
21
-129.732
0
LINE
8
Black
10
44.0679
20
-129.732
11
44.0679
21
-128.161
0
LINE
8
Black
10
44.0679
20
-128.161
11
43.925
21
-127.875
0
LINE
8
Black
10
43.925
20
-127.875
11
43.6393
21
-127.732
0
LINE
8
Black
10
43.6393
20
-127.732
11
43.0679
21
-127.732
0
LINE
8
Black
10
43.0679
20
-127.732
11
42.7821
21
-127.875
0
LINE
8
Black
10
44.0679
20
-129.589
11
43.7821
21
-129.732
0
LINE
8
Black
10
43.7821
20
-129.732
11
43.0679
21
-129.732
0
LINE
8
Black
10
43.0679
20
-129.732
11
42.7821
21
-129.589
0
LINE
8
Black
10
42.7821
20
-129.589
11
42.6393
21
-129.304
0
LINE
8
Black
10
42.6393
20
-129.304
11
42.6393
21
-129.018
0
LINE
8
Black
10
42.6393
20
-129.018
11
42.7821
21
-128.732
0
LINE
8
Black
10
42.7821
20
-128.732
11
43.0679
21
-128.589
0
LINE
8
Black
10
43.0679
20
-128.589
11
43.7821
21
-128.589
0
LINE
8
Black
10
43.7821
20
-128.589
11
44.0679
21
-128.446
0
LINE
8
Black
10
45.4964
20
-127.732
11
45.4964
21
-130.732
0
LINE
8
Black
10
45.4964
20
-127.875
11
45.7821
21
-127.732
0
LINE
8
Black
10
45.7821
20
-127.732
11
46.3536
21
-127.732
0
LINE
8
Black
10
46.3536
20
-127.732
11
46.6393
21
-127.875
0
LINE
8
Black
10
46.6393
20
-127.875
11
46.7821
21
-128.018
0
LINE
8
Black
10
46.7821
20
-128.018
11
46.925
21
-128.304
0
LINE
8
Black
10
46.925
20
-128.304
11
46.925
21
-129.161
0
LINE
8
Black
10
46.925
20
-129.161
11
46.7821
21
-129.446
0
LINE
8
Black
10
46.7821
20
-129.446
11
46.6393
21
-129.589
0
LINE
8
Black
10
46.6393
20
-129.589
11
46.3536
21
-129.732
0
LINE
8
Black
10
46.3536
20
-129.732
11
45.7821
21
-129.732
0
LINE
8
Black
10
45.7821
20
-129.732
11
45.4964
21
-129.589
0
LINE
8
Black
10
48.2107
20
-129.446
11
48.3536
21
-129.589
0
LINE
8
Black
10
48.3536
20
-129.589
11
48.2107
21
-129.732
0
LINE
8
Black
10
48.2107
20
-129.732
11
48.0679
21
-129.589
0
LINE
8
Black
10
48.0679
20
-129.589
11
48.2107
21
-129.446
0
LINE
8
Black
10
48.2107
20
-129.446
11
48.2107
21
-129.732
0
LINE
8
Black
10
48.2107
20
-127.875
11
48.3536
21
-128.018
0
LINE
8
Black
10
48.3536
20
-128.018
11
48.2107
21
-128.161
0
LINE
8
Black
10
48.2107
20
-128.161
11
48.0679
21
-128.018
0
LINE
8
Black
10
48.0679
20
-128.018
11
48.2107
21
-127.875
0
LINE
8
Black
10
48.2107
20
-127.875
11
48.2107
21
-128.161
0
LINE
8
Black
10
21.75
20
-133.088
11
24.925
21
-136.263
0
LINE
8
Black
10
24.925
20
-133.088
11
21.75
21
-136.263
0
LINE
8
Black
10
27.3536
20
-133.032
11
29.2107
21
-133.032
0
LINE
8
Black
10
29.2107
20
-133.032
11
28.2107
21
-134.175
0
LINE
8
Black
10
28.2107
20
-134.175
11
28.6393
21
-134.175
0
LINE
8
Black
10
28.6393
20
-134.175
11
28.925
21
-134.318
0
LINE
8
Black
10
28.925
20
-134.318
11
29.0679
21
-134.461
0
LINE
8
Black
10
29.0679
20
-134.461
11
29.2107
21
-134.746
0
LINE
8
Black
10
29.2107
20
-134.746
11
29.2107
21
-135.461
0
LINE
8
Black
10
29.2107
20
-135.461
11
29.0679
21
-135.746
0
LINE
8
Black
10
29.0679
20
-135.746
11
28.925
21
-135.889
0
LINE
8
Black
10
28.925
20
-135.889
11
28.6393
21
-136.032
0
LINE
8
Black
10
28.6393
20
-136.032
11
27.7821
21
-136.032
0
LINE
8
Black
10
27.7821
20
-136.032
11
27.4964
21
-135.889
0
LINE
8
Black
10
27.4964
20
-135.889
11
27.3536
21
-135.746
0
LINE
8
Black
10
30.4964
20
-135.746
11
30.6393
21
-135.889
0
LINE
8
Black
10
30.6393
20
-135.889
11
30.4964
21
-136.032
0
LINE
8
Black
10
30.4964
20
-136.032
11
30.3536
21
-135.889
0
LINE
8
Black
10
30.3536
20
-135.889
11
30.4964
21
-135.746
0
LINE
8
Black
10
30.4964
20
-135.746
11
30.4964
21
-136.032
0
LINE
8
Black
10
33.4964
20
-136.032
11
31.7821
21
-136.032
0
LINE
8
Black
10
32.6393
20
-136.032
11
32.6393
21
-133.032
0
LINE
8
Black
10
32.6393
20
-133.032
11
32.3536
21
-133.461
0
LINE
8
Black
10
32.3536
20
-133.461
11
32.0679
21
-133.746
0
LINE
8
Black
10
32.0679
20
-133.746
11
31.7821
21
-133.889
0
LINE
8
Black
10
34.4964
20
-133.032
11
36.4964
21
-133.032
0
LINE
8
Black
10
36.4964
20
-133.032
11
35.2107
21
-136.032
0
LINE
8
Black
10
37.6393
20
-136.032
11
37.6393
21
-134.032
0
LINE
8
Black
10
37.6393
20
-134.318
11
37.7821
21
-134.175
0
LINE
8
Black
10
37.7821
20
-134.175
11
38.0679
21
-134.032
0
LINE
8
Black
10
38.0679
20
-134.032
11
38.4964
21
-134.032
0
LINE
8
Black
10
38.4964
20
-134.032
11
38.7821
21
-134.175
0
LINE
8
Black
10
38.7821
20
-134.175
11
38.925
21
-134.461
0
LINE
8
Black
10
38.925
20
-134.461
11
38.925
21
-136.032
0
LINE
8
Black
10
38.925
20
-134.461
11
39.0679
21
-134.175
0
LINE
8
Black
10
39.0679
20
-134.175
11
39.3536
21
-134.032
0
LINE
8
Black
10
39.3536
20
-134.032
11
39.7821
21
-134.032
0
LINE
8
Black
10
39.7821
20
-134.032
11
40.0679
21
-134.175
0
LINE
8
Black
10
40.0679
20
-134.175
11
40.2107
21
-134.461
0
LINE
8
Black
10
40.2107
20
-134.461
11
40.2107
21
-136.032
0
LINE
8
Black
10
41.6393
20
-136.032
11
41.6393
21
-134.032
0
LINE
8
Black
10
41.6393
20
-134.318
11
41.7821
21
-134.175
0
LINE
8
Black
10
41.7821
20
-134.175
11
42.0679
21
-134.032
0
LINE
8
Black
10
42.0679
20
-134.032
11
42.4964
21
-134.032
0
LINE
8
Black
10
42.4964
20
-134.032
11
42.7821
21
-134.175
0
LINE
8
Black
10
42.7821
20
-134.175
11
42.925
21
-134.461
0
LINE
8
Black
10
42.925
20
-134.461
11
42.925
21
-136.032
0
LINE
8
Black
10
42.925
20
-134.461
11
43.0679
21
-134.175
0
LINE
8
Black
10
43.0679
20
-134.175
11
43.3536
21
-134.032
0
LINE
8
Black
10
43.3536
20
-134.032
11
43.7821
21
-134.032
0
LINE
8
Black
10
43.7821
20
-134.032
11
44.0679
21
-134.175
0
LINE
8
Black
10
44.0679
20
-134.175
11
44.2107
21
-134.461
0
LINE
8
Black
10
44.2107
20
-134.461
11
44.2107
21
-136.032
0
LINE
8
Black
10
50.0679
20
-132.889
11
47.4964
21
-136.746
0
LINE
8
Black
10
53.925
20
-133.032
11
54.2107
21
-133.032
0
LINE
8
Black
10
54.2107
20
-133.032
11
54.4964
21
-133.175
0
LINE
8
Black
10
54.4964
20
-133.175
11
54.6393
21
-133.318
0
LINE
8
Black
10
54.6393
20
-133.318
11
54.7821
21
-133.604
0
LINE
8
Black
10
54.7821
20
-133.604
11
54.925
21
-134.175
0
LINE
8
Black
10
54.925
20
-134.175
11
54.925
21
-134.889
0
LINE
8
Black
10
54.925
20
-134.889
11
54.7821
21
-135.461
0
LINE
8
Black
10
54.7821
20
-135.461
11
54.6393
21
-135.746
0
LINE
8
Black
10
54.6393
20
-135.746
11
54.4964
21
-135.889
0
LINE
8
Black
10
54.4964
20
-135.889
11
54.2107
21
-136.032
0
LINE
8
Black
10
54.2107
20
-136.032
11
53.925
21
-136.032
0
LINE
8
Black
10
53.925
20
-136.032
11
53.6393
21
-135.889
0
LINE
8
Black
10
53.6393
20
-135.889
11
53.4964
21
-135.746
0
LINE
8
Black
10
53.4964
20
-135.746
11
53.3536
21
-135.461
0
LINE
8
Black
10
53.3536
20
-135.461
11
53.2107
21
-134.889
0
LINE
8
Black
10
53.2107
20
-134.889
11
53.2107
21
-134.175
0
LINE
8
Black
10
53.2107
20
-134.175
11
53.3536
21
-133.604
0
LINE
8
Black
10
53.3536
20
-133.604
11
53.4964
21
-133.318
0
LINE
8
Black
10
53.4964
20
-133.318
11
53.6393
21
-133.175
0
LINE
8
Black
10
53.6393
20
-133.175
11
53.925
21
-133.032
0
LINE
8
Black
10
56.2107
20
-135.746
11
56.3536
21
-135.889
0
LINE
8
Black
10
56.3536
20
-135.889
11
56.2107
21
-136.032
0
LINE
8
Black
10
56.2107
20
-136.032
11
56.0679
21
-135.889
0
LINE
8
Black
10
56.0679
20
-135.889
11
56.2107
21
-135.746
0
LINE
8
Black
10
56.2107
20
-135.746
11
56.2107
21
-136.032
0
LINE
8
Black
10
59.2107
20
-136.032
11
57.4964
21
-136.032
0
LINE
8
Black
10
58.3536
20
-136.032
11
58.3536
21
-133.032
0
LINE
8
Black
10
58.3536
20
-133.032
11
58.0679
21
-133.461
0
LINE
8
Black
10
58.0679
20
-133.461
11
57.7821
21
-133.746
0
LINE
8
Black
10
57.7821
20
-133.746
11
57.4964
21
-133.889
0
LINE
8
Black
10
60.3536
20
-133.318
11
60.4964
21
-133.175
0
LINE
8
Black
10
60.4964
20
-133.175
11
60.7821
21
-133.032
0
LINE
8
Black
10
60.7821
20
-133.032
11
61.4964
21
-133.032
0
LINE
8
Black
10
61.4964
20
-133.032
11
61.7821
21
-133.175
0
LINE
8
Black
10
61.7821
20
-133.175
11
61.925
21
-133.318
0
LINE
8
Black
10
61.925
20
-133.318
11
62.0679
21
-133.604
0
LINE
8
Black
10
62.0679
20
-133.604
11
62.0679
21
-133.889
0
LINE
8
Black
10
62.0679
20
-133.889
11
61.925
21
-134.318
0
LINE
8
Black
10
61.925
20
-134.318
11
60.2107
21
-136.032
0
LINE
8
Black
10
60.2107
20
-136.032
11
62.0679
21
-136.032
0
LINE
8
Black
10
64.7821
20
-133.032
11
63.3536
21
-133.032
0
LINE
8
Black
10
63.3536
20
-133.032
11
63.2107
21
-134.461
0
LINE
8
Black
10
63.2107
20
-134.461
11
63.3536
21
-134.318
0
LINE
8
Black
10
63.3536
20
-134.318
11
63.6393
21
-134.175
0
LINE
8
Black
10
63.6393
20
-134.175
11
64.3536
21
-134.175
0
LINE
8
Black
10
64.3536
20
-134.175
11
64.6393
21
-134.318
0
LINE
8
Black
10
64.6393
20
-134.318
11
64.7821
21
-134.461
0
LINE
8
Black
10
64.7821
20
-134.461
11
64.925
21
-134.746
0
LINE
8
Black
10
64.925
20
-134.746
11
64.925
21
-135.461
0
LINE
8
Black
10
64.925
20
-135.461
11
64.7821
21
-135.746
0
LINE
8
Black
10
64.7821
20
-135.746
11
64.6393
21
-135.889
0
LINE
8
Black
10
64.6393
20
-135.889
11
64.3536
21
-136.032
0
LINE
8
Black
10
64.3536
20
-136.032
11
63.6393
21
-136.032
0
LINE
8
Black
10
63.6393
20
-136.032
11
63.3536
21
-135.889
0
LINE
8
Black
10
63.3536
20
-135.889
11
63.2107
21
-135.746
0
LINE
8
Black
10
66.0679
20
-133.032
11
66.0679
21
-133.604
0
LINE
8
Black
10
67.2107
20
-133.032
11
67.2107
21
-133.604
0
LINE
8
Black
10
71.6393
20
-137.175
11
71.4964
21
-137.032
0
LINE
8
Black
10
71.4964
20
-137.032
11
71.2107
21
-136.604
0
LINE
8
Black
10
71.2107
20
-136.604
11
71.0679
21
-136.318
0
LINE
8
Black
10
71.0679
20
-136.318
11
70.925
21
-135.889
0
LINE
8
Black
10
70.925
20
-135.889
11
70.7821
21
-135.175
0
LINE
8
Black
10
70.7821
20
-135.175
11
70.7821
21
-134.604
0
LINE
8
Black
10
70.7821
20
-134.604
11
70.925
21
-133.889
0
LINE
8
Black
10
70.925
20
-133.889
11
71.0679
21
-133.461
0
LINE
8
Black
10
71.0679
20
-133.461
11
71.2107
21
-133.175
0
LINE
8
Black
10
71.2107
20
-133.175
11
71.4964
21
-132.746
0
LINE
8
Black
10
71.4964
20
-132.746
11
71.6393
21
-132.604
0
LINE
8
Black
10
72.6393
20
-133.318
11
72.7821
21
-133.175
0
LINE
8
Black
10
72.7821
20
-133.175
11
73.0679
21
-133.032
0
LINE
8
Black
10
73.0679
20
-133.032
11
73.7821
21
-133.032
0
LINE
8
Black
10
73.7821
20
-133.032
11
74.0679
21
-133.175
0
LINE
8
Black
10
74.0679
20
-133.175
11
74.2107
21
-133.318
0
LINE
8
Black
10
74.2107
20
-133.318
11
74.3536
21
-133.604
0
LINE
8
Black
10
74.3536
20
-133.604
11
74.3536
21
-133.889
0
LINE
8
Black
10
74.3536
20
-133.889
11
74.2107
21
-134.318
0
LINE
8
Black
10
74.2107
20
-134.318
11
72.4964
21
-136.032
0
LINE
8
Black
10
72.4964
20
-136.032
11
74.3536
21
-136.032
0
LINE
8
Black
10
77.925
20
-136.032
11
77.925
21
-133.032
0
LINE
8
Black
10
79.2107
20
-136.032
11
79.2107
21
-134.461
0
LINE
8
Black
10
79.2107
20
-134.461
11
79.0679
21
-134.175
0
LINE
8
Black
10
79.0679
20
-134.175
11
78.7821
21
-134.032
0
LINE
8
Black
10
78.7821
20
-134.032
11
78.3536
21
-134.032
0
LINE
8
Black
10
78.3536
20
-134.032
11
78.0679
21
-134.175
0
LINE
8
Black
10
78.0679
20
-134.175
11
77.925
21
-134.318
0
LINE
8
Black
10
81.0679
20
-136.032
11
80.7821
21
-135.889
0
LINE
8
Black
10
80.7821
20
-135.889
11
80.6393
21
-135.746
0
LINE
8
Black
10
80.6393
20
-135.746
11
80.4964
21
-135.461
0
LINE
8
Black
10
80.4964
20
-135.461
11
80.4964
21
-134.604
0
LINE
8
Black
10
80.4964
20
-134.604
11
80.6393
21
-134.318
0
LINE
8
Black
10
80.6393
20
-134.318
11
80.7821
21
-134.175
0
LINE
8
Black
10
80.7821
20
-134.175
11
81.0679
21
-134.032
0
LINE
8
Black
10
81.0679
20
-134.032
11
81.4964
21
-134.032
0
LINE
8
Black
10
81.4964
20
-134.032
11
81.7821
21
-134.175
0
LINE
8
Black
10
81.7821
20
-134.175
11
81.925
21
-134.318
0
LINE
8
Black
10
81.925
20
-134.318
11
82.0679
21
-134.604
0
LINE
8
Black
10
82.0679
20
-134.604
11
82.0679
21
-135.461
0
LINE
8
Black
10
82.0679
20
-135.461
11
81.925
21
-135.746
0
LINE
8
Black
10
81.925
20
-135.746
11
81.7821
21
-135.889
0
LINE
8
Black
10
81.7821
20
-135.889
11
81.4964
21
-136.032
0
LINE
8
Black
10
81.4964
20
-136.032
11
81.0679
21
-136.032
0
LINE
8
Black
10
83.7821
20
-136.032
11
83.4964
21
-135.889
0
LINE
8
Black
10
83.4964
20
-135.889
11
83.3536
21
-135.604
0
LINE
8
Black
10
83.3536
20
-135.604
11
83.3536
21
-133.032
0
LINE
8
Black
10
86.0679
20
-135.889
11
85.7821
21
-136.032
0
LINE
8
Black
10
85.7821
20
-136.032
11
85.2107
21
-136.032
0
LINE
8
Black
10
85.2107
20
-136.032
11
84.925
21
-135.889
0
LINE
8
Black
10
84.925
20
-135.889
11
84.7821
21
-135.604
0
LINE
8
Black
10
84.7821
20
-135.604
11
84.7821
21
-134.461
0
LINE
8
Black
10
84.7821
20
-134.461
11
84.925
21
-134.175
0
LINE
8
Black
10
84.925
20
-134.175
11
85.2107
21
-134.032
0
LINE
8
Black
10
85.2107
20
-134.032
11
85.7821
21
-134.032
0
LINE
8
Black
10
85.7821
20
-134.032
11
86.0679
21
-134.175
0
LINE
8
Black
10
86.0679
20
-134.175
11
86.2107
21
-134.461
0
LINE
8
Black
10
86.2107
20
-134.461
11
86.2107
21
-134.746
0
LINE
8
Black
10
86.2107
20
-134.746
11
84.7821
21
-135.032
0
LINE
8
Black
10
87.3536
20
-135.889
11
87.6393
21
-136.032
0
LINE
8
Black
10
87.6393
20
-136.032
11
88.2107
21
-136.032
0
LINE
8
Black
10
88.2107
20
-136.032
11
88.4964
21
-135.889
0
LINE
8
Black
10
88.4964
20
-135.889
11
88.6393
21
-135.604
0
LINE
8
Black
10
88.6393
20
-135.604
11
88.6393
21
-135.461
0
LINE
8
Black
10
88.6393
20
-135.461
11
88.4964
21
-135.175
0
LINE
8
Black
10
88.4964
20
-135.175
11
88.2107
21
-135.032
0
LINE
8
Black
10
88.2107
20
-135.032
11
87.7821
21
-135.032
0
LINE
8
Black
10
87.7821
20
-135.032
11
87.4964
21
-134.889
0
LINE
8
Black
10
87.4964
20
-134.889
11
87.3536
21
-134.604
0
LINE
8
Black
10
87.3536
20
-134.604
11
87.3536
21
-134.461
0
LINE
8
Black
10
87.3536
20
-134.461
11
87.4964
21
-134.175
0
LINE
8
Black
10
87.4964
20
-134.175
11
87.7821
21
-134.032
0
LINE
8
Black
10
87.7821
20
-134.032
11
88.2107
21
-134.032
0
LINE
8
Black
10
88.2107
20
-134.032
11
88.4964
21
-134.175
0
LINE
8
Black
10
89.6393
20
-137.175
11
89.7821
21
-137.032
0
LINE
8
Black
10
89.7821
20
-137.032
11
90.0679
21
-136.604
0
LINE
8
Black
10
90.0679
20
-136.604
11
90.2107
21
-136.318
0
LINE
8
Black
10
90.2107
20
-136.318
11
90.3536
21
-135.889
0
LINE
8
Black
10
90.3536
20
-135.889
11
90.4964
21
-135.175
0
LINE
8
Black
10
90.4964
20
-135.175
11
90.4964
21
-134.604
0
LINE
8
Black
10
90.4964
20
-134.604
11
90.3536
21
-133.889
0
LINE
8
Black
10
90.3536
20
-133.889
11
90.2107
21
-133.461
0
LINE
8
Black
10
90.2107
20
-133.461
11
90.0679
21
-133.175
0
LINE
8
Black
10
90.0679
20
-133.175
11
89.7821
21
-132.746
0
LINE
8
Black
10
89.7821
20
-132.746
11
89.6393
21
-132.604
0
LINE
8
Black
10
95.0679
20
-137.175
11
94.925
21
-137.032
0
LINE
8
Black
10
94.925
20
-137.032
11
94.6393
21
-136.604
0
LINE
8
Black
10
94.6393
20
-136.604
11
94.4964
21
-136.318
0
LINE
8
Black
10
94.4964
20
-136.318
11
94.3536
21
-135.889
0
LINE
8
Black
10
94.3536
20
-135.889
11
94.2107
21
-135.175
0
LINE
8
Black
10
94.2107
20
-135.175
11
94.2107
21
-134.604
0
LINE
8
Black
10
94.2107
20
-134.604
11
94.3536
21
-133.889
0
LINE
8
Black
10
94.3536
20
-133.889
11
94.4964
21
-133.461
0
LINE
8
Black
10
94.4964
20
-133.461
11
94.6393
21
-133.175
0
LINE
8
Black
10
94.6393
20
-133.175
11
94.925
21
-132.746
0
LINE
8
Black
10
94.925
20
-132.746
11
95.0679
21
-132.604
0
LINE
8
Black
10
96.2107
20
-134.032
11
96.2107
21
-136.032
0
LINE
8
Black
10
96.2107
20
-134.318
11
96.3536
21
-134.175
0
LINE
8
Black
10
96.3536
20
-134.175
11
96.6393
21
-134.032
0
LINE
8
Black
10
96.6393
20
-134.032
11
97.0679
21
-134.032
0
LINE
8
Black
10
97.0679
20
-134.032
11
97.3536
21
-134.175
0
LINE
8
Black
10
97.3536
20
-134.175
11
97.4964
21
-134.461
0
LINE
8
Black
10
97.4964
20
-134.461
11
97.4964
21
-136.032
0
LINE
8
Black
10
99.3536
20
-136.032
11
99.0679
21
-135.889
0
LINE
8
Black
10
99.0679
20
-135.889
11
98.925
21
-135.746
0
LINE
8
Black
10
98.925
20
-135.746
11
98.7821
21
-135.461
0
LINE
8
Black
10
98.7821
20
-135.461
11
98.7821
21
-134.604
0
LINE
8
Black
10
98.7821
20
-134.604
11
98.925
21
-134.318
0
LINE
8
Black
10
98.925
20
-134.318
11
99.0679
21
-134.175
0
LINE
8
Black
10
99.0679
20
-134.175
11
99.3536
21
-134.032
0
LINE
8
Black
10
99.3536
20
-134.032
11
99.7821
21
-134.032
0
LINE
8
Black
10
99.7821
20
-134.032
11
100.068
21
-134.175
0
LINE
8
Black
10
100.068
20
-134.175
11
100.211
21
-134.318
0
LINE
8
Black
10
100.211
20
-134.318
11
100.354
21
-134.604
0
LINE
8
Black
10
100.354
20
-134.604
11
100.354
21
-135.461
0
LINE
8
Black
10
100.354
20
-135.461
11
100.211
21
-135.746
0
LINE
8
Black
10
100.211
20
-135.746
11
100.068
21
-135.889
0
LINE
8
Black
10
100.068
20
-135.889
11
99.7821
21
-136.032
0
LINE
8
Black
10
99.7821
20
-136.032
11
99.3536
21
-136.032
0
LINE
8
Black
10
101.211
20
-134.032
11
102.354
21
-134.032
0
LINE
8
Black
10
101.639
20
-133.032
11
101.639
21
-135.604
0
LINE
8
Black
10
101.639
20
-135.604
11
101.782
21
-135.889
0
LINE
8
Black
10
101.782
20
-135.889
11
102.068
21
-136.032
0
LINE
8
Black
10
102.068
20
-136.032
11
102.354
21
-136.032
0
LINE
8
Black
10
105.639
20
-134.032
11
105.639
21
-137.032
0
LINE
8
Black
10
105.639
20
-134.175
11
105.925
21
-134.032
0
LINE
8
Black
10
105.925
20
-134.032
11
106.496
21
-134.032
0
LINE
8
Black
10
106.496
20
-134.032
11
106.782
21
-134.175
0
LINE
8
Black
10
106.782
20
-134.175
11
106.925
21
-134.318
0
LINE
8
Black
10
106.925
20
-134.318
11
107.068
21
-134.604
0
LINE
8
Black
10
107.068
20
-134.604
11
107.068
21
-135.461
0
LINE
8
Black
10
107.068
20
-135.461
11
106.925
21
-135.746
0
LINE
8
Black
10
106.925
20
-135.746
11
106.782
21
-135.889
0
LINE
8
Black
10
106.782
20
-135.889
11
106.496
21
-136.032
0
LINE
8
Black
10
106.496
20
-136.032
11
105.925
21
-136.032
0
LINE
8
Black
10
105.925
20
-136.032
11
105.639
21
-135.889
0
LINE
8
Black
10
108.782
20
-136.032
11
108.496
21
-135.889
0
LINE
8
Black
10
108.496
20
-135.889
11
108.354
21
-135.604
0
LINE
8
Black
10
108.354
20
-135.604
11
108.354
21
-133.032
0
LINE
8
Black
10
111.211
20
-136.032
11
111.211
21
-134.461
0
LINE
8
Black
10
111.211
20
-134.461
11
111.068
21
-134.175
0
LINE
8
Black
10
111.068
20
-134.175
11
110.782
21
-134.032
0
LINE
8
Black
10
110.782
20
-134.032
11
110.211
21
-134.032
0
LINE
8
Black
10
110.211
20
-134.032
11
109.925
21
-134.175
0
LINE
8
Black
10
111.211
20
-135.889
11
110.925
21
-136.032
0
LINE
8
Black
10
110.925
20
-136.032
11
110.211
21
-136.032
0
LINE
8
Black
10
110.211
20
-136.032
11
109.925
21
-135.889
0
LINE
8
Black
10
109.925
20
-135.889
11
109.782
21
-135.604
0
LINE
8
Black
10
109.782
20
-135.604
11
109.782
21
-135.318
0
LINE
8
Black
10
109.782
20
-135.318
11
109.925
21
-135.032
0
LINE
8
Black
10
109.925
20
-135.032
11
110.211
21
-134.889
0
LINE
8
Black
10
110.211
20
-134.889
11
110.925
21
-134.889
0
LINE
8
Black
10
110.925
20
-134.889
11
111.211
21
-134.746
0
LINE
8
Black
10
112.211
20
-134.032
11
113.354
21
-134.032
0
LINE
8
Black
10
112.639
20
-133.032
11
112.639
21
-135.604
0
LINE
8
Black
10
112.639
20
-135.604
11
112.782
21
-135.889
0
LINE
8
Black
10
112.782
20
-135.889
11
113.068
21
-136.032
0
LINE
8
Black
10
113.068
20
-136.032
11
113.354
21
-136.032
0
LINE
8
Black
10
115.496
20
-135.889
11
115.211
21
-136.032
0
LINE
8
Black
10
115.211
20
-136.032
11
114.639
21
-136.032
0
LINE
8
Black
10
114.639
20
-136.032
11
114.354
21
-135.889
0
LINE
8
Black
10
114.354
20
-135.889
11
114.211
21
-135.604
0
LINE
8
Black
10
114.211
20
-135.604
11
114.211
21
-134.461
0
LINE
8
Black
10
114.211
20
-134.461
11
114.354
21
-134.175
0
LINE
8
Black
10
114.354
20
-134.175
11
114.639
21
-134.032
0
LINE
8
Black
10
114.639
20
-134.032
11
115.211
21
-134.032
0
LINE
8
Black
10
115.211
20
-134.032
11
115.496
21
-134.175
0
LINE
8
Black
10
115.496
20
-134.175
11
115.639
21
-134.461
0
LINE
8
Black
10
115.639
20
-134.461
11
115.639
21
-134.746
0
LINE
8
Black
10
115.639
20
-134.746
11
114.211
21
-135.032
0
LINE
8
Black
10
118.211
20
-136.032
11
118.211
21
-133.032
0
LINE
8
Black
10
118.211
20
-135.889
11
117.925
21
-136.032
0
LINE
8
Black
10
117.925
20
-136.032
11
117.354
21
-136.032
0
LINE
8
Black
10
117.354
20
-136.032
11
117.068
21
-135.889
0
LINE
8
Black
10
117.068
20
-135.889
11
116.925
21
-135.746
0
LINE
8
Black
10
116.925
20
-135.746
11
116.782
21
-135.461
0
LINE
8
Black
10
116.782
20
-135.461
11
116.782
21
-134.604
0
LINE
8
Black
10
116.782
20
-134.604
11
116.925
21
-134.318
0
LINE
8
Black
10
116.925
20
-134.318
11
117.068
21
-134.175
0
LINE
8
Black
10
117.068
20
-134.175
11
117.354
21
-134.032
0
LINE
8
Black
10
117.354
20
-134.032
11
117.925
21
-134.032
0
LINE
8
Black
10
117.925
20
-134.032
11
118.211
21
-134.175
0
LINE
8
Black
10
119.354
20
-137.175
11
119.496
21
-137.032
0
LINE
8
Black
10
119.496
20
-137.032
11
119.782
21
-136.604
0
LINE
8
Black
10
119.782
20
-136.604
11
119.925
21
-136.318
0
LINE
8
Black
10
119.925
20
-136.318
11
120.068
21
-135.889
0
LINE
8
Black
10
120.068
20
-135.889
11
120.211
21
-135.175
0
LINE
8
Black
10
120.211
20
-135.175
11
120.211
21
-134.604
0
LINE
8
Black
10
120.211
20
-134.604
11
120.068
21
-133.889
0
LINE
8
Black
10
120.068
20
-133.889
11
119.925
21
-133.461
0
LINE
8
Black
10
119.925
20
-133.461
11
119.782
21
-133.175
0
LINE
8
Black
10
119.782
20
-133.175
11
119.496
21
-132.746
0
LINE
8
Black
10
119.496
20
-132.746
11
119.354
21
-132.604
  0
ENDSEC
  0
EOF
