<?xml version="1.0" standalone="no"?>
 <!DOCTYPE svg PUBLIC "-//W3C//DTD SVG 1.1//EN" 
 "http://www.w3.org/Graphics/SVG/1.1/DTD/svg11.dtd"> 
<svg xmlns="http://www.w3.org/2000/svg" version="1.1" 
    width="29.7002cm" height="21.0007cm" viewBox="0 0 116930 82680 ">
<title>SVG Picture created as row_driver-B.SilkS.svg date 2018/06/13 19:46:53 </title>
  <desc>Picture generated by PCBNEW </desc>
<g style="fill:#000000; fill-opacity:1;stroke:#000000; stroke-opacity:1;
stroke-linecap:round; stroke-linejoin:round; "
 transform="translate(0 0) scale(1 1)">
</g>
<g style="fill:#000000; fill-opacity:0.0; 
stroke:#000000; stroke-width:-0.000393701; stroke-opacity:1; 
stroke-linecap:round; stroke-linejoin:round;">
</g>
<g style="fill:#000000; fill-opacity:0.0; 
stroke:#000000; stroke-width:59.0551; stroke-opacity:1; 
stroke-linecap:round; stroke-linejoin:round;">
<path d="M9842 9842
L49212 9842
" />
<path d="M9842 49212
L9842 9842
" />
<path d="M49212 49212
L9842 49212
" />
<path d="M49212 9842
L49212 49212
" />
<path d="M16224 40881
L16224 40921
" />
<path d="M16224 43568
L16224 43558
" />
<path d="M18055 43568
L18055 43558
" />
<path d="M18478 40881
L16224 40881
" />
<path d="M18055 43568
L16224 43568
" />
</g>
<g style="fill:#000000; fill-opacity:0.0; 
stroke:#000000; stroke-width:47.2441; stroke-opacity:1; 
stroke-linecap:round; stroke-linejoin:round;">
<path d="M43212 11476
L24188 11476
" />
<path d="M24188 11476
L24188 13523
" />
<path d="M24188 13523
L44236 13523
" />
<path d="M44236 13523
L44236 12500
" />
<path d="M44236 12500
L43212 12500
" />
<path d="M43212 12500
L43212 11476
" />
<path d="M43712 11476
L44236 11476
" />
<path d="M44236 11476
L44236 11976
" />
</g>
<g style="fill:#000000; fill-opacity:0.0; 
stroke:#000000; stroke-width:59.0551; stroke-opacity:1; 
stroke-linecap:round; stroke-linejoin:round;">
<path d="M19896 41674
L19503 41674
" />
<path d="M19503 41005
L19896 41005
" />
<path d="M14756 41674
L14363 41674
" />
<path d="M14363 41005
L14756 41005
" />
<path d="M17608 43843
L17608 44162
L17589 44199
L17570 44218
L17533 44237
L17458 44237
L17420 44218
L17401 44199
L17383 44162
L17383 43843
" />
<path d="M16989 44237
L17214 44237
" />
<path d="M17101 44237
L17101 43843
L17139 43899
L17176 43937
L17214 43955
" />
<path d="M16858 43843
L16614 43843
L16745 43993
L16689 43993
L16651 44012
L16633 44030
L16614 44068
L16614 44162
L16633 44199
L16651 44218
L16689 44237
L16801 44237
L16839 44218
L16858 44199
" />
<path d="M44414 12368
L44695 12368
L44751 12350
L44789 12312
L44807 12256
L44807 12218
" />
<path d="M44807 12762
L44807 12537
" />
<path d="M44807 12649
L44414 12649
L44470 12612
L44507 12574
L44526 12537
" />
<path d="M20969 41284
L20985 41268
L21001 41220
L21001 41188
L20985 41140
L20953 41108
L20921 41092
L20857 41077
L20810 41077
L20746 41092
L20714 41108
L20682 41140
L20666 41188
L20666 41220
L20682 41268
L20698 41284
" />
<path d="M20666 41587
L20666 41427
L20826 41411
L20810 41427
L20794 41459
L20794 41539
L20810 41571
L20826 41587
L20857 41602
L20937 41602
L20969 41587
L20985 41571
L21001 41539
L21001 41459
L20985 41427
L20969 41411
" />
<path d="M13529 41284
L13545 41268
L13561 41220
L13561 41188
L13545 41140
L13513 41108
L13481 41092
L13417 41077
L13370 41077
L13306 41092
L13274 41108
L13242 41140
L13226 41188
L13226 41220
L13242 41268
L13258 41284
" />
<path d="M13226 41571
L13226 41507
L13242 41475
L13258 41459
L13306 41427
L13370 41411
L13497 41411
L13529 41427
L13545 41443
L13561 41475
L13561 41539
L13545 41571
L13529 41587
L13497 41602
L13417 41602
L13386 41587
L13370 41571
L13354 41539
L13354 41475
L13370 41443
L13386 41427
L13417 41411
" />
</g> 
</svg>
