<?xml version="1.0" standalone="no"?>
 <!DOCTYPE svg PUBLIC "-//W3C//DTD SVG 1.1//EN" 
 "http://www.w3.org/Graphics/SVG/1.1/DTD/svg11.dtd"> 
<svg xmlns="http://www.w3.org/2000/svg" version="1.1" 
    width="29.7002cm" height="21.0007cm" viewBox="0 0 116930 82680 ">
<title>SVG Picture created as row_driver-F.SilkS.svg date 2018/06/13 19:46:53 </title>
  <desc>Picture generated by PCBNEW </desc>
<g style="fill:#000000; fill-opacity:1;stroke:#000000; stroke-opacity:1;
stroke-linecap:round; stroke-linejoin:round; "
 transform="translate(0 0) scale(1 1)">
</g>
<g style="fill:#000000; fill-opacity:0.0; 
stroke:#000000; stroke-width:-0.000393701; stroke-opacity:1; 
stroke-linecap:round; stroke-linejoin:round;">
</g>
<g style="fill:#000000; fill-opacity:0.0; 
stroke:#000000; stroke-width:196.85; stroke-opacity:1; 
stroke-linecap:round; stroke-linejoin:round;">
<path d="M33864 45455
L34033 45511
L34089 45568
L34145 45680
L34145 45849
L34089 45961
L34033 46018
L33920 46074
L33470 46074
L33470 44893
L33864 44893
L33976 44949
L34033 45005
L34089 45118
L34089 45230
L34033 45343
L33976 45399
L33864 45455
L33470 45455
" />
<path d="M30458 45676
L31021 45676
" />
<path d="M30346 46014
L30740 44833
L31133 46014
" />
</g>
<g style="fill:#000000; fill-opacity:0.0; 
stroke:#000000; stroke-width:118.11; stroke-opacity:1; 
stroke-linecap:round; stroke-linejoin:round;">
<path d="M10753 33574
L11090 33574
" />
<path d="M10922 34165
L10922 33574
" />
<path d="M11400 33574
L11512 33574
L11568 33602
L11625 33658
L11653 33771
L11653 33968
L11625 34080
L11568 34137
L11512 34165
L11400 34165
L11343 34137
L11287 34080
L11259 33968
L11259 33771
L11287 33658
L11343 33602
L11400 33574
" />
<path d="M12693 34108
L12665 34137
L12581 34165
L12524 34165
L12440 34137
L12384 34080
L12356 34024
L12328 33912
L12328 33827
L12356 33715
L12384 33658
L12440 33602
L12524 33574
L12581 33574
L12665 33602
L12693 33630
" />
<path d="M13059 33574
L13171 33574
L13228 33602
L13284 33658
L13312 33771
L13312 33968
L13284 34080
L13228 34137
L13171 34165
L13059 34165
L13003 34137
L12946 34080
L12918 33968
L12918 33771
L12946 33658
L13003 33602
L13059 33574
" />
<path d="M13846 34165
L13565 34165
L13565 33574
" />
<path d="M10893 35169
L10893 34578
L11034 34578
L11118 34606
L11175 34662
L11203 34719
L11231 34831
L11231 34916
L11203 35028
L11175 35084
L11118 35141
L11034 35169
L10893 35169
" />
<path d="M11821 35169
L11625 34887
" />
<path d="M11484 35169
L11484 34578
L11709 34578
L11765 34606
L11793 34634
L11821 34691
L11821 34775
L11793 34831
L11765 34859
L11709 34887
L11484 34887
" />
<path d="M12075 35169
L12075 34578
" />
<path d="M12271 34578
L12468 35169
L12665 34578
" />
<path d="M12862 34859
L13059 34859
" />
<path d="M13143 35169
L12862 35169
L12862 34578
L13143 34578
" />
<path d="M13734 35169
L13537 34887
" />
<path d="M13396 35169
L13396 34578
L13621 34578
L13677 34606
L13706 34634
L13734 34691
L13734 34775
L13706 34831
L13677 34859
L13621 34887
L13396 34887
" />
<path d="M31926 47270
L31954 47242
L32010 47214
L32151 47214
L32207 47242
L32235 47270
L32263 47327
L32263 47383
L32235 47467
L31898 47805
L32263 47805
" />
<path d="M32770 47411
L32770 47805
" />
<path d="M32629 47186
L32488 47608
L32854 47608
" />
<path d="M32995 47214
L33191 47805
L33388 47214
" />
<path d="M33585 47805
L33585 47214
L33726 47214
L33810 47242
L33866 47298
L33894 47355
L33923 47467
L33923 47552
L33894 47664
L33866 47720
L33810 47777
L33726 47805
L33585 47805
" />
<path d="M34513 47748
L34485 47777
L34401 47805
L34344 47805
L34260 47777
L34204 47720
L34176 47664
L34148 47552
L34148 47467
L34176 47355
L34204 47298
L34260 47242
L34344 47214
L34401 47214
L34485 47242
L34513 47270
" />
<path d="M32516 48752
L32488 48781
L32404 48809
L32348 48809
L32263 48781
L32207 48724
L32179 48668
L32151 48556
L32151 48471
L32179 48359
L32207 48302
L32263 48246
L32348 48218
L32404 48218
L32488 48246
L32516 48274
" />
<path d="M32685 48218
L33023 48218
" />
<path d="M32854 48809
L32854 48218
" />
<path d="M33557 48809
L33360 48527
" />
<path d="M33220 48809
L33220 48218
L33444 48218
L33501 48246
L33529 48274
L33557 48331
L33557 48415
L33529 48471
L33501 48499
L33444 48527
L33220 48527
" />
<path d="M33810 48584
L34260 48584
" />
<path d="M34035 48809
L34035 48359
" />
<path d="M10908 11017
L10711 10735
" />
<path d="M10570 11017
L10570 10426
L10795 10426
L10852 10454
L10880 10482
L10908 10539
L10908 10623
L10880 10679
L10852 10707
L10795 10735
L10570 10735
" />
<path d="M11386 10989
L11330 11017
L11217 11017
L11161 10989
L11133 10932
L11133 10707
L11161 10651
L11217 10623
L11330 10623
L11386 10651
L11414 10707
L11414 10764
L11133 10820
" />
<path d="M11611 10623
L11751 11017
L11892 10623
" />
<path d="M12117 10960
L12145 10989
L12117 11017
L12089 10989
L12117 10960
L12117 11017
" />
<path d="M13158 11017
L12820 11017
" />
<path d="M12989 11017
L12989 10426
L12933 10510
L12876 10567
L12820 10595
" />
<path d="M13411 10960
L13439 10989
L13411 11017
L13383 10989
L13411 10960
L13411 11017
" />
<path d="M13804 10426
L13861 10426
L13917 10454
L13945 10482
L13973 10539
L14001 10651
L14001 10792
L13973 10904
L13945 10960
L13917 10989
L13861 11017
L13804 11017
L13748 10989
L13720 10960
L13692 10904
L13664 10792
L13664 10651
L13692 10539
L13720 10482
L13748 10454
L13804 10426
" />
<path d="M14873 10426
L14873 10848
L14845 10932
L14789 10989
L14704 11017
L14648 11017
" />
<path d="M15407 10623
L15407 11017
" />
<path d="M15154 10623
L15154 10932
L15182 10989
L15239 11017
L15323 11017
L15379 10989
L15407 10960
" />
<path d="M15688 10623
L15688 11017
" />
<path d="M15688 10679
L15717 10651
L15773 10623
L15857 10623
L15913 10651
L15942 10707
L15942 11017
" />
<path d="M16448 10989
L16392 11017
L16279 11017
L16223 10989
L16195 10932
L16195 10707
L16223 10651
L16279 10623
L16392 10623
L16448 10651
L16476 10707
L16476 10764
L16195 10820
" />
<path d="M16757 10989
L16757 11017
L16729 11073
L16701 11101
" />
<path d="M17432 10482
L17460 10454
L17516 10426
L17657 10426
L17713 10454
L17741 10482
L17769 10539
L17769 10595
L17741 10679
L17404 11017
L17769 11017
" />
<path d="M18135 10426
L18191 10426
L18248 10454
L18276 10482
L18304 10539
L18332 10651
L18332 10792
L18304 10904
L18276 10960
L18248 10989
L18191 11017
L18135 11017
L18079 10989
L18051 10960
L18023 10904
L17994 10792
L17994 10651
L18023 10539
L18051 10482
L18079 10454
L18135 10426
" />
<path d="M18894 11017
L18557 11017
" />
<path d="M18726 11017
L18726 10426
L18669 10510
L18613 10567
L18557 10595
" />
<path d="M19232 10679
L19176 10651
L19147 10623
L19119 10567
L19119 10539
L19147 10482
L19176 10454
L19232 10426
L19344 10426
L19401 10454
L19429 10482
L19457 10539
L19457 10567
L19429 10623
L19401 10651
L19344 10679
L19232 10679
L19176 10707
L19147 10735
L19119 10792
L19119 10904
L19147 10960
L19176 10989
L19232 11017
L19344 11017
L19401 10989
L19429 10960
L19457 10904
L19457 10792
L19429 10735
L19401 10707
L19344 10679
" />
</g>
<g style="fill:#000000; fill-opacity:0.0; 
stroke:#000000; stroke-width:98.4252; stroke-opacity:1; 
stroke-linecap:round; stroke-linejoin:round;">
<path d="M41555 38493
L41423 38306
" />
<path d="M41330 38493
L41330 38099
L41480 38099
L41517 38118
L41536 38137
L41555 38174
L41555 38231
L41536 38268
L41517 38287
L41480 38306
L41330 38306
" />
<path d="M41723 38287
L41854 38287
" />
<path d="M41911 38493
L41723 38493
L41723 38099
L41911 38099
" />
<path d="M42023 38099
L42154 38493
L42286 38099
" />
<path d="M41311 39182
L41311 38788
L41461 38788
L41498 38807
L41517 38826
L41536 38863
L41536 38920
L41517 38957
L41498 38976
L41461 38995
L41311 38995
" />
<path d="M41780 38788
L41854 38788
L41892 38807
L41929 38845
L41948 38920
L41948 39051
L41929 39126
L41892 39163
L41854 39182
L41780 39182
L41742 39163
L41705 39126
L41686 39051
L41686 38920
L41705 38845
L41742 38807
L41780 38788
" />
<path d="M42304 39182
L42117 39182
L42117 38788
" />
</g>
<g style="fill:#000000; fill-opacity:0.0; 
stroke:#000000; stroke-width:196.85; stroke-opacity:1; 
stroke-linecap:round; stroke-linejoin:round;">
<path d="M11947 20681
L11553 20681
" />
<path d="M11553 21300
L11553 20118
L12116 20118
" />
<path d="M12735 21300
L12622 21243
L12566 21131
L12566 20118
" />
<path d="M13185 21300
L13185 20512
" />
<path d="M13185 20118
L13128 20175
L13185 20231
L13241 20175
L13185 20118
L13185 20231
" />
<path d="M13747 20512
L13747 21693
" />
<path d="M13747 20568
L13859 20512
L14084 20512
L14197 20568
L14253 20625
L14309 20737
L14309 21075
L14253 21187
L14197 21243
L14084 21300
L13859 21300
L13747 21243
" />
<path d="M14816 21300
L14816 20118
L15209 20962
L15603 20118
L15603 21300
" />
<path d="M16672 21300
L16672 20681
L16615 20568
L16503 20512
L16278 20512
L16165 20568
" />
<path d="M16672 21243
L16559 21300
L16278 21300
L16165 21243
L16109 21131
L16109 21018
L16165 20906
L16278 20850
L16559 20850
L16672 20793
" />
<path d="M17178 21243
L17290 21300
L17515 21300
L17628 21243
L17684 21131
L17684 21075
L17628 20962
L17515 20906
L17347 20906
L17234 20850
L17178 20737
L17178 20681
L17234 20568
L17347 20512
L17515 20512
L17628 20568
" />
<path d="M18021 20512
L18471 20512
" />
<path d="M18190 20118
L18190 21131
L18246 21243
L18359 21300
L18471 21300
" />
<path d="M19315 21243
L19203 21300
L18978 21300
L18865 21243
L18809 21131
L18809 20681
L18865 20568
L18978 20512
L19203 20512
L19315 20568
L19371 20681
L19371 20793
L18809 20906
" />
<path d="M19877 21300
L19877 20512
" />
<path d="M19877 20737
L19934 20625
L19990 20568
L20102 20512
L20215 20512
" />
<path d="M21565 21300
L21790 21300
L21902 21243
L21958 21187
L22071 21018
L22127 20793
L22127 20343
L22071 20231
L22015 20175
L21902 20118
L21677 20118
L21565 20175
L21508 20231
L21452 20343
L21452 20625
L21508 20737
L21565 20793
L21677 20850
L21902 20850
L22015 20793
L22071 20737
L22127 20625
" />
<path d="M22858 20118
L22971 20118
L23083 20175
L23140 20231
L23196 20343
L23252 20568
L23252 20850
L23196 21075
L23140 21187
L23083 21243
L22971 21300
L22858 21300
L22746 21243
L22690 21187
L22633 21075
L22577 20850
L22577 20568
L22633 20343
L22690 20231
L22746 20175
L22858 20118
" />
<path d="M23983 20118
L24096 20118
L24208 20175
L24264 20231
L24321 20343
L24377 20568
L24377 20850
L24321 21075
L24264 21187
L24208 21243
L24096 21300
L23983 21300
L23871 21243
L23814 21187
L23758 21075
L23702 20850
L23702 20568
L23758 20343
L23814 20231
L23871 20175
L23983 20118
" />
<path d="M25108 20118
L25221 20118
L25333 20175
L25389 20231
L25446 20343
L25502 20568
L25502 20850
L25446 21075
L25389 21187
L25333 21243
L25221 21300
L25108 21300
L24996 21243
L24939 21187
L24883 21075
L24827 20850
L24827 20568
L24883 20343
L24939 20231
L24996 20175
L25108 20118
" />
<path d="M14703 23268
L14309 22706
" />
<path d="M14028 23268
L14028 22087
L14478 22087
L14591 22143
L14647 22199
L14703 22312
L14703 22481
L14647 22593
L14591 22649
L14478 22706
L14028 22706
" />
<path d="M15378 23268
L15266 23212
L15209 23156
L15153 23043
L15153 22706
L15209 22593
L15266 22537
L15378 22481
L15547 22481
L15659 22537
L15715 22593
L15772 22706
L15772 23043
L15715 23156
L15659 23212
L15547 23268
L15378 23268
" />
<path d="M16165 22481
L16390 23268
L16615 22706
L16840 23268
L17065 22481
" />
<path d="M18415 23268
L18415 22087
L18696 22087
L18865 22143
L18978 22256
L19034 22368
L19090 22593
L19090 22762
L19034 22987
L18978 23099
L18865 23212
L18696 23268
L18415 23268
" />
<path d="M19596 23268
L19596 22481
" />
<path d="M19596 22706
L19652 22593
L19709 22537
L19821 22481
L19934 22481
" />
<path d="M20327 23268
L20327 22481
" />
<path d="M20327 22087
L20271 22143
L20327 22199
L20384 22143
L20327 22087
L20327 22199
" />
<path d="M20777 22481
L21059 23268
L21340 22481
" />
<path d="M22240 23212
L22127 23268
L21902 23268
L21790 23212
L21733 23099
L21733 22649
L21790 22537
L21902 22481
L22127 22481
L22240 22537
L22296 22649
L22296 22762
L21733 22874
" />
<path d="M22802 23268
L22802 22481
" />
<path d="M22802 22706
L22858 22593
L22915 22537
L23027 22481
L23140 22481
" />
</g>
<g style="fill:#000000; fill-opacity:0.0; 
stroke:#000000; stroke-width:98.4252; stroke-opacity:1; 
stroke-linecap:round; stroke-linejoin:round;">
<path d="M39482 48698
L39482 48304
L39631 48304
L39669 48323
L39688 48341
L39706 48379
L39706 48435
L39688 48473
L39669 48491
L39631 48510
L39482 48510
" />
<path d="M39838 48304
L39931 48698
L40006 48416
L40081 48698
L40175 48304
" />
<path d="M40550 48698
L40419 48510
" />
<path d="M40325 48698
L40325 48304
L40475 48304
L40513 48323
L40531 48341
L40550 48379
L40550 48435
L40531 48473
L40513 48491
L40475 48510
L40325 48510
" />
<path d="M41094 48304
L41169 48304
L41206 48323
L41244 48360
L41263 48435
L41263 48566
L41244 48641
L41206 48679
L41169 48698
L41094 48698
L41056 48679
L41019 48641
L41000 48566
L41000 48435
L41019 48360
L41056 48323
L41094 48304
" />
<path d="M41431 48698
L41431 48304
" />
<path d="M41656 48698
L41488 48473
" />
<path d="M41656 48304
L41431 48529
" />
</g>
<g style="fill:#000000; fill-opacity:0.0; 
stroke:#000000; stroke-width:59.0551; stroke-opacity:1; 
stroke-linecap:round; stroke-linejoin:round;">
<path d="M9842 9842
L49212 9842
" />
<path d="M9842 49212
L9842 9842
" />
<path d="M49212 49212
L9842 49212
" />
<path d="M49212 9842
L49212 49212
" />
<path d="M42267 37578
L42188 37578
" />
<path d="M41246 37578
L41316 37578
" />
<path d="M41368.3 36307.6 A786.653 786.653 0.0 0 0 41243.7 37578.3 " />
<path d="M41317.3 36573.6 A608.718 608.718 0.0 0 0 41316.9 37401.6 " />
<path d="M42277.8 37573.3 A782.385 782.385 0.0 0 0 42141.3 36298.8 " />
<path d="M42188.3 37387 A582.991 582.991 0.0 0 0 42180.7 36580.7 " />
<path d="M34728 49454
L38272 49454
" />
<path d="M34728 50832
L38272 50832
" />
<path d="M38272 50832
L38272 45123
" />
<path d="M38272 45123
L34728 45123
" />
<path d="M34728 45123
L34728 50832
" />
<path d="M14519 16669
L14519 15330
" />
<path d="M12905.1 16000 A944.882 944.882 0.0 0 0 14518.1 16668.1 " />
<path d="M14518.1 15331.9 A944.882 944.882 0.0 0 0 12905.1 16000 " />
</g>
<g style="fill:#000000; fill-opacity:0.0; 
stroke:#000000; stroke-width:47.2441; stroke-opacity:1; 
stroke-linecap:round; stroke-linejoin:round;">
<path d="M15636 12364
L15636 12234
" />
<path d="M15636 12234
L18163 12234
" />
<path d="M18163 12234
L18163 12364
" />
<path d="M15636 13135
L15636 13265
" />
<path d="M15636 13265
L18163 13265
" />
<path d="M18163 13265
L18163 13135
" />
</g>
<g style="fill:#000000; fill-opacity:0.0; 
stroke:#000000; stroke-width:59.0551; stroke-opacity:1; 
stroke-linecap:round; stroke-linejoin:round;">
<path d="M47783 36232
L43216 36232
" />
<path d="M47783 39539
L47783 36232
" />
<path d="M43216 39539
L47783 39539
" />
<path d="M43216 36232
L43216 39539
" />
<path d="M15453 13996
L15453 14496
" />
<path d="M18346 13996
L18346 14496
" />
<path d="M18346 17803
L18346 17303
" />
<path d="M15453 17803
L15453 17303
" />
<path d="M15453 13996
L18346 13996
" />
<path d="M15453 17803
L18346 17803
" />
<path d="M15453 14496
L15085 14496
" />
<path d="M45700 17991
L22700 17991
" />
<path d="M45487 17774
L22920 17774
" />
<path d="M45700 14408
L22700 14408
" />
<path d="M45487 14625
L35085 14625
" />
<path d="M33314 14625
L22920 14625
" />
<path d="M35085 14625
L35085 14408
" />
<path d="M33314 14625
L33314 14408
" />
<path d="M45700 17991
L45700 14408
" />
<path d="M45487 17774
L45487 14625
" />
<path d="M22700 17991
L22700 14408
" />
<path d="M22920 17774
L22920 14625
" />
<path d="M45700 17991
L45487 17774
" />
<path d="M22700 17991
L22920 17774
" />
<path d="M45700 14408
L45487 14625
" />
<path d="M22700 14408
L22920 14625
" />
<path d="M14041 24750
L14041 32750
" />
<path d="M13824 24962
L13824 32529
" />
<path d="M10458 24750
L10458 32750
" />
<path d="M10675 24962
L10675 27864
" />
<path d="M10675 29635
L10675 32529
" />
<path d="M10675 27864
L10458 27864
" />
<path d="M10675 29635
L10458 29635
" />
<path d="M14041 24750
L10458 24750
" />
<path d="M13824 24962
L10675 24962
" />
<path d="M14041 32750
L10458 32750
" />
<path d="M13824 32529
L10675 32529
" />
<path d="M14041 24750
L13824 24962
" />
<path d="M14041 32750
L13824 32529
" />
<path d="M10458 24750
L10675 24962
" />
<path d="M10458 32750
L10675 32529
" />
</g>
<g style="fill:#000000; fill-opacity:0.0; 
stroke:#000000; stroke-width:47.2441; stroke-opacity:1; 
stroke-linecap:round; stroke-linejoin:round;">
<path d="M42320 47281
L48620 47281
" />
<path d="M48620 47281
L48620 48627
" />
<path d="M48620 48627
L48206 48627
" />
<path d="M48206 48627
L48206 51068
" />
<path d="M48206 51068
L42734 51068
" />
<path d="M42734 51068
L42734 48627
" />
<path d="M42734 48627
L42320 48627
" />
<path d="M42320 48627
L42320 47281
" />
<path d="M42809 51068
L42809 51659
" />
<path d="M42809 51659
L43454 51659
" />
<path d="M43454 51659
L43454 51068
" />
<path d="M44368 51068
L44368 51659
" />
<path d="M44368 51659
L45013 51659
" />
<path d="M45013 51659
L45013 51068
" />
<path d="M45927 51068
L45927 51659
" />
<path d="M45927 51659
L46572 51659
" />
<path d="M46572 51659
L46572 51068
" />
<path d="M47486 51068
L47486 51659
" />
<path d="M47486 51659
L48131 51659
" />
<path d="M48131 51659
L48131 51068
" />
<path d="M43131 45116
L42498 45116
" />
<path d="M42498 45116
L42498 45750
" />
</g>
<g style="fill:#000000; fill-opacity:0.0; 
stroke:#000000; stroke-width:59.0551; stroke-opacity:1; 
stroke-linecap:round; stroke-linejoin:round;">
<path d="M16513 18655
L16986 18655
" />
<path d="M16986 19344
L16513 19344
" />
<path d="M13986 18094
L13513 18094
" />
<path d="M13513 17405
L13986 17405
" />
<path d="M13986 19344
L13513 19344
" />
<path d="M13513 18655
L13986 18655
" />
<path d="M41605 27736
L41605 27263
" />
<path d="M42294 27263
L42294 27736
" />
<path d="M47355 27736
L47355 27263
" />
<path d="M48044 27263
L48044 27736
" />
<path d="M47355 34236
L47355 33763
" />
<path d="M48044 33763
L48044 34236
" />
<path d="M42294 33763
L42294 34236
" />
<path d="M41605 34236
L41605 33763
" />
<path d="M34844 27263
L34844 27736
" />
<path d="M34155 27736
L34155 27263
" />
<path d="M40594 27263
L40594 27736
" />
<path d="M39905 27736
L39905 27263
" />
<path d="M39905 34236
L39905 33763
" />
<path d="M40594 33763
L40594 34236
" />
<path d="M34155 34236
L34155 33763
" />
<path d="M34844 33763
L34844 34236
" />
<path d="M26655 27736
L26655 27263
" />
<path d="M27344 27263
L27344 27736
" />
<path d="M32405 27736
L32405 27263
" />
<path d="M33094 27263
L33094 27736
" />
<path d="M33094 33763
L33094 34236
" />
<path d="M32405 34236
L32405 33763
" />
<path d="M27344 33763
L27344 34236
" />
<path d="M26655 34236
L26655 33763
" />
<path d="M19594 27263
L19594 27736
" />
<path d="M18905 27736
L18905 27263
" />
<path d="M25344 27263
L25344 27736
" />
<path d="M24655 27736
L24655 27263
" />
<path d="M24655 34236
L24655 33763
" />
<path d="M25344 33763
L25344 34236
" />
<path d="M18905 34236
L18905 33763
" />
<path d="M19594 33763
L19594 34236
" />
</g>
<g style="fill:#000000; fill-opacity:0.0; 
stroke:#000000; stroke-width:47.2441; stroke-opacity:1; 
stroke-linecap:round; stroke-linejoin:round;">
<path d="M21885 34393
L21885 33606
" />
<path d="M21885 33606
L20350 33606
" />
<path d="M21885 34393
L20350 34393
" />
<path d="M24135 34393
L24135 33606
" />
<path d="M24135 33606
L22600 33606
" />
<path d="M24135 34393
L22600 34393
" />
<path d="M22364 27106
L22364 27893
" />
<path d="M22364 27893
L23899 27893
" />
<path d="M22364 27106
L23899 27106
" />
<path d="M20114 27106
L20114 27893
" />
<path d="M20114 27893
L21649 27893
" />
<path d="M20114 27106
L21649 27106
" />
<path d="M29635 34393
L29635 33606
" />
<path d="M29635 33606
L28100 33606
" />
<path d="M29635 34393
L28100 34393
" />
<path d="M31885 34393
L31885 33606
" />
<path d="M31885 33606
L30350 33606
" />
<path d="M31885 34393
L30350 34393
" />
<path d="M30114 27106
L30114 27893
" />
<path d="M30114 27893
L31649 27893
" />
<path d="M30114 27106
L31649 27106
" />
<path d="M27864 27106
L27864 27893
" />
<path d="M27864 27893
L29399 27893
" />
<path d="M27864 27106
L29399 27106
" />
<path d="M37135 34393
L37135 33606
" />
<path d="M37135 33606
L35600 33606
" />
<path d="M37135 34393
L35600 34393
" />
<path d="M39385 34393
L39385 33606
" />
<path d="M39385 33606
L37850 33606
" />
<path d="M39385 34393
L37850 34393
" />
<path d="M37614 27106
L37614 27893
" />
<path d="M37614 27893
L39149 27893
" />
<path d="M37614 27106
L39149 27106
" />
<path d="M35364 27106
L35364 27893
" />
<path d="M35364 27893
L36899 27893
" />
<path d="M35364 27106
L36899 27106
" />
<path d="M44585 34393
L44585 33606
" />
<path d="M44585 33606
L43050 33606
" />
<path d="M44585 34393
L43050 34393
" />
<path d="M46835 34393
L46835 33606
" />
<path d="M46835 33606
L45300 33606
" />
<path d="M46835 34393
L45300 34393
" />
<path d="M45064 27106
L45064 27893
" />
<path d="M45064 27893
L46599 27893
" />
<path d="M45064 27106
L46599 27106
" />
<path d="M42814 27106
L42814 27893
" />
<path d="M42814 27893
L44349 27893
" />
<path d="M42814 27106
L44349 27106
" />
</g>
<g style="fill:#000000; fill-opacity:0.0; 
stroke:#000000; stroke-width:59.0551; stroke-opacity:1; 
stroke-linecap:round; stroke-linejoin:round;">
<path d="M19084 32596
L19084 32203
" />
<path d="M18415 32203
L18415 32596
" />
<path d="M26584 32596
L26584 32203
" />
<path d="M25915 32203
L25915 32596
" />
<path d="M34084 32596
L34084 32203
" />
<path d="M33415 32203
L33415 32596
" />
<path d="M41534 32596
L41534 32203
" />
<path d="M40865 32203
L40865 32596
" />
</g>
<g style="fill:#000000; fill-opacity:0.0; 
stroke:#000000; stroke-width:47.2441; stroke-opacity:1; 
stroke-linecap:round; stroke-linejoin:round;">
<path d="M30537 10946
L30537 11206
" />
<path d="M30537 10293
L30537 10553
" />
<path d="M30537 10293
L29738 10293
" />
<path d="M29982 11206
L30537 11206
" />
<path d="M32537 10946
L32537 11206
" />
<path d="M32537 10293
L32537 10553
" />
<path d="M32537 10293
L31738 10293
" />
<path d="M31982 11206
L32537 11206
" />
<path d="M34537 10946
L34537 11206
" />
<path d="M34537 10293
L34537 10553
" />
<path d="M34537 10293
L33738 10293
" />
<path d="M33982 11206
L34537 11206
" />
<path d="M36537 10946
L36537 11206
" />
<path d="M36537 10293
L36537 10553
" />
<path d="M36537 10293
L35738 10293
" />
<path d="M35982 11206
L36537 11206
" />
<path d="M38537 10946
L38537 11206
" />
<path d="M38537 10293
L38537 10553
" />
<path d="M38537 10293
L37738 10293
" />
<path d="M37982 11206
L38537 11206
" />
<path d="M40537 10946
L40537 11206
" />
<path d="M40537 10293
L40537 10553
" />
<path d="M40537 10293
L39738 10293
" />
<path d="M39982 11206
L40537 11206
" />
<path d="M42537 10946
L42537 11206
" />
<path d="M42537 10293
L42537 10553
" />
<path d="M42537 10293
L41738 10293
" />
<path d="M41982 11206
L42537 11206
" />
<path d="M44537 10946
L44537 11206
" />
<path d="M44537 10293
L44537 10553
" />
<path d="M44537 10293
L43738 10293
" />
<path d="M43982 11206
L44537 11206
" />
</g>
<g style="fill:#000000; fill-opacity:0.0; 
stroke:#000000; stroke-width:59.0551; stroke-opacity:1; 
stroke-linecap:round; stroke-linejoin:round;">
<path d="M19410 32275
L19508 32275
" />
<path d="M19410 29224
L19542 29224
" />
<path d="M24587 29224
L24455 29224
" />
<path d="M24587 32275
L24455 32275
" />
<path d="M19410 32275
L19410 29224
" />
<path d="M24587 32275
L24587 29224
" />
<path d="M19508 32275
L19508 32984
" />
<path d="M26911 32275
L27009 32275
" />
<path d="M26911 29224
L27043 29224
" />
<path d="M32088 29224
L31956 29224
" />
<path d="M32088 32275
L31956 32275
" />
<path d="M26911 32275
L26911 29224
" />
<path d="M32088 32275
L32088 29224
" />
<path d="M27009 32275
L27009 32984
" />
<path d="M30907 24025
L31005 24025
" />
<path d="M30907 20974
L31043 20974
" />
<path d="M35592 20974
L35456 20974
" />
<path d="M35592 24025
L35456 24025
" />
<path d="M30907 24025
L30907 20974
" />
<path d="M35592 24025
L35592 20974
" />
<path d="M31005 24025
L31005 24744
" />
<path d="M34411 32275
L34509 32275
" />
<path d="M34411 29224
L34543 29224
" />
<path d="M39588 29224
L39456 29224
" />
<path d="M39588 32275
L39456 32275
" />
<path d="M34411 32275
L34411 29224
" />
<path d="M39588 32275
L39588 29224
" />
<path d="M34509 32275
L34509 32984
" />
<path d="M41861 32275
L41959 32275
" />
<path d="M41861 29224
L41993 29224
" />
<path d="M47038 29224
L46906 29224
" />
<path d="M47038 32275
L46906 32275
" />
<path d="M41861 32275
L41861 29224
" />
<path d="M47038 32275
L47038 29224
" />
<path d="M41959 32275
L41959 32984
" />
<path d="M38407 24025
L38505 24025
" />
<path d="M38407 20974
L38543 20974
" />
<path d="M43092 20974
L42956 20974
" />
<path d="M43092 24025
L42956 24025
" />
<path d="M38407 24025
L38407 20974
" />
<path d="M43092 24025
L43092 20974
" />
<path d="M38505 24025
L38505 24744
" />
<path d="M41017 47578
L40938 47578
" />
<path d="M39996 47578
L40066 47578
" />
<path d="M40118.3 46307.6 A786.653 786.653 0.0 0 0 39993.7 47578.3 " />
<path d="M40067.3 46573.6 A608.718 608.718 0.0 0 0 40066.9 47401.6 " />
<path d="M41027.8 47573.3 A782.385 782.385 0.0 0 0 40891.3 46298.8 " />
<path d="M40938.3 47387 A582.991 582.991 0.0 0 0 40930.7 46580.7 " />
</g>
<g style="fill:#000000; fill-opacity:0.0; 
stroke:#000000; stroke-width:47.2441; stroke-opacity:1; 
stroke-linecap:round; stroke-linejoin:round;">
<path d="M38338 37267
L37661 37267
" />
<path d="M37661 37267
L37661 38732
" />
<path d="M37661 38732
L38338 38732
" />
<path d="M38338 38732
L38338 37267
" />
<path d="M38000 36846
L38000 37267
" />
<path d="M38000 39153
L38000 38732
" />
</g>
<g style="fill:#000000; fill-opacity:0.0; 
stroke:#000000; stroke-width:59.0551; stroke-opacity:1; 
stroke-linecap:round; stroke-linejoin:round;">
<path d="M41263 39405
L41736 39405
" />
<path d="M41736 40094
L41263 40094
" />
<path d="M40736 45594
L40263 45594
" />
<path d="M40263 44905
L40736 44905
" />
</g>
<g style="fill:#000000; fill-opacity:0.0; 
stroke:#000000; stroke-width:47.2441; stroke-opacity:1; 
stroke-linecap:round; stroke-linejoin:round;">
<path d="M38726 44023
L39773 44023
" />
<path d="M38726 43000
L38726 44023
" />
<path d="M39773 43000
L39773 44023
" />
<path d="M38726 43000
L39773 43000
" />
<path d="M38726 42500
L38726 41976
" />
<path d="M38726 41976
L39250 41976
" />
<path d="M11917 13438
L11082 13438
" />
<path d="M11082 13438
L11082 15061
" />
<path d="M11082 15061
L11917 15061
" />
<path d="M11917 15061
L11917 13438
" />
<path d="M11500 13135
L11500 13438
" />
<path d="M11500 15364
L11500 15061
" />
<path d="M11917 13698
L11082 13698
" />
<path d="M40167 37188
L39332 37188
" />
<path d="M39332 37188
L39332 38811
" />
<path d="M39332 38811
L40167 38811
" />
<path d="M40167 38811
L40167 37188
" />
<path d="M39750 36885
L39750 37188
" />
<path d="M39750 39114
L39750 38811
" />
<path d="M40167 37448
L39332 37448
" />
<path d="M37246 43547
L37194 43547
" />
<path d="M37194 43547
L37194 41452
" />
<path d="M37194 41452
L37246 41452
" />
<path d="M38253 43547
L38305 43547
" />
<path d="M38305 43547
L38305 41452
" />
<path d="M38305 41452
L38253 41452
" />
<path d="M37194 43216
L38305 43216
" />
</g>
<g style="fill:#000000; fill-opacity:0.0; 
stroke:#000000; stroke-width:59.0551; stroke-opacity:1; 
stroke-linecap:round; stroke-linejoin:round;">
<path d="M15056 36184
L14583 36184
" />
<path d="M14583 35495
L15056 35495
" />
</g>
<g style="fill:#000000; fill-opacity:0.0; 
stroke:#000000; stroke-width:47.2441; stroke-opacity:1; 
stroke-linecap:round; stroke-linejoin:round;">
<path d="M42143 40484
L42143 44515
" />
<path d="M48399 40484
L48399 44515
" />
<path d="M48399 40484
L42143 40484
" />
<path d="M48399 44515
L42143 44515
" />
<path d="M42143 41500
L41104 41500
" />
<path d="M42143 42500
L41110 42500
" />
<path d="M42143 43500
L41110 43500
" />
</g>
<g style="fill:#000000; fill-opacity:0.0; 
stroke:#000000; stroke-width:59.0551; stroke-opacity:1; 
stroke-linecap:round; stroke-linejoin:round;">
<path d="M32052 36270
L32052 44270
" />
<path d="M31836 36482
L31836 44049
" />
<path d="M28470 36270
L28470 44270
" />
<path d="M28686 36482
L28686 39384
" />
<path d="M28686 41155
L28686 44049
" />
<path d="M28686 39384
L28470 39384
" />
<path d="M28686 41155
L28470 41155
" />
<path d="M32052 36270
L28470 36270
" />
<path d="M31836 36482
L28686 36482
" />
<path d="M32052 44270
L28470 44270
" />
<path d="M31836 44049
L28686 44049
" />
<path d="M32052 36270
L31836 36482
" />
<path d="M32052 44270
L31836 44049
" />
<path d="M28470 36270
L28686 36482
" />
<path d="M28470 44270
L28686 44049
" />
<path d="M36052 36270
L36052 44270
" />
<path d="M35836 36482
L35836 44049
" />
<path d="M32470 36270
L32470 44270
" />
<path d="M32686 36482
L32686 39384
" />
<path d="M32686 41155
L32686 44049
" />
<path d="M32686 39384
L32470 39384
" />
<path d="M32686 41155
L32470 41155
" />
<path d="M36052 36270
L32470 36270
" />
<path d="M35836 36482
L32686 36482
" />
<path d="M36052 44270
L32470 44270
" />
<path d="M35836 44049
L32686 44049
" />
<path d="M36052 36270
L35836 36482
" />
<path d="M36052 44270
L35836 44049
" />
<path d="M32470 36270
L32686 36482
" />
<path d="M32470 44270
L32686 44049
" />
</g>
<g style="fill:#000000; fill-opacity:0.0; 
stroke:#000000; stroke-width:39.3701; stroke-opacity:1; 
stroke-linecap:round; stroke-linejoin:round;">
<path d="M25320 43740
L27320 43740
" />
<path d="M25320 40740
L25320 43740
" />
<path d="M27320 40740
L25320 40740
" />
<path d="M12620 40440
L10020 40440
" />
<path d="M12620 44040
L12620 40440
" />
<path d="M10020 44040
L12620 44040
" />
<path d="M10020 40440
L10020 44040
" />
<path d="M10320 45740
L10320 38740
" />
<path d="M27320 45740
L10320 45740
" />
<path d="M27320 38740
L27320 45740
" />
<path d="M10320 38740
L27320 38740
" />
<path d="M13080 38008
L10423 38008
" />
<path d="M13474 37122
L13080 38008
" />
<path d="M10412 46499
L10412 44211
" />
<path d="M10412 44211
L10917 44201
" />
<path d="M10917 44201
L10915 40724
" />
<path d="M10915 40724
L10441 40725
" />
<path d="M10441 40725
L10441 38008
" />
<path d="M13474 37155
L22723 37155
" />
<path d="M22723 37155
L22961 37247
" />
<path d="M22961 37247
L23175 37358
" />
<path d="M23175 37358
L23367 37490
" />
<path d="M23367 37490
L23535 37642
" />
<path d="M23535 37642
L23680 37815
" />
<path d="M23680 37815
L23801 38008
" />
<path d="M23801 38008
L23898 38222
" />
<path d="M23898 38222
L23971 38458
" />
<path d="M23971 38458
L23982 45953
" />
<path d="M23982 45953
L23890 46197
" />
<path d="M23890 46197
L23778 46428
" />
<path d="M23778 46428
L23641 46642
" />
<path d="M23641 46642
L23472 46833
" />
<path d="M23472 46833
L23266 46996
" />
<path d="M23266 46996
L23017 47125
" />
<path d="M23017 47125
L22720 47215
" />
<path d="M22720 47215
L22368 47260
" />
<path d="M22368 47260
L13488 47270
" />
<path d="M13488 47270
L13110 46505
" />
<path d="M13110 46505
L10430 46493
" />
<path d="M12863 40988
L12863 43799
" />
<path d="M12863 43799
L10574 43799
" />
<path d="M10574 43799
L10574 40988
" />
<path d="M10574 40988
L12863 40988
" />
<path d="M13119 46470
L13119 45859
" />
<path d="M13119 45859
L12910 45650
" />
<path d="M12910 45650
L12910 45157
" />
<path d="M12910 45157
L10917 45157
" />
<path d="M10917 45157
L10917 45664
" />
<path d="M10917 45664
L10723 45873
" />
<path d="M10723 45873
L10723 46491
" />
<path d="M10723 46491
L13119 46470
" />
<path d="M12299 46484
L12299 46741
" />
<path d="M12299 46741
L11515 46741
" />
<path d="M11515 46741
L11515 46498
" />
<path d="M10886 39356
L12879 39356
" />
<path d="M12879 39356
L12879 38849
" />
<path d="M12879 38849
L13073 38641
" />
<path d="M13073 38641
L13073 38023
" />
<path d="M13073 38023
L10677 38044
" />
<path d="M10677 38044
L10677 38655
" />
<path d="M10677 38655
L10886 38863
" />
<path d="M10886 38863
L10886 39356
" />
<path d="M11497 38030
L11497 37773
" />
<path d="M11497 37773
L12281 37773
" />
<path d="M12281 37773
L12281 38016
" />
</g>
<g style="fill:#000000; fill-opacity:0.0; 
stroke:#000000; stroke-width:59.0551; stroke-opacity:1; 
stroke-linecap:round; stroke-linejoin:round;">
<path d="M41271 35928
L41271 35534
L41365 35534
L41421 35553
L41459 35590
L41478 35628
L41496 35703
L41496 35759
L41478 35834
L41459 35871
L41421 35909
L41365 35928
L41271 35928
" />
<path d="M41871 35928
L41646 35928
" />
<path d="M41759 35928
L41759 35534
L41721 35590
L41684 35628
L41646 35646
" />
<path d="M42096 35703
L42059 35684
L42040 35665
L42021 35628
L42021 35609
L42040 35571
L42059 35553
L42096 35534
L42171 35534
L42209 35553
L42228 35571
L42246 35609
L42246 35628
L42228 35665
L42209 35684
L42171 35703
L42096 35703
L42059 35721
L42040 35740
L42021 35778
L42021 35853
L42040 35890
L42059 35909
L42096 35928
L42171 35928
L42209 35909
L42228 35890
L42246 35853
L42246 35778
L42228 35740
L42209 35721
L42171 35703
" />
<path d="M38528 44964
L38528 45245
L38510 45301
L38472 45339
L38416 45358
L38378 45358
" />
<path d="M38884 44964
L38809 44964
L38772 44983
L38753 45001
L38716 45058
L38697 45133
L38697 45283
L38716 45320
L38734 45339
L38772 45358
L38847 45358
L38884 45339
L38903 45320
L38922 45283
L38922 45189
L38903 45151
L38884 45133
L38847 45114
L38772 45114
L38734 45133
L38716 45151
L38697 45189
" />
<path d="M13762 14765
L13725 14746
L13687 14709
L13631 14653
L13593 14634
L13556 14634
" />
<path d="M13575 14728
L13537 14709
L13500 14671
L13481 14596
L13481 14465
L13500 14390
L13537 14353
L13575 14334
L13650 14334
L13687 14353
L13725 14390
L13743 14465
L13743 14596
L13725 14671
L13687 14709
L13650 14728
L13575 14728
" />
<path d="M14118 14728
L13893 14728
" />
<path d="M14006 14728
L14006 14334
L13968 14390
L13931 14428
L13893 14446
" />
<path d="M16696 12028
L16565 11840
" />
<path d="M16471 12028
L16471 11634
L16621 11634
L16659 11653
L16678 11671
L16696 11709
L16696 11765
L16678 11803
L16659 11821
L16621 11840
L16471 11840
" />
<path d="M16846 11671
L16865 11653
L16903 11634
L16996 11634
L17034 11653
L17053 11671
L17071 11709
L17071 11746
L17053 11803
L16828 12028
L17071 12028
" />
<path d="M17221 11671
L17240 11653
L17278 11634
L17371 11634
L17409 11653
L17428 11671
L17446 11709
L17446 11746
L17428 11803
L17203 12028
L17446 12028
" />
<path d="M45160 35268
L45160 35587
L45179 35624
L45198 35643
L45235 35662
L45310 35662
L45348 35643
L45366 35624
L45385 35587
L45385 35268
" />
<path d="M45535 35268
L45798 35268
L45629 35662
" />
<path d="M16600 13484
L16600 13803
L16618 13840
L16637 13859
L16675 13878
L16750 13878
L16787 13859
L16806 13840
L16825 13803
L16825 13484
" />
<path d="M17068 13653
L17031 13634
L17012 13615
L16993 13578
L16993 13559
L17012 13521
L17031 13503
L17068 13484
L17143 13484
L17181 13503
L17199 13521
L17218 13559
L17218 13578
L17199 13615
L17181 13634
L17143 13653
L17068 13653
L17031 13671
L17012 13690
L16993 13728
L16993 13803
L17012 13840
L17031 13859
L17068 13878
L17143 13878
L17181 13859
L17199 13840
L17218 13803
L17218 13728
L17199 13690
L17181 13671
L17143 13653
" />
<path d="M21568 15984
L21568 16265
L21550 16321
L21512 16359
L21456 16378
L21418 16378
" />
<path d="M21737 16021
L21756 16003
L21793 15984
L21887 15984
L21924 16003
L21943 16021
L21962 16059
L21962 16096
L21943 16153
L21718 16378
L21962 16378
" />
<path d="M11868 23684
L11868 23965
L11850 24021
L11812 24059
L11756 24078
L11718 24078
" />
<path d="M12224 23815
L12224 24078
" />
<path d="M12131 23665
L12037 23946
L12281 23946
" />
<path d="M45339 44530
L45339 44811
L45320 44867
L45282 44905
L45226 44924
L45189 44924
" />
<path d="M45489 44530
L45732 44530
L45601 44680
L45657 44680
L45695 44699
L45714 44717
L45732 44755
L45732 44849
L45714 44886
L45695 44905
L45657 44924
L45545 44924
L45507 44905
L45489 44886
" />
<path d="M15284 19151
L15173 18992
" />
<path d="M15093 19151
L15093 18816
L15221 18816
L15252 18832
L15268 18848
L15284 18880
L15284 18928
L15268 18960
L15252 18976
L15221 18992
L15093 18992
" />
<path d="M15412 18848
L15428 18832
L15460 18816
L15539 18816
L15571 18832
L15587 18848
L15603 18880
L15603 18912
L15587 18960
L15396 19151
L15603 19151
" />
<path d="M15906 18816
L15747 18816
L15731 18976
L15747 18960
L15778 18944
L15858 18944
L15890 18960
L15906 18976
L15922 19007
L15922 19087
L15906 19119
L15890 19135
L15858 19151
L15778 19151
L15747 19135
L15731 19119
" />
<path d="M12284 17901
L12173 17742
" />
<path d="M12093 17901
L12093 17566
L12221 17566
L12252 17582
L12268 17598
L12284 17630
L12284 17678
L12268 17710
L12252 17726
L12221 17742
L12093 17742
" />
<path d="M12412 17598
L12428 17582
L12460 17566
L12539 17566
L12571 17582
L12587 17598
L12603 17630
L12603 17662
L12587 17710
L12396 17901
L12603 17901
" />
<path d="M12890 17678
L12890 17901
" />
<path d="M12810 17550
L12731 17789
L12938 17789
" />
<path d="M12284 19151
L12173 18992
" />
<path d="M12093 19151
L12093 18816
L12221 18816
L12252 18832
L12268 18848
L12284 18880
L12284 18928
L12268 18960
L12252 18976
L12221 18992
L12093 18992
" />
<path d="M12412 18848
L12428 18832
L12460 18816
L12539 18816
L12571 18832
L12587 18848
L12603 18880
L12603 18912
L12587 18960
L12396 19151
L12603 19151
" />
<path d="M12715 18816
L12922 18816
L12810 18944
L12858 18944
L12890 18960
L12906 18976
L12922 19007
L12922 19087
L12906 19119
L12890 19135
L12858 19151
L12762 19151
L12731 19135
L12715 19119
" />
<path d="M41734 26801
L41623 26642
" />
<path d="M41543 26801
L41543 26466
L41671 26466
L41702 26482
L41718 26498
L41734 26530
L41734 26578
L41718 26610
L41702 26626
L41671 26642
L41543 26642
" />
<path d="M42053 26801
L41862 26801
" />
<path d="M41957 26801
L41957 26466
L41926 26514
L41894 26546
L41862 26562
" />
<path d="M42340 26466
L42276 26466
L42244 26482
L42228 26498
L42197 26546
L42181 26610
L42181 26737
L42197 26769
L42212 26785
L42244 26801
L42308 26801
L42340 26785
L42356 26769
L42372 26737
L42372 26657
L42356 26626
L42340 26610
L42308 26594
L42244 26594
L42212 26610
L42197 26626
L42181 26657
" />
<path d="M47484 26801
L47373 26642
" />
<path d="M47293 26801
L47293 26466
L47421 26466
L47452 26482
L47468 26498
L47484 26530
L47484 26578
L47468 26610
L47452 26626
L47421 26642
L47293 26642
" />
<path d="M47803 26801
L47612 26801
" />
<path d="M47707 26801
L47707 26466
L47676 26514
L47644 26546
L47612 26562
" />
<path d="M48106 26466
L47947 26466
L47931 26626
L47947 26610
L47978 26594
L48058 26594
L48090 26610
L48106 26626
L48122 26657
L48122 26737
L48106 26769
L48090 26785
L48058 26801
L47978 26801
L47947 26785
L47931 26769
" />
<path d="M47484 35151
L47373 34992
" />
<path d="M47293 35151
L47293 34816
L47421 34816
L47452 34832
L47468 34848
L47484 34880
L47484 34928
L47468 34960
L47452 34976
L47421 34992
L47293 34992
" />
<path d="M47803 35151
L47612 35151
" />
<path d="M47707 35151
L47707 34816
L47676 34864
L47644 34896
L47612 34912
" />
<path d="M48090 34928
L48090 35151
" />
<path d="M48010 34800
L47931 35039
L48138 35039
" />
<path d="M41734 35151
L41623 34992
" />
<path d="M41543 35151
L41543 34816
L41671 34816
L41702 34832
L41718 34848
L41734 34880
L41734 34928
L41718 34960
L41702 34976
L41671 34992
L41543 34992
" />
<path d="M42053 35151
L41862 35151
" />
<path d="M41957 35151
L41957 34816
L41926 34864
L41894 34896
L41862 34912
" />
<path d="M42165 34816
L42372 34816
L42260 34944
L42308 34944
L42340 34960
L42356 34976
L42372 35007
L42372 35087
L42356 35119
L42340 35135
L42308 35151
L42212 35151
L42181 35135
L42165 35119
" />
<path d="M34384 26801
L34273 26642
" />
<path d="M34193 26801
L34193 26466
L34321 26466
L34352 26482
L34368 26498
L34384 26530
L34384 26578
L34368 26610
L34352 26626
L34321 26642
L34193 26642
" />
<path d="M34703 26801
L34512 26801
" />
<path d="M34607 26801
L34607 26466
L34576 26514
L34544 26546
L34512 26562
" />
<path d="M34831 26498
L34847 26482
L34878 26466
L34958 26466
L34990 26482
L35006 26498
L35022 26530
L35022 26562
L35006 26610
L34815 26801
L35022 26801
" />
<path d="M40034 26801
L39923 26642
" />
<path d="M39843 26801
L39843 26466
L39971 26466
L40002 26482
L40018 26498
L40034 26530
L40034 26578
L40018 26610
L40002 26626
L39971 26642
L39843 26642
" />
<path d="M40353 26801
L40162 26801
" />
<path d="M40257 26801
L40257 26466
L40226 26514
L40194 26546
L40162 26562
" />
<path d="M40672 26801
L40481 26801
" />
<path d="M40576 26801
L40576 26466
L40544 26514
L40512 26546
L40481 26562
" />
<path d="M40104 35171
L39993 35012
" />
<path d="M39913 35171
L39913 34836
L40041 34836
L40072 34852
L40088 34868
L40104 34900
L40104 34948
L40088 34980
L40072 34996
L40041 35012
L39913 35012
" />
<path d="M40423 35171
L40232 35171
" />
<path d="M40327 35171
L40327 34836
L40296 34884
L40264 34916
L40232 34932
" />
<path d="M40630 34836
L40662 34836
L40694 34852
L40710 34868
L40726 34900
L40742 34964
L40742 35043
L40726 35107
L40710 35139
L40694 35155
L40662 35171
L40630 35171
L40598 35155
L40582 35139
L40567 35107
L40551 35043
L40551 34964
L40567 34900
L40582 34868
L40598 34852
L40630 34836
" />
<path d="M34444 35151
L34332 34992
" />
<path d="M34252 35151
L34252 34816
L34380 34816
L34412 34832
L34428 34848
L34444 34880
L34444 34928
L34428 34960
L34412 34976
L34380 34992
L34252 34992
" />
<path d="M34603 35151
L34667 35151
L34699 35135
L34715 35119
L34747 35071
L34762 35007
L34762 34880
L34747 34848
L34731 34832
L34699 34816
L34635 34816
L34603 34832
L34587 34848
L34571 34880
L34571 34960
L34587 34992
L34603 35007
L34635 35023
L34699 35023
L34731 35007
L34747 34992
L34762 34960
" />
<path d="M26944 26801
L26832 26642
" />
<path d="M26752 26801
L26752 26466
L26880 26466
L26912 26482
L26928 26498
L26944 26530
L26944 26578
L26928 26610
L26912 26626
L26880 26642
L26752 26642
" />
<path d="M27135 26610
L27103 26594
L27087 26578
L27071 26546
L27071 26530
L27087 26498
L27103 26482
L27135 26466
L27199 26466
L27231 26482
L27247 26498
L27262 26530
L27262 26546
L27247 26578
L27231 26594
L27199 26610
L27135 26610
L27103 26626
L27087 26642
L27071 26673
L27071 26737
L27087 26769
L27103 26785
L27135 26801
L27199 26801
L27231 26785
L27247 26769
L27262 26737
L27262 26673
L27247 26642
L27231 26626
L27199 26610
" />
<path d="M32694 26801
L32582 26642
" />
<path d="M32502 26801
L32502 26466
L32630 26466
L32662 26482
L32678 26498
L32694 26530
L32694 26578
L32678 26610
L32662 26626
L32630 26642
L32502 26642
" />
<path d="M32805 26466
L33028 26466
L32885 26801
" />
<path d="M32694 35151
L32582 34992
" />
<path d="M32502 35151
L32502 34816
L32630 34816
L32662 34832
L32678 34848
L32694 34880
L32694 34928
L32678 34960
L32662 34976
L32630 34992
L32502 34992
" />
<path d="M32981 34816
L32917 34816
L32885 34832
L32869 34848
L32837 34896
L32821 34960
L32821 35087
L32837 35119
L32853 35135
L32885 35151
L32949 35151
L32981 35135
L32997 35119
L33012 35087
L33012 35007
L32997 34976
L32981 34960
L32949 34944
L32885 34944
L32853 34960
L32837 34976
L32821 35007
" />
<path d="M26944 35151
L26832 34992
" />
<path d="M26752 35151
L26752 34816
L26880 34816
L26912 34832
L26928 34848
L26944 34880
L26944 34928
L26928 34960
L26912 34976
L26880 34992
L26752 34992
" />
<path d="M27247 34816
L27087 34816
L27071 34976
L27087 34960
L27119 34944
L27199 34944
L27231 34960
L27247 34976
L27262 35007
L27262 35087
L27247 35119
L27231 35135
L27199 35151
L27119 35151
L27087 35135
L27071 35119
" />
<path d="M19244 26751
L19132 26592
" />
<path d="M19052 26751
L19052 26416
L19180 26416
L19212 26432
L19228 26448
L19244 26480
L19244 26528
L19228 26560
L19212 26576
L19180 26592
L19052 26592
" />
<path d="M19531 26528
L19531 26751
" />
<path d="M19451 26400
L19371 26639
L19578 26639
" />
<path d="M24944 26751
L24832 26592
" />
<path d="M24752 26751
L24752 26416
L24880 26416
L24912 26432
L24928 26448
L24944 26480
L24944 26528
L24928 26560
L24912 26576
L24880 26592
L24752 26592
" />
<path d="M25055 26416
L25262 26416
L25151 26544
L25199 26544
L25231 26560
L25247 26576
L25262 26607
L25262 26687
L25247 26719
L25231 26735
L25199 26751
L25103 26751
L25071 26735
L25055 26719
" />
<path d="M24944 35151
L24832 34992
" />
<path d="M24752 35151
L24752 34816
L24880 34816
L24912 34832
L24928 34848
L24944 34880
L24944 34928
L24928 34960
L24912 34976
L24880 34992
L24752 34992
" />
<path d="M25071 34848
L25087 34832
L25119 34816
L25199 34816
L25231 34832
L25247 34848
L25262 34880
L25262 34912
L25247 34960
L25055 35151
L25262 35151
" />
<path d="M19194 35151
L19082 34992
" />
<path d="M19002 35151
L19002 34816
L19130 34816
L19162 34832
L19178 34848
L19194 34880
L19194 34928
L19178 34960
L19162 34976
L19130 34992
L19002 34992
" />
<path d="M19512 35151
L19321 35151
" />
<path d="M19417 35151
L19417 34816
L19385 34864
L19353 34896
L19321 34912
" />
<path d="M20434 34840
L20434 34505
L20513 34505
L20561 34521
L20593 34553
L20609 34585
L20625 34649
L20625 34696
L20609 34760
L20593 34792
L20561 34824
L20513 34840
L20434 34840
" />
<path d="M20944 34840
L20752 34840
" />
<path d="M20848 34840
L20848 34505
L20816 34553
L20784 34585
L20752 34601
" />
<path d="M21151 34505
L21183 34505
L21215 34521
L21231 34537
L21247 34569
L21262 34633
L21262 34712
L21247 34776
L21231 34808
L21215 34824
L21183 34840
L21151 34840
L21119 34824
L21103 34808
L21087 34776
L21071 34712
L21071 34633
L21087 34569
L21103 34537
L21119 34521
L21151 34505
" />
<path d="M21581 34840
L21390 34840
" />
<path d="M21486 34840
L21486 34505
L21454 34553
L21422 34585
L21390 34601
" />
<path d="M22684 34840
L22684 34505
L22763 34505
L22811 34521
L22843 34553
L22859 34585
L22875 34649
L22875 34696
L22859 34760
L22843 34792
L22811 34824
L22763 34840
L22684 34840
" />
<path d="M23194 34840
L23002 34840
" />
<path d="M23098 34840
L23098 34505
L23066 34553
L23034 34585
L23002 34601
" />
<path d="M23401 34505
L23433 34505
L23465 34521
L23481 34537
L23497 34569
L23512 34633
L23512 34712
L23497 34776
L23481 34808
L23465 34824
L23433 34840
L23401 34840
L23369 34824
L23353 34808
L23337 34776
L23321 34712
L23321 34633
L23337 34569
L23353 34537
L23369 34521
L23401 34505
" />
<path d="M23640 34537
L23656 34521
L23688 34505
L23767 34505
L23799 34521
L23815 34537
L23831 34569
L23831 34601
L23815 34649
L23624 34840
L23831 34840
" />
<path d="M22684 26962
L22684 26627
L22763 26627
L22811 26643
L22843 26675
L22859 26707
L22875 26771
L22875 26818
L22859 26882
L22843 26914
L22811 26946
L22763 26962
L22684 26962
" />
<path d="M23194 26962
L23002 26962
" />
<path d="M23098 26962
L23098 26627
L23066 26675
L23034 26707
L23002 26723
" />
<path d="M23401 26627
L23433 26627
L23465 26643
L23481 26659
L23497 26691
L23512 26755
L23512 26834
L23497 26898
L23481 26930
L23465 26946
L23433 26962
L23401 26962
L23369 26946
L23353 26930
L23337 26898
L23321 26834
L23321 26755
L23337 26691
L23353 26659
L23369 26643
L23401 26627
" />
<path d="M23624 26627
L23831 26627
L23720 26755
L23767 26755
L23799 26771
L23815 26787
L23831 26818
L23831 26898
L23815 26930
L23799 26946
L23767 26962
L23672 26962
L23640 26946
L23624 26930
" />
<path d="M20434 26962
L20434 26627
L20513 26627
L20561 26643
L20593 26675
L20609 26707
L20625 26771
L20625 26818
L20609 26882
L20593 26914
L20561 26946
L20513 26962
L20434 26962
" />
<path d="M20944 26962
L20752 26962
" />
<path d="M20848 26962
L20848 26627
L20816 26675
L20784 26707
L20752 26723
" />
<path d="M21151 26627
L21183 26627
L21215 26643
L21231 26659
L21247 26691
L21262 26755
L21262 26834
L21247 26898
L21231 26930
L21215 26946
L21183 26962
L21151 26962
L21119 26946
L21103 26930
L21087 26898
L21071 26834
L21071 26755
L21087 26691
L21103 26659
L21119 26643
L21151 26627
" />
<path d="M21549 26739
L21549 26962
" />
<path d="M21470 26611
L21390 26850
L21597 26850
" />
<path d="M28184 34840
L28184 34505
L28263 34505
L28311 34521
L28343 34553
L28359 34585
L28375 34649
L28375 34696
L28359 34760
L28343 34792
L28311 34824
L28263 34840
L28184 34840
" />
<path d="M28694 34840
L28502 34840
" />
<path d="M28598 34840
L28598 34505
L28566 34553
L28534 34585
L28502 34601
" />
<path d="M28901 34505
L28933 34505
L28965 34521
L28981 34537
L28997 34569
L29012 34633
L29012 34712
L28997 34776
L28981 34808
L28965 34824
L28933 34840
L28901 34840
L28869 34824
L28853 34808
L28837 34776
L28821 34712
L28821 34633
L28837 34569
L28853 34537
L28869 34521
L28901 34505
" />
<path d="M29315 34505
L29156 34505
L29140 34665
L29156 34649
L29188 34633
L29267 34633
L29299 34649
L29315 34665
L29331 34696
L29331 34776
L29315 34808
L29299 34824
L29267 34840
L29188 34840
L29156 34824
L29140 34808
" />
<path d="M30434 34840
L30434 34505
L30513 34505
L30561 34521
L30593 34553
L30609 34585
L30625 34649
L30625 34696
L30609 34760
L30593 34792
L30561 34824
L30513 34840
L30434 34840
" />
<path d="M30944 34840
L30752 34840
" />
<path d="M30848 34840
L30848 34505
L30816 34553
L30784 34585
L30752 34601
" />
<path d="M31151 34505
L31183 34505
L31215 34521
L31231 34537
L31247 34569
L31262 34633
L31262 34712
L31247 34776
L31231 34808
L31215 34824
L31183 34840
L31151 34840
L31119 34824
L31103 34808
L31087 34776
L31071 34712
L31071 34633
L31087 34569
L31103 34537
L31119 34521
L31151 34505
" />
<path d="M31549 34505
L31486 34505
L31454 34521
L31438 34537
L31406 34585
L31390 34649
L31390 34776
L31406 34808
L31422 34824
L31454 34840
L31517 34840
L31549 34824
L31565 34808
L31581 34776
L31581 34696
L31565 34665
L31549 34649
L31517 34633
L31454 34633
L31422 34649
L31406 34665
L31390 34696
" />
<path d="M30434 26962
L30434 26627
L30513 26627
L30561 26643
L30593 26675
L30609 26707
L30625 26771
L30625 26818
L30609 26882
L30593 26914
L30561 26946
L30513 26962
L30434 26962
" />
<path d="M30944 26962
L30752 26962
" />
<path d="M30848 26962
L30848 26627
L30816 26675
L30784 26707
L30752 26723
" />
<path d="M31151 26627
L31183 26627
L31215 26643
L31231 26659
L31247 26691
L31262 26755
L31262 26834
L31247 26898
L31231 26930
L31215 26946
L31183 26962
L31151 26962
L31119 26946
L31103 26930
L31087 26898
L31071 26834
L31071 26755
L31087 26691
L31103 26659
L31119 26643
L31151 26627
" />
<path d="M31374 26627
L31597 26627
L31454 26962
" />
<path d="M28184 26962
L28184 26627
L28263 26627
L28311 26643
L28343 26675
L28359 26707
L28375 26771
L28375 26818
L28359 26882
L28343 26914
L28311 26946
L28263 26962
L28184 26962
" />
<path d="M28694 26962
L28502 26962
" />
<path d="M28598 26962
L28598 26627
L28566 26675
L28534 26707
L28502 26723
" />
<path d="M28901 26627
L28933 26627
L28965 26643
L28981 26659
L28997 26691
L29012 26755
L29012 26834
L28997 26898
L28981 26930
L28965 26946
L28933 26962
L28901 26962
L28869 26946
L28853 26930
L28837 26898
L28821 26834
L28821 26755
L28837 26691
L28853 26659
L28869 26643
L28901 26627
" />
<path d="M29204 26771
L29172 26755
L29156 26739
L29140 26707
L29140 26691
L29156 26659
L29172 26643
L29204 26627
L29267 26627
L29299 26643
L29315 26659
L29331 26691
L29331 26707
L29315 26739
L29299 26755
L29267 26771
L29204 26771
L29172 26787
L29156 26803
L29140 26834
L29140 26898
L29156 26930
L29172 26946
L29204 26962
L29267 26962
L29299 26946
L29315 26930
L29331 26898
L29331 26834
L29315 26803
L29299 26787
L29267 26771
" />
<path d="M35684 34840
L35684 34505
L35763 34505
L35811 34521
L35843 34553
L35859 34585
L35875 34649
L35875 34696
L35859 34760
L35843 34792
L35811 34824
L35763 34840
L35684 34840
" />
<path d="M36194 34840
L36002 34840
" />
<path d="M36098 34840
L36098 34505
L36066 34553
L36034 34585
L36002 34601
" />
<path d="M36401 34505
L36433 34505
L36465 34521
L36481 34537
L36497 34569
L36512 34633
L36512 34712
L36497 34776
L36481 34808
L36465 34824
L36433 34840
L36401 34840
L36369 34824
L36353 34808
L36337 34776
L36321 34712
L36321 34633
L36337 34569
L36353 34537
L36369 34521
L36401 34505
" />
<path d="M36672 34840
L36736 34840
L36767 34824
L36783 34808
L36815 34760
L36831 34696
L36831 34569
L36815 34537
L36799 34521
L36767 34505
L36704 34505
L36672 34521
L36656 34537
L36640 34569
L36640 34649
L36656 34681
L36672 34696
L36704 34712
L36767 34712
L36799 34696
L36815 34681
L36831 34649
" />
<path d="M37934 34840
L37934 34505
L38013 34505
L38061 34521
L38093 34553
L38109 34585
L38125 34649
L38125 34696
L38109 34760
L38093 34792
L38061 34824
L38013 34840
L37934 34840
" />
<path d="M38444 34840
L38252 34840
" />
<path d="M38348 34840
L38348 34505
L38316 34553
L38284 34585
L38252 34601
" />
<path d="M38762 34840
L38571 34840
" />
<path d="M38667 34840
L38667 34505
L38635 34553
L38603 34585
L38571 34601
" />
<path d="M38970 34505
L39001 34505
L39033 34521
L39049 34537
L39065 34569
L39081 34633
L39081 34712
L39065 34776
L39049 34808
L39033 34824
L39001 34840
L38970 34840
L38938 34824
L38922 34808
L38906 34776
L38890 34712
L38890 34633
L38906 34569
L38922 34537
L38938 34521
L38970 34505
" />
<path d="M37934 26962
L37934 26627
L38013 26627
L38061 26643
L38093 26675
L38109 26707
L38125 26771
L38125 26818
L38109 26882
L38093 26914
L38061 26946
L38013 26962
L37934 26962
" />
<path d="M38444 26962
L38252 26962
" />
<path d="M38348 26962
L38348 26627
L38316 26675
L38284 26707
L38252 26723
" />
<path d="M38762 26962
L38571 26962
" />
<path d="M38667 26962
L38667 26627
L38635 26675
L38603 26707
L38571 26723
" />
<path d="M39081 26962
L38890 26962
" />
<path d="M38986 26962
L38986 26627
L38954 26675
L38922 26707
L38890 26723
" />
<path d="M35684 26962
L35684 26627
L35763 26627
L35811 26643
L35843 26675
L35859 26707
L35875 26771
L35875 26818
L35859 26882
L35843 26914
L35811 26946
L35763 26962
L35684 26962
" />
<path d="M36194 26962
L36002 26962
" />
<path d="M36098 26962
L36098 26627
L36066 26675
L36034 26707
L36002 26723
" />
<path d="M36512 26962
L36321 26962
" />
<path d="M36417 26962
L36417 26627
L36385 26675
L36353 26707
L36321 26723
" />
<path d="M36640 26659
L36656 26643
L36688 26627
L36767 26627
L36799 26643
L36815 26659
L36831 26691
L36831 26723
L36815 26771
L36624 26962
L36831 26962
" />
<path d="M43134 34840
L43134 34505
L43213 34505
L43261 34521
L43293 34553
L43309 34585
L43325 34649
L43325 34696
L43309 34760
L43293 34792
L43261 34824
L43213 34840
L43134 34840
" />
<path d="M43644 34840
L43452 34840
" />
<path d="M43548 34840
L43548 34505
L43516 34553
L43484 34585
L43452 34601
" />
<path d="M43962 34840
L43771 34840
" />
<path d="M43867 34840
L43867 34505
L43835 34553
L43803 34585
L43771 34601
" />
<path d="M44074 34505
L44281 34505
L44170 34633
L44217 34633
L44249 34649
L44265 34665
L44281 34696
L44281 34776
L44265 34808
L44249 34824
L44217 34840
L44122 34840
L44090 34824
L44074 34808
" />
<path d="M45384 34840
L45384 34505
L45463 34505
L45511 34521
L45543 34553
L45559 34585
L45575 34649
L45575 34696
L45559 34760
L45543 34792
L45511 34824
L45463 34840
L45384 34840
" />
<path d="M45894 34840
L45702 34840
" />
<path d="M45798 34840
L45798 34505
L45766 34553
L45734 34585
L45702 34601
" />
<path d="M46212 34840
L46021 34840
" />
<path d="M46117 34840
L46117 34505
L46085 34553
L46053 34585
L46021 34601
" />
<path d="M46499 34617
L46499 34840
" />
<path d="M46420 34489
L46340 34728
L46547 34728
" />
<path d="M45384 26962
L45384 26627
L45463 26627
L45511 26643
L45543 26675
L45559 26707
L45575 26771
L45575 26818
L45559 26882
L45543 26914
L45511 26946
L45463 26962
L45384 26962
" />
<path d="M45894 26962
L45702 26962
" />
<path d="M45798 26962
L45798 26627
L45766 26675
L45734 26707
L45702 26723
" />
<path d="M46212 26962
L46021 26962
" />
<path d="M46117 26962
L46117 26627
L46085 26675
L46053 26707
L46021 26723
" />
<path d="M46515 26627
L46356 26627
L46340 26787
L46356 26771
L46388 26755
L46467 26755
L46499 26771
L46515 26787
L46531 26818
L46531 26898
L46515 26930
L46499 26946
L46467 26962
L46388 26962
L46356 26946
L46340 26930
" />
<path d="M43134 26962
L43134 26627
L43213 26627
L43261 26643
L43293 26675
L43309 26707
L43325 26771
L43325 26818
L43309 26882
L43293 26914
L43261 26946
L43213 26962
L43134 26962
" />
<path d="M43644 26962
L43452 26962
" />
<path d="M43548 26962
L43548 26627
L43516 26675
L43484 26707
L43452 26723
" />
<path d="M43962 26962
L43771 26962
" />
<path d="M43867 26962
L43867 26627
L43835 26675
L43803 26707
L43771 26723
" />
<path d="M44249 26627
L44186 26627
L44154 26643
L44138 26659
L44106 26707
L44090 26771
L44090 26898
L44106 26930
L44122 26946
L44154 26962
L44217 26962
L44249 26946
L44265 26930
L44281 26898
L44281 26818
L44265 26787
L44249 26771
L44217 26755
L44154 26755
L44122 26771
L44106 26787
L44090 26818
" />
<path d="M18694 33519
L18678 33535
L18630 33551
L18598 33551
L18550 33535
L18518 33503
L18502 33471
L18487 33407
L18487 33360
L18502 33296
L18518 33264
L18550 33232
L18598 33216
L18630 33216
L18678 33232
L18694 33248
" />
<path d="M19012 33551
L18821 33551
" />
<path d="M18917 33551
L18917 33216
L18885 33264
L18853 33296
L18821 33312
" />
<path d="M26194 33519
L26178 33535
L26130 33551
L26098 33551
L26050 33535
L26018 33503
L26002 33471
L25987 33407
L25987 33360
L26002 33296
L26018 33264
L26050 33232
L26098 33216
L26130 33216
L26178 33232
L26194 33248
" />
<path d="M26321 33248
L26337 33232
L26369 33216
L26449 33216
L26481 33232
L26497 33248
L26512 33280
L26512 33312
L26497 33360
L26305 33551
L26512 33551
" />
<path d="M33694 33519
L33678 33535
L33630 33551
L33598 33551
L33550 33535
L33518 33503
L33502 33471
L33487 33407
L33487 33360
L33502 33296
L33518 33264
L33550 33232
L33598 33216
L33630 33216
L33678 33232
L33694 33248
" />
<path d="M33805 33216
L34012 33216
L33901 33344
L33949 33344
L33981 33360
L33997 33376
L34012 33407
L34012 33487
L33997 33519
L33981 33535
L33949 33551
L33853 33551
L33821 33535
L33805 33519
" />
<path d="M41144 33519
L41128 33535
L41080 33551
L41048 33551
L41000 33535
L40968 33503
L40952 33471
L40937 33407
L40937 33360
L40952 33296
L40968 33264
L41000 33232
L41048 33216
L41080 33216
L41128 33232
L41144 33248
" />
<path d="M41431 33328
L41431 33551
" />
<path d="M41351 33200
L41271 33439
L41478 33439
" />
<path d="M29428 11040
L29034 11040
L29034 10946
L29053 10890
L29090 10853
L29128 10834
L29203 10815
L29259 10815
L29334 10834
L29371 10853
L29409 10890
L29428 10946
L29428 11040
" />
<path d="M29428 10628
L29428 10553
L29409 10515
L29390 10496
L29334 10459
L29259 10440
L29109 10440
L29071 10459
L29053 10478
L29034 10515
L29034 10590
L29053 10628
L29071 10646
L29109 10665
L29203 10665
L29240 10646
L29259 10628
L29278 10590
L29278 10515
L29259 10478
L29240 10459
L29203 10440
" />
<path d="M31428 11228
L31034 11228
L31034 11134
L31053 11078
L31090 11040
L31128 11021
L31203 11003
L31259 11003
L31334 11021
L31371 11040
L31409 11078
L31428 11134
L31428 11228
" />
<path d="M31428 10628
L31428 10853
" />
<path d="M31428 10740
L31034 10740
L31090 10778
L31128 10815
L31146 10853
" />
<path d="M31034 10384
L31034 10346
L31053 10309
L31071 10290
L31109 10271
L31184 10253
L31278 10253
L31353 10271
L31390 10290
L31409 10309
L31428 10346
L31428 10384
L31409 10421
L31390 10440
L31353 10459
L31278 10478
L31184 10478
L31109 10459
L31071 10440
L31053 10421
L31034 10384
" />
<path d="M33428 11228
L33034 11228
L33034 11134
L33053 11078
L33090 11040
L33128 11021
L33203 11003
L33259 11003
L33334 11021
L33371 11040
L33409 11078
L33428 11134
L33428 11228
" />
<path d="M33428 10628
L33428 10853
" />
<path d="M33428 10740
L33034 10740
L33090 10778
L33128 10815
L33146 10853
" />
<path d="M33428 10253
L33428 10478
" />
<path d="M33428 10365
L33034 10365
L33090 10403
L33128 10440
L33146 10478
" />
<path d="M35428 11228
L35034 11228
L35034 11134
L35053 11078
L35090 11040
L35128 11021
L35203 11003
L35259 11003
L35334 11021
L35371 11040
L35409 11078
L35428 11134
L35428 11228
" />
<path d="M35428 10628
L35428 10853
" />
<path d="M35428 10740
L35034 10740
L35090 10778
L35128 10815
L35146 10853
" />
<path d="M35071 10478
L35053 10459
L35034 10421
L35034 10328
L35053 10290
L35071 10271
L35109 10253
L35146 10253
L35203 10271
L35428 10496
L35428 10253
" />
<path d="M37428 11228
L37034 11228
L37034 11134
L37053 11078
L37090 11040
L37128 11021
L37203 11003
L37259 11003
L37334 11021
L37371 11040
L37409 11078
L37428 11134
L37428 11228
" />
<path d="M37428 10628
L37428 10853
" />
<path d="M37428 10740
L37034 10740
L37090 10778
L37128 10815
L37146 10853
" />
<path d="M37034 10496
L37034 10253
L37184 10384
L37184 10328
L37203 10290
L37221 10271
L37259 10253
L37353 10253
L37390 10271
L37409 10290
L37428 10328
L37428 10440
L37409 10478
L37390 10496
" />
<path d="M39428 11228
L39034 11228
L39034 11134
L39053 11078
L39090 11040
L39128 11021
L39203 11003
L39259 11003
L39334 11021
L39371 11040
L39409 11078
L39428 11134
L39428 11228
" />
<path d="M39428 10628
L39428 10853
" />
<path d="M39428 10740
L39034 10740
L39090 10778
L39128 10815
L39146 10853
" />
<path d="M39165 10290
L39428 10290
" />
<path d="M39015 10384
L39296 10478
L39296 10234
" />
<path d="M41428 11228
L41034 11228
L41034 11134
L41053 11078
L41090 11040
L41128 11021
L41203 11003
L41259 11003
L41334 11021
L41371 11040
L41409 11078
L41428 11134
L41428 11228
" />
<path d="M41428 10628
L41428 10853
" />
<path d="M41428 10740
L41034 10740
L41090 10778
L41128 10815
L41146 10853
" />
<path d="M41034 10271
L41034 10459
L41221 10478
L41203 10459
L41184 10421
L41184 10328
L41203 10290
L41221 10271
L41259 10253
L41353 10253
L41390 10271
L41409 10290
L41428 10328
L41428 10421
L41409 10459
L41390 10478
" />
<path d="M43428 11228
L43034 11228
L43034 11134
L43053 11078
L43090 11040
L43128 11021
L43203 11003
L43259 11003
L43334 11021
L43371 11040
L43409 11078
L43428 11134
L43428 11228
" />
<path d="M43428 10628
L43428 10853
" />
<path d="M43428 10740
L43034 10740
L43090 10778
L43128 10815
L43146 10853
" />
<path d="M43034 10290
L43034 10365
L43053 10403
L43071 10421
L43128 10459
L43203 10478
L43353 10478
L43390 10459
L43409 10440
L43428 10403
L43428 10328
L43409 10290
L43390 10271
L43353 10253
L43259 10253
L43221 10271
L43203 10290
L43184 10328
L43184 10403
L43203 10440
L43221 10459
L43259 10478
" />
<path d="M18830 31049
L19149 31049
L19186 31031
L19205 31012
L19224 30974
L19224 30899
L19205 30862
L19186 30843
L19149 30824
L18830 30824
" />
<path d="M19224 30431
L19224 30656
" />
<path d="M19224 30543
L18830 30543
L18886 30581
L18924 30618
L18943 30656
" />
<path d="M26331 31049
L26650 31049
L26687 31031
L26706 31012
L26725 30974
L26725 30899
L26706 30862
L26687 30843
L26650 30824
L26331 30824
" />
<path d="M26369 30656
L26350 30637
L26331 30600
L26331 30506
L26350 30468
L26369 30450
L26406 30431
L26444 30431
L26500 30450
L26725 30675
L26725 30431
" />
<path d="M30327 22799
L30646 22799
L30683 22781
L30702 22762
L30721 22724
L30721 22649
L30702 22612
L30683 22593
L30646 22574
L30327 22574
" />
<path d="M30327 22425
L30327 22181
L30477 22312
L30477 22256
L30496 22218
L30515 22200
L30552 22181
L30646 22181
L30683 22200
L30702 22218
L30721 22256
L30721 22368
L30702 22406
L30683 22425
" />
<path d="M33831 31049
L34150 31049
L34187 31031
L34206 31012
L34225 30974
L34225 30899
L34206 30862
L34187 30843
L34150 30824
L33831 30824
" />
<path d="M33962 30468
L34225 30468
" />
<path d="M33812 30562
L34094 30656
L34094 30412
" />
<path d="M41281 31049
L41600 31049
L41637 31031
L41656 31012
L41675 30974
L41675 30899
L41656 30862
L41637 30843
L41600 30824
L41281 30824
" />
<path d="M41281 30450
L41281 30637
L41469 30656
L41450 30637
L41431 30600
L41431 30506
L41450 30468
L41469 30450
L41506 30431
L41600 30431
L41637 30450
L41656 30468
L41675 30506
L41675 30600
L41656 30637
L41637 30656
" />
<path d="M37827 22799
L38146 22799
L38183 22781
L38202 22762
L38221 22724
L38221 22649
L38202 22612
L38183 22593
L38146 22574
L37827 22574
" />
<path d="M37827 22218
L37827 22293
L37846 22331
L37865 22350
L37921 22387
L37996 22406
L38146 22406
L38183 22387
L38202 22368
L38221 22331
L38221 22256
L38202 22218
L38183 22200
L38146 22181
L38052 22181
L38015 22200
L37996 22218
L37977 22256
L37977 22331
L37996 22368
L38015 22387
L38052 22406
" />
<path d="M38661 48118
L38661 47724
L38755 47724
L38811 47743
L38849 47780
L38868 47818
L38886 47893
L38886 47949
L38868 48024
L38849 48061
L38811 48099
L38755 48118
L38661 48118
" />
<path d="M39036 47761
L39055 47743
L39093 47724
L39186 47724
L39224 47743
L39243 47761
L39261 47799
L39261 47836
L39243 47893
L39018 48118
L39261 48118
" />
<path d="M39636 48118
L39411 48118
" />
<path d="M39524 48118
L39524 47724
L39486 47780
L39449 47818
L39411 47836
" />
<path d="M37428 38253
L37240 38384
" />
<path d="M37428 38478
L37034 38478
L37034 38328
L37053 38290
L37071 38271
L37109 38253
L37165 38253
L37203 38271
L37221 38290
L37240 38328
L37240 38478
" />
<path d="M37071 38103
L37053 38084
L37034 38046
L37034 37953
L37053 37915
L37071 37896
L37109 37878
L37146 37878
L37203 37896
L37428 38121
L37428 37878
" />
<path d="M37428 37690
L37428 37615
L37409 37578
L37390 37559
L37334 37521
L37259 37503
L37109 37503
L37071 37521
L37053 37540
L37034 37578
L37034 37653
L37053 37690
L37071 37709
L37109 37728
L37203 37728
L37240 37709
L37259 37690
L37278 37653
L37278 37578
L37259 37540
L37240 37521
L37203 37503
" />
<path d="M42534 40151
L42423 39992
" />
<path d="M42343 40151
L42343 39816
L42471 39816
L42502 39832
L42518 39848
L42534 39880
L42534 39928
L42518 39960
L42502 39976
L42471 39992
L42343 39992
" />
<path d="M42646 39816
L42853 39816
L42742 39944
L42789 39944
L42821 39960
L42837 39976
L42853 40007
L42853 40087
L42837 40119
L42821 40135
L42789 40151
L42694 40151
L42662 40135
L42646 40119
" />
<path d="M43060 39816
L43092 39816
L43124 39832
L43140 39848
L43156 39880
L43172 39944
L43172 40023
L43156 40087
L43140 40119
L43124 40135
L43092 40151
L43060 40151
L43028 40135
L43012 40119
L42997 40087
L42981 40023
L42981 39944
L42997 39880
L43012 39848
L43028 39832
L43060 39816
" />
<path d="M40324 44771
L40213 44612
" />
<path d="M40133 44771
L40133 44436
L40261 44436
L40292 44452
L40308 44468
L40324 44500
L40324 44548
L40308 44580
L40292 44596
L40261 44612
L40133 44612
" />
<path d="M40436 44436
L40643 44436
L40532 44564
L40579 44564
L40611 44580
L40627 44596
L40643 44627
L40643 44707
L40627 44739
L40611 44755
L40579 44771
L40484 44771
L40452 44755
L40436 44739
" />
<path d="M40962 44771
L40771 44771
" />
<path d="M40866 44771
L40866 44436
L40834 44484
L40802 44516
L40771 44532
" />
<path d="M38921 41034
L38921 41315
L38903 41371
L38865 41409
L38809 41428
L38771 41428
" />
<path d="M39109 41428
L39109 41034
L39259 41034
L39296 41053
L39315 41071
L39334 41109
L39334 41165
L39315 41203
L39296 41221
L39259 41240
L39109 41240
" />
<path d="M39709 41428
L39484 41428
" />
<path d="M39596 41428
L39596 41034
L39559 41090
L39521 41128
L39484 41146
" />
<path d="M11071 12028
L11071 11634
L11165 11634
L11221 11653
L11259 11690
L11278 11728
L11296 11803
L11296 11859
L11278 11934
L11259 11972
L11221 12009
L11165 12028
L11071 12028
" />
<path d="M11671 12028
L11446 12028
" />
<path d="M11559 12028
L11559 11634
L11521 11690
L11484 11728
L11446 11747
" />
<path d="M11803 11634
L12065 11634
L11896 12028
" />
<path d="M38928 38478
L38534 38478
L38534 38384
L38553 38328
L38590 38290
L38628 38271
L38703 38253
L38759 38253
L38834 38271
L38871 38290
L38909 38328
L38928 38384
L38928 38478
" />
<path d="M38928 37878
L38928 38103
" />
<path d="M38928 37990
L38534 37990
L38590 38028
L38628 38065
L38646 38103
" />
<path d="M38928 37690
L38928 37615
L38909 37578
L38890 37559
L38834 37521
L38759 37503
L38609 37503
L38571 37521
L38553 37540
L38534 37578
L38534 37653
L38553 37690
L38571 37709
L38609 37728
L38703 37728
L38740 37709
L38759 37690
L38778 37653
L38778 37578
L38759 37540
L38740 37521
L38703 37503
" />
<path d="M36928 42978
L36534 42978
L36534 42884
L36553 42828
L36590 42790
L36628 42771
L36703 42753
L36759 42753
L36834 42771
L36871 42790
L36909 42828
L36928 42884
L36928 42978
" />
<path d="M36571 42603
L36553 42584
L36534 42546
L36534 42453
L36553 42415
L36571 42396
L36609 42378
L36646 42378
L36703 42396
L36928 42621
L36928 42378
" />
<path d="M36534 42134
L36534 42096
L36553 42059
L36571 42040
L36609 42021
L36684 42003
L36778 42003
L36853 42021
L36890 42040
L36909 42059
L36928 42096
L36928 42134
L36909 42171
L36890 42190
L36853 42209
L36778 42228
L36684 42228
L36609 42209
L36571 42190
L36553 42171
L36534 42134
" />
<path d="M14544 35311
L14433 35152
" />
<path d="M14353 35311
L14353 34976
L14481 34976
L14512 34992
L14528 35008
L14544 35040
L14544 35088
L14528 35120
L14512 35136
L14481 35152
L14353 35152
" />
<path d="M14672 35008
L14688 34992
L14720 34976
L14799 34976
L14831 34992
L14847 35008
L14863 35040
L14863 35072
L14847 35120
L14656 35311
L14863 35311
" />
<path d="M15054 35120
L15022 35104
L15007 35088
L14991 35056
L14991 35040
L15007 35008
L15022 34992
L15054 34976
L15118 34976
L15150 34992
L15166 35008
L15182 35040
L15182 35056
L15166 35088
L15150 35104
L15118 35120
L15054 35120
L15022 35136
L15007 35152
L14991 35183
L14991 35247
L15007 35279
L15022 35295
L15054 35311
L15118 35311
L15150 35295
L15166 35279
L15182 35247
L15182 35183
L15166 35152
L15150 35136
L15118 35120
" />
<path d="M45712 40215
L45675 40196
L45637 40159
L45581 40103
L45543 40084
L45506 40084
" />
<path d="M45525 40178
L45487 40159
L45450 40121
L45431 40046
L45431 39915
L45450 39840
L45487 39803
L45525 39784
L45600 39784
L45637 39803
L45675 39840
L45693 39915
L45693 40046
L45675 40121
L45637 40159
L45600 40178
L45525 40178
" />
<path d="M45843 39821
L45862 39803
L45899 39784
L45993 39784
L46031 39803
L46049 39821
L46068 39859
L46068 39896
L46049 39953
L45824 40178
L46068 40178
" />
<path d="M30218 35584
L30218 35865
L30200 35921
L30162 35959
L30106 35978
L30068 35978
" />
<path d="M30368 35584
L30631 35584
L30462 35978
" />
<path d="M33968 35634
L33968 35915
L33950 35971
L33912 36009
L33856 36028
L33818 36028
" />
<path d="M34212 35803
L34174 35784
L34156 35765
L34137 35728
L34137 35709
L34156 35671
L34174 35653
L34212 35634
L34287 35634
L34324 35653
L34343 35671
L34362 35709
L34362 35728
L34343 35765
L34324 35784
L34287 35803
L34212 35803
L34174 35821
L34156 35840
L34137 35878
L34137 35953
L34156 35990
L34174 36009
L34212 36028
L34287 36028
L34324 36009
L34343 35990
L34362 35953
L34362 35878
L34343 35840
L34324 35821
L34287 35803
" />
<path d="M27886 44687
L27886 44499
" />
<path d="M27998 44724
L27605 44593
L27998 44462
" />
<path d="M27998 44331
L27736 44331
" />
<path d="M27811 44331
L27774 44312
L27755 44293
L27736 44256
L27736 44218
" />
<path d="M27998 43918
L27605 43918
" />
<path d="M27980 43918
L27998 43956
L27998 44031
L27980 44068
L27961 44087
L27924 44106
L27811 44106
L27774 44087
L27755 44068
L27736 44031
L27736 43956
L27755 43918
" />
<path d="M27736 43562
L27998 43562
" />
<path d="M27736 43731
L27942 43731
L27980 43712
L27998 43674
L27998 43618
L27980 43581
L27961 43562
" />
<path d="M27998 43374
L27736 43374
" />
<path d="M27605 43374
L27624 43393
L27642 43374
L27624 43356
L27605 43374
L27642 43374
" />
<path d="M27736 43187
L27998 43187
" />
<path d="M27774 43187
L27755 43168
L27736 43131
L27736 43074
L27755 43037
L27792 43018
L27998 43018
" />
<path d="M27998 42774
L27980 42812
L27961 42831
L27924 42849
L27811 42849
L27774 42831
L27755 42812
L27736 42774
L27736 42718
L27755 42681
L27774 42662
L27811 42643
L27924 42643
L27961 42662
L27980 42681
L27998 42718
L27998 42774
" />
<path d="M27998 42175
L27605 42175
L27998 41950
L27605 41950
" />
<path d="M27998 41593
L27792 41593
L27755 41612
L27736 41650
L27736 41725
L27755 41762
" />
<path d="M27980 41593
L27998 41631
L27998 41725
L27980 41762
L27942 41781
L27905 41781
L27867 41762
L27849 41725
L27849 41631
L27830 41593
" />
<path d="M27736 41406
L27998 41406
" />
<path d="M27774 41406
L27755 41387
L27736 41350
L27736 41293
L27755 41256
L27792 41237
L27998 41237
" />
<path d="M27998 40993
L27980 41031
L27961 41050
L27924 41068
L27811 41068
L27774 41050
L27755 41031
L27736 40993
L27736 40937
L27755 40900
L27774 40881
L27811 40862
L27924 40862
L27961 40881
L27980 40900
L27998 40937
L27998 40993
" />
<path d="M27998 40169
L27811 40300
" />
<path d="M27998 40393
L27605 40393
L27605 40244
L27624 40206
L27642 40187
L27680 40169
L27736 40169
L27774 40187
L27792 40206
L27811 40244
L27811 40393
" />
<path d="M27605 40037
L27605 39794
L27755 39925
L27755 39869
L27774 39831
L27792 39812
L27830 39794
L27924 39794
L27961 39812
L27980 39831
L27998 39869
L27998 39981
L27980 40019
L27961 40037
" />
<path d="M26498 42821
L26105 42821
" />
<path d="M26461 42409
L26480 42428
L26498 42484
L26498 42521
L26480 42578
L26442 42615
L26405 42634
L26330 42653
L26274 42653
L26199 42634
L26161 42615
L26124 42578
L26105 42521
L26105 42484
L26124 42428
L26142 42409
" />
<path d="M26480 42259
L26498 42203
L26498 42109
L26480 42071
L26461 42053
L26424 42034
L26386 42034
L26349 42053
L26330 42071
L26311 42109
L26292 42184
L26274 42221
L26255 42240
L26217 42259
L26180 42259
L26142 42240
L26124 42221
L26105 42184
L26105 42090
L26124 42034
" />
<path d="M26498 41865
L26105 41865
L26105 41715
L26124 41678
L26142 41659
L26180 41640
L26236 41640
L26274 41659
L26292 41678
L26311 41715
L26311 41865
" />
<path d="M10805 42737
L11124 42737
L11161 42718
L11180 42699
L11198 42662
L11198 42587
L11180 42549
L11161 42531
L11124 42512
L10805 42512
" />
<path d="M11180 42343
L11198 42287
L11198 42193
L11180 42156
L11161 42137
L11124 42118
L11086 42118
L11049 42137
L11030 42156
L11011 42193
L10992 42268
L10974 42306
L10955 42325
L10917 42343
L10880 42343
L10842 42325
L10824 42306
L10805 42268
L10805 42175
L10824 42118
" />
<path d="M10992 41818
L11011 41762
L11030 41743
L11067 41725
L11124 41725
L11161 41743
L11180 41762
L11198 41800
L11198 41950
L10805 41950
L10805 41818
L10824 41781
L10842 41762
L10880 41743
L10917 41743
L10955 41762
L10974 41781
L10992 41818
L10992 41950
" />
<path d="M15546 48325
L15639 48718
L15714 48437
L15789 48718
L15883 48325
" />
<path d="M16183 48699
L16146 48718
L16071 48718
L16033 48699
L16014 48662
L16014 48512
L16033 48475
L16071 48456
L16146 48456
L16183 48475
L16202 48512
L16202 48550
L16014 48587
" />
<path d="M16371 48718
L16371 48325
L16502 48606
L16633 48325
L16633 48718
" />
<path d="M16877 48718
L16839 48699
L16821 48681
L16802 48643
L16802 48531
L16821 48493
L16839 48475
L16877 48456
L16933 48456
L16970 48475
L16989 48493
L17008 48531
L17008 48643
L16989 48681
L16970 48699
L16933 48718
L16877 48718
" />
<path d="M17158 48699
L17195 48718
L17270 48718
L17308 48699
L17327 48662
L17327 48643
L17308 48606
L17270 48587
L17214 48587
L17177 48568
L17158 48531
L17158 48512
L17177 48475
L17214 48456
L17270 48456
L17308 48475
" />
<path d="M17795 48718
L17795 48325
L17889 48325
L17945 48343
L17983 48381
L18002 48418
L18020 48493
L18020 48550
L18002 48625
L17983 48662
L17945 48699
L17889 48718
L17795 48718
" />
<path d="M18395 48718
L18170 48718
" />
<path d="M18283 48718
L18283 48325
L18245 48381
L18208 48418
L18170 48437
" />
<path d="M18864 48718
L18864 48325
L18995 48606
L19126 48325
L19126 48718
" />
<path d="M19314 48718
L19314 48456
" />
<path d="M19314 48325
L19295 48343
L19314 48362
L19333 48343
L19314 48325
L19314 48362
" />
<path d="M19501 48456
L19501 48718
" />
<path d="M19501 48493
L19520 48475
L19558 48456
L19614 48456
L19651 48475
L19670 48512
L19670 48718
" />
<path d="M19858 48718
L19858 48456
" />
<path d="M19858 48325
L19839 48343
L19858 48362
L19876 48343
L19858 48325
L19858 48362
" />
<path d="M20605 47980
L20605 47800
" />
<path d="M20998 47890
L20605 47890
" />
<path d="M20605 47725
L20998 47515
" />
<path d="M20605 47515
L20998 47725
" />
<path d="M19963 47793
L19813 47898
" />
<path d="M19963 47973
L19648 47973
L19648 47853
L19663 47823
L19678 47808
L19708 47793
L19753 47793
L19783 47808
L19798 47823
L19813 47853
L19813 47973
" />
<path d="M19648 47688
L19963 47478
" />
<path d="M19648 47478
L19963 47688
" />
<path d="M18963 47973
L18648 47973
L18648 47898
L18663 47853
L18693 47823
L18723 47808
L18783 47793
L18828 47793
L18888 47808
L18918 47823
L18948 47853
L18963 47898
L18963 47973
" />
<path d="M18963 47493
L18963 47673
" />
<path d="M18963 47583
L18648 47583
L18693 47613
L18723 47643
L18738 47673
" />
<path d="M17963 47973
L17648 47973
L17648 47898
L17663 47853
L17693 47823
L17723 47808
L17783 47793
L17828 47793
L17888 47808
L17918 47823
L17948 47853
L17963 47898
L17963 47973
" />
<path d="M17678 47673
L17663 47658
L17648 47628
L17648 47553
L17663 47523
L17678 47508
L17708 47493
L17738 47493
L17783 47508
L17963 47688
L17963 47493
" />
<path d="M16963 47973
L16648 47973
L16648 47898
L16663 47853
L16693 47823
L16723 47808
L16783 47793
L16828 47793
L16888 47808
L16918 47823
L16948 47853
L16963 47898
L16963 47973
" />
<path d="M16648 47688
L16648 47493
L16768 47598
L16768 47553
L16783 47523
L16798 47508
L16828 47493
L16903 47493
L16933 47508
L16948 47523
L16963 47553
L16963 47643
L16948 47673
L16933 47688
" />
<path d="M15963 47973
L15648 47973
L15648 47898
L15663 47853
L15693 47823
L15723 47808
L15783 47793
L15828 47793
L15888 47808
L15918 47823
L15948 47853
L15963 47898
L15963 47973
" />
<path d="M15753 47523
L15963 47523
" />
<path d="M15633 47598
L15858 47673
L15858 47478
" />
<path d="M14663 48180
L14648 48210
L14648 48255
L14663 48300
L14693 48330
L14723 48345
L14783 48360
L14828 48360
L14888 48345
L14918 48330
L14948 48300
L14963 48255
L14963 48225
L14948 48180
L14933 48165
L14828 48165
L14828 48225
" />
<path d="M14963 48030
L14648 48030
L14963 47850
L14648 47850
" />
<path d="M14963 47700
L14648 47700
L14648 47625
L14663 47580
L14693 47550
L14723 47535
L14783 47520
L14828 47520
L14888 47535
L14918 47550
L14948 47580
L14963 47625
L14963 47700
" />
<path d="M13648 47800
L13648 47950
L13798 47965
L13783 47950
L13768 47920
L13768 47845
L13783 47815
L13798 47800
L13828 47785
L13903 47785
L13933 47800
L13948 47815
L13963 47845
L13963 47920
L13948 47950
L13933 47965
" />
<path d="M13648 47695
L13963 47590
L13648 47485
" />
<path d="M13648 36930
L13648 36735
L13768 36840
L13768 36795
L13783 36765
L13798 36750
L13828 36735
L13903 36735
L13933 36750
L13948 36765
L13963 36795
L13963 36885
L13948 36915
L13933 36930
" />
<path d="M13648 36645
L13963 36540
L13648 36435
" />
<path d="M13648 36360
L13648 36165
L13768 36270
L13768 36225
L13783 36195
L13798 36180
L13828 36165
L13903 36165
L13933 36180
L13948 36195
L13963 36225
L13963 36315
L13948 36345
L13933 36360
" />
<path d="M14963 36973
L14648 36973
L14648 36898
L14663 36853
L14693 36823
L14723 36808
L14783 36793
L14828 36793
L14888 36808
L14918 36823
L14948 36853
L14963 36898
L14963 36973
" />
<path d="M14783 36613
L14768 36643
L14753 36658
L14723 36673
L14708 36673
L14678 36658
L14663 36643
L14648 36613
L14648 36553
L14663 36523
L14678 36508
L14708 36493
L14723 36493
L14753 36508
L14768 36523
L14783 36553
L14783 36613
L14798 36643
L14813 36658
L14843 36673
L14903 36673
L14933 36658
L14948 36643
L14963 36613
L14963 36553
L14948 36523
L14933 36508
L14903 36493
L14843 36493
L14813 36508
L14798 36523
L14783 36553
" />
<path d="M15963 36973
L15648 36973
L15648 36898
L15663 36853
L15693 36823
L15723 36808
L15783 36793
L15828 36793
L15888 36808
L15918 36823
L15948 36853
L15963 36898
L15963 36973
" />
<path d="M15648 36688
L15648 36478
L15963 36613
" />
<path d="M16963 36973
L16648 36973
L16648 36898
L16663 36853
L16693 36823
L16723 36808
L16783 36793
L16828 36793
L16888 36808
L16918 36823
L16948 36853
L16963 36898
L16963 36973
" />
<path d="M16648 36523
L16648 36583
L16663 36613
L16678 36628
L16723 36658
L16783 36673
L16903 36673
L16933 36658
L16948 36643
L16963 36613
L16963 36553
L16948 36523
L16933 36508
L16903 36493
L16828 36493
L16798 36508
L16783 36523
L16768 36553
L16768 36613
L16783 36643
L16798 36658
L16828 36673
" />
<path d="M17963 36973
L17648 36973
L17648 36898
L17663 36853
L17693 36823
L17723 36808
L17783 36793
L17828 36793
L17888 36808
L17918 36823
L17948 36853
L17963 36898
L17963 36973
" />
<path d="M17648 36508
L17648 36658
L17798 36673
L17783 36658
L17768 36628
L17768 36553
L17783 36523
L17798 36508
L17828 36493
L17903 36493
L17933 36508
L17948 36523
L17963 36553
L17963 36628
L17948 36658
L17933 36673
" />
<path d="M18963 36973
L18648 36973
L18648 36898
L18663 36853
L18693 36823
L18723 36808
L18783 36793
L18828 36793
L18888 36808
L18918 36823
L18948 36853
L18963 36898
L18963 36973
" />
<path d="M18648 36598
L18648 36568
L18663 36538
L18678 36523
L18708 36508
L18768 36493
L18843 36493
L18903 36508
L18933 36523
L18948 36538
L18963 36568
L18963 36598
L18948 36628
L18933 36643
L18903 36658
L18843 36673
L18768 36673
L18708 36658
L18678 36643
L18663 36628
L18648 36598
" />
<path d="M19873 36965
L19873 36815
" />
<path d="M19963 36995
L19648 36890
L19963 36785
" />
<path d="M19648 36620
L19648 36590
L19663 36560
L19678 36545
L19708 36530
L19768 36515
L19843 36515
L19903 36530
L19933 36545
L19948 36560
L19963 36590
L19963 36620
L19948 36650
L19933 36665
L19903 36680
L19843 36695
L19768 36695
L19708 36680
L19678 36665
L19663 36650
L19648 36620
" />
<path d="M20963 36713
L20813 36818
" />
<path d="M20963 36893
L20648 36893
L20648 36773
L20663 36743
L20678 36728
L20708 36713
L20753 36713
L20783 36728
L20798 36743
L20813 36773
L20813 36893
" />
<path d="M20948 36593
L20963 36548
L20963 36473
L20948 36443
L20933 36428
L20903 36413
L20873 36413
L20843 36428
L20828 36443
L20813 36473
L20798 36533
L20783 36563
L20768 36578
L20738 36593
L20708 36593
L20678 36578
L20663 36563
L20648 36533
L20648 36458
L20663 36413
" />
<path d="M20648 36323
L20648 36143
" />
<path d="M20963 36233
L20648 36233
" />
</g> 
</svg>
